<svg width="1080" height="373" viewBox="0 0 1080 373" fill="none" xmlns="http://www.w3.org/2000/svg">
<path d="M559.61 351.12L96.6641 135.047H986.543L559.61 351.12Z" stroke="#303030" stroke-width="2.84306" stroke-dasharray="5.69 5.69"/>
<path d="M196.79 152.101C197.837 98.2824 155.056 53.8053 101.238 52.7585C47.4192 51.7118 2.942 94.4919 1.89527 148.311C0.848543 202.129 43.6286 246.606 97.4473 247.653C151.266 248.7 195.743 205.92 196.79 152.101Z" fill="white" fill-opacity="0.1"/>
<path d="M191.009 183.03L173.405 156.266L143.778 174.872L170.685 216.234C170.685 216.234 185.427 200.204 191.009 183.03Z" fill="#99583E"/>
<path d="M80.9477 49.3535C82.3789 47.7791 80.3752 45.2029 78.3714 44.4873C76.3677 43.7717 73.7915 43.3423 72.7897 41.4817C71.6447 39.1918 73.6484 36.4724 74.0778 33.8962C74.5071 31.1769 72.9328 28.4575 72.3603 25.7382C71.7878 22.1601 73.0759 18.4389 75.7952 16.1489C78.5146 13.859 82.522 13.1434 85.8138 14.2884C86.1001 8.84968 89.8213 3.84037 94.9737 2.1229C100.126 0.40542 106.137 2.1229 109.572 6.41659C112.292 4.41286 115.011 2.26602 118.017 1.12103C121.165 -0.167073 124.743 -0.45332 127.749 0.834787C130.754 2.12289 133.044 5.55784 132.472 8.84967C134.762 6.13034 139.056 5.55785 142.347 7.1322C145.639 8.70655 147.786 11.9984 148.788 15.4333C150.076 20.2995 148.931 26.0244 145.067 29.1731C141.202 32.3219 134.619 32.0356 131.756 27.885" fill="#263238"/>
<path d="M99.983 131.509C110.574 131.509 119.448 123.208 119.877 112.76C120.306 104.029 120.736 95.585 120.736 95.585C120.736 95.585 137.052 94.44 138.483 78.4102C139.914 62.5235 140.201 25.5978 140.201 25.5978C122.167 16.1517 100.555 17.1536 83.5238 28.0309L81.9495 29.0328L80.0889 111.472C79.9457 122.492 88.8194 131.509 99.983 131.509Z" fill="#B5694A"/>
<path d="M109.286 50.2119C110.574 50.6413 111.147 51.9294 110.717 53.2175C110.288 54.5056 109 55.0781 107.712 54.6487C106.423 54.2193 105.851 52.9312 106.28 51.6431C106.71 50.4981 107.998 49.7825 109.286 50.2119Z" fill="#263238"/>
<path d="M113.722 51.0703C113.436 51.3566 112.005 50.0685 109.715 49.9254C107.568 49.7822 105.851 50.7841 105.564 50.4979C105.421 50.3547 105.707 49.9254 106.423 49.3529C107.139 48.9235 108.427 48.4941 109.715 48.4941C111.146 48.6373 112.291 49.2097 112.864 49.7822C113.722 50.3547 113.865 50.9272 113.722 51.0703Z" fill="#263238"/>
<path d="M133.617 50.2119C134.905 50.6413 135.477 51.9294 135.048 53.2175C134.619 54.5056 133.331 55.0781 132.042 54.6487C130.754 54.2193 130.182 52.9312 130.611 51.6431C131.041 50.4981 132.329 49.7825 133.617 50.2119Z" fill="#263238"/>
<path d="M138.34 51.0703C138.054 51.3566 136.623 50.0685 134.333 49.9254C132.186 49.7822 130.468 50.7841 130.182 50.4979C130.039 50.3547 130.325 49.9254 131.041 49.3529C131.756 48.9235 133.044 48.4941 134.333 48.4941C135.764 48.6373 136.909 49.2097 137.481 49.7822C138.34 50.4979 138.483 50.9272 138.34 51.0703Z" fill="#263238"/>
<path d="M121.595 68.2399C121.595 68.0968 123.026 67.9537 125.173 67.8105C125.745 67.8105 126.175 67.6674 126.318 67.3812C126.461 67.0949 126.318 66.3793 126.032 65.6637C125.602 64.2325 125.173 62.6581 124.6 61.0838C122.74 54.5001 121.452 49.2046 121.738 49.0614C122.024 48.9183 123.885 54.2139 125.745 60.7975C126.175 62.3719 126.604 63.9462 127.033 65.3775C127.177 66.0931 127.463 66.8087 127.177 67.8105C127.033 68.2399 126.461 68.5262 126.032 68.6693C125.602 68.8124 125.316 68.6693 125.03 68.6693C123.026 68.6693 121.595 68.383 121.595 68.2399Z" fill="#263238"/>
<path d="M114.295 70.1113C118.732 72.2582 120.736 72.9738 124.886 74.1188C124.886 74.1188 122.024 77.9831 117.444 75.9794C112.721 73.8325 114.295 70.1113 114.295 70.1113Z" fill="#99583E"/>
<path d="M120.736 95.2984C120.736 95.2984 110.574 95.2984 100.269 87.7129C100.269 87.7129 104.276 99.5921 120.449 99.449L120.736 95.2984Z" fill="#99583E"/>
<path d="M81.5198 52.5047C81.5198 51.2166 80.5179 50.0716 79.2298 50.0716C76.2242 49.9285 71.358 51.0735 70.6424 59.2315C69.7837 70.9676 81.2335 68.2483 81.2335 67.962C81.3766 67.6758 81.3767 57.0847 81.5198 52.5047Z" fill="#99583E"/>
<path d="M78.8002 63.2391C78.8002 63.2391 78.5139 63.3822 78.2277 63.5253C77.9415 63.6685 77.2258 63.6685 76.6533 63.3822C75.5084 62.8097 74.5065 60.806 74.6496 58.6592C74.6496 57.6573 74.9359 56.6554 75.5084 55.7967C75.9377 54.938 76.5102 54.3655 77.2258 54.3655C77.7983 54.2223 78.2277 54.6517 78.3708 55.0811C78.5139 55.3673 78.3708 55.6536 78.514 55.6536C78.514 55.6536 78.8002 55.5104 78.6571 54.938C78.6571 54.6517 78.5139 54.3655 78.2277 54.2223C77.9415 53.9361 77.5121 53.793 77.0827 53.793C76.224 53.793 75.2221 54.5086 74.7927 55.5104C74.2203 56.3692 73.934 57.5142 73.7909 58.6592C73.6478 61.0922 74.7928 63.3822 76.3671 63.9547C77.2258 64.2409 77.9415 64.0978 78.2277 63.8116C78.6571 63.5253 78.8002 63.2391 78.8002 63.2391Z" fill="#B5694A"/>
<path d="M105.851 44.4895C106.28 45.2051 108.141 44.7757 110.431 44.7757C112.721 44.6326 114.438 44.6326 114.868 43.917C115.297 43.2014 113.15 41.4839 110.288 41.7701C107.282 41.9133 105.279 43.7739 105.851 44.4895Z" fill="#263238"/>
<path d="M131.47 44.0608C131.613 44.9195 133.044 45.2058 134.762 45.3489C136.479 45.492 137.911 45.3489 138.197 44.6333C138.483 43.9177 137.052 42.6296 134.905 42.4864C132.901 42.3433 131.327 43.3452 131.47 44.0608Z" fill="#263238"/>
<path d="M142.491 30.7528C142.491 30.7528 132.758 35.4759 120.307 29.1785C112.005 25.0279 102.416 23.0242 100.269 24.7417C98.1224 26.4591 97.6931 34.9034 89.5351 37.3365C89.5351 37.3365 90.1076 53.5094 83.667 52.9369C77.2265 52.3644 81.2339 27.1748 81.2339 27.1748L97.1206 19.4461L114.438 16.1543L130.754 18.4443L143.349 21.8792L142.491 30.7528Z" fill="#263238"/>
<path d="M34.1465 124.64C51.035 107.179 80.8046 109.183 80.8046 109.183L119.448 110.614C119.448 110.614 134.189 112.189 147.929 119.488L148.931 119.774V119.917C159.808 125.785 175.123 139.955 189.721 153.551L172.26 169.724L152.939 186.899C152.939 186.899 153.082 187.042 152.939 187.185C152.795 188.187 156.087 208.94 159.093 226.973C142.061 240.141 120.736 247.869 97.55 247.44C82.8083 247.154 68.9254 243.576 56.4737 237.421L55.0424 220.819C53.7543 205.791 52.7525 187.185 52.7525 187.185" fill="#E51937"/>
<path d="M134.906 113.475C134.906 113.475 135.049 113.761 135.192 114.19C135.335 114.763 135.621 115.478 135.907 116.337C136.48 118.198 137.339 120.774 138.341 124.066C140.344 130.649 142.92 139.666 145.354 149.828C147.787 159.99 149.647 169.293 150.792 176.019C151.365 179.454 151.794 182.174 152.08 184.034C152.223 184.893 152.367 185.609 152.367 186.181C152.367 186.61 152.51 186.897 152.367 186.897C152.223 186.897 152.223 186.61 152.223 186.181C152.08 185.609 151.937 184.893 151.794 184.034C151.365 182.031 150.935 179.311 150.22 176.162C148.932 169.436 146.928 160.276 144.495 150.114C142.062 139.952 139.486 130.936 137.625 124.352C136.623 121.203 135.907 118.484 135.335 116.623C135.049 115.765 134.906 115.049 134.762 114.476C135.049 113.761 134.906 113.475 134.906 113.475Z" fill="#263238"/>
<path d="M167.787 162.401C177.041 154.862 184.421 148.602 184.271 148.418C184.122 148.234 176.498 154.196 167.245 161.735C157.991 169.274 150.611 175.534 150.76 175.718C150.91 175.902 158.533 169.939 167.787 162.401Z" fill="#263238"/>
<path opacity="0.2" d="M56.4738 148.543L41.3027 198.35L46.8845 201.212L52.4663 187.186C52.4663 187.186 58.1912 157.56 56.4738 148.543Z" fill="#101010"/>
<g opacity="0.2">
<path d="M133.331 113.619C141.489 117.912 121.022 128.217 111.862 127.931L118.589 110.184C118.446 110.184 130.611 112.187 133.331 113.619Z" fill="#101010"/>
</g>
<path d="M78.3716 110.183V97.0156C78.3716 97.0156 104.134 103.599 104.992 119.057C104.992 119.057 108.284 102.025 121.595 101.166L123.455 125.068L107.998 138.521H92.3976L79.9459 127.787L78.3716 111.185" fill="#E51937"/>
<path d="M110.861 193.05C110.861 193.05 110.861 192.764 110.861 192.334C110.861 191.762 110.861 191.046 110.861 190.187C110.861 188.327 111.004 185.75 111.004 182.459C111.004 175.875 110.861 167.001 110.002 156.983C109.143 147.107 107.855 138.234 106.71 131.793C106.138 128.644 105.708 125.925 105.279 124.208C105.136 123.349 104.993 122.633 104.849 122.204C104.706 121.775 104.706 121.488 104.706 121.488C104.706 121.488 104.849 121.775 104.993 122.204C105.136 122.776 105.279 123.492 105.565 124.208C105.994 125.925 106.567 128.501 107.139 131.793C108.427 138.234 109.716 147.107 110.574 157.126C111.433 167.001 111.576 176.018 111.29 182.602C111.147 185.894 111.147 188.47 111.004 190.33C111.004 191.189 110.861 191.905 110.861 192.477C111.004 192.764 110.861 193.05 110.861 193.05Z" fill="#263238"/>
<path d="M103.848 114.622C103.848 114.622 103.275 114.336 102.273 114.765C101.844 114.908 101.271 115.337 100.842 115.91C100.413 116.482 99.9834 117.198 99.6971 118.057C98.1228 121.492 96.119 126.358 94.8309 132.369L94.6878 132.798L94.2584 132.512C92.6841 131.653 91.1097 130.509 89.5354 129.507C86.5298 127.36 83.6673 125.213 81.2342 123.209C79.9461 122.207 78.9443 120.919 78.3718 119.488C77.7993 118.057 77.513 116.769 77.513 115.481C77.3699 113.048 77.7993 111.044 78.0855 109.756C78.3718 108.468 78.5149 107.752 78.658 107.752C78.658 107.752 78.658 108.468 78.3718 109.899C78.2287 111.187 77.9424 113.191 78.0855 115.624C78.2287 116.769 78.3718 118.057 78.9443 119.345C79.5168 120.633 80.5186 121.778 81.6636 122.78C84.0967 124.784 86.9592 126.93 89.9648 129.077C91.5391 130.079 93.1135 131.081 94.6878 132.083L94.1153 132.369C95.5465 126.358 97.5503 121.492 99.2677 118.057C99.6971 117.198 100.126 116.482 100.556 115.91C100.985 115.337 101.701 114.908 102.13 114.765C103.418 114.193 103.991 114.622 103.848 114.622Z" fill="#263238"/>
<path d="M121.595 101.305C121.595 101.305 121.738 102.02 121.738 103.308C121.881 104.74 122.024 106.6 122.167 108.89C122.31 111.323 122.597 114.043 123.169 117.191C123.312 118.766 123.885 120.34 123.455 122.201C122.883 124.061 121.595 125.349 120.163 126.494C118.16 128.069 116.013 129.214 114.439 130.788L113.866 131.361V130.502C113.437 125.063 111.719 120.483 110.002 117.621C108.284 114.615 106.996 113.184 107.139 113.041C107.139 113.041 107.569 113.327 108.141 114.043C108.714 114.758 109.572 115.903 110.431 117.334C112.149 120.197 114.152 124.777 114.582 130.359L114.009 130.216C115.584 128.498 117.73 127.21 119.734 125.779C121.165 124.777 122.453 123.489 122.883 121.914C123.312 120.34 122.74 118.766 122.597 117.191C122.167 114.043 121.881 111.18 121.738 108.89C121.595 106.457 121.595 104.597 121.595 103.308C121.595 102.02 121.595 101.305 121.595 101.305Z" fill="#263238"/>
<path d="M204.462 104.598C203.461 105.886 165.533 156.551 165.533 156.551L170.829 159.557L209.758 109.464L204.462 104.598Z" fill="#455A64"/>
<path d="M52.1795 144.676C52.1795 144.676 92.1108 202.068 94.4008 203.213C99.1239 205.503 153.654 158.272 158.949 153.836C159.665 152.834 161.096 150.83 164.102 146.823C164.102 146.823 168.395 127.072 172.975 128.646C177.555 130.22 170.399 138.665 173.405 146.107C176.41 153.549 190.15 135.802 190.579 134.085L194.158 129.505C194.158 129.505 197.879 139.953 197.592 144.39C196.734 158.416 183.423 175.161 183.423 175.161C183.423 175.161 123.741 249.156 82.8078 251.446C71.0717 252.161 50.0327 218.67 36.1497 193.624C27.7055 178.453 31.856 159.417 45.8821 149.256L52.1795 144.676Z" fill="#B5694A"/>
<path d="M191.008 146.819C190.865 146.819 192.153 144.529 193.585 141.666C195.016 138.804 196.018 136.371 196.161 136.514C196.304 136.514 195.445 139.09 194.014 141.953C192.583 144.815 191.152 146.962 191.008 146.819Z" fill="#EB996E"/>
<path d="M45.453 116.617C45.453 116.617 2.65918 131.788 34.4325 203.779L83.8099 174.01L76.7969 157.121L45.453 116.617Z" fill="#E51937"/>
<path d="M42.161 117.908C42.161 117.908 42.3041 117.908 42.4473 117.908C42.7335 117.908 43.0198 117.908 43.4491 117.908C44.3079 117.908 45.596 118.051 47.3134 118.481C48.8878 118.91 50.8915 119.626 52.8952 120.914C54.899 122.202 57.0458 123.919 59.0495 126.066C63.2001 130.36 67.0644 136.371 70.6425 143.384C74.2206 150.397 77.6555 158.412 81.0905 166.713C82.0923 169.289 83.0942 171.722 84.096 174.012L84.2392 174.299L83.9529 174.442C69.6406 182.17 57.1889 189.613 48.4584 195.051C44.0216 197.771 40.5867 200.061 38.1536 201.635C37.0086 202.351 36.0067 202.923 35.4342 203.496C34.8617 203.925 34.4324 204.068 34.4324 204.068C34.4324 204.068 34.7186 203.782 35.2911 203.353C35.8636 202.923 36.8655 202.208 38.0104 201.492C40.3004 199.918 43.8785 197.484 48.1722 194.765C56.9027 189.183 69.3544 181.741 83.6667 174.012L83.5236 174.442C82.5217 172.152 81.5198 169.575 80.518 167.142C77.083 158.698 73.6481 150.826 70.07 143.813C66.4919 136.8 62.7707 130.789 58.7633 126.495C56.7596 124.349 54.7558 122.631 52.7521 121.343C50.7484 120.055 48.8878 119.339 47.3134 118.91C44.0216 117.765 42.161 117.908 42.161 117.908Z" fill="#263238"/>
<path d="M648.556 283.056C646.628 331.503 610.956 371.513 562.509 372.477C514.063 373.442 474.052 334.877 473.088 286.431C472.124 237.984 510.809 193.274 559.135 197.01C610.594 200.987 650.243 238.948 648.556 283.056Z" fill="#303030"/>
<path d="M637.83 307.998L610.473 324.87L620.476 349.093C629.755 340.537 637.107 329.932 641.927 318.121L637.83 307.998Z" fill="#B5694A"/>
<path d="M645.301 308.479C641.807 300.043 629.635 272.084 619.391 261.6C604.206 245.933 577.332 248.102 577.332 248.102L542.503 249.307C542.503 249.307 529.247 250.753 516.834 257.261L515.99 257.502V257.623C506.229 262.925 492.49 275.579 479.354 287.872L495.021 302.454L512.375 317.879C512.375 317.879 512.254 318 512.375 318.241C512.616 319.205 509.603 337.885 506.831 354.033C522.137 365.844 541.419 372.834 562.268 372.352C575.524 372.111 588.058 368.857 599.265 363.434L600.591 348.49C601.796 334.992 602.64 318.241 602.64 318.241L607.581 330.895L643.855 311.974C644.578 310.89 644.94 309.684 645.301 308.479Z" fill="#E51937"/>
<path d="M578.416 246.779C578.416 246.779 578.537 247.02 578.537 247.382C578.657 247.743 578.658 248.466 578.778 249.19C578.899 250.756 578.778 253.167 577.934 255.818C577.091 258.469 575.283 261.602 572.391 264.133C569.498 266.664 565.401 268.351 561.063 268.592C556.724 268.833 552.386 267.508 549.373 265.218C546.239 262.928 544.311 260.036 543.106 257.505C542.021 254.854 541.66 252.564 541.539 250.877C541.539 250.033 541.539 249.431 541.539 249.069C541.539 248.708 541.66 248.466 541.66 248.466C541.78 248.466 541.66 249.31 541.78 250.877C541.901 252.443 542.262 254.733 543.468 257.264C544.673 259.795 546.601 262.567 549.614 264.736C552.627 266.905 556.724 268.11 560.942 267.869C565.16 267.628 569.137 266.061 571.909 263.651C574.681 261.241 576.488 258.228 577.332 255.577C578.296 252.925 578.416 250.636 578.416 249.069C578.537 247.623 578.296 246.779 578.416 246.779Z" fill="#263238"/>
<path d="M611.558 254.372C611.558 254.492 610.594 254.372 609.148 254.974C607.581 255.456 605.532 256.782 603.724 259.072C601.917 261.362 600.712 264.736 600.35 268.592C600.109 270.521 599.989 272.569 599.989 274.618C599.868 276.787 599.868 278.957 599.868 281.126C599.747 290.044 600.35 298.239 600.953 304.023C601.194 306.916 601.555 309.326 601.676 310.893C601.796 311.616 601.796 312.218 601.917 312.821C601.917 313.303 601.917 313.423 601.917 313.423C601.917 313.423 601.796 313.182 601.796 312.821C601.676 312.339 601.555 311.736 601.435 311.013C601.194 309.447 600.832 307.036 600.471 304.144C599.747 298.239 599.145 290.164 599.265 281.126C599.265 278.836 599.386 276.667 599.386 274.618C599.506 272.449 599.627 270.4 599.868 268.472C600.35 264.615 601.555 261.121 603.483 258.831C605.412 256.541 607.581 255.215 609.148 254.733C610.594 254.131 611.558 254.372 611.558 254.372Z" fill="#263238"/>
<path d="M528.644 252.08C528.644 252.08 528.644 252.321 528.524 252.803C528.403 253.285 528.162 253.888 528.041 254.731C527.559 256.419 526.836 258.829 525.993 261.721C524.306 267.626 522.016 275.821 519.847 284.86C517.677 294.019 515.87 302.334 514.785 308.36C514.182 311.373 513.7 313.783 513.459 315.47C513.339 316.314 513.218 316.916 513.098 317.398C512.977 317.881 512.977 318.122 512.977 318.122C512.977 318.122 512.977 317.881 512.977 317.398C513.098 316.916 513.098 316.193 513.218 315.47C513.459 313.783 513.821 311.252 514.423 308.239C515.508 302.214 517.195 293.898 519.365 284.739C521.534 275.58 523.944 267.385 525.752 261.601C526.716 258.708 527.439 256.298 528.041 254.611C528.283 253.888 528.524 253.285 528.644 252.683C528.644 252.321 528.644 252.08 528.644 252.08Z" fill="#263238"/>
<path d="M644.578 302.697C644.578 302.697 644.096 303.059 643.132 303.782C642.168 304.384 640.843 305.349 639.155 306.433C635.781 308.602 630.96 311.615 625.537 314.628C620.114 317.761 615.173 320.292 611.558 322.22C609.75 323.185 608.304 323.908 607.219 324.39C606.135 324.872 605.652 325.113 605.532 325.113C605.532 325.113 606.014 324.751 607.099 324.149C608.183 323.546 609.629 322.823 611.317 321.859C614.932 319.931 619.873 317.279 625.176 314.146C630.599 311.013 635.419 308.12 638.794 306.072C640.481 305.108 641.807 304.264 642.891 303.541C643.976 302.938 644.578 302.697 644.578 302.697Z" fill="#263238"/>
<path d="M514.383 307.917C514.509 307.762 507.876 302.15 499.568 295.382C491.26 288.614 484.423 283.252 484.297 283.407C484.171 283.562 490.803 289.174 499.111 295.942C507.419 302.71 514.256 308.071 514.383 307.917Z" fill="#263238"/>
<path opacity="0.2" d="M599.386 283.535L613.004 328.366L607.942 331.018L603.001 318.364C602.881 318.243 597.819 291.73 599.386 283.535Z" fill="#101010"/>
<g opacity="0.2">
<path d="M530.211 252.079C522.86 255.936 541.298 265.215 549.614 264.974L543.588 249.066C543.467 249.066 532.621 250.754 530.211 252.079Z" fill="#101010"/>
</g>
<path opacity="0.2" d="M577.091 317.035L533.465 317.276L536.357 301.127L580.224 300.283L577.091 317.035Z" fill="#B7142C"/>
<path d="M572.873 195.077C572.511 196.283 572.993 197.729 573.958 198.452C574.922 199.295 576.368 199.416 577.452 198.813C579.501 197.729 579.742 194.716 579.26 192.426C578.778 190.136 577.934 187.606 578.899 185.436C579.622 183.749 581.188 182.665 582.514 181.339C584.683 179.049 585.768 175.675 585.165 172.541C584.563 169.408 582.152 166.636 579.14 165.913C576.006 165.07 572.15 166.154 569.86 163.864C568.173 162.298 567.932 159.526 566.606 157.598C564.557 154.585 560.219 154.223 556.604 154.826C552.988 155.429 549.373 156.634 545.757 155.79C542.744 155.067 540.334 153.139 537.562 151.934C531.537 149.282 523.824 150.969 519.365 155.79C514.906 160.611 513.942 168.444 517.196 174.229C518.28 176.277 520.088 178.206 522.257 179.049" fill="#263238"/>
<path d="M560.219 268.237C550.698 268.237 542.744 260.766 542.262 251.366C541.901 243.412 541.539 235.819 541.539 235.819C541.539 235.819 526.837 234.735 525.511 220.394C524.185 206.052 523.944 172.911 523.944 172.911C540.093 164.475 559.616 165.319 575.042 175.08L576.488 175.924L578.175 250.16C578.296 260.163 570.222 268.237 560.219 268.237Z" fill="#B5694A"/>
<path d="M551.783 195.082C550.698 195.443 550.096 196.648 550.457 197.733C550.819 198.818 552.024 199.42 553.109 199.059C554.193 198.697 554.796 197.492 554.434 196.407C554.073 195.323 552.868 194.72 551.783 195.082Z" fill="#263238"/>
<path d="M547.806 195.809C548.047 196.05 549.373 194.845 551.422 194.725C553.47 194.604 554.916 195.568 555.157 195.207C555.278 195.086 555.037 194.604 554.314 194.243C553.711 193.76 552.627 193.399 551.301 193.519C550.096 193.64 549.011 194.122 548.409 194.725C547.927 195.207 547.686 195.689 547.806 195.809Z" fill="#263238"/>
<path d="M529.97 195.082C528.886 195.443 528.283 196.648 528.645 197.733C529.006 198.818 530.211 199.42 531.296 199.059C532.381 198.697 532.983 197.492 532.622 196.407C532.26 195.323 531.055 194.72 529.97 195.082Z" fill="#263238"/>
<path d="M525.632 195.809C525.873 196.05 527.198 194.845 529.247 194.725C531.296 194.604 532.742 195.568 532.983 195.207C533.104 195.086 532.863 194.604 532.14 194.243C531.537 193.76 530.452 193.399 529.127 193.519C527.922 193.64 526.837 194.122 526.234 194.725C525.752 195.327 525.511 195.689 525.632 195.809Z" fill="#263238"/>
<path d="M540.696 211.351C540.696 211.23 539.491 210.989 537.442 210.989C536.96 210.989 536.478 210.869 536.478 210.628C536.358 210.266 536.478 209.784 536.719 209.061C537.081 207.736 537.563 206.289 537.924 204.964C539.611 199.059 540.817 194.238 540.455 194.118C540.093 193.997 538.527 198.697 536.84 204.602C536.478 206.048 535.996 207.374 535.634 208.82C535.514 209.423 535.152 210.146 535.514 210.989C535.634 211.351 536.117 211.712 536.478 211.712C536.84 211.833 537.081 211.712 537.322 211.712C539.491 211.592 540.696 211.471 540.696 211.351Z" fill="#263238"/>
<path d="M547.324 213.043C543.347 214.971 541.419 215.574 537.803 216.658C537.803 216.658 540.455 220.153 544.432 218.346C548.65 216.297 547.324 213.043 547.324 213.043Z" fill="#99583E"/>
<path d="M541.54 235.701C541.54 235.701 550.699 235.701 559.978 228.832C559.978 228.832 556.363 239.558 541.781 239.437L541.54 235.701Z" fill="#A36957"/>
<path d="M576.85 190.624C576.85 189.419 577.693 188.455 578.899 188.455C581.55 188.334 586.009 189.298 586.611 196.65C587.455 207.255 577.091 204.724 577.091 204.483C576.97 204.242 576.85 194.721 576.85 190.624Z" fill="#99583E"/>
<path d="M579.26 200.269C579.26 200.269 579.501 200.389 579.742 200.51C580.104 200.63 580.586 200.63 581.188 200.389C582.273 199.907 583.117 198.1 582.996 196.171C582.996 195.207 582.635 194.364 582.273 193.52C581.912 192.797 581.309 192.315 580.827 192.194C580.224 192.074 579.863 192.435 579.742 192.797C579.622 193.158 579.742 193.279 579.622 193.279C579.622 193.279 579.381 193.158 579.381 192.676C579.381 192.435 579.501 192.194 579.742 191.953C579.983 191.712 580.345 191.592 580.706 191.592C581.55 191.592 582.273 192.315 582.755 193.038C583.237 193.882 583.599 194.846 583.599 195.93C583.719 198.1 582.755 200.148 581.188 200.751C580.465 200.992 579.863 200.871 579.501 200.63C579.381 200.51 579.26 200.269 579.26 200.269Z" fill="#B5694A"/>
<path d="M554.916 189.896C554.434 190.499 552.868 190.258 550.819 190.137C548.77 190.017 547.203 190.017 546.842 189.414C546.36 188.812 548.409 187.245 551.06 187.486C553.711 187.606 555.398 189.294 554.916 189.896Z" fill="#263238"/>
<path d="M531.898 189.534C531.778 190.257 530.452 190.619 528.885 190.739C527.439 190.86 525.993 190.739 525.752 190.016C525.511 189.293 526.716 188.208 528.644 188.088C530.573 187.967 532.019 188.811 531.898 189.534Z" fill="#263238"/>
<path d="M522.016 177.478C522.016 177.478 530.693 181.696 542.021 176.032C549.493 172.296 558.049 170.489 559.978 172.055C561.906 173.501 562.267 181.214 569.619 183.384C569.619 183.384 569.137 197.966 574.921 197.484C580.706 197.002 577.091 174.345 577.091 174.345L562.87 167.355L547.324 164.463L532.621 166.512L521.293 169.645L522.016 177.478Z" fill="#263238"/>
<path d="M469.954 202.547C470.436 203.39 487.188 261.478 487.188 261.478L453.926 266.058L438.621 218.696L469.954 202.547Z" fill="#455A64"/>
<path d="M487.188 261.358L490.201 259.791L472.847 200.98L469.593 202.668L487.188 261.358Z" fill="#263238"/>
<path d="M454.943 219.601C455.723 219.433 456.221 218.664 456.053 217.883C455.886 217.102 455.117 216.605 454.336 216.773C453.555 216.94 453.058 217.709 453.225 218.49C453.393 219.271 454.162 219.768 454.943 219.601Z" fill="#E51937"/>
<path d="M480.921 287.875L459.108 302.096L455.131 251.239L455.493 248.708L470.195 243.165L465.977 232.319C463.929 227.257 457.903 224.967 453.083 227.498C451.516 228.342 449.829 229.185 448.382 229.908C445.008 231.595 442.477 234.729 441.513 238.344C439.826 244.611 438.38 251.48 438.5 250.878L429.1 316.317C429.1 316.317 424.641 335.237 437.536 344.155C447.298 350.904 463.688 343.794 472.365 338.853L510.085 316.075L480.921 287.875Z" fill="#B5694A"/>
<path d="M990.417 245.485C1039.89 242.363 1077.47 199.724 1074.35 150.248C1071.22 100.773 1028.58 63.1962 979.109 66.3188C929.634 69.4413 892.057 112.08 895.18 161.556C898.302 211.031 940.941 248.608 990.417 245.485Z" fill="#303030"/>
<path d="M1018.5 32.1445C1018.9 39.8039 1019.44 42.0883 1022.4 48.2696C1024.14 51.8977 1026.43 55.2571 1027.37 59.154C1028.31 62.7821 1027.77 66.8134 1028.44 70.4415C1029.52 76.4884 1033.55 81.5947 1036.64 86.9697C1039.73 92.3447 1041.75 99.1978 1038.66 104.707L1007.62 101.079L1005.47 62.5133L1018.5 32.1445Z" fill="#263238"/>
<path d="M956.687 19.1133C952.655 27.7133 958.299 36.1789 954.268 44.779C952.252 48.9446 950.237 53.2446 949.162 57.8134C948.221 61.979 947.952 66.279 946.34 70.1759C943.652 76.3572 937.605 80.5228 934.783 86.5697C930.618 95.5728 935.052 106.995 942.98 112.907C950.909 118.954 961.524 120.432 971.334 119.76C977.38 119.357 983.427 118.148 988.668 115.057C993.909 111.967 997.94 106.726 998.612 100.679" fill="#263238"/>
<path d="M1002.78 3.92773C1022.8 12.7965 1026.7 45.7185 1026.83 50.0185C1026.97 55.2591 1029.79 56.3341 1033.28 59.156C1036.77 61.9779 1040.13 65.2029 1041.21 69.5029C1042.02 72.8623 1041.21 76.6248 1042.82 79.7154C1044.7 83.3435 1049.27 84.6873 1052.9 86.9717C1059.62 91.2717 1062.84 99.3342 1063.25 107.128C1063.65 114.922 1061.5 122.581 1059.35 130.106C1058.54 133.062 1057.47 136.287 1054.78 137.9C1052.77 139.109 1050.08 139.109 1047.66 139.109C1035.03 138.841 1022.4 138.572 1009.63 138.303C999.956 138.034 990.012 137.766 981.009 134.272C973.753 131.316 967.303 126.209 963.406 119.491C959.509 112.772 958.165 104.709 960.181 97.3186C961.793 91.6748 965.287 86.4342 966.228 80.656C967.437 73.3998 961.39 70.3091 959.24 63.3216C957.09 56.3341 955.209 39.5372 958.299 32.8184" fill="#263238"/>
<path d="M1025.62 185.063L1019.44 165.041L1018.5 195.679C1018.5 195.679 1026.56 216.507 1032.74 232.498C1020.38 239.888 1006.14 244.591 990.684 245.532C971.603 246.741 953.328 242.038 937.874 233.17L947.549 198.635L942.981 159.532L930.349 177.673L903.206 151.469C903.206 151.469 923.093 114.785 925.512 111.56C941.234 90.1942 968.243 90.7317 968.243 90.7317L1006.54 92.8817C1006.54 92.8817 1028.04 91.6723 1042.28 108.738C1042.28 108.738 1056.12 129.835 1067.41 181.973L1025.62 185.063Z" fill="#E51937"/>
<path d="M1044.84 114.39C1044.84 114.39 1044.7 114.39 1044.3 114.524C1043.9 114.524 1043.36 114.659 1042.69 114.793C1041.21 115.062 1039.19 115.465 1036.64 116.54C1034.09 117.615 1031.13 119.362 1028.31 122.049C1026.83 123.393 1025.49 125.005 1024.28 126.887C1023.07 128.768 1021.99 130.918 1021.46 133.337C1021.19 134.546 1021.19 135.755 1021.59 136.965C1021.99 138.174 1022.67 139.249 1023.74 140.055C1024.82 140.862 1026.16 141.13 1027.5 140.593C1028.71 140.19 1029.65 138.98 1030.06 137.637C1030.46 136.293 1030.46 134.815 1029.79 133.471C1029.12 132.127 1028.17 131.052 1026.83 130.112C1024.28 128.23 1021.19 127.155 1017.96 126.752C1014.74 126.349 1011.24 126.752 1007.88 127.693C1004.52 128.634 1001.17 129.843 998.075 131.724C994.984 133.605 992.162 136.024 990.012 139.115C988.937 140.593 988.131 142.34 988.131 144.221C988.131 145.162 988.265 145.968 988.803 146.774C989.34 147.58 990.012 148.118 990.818 148.655C991.759 148.924 992.7 149.193 993.506 148.79C994.312 148.387 994.984 147.58 995.521 146.774C996.462 144.893 996.596 142.743 996.596 140.593C996.596 138.443 996.328 136.427 995.656 134.412C994.984 132.53 993.775 130.784 992.296 129.305C989.34 126.484 985.443 124.871 981.546 124.468C977.65 124.065 973.618 124.602 969.99 125.812C966.362 126.887 962.734 128.365 960.315 131.187C959.24 132.53 958.434 134.277 958.568 136.024C958.703 137.771 959.643 139.384 960.853 140.459C961.524 140.996 962.196 141.399 963.003 141.399C963.809 141.534 964.615 141.265 965.287 140.862C966.631 140.055 967.303 138.309 967.437 136.83C967.571 135.218 967.437 133.605 966.9 132.127C966.631 131.321 966.362 130.649 966.093 129.977C965.959 129.574 965.824 129.305 965.69 128.902L965.153 127.962C963.809 125.274 961.928 122.99 959.912 120.974C955.881 117.077 951.312 114.658 947.146 113.315C942.981 111.971 939.084 111.568 935.993 111.837C932.903 112.105 930.484 112.643 929.006 113.18C928.199 113.449 927.662 113.718 927.259 113.852C926.856 113.987 926.587 113.987 926.587 113.987C926.587 113.987 926.721 113.852 927.124 113.718C927.528 113.584 928.065 113.315 928.871 113.046C930.484 112.508 932.768 111.837 935.993 111.568C939.084 111.299 942.981 111.702 947.281 112.912C951.581 114.255 956.149 116.674 960.315 120.571C962.331 122.587 964.212 124.871 965.69 127.559L966.228 128.634C966.362 129.037 966.496 129.305 966.631 129.709C966.899 130.38 967.303 131.187 967.437 131.993C967.975 133.605 968.109 135.218 967.974 136.83C967.84 138.443 967.168 140.324 965.556 141.399C964.75 141.937 963.809 142.071 962.868 142.071C961.928 141.937 961.121 141.534 960.315 140.996C958.837 139.787 957.896 138.04 957.762 136.159C957.628 135.218 957.762 134.277 958.165 133.337C958.568 132.396 958.971 131.59 959.643 130.918C962.196 127.962 965.825 126.484 969.587 125.274C973.35 124.199 977.381 123.527 981.412 123.93C985.443 124.334 989.609 126.08 992.565 129.037C994.043 130.515 995.387 132.262 996.193 134.277C997 136.293 997.268 138.443 997.268 140.593C997.268 142.743 997 145.027 996.059 147.043C995.521 147.984 994.85 148.924 993.775 149.462C992.7 149.865 991.49 149.73 990.55 149.327C989.743 148.79 988.937 148.118 988.4 147.177C987.862 146.237 987.593 145.296 987.593 144.221C987.593 142.205 988.534 140.324 989.609 138.712C991.893 135.487 994.85 133.068 997.94 131.187C1001.03 129.171 1004.52 127.962 1007.88 127.021C1011.24 126.08 1014.74 125.677 1018.23 126.08C1021.59 126.484 1024.82 127.559 1027.37 129.574C1028.71 130.515 1029.79 131.724 1030.46 133.202C1031.13 134.68 1031.27 136.293 1030.73 137.771C1030.32 139.249 1029.25 140.593 1027.77 141.13C1026.29 141.668 1024.68 141.265 1023.61 140.459C1022.4 139.652 1021.59 138.443 1021.19 137.099C1020.78 135.755 1020.78 134.412 1021.05 133.202C1021.59 130.649 1022.8 128.499 1023.87 126.618C1025.08 124.737 1026.56 123.124 1027.91 121.78C1030.86 119.093 1033.82 117.346 1036.37 116.271C1038.92 115.196 1041.07 114.793 1042.55 114.658C1044.03 114.39 1044.84 114.39 1044.84 114.39Z" fill="#FAFAFA"/>
<path d="M1061.1 158.191C1061.1 158.326 1059.75 158.595 1057.6 159.804C1055.45 161.013 1052.63 163.432 1050.75 167.463C1050.21 168.404 1049.94 169.613 1049.67 170.688C1049.41 171.898 1049.27 173.107 1049.67 174.316C1049.81 174.854 1050.21 175.526 1050.62 175.795C1051.15 176.063 1051.69 176.198 1052.36 175.929C1053.57 175.391 1054.24 174.048 1054.38 172.704C1054.78 169.882 1053.03 166.791 1050.35 165.448C1047.52 164.104 1043.9 164.507 1041.21 166.254C1038.39 168.135 1036.77 171.091 1036.1 174.182C1035.7 175.66 1035.7 177.273 1036.51 178.482C1037.18 179.691 1038.79 180.498 1040 179.826C1041.21 179.288 1042.02 177.945 1042.02 176.601C1042.02 175.257 1041.48 174.048 1040.81 172.973C1039.46 170.823 1037.45 169.345 1035.3 168.538C1033.28 167.732 1031.13 167.732 1029.52 168.135C1027.77 168.538 1026.43 169.21 1025.49 170.016C1023.47 171.495 1022.93 172.838 1022.8 172.704C1022.8 172.704 1022.8 172.57 1022.93 172.435C1023.07 172.301 1023.2 172.032 1023.34 171.763C1023.74 171.226 1024.28 170.42 1025.35 169.613C1026.29 168.807 1027.77 168.001 1029.52 167.598C1031.27 167.195 1033.42 167.06 1035.57 167.866C1037.72 168.673 1039.87 170.151 1041.34 172.435C1042.02 173.51 1042.69 174.988 1042.69 176.466C1042.69 177.945 1041.88 179.557 1040.4 180.229C1039.6 180.632 1038.79 180.632 1037.98 180.229C1037.18 179.96 1036.64 179.288 1036.1 178.616C1035.16 177.138 1035.3 175.391 1035.7 173.779C1036.37 170.554 1038.25 167.463 1041.21 165.448C1044.17 163.432 1048.06 163.029 1051.02 164.507C1054.11 165.985 1055.86 169.345 1055.45 172.435C1055.32 173.913 1054.51 175.526 1053.03 176.063C1052.23 176.332 1051.42 176.198 1050.75 175.795C1050.08 175.391 1049.81 174.72 1049.54 174.048C1049.14 172.704 1049.27 171.36 1049.54 170.151C1049.81 168.941 1050.21 167.866 1050.75 166.791C1052.77 162.626 1055.72 160.341 1057.87 159.132C1059.62 158.326 1061.1 158.191 1061.1 158.191Z" fill="#FAFAFA"/>
<path d="M1018.63 177.41C1018.63 177.41 1018.5 177.41 1018.37 177.41C1018.1 177.41 1017.83 177.276 1017.42 177.141C1016.62 177.007 1015.27 176.738 1013.66 176.47C1010.44 176.066 1005.47 176.201 1000.09 178.351C998.747 178.888 997.403 179.56 996.059 180.366C994.715 181.173 993.372 182.248 992.565 183.726C991.625 185.07 991.222 186.951 991.893 188.563C992.162 189.37 992.7 190.176 993.372 190.713C994.043 191.251 994.984 191.385 995.925 191.251C997.672 190.848 999.15 189.235 999.418 187.354C999.687 185.473 999.015 183.457 997.806 181.71C995.522 178.216 991.893 175.529 987.593 174.454C983.293 173.379 978.725 174.185 975.231 176.335C973.484 177.41 971.872 178.754 970.662 180.366C970.125 181.173 969.722 182.113 969.453 183.054C969.184 183.995 969.184 184.935 969.722 185.741C970.125 186.548 970.931 187.085 971.737 187.085C972.543 187.085 973.484 186.816 974.156 186.413C975.634 185.473 976.172 183.591 975.903 181.979C975.768 180.366 975.097 178.754 974.29 177.41C973.484 176.066 972.543 174.857 971.468 173.782C969.318 171.766 966.9 170.557 964.75 169.751C962.6 168.945 960.584 168.81 958.837 168.81C955.612 168.81 953.865 169.751 953.865 169.616C953.865 169.616 954 169.616 954.134 169.482C954.403 169.348 954.671 169.348 955.075 169.213C955.881 168.945 957.225 168.676 958.837 168.541C960.45 168.407 962.6 168.676 964.75 169.348C967.034 170.02 969.453 171.363 971.603 173.379C972.678 174.454 973.753 175.663 974.559 177.007C975.365 178.485 976.037 179.963 976.172 181.845C976.306 182.785 976.172 183.726 975.903 184.532C975.634 185.473 974.962 186.279 974.156 186.816C973.35 187.354 972.409 187.757 971.334 187.623C970.259 187.488 969.318 186.951 968.781 185.876C968.243 184.935 968.243 183.726 968.512 182.785C968.781 181.71 969.184 180.77 969.856 179.963C971.065 178.216 972.812 176.873 974.693 175.798C978.456 173.648 983.159 172.707 987.593 173.782C992.028 174.857 995.925 177.679 998.209 181.307C999.418 183.188 1000.09 185.338 999.822 187.488C999.553 189.638 997.94 191.52 995.79 191.923C994.715 192.191 993.64 191.923 992.834 191.251C992.028 190.713 991.49 189.773 991.087 188.832C990.818 187.891 990.684 186.951 990.818 186.01C990.953 185.07 991.356 184.263 991.893 183.457C992.834 181.979 994.312 180.904 995.656 179.963C997 179.157 998.478 178.485 999.822 177.948C1005.33 175.798 1010.44 175.798 1013.66 176.201C1017.02 176.738 1018.63 177.41 1018.63 177.41Z" fill="#FAFAFA"/>
<path d="M868.537 65.4744C871.359 65.6088 870.552 80.7932 872.568 77.5682C874.584 74.3432 871.359 58.89 874.315 59.1588C878.077 59.5619 877.002 75.4182 877.002 76.7619C877.002 78.1057 879.018 78.1057 878.884 76.8963C878.749 75.1494 878.212 56.74 881.974 57.0088C883.99 57.1431 883.318 60.9056 883.318 60.9056C883.318 60.9056 882.646 78.2401 884.393 78.2401C886.14 78.3745 886.946 68.1619 886.946 64.8025C886.946 61.4432 888.559 59.965 890.037 61.1744C891.112 61.9806 891.246 72.4619 891.112 75.9557C890.977 79.3151 890.574 88.7213 894.471 84.1526C898.368 79.5838 903.071 77.5682 904.684 77.9713C906.296 78.2401 906.431 80.6588 904.684 81.4651C903.34 82.137 901.324 83.8838 899.981 85.2276C898.771 86.3026 897.965 87.7807 897.024 89.1245C896.084 90.6026 895.681 91.5432 895.009 93.962L900.249 157.253L904.146 152.415L926.318 173.781L914.762 187.084C906.296 196.759 890.977 197.431 882.377 187.89C882.109 187.487 881.706 187.218 881.437 186.815C879.287 184.128 878.077 180.634 877.809 177.14L870.552 95.037C870.418 85.8995 867.865 78.912 867.462 74.2088C866.656 65.4744 867.462 65.4744 868.537 65.4744Z" fill="#B5694A"/>
<path d="M970.931 99.335C971.065 89.7944 970.931 79.7162 970.931 79.7162C970.931 79.7162 958.703 77.5662 956.284 61.4412C954 46.1224 957.896 13.0661 957.896 13.0661C975.634 6.07855 995.79 8.76606 1008.15 23.1442L1006.27 100.679C1006 109.682 998.075 116.669 988.534 116.401C978.59 115.998 970.796 108.473 970.931 99.335Z" fill="#B5694A"/>
<path d="M961.121 38.4633C961.121 39.5383 961.927 40.4789 963.137 40.6133C964.212 40.7477 965.287 39.807 965.287 38.732C965.287 37.657 964.48 36.7164 963.271 36.582C962.196 36.582 961.121 37.3883 961.121 38.4633Z" fill="#263238"/>
<path d="M957.762 36.0508C958.03 36.3195 959.643 35.2445 961.793 35.2445C963.943 35.2445 965.555 36.4539 965.824 36.1852C965.959 36.0508 965.69 35.5133 965.018 35.1102C964.346 34.5727 963.137 34.0352 961.793 34.0352C960.449 34.0352 959.24 34.5727 958.568 34.9758C957.896 35.5133 957.762 35.9164 957.762 36.0508Z" fill="#263238"/>
<path d="M983.832 39.1324C983.832 40.2074 984.638 41.148 985.847 41.2824C986.922 41.4168 987.997 40.4761 987.997 39.4011C987.997 38.3261 987.191 37.3855 985.982 37.2511C984.772 37.1167 983.832 38.0574 983.832 39.1324Z" fill="#263238"/>
<path d="M980.875 37.1133C981.144 37.382 982.756 36.307 984.906 36.307C987.056 36.307 988.669 37.5164 988.938 37.2477C989.072 37.1133 988.803 36.5758 988.131 36.1727C987.459 35.6352 986.25 35.0977 984.906 35.0977C983.563 35.0977 982.353 35.6352 981.681 36.0383C981.009 36.5758 980.875 36.9789 980.875 37.1133Z" fill="#263238"/>
<path d="M972.678 53.5097C972.678 53.3754 971.334 53.1066 969.05 52.8379C968.512 52.8379 967.975 52.7035 967.84 52.3004C967.706 51.8972 967.975 51.2254 968.243 50.6879C968.781 49.3441 969.318 47.866 969.99 46.3878C972.409 40.3409 974.156 35.2347 973.887 35.1003C973.618 34.9659 971.468 39.9378 969.05 45.9847C968.512 47.4629 967.975 48.941 967.437 50.2847C967.168 50.9566 966.9 51.6285 967.168 52.4347C967.303 52.8379 967.706 53.1066 968.109 53.241C968.512 53.3754 968.781 53.3754 969.05 53.3754C971.334 53.6441 972.678 53.6441 972.678 53.5097Z" fill="#263238"/>
<path d="M970.931 79.7203C970.931 79.7203 981.681 80.5266 992.566 74.2109C992.566 74.2109 987.191 85.2297 971.2 83.4828L970.931 79.7203Z" fill="#99583E"/>
<path d="M973.618 58.8851C974.424 57.8101 975.768 57.2726 977.246 57.407C978.187 57.5414 979.128 57.9445 979.799 58.7508C980.337 59.557 980.471 60.632 979.934 61.4383C979.262 62.2445 978.053 62.5133 976.978 62.1101C975.903 61.8414 974.962 61.0351 974.156 60.3633C973.887 60.2289 973.618 59.9601 973.484 59.6914C973.349 59.4226 973.349 59.1539 973.618 58.8851Z" fill="#99583E"/>
<path d="M979.263 55.125C978.859 55.125 978.859 57.5438 976.844 59.1563C974.828 60.9031 972.275 60.5 972.141 60.9031C972.141 61.0375 972.678 61.4407 973.753 61.4407C974.828 61.4407 976.306 61.1719 977.65 60.0969C978.859 59.0219 979.531 57.6781 979.531 56.7375C979.666 55.6625 979.397 55.125 979.263 55.125Z" fill="#263238"/>
<path d="M1001.17 11.7204C995.253 20.0517 979.8 28.6517 968.646 30.6674C969.99 28.9205 976.843 24.7548 978.053 23.008C972.946 26.7705 965.825 31.8767 959.106 32.1455C958.3 32.1455 957.493 32.1455 956.821 31.7424C955.881 31.2049 955.746 30.1299 955.612 29.1892C955.209 25.2923 955.478 18.5736 956.015 14.6767C956.687 10.7798 958.434 6.88292 961.793 4.32979C966.093 0.970407 972.275 0.164159 978.053 0.0297842C982.89 -0.104591 987.862 0.164162 992.297 1.91104C996.731 3.65792 1000.49 7.15168 1001.17 11.3173" fill="#263238"/>
<path d="M1017.96 49.212C1018.77 45.0464 1019.44 41.1495 1019.57 38.462C1020.11 30.1307 1017.69 -0.372456 989.072 2.0463L995.925 10.7807C995.925 10.7807 990.281 29.3245 1002.24 42.0901C1002.24 42.0901 1002.91 49.6152 1011.24 58.2152C1011.38 58.2152 1016.22 58.0808 1017.96 49.212Z" fill="#263238"/>
<path d="M1001.97 40.7402C1003.72 40.4714 1005.47 40.4714 1007.08 41.1433C1008.69 41.8152 1010.17 43.0246 1010.84 44.6371C1011.51 46.2496 1011.38 48.1308 1010.84 49.7433C1010.17 51.3558 1009.09 52.834 1007.88 54.0433C1006.94 54.8496 1006 55.6558 1004.79 56.059C1003.58 56.4621 1002.24 56.3277 1001.17 55.5215" fill="#99583E"/>
<path d="M1002.78 51.2321C1002.64 51.2321 1003.32 52.3071 1004.93 51.9039C1005.73 51.7696 1006.41 51.0977 1006.94 50.2914C1007.35 49.4852 1007.75 48.5445 1007.88 47.4695C1008.02 46.3945 1007.75 45.3195 1007.21 44.3789C1006.67 43.5727 1005.73 43.0352 1004.93 43.0352C1003.32 43.0352 1002.78 44.1102 1003.05 44.1102C1003.18 44.2445 1003.85 43.707 1004.93 43.9758C1006 44.1102 1006.94 45.5883 1006.67 47.3352C1006.41 49.0821 1005.73 50.6946 1004.79 51.0977C1003.58 51.5008 1002.91 51.0977 1002.78 51.2321Z" fill="#B5694A"/>
<path d="M1022.13 205.09V197.7H970.527L955.343 131.318L878.077 131.99L896.755 205.09H1022.13Z" fill="#263238"/>
<path d="M921.668 173.011C924.35 172.14 925.594 168.572 924.447 165.043C923.3 161.515 920.196 159.361 917.514 160.232C914.832 161.104 913.588 164.671 914.735 168.2C915.882 171.729 918.986 173.883 921.668 173.011Z" fill="#E51937"/>
<path d="M951.849 204.549C950.506 202.13 949.431 199.443 948.624 196.755C948.49 196.083 948.221 195.411 948.356 194.739C948.49 194.068 948.893 193.396 949.565 193.261C950.774 192.993 951.581 194.471 951.984 195.68C953.731 199.98 957.627 203.205 962.062 204.146L965.152 204.011V203.877L1032.74 197.83L1029.52 184.393L1065.26 181.705L1068.49 194.874C1070.23 211.402 1056.93 225.511 1040.4 224.974H962.868C938.277 226.586 933.574 204.818 933.574 204.818L951.849 204.549Z" fill="#B5694A"/>
</svg>
