<svg width="904" height="312" viewBox="0 0 904 312" fill="none" xmlns="http://www.w3.org/2000/svg">
<path d="M468.414 293.898L80.9111 113.037H825.773L468.414 293.898Z" stroke="#303030" stroke-width="2.37975" stroke-dasharray="4.76 4.76"/>
<path d="M164.72 127.315C165.597 82.2666 129.788 45.0376 84.7398 44.1614C39.6916 43.2853 2.46257 79.0938 1.58641 124.142C0.710262 169.19 36.5188 206.419 81.567 207.295C126.615 208.172 163.844 172.363 164.72 127.315Z" fill="white" fill-opacity="0.1"/>
<path d="M159.88 153.203L145.145 130.801L120.347 146.375L142.869 180.997C142.869 180.997 155.208 167.579 159.88 153.203Z" fill="#99583E"/>
<path d="M67.7559 41.3107C68.9539 39.9929 67.2767 37.8365 65.5995 37.2375C63.9224 36.6385 61.766 36.2791 60.9274 34.7217C59.969 32.8049 61.6462 30.5288 62.0056 28.3724C62.365 26.0962 61.0472 23.82 60.568 21.5438C60.0888 18.5488 61.167 15.4341 63.4432 13.5173C65.7194 11.6005 69.0737 11.0015 71.8291 11.9599C72.0687 7.40751 75.1835 3.21453 79.4963 1.77694C83.809 0.339352 88.8406 1.77694 91.7158 5.37092C93.992 3.69373 96.2682 1.89674 98.7839 0.938347C101.42 -0.139846 104.415 -0.379445 106.93 0.698748C109.446 1.77694 111.363 4.65212 110.884 7.4075C112.8 5.13132 116.394 4.65212 119.15 5.96992C121.905 7.28771 123.702 10.0431 124.541 12.9183C125.619 16.9914 124.661 21.7834 121.426 24.419C118.191 27.0546 112.681 26.815 110.285 23.3408" fill="#263238"/>
<path d="M83.6882 110.076C92.5533 110.076 99.9809 103.127 100.34 94.3819C100.7 87.0741 101.059 80.0059 101.059 80.0059C101.059 80.0059 114.716 79.0476 115.914 65.63C117.112 52.3323 117.352 21.4241 117.352 21.4241C102.257 13.5174 84.1674 14.356 69.9113 23.4607L68.5935 24.2993L67.0361 93.3037C66.9163 102.528 74.3439 110.076 83.6882 110.076Z" fill="#B5694A"/>
<path d="M91.4751 42.0293C92.5533 42.3886 93.0325 43.4668 92.6731 44.545C92.3137 45.6232 91.2355 46.1024 90.1573 45.743C89.0791 45.3836 88.5999 44.3054 88.9593 43.2272C89.3187 42.2688 90.3969 41.6699 91.4751 42.0293Z" fill="#263238"/>
<path d="M95.1886 42.7482C94.949 42.9878 93.751 41.9096 91.8342 41.7898C90.0372 41.67 88.5996 42.5086 88.36 42.269C88.2402 42.1492 88.4798 41.7898 89.0788 41.3106C89.6778 40.9512 90.756 40.5918 91.8342 40.5918C93.0322 40.7116 93.9906 41.1908 94.4698 41.67C95.1886 42.1492 95.3084 42.6284 95.1886 42.7482Z" fill="#263238"/>
<path d="M111.841 42.0293C112.919 42.3886 113.399 43.4668 113.039 44.545C112.68 45.6232 111.602 46.1024 110.524 45.743C109.445 45.3836 108.966 44.3054 109.326 43.2272C109.685 42.2688 110.763 41.6699 111.841 42.0293Z" fill="#263238"/>
<path d="M115.795 42.7482C115.555 42.9878 114.357 41.9096 112.441 41.7898C110.644 41.67 109.206 42.5086 108.966 42.269C108.847 42.1492 109.086 41.7898 109.685 41.3106C110.284 40.9512 111.362 40.5918 112.441 40.5918C113.639 40.7116 114.597 41.1908 115.076 41.67C115.795 42.269 115.915 42.6284 115.795 42.7482Z" fill="#263238"/>
<path d="M101.778 57.118C101.778 56.9982 102.976 56.8784 104.773 56.7586C105.252 56.7586 105.612 56.6388 105.732 56.3992C105.851 56.1596 105.732 55.5606 105.492 54.9616C105.133 53.7636 104.773 52.4458 104.294 51.128C102.737 45.6172 101.659 41.1847 101.898 41.0649C102.138 40.9451 103.695 45.3777 105.253 50.8884C105.612 52.2062 105.971 53.524 106.331 54.722C106.45 55.321 106.69 55.92 106.451 56.7586C106.331 57.118 105.852 57.3576 105.492 57.4774C105.133 57.5972 104.893 57.4774 104.654 57.4774C102.976 57.4774 101.778 57.2378 101.778 57.118Z" fill="#263238"/>
<path d="M95.6689 58.6836C99.3826 60.4806 101.06 61.0796 104.534 62.038C104.534 62.038 102.138 65.2726 98.3044 63.5954C94.3511 61.7984 95.6689 58.6836 95.6689 58.6836Z" fill="#99583E"/>
<path d="M101.059 79.7673C101.059 79.7673 92.5533 79.7673 83.9277 73.418C83.9277 73.418 87.2821 83.3613 100.819 83.2415L101.059 79.7673Z" fill="#99583E"/>
<path d="M68.2346 43.9502C68.2346 42.872 67.396 41.9136 66.3178 41.9136C63.802 41.7938 59.7288 42.7522 59.1298 49.5807C58.411 59.4043 67.9949 57.1281 67.9949 56.8885C68.1147 56.6489 68.1148 47.7837 68.2346 43.9502Z" fill="#99583E"/>
<path d="M65.958 52.9341C65.958 52.9341 65.7184 53.0539 65.4788 53.1737C65.2392 53.2935 64.6402 53.2935 64.161 53.0539C63.2026 52.5747 62.364 50.8975 62.4838 49.1005C62.4838 48.2619 62.7234 47.4233 63.2026 46.7045C63.562 45.9857 64.0412 45.5065 64.6402 45.5065C65.1194 45.3867 65.4788 45.7461 65.5986 46.1055C65.7184 46.3451 65.5986 46.5847 65.7184 46.5847C65.7184 46.5847 65.958 46.4649 65.8382 45.9857C65.8382 45.7461 65.7184 45.5065 65.4788 45.3867C65.2392 45.1471 64.8798 45.0273 64.5204 45.0273C63.8016 45.0273 62.963 45.6263 62.6036 46.4649C62.1244 47.1837 61.8848 48.1421 61.765 49.1005C61.6452 51.1371 62.6036 53.0539 63.9214 53.5331C64.6402 53.7727 65.2392 53.6529 65.4788 53.4133C65.8382 53.1737 65.958 52.9341 65.958 52.9341Z" fill="#B5694A"/>
<path d="M88.6008 37.2404C88.9602 37.8394 90.5176 37.48 92.4344 37.48C94.3512 37.3602 95.7888 37.3602 96.1482 36.7612C96.5076 36.1622 94.7106 34.7246 92.3146 34.9642C89.7988 35.084 88.1216 36.6414 88.6008 37.2404Z" fill="#263238"/>
<path d="M110.045 36.8801C110.164 37.5989 111.362 37.8385 112.8 37.9583C114.238 38.0781 115.436 37.9583 115.675 37.3593C115.915 36.7603 114.717 35.6821 112.92 35.5623C111.243 35.4425 109.925 36.2811 110.045 36.8801Z" fill="#263238"/>
<path d="M119.269 25.743C119.269 25.743 111.123 29.6963 100.7 24.4252C93.7519 20.951 85.7254 19.2738 83.9284 20.7114C82.1314 22.149 81.772 29.2171 74.9434 31.2537C74.9434 31.2537 75.4226 44.791 70.0317 44.3118C64.6407 43.8327 67.9951 22.748 67.9951 22.748L81.2928 16.2788L95.7885 13.5234L109.446 15.4402L119.988 18.3154L119.269 25.743Z" fill="#263238"/>
<path d="M28.5815 104.329C42.7179 89.7133 67.6361 91.3905 67.6361 91.3905L99.9819 92.5885C99.9819 92.5885 112.321 93.9063 123.822 100.016L124.661 100.256V100.375C133.765 105.287 146.584 117.147 158.803 128.528L144.188 142.066L128.015 156.441C128.015 156.441 128.135 156.561 128.015 156.681C127.895 157.52 130.651 174.891 133.166 189.985C118.91 201.007 101.06 207.476 81.6526 207.117C69.3133 206.877 57.6928 203.882 47.2702 198.731L46.0722 184.834C44.994 172.255 44.1554 156.681 44.1554 156.681" fill="#E51937"/>
<path d="M112.921 94.9824C112.921 94.9824 113.04 95.222 113.16 95.5814C113.28 96.0606 113.52 96.6596 113.759 97.3784C114.238 98.9358 114.957 101.092 115.796 103.848C117.473 109.358 119.629 116.906 121.666 125.411C123.703 133.917 125.26 141.704 126.218 147.335C126.697 150.21 127.057 152.486 127.296 154.043C127.416 154.762 127.536 155.361 127.536 155.84C127.536 156.2 127.656 156.439 127.536 156.439C127.416 156.439 127.416 156.2 127.416 155.84C127.296 155.361 127.177 154.762 127.057 154.043C126.697 152.366 126.338 150.09 125.739 147.454C124.661 141.824 122.984 134.157 120.947 125.651C118.911 117.145 116.754 109.598 115.197 104.087C114.358 101.452 113.759 99.1754 113.28 97.618C113.04 96.8992 112.921 96.3002 112.801 95.821C113.04 95.222 112.921 94.9824 112.921 94.9824Z" fill="#263238"/>
<path d="M140.444 135.937C148.19 129.626 154.367 124.386 154.242 124.232C154.116 124.079 147.736 129.069 139.99 135.379C132.244 141.689 126.066 146.929 126.192 147.083C126.317 147.237 132.698 142.247 140.444 135.937Z" fill="#263238"/>
<path opacity="0.2" d="M47.2705 124.336L34.5718 166.026L39.2439 168.422L43.9161 156.682C43.9161 156.682 48.7081 131.883 47.2705 124.336Z" fill="#101010"/>
<g opacity="0.2">
<path d="M111.602 95.1037C118.431 98.6977 101.299 107.323 93.6323 107.084L99.2629 92.2285C99.1431 92.2285 109.326 93.9057 111.602 95.1037Z" fill="#101010"/>
</g>
<path d="M65.5996 92.2266V81.2051C65.5996 81.2051 87.1635 86.7159 87.8823 99.6542C87.8823 99.6542 90.6376 85.3981 101.779 84.6793L103.336 104.686L90.398 115.947H77.3399L66.9174 106.962L65.5996 93.0652" fill="#E51937"/>
<path d="M92.7939 161.589C92.7939 161.589 92.7939 161.349 92.7939 160.99C92.7939 160.511 92.7939 159.912 92.7939 159.193C92.7939 157.636 92.9137 155.479 92.9137 152.724C92.9137 147.213 92.7939 139.786 92.0751 131.4C91.3564 123.134 90.2782 115.706 89.3198 110.315C88.8406 107.679 88.4812 105.403 88.1218 103.966C88.002 103.247 87.8822 102.648 87.7624 102.288C87.6426 101.929 87.6426 101.689 87.6426 101.689C87.6426 101.689 87.7624 101.929 87.8822 102.288C88.002 102.768 88.1218 103.367 88.3614 103.966C88.7208 105.403 89.2 107.56 89.6792 110.315C90.7574 115.706 91.8355 123.134 92.5543 131.519C93.2731 139.786 93.3929 147.333 93.1533 152.844C93.0335 155.599 93.0335 157.755 92.9137 159.313C92.9137 160.032 92.7939 160.631 92.7939 161.11C92.9137 161.349 92.7939 161.589 92.7939 161.589Z" fill="#263238"/>
<path d="M86.9243 95.9418C86.9243 95.9418 86.4451 95.7022 85.6065 96.0616C85.2471 96.1814 84.7679 96.5408 84.4085 97.02C84.0491 97.4992 83.6897 98.0982 83.4501 98.8169C82.1323 101.692 80.4551 105.765 79.3769 110.797L79.2571 111.156L78.8977 110.917C77.5799 110.198 76.2621 109.239 74.9444 108.401C72.4286 106.604 70.0326 104.807 67.996 103.13C66.9178 102.291 66.0792 101.213 65.6 100.015C65.1208 98.8169 64.8812 97.7388 64.8812 96.6606C64.7614 94.624 65.1208 92.9468 65.3604 91.8686C65.6 90.7904 65.7198 90.1914 65.8396 90.1914C65.8396 90.1914 65.8396 90.7904 65.6 91.9884C65.4802 93.0666 65.2406 94.7438 65.3604 96.7804C65.4802 97.7388 65.6 98.817 66.0792 99.8952C66.5584 100.973 67.397 101.932 68.3554 102.77C70.392 104.448 72.788 106.245 75.3038 108.042C76.6215 108.88 77.9393 109.719 79.2571 110.557L78.7779 110.797C79.9759 105.765 81.6531 101.692 83.0907 98.8169C83.4501 98.0982 83.8095 97.4992 84.1689 97.02C84.5283 96.5408 85.1273 96.1814 85.4867 96.0616C86.5649 95.5824 87.0441 95.9418 86.9243 95.9418Z" fill="#263238"/>
<path d="M101.779 84.7949C101.779 84.7949 101.899 85.3939 101.899 86.4721C102.018 87.6701 102.138 89.2275 102.258 91.1443C102.378 93.1809 102.617 95.4571 103.097 98.0926C103.216 99.4104 103.696 100.728 103.336 102.286C102.857 103.843 101.779 104.921 100.581 105.88C98.9035 107.197 97.1066 108.156 95.7888 109.474L95.3096 109.953V109.234C94.9502 104.682 93.5126 100.848 92.075 98.452C90.6374 95.9363 89.5592 94.7383 89.679 94.6185C89.679 94.6185 90.0384 94.8581 90.5176 95.4571C90.9968 96.0561 91.7156 97.0144 92.4344 98.2124C93.872 100.608 95.5492 104.442 95.9086 109.114L95.4294 108.994C96.7472 107.557 98.5442 106.479 100.221 105.281C101.419 104.442 102.498 103.364 102.857 102.046C103.216 100.728 102.737 99.4104 102.617 98.0926C102.258 95.4571 102.018 93.0611 101.899 91.1443C101.779 89.1077 101.779 87.5503 101.779 86.4721C101.779 85.3939 101.779 84.7949 101.779 84.7949Z" fill="#263238"/>
<path d="M171.143 87.5508C170.304 88.629 138.557 131.038 138.557 131.038L142.99 133.554L175.575 91.624L171.143 87.5508Z" fill="#455A64"/>
<path d="M43.6762 121.098C43.6762 121.098 77.1002 169.137 79.017 170.096C82.9704 172.012 128.614 132.479 133.046 128.765C133.645 127.926 134.843 126.249 137.359 122.895C137.359 122.895 140.953 106.362 144.787 107.68C148.62 108.998 142.63 116.066 145.146 122.296C147.662 128.525 159.163 113.67 159.522 112.233L162.517 108.399C162.517 108.399 165.632 117.144 165.392 120.858C164.673 132.599 153.532 146.615 153.532 146.615C153.532 146.615 103.576 208.551 69.3133 210.468C59.4897 211.067 41.8792 183.034 30.2587 162.069C23.1905 149.37 26.6647 133.437 38.4051 124.931L43.6762 121.098Z" fill="#B5694A"/>
<path d="M159.881 122.892C159.761 122.892 160.84 120.975 162.038 118.58C163.236 116.184 164.074 114.147 164.194 114.267C164.314 114.267 163.595 116.423 162.397 118.819C161.199 121.215 160.001 123.012 159.881 122.892Z" fill="#EB996E"/>
<path d="M38.0458 97.6133C38.0458 97.6133 2.22585 110.312 28.8213 170.571L70.152 145.653L64.2819 131.516L38.0458 97.6133Z" fill="#E51937"/>
<path d="M35.2905 98.6923C35.2905 98.6923 35.4102 98.6923 35.53 98.6923C35.7696 98.6923 36.0092 98.6923 36.3686 98.6923C37.0874 98.6923 38.1656 98.8121 39.6032 99.1715C40.921 99.5309 42.5982 100.13 44.2754 101.208C45.9526 102.286 47.7496 103.724 49.4268 105.521C52.9009 109.115 56.1355 114.146 59.1305 120.017C62.1255 125.887 65.0007 132.595 67.8758 139.544C68.7144 141.7 69.553 143.737 70.3916 145.654L70.5114 145.893L70.2718 146.013C58.2919 152.482 47.8694 158.712 40.5616 163.264C36.8478 165.54 33.9727 167.457 31.9361 168.775C30.9777 169.374 30.1391 169.853 29.6599 170.332C29.1807 170.692 28.8213 170.811 28.8213 170.811C28.8213 170.811 29.0609 170.572 29.5401 170.212C30.0193 169.853 30.8579 169.254 31.8163 168.655C33.7331 167.337 36.728 165.301 40.322 163.024C47.6298 158.352 58.0523 152.123 70.0322 145.654L69.9124 146.013C69.0738 144.096 68.2352 141.94 67.3966 139.903C64.5215 132.835 61.6463 126.246 58.6513 120.376C55.6563 114.506 52.5415 109.474 49.1872 105.88C47.51 104.083 45.8328 102.646 44.1556 101.567C42.4784 100.489 40.921 99.8903 39.6032 99.5309C36.8478 98.5725 35.2905 98.6923 35.2905 98.6923Z" fill="#263238"/>
<path d="M542.865 236.928C541.251 277.48 511.393 310.97 470.841 311.777C430.29 312.584 396.799 280.304 395.992 239.753C395.185 199.201 427.566 161.777 468.017 164.904C511.09 168.233 544.278 200.008 542.865 236.928Z" fill="#303030"/>
<path d="M533.887 257.805L510.988 271.927L519.361 292.203C527.128 285.041 533.282 276.164 537.316 266.278L533.887 257.805Z" fill="#B5694A"/>
<path d="M540.141 258.211C537.216 251.15 527.028 227.747 518.453 218.971C505.743 205.858 483.248 207.673 483.248 207.673L454.095 208.682C454.095 208.682 442.999 209.893 432.609 215.34L431.903 215.541V215.642C423.732 220.081 412.233 230.673 401.237 240.962L414.351 253.168L428.877 266.08C428.877 266.08 428.776 266.18 428.877 266.382C429.079 267.189 426.557 282.825 424.237 296.342C437.048 306.228 453.188 312.078 470.639 311.675C481.735 311.473 492.226 308.749 501.607 304.21L502.717 291.702C503.726 280.404 504.432 266.382 504.432 266.382L508.568 276.974L538.931 261.137C539.536 260.229 539.839 259.22 540.141 258.211Z" fill="#E51937"/>
<path d="M484.156 206.564C484.156 206.564 484.257 206.766 484.257 207.069C484.358 207.371 484.358 207.977 484.459 208.582C484.56 209.893 484.459 211.911 483.753 214.13C483.047 216.349 481.533 218.972 479.112 221.09C476.691 223.209 473.262 224.621 469.63 224.823C465.999 225.024 462.367 223.915 459.845 221.998C457.223 220.082 455.609 217.661 454.6 215.542C453.692 213.323 453.389 211.406 453.289 209.994C453.289 209.288 453.289 208.784 453.289 208.481C453.289 208.178 453.389 207.977 453.389 207.977C453.49 207.977 453.389 208.683 453.49 209.994C453.591 211.306 453.894 213.222 454.903 215.341C455.911 217.459 457.525 219.779 460.047 221.595C462.569 223.41 465.999 224.419 469.529 224.217C473.06 224.016 476.389 222.704 478.709 220.687C481.029 218.669 482.542 216.148 483.248 213.928C484.055 211.709 484.156 209.792 484.156 208.481C484.257 207.271 484.055 206.564 484.156 206.564Z" fill="#263238"/>
<path d="M511.897 212.919C511.897 213.02 511.09 212.919 509.879 213.423C508.568 213.827 506.853 214.936 505.34 216.853C503.827 218.769 502.818 221.594 502.516 224.822C502.314 226.436 502.213 228.151 502.213 229.866C502.112 231.681 502.112 233.497 502.112 235.313C502.011 242.778 502.516 249.637 503.02 254.479C503.222 256.9 503.524 258.917 503.625 260.229C503.726 260.834 503.726 261.338 503.827 261.843C503.827 262.246 503.827 262.347 503.827 262.347C503.827 262.347 503.726 262.145 503.726 261.843C503.625 261.439 503.524 260.935 503.423 260.33C503.222 259.018 502.919 257.001 502.616 254.58C502.011 249.637 501.507 242.878 501.608 235.313C501.608 233.396 501.709 231.581 501.709 229.866C501.809 228.05 501.91 226.335 502.112 224.721C502.516 221.493 503.524 218.568 505.138 216.651C506.752 214.735 508.568 213.625 509.879 213.221C511.09 212.717 511.897 212.919 511.897 212.919Z" fill="#263238"/>
<path d="M442.495 211C442.495 211 442.495 211.202 442.394 211.605C442.293 212.009 442.091 212.513 441.99 213.219C441.587 214.631 440.981 216.649 440.275 219.07C438.863 224.013 436.946 230.872 435.131 238.438C433.315 246.104 431.802 253.065 430.894 258.108C430.39 260.63 429.986 262.648 429.784 264.06C429.683 264.766 429.583 265.27 429.482 265.674C429.381 266.077 429.381 266.279 429.381 266.279C429.381 266.279 429.381 266.077 429.381 265.674C429.482 265.27 429.482 264.665 429.583 264.06C429.784 262.648 430.087 260.529 430.591 258.007C431.499 252.964 432.911 246.003 434.727 238.337C436.543 230.671 438.56 223.811 440.074 218.969C440.881 216.548 441.486 214.531 441.99 213.118C442.192 212.513 442.394 212.009 442.495 211.504C442.495 211.202 442.495 211 442.495 211Z" fill="#263238"/>
<path d="M539.536 253.369C539.536 253.369 539.132 253.672 538.325 254.277C537.518 254.781 536.409 255.588 534.997 256.496C532.172 258.312 528.137 260.834 523.598 263.356C519.058 265.978 514.922 268.097 511.896 269.711C510.383 270.518 509.173 271.123 508.265 271.527C507.357 271.93 506.953 272.132 506.853 272.132C506.853 272.132 507.256 271.829 508.164 271.325C509.072 270.82 510.282 270.215 511.695 269.408C514.721 267.794 518.857 265.575 523.295 262.952C527.834 260.329 531.869 257.909 534.694 256.194C536.106 255.387 537.216 254.681 538.124 254.075C539.031 253.571 539.536 253.369 539.536 253.369Z" fill="#263238"/>
<path d="M430.558 257.74C430.663 257.61 425.111 252.913 418.157 247.247C411.203 241.582 405.48 237.095 405.375 237.224C405.269 237.354 410.821 242.052 417.775 247.717C424.729 253.382 430.452 257.869 430.558 257.74Z" fill="#263238"/>
<path opacity="0.2" d="M501.709 237.33L513.107 274.855L508.871 277.075L504.735 266.483C504.634 266.382 500.397 244.19 501.709 237.33Z" fill="#101010"/>
<g opacity="0.2">
<path d="M443.806 210.998C437.653 214.226 453.086 221.994 460.047 221.792L455.003 208.477C454.902 208.477 445.824 209.889 443.806 210.998Z" fill="#101010"/>
</g>
<path opacity="0.2" d="M483.046 265.371L446.53 265.573L448.951 252.056L485.669 251.35L483.046 265.371Z" fill="#B7142C"/>
<path d="M479.516 163.288C479.213 164.297 479.617 165.507 480.424 166.112C481.231 166.819 482.441 166.919 483.349 166.415C485.064 165.507 485.265 162.985 484.862 161.069C484.458 159.152 483.752 157.034 484.559 155.218C485.165 153.806 486.476 152.898 487.586 151.788C489.401 149.872 490.309 147.047 489.805 144.424C489.3 141.802 487.283 139.482 484.761 138.876C482.138 138.17 478.91 139.078 476.994 137.161C475.582 135.85 475.38 133.53 474.27 131.916C472.555 129.394 468.924 129.092 465.898 129.596C462.871 130.1 459.845 131.109 456.819 130.403C454.297 129.798 452.28 128.184 449.959 127.175C444.916 124.956 438.46 126.368 434.727 130.403C430.995 134.438 430.188 140.995 432.912 145.837C433.82 147.552 435.333 149.165 437.148 149.872" fill="#263238"/>
<path d="M468.924 224.525C460.955 224.525 454.297 218.271 453.894 210.403C453.591 203.745 453.289 197.39 453.289 197.39C453.289 197.39 440.982 196.482 439.872 184.478C438.763 172.474 438.561 144.734 438.561 144.734C452.078 137.673 468.42 138.379 481.332 146.55L482.542 147.256L483.954 209.394C484.055 217.767 477.297 224.525 468.924 224.525Z" fill="#B5694A"/>
<path d="M461.863 163.295C460.955 163.598 460.451 164.606 460.754 165.514C461.056 166.422 462.065 166.926 462.973 166.624C463.881 166.321 464.385 165.313 464.082 164.405C463.78 163.497 462.771 162.992 461.863 163.295Z" fill="#263238"/>
<path d="M458.534 163.901C458.736 164.103 459.845 163.094 461.56 162.993C463.275 162.892 464.486 163.699 464.687 163.397C464.788 163.296 464.586 162.892 463.981 162.59C463.477 162.186 462.569 161.884 461.459 161.984C460.451 162.085 459.543 162.489 459.038 162.993C458.635 163.397 458.433 163.8 458.534 163.901Z" fill="#263238"/>
<path d="M443.605 163.295C442.697 163.598 442.193 164.606 442.495 165.514C442.798 166.422 443.807 166.926 444.714 166.624C445.622 166.321 446.127 165.313 445.824 164.405C445.521 163.497 444.513 162.992 443.605 163.295Z" fill="#263238"/>
<path d="M439.973 163.901C440.175 164.103 441.285 163.094 443 162.993C444.715 162.892 445.925 163.699 446.127 163.397C446.228 163.296 446.026 162.892 445.421 162.59C444.916 162.186 444.008 161.884 442.899 161.984C441.89 162.085 440.982 162.489 440.478 162.993C440.074 163.498 439.873 163.8 439.973 163.901Z" fill="#263238"/>
<path d="M452.582 176.907C452.582 176.807 451.574 176.605 449.859 176.605C449.455 176.605 449.052 176.504 449.052 176.302C448.951 176 449.052 175.596 449.254 174.991C449.556 173.881 449.96 172.671 450.262 171.561C451.675 166.618 452.683 162.583 452.381 162.482C452.078 162.381 450.767 166.316 449.354 171.258C449.052 172.469 448.648 173.579 448.346 174.789C448.245 175.293 447.942 175.899 448.245 176.605C448.346 176.907 448.749 177.21 449.052 177.21C449.354 177.311 449.556 177.21 449.758 177.21C451.574 177.109 452.582 177.008 452.582 176.907Z" fill="#263238"/>
<path d="M458.131 178.326C454.802 179.94 453.188 180.445 450.162 181.352C450.162 181.352 452.381 184.278 455.71 182.765C459.24 181.05 458.131 178.326 458.131 178.326Z" fill="#99583E"/>
<path d="M453.289 197.291C453.289 197.291 460.955 197.291 468.722 191.541C468.722 191.541 465.696 200.519 453.49 200.418L453.289 197.291Z" fill="#A36957"/>
<path d="M482.845 159.558C482.845 158.549 483.551 157.742 484.56 157.742C486.779 157.641 490.511 158.448 491.016 164.602C491.722 173.479 483.046 171.36 483.046 171.158C482.946 170.957 482.845 162.988 482.845 159.558Z" fill="#99583E"/>
<path d="M484.862 167.63C484.862 167.63 485.064 167.731 485.266 167.832C485.568 167.933 485.972 167.933 486.476 167.731C487.384 167.328 488.09 165.814 487.989 164.2C487.989 163.393 487.687 162.687 487.384 161.981C487.082 161.376 486.577 160.972 486.174 160.872C485.669 160.771 485.367 161.073 485.266 161.376C485.165 161.679 485.266 161.779 485.165 161.779C485.165 161.779 484.963 161.679 484.963 161.275C484.963 161.073 485.064 160.872 485.266 160.67C485.468 160.468 485.77 160.367 486.073 160.367C486.779 160.367 487.384 160.972 487.788 161.578C488.191 162.284 488.494 163.091 488.494 163.999C488.595 165.814 487.788 167.529 486.476 168.034C485.871 168.235 485.367 168.135 485.064 167.933C484.963 167.832 484.862 167.63 484.862 167.63Z" fill="#B5694A"/>
<path d="M464.485 158.951C464.082 159.455 462.77 159.253 461.055 159.152C459.341 159.051 458.029 159.051 457.727 158.547C457.323 158.043 459.038 156.731 461.257 156.933C463.476 157.034 464.889 158.446 464.485 158.951Z" fill="#263238"/>
<path d="M445.219 158.646C445.118 159.251 444.008 159.554 442.697 159.655C441.486 159.756 440.276 159.655 440.074 159.049C439.872 158.444 440.881 157.536 442.495 157.435C444.109 157.335 445.319 158.041 445.219 158.646Z" fill="#263238"/>
<path d="M436.947 148.557C436.947 148.557 444.21 152.087 453.692 147.346C459.946 144.219 467.108 142.706 468.722 144.017C470.336 145.228 470.639 151.684 476.792 153.499C476.792 153.499 476.388 165.705 481.23 165.302C486.072 164.898 483.046 145.934 483.046 145.934L471.143 140.083L458.13 137.662L445.824 139.377L436.341 142L436.947 148.557Z" fill="#263238"/>
<path d="M393.369 169.537C393.772 170.243 407.794 218.865 407.794 218.865L379.953 222.698L367.142 183.054L393.369 169.537Z" fill="#455A64"/>
<path d="M407.794 218.765L410.316 217.453L395.79 168.227L393.066 169.639L407.794 218.765Z" fill="#263238"/>
<path d="M380.804 183.812C381.457 183.672 381.874 183.028 381.733 182.375C381.593 181.721 380.949 181.305 380.296 181.445C379.642 181.586 379.226 182.229 379.366 182.883C379.507 183.536 380.15 183.953 380.804 183.812Z" fill="#E51937"/>
<path d="M402.549 240.961L384.29 252.864L380.962 210.295L381.264 208.177L393.571 203.536L390.04 194.458C388.325 190.221 383.282 188.304 379.247 190.423C377.935 191.129 376.523 191.835 375.313 192.44C372.488 193.852 370.37 196.475 369.563 199.501C368.151 204.747 366.94 210.497 367.041 209.992L359.173 264.767C359.173 264.767 355.44 280.604 366.234 288.069C374.405 293.718 388.124 287.766 395.387 283.631L426.96 264.565L402.549 240.961Z" fill="#B5694A"/>
<path d="M829.015 205.479C870.428 202.865 901.881 167.174 899.267 125.762C896.654 84.3488 860.963 52.896 819.55 55.5097C778.138 58.1234 746.685 93.8139 749.298 135.227C751.912 176.639 787.603 208.092 829.015 205.479Z" fill="#303030"/>
<path d="M852.522 26.9062C852.859 33.3174 853.309 35.2296 855.783 40.4035C857.246 43.4404 859.158 46.2523 859.945 49.5141C860.732 52.551 860.283 55.9253 860.845 58.9622C861.745 64.0237 865.119 68.2978 867.706 72.7969C870.293 77.296 871.98 83.0323 869.393 87.6439L843.411 84.607L841.611 52.3261L852.522 26.9062Z" fill="#263238"/>
<path d="M800.782 15.998C797.408 23.1966 802.132 30.2826 798.758 37.4812C797.07 40.968 795.383 44.5672 794.483 48.3914C793.696 51.8782 793.471 55.4775 792.121 58.7394C789.872 63.9133 784.81 67.4001 782.448 72.4616C778.962 79.9975 782.673 89.5581 789.309 94.5071C795.946 99.5685 804.831 100.806 813.042 100.243C818.104 99.906 823.165 98.8937 827.552 96.3067C831.938 93.7197 835.313 89.3331 835.875 84.2717" fill="#263238"/>
<path d="M839.362 3.28906C856.121 10.7126 859.383 38.2695 859.495 41.8687C859.608 46.2553 861.97 47.1551 864.894 49.5172C867.819 51.8792 870.63 54.5786 871.53 58.1779C872.205 60.9898 871.53 64.1392 872.88 66.7262C874.455 69.763 878.279 70.8878 881.316 72.7999C886.94 76.3992 889.639 83.1478 889.977 89.6715C890.314 96.1952 888.514 102.606 886.715 108.905C886.04 111.38 885.14 114.079 882.89 115.429C881.203 116.441 878.954 116.441 876.929 116.441C866.356 116.216 855.783 115.991 845.098 115.766C837 115.541 828.677 115.316 821.141 112.392C815.067 109.917 809.668 105.643 806.406 100.019C803.144 94.3955 802.019 87.6469 803.707 81.4607C805.056 76.7366 807.981 72.35 808.768 67.5135C809.78 61.4397 804.719 58.8528 802.919 53.0039C801.12 47.1551 799.545 33.0955 802.132 27.4716" fill="#263238"/>
<path d="M858.483 154.903L853.309 138.144L852.522 163.789C852.522 163.789 859.271 181.223 864.445 194.608C854.097 200.794 842.174 204.731 829.239 205.518C813.267 206.53 797.971 202.594 785.036 195.17L793.134 166.264L789.31 133.533L778.737 148.717L756.017 126.784C756.017 126.784 772.663 96.0778 774.688 93.3783C787.848 75.4945 810.456 75.9444 810.456 75.9444L842.512 77.744C842.512 77.744 860.508 76.7317 872.43 91.0163C872.43 91.0163 884.016 108.675 893.464 152.316L858.483 154.903Z" fill="#E51937"/>
<path d="M874.567 95.747C874.567 95.747 874.455 95.747 874.117 95.8595C873.78 95.8595 873.33 95.972 872.768 96.0844C871.53 96.3094 869.843 96.6468 867.706 97.5466C865.569 98.4465 863.095 99.9086 860.733 102.158C859.495 103.283 858.371 104.633 857.358 106.207C856.346 107.782 855.446 109.582 854.996 111.606C854.771 112.619 854.771 113.631 855.109 114.643C855.446 115.655 856.009 116.555 856.908 117.23C857.808 117.905 858.933 118.13 860.058 117.68C861.07 117.343 861.857 116.33 862.195 115.206C862.532 114.081 862.532 112.844 861.97 111.719C861.407 110.594 860.62 109.694 859.495 108.907C857.358 107.332 854.771 106.432 852.072 106.095C849.372 105.757 846.448 106.095 843.636 106.882C840.824 107.67 838.012 108.682 835.425 110.257C832.838 111.831 830.476 113.856 828.677 116.443C827.777 117.68 827.102 119.142 827.102 120.717C827.102 121.504 827.214 122.179 827.664 122.854C828.114 123.529 828.677 123.979 829.351 124.429C830.139 124.654 830.926 124.879 831.601 124.541C832.276 124.204 832.838 123.529 833.288 122.854C834.075 121.279 834.188 119.48 834.188 117.68C834.188 115.88 833.963 114.193 833.401 112.506C832.838 110.931 831.826 109.469 830.589 108.232C828.114 105.87 824.852 104.52 821.591 104.183C818.329 103.845 814.954 104.295 811.917 105.308C808.881 106.207 805.844 107.445 803.819 109.807C802.919 110.931 802.244 112.394 802.357 113.856C802.469 115.318 803.257 116.668 804.269 117.568C804.831 118.017 805.394 118.355 806.069 118.355C806.744 118.467 807.418 118.242 807.981 117.905C809.106 117.23 809.668 115.768 809.78 114.531C809.893 113.181 809.78 111.831 809.331 110.594C809.106 109.919 808.881 109.357 808.656 108.794C808.543 108.457 808.431 108.232 808.318 107.895L807.868 107.107C806.744 104.858 805.169 102.946 803.482 101.258C800.107 97.9965 796.283 95.9719 792.796 94.8472C789.31 93.7224 786.048 93.385 783.461 93.6099C780.874 93.8349 778.849 94.2848 777.612 94.7347C776.937 94.9597 776.487 95.1846 776.15 95.2971C775.812 95.4096 775.587 95.4096 775.587 95.4096C775.587 95.4096 775.7 95.2971 776.037 95.1846C776.375 95.0721 776.825 94.8472 777.499 94.6222C778.849 94.1723 780.761 93.6099 783.461 93.385C786.048 93.16 789.31 93.4974 792.909 94.5097C796.508 95.6345 800.332 97.6591 803.819 100.921C805.506 102.608 807.081 104.52 808.318 106.77L808.768 107.67C808.881 108.007 808.993 108.232 809.106 108.569C809.331 109.132 809.668 109.807 809.78 110.482C810.23 111.831 810.343 113.181 810.23 114.531C810.118 115.88 809.555 117.455 808.206 118.355C807.531 118.805 806.744 118.917 805.956 118.917C805.169 118.805 804.494 118.467 803.819 118.017C802.582 117.005 801.795 115.543 801.682 113.968C801.57 113.181 801.682 112.394 802.02 111.606C802.357 110.819 802.694 110.144 803.257 109.582C805.394 107.107 808.431 105.87 811.58 104.858C814.729 103.958 818.104 103.395 821.478 103.733C824.852 104.07 828.339 105.533 830.814 108.007C832.051 109.244 833.176 110.706 833.851 112.394C834.525 114.081 834.75 115.88 834.75 117.68C834.75 119.48 834.525 121.392 833.738 123.079C833.288 123.866 832.726 124.654 831.826 125.104C830.926 125.441 829.914 125.328 829.126 124.991C828.452 124.541 827.777 123.979 827.327 123.191C826.877 122.404 826.652 121.617 826.652 120.717C826.652 119.03 827.439 117.455 828.339 116.105C830.251 113.406 832.726 111.381 835.313 109.807C837.9 108.119 840.824 107.107 843.636 106.32C846.448 105.533 849.372 105.195 852.297 105.533C855.109 105.87 857.808 106.77 859.945 108.457C861.07 109.244 861.97 110.257 862.532 111.494C863.095 112.731 863.207 114.081 862.757 115.318C862.42 116.555 861.52 117.68 860.283 118.13C859.045 118.58 857.696 118.242 856.796 117.568C855.784 116.893 855.109 115.88 854.771 114.756C854.434 113.631 854.434 112.506 854.659 111.494C855.109 109.357 856.121 107.557 857.021 105.982C858.033 104.408 859.27 103.058 860.395 101.933C862.87 99.6837 865.344 98.2215 867.481 97.3217C869.618 96.4219 871.418 96.0844 872.655 95.9719C873.892 95.747 874.567 95.747 874.567 95.747Z" fill="#FAFAFA"/>
<path d="M888.177 132.412C888.177 132.525 887.052 132.75 885.253 133.762C883.453 134.774 881.091 136.799 879.516 140.173C879.066 140.96 878.841 141.973 878.617 142.872C878.392 143.885 878.279 144.897 878.617 145.909C878.729 146.359 879.066 146.922 879.404 147.147C879.854 147.372 880.304 147.484 880.866 147.259C881.878 146.809 882.441 145.684 882.553 144.56C882.891 142.198 881.428 139.611 879.179 138.486C876.817 137.361 873.78 137.699 871.53 139.161C869.168 140.735 867.819 143.21 867.256 145.797C866.919 147.034 866.919 148.384 867.594 149.396C868.156 150.408 869.506 151.083 870.518 150.521C871.53 150.071 872.205 148.946 872.205 147.821C872.205 146.697 871.755 145.684 871.193 144.785C870.068 142.985 868.381 141.748 866.581 141.073C864.894 140.398 863.095 140.398 861.745 140.735C860.283 141.073 859.158 141.635 858.371 142.31C856.683 143.547 856.234 144.672 856.121 144.56C856.121 144.56 856.121 144.447 856.234 144.335C856.346 144.222 856.459 143.997 856.571 143.772C856.908 143.322 857.358 142.648 858.258 141.973C859.046 141.298 860.283 140.623 861.745 140.286C863.207 139.948 865.007 139.836 866.806 140.51C868.606 141.185 870.406 142.423 871.643 144.335C872.205 145.234 872.768 146.472 872.768 147.709C872.768 148.946 872.093 150.296 870.856 150.858C870.181 151.196 869.506 151.196 868.831 150.858C868.156 150.633 867.706 150.071 867.256 149.509C866.469 148.271 866.581 146.809 866.919 145.459C867.481 142.76 869.056 140.173 871.53 138.486C874.005 136.799 877.267 136.461 879.741 137.699C882.328 138.936 883.79 141.748 883.453 144.335C883.341 145.572 882.666 146.922 881.428 147.372C880.754 147.597 880.079 147.484 879.516 147.147C878.954 146.809 878.729 146.247 878.504 145.684C878.167 144.56 878.279 143.435 878.504 142.423C878.729 141.41 879.066 140.51 879.516 139.611C881.204 136.124 883.678 134.212 885.478 133.199C886.94 132.525 888.177 132.412 888.177 132.412Z" fill="#FAFAFA"/>
<path d="M852.634 148.498C852.634 148.498 852.522 148.498 852.409 148.498C852.184 148.498 851.96 148.386 851.622 148.274C850.947 148.161 849.822 147.936 848.473 147.711C845.773 147.374 841.612 147.486 837.113 149.286C835.988 149.736 834.863 150.298 833.738 150.973C832.613 151.648 831.489 152.548 830.814 153.785C830.026 154.91 829.689 156.484 830.251 157.834C830.476 158.509 830.926 159.184 831.489 159.634C832.051 160.084 832.838 160.196 833.626 160.084C835.088 159.746 836.325 158.396 836.55 156.822C836.775 155.247 836.213 153.56 835.2 152.098C833.288 149.173 830.251 146.924 826.652 146.024C823.053 145.124 819.229 145.799 816.304 147.599C814.842 148.498 813.492 149.623 812.48 150.973C812.03 151.648 811.693 152.435 811.468 153.223C811.243 154.01 811.243 154.797 811.693 155.472C812.03 156.147 812.705 156.597 813.38 156.597C814.055 156.597 814.842 156.372 815.404 156.034C816.642 155.247 817.092 153.672 816.867 152.323C816.754 150.973 816.192 149.623 815.517 148.498C814.842 147.374 814.055 146.361 813.155 145.462C811.355 143.774 809.331 142.762 807.531 142.087C805.731 141.412 804.044 141.3 802.582 141.3C799.883 141.3 798.42 142.087 798.42 141.975C798.42 141.975 798.533 141.975 798.645 141.862C798.87 141.75 799.095 141.75 799.433 141.637C800.108 141.412 801.232 141.187 802.582 141.075C803.932 140.963 805.731 141.187 807.531 141.75C809.443 142.312 811.468 143.437 813.267 145.124C814.167 146.024 815.067 147.036 815.742 148.161C816.417 149.398 816.979 150.636 817.092 152.21C817.204 152.998 817.092 153.785 816.867 154.46C816.642 155.247 816.079 155.922 815.404 156.372C814.73 156.822 813.942 157.159 813.042 157.047C812.143 156.934 811.355 156.484 810.905 155.585C810.455 154.797 810.455 153.785 810.68 152.998C810.905 152.098 811.243 151.31 811.805 150.636C812.817 149.173 814.28 148.049 815.854 147.149C819.004 145.349 822.94 144.562 826.652 145.462C830.364 146.361 833.626 148.723 835.538 151.76C836.55 153.335 837.113 155.135 836.888 156.934C836.663 158.734 835.313 160.309 833.513 160.646C832.613 160.871 831.714 160.646 831.039 160.084C830.364 159.634 829.914 158.846 829.577 158.059C829.352 157.272 829.239 156.484 829.352 155.697C829.464 154.91 829.802 154.235 830.251 153.56C831.039 152.323 832.276 151.423 833.401 150.636C834.526 149.961 835.763 149.398 836.888 148.948C841.499 147.149 845.773 147.149 848.473 147.486C851.285 147.936 852.634 148.498 852.634 148.498Z" fill="#FAFAFA"/>
<path d="M726.997 54.8033C729.359 54.9158 728.684 67.6257 730.372 64.9263C732.059 62.2268 729.359 49.292 731.834 49.5169C734.983 49.8543 734.083 63.1266 734.083 64.2514C734.083 65.3762 735.77 65.3762 735.658 64.3639C735.545 62.9017 735.096 47.4923 738.245 47.7173C739.932 47.8298 739.37 50.9791 739.37 50.9791C739.37 50.9791 738.807 65.4887 740.269 65.4887C741.732 65.6011 742.407 57.0529 742.407 54.241C742.407 51.429 743.756 50.1918 744.994 51.2041C745.893 51.8789 746.006 60.6521 745.893 63.5765C745.781 66.3885 745.443 74.2619 748.705 70.4377C751.967 66.6134 755.904 64.9263 757.254 65.2637C758.603 65.4887 758.716 67.5133 757.254 68.1881C756.129 68.7505 754.442 70.2127 753.317 71.3375C752.305 72.2373 751.63 73.4745 750.842 74.5993C750.055 75.8366 749.718 76.6239 749.155 78.6485L753.542 131.625L756.804 127.576L775.362 145.46L765.689 156.595C758.603 164.693 745.781 165.256 738.582 157.27C738.357 156.933 738.02 156.708 737.795 156.37C735.995 154.121 734.983 151.196 734.758 148.272L728.684 79.5483C728.572 71.8999 726.435 66.0511 726.097 62.1144C725.423 54.8033 726.097 54.8033 726.997 54.8033Z" fill="#B5694A"/>
<path d="M812.704 83.1469C812.817 75.161 812.704 66.7252 812.704 66.7252C812.704 66.7252 802.469 64.9256 800.444 51.4284C798.532 38.606 801.794 10.9366 801.794 10.9366C816.641 5.08777 833.513 7.33731 843.86 19.3724L842.286 84.2717C842.061 91.8076 835.425 97.6564 827.439 97.4315C819.115 97.0941 812.592 90.7953 812.704 83.1469Z" fill="#B5694A"/>
<path d="M804.493 32.1958C804.493 33.0956 805.168 33.8829 806.18 33.9954C807.08 34.1079 807.98 33.3205 807.98 32.4207C807.98 31.5209 807.305 30.7336 806.293 30.6211C805.393 30.6211 804.493 31.2959 804.493 32.1958Z" fill="#263238"/>
<path d="M801.681 30.1774C801.906 30.4023 803.256 29.5025 805.055 29.5025C806.855 29.5025 808.205 30.5148 808.43 30.2899C808.542 30.1774 808.317 29.7275 807.755 29.3901C807.193 28.9401 806.18 28.4902 805.055 28.4902C803.931 28.4902 802.918 28.9401 802.356 29.2776C801.794 29.7275 801.681 30.0649 801.681 30.1774Z" fill="#263238"/>
<path d="M823.503 32.7534C823.503 33.6532 824.178 34.4406 825.19 34.553C826.09 34.6655 826.99 33.8782 826.99 32.9783C826.99 32.0785 826.315 31.2912 825.303 31.1787C824.29 31.0662 823.503 31.8536 823.503 32.7534Z" fill="#263238"/>
<path d="M821.028 31.0661C821.253 31.291 822.603 30.3912 824.402 30.3912C826.202 30.3912 827.552 31.4035 827.776 31.1785C827.889 31.0661 827.664 30.6162 827.102 30.2787C826.539 29.8288 825.527 29.3789 824.402 29.3789C823.277 29.3789 822.265 29.8288 821.703 30.1662C821.14 30.6162 821.028 30.9536 821.028 31.0661Z" fill="#263238"/>
<path d="M814.167 44.7905C814.167 44.678 813.042 44.4531 811.13 44.2281C810.68 44.2281 810.23 44.1156 810.117 43.7782C810.005 43.4408 810.23 42.8784 810.455 42.4285C810.905 41.3037 811.355 40.0665 811.917 38.8292C813.942 33.7677 815.404 29.4936 815.179 29.3811C814.954 29.2687 813.154 33.4303 811.13 38.4918C810.68 39.729 810.23 40.9663 809.78 42.0911C809.555 42.6534 809.33 43.2158 809.555 43.8907C809.668 44.2281 810.005 44.4531 810.342 44.5655C810.68 44.678 810.905 44.678 811.13 44.678C813.042 44.903 814.167 44.903 814.167 44.7905Z" fill="#263238"/>
<path d="M812.705 66.7287C812.705 66.7287 821.703 67.4036 830.814 62.1172C830.814 62.1172 826.315 71.3403 812.93 69.8781L812.705 66.7287Z" fill="#99583E"/>
<path d="M814.954 49.2913C815.629 48.3915 816.754 47.9416 817.991 48.0541C818.778 48.1666 819.565 48.504 820.128 49.1789C820.578 49.8537 820.69 50.7535 820.24 51.4284C819.678 52.1033 818.666 52.3282 817.766 51.9908C816.866 51.7658 816.079 51.091 815.404 50.5286C815.179 50.4161 814.954 50.1912 814.841 49.9662C814.729 49.7412 814.729 49.5163 814.954 49.2913Z" fill="#99583E"/>
<path d="M819.678 46.1426C819.341 46.1426 819.341 48.1672 817.653 49.5169C815.966 50.9791 813.829 50.6417 813.717 50.9791C813.717 51.0916 814.167 51.429 815.067 51.429C815.966 51.429 817.204 51.2041 818.328 50.3042C819.341 49.4044 819.903 48.2797 819.903 47.4923C820.016 46.5925 819.791 46.1426 819.678 46.1426Z" fill="#263238"/>
<path d="M838.012 9.81044C833.063 16.784 820.128 23.9826 810.792 25.6697C811.917 24.2075 817.654 20.7207 818.666 19.2585C814.392 22.4079 808.43 26.682 802.807 26.907C802.132 26.907 801.457 26.907 800.895 26.5695C800.107 26.1196 799.995 25.2198 799.882 24.4325C799.545 21.1706 799.77 15.5468 800.22 12.2849C800.782 9.0231 802.244 5.76126 805.056 3.62419C808.655 0.812267 813.829 0.137408 818.666 0.0249304C822.715 -0.0875467 826.877 0.137409 830.588 1.59961C834.3 3.06181 837.45 5.98622 838.012 9.47301" fill="#263238"/>
<path d="M852.072 41.193C852.747 37.7062 853.309 34.4444 853.421 32.1949C853.871 25.2213 851.847 -0.311021 827.889 1.71357L833.625 9.02458C833.625 9.02458 828.901 24.5464 838.912 35.2317C838.912 35.2317 839.474 41.5305 846.448 48.729C846.56 48.729 850.61 48.6165 852.072 41.193Z" fill="#263238"/>
<path d="M838.687 34.1015C840.149 33.8765 841.611 33.8765 842.961 34.4389C844.311 35.0013 845.548 36.0136 846.111 37.3633C846.673 38.713 846.56 40.2877 846.111 41.6374C845.548 42.9872 844.648 44.2244 843.636 45.2367C842.849 45.9116 842.061 46.5864 841.049 46.9239C840.037 47.2613 838.912 47.1488 838.012 46.474" fill="#99583E"/>
<path d="M839.362 42.8845C839.249 42.8845 839.812 43.7844 841.161 43.4469C841.836 43.3345 842.399 42.7721 842.848 42.0972C843.186 41.4224 843.523 40.635 843.636 39.7352C843.748 38.8354 843.523 37.9355 843.073 37.1482C842.624 36.4733 841.836 36.0234 841.161 36.0234C839.812 36.0234 839.362 36.9233 839.587 36.9233C839.699 37.0357 840.261 36.5858 841.161 36.8108C842.061 36.9233 842.848 38.1605 842.623 39.6227C842.399 41.0849 841.836 42.4346 841.049 42.7721C840.037 43.1095 839.474 42.7721 839.362 42.8845Z" fill="#B5694A"/>
<path d="M855.558 171.668V165.482H812.367L799.657 109.918L734.983 110.48L750.617 171.668H855.558Z" fill="#263238"/>
<path d="M771.47 144.817C773.715 144.087 774.756 141.101 773.796 138.147C772.836 135.194 770.238 133.391 767.993 134.12C765.749 134.85 764.707 137.836 765.667 140.79C766.627 143.743 769.225 145.546 771.47 144.817Z" fill="#E51937"/>
<path d="M796.733 171.215C795.608 169.19 794.708 166.941 794.033 164.691C793.921 164.129 793.696 163.566 793.809 163.004C793.921 162.442 794.258 161.879 794.821 161.767C795.833 161.542 796.508 162.779 796.845 163.791C798.308 167.391 801.569 170.09 805.281 170.877L807.868 170.765V170.652L864.444 165.591L861.745 154.343L891.664 152.094L894.363 163.116C895.825 176.951 884.69 188.761 870.855 188.311H805.956C785.373 189.661 781.436 171.44 781.436 171.44L796.733 171.215Z" fill="#B5694A"/>
</svg>
