<svg width="668" height="231" viewBox="0 0 668 231" fill="none" xmlns="http://www.w3.org/2000/svg">
<path d="M346.128 217.172L59.7881 83.5273H610.195L346.128 217.172Z" stroke="#303030" stroke-width="1.75849" stroke-dasharray="3.52 3.52"/>
<path d="M121.718 94.0774C122.366 60.7896 95.9053 33.2797 62.6175 32.6322C29.3296 31.9848 1.81968 58.4451 1.17226 91.7329C0.52484 125.021 26.9851 152.531 60.2729 153.178C93.5608 153.826 121.071 127.365 121.718 94.0774Z" fill="white" fill-opacity="0.1"/>
<path d="M118.142 113.206L107.253 96.6523L88.9287 108.16L105.571 133.744C105.571 133.744 114.689 123.829 118.142 113.206Z" fill="#99583E"/>
<path d="M50.067 30.526C50.9523 29.5523 49.7129 27.9588 48.4736 27.5162C47.2342 27.0736 45.6408 26.808 45.0211 25.6572C44.3129 24.2408 45.5523 22.5589 45.8178 20.9654C46.0834 19.2835 45.1097 17.6015 44.7556 15.9195C44.4015 13.7064 45.1982 11.4048 46.8801 9.98842C48.5621 8.57204 51.0408 8.12942 53.0768 8.83761C53.2539 5.47369 55.5555 2.37534 58.7424 1.31305C61.9293 0.25076 65.6473 1.31305 67.7719 3.96878C69.4538 2.72944 71.1358 1.40157 72.9948 0.693381C74.9423 -0.103337 77.1554 -0.280387 79.0144 0.516331C80.8734 1.31305 82.2898 3.43763 81.9357 5.47369C83.3521 3.79173 86.0078 3.43763 88.0439 4.4114C90.08 5.38517 91.4078 7.42122 92.0275 9.5458C92.8242 12.5556 92.116 16.0966 89.7259 18.0441C87.3357 19.9917 83.2636 19.8146 81.4931 17.2474" fill="#263238"/>
<path d="M61.8391 81.339C68.3899 81.339 73.8784 76.2046 74.144 69.7423C74.4096 64.3423 74.6751 59.1194 74.6751 59.1194C74.6751 59.1194 84.7669 58.4112 85.6521 48.4965C86.5374 38.6703 86.7144 15.831 86.7144 15.831C75.5604 9.98844 62.1932 10.6081 51.6588 17.3359L50.6851 17.9556L49.5343 68.9456C49.4457 75.7619 54.9342 81.339 61.8391 81.339Z" fill="#B5694A"/>
<path d="M67.5937 31.0564C68.3904 31.322 68.7445 32.1187 68.4789 32.9154C68.2133 33.7121 67.4166 34.0662 66.6199 33.8007C65.8232 33.5351 65.4691 32.7384 65.7347 31.9417C66.0002 31.2335 66.7969 30.7908 67.5937 31.0564Z" fill="#263238"/>
<path d="M70.3375 31.5876C70.1605 31.7646 69.2753 30.9679 67.8589 30.8794C66.531 30.7909 65.4687 31.4105 65.2917 31.2335C65.2031 31.145 65.3802 30.8794 65.8228 30.5253C66.2654 30.2597 67.0622 29.9941 67.8589 29.9941C68.7441 30.0827 69.4523 30.4368 69.8064 30.7909C70.3375 31.145 70.4261 31.499 70.3375 31.5876Z" fill="#263238"/>
<path d="M82.6425 31.0564C83.4392 31.322 83.7933 32.1187 83.5277 32.9154C83.2622 33.7121 82.4654 34.0662 81.6687 33.8007C80.872 33.5351 80.5179 32.7384 80.7835 31.9417C81.0491 31.2335 81.8458 30.7908 82.6425 31.0564Z" fill="#263238"/>
<path d="M85.5641 31.5876C85.3871 31.7646 84.5018 30.9679 83.0854 30.8794C81.7576 30.7909 80.6953 31.4105 80.5182 31.2335C80.4297 31.145 80.6068 30.8794 81.0494 30.5253C81.492 30.2597 82.2887 29.9941 83.0854 29.9941C83.9707 30.0827 84.6789 30.4368 85.033 30.7909C85.5641 31.2335 85.6526 31.499 85.5641 31.5876Z" fill="#263238"/>
<path d="M75.2065 42.2058C75.2065 42.1173 76.0918 42.0288 77.4196 41.9402C77.7737 41.9402 78.0393 41.8517 78.1278 41.6747C78.2164 41.4976 78.1278 41.055 77.9508 40.6124C77.6852 39.7271 77.4197 38.7534 77.0656 37.7796C75.9147 33.7075 75.118 30.4321 75.2951 30.3435C75.4721 30.255 76.6229 33.5304 77.7738 37.6025C78.0393 38.5763 78.3049 39.5501 78.5705 40.4353C78.659 40.8779 78.836 41.3206 78.659 41.9402C78.5705 42.2058 78.2164 42.3828 77.9508 42.4714C77.6852 42.5599 77.5082 42.4714 77.3311 42.4714C76.0918 42.4714 75.2065 42.2943 75.2065 42.2058Z" fill="#263238"/>
<path d="M70.6924 43.3633C73.4367 44.6911 74.676 45.1338 77.2432 45.842C77.2432 45.842 75.4727 48.2321 72.64 46.9928C69.7187 45.6649 70.6924 43.3633 70.6924 43.3633Z" fill="#99583E"/>
<path d="M74.6751 58.9418C74.6751 58.9418 68.3899 58.9418 62.0161 54.25C62.0161 54.25 64.4948 61.5975 74.498 61.509L74.6751 58.9418Z" fill="#99583E"/>
<path d="M50.4199 32.4747C50.4199 31.6779 49.8002 30.9698 49.0035 30.9698C47.1445 30.8812 44.1346 31.5894 43.692 36.6353C43.1609 43.8943 50.2428 42.2123 50.2428 42.0353C50.3313 41.8582 50.3313 35.3074 50.4199 32.4747Z" fill="#99583E"/>
<path d="M48.7377 39.1141C48.7377 39.1141 48.5606 39.2026 48.3836 39.2911C48.2065 39.3797 47.7639 39.3797 47.4098 39.2026C46.7016 38.8485 46.0819 37.6092 46.1705 36.2813C46.1705 35.6616 46.3475 35.042 46.7016 34.5108C46.9672 33.9797 47.3213 33.6256 47.7639 33.6256C48.118 33.5371 48.3836 33.8026 48.4721 34.0682C48.5606 34.2453 48.4721 34.4223 48.5606 34.4223C48.5606 34.4223 48.7377 34.3338 48.6491 33.9797C48.6491 33.8026 48.5606 33.6256 48.3836 33.5371C48.2065 33.36 47.9409 33.2715 47.6754 33.2715C47.1442 33.2715 46.5245 33.7141 46.259 34.3338C45.9049 34.8649 45.7278 35.5731 45.6393 36.2813C45.5508 37.7862 46.259 39.2026 47.2327 39.5567C47.7639 39.7338 48.2065 39.6452 48.3836 39.4682C48.6491 39.2911 48.7377 39.1141 48.7377 39.1141Z" fill="#B5694A"/>
<path d="M65.4701 27.5161C65.7357 27.9587 66.8865 27.6932 68.3029 27.6932C69.7193 27.6046 70.7815 27.6046 71.0471 27.162C71.3127 26.7194 69.9848 25.6571 68.2143 25.8342C66.3553 25.9227 65.116 27.0735 65.4701 27.5161Z" fill="#263238"/>
<path d="M81.3157 27.2518C81.4042 27.783 82.2894 27.96 83.3517 28.0485C84.414 28.1371 85.2992 28.0485 85.4763 27.6059C85.6533 27.1633 84.7681 26.3666 83.4402 26.2781C82.2009 26.1895 81.2271 26.8092 81.3157 27.2518Z" fill="#263238"/>
<path d="M88.1323 19.0217C88.1323 19.0217 82.1127 21.943 74.411 18.0479C69.2766 15.4807 63.3455 14.2413 62.0177 15.3036C60.6898 16.3659 60.4242 21.5889 55.3783 23.0938C55.3783 23.0938 55.7324 33.097 51.7488 32.7429C47.7653 32.3888 50.2439 16.8086 50.2439 16.8086L60.0701 12.0282L70.7815 9.99219L80.8733 11.4086L88.6634 13.5332L88.1323 19.0217Z" fill="#263238"/>
<path d="M21.1196 77.0921C31.5655 66.2921 49.9785 67.5315 49.9785 67.5315L73.8801 68.4167C73.8801 68.4167 82.9981 69.3905 91.4964 73.9052L92.1161 74.0823V74.1708C98.8439 77.8003 108.316 86.5642 117.345 94.974L106.546 104.977L94.5947 115.6C94.5947 115.6 94.6833 115.689 94.5947 115.777C94.5062 116.397 96.5423 129.233 98.4013 140.387C87.8669 148.531 74.6768 153.311 60.3359 153.046C51.2179 152.869 42.631 150.656 34.9294 146.849L34.0442 136.58C33.2474 127.285 32.6278 115.777 32.6278 115.777" fill="#E51937"/>
<path d="M83.4406 70.1855C83.4406 70.1855 83.5291 70.3626 83.6176 70.6282C83.7061 70.9823 83.8832 71.4249 84.0602 71.956C84.4143 73.1068 84.9455 74.7003 85.5652 76.7363C86.8045 80.8085 88.3979 86.3855 89.9028 92.6707C91.4078 98.9559 92.5586 104.71 93.2668 108.871C93.6209 110.995 93.8864 112.677 94.0635 113.828C94.152 114.359 94.2405 114.802 94.2405 115.156C94.2405 115.421 94.329 115.598 94.2405 115.598C94.152 115.598 94.152 115.421 94.152 115.156C94.0635 114.802 93.975 114.359 93.8864 113.828C93.6209 112.589 93.3553 110.907 92.9127 108.959C92.1159 104.799 90.8766 99.133 89.3717 92.8478C87.8668 86.5625 86.2734 80.9855 85.1225 76.9134C84.5029 74.9659 84.0602 73.2839 83.7061 72.1331C83.5291 71.6019 83.4406 71.1593 83.3521 70.8052C83.5291 70.3626 83.4406 70.1855 83.4406 70.1855Z" fill="#263238"/>
<path d="M103.779 100.448C109.503 95.7848 114.068 91.9127 113.975 91.799C113.882 91.6853 109.167 95.373 103.444 100.036C97.72 104.699 93.1552 108.571 93.2478 108.684C93.3405 108.798 98.0555 105.11 103.779 100.448Z" fill="#263238"/>
<path opacity="0.2" d="M34.9295 91.875L25.5459 122.681L28.9983 124.452L32.4508 115.777C32.4508 115.777 35.9918 97.452 34.9295 91.875Z" fill="#101010"/>
<g opacity="0.2">
<path d="M82.4666 70.275C87.5125 72.9307 74.8535 79.3044 69.188 79.1274L73.3486 68.1504C73.2601 68.1504 80.7847 69.3897 82.4666 70.275Z" fill="#101010"/>
</g>
<path d="M48.4736 68.1481V60.0039C48.4736 60.0039 64.408 64.076 64.9391 73.6366C64.9391 73.6366 66.9752 63.1023 75.2079 62.5711L76.3588 77.3547L66.7981 85.6759H57.149L49.4474 79.0366L48.4736 68.7678" fill="#E51937"/>
<path d="M68.5687 119.403C68.5687 119.403 68.5687 119.226 68.5687 118.96C68.5687 118.606 68.5687 118.163 68.5687 117.632C68.5687 116.481 68.6573 114.888 68.6573 112.852C68.6573 108.78 68.5687 103.291 68.0376 97.0946C67.5065 90.9865 66.7097 85.498 66.0015 81.5144C65.6474 79.5668 65.3819 77.8849 65.1163 76.8226C65.0278 76.2914 64.9392 75.8488 64.8507 75.5832C64.7622 75.3177 64.7622 75.1406 64.7622 75.1406C64.7622 75.1406 64.8507 75.3177 64.9393 75.5832C65.0278 75.9373 65.1163 76.38 65.2933 76.8226C65.5589 77.8849 65.913 79.4783 66.2671 81.5144C67.0638 85.498 67.8605 90.9865 68.3917 97.1832C68.9228 103.291 69.0114 108.868 68.8343 112.94C68.7458 114.977 68.7458 116.57 68.6573 117.721C68.6573 118.252 68.5687 118.695 68.5687 119.049C68.6573 119.226 68.5687 119.403 68.5687 119.403Z" fill="#263238"/>
<path d="M64.2313 70.8937C64.2313 70.8937 63.8772 70.7167 63.2576 70.9822C62.992 71.0708 62.6379 71.3363 62.3723 71.6904C62.1067 72.0445 61.8412 72.4871 61.6641 73.0183C60.6904 75.1429 59.451 78.1527 58.6543 81.8707L58.5658 82.1363L58.3002 81.9592C57.3264 81.4281 56.3527 80.7199 55.3789 80.1002C53.5199 78.7723 51.7494 77.4445 50.2445 76.2051C49.4478 75.5855 48.8281 74.7888 48.474 73.9035C48.1199 73.0183 47.9429 72.2216 47.9429 71.4248C47.8544 69.9199 48.1199 68.6806 48.297 67.8839C48.474 67.0872 48.5625 66.6445 48.6511 66.6445C48.6511 66.6445 48.6511 67.0872 48.474 67.9724C48.3855 68.7691 48.2085 70.0085 48.297 71.5134C48.3855 72.2216 48.474 73.0183 48.8281 73.815C49.1822 74.6117 49.8019 75.3199 50.5101 75.9396C52.015 77.1789 53.7855 78.5068 55.6445 79.8346C56.6183 80.4543 57.592 81.074 58.5658 81.6936L58.2117 81.8707C59.0969 78.1527 60.3363 75.1429 61.3986 73.0183C61.6641 72.4871 61.9297 72.0445 62.1953 71.6904C62.4608 71.3363 62.9035 71.0708 63.169 70.9822C63.9658 70.6281 64.3199 70.8937 64.2313 70.8937Z" fill="#263238"/>
<path d="M75.2079 62.6582C75.2079 62.6582 75.2964 63.1008 75.2964 63.8975C75.385 64.7828 75.4735 65.9336 75.562 67.35C75.6505 68.8549 75.8276 70.5369 76.1817 72.4844C76.2702 73.4582 76.6243 74.4319 76.3587 75.5827C76.0046 76.7336 75.2079 77.5303 74.3227 78.2385C73.0833 79.2122 71.7555 79.9204 70.7817 80.8942L70.4276 81.2483V80.7172C70.162 77.3532 69.0997 74.5205 68.0375 72.75C66.9752 70.891 66.1784 70.0057 66.267 69.9172C66.267 69.9172 66.5325 70.0942 66.8866 70.5369C67.2407 70.9795 67.7719 71.6877 68.303 72.5729C69.3653 74.3434 70.6047 77.1762 70.8702 80.6286L70.5161 80.5401C71.4899 79.4778 72.8178 78.6811 74.0571 77.7959C74.9424 77.1762 75.7391 76.3795 76.0046 75.4057C76.2702 74.4319 75.9161 73.4582 75.8276 72.4844C75.562 70.5369 75.385 68.7664 75.2964 67.35C75.2079 65.8451 75.2079 64.6943 75.2079 63.8975C75.2079 63.1008 75.2079 62.6582 75.2079 62.6582Z" fill="#263238"/>
<path d="M126.464 64.6953C125.844 65.492 102.385 96.8296 102.385 96.8296L105.661 98.6886L129.739 67.7051L126.464 64.6953Z" fill="#455A64"/>
<path d="M32.2741 89.4837C32.2741 89.4837 56.9724 124.982 58.3888 125.69C61.3101 127.106 95.0378 97.8934 98.3132 95.1492C98.7558 94.5295 99.641 93.2902 101.5 90.8115C101.5 90.8115 104.156 78.5952 106.989 79.5689C109.821 80.5427 105.395 85.7656 107.254 90.3689C109.113 94.9722 117.611 83.9952 117.877 82.9329L120.09 80.1001C120.09 80.1001 122.392 86.5624 122.215 89.3066C121.684 97.982 113.451 108.339 113.451 108.339C113.451 108.339 76.5362 154.106 51.2183 155.523C43.9593 155.965 30.9462 135.251 22.3594 119.759C17.1365 110.375 19.7037 98.6016 28.379 92.3164L32.2741 89.4837Z" fill="#B5694A"/>
<path d="M118.142 90.8111C118.054 90.8111 118.851 89.3947 119.736 87.6242C120.621 85.8537 121.241 84.3488 121.329 84.4373C121.418 84.4373 120.887 86.0308 120.001 87.8012C119.116 89.5717 118.231 90.8996 118.142 90.8111Z" fill="#EB996E"/>
<path d="M28.1136 72.1309C28.1136 72.1309 1.64481 81.5144 21.2972 126.042L51.838 107.629L47.5004 97.1832L28.1136 72.1309Z" fill="#E51937"/>
<path d="M26.0777 72.9293C26.0777 72.9293 26.1662 72.9293 26.2547 72.9293C26.4318 72.9293 26.6088 72.9293 26.8744 72.9293C27.4055 72.9293 28.2023 73.0178 29.2645 73.2834C30.2383 73.549 31.4777 73.9916 32.717 74.7883C33.9563 75.585 35.2842 76.6473 36.5235 77.9752C39.0907 80.6309 41.4809 84.349 43.694 88.6866C45.9071 93.0243 48.0317 97.9817 50.1563 103.116C50.7759 104.71 51.3956 106.214 52.0153 107.631L52.1038 107.808L51.9267 107.896C43.0743 112.677 35.3727 117.28 29.9727 120.644C27.2285 122.326 25.1039 123.742 23.599 124.716C22.8908 125.159 22.2711 125.513 21.917 125.867C21.5629 126.132 21.2974 126.221 21.2974 126.221C21.2974 126.221 21.4744 126.044 21.8285 125.778C22.1826 125.513 22.8023 125.07 23.5105 124.627C24.9269 123.654 27.14 122.149 29.7957 120.467C35.1957 117.014 42.8973 112.411 51.7497 107.631L51.6612 107.896C51.0415 106.48 50.4218 104.887 49.8022 103.382C47.6776 98.1587 45.553 93.2899 43.3399 88.9522C41.1268 84.6145 38.8252 80.8965 36.3465 78.2408C35.1071 76.9129 33.8678 75.8506 32.6285 75.0539C31.3891 74.2572 30.2383 73.8146 29.2645 73.549C27.2285 72.8408 26.0777 72.9293 26.0777 72.9293Z" fill="#263238"/>
<path d="M401.144 175.074C399.951 205.039 377.888 229.786 347.923 230.382C317.958 230.978 293.21 207.126 292.614 177.161C292.018 147.196 315.945 119.541 345.835 121.852C377.664 124.312 402.188 147.792 401.144 175.074Z" fill="#303030"/>
<path d="M394.509 190.502L377.588 200.938L383.775 215.92C389.515 210.628 394.062 204.068 397.043 196.763L394.509 190.502Z" fill="#B5694A"/>
<path d="M399.13 190.8C396.969 185.582 389.44 168.289 383.104 161.804C373.712 152.114 357.09 153.456 357.09 153.456L335.548 154.201C335.548 154.201 327.348 155.096 319.671 159.121L319.149 159.27V159.344C313.111 162.624 304.614 170.451 296.489 178.054L306.179 187.073L316.913 196.614C316.913 196.614 316.838 196.689 316.913 196.838C317.062 197.434 315.198 208.988 313.484 218.976C322.95 226.281 334.877 230.604 347.772 230.306C355.972 230.157 363.724 228.145 370.656 224.79L371.476 215.547C372.221 207.199 372.743 196.838 372.743 196.838L375.799 204.665L398.236 192.962C398.683 192.291 398.907 191.546 399.13 190.8Z" fill="#E51937"/>
<path d="M357.761 152.637C357.761 152.637 357.835 152.786 357.835 153.009C357.91 153.233 357.91 153.68 357.984 154.128C358.059 155.097 357.984 156.587 357.463 158.227C356.941 159.867 355.823 161.805 354.034 163.37C352.245 164.936 349.711 165.979 347.027 166.128C344.344 166.278 341.66 165.458 339.797 164.041C337.859 162.625 336.666 160.836 335.921 159.271C335.25 157.631 335.026 156.215 334.952 155.171C334.952 154.649 334.952 154.277 334.952 154.053C334.952 153.829 335.026 153.68 335.026 153.68C335.101 153.68 335.026 154.202 335.101 155.171C335.175 156.14 335.399 157.556 336.144 159.122C336.89 160.687 338.082 162.401 339.946 163.743C341.809 165.085 344.344 165.83 346.953 165.681C349.561 165.532 352.021 164.563 353.736 163.072C355.45 161.582 356.568 159.718 357.09 158.078C357.686 156.438 357.761 155.022 357.761 154.053C357.835 153.158 357.686 152.637 357.761 152.637Z" fill="#263238"/>
<path d="M378.259 157.334C378.259 157.409 377.663 157.334 376.768 157.707C375.799 158.005 374.532 158.825 373.414 160.241C372.296 161.657 371.551 163.745 371.327 166.13C371.178 167.322 371.103 168.59 371.103 169.857C371.029 171.199 371.029 172.54 371.029 173.882C370.954 179.398 371.327 184.467 371.7 188.045C371.849 189.834 372.072 191.324 372.147 192.293C372.221 192.741 372.221 193.113 372.296 193.486C372.296 193.784 372.296 193.859 372.296 193.859C372.296 193.859 372.221 193.71 372.221 193.486C372.147 193.188 372.072 192.815 371.998 192.368C371.849 191.399 371.625 189.908 371.401 188.119C370.954 184.467 370.581 179.472 370.656 173.882C370.656 172.466 370.731 171.124 370.731 169.857C370.805 168.515 370.88 167.248 371.029 166.055C371.327 163.67 372.072 161.508 373.265 160.092C374.458 158.676 375.799 157.856 376.768 157.558C377.663 157.185 378.259 157.334 378.259 157.334Z" fill="#263238"/>
<path d="M326.975 155.914C326.975 155.914 326.975 156.063 326.901 156.361C326.826 156.659 326.677 157.032 326.603 157.554C326.304 158.598 325.857 160.088 325.335 161.877C324.292 165.53 322.876 170.598 321.534 176.189C320.192 181.854 319.074 186.997 318.403 190.724C318.031 192.588 317.732 194.078 317.583 195.122C317.509 195.644 317.434 196.017 317.36 196.315C317.285 196.613 317.285 196.762 317.285 196.762C317.285 196.762 317.285 196.613 317.285 196.315C317.36 196.017 317.36 195.569 317.434 195.122C317.583 194.078 317.807 192.513 318.18 190.65C318.85 186.923 319.894 181.779 321.236 176.114C322.577 170.449 324.068 165.381 325.186 161.803C325.783 160.014 326.23 158.523 326.603 157.479C326.752 157.032 326.901 156.659 326.975 156.287C326.975 156.063 326.975 155.914 326.975 155.914Z" fill="#263238"/>
<path d="M398.683 187.223C398.683 187.223 398.385 187.446 397.788 187.894C397.192 188.266 396.372 188.863 395.328 189.533C393.241 190.875 390.26 192.739 386.905 194.602C383.551 196.54 380.495 198.105 378.259 199.298C377.141 199.894 376.246 200.342 375.575 200.64C374.904 200.938 374.606 201.087 374.532 201.087C374.532 201.087 374.83 200.863 375.501 200.491C376.172 200.118 377.066 199.671 378.11 199.074C380.346 197.882 383.402 196.242 386.682 194.304C390.036 192.366 393.018 190.577 395.105 189.31C396.148 188.713 396.968 188.192 397.639 187.744C398.31 187.372 398.683 187.223 398.683 187.223Z" fill="#263238"/>
<path d="M318.155 190.455C318.233 190.359 314.13 186.888 308.992 182.702C303.853 178.516 299.624 175.2 299.546 175.295C299.468 175.391 303.57 178.862 308.709 183.049C313.848 187.235 318.077 190.551 318.155 190.455Z" fill="#263238"/>
<path opacity="0.2" d="M370.731 175.371L379.154 203.1L376.023 204.74L372.967 196.913C372.893 196.839 369.762 180.44 370.731 175.371Z" fill="#101010"/>
<g opacity="0.2">
<path d="M327.944 155.914C323.398 158.3 334.802 164.039 339.945 163.89L336.218 154.051C336.144 154.051 329.435 155.094 327.944 155.914Z" fill="#101010"/>
</g>
<path opacity="0.2" d="M356.94 196.092L329.957 196.241L331.746 186.252L358.879 185.73L356.94 196.092Z" fill="#B7142C"/>
<path d="M354.332 120.659C354.108 121.404 354.407 122.299 355.003 122.746C355.599 123.268 356.494 123.342 357.165 122.97C358.432 122.299 358.581 120.435 358.283 119.019C357.984 117.603 357.463 116.037 358.059 114.696C358.506 113.652 359.475 112.981 360.295 112.161C361.637 110.745 362.308 108.658 361.935 106.72C361.562 104.782 360.072 103.067 358.208 102.62C356.27 102.098 353.885 102.769 352.469 101.353C351.425 100.384 351.276 98.6696 350.456 97.477C349.189 95.6135 346.505 95.3898 344.269 95.7625C342.033 96.1352 339.797 96.8806 337.561 96.3589C335.697 95.9116 334.206 94.719 332.492 93.9736C328.765 92.3337 323.994 93.3773 321.236 96.3589C318.478 99.3405 317.882 104.186 319.895 107.763C320.565 109.031 321.684 110.223 323.025 110.745" fill="#263238"/>
<path d="M346.505 165.911C340.617 165.911 335.697 161.29 335.399 155.475C335.175 150.556 334.952 145.86 334.952 145.86C334.952 145.86 325.858 145.189 325.038 136.319C324.218 127.448 324.069 106.95 324.069 106.95C334.057 101.732 346.133 102.254 355.674 108.292L356.568 108.813L357.612 154.73C357.686 160.917 352.692 165.911 346.505 165.911Z" fill="#B5694A"/>
<path d="M341.288 120.665C340.617 120.888 340.244 121.634 340.468 122.304C340.691 122.975 341.437 123.348 342.108 123.124C342.779 122.901 343.151 122.155 342.928 121.485C342.704 120.814 341.959 120.441 341.288 120.665Z" fill="#263238"/>
<path d="M338.828 121.114C338.977 121.263 339.797 120.518 341.064 120.443C342.331 120.369 343.226 120.965 343.375 120.742C343.45 120.667 343.3 120.369 342.853 120.145C342.481 119.847 341.81 119.624 340.99 119.698C340.244 119.773 339.573 120.071 339.201 120.443C338.903 120.742 338.754 121.04 338.828 121.114Z" fill="#263238"/>
<path d="M327.796 120.665C327.125 120.888 326.752 121.634 326.976 122.304C327.199 122.975 327.945 123.348 328.616 123.124C329.286 122.901 329.659 122.155 329.435 121.485C329.212 120.814 328.466 120.441 327.796 120.665Z" fill="#263238"/>
<path d="M325.112 121.114C325.261 121.263 326.081 120.518 327.348 120.443C328.616 120.369 329.51 120.965 329.659 120.742C329.734 120.667 329.585 120.369 329.137 120.145C328.765 119.847 328.094 119.624 327.274 119.698C326.529 119.773 325.858 120.071 325.485 120.443C325.187 120.816 325.038 121.04 325.112 121.114Z" fill="#263238"/>
<path d="M334.43 130.725C334.43 130.651 333.685 130.501 332.417 130.501C332.119 130.501 331.821 130.427 331.821 130.278C331.747 130.054 331.821 129.756 331.97 129.309C332.194 128.489 332.492 127.594 332.716 126.774C333.759 123.122 334.505 120.14 334.281 120.066C334.057 119.991 333.088 122.898 332.045 126.551C331.821 127.445 331.523 128.265 331.299 129.16C331.225 129.532 331.001 129.98 331.225 130.501C331.299 130.725 331.597 130.949 331.821 130.949C332.045 131.023 332.194 130.949 332.343 130.949C333.685 130.874 334.43 130.8 334.43 130.725Z" fill="#263238"/>
<path d="M338.53 131.771C336.07 132.964 334.877 133.337 332.641 134.008C332.641 134.008 334.281 136.169 336.741 135.051C339.35 133.784 338.53 131.771 338.53 131.771Z" fill="#99583E"/>
<path d="M334.952 145.786C334.952 145.786 340.617 145.786 346.356 141.537C346.356 141.537 344.12 148.171 335.101 148.097L334.952 145.786Z" fill="#A36957"/>
<path d="M356.792 117.904C356.792 117.159 357.314 116.562 358.059 116.562C359.699 116.488 362.457 117.084 362.83 121.631C363.352 128.191 356.941 126.625 356.941 126.476C356.867 126.327 356.792 120.438 356.792 117.904Z" fill="#99583E"/>
<path d="M358.283 123.869C358.283 123.869 358.432 123.943 358.581 124.018C358.804 124.092 359.103 124.092 359.475 123.943C360.146 123.645 360.668 122.527 360.593 121.334C360.593 120.738 360.37 120.216 360.146 119.695C359.923 119.247 359.55 118.949 359.252 118.875C358.879 118.8 358.655 119.024 358.581 119.247C358.506 119.471 358.581 119.546 358.506 119.546C358.506 119.546 358.357 119.471 358.357 119.173C358.357 119.024 358.432 118.875 358.581 118.726C358.73 118.576 358.954 118.502 359.177 118.502C359.699 118.502 360.146 118.949 360.444 119.396C360.743 119.918 360.966 120.515 360.966 121.185C361.041 122.527 360.444 123.794 359.475 124.167C359.028 124.316 358.655 124.242 358.432 124.092C358.357 124.018 358.283 123.869 358.283 123.869Z" fill="#B5694A"/>
<path d="M343.225 117.455C342.927 117.828 341.958 117.679 340.691 117.605C339.424 117.53 338.455 117.53 338.231 117.157C337.933 116.785 339.2 115.816 340.84 115.965C342.48 116.039 343.524 117.083 343.225 117.455Z" fill="#263238"/>
<path d="M328.988 117.232C328.914 117.679 328.094 117.903 327.125 117.977C326.23 118.052 325.336 117.977 325.187 117.53C325.038 117.083 325.783 116.412 326.976 116.337C328.168 116.263 329.063 116.784 328.988 117.232Z" fill="#263238"/>
<path d="M322.876 109.773C322.876 109.773 328.243 112.382 335.25 108.878C339.871 106.568 345.163 105.45 346.356 106.419C347.549 107.313 347.772 112.084 352.319 113.425C352.319 113.425 352.021 122.445 355.599 122.147C359.177 121.848 356.941 107.835 356.941 107.835L348.145 103.512L338.529 101.723L329.435 102.99L322.429 104.928L322.876 109.773Z" fill="#263238"/>
<path d="M290.675 125.277C290.973 125.799 301.335 161.727 301.335 161.727L280.761 164.56L271.295 135.266L290.675 125.277Z" fill="#455A64"/>
<path d="M301.334 161.653L303.198 160.684L292.464 124.309L290.452 125.352L301.334 161.653Z" fill="#263238"/>
<path d="M281.39 135.827C281.873 135.723 282.181 135.248 282.077 134.765C281.974 134.282 281.498 133.974 281.015 134.078C280.532 134.182 280.225 134.657 280.328 135.14C280.432 135.623 280.907 135.931 281.39 135.827Z" fill="#E51937"/>
<path d="M297.458 178.056L283.967 186.852L281.507 155.396L281.731 153.831L290.824 150.402L288.216 143.693C286.948 140.563 283.221 139.146 280.24 140.712C279.271 141.234 278.227 141.755 277.333 142.203C275.246 143.246 273.68 145.184 273.084 147.42C272.04 151.296 271.146 155.545 271.22 155.172L265.406 195.648C265.406 195.648 262.648 207.35 270.624 212.866C276.662 217.041 286.799 212.643 292.166 209.587L315.497 195.499L297.458 178.056Z" fill="#B5694A"/>
<path d="M612.591 151.836C643.192 149.905 666.434 123.532 664.503 92.9304C662.571 62.3289 636.198 39.0872 605.597 41.0186C574.995 42.95 551.754 69.323 553.685 99.9245C555.616 130.526 581.989 153.768 612.591 151.836Z" fill="#303030"/>
<path d="M629.96 19.8809C630.21 24.6183 630.542 26.0313 632.371 29.8545C633.451 32.0986 634.864 34.1764 635.446 36.5867C636.028 38.8308 635.695 41.3242 636.111 43.5682C636.776 47.3084 639.269 50.4667 641.181 53.7912C643.092 57.1158 644.339 61.3546 642.428 64.7622L623.228 62.5182L621.898 38.6645L629.96 19.8809Z" fill="#263238"/>
<path d="M591.728 11.8223C589.235 17.1415 592.726 22.3777 590.232 27.697C588.986 30.2735 587.739 32.9331 587.074 35.759C586.492 38.3355 586.326 40.9952 585.329 43.4054C583.666 47.2287 579.926 49.8052 578.181 53.5453C575.604 59.1139 578.347 66.1786 583.251 69.8356C588.155 73.5757 594.721 74.4899 600.788 74.0744C604.528 73.825 608.268 73.077 611.509 71.1654C614.751 69.2538 617.244 66.0124 617.66 62.2722" fill="#263238"/>
<path d="M620.237 2.42969C632.62 7.91519 635.031 28.278 635.114 30.9377C635.197 34.1791 636.942 34.844 639.103 36.5894C641.264 38.3348 643.342 40.3295 644.007 42.9891C644.506 45.067 644.007 47.3942 645.004 49.3058C646.168 51.5498 648.994 52.381 651.238 53.7939C655.394 56.4535 657.388 61.4404 657.638 66.261C657.887 71.0816 656.557 75.819 655.227 80.4734C654.729 82.3019 654.064 84.2966 652.402 85.294C651.155 86.042 649.493 86.042 647.996 86.042C640.184 85.8758 632.371 85.7095 624.475 85.5433C618.491 85.3771 612.341 85.2109 606.772 83.0499C602.284 81.2214 598.295 78.0631 595.884 73.9074C593.474 69.7517 592.643 64.7649 593.89 60.1937C594.887 56.7029 597.048 53.4614 597.63 49.8876C598.378 45.3994 594.638 43.4878 593.308 39.1659C591.978 34.844 590.814 24.4548 592.726 20.2991" fill="#263238"/>
<path d="M634.366 114.464L630.543 102.08L629.961 121.03C629.961 121.03 634.948 133.912 638.771 143.803C631.125 148.374 622.314 151.283 612.756 151.865C600.954 152.613 589.651 149.704 580.093 144.218L586.077 122.858L583.251 98.6721L575.438 109.892L558.649 93.6853C558.649 93.6853 570.95 70.9953 572.446 69.0006C582.171 55.7855 598.876 56.118 598.876 56.118L622.564 57.4478C622.564 57.4478 635.862 56.6998 644.672 67.2552C644.672 67.2552 653.233 80.304 660.214 112.552L634.366 114.464Z" fill="#E51937"/>
<path d="M646.251 70.7516C646.251 70.7516 646.168 70.7517 645.919 70.8348C645.67 70.8348 645.337 70.9179 644.922 71.001C644.007 71.1672 642.761 71.4166 641.181 72.0815C639.602 72.7464 637.774 73.8268 636.028 75.4891C635.114 76.3203 634.283 77.3176 633.535 78.4812C632.787 79.6448 632.122 80.9746 631.79 82.4707C631.623 83.2187 631.623 83.9667 631.873 84.7147C632.122 85.4628 632.538 86.1277 633.202 86.6264C633.867 87.125 634.699 87.2913 635.53 86.9588C636.278 86.7095 636.859 85.9614 637.109 85.1303C637.358 84.2992 637.358 83.3849 636.943 82.5538C636.527 81.7226 635.945 81.0577 635.114 80.4759C633.535 79.3123 631.623 78.6474 629.629 78.3981C627.634 78.1488 625.473 78.3981 623.395 78.9799C621.317 79.5617 619.239 80.3097 617.328 81.4733C615.416 82.6369 613.671 84.1329 612.341 86.0445C611.676 86.9588 611.177 88.0393 611.177 89.2029C611.177 89.7847 611.26 90.2834 611.593 90.782C611.925 91.2807 612.341 91.6132 612.84 91.9456C613.421 92.1118 614.003 92.2781 614.502 92.0287C615.001 91.7794 615.416 91.2807 615.749 90.782C616.33 89.6184 616.414 88.2886 616.414 86.9588C616.414 85.629 616.247 84.3823 615.832 83.1356C615.416 81.972 614.668 80.8915 613.754 79.9773C611.925 78.2319 609.515 77.2345 607.105 76.9852C604.695 76.7358 602.201 77.0683 599.957 77.8163C597.713 78.4812 595.469 79.3955 593.973 81.1408C593.308 81.972 592.809 83.0525 592.892 84.1329C592.975 85.2134 593.557 86.2108 594.305 86.8757C594.721 87.2081 595.136 87.4575 595.635 87.4575C596.134 87.5406 596.632 87.3744 597.048 87.125C597.879 86.6263 598.295 85.5459 598.378 84.6316C598.461 83.6343 598.378 82.6369 598.045 81.7226C597.879 81.224 597.713 80.8084 597.547 80.3928C597.464 80.1435 597.38 79.9773 597.297 79.7279L596.965 79.1461C596.134 77.4839 594.97 76.0709 593.723 74.8242C591.23 72.4139 588.404 70.9179 585.828 70.0867C583.251 69.2556 580.841 69.0063 578.929 69.1725C577.018 69.3387 575.522 69.6712 574.607 70.0036C574.109 70.1699 573.776 70.3361 573.527 70.4192C573.278 70.5023 573.111 70.5023 573.111 70.5023C573.111 70.5023 573.194 70.4192 573.444 70.3361C573.693 70.253 574.026 70.0867 574.524 69.9205C575.522 69.5881 576.935 69.1725 578.929 69.0063C580.841 68.84 583.251 69.0894 585.911 69.8374C588.57 70.6685 591.396 72.1646 593.973 74.5749C595.22 75.8216 596.383 77.2345 597.297 78.8968L597.63 79.5617C597.713 79.811 597.796 79.9773 597.879 80.2266C598.045 80.6422 598.295 81.1409 598.378 81.6395C598.71 82.6369 598.793 83.6343 598.71 84.6316C598.627 85.629 598.212 86.7926 597.214 87.4575C596.716 87.7899 596.134 87.8731 595.552 87.8731C594.97 87.7899 594.472 87.5406 593.973 87.2081C593.059 86.4601 592.477 85.3796 592.394 84.2161C592.311 83.6343 592.394 83.0525 592.643 82.4707C592.892 81.8889 593.142 81.3902 593.557 80.9746C595.136 79.1461 597.381 78.2319 599.708 77.4839C602.035 76.8189 604.528 76.4034 607.022 76.6527C609.515 76.9021 612.092 77.9825 613.92 79.811C614.834 80.7253 615.665 81.8058 616.164 83.0525C616.663 84.2992 616.829 85.629 616.829 86.9588C616.829 88.2886 616.663 89.7016 616.081 90.9483C615.749 91.5301 615.333 92.1119 614.668 92.4443C614.003 92.6936 613.255 92.6105 612.673 92.3612C612.175 92.0287 611.676 91.6132 611.344 91.0314C611.011 90.4496 610.845 89.8678 610.845 89.2029C610.845 87.9562 611.427 86.7926 612.092 85.7952C613.505 83.8005 615.333 82.3044 617.245 81.1408C619.156 79.8941 621.317 79.1461 623.395 78.5643C625.473 77.9825 627.634 77.7332 629.795 77.9825C631.873 78.2319 633.867 78.8968 635.447 80.1435C636.278 80.7253 636.943 81.4733 637.358 82.3876C637.774 83.3018 637.857 84.2992 637.524 85.2134C637.275 86.1277 636.61 86.9588 635.696 87.2913C634.782 87.6237 633.784 87.3744 633.119 86.8757C632.371 86.377 631.873 85.629 631.623 84.7978C631.374 83.9667 631.374 83.1356 631.54 82.3876C631.873 80.8084 632.621 79.4786 633.286 78.315C634.034 77.1514 634.948 76.154 635.779 75.3229C637.607 73.6606 639.436 72.5801 641.015 71.9152C642.594 71.2503 643.924 71.001 644.838 70.9179C645.753 70.7516 646.251 70.7516 646.251 70.7516Z" fill="#FAFAFA"/>
<path d="M656.308 97.8438C656.308 97.9269 655.477 98.0931 654.147 98.8411C652.817 99.5891 651.072 101.085 649.908 103.579C649.576 104.16 649.41 104.908 649.243 105.573C649.077 106.321 648.994 107.069 649.243 107.817C649.326 108.15 649.576 108.565 649.825 108.732C650.158 108.898 650.49 108.981 650.906 108.815C651.654 108.482 652.069 107.651 652.152 106.82C652.402 105.075 651.321 103.163 649.659 102.332C647.914 101.501 645.669 101.75 644.007 102.831C642.262 103.994 641.264 105.823 640.849 107.734C640.6 108.649 640.6 109.646 641.098 110.394C641.514 111.142 642.511 111.641 643.259 111.225C644.007 110.893 644.506 110.061 644.506 109.23C644.506 108.399 644.173 107.651 643.758 106.986C642.927 105.656 641.68 104.742 640.35 104.243C639.103 103.745 637.774 103.745 636.776 103.994C635.696 104.243 634.865 104.659 634.283 105.158C633.036 106.072 632.704 106.903 632.621 106.82C632.621 106.82 632.621 106.737 632.704 106.654C632.787 106.571 632.87 106.404 632.953 106.238C633.202 105.906 633.535 105.407 634.2 104.908C634.782 104.41 635.696 103.911 636.776 103.662C637.857 103.412 639.187 103.329 640.516 103.828C641.846 104.327 643.176 105.241 644.09 106.654C644.506 107.319 644.921 108.233 644.921 109.147C644.921 110.061 644.423 111.059 643.508 111.474C643.01 111.724 642.511 111.724 642.012 111.474C641.514 111.308 641.181 110.893 640.849 110.477C640.267 109.563 640.35 108.482 640.6 107.485C641.015 105.49 642.179 103.579 644.007 102.332C645.836 101.085 648.246 100.836 650.074 101.75C651.986 102.664 653.067 104.742 652.817 106.654C652.734 107.568 652.235 108.565 651.321 108.898C650.822 109.064 650.324 108.981 649.908 108.732C649.493 108.482 649.326 108.067 649.16 107.651C648.911 106.82 648.994 105.989 649.16 105.241C649.326 104.493 649.576 103.828 649.908 103.163C651.155 100.586 652.983 99.1736 654.313 98.4255C655.394 97.9269 656.308 97.8438 656.308 97.8438Z" fill="#FAFAFA"/>
<path d="M630.044 109.733C630.044 109.733 629.961 109.733 629.877 109.733C629.711 109.733 629.545 109.65 629.296 109.567C628.797 109.483 627.966 109.317 626.968 109.151C624.974 108.902 621.899 108.985 618.574 110.315C617.743 110.647 616.912 111.063 616.081 111.561C615.249 112.06 614.418 112.725 613.92 113.639C613.338 114.47 613.088 115.634 613.504 116.631C613.67 117.13 614.003 117.629 614.418 117.961C614.834 118.294 615.416 118.377 615.997 118.294C617.078 118.044 617.992 117.047 618.158 115.883C618.325 114.72 617.909 113.473 617.161 112.392C615.748 110.232 613.504 108.569 610.844 107.904C608.185 107.239 605.359 107.738 603.198 109.068C602.117 109.733 601.12 110.564 600.372 111.561C600.04 112.06 599.79 112.642 599.624 113.224C599.458 113.805 599.458 114.387 599.79 114.886C600.04 115.385 600.538 115.717 601.037 115.717C601.536 115.717 602.118 115.551 602.533 115.301C603.447 114.72 603.78 113.556 603.614 112.559C603.53 111.561 603.115 110.564 602.616 109.733C602.118 108.902 601.536 108.154 600.871 107.489C599.541 106.242 598.045 105.494 596.715 104.995C595.385 104.497 594.139 104.414 593.058 104.414C591.063 104.414 589.983 104.995 589.983 104.912C589.983 104.912 590.066 104.912 590.149 104.829C590.315 104.746 590.482 104.746 590.731 104.663C591.23 104.497 592.061 104.33 593.058 104.247C594.055 104.164 595.385 104.33 596.715 104.746C598.128 105.162 599.624 105.993 600.954 107.239C601.619 107.904 602.284 108.652 602.782 109.484C603.281 110.398 603.697 111.312 603.78 112.476C603.863 113.057 603.78 113.639 603.614 114.138C603.447 114.72 603.032 115.218 602.533 115.551C602.034 115.883 601.453 116.133 600.788 116.049C600.123 115.966 599.541 115.634 599.209 114.969C598.876 114.387 598.876 113.639 599.042 113.057C599.209 112.392 599.458 111.811 599.873 111.312C600.621 110.232 601.702 109.4 602.866 108.735C605.193 107.406 608.102 106.824 610.844 107.489C613.587 108.154 615.997 109.899 617.41 112.143C618.158 113.307 618.574 114.637 618.408 115.966C618.242 117.296 617.244 118.46 615.914 118.709C615.249 118.875 614.585 118.709 614.086 118.294C613.587 117.961 613.255 117.379 613.005 116.797C612.839 116.216 612.756 115.634 612.839 115.052C612.922 114.47 613.172 113.972 613.504 113.473C614.086 112.559 615 111.894 615.831 111.312C616.662 110.813 617.577 110.398 618.408 110.065C621.815 108.735 624.974 108.735 626.968 108.985C629.046 109.317 630.044 109.733 630.044 109.733Z" fill="#FAFAFA"/>
<path d="M537.206 40.4958C538.951 40.5789 538.453 49.9707 539.699 47.976C540.946 45.9813 538.951 36.4232 540.78 36.5894C543.107 36.8388 542.442 46.6462 542.442 47.4773C542.442 48.3085 543.689 48.3085 543.606 47.5604C543.523 46.48 543.19 35.0934 545.517 35.2596C546.764 35.3427 546.348 37.6699 546.348 37.6699C546.348 37.6699 545.933 48.3916 547.013 48.3916C548.094 48.4747 548.592 42.158 548.592 40.0802C548.592 38.0024 549.59 37.0881 550.504 37.8361C551.169 38.3348 551.252 44.8177 551.169 46.9786C551.086 49.0565 550.836 54.8744 553.247 52.0486C555.657 49.2227 558.566 47.976 559.563 48.2253C560.561 48.3916 560.644 49.8876 559.563 50.3863C558.732 50.8019 557.486 51.8823 556.654 52.7135C555.906 53.3784 555.408 54.2926 554.826 55.1238C554.244 56.038 553.995 56.6198 553.579 58.1159L556.821 97.2624L559.231 94.2703L572.945 107.485L565.797 115.714C560.561 121.698 551.086 122.113 545.767 116.212C545.6 115.963 545.351 115.797 545.185 115.547C543.855 113.885 543.107 111.724 542.941 109.563L538.453 58.7808C538.369 53.129 536.79 48.8071 536.541 45.8982C536.042 40.4958 536.541 40.4958 537.206 40.4958Z" fill="#B5694A"/>
<path d="M600.538 61.4412C600.621 55.5402 600.538 49.3066 600.538 49.3066C600.538 49.3066 592.975 47.9768 591.479 38.0032C590.066 28.5282 592.476 8.08229 592.476 8.08229C603.447 3.76038 615.914 5.42265 623.561 14.3158L622.397 62.2724C622.231 67.841 617.327 72.1629 611.426 71.9967C605.276 71.7473 600.455 67.093 600.538 61.4412Z" fill="#B5694A"/>
<path d="M594.471 23.7905C594.471 24.4554 594.969 25.0372 595.717 25.1204C596.382 25.2035 597.047 24.6217 597.047 23.9568C597.047 23.2919 596.549 22.7101 595.801 22.627C595.136 22.627 594.471 23.1256 594.471 23.7905Z" fill="#263238"/>
<path d="M592.393 22.2994C592.559 22.4657 593.556 21.8008 594.886 21.8008C596.216 21.8008 597.213 22.5488 597.379 22.3826C597.463 22.2994 597.296 21.967 596.881 21.7176C596.465 21.3852 595.717 21.0527 594.886 21.0527C594.055 21.0527 593.307 21.3852 592.891 21.6345C592.476 21.967 592.393 22.2163 592.393 22.2994Z" fill="#263238"/>
<path d="M608.518 24.2047C608.518 24.8696 609.017 25.4514 609.765 25.5346C610.43 25.6177 611.095 25.0359 611.095 24.371C611.095 23.706 610.596 23.1243 609.848 23.0411C609.1 22.958 608.518 23.5398 608.518 24.2047Z" fill="#263238"/>
<path d="M606.689 22.9576C606.855 23.1239 607.853 22.459 609.182 22.459C610.512 22.459 611.51 23.207 611.676 23.0408C611.759 22.9576 611.593 22.6252 611.177 22.3758C610.762 22.0434 610.014 21.7109 609.182 21.7109C608.351 21.7109 607.603 22.0434 607.188 22.2927C606.772 22.6252 606.689 22.8745 606.689 22.9576Z" fill="#263238"/>
<path d="M601.619 33.0991C601.619 33.016 600.788 32.8498 599.375 32.6836C599.043 32.6836 598.71 32.6005 598.627 32.3511C598.544 32.1018 598.71 31.6862 598.876 31.3538C599.209 30.5226 599.541 29.6084 599.957 28.6941C601.453 24.954 602.533 21.7957 602.367 21.7126C602.201 21.6295 600.871 24.7047 599.375 28.4448C599.043 29.359 598.71 30.2733 598.378 31.1044C598.211 31.52 598.045 31.9356 598.211 32.4342C598.295 32.6836 598.544 32.8498 598.793 32.9329C599.043 33.016 599.209 33.016 599.375 33.016C600.788 33.1823 601.619 33.1823 601.619 33.0991Z" fill="#263238"/>
<path d="M600.539 49.308C600.539 49.308 607.188 49.8067 613.92 45.9004C613.92 45.9004 610.596 52.7157 600.705 51.6352L600.539 49.308Z" fill="#99583E"/>
<path d="M602.201 36.4229C602.699 35.758 603.531 35.4255 604.445 35.5086C605.027 35.5918 605.608 35.8411 606.024 36.3398C606.356 36.8385 606.439 37.5034 606.107 38.0021C605.691 38.5007 604.943 38.667 604.279 38.4176C603.614 38.2514 603.032 37.7527 602.533 37.3371C602.367 37.254 602.201 37.0878 602.118 36.9216C602.034 36.7553 602.034 36.5891 602.201 36.4229Z" fill="#99583E"/>
<path d="M605.692 34.0977C605.442 34.0977 605.442 35.5937 604.196 36.5911C602.949 37.6715 601.37 37.4222 601.287 37.6715C601.287 37.7547 601.619 38.004 602.284 38.004C602.949 38.004 603.863 37.8378 604.694 37.1729C605.442 36.508 605.858 35.6768 605.858 35.095C605.941 34.4301 605.775 34.0977 605.692 34.0977Z" fill="#263238"/>
<path d="M619.239 7.24931C615.582 12.4023 606.024 17.7216 599.125 18.9683C599.957 17.8878 604.195 15.3113 604.943 14.2309C601.785 16.558 597.38 19.7164 593.224 19.8826C592.726 19.8826 592.227 19.8826 591.811 19.6332C591.23 19.3008 591.147 18.6359 591.063 18.0541C590.814 15.6438 590.98 11.4881 591.313 9.07781C591.728 6.66751 592.809 4.25721 594.887 2.67806C597.546 0.600215 601.37 0.101536 604.943 0.0184221C607.935 -0.0646916 611.011 0.101537 613.753 1.18201C616.496 2.26249 618.823 4.42345 619.239 6.99997" fill="#263238"/>
<path d="M629.628 30.4387C630.127 27.8622 630.542 25.4519 630.626 23.7896C630.958 18.6366 629.462 -0.230197 611.759 1.26585L615.998 6.66823C615.998 6.66823 612.507 18.1379 619.904 26.0337C619.904 26.0337 620.319 30.6881 625.473 36.0073C625.556 36.0073 628.548 35.9242 629.628 30.4387Z" fill="#263238"/>
<path d="M619.737 25.1996C620.818 25.0333 621.898 25.0333 622.896 25.4489C623.893 25.8645 624.807 26.6125 625.223 27.6099C625.639 28.6072 625.555 29.7708 625.223 30.7682C624.807 31.7655 624.142 32.6798 623.394 33.4278C622.813 33.9265 622.231 34.4252 621.483 34.6745C620.735 34.9239 619.904 34.8407 619.239 34.3421" fill="#99583E"/>
<path d="M620.236 31.6891C620.153 31.6891 620.569 32.354 621.566 32.1046C622.065 32.0215 622.48 31.606 622.813 31.1073C623.062 30.6086 623.312 30.0268 623.395 29.3619C623.478 28.697 623.312 28.0321 622.979 27.4503C622.647 26.9516 622.065 26.6191 621.566 26.6191C620.569 26.6191 620.236 27.2841 620.403 27.2841C620.486 27.3672 620.901 27.0347 621.566 27.2009C622.231 27.2841 622.813 28.1983 622.647 29.2788C622.48 30.3593 622.065 31.3566 621.483 31.606C620.735 31.8553 620.32 31.606 620.236 31.6891Z" fill="#B5694A"/>
<path d="M632.205 126.852V122.281H600.289L590.897 81.2227L543.107 81.6382L554.66 126.852H632.205Z" fill="#263238"/>
<path d="M570.069 107.01C571.728 106.471 572.497 104.264 571.788 102.082C571.078 99.899 569.158 98.5666 567.5 99.1058C565.841 99.645 565.071 101.851 565.781 104.034C566.49 106.217 568.41 107.549 570.069 107.01Z" fill="#E51937"/>
<path d="M588.736 126.516C587.905 125.02 587.24 123.358 586.741 121.695C586.658 121.28 586.492 120.864 586.575 120.449C586.658 120.033 586.908 119.618 587.323 119.534C588.071 119.368 588.57 120.283 588.819 121.031C589.9 123.69 592.31 125.685 595.053 126.267L596.964 126.184V126.1L638.77 122.36L636.776 114.049L658.884 112.387L660.879 120.532C661.959 130.755 653.731 139.482 643.508 139.149H595.551C580.342 140.147 577.433 126.682 577.433 126.682L588.736 126.516Z" fill="#B5694A"/>
</svg>
