<svg width="601" height="208" viewBox="0 0 601 208" fill="none" xmlns="http://www.w3.org/2000/svg">
<path d="M311.412 195.391L53.7915 75.1504H548.993L311.412 195.391Z" stroke="#303030" stroke-width="1.75849" stroke-dasharray="3.52 3.52"/>
<path d="M109.51 84.6415C110.092 54.6925 86.286 29.9417 56.337 29.3593C26.3879 28.7768 1.63717 52.5831 1.05468 82.5322C0.472198 112.481 24.2785 137.232 54.2276 137.814C84.1767 138.397 108.927 114.591 109.51 84.6415Z" fill="white" fill-opacity="0.1"/>
<path d="M106.292 101.853L96.4954 86.959L80.0088 97.3129L94.9821 120.33C94.9821 120.33 103.186 111.41 106.292 101.853Z" fill="#99583E"/>
<path d="M45.045 27.4643C45.8415 26.5882 44.7264 25.1546 43.6114 24.7564C42.4964 24.3581 41.0628 24.1192 40.5052 23.0838C39.8681 21.8095 40.9831 20.2962 41.222 18.8626C41.461 17.3493 40.5849 15.8361 40.2663 14.3228C39.9477 12.3317 40.6645 10.2609 42.1778 8.98659C43.6911 7.71227 45.9211 7.31404 47.753 7.9512C47.9123 4.92468 49.983 2.1371 52.8503 1.18135C55.7175 0.225609 59.0626 1.18135 60.9741 3.57071C62.4873 2.45568 64.0006 1.261 65.6732 0.623835C67.4253 -0.0929728 69.4165 -0.252264 71.089 0.464544C72.7616 1.18135 74.0359 3.09284 73.7173 4.92468C74.9917 3.41142 77.381 3.09284 79.2129 3.96894C81.0447 4.84504 82.2394 6.67688 82.7969 8.58836C83.5137 11.2963 82.8765 14.4821 80.7261 16.2343C78.5757 17.9865 74.912 17.8272 73.3191 15.5175" fill="#263238"/>
<path d="M55.6366 73.1804C61.5303 73.1804 66.4683 68.5609 66.7073 62.7468C66.9462 57.8885 67.1852 53.1894 67.1852 53.1894C67.1852 53.1894 76.2647 52.5522 77.0612 43.6319C77.8576 34.7913 78.0169 14.2428 78.0169 14.2428C67.9816 8.98624 55.9552 9.54375 46.4774 15.5968L45.6013 16.1543L44.5659 62.03C44.4862 68.1627 49.4243 73.1804 55.6366 73.1804Z" fill="#B5694A"/>
<path d="M60.814 27.9412C61.5308 28.1801 61.8494 28.8969 61.6104 29.6137C61.3715 30.3305 60.6547 30.6491 59.9379 30.4102C59.2211 30.1712 58.9025 29.4544 59.1414 28.7376C59.3804 28.1005 60.0972 27.7022 60.814 27.9412Z" fill="#263238"/>
<path d="M63.2823 28.4199C63.1231 28.5792 62.3266 27.8624 61.0523 27.7828C59.8576 27.7031 58.9019 28.2606 58.7426 28.1014C58.6629 28.0217 58.8222 27.7828 59.2204 27.4642C59.6187 27.2253 60.3355 26.9863 61.0523 26.9863C61.8487 27.066 62.4859 27.3845 62.8045 27.7031C63.2824 28.0217 63.362 28.3403 63.2823 28.4199Z" fill="#263238"/>
<path d="M74.3535 27.9412C75.0703 28.1801 75.3889 28.8969 75.15 29.6137C74.9111 30.3305 74.1942 30.6491 73.4774 30.4102C72.7606 30.1712 72.442 29.4544 72.681 28.7376C72.9199 28.1005 73.6367 27.7022 74.3535 27.9412Z" fill="#263238"/>
<path d="M76.9821 28.4199C76.8228 28.5792 76.0263 27.8624 74.752 27.7828C73.5573 27.7031 72.6016 28.2606 72.4423 28.1014C72.3626 28.0217 72.5219 27.7828 72.9202 27.4642C73.3184 27.2253 74.0352 26.9863 74.752 26.9863C75.5484 27.066 76.1856 27.3845 76.5042 27.7031C76.9821 28.1014 77.0617 28.3403 76.9821 28.4199Z" fill="#263238"/>
<path d="M67.6626 37.9709C67.6626 37.8913 68.4591 37.8116 69.6537 37.732C69.9723 37.732 70.2112 37.6523 70.2909 37.4931C70.3705 37.3338 70.2909 36.9355 70.1316 36.5373C69.8927 35.7409 69.6537 34.8648 69.3352 33.9887C68.2998 30.325 67.583 27.3781 67.7422 27.2985C67.9015 27.2188 68.9369 30.1657 69.9723 33.8294C70.2113 34.7055 70.4502 35.5816 70.6891 36.378C70.7688 36.7762 70.9281 37.1745 70.7688 37.732C70.6891 37.9709 70.3705 38.1302 70.1316 38.2099C69.8927 38.2895 69.7334 38.2099 69.5741 38.2099C68.4591 38.2099 67.6626 38.0506 67.6626 37.9709Z" fill="#263238"/>
<path d="M63.6016 39.0156C66.0706 40.2103 67.1856 40.6085 69.4953 41.2457C69.4953 41.2457 67.9024 43.3961 65.3538 42.2811C62.7255 41.0864 63.6016 39.0156 63.6016 39.0156Z" fill="#99583E"/>
<path d="M67.1852 53.0298C67.1852 53.0298 61.5304 53.0298 55.7959 48.8086C55.7959 48.8086 58.026 55.4192 67.0259 55.3395L67.1852 53.0298Z" fill="#99583E"/>
<path d="M45.3623 29.2176C45.3623 28.5008 44.8048 27.8636 44.088 27.8636C42.4155 27.7839 39.7075 28.4211 39.3093 32.9609C38.8314 39.4918 45.203 37.9785 45.203 37.8193C45.2827 37.66 45.2827 31.7662 45.3623 29.2176Z" fill="#99583E"/>
<path d="M43.8485 35.1902C43.8485 35.1902 43.6892 35.2698 43.5299 35.3495C43.3706 35.4291 42.9724 35.4291 42.6538 35.2698C42.0167 34.9512 41.4591 33.8362 41.5388 32.6415C41.5388 32.084 41.6981 31.5265 42.0167 31.0486C42.2556 30.5708 42.5742 30.2522 42.9724 30.2522C43.291 30.1725 43.5299 30.4115 43.6096 30.6504C43.6892 30.8097 43.6096 30.969 43.6892 30.969C43.6892 30.969 43.8485 30.8893 43.7689 30.5708C43.7689 30.4115 43.6892 30.2522 43.5299 30.1725C43.3706 30.0132 43.1317 29.9336 42.8928 29.9336C42.4149 29.9336 41.8574 30.3318 41.6184 30.8893C41.2999 31.3672 41.1406 32.0044 41.0609 32.6415C40.9813 33.9955 41.6184 35.2698 42.4945 35.5884C42.9724 35.7477 43.3706 35.6681 43.5299 35.5088C43.7689 35.3495 43.8485 35.1902 43.8485 35.1902Z" fill="#B5694A"/>
<path d="M58.903 24.7536C59.1419 25.1519 60.1773 24.9129 61.4517 24.9129C62.726 24.8333 63.6817 24.8333 63.9207 24.4351C64.1596 24.0368 62.9649 23.0811 61.372 23.2404C59.6995 23.32 58.5844 24.3554 58.903 24.7536Z" fill="#263238"/>
<path d="M73.1593 24.5166C73.239 24.9945 74.0354 25.1537 74.9912 25.2334C75.9469 25.313 76.7434 25.2334 76.9027 24.8352C77.0619 24.4369 76.2655 23.7201 75.0708 23.6405C73.9558 23.5608 73.0797 24.1184 73.1593 24.5166Z" fill="#263238"/>
<path d="M79.2923 17.1121C79.2923 17.1121 73.8764 19.7404 66.9473 16.236C62.3279 13.9263 56.9916 12.8113 55.7969 13.767C54.6023 14.7227 54.3633 19.4218 49.8236 20.7758C49.8236 20.7758 50.1421 29.7757 46.5581 29.4571C42.9741 29.1385 45.2041 15.121 45.2041 15.121L54.0448 10.8201L63.6818 8.98828L72.7614 10.2626L79.7702 12.1741L79.2923 17.1121Z" fill="#263238"/>
<path d="M19.001 69.3593C28.3991 59.6426 44.9653 60.7576 44.9653 60.7576L66.4696 61.5541C66.4696 61.5541 74.673 62.4302 82.319 66.4921L82.8765 66.6514V66.731C88.9296 69.9965 97.4516 77.8813 105.575 85.4476L95.8587 94.4476L85.1066 104.005C85.1066 104.005 85.1862 104.085 85.1066 104.164C85.0269 104.722 86.8588 116.27 88.5313 126.306C79.0535 133.633 67.1864 137.934 54.2838 137.695C46.0804 137.536 38.3548 135.545 31.4256 132.12L30.6292 122.881C29.9124 114.518 29.3549 104.164 29.3549 104.164" fill="#E51937"/>
<path d="M75.0713 63.1445C75.0713 63.1445 75.151 63.3038 75.2306 63.5428C75.3103 63.8613 75.4696 64.2596 75.6289 64.7374C75.9474 65.7728 76.4253 67.2064 76.9828 69.0383C78.0979 72.702 79.5315 77.7196 80.8854 83.3744C82.2394 89.0293 83.2748 94.2062 83.912 97.9495C84.2306 99.861 84.4695 101.374 84.6288 102.41C84.7084 102.888 84.7881 103.286 84.7881 103.604C84.7881 103.843 84.8677 104.003 84.7881 104.003C84.7084 104.003 84.7084 103.843 84.7084 103.604C84.6288 103.286 84.5491 102.888 84.4695 102.41C84.2305 101.295 83.9916 99.7814 83.5934 98.0292C82.8766 94.2858 81.7615 89.1885 80.4076 83.5337C79.0536 77.8789 77.62 72.8613 76.5846 69.1976C76.0271 67.4454 75.6289 65.9321 75.3103 64.8967C75.151 64.4189 75.0713 64.0206 74.9917 63.702C75.151 63.3038 75.0713 63.1445 75.0713 63.1445Z" fill="#263238"/>
<path d="M93.3696 90.3722C98.5191 86.1771 102.626 82.6934 102.543 82.5911C102.459 82.4888 98.2173 85.8067 93.0678 90.0018C87.9182 94.1969 83.8112 97.6806 83.8946 97.7829C83.9779 97.8852 88.22 94.5673 93.3696 90.3722Z" fill="#263238"/>
<path opacity="0.2" d="M31.4258 82.6602L22.9834 110.377L26.0896 111.97L29.1957 104.164C29.1957 104.164 32.3815 87.6778 31.4258 82.6602Z" fill="#101010"/>
<g opacity="0.2">
<path d="M74.1948 63.2259C78.7346 65.6153 67.3453 71.3498 62.248 71.1905L65.9914 61.3145C65.9117 61.3145 72.6816 62.4295 74.1948 63.2259Z" fill="#101010"/>
</g>
<path d="M43.6113 61.3137V53.9863C43.6113 53.9863 57.9475 57.65 58.4254 66.2517C58.4254 66.2517 60.2572 56.7739 67.6642 56.296L68.6996 69.5968L60.0979 77.0835H51.4166L44.4874 71.1101L43.6113 61.8712" fill="#E51937"/>
<path d="M61.6909 107.428C61.6909 107.428 61.6909 107.269 61.6909 107.03C61.6909 106.711 61.6909 106.313 61.6909 105.835C61.6909 104.8 61.7705 103.366 61.7705 101.534C61.7705 97.8707 61.6909 92.9327 61.213 87.3575C60.7351 81.862 60.0183 76.924 59.3811 73.3399C59.0626 71.5877 58.8236 70.0745 58.5847 69.1187C58.505 68.6409 58.4254 68.2426 58.3458 68.0037C58.2661 67.7648 58.2661 67.6055 58.2661 67.6055C58.2661 67.6055 58.3458 67.7648 58.4254 68.0037C58.505 68.3223 58.5847 68.7205 58.744 69.1187C58.9829 70.0745 59.3015 71.5081 59.6201 73.3399C60.3369 76.924 61.0537 81.862 61.5316 87.4371C62.0094 92.9327 62.0891 97.9503 61.9298 101.614C61.8501 103.446 61.8501 104.879 61.7705 105.915C61.7705 106.393 61.6909 106.791 61.6909 107.11C61.7705 107.269 61.6909 107.428 61.6909 107.428Z" fill="#263238"/>
<path d="M57.7887 63.7839C57.7887 63.7839 57.4701 63.6246 56.9126 63.8636C56.6737 63.9432 56.3551 64.1821 56.1162 64.5007C55.8772 64.8193 55.6383 65.2175 55.479 65.6954C54.6029 67.6069 53.4879 70.3148 52.7711 73.6599L52.6914 73.8989L52.4525 73.7396C51.5764 73.2617 50.7003 72.6245 49.8242 72.067C48.1516 70.8723 46.5587 69.6777 45.2048 68.5626C44.488 68.0051 43.9304 67.2883 43.6119 66.4918C43.2933 65.6954 43.134 64.9786 43.134 64.2618C43.0543 62.9078 43.2933 61.7928 43.4526 61.076C43.6119 60.3592 43.6915 59.9609 43.7711 59.9609C43.7711 59.9609 43.7711 60.3592 43.6119 61.1556C43.5322 61.8724 43.3729 62.9875 43.4526 64.3414C43.5322 64.9786 43.6119 65.6954 43.9304 66.4122C44.249 67.129 44.8065 67.7662 45.4437 68.3237C46.7977 69.4387 48.3906 70.6334 50.0631 71.8281C50.9392 72.3856 51.8153 72.9431 52.6914 73.5006L52.3728 73.6599C53.1693 70.3148 54.2843 67.6069 55.2401 65.6954C55.479 65.2175 55.7179 64.8193 55.9569 64.5007C56.1958 64.1821 56.594 63.9432 56.833 63.8636C57.5498 63.545 57.8684 63.7839 57.7887 63.7839Z" fill="#263238"/>
<path d="M67.6645 56.373C67.6645 56.373 67.7441 56.7713 67.7441 57.4881C67.8238 58.2845 67.9034 59.3199 67.9831 60.5943C68.0627 61.9482 68.222 63.4615 68.5406 65.2137C68.6202 66.0898 68.9388 66.9659 68.6999 68.0013C68.3813 69.0367 67.6645 69.7535 66.868 70.3906C65.753 71.2667 64.5583 71.9039 63.6822 72.78L63.3636 73.0986V72.6207C63.1247 69.5942 62.169 67.0455 61.2132 65.4526C60.2575 63.7801 59.5407 62.9836 59.6203 62.904C59.6203 62.904 59.8592 63.0633 60.1778 63.4615C60.4964 63.8597 60.9743 64.4969 61.4521 65.2933C62.4079 66.8862 63.5229 69.4349 63.7619 72.541L63.4433 72.4614C64.3194 71.5057 65.5141 70.7889 66.6291 69.9924C67.4255 69.4349 68.1424 68.7181 68.3813 67.842C68.6202 66.9659 68.3016 66.0898 68.222 65.2137C67.9831 63.4615 67.8238 61.8686 67.7441 60.5943C67.6645 59.2403 67.6645 58.2049 67.6645 57.4881C67.6645 56.7713 67.6645 56.373 67.6645 56.373Z" fill="#263238"/>
<path d="M113.779 58.207C113.222 58.9238 92.1157 87.1183 92.1157 87.1183L95.0626 88.7908L116.726 60.915L113.779 58.207Z" fill="#455A64"/>
<path d="M29.0369 80.5091C29.0369 80.5091 51.2579 112.447 52.5322 113.084C55.1605 114.358 85.5054 88.0754 88.4523 85.6064C88.8505 85.0488 89.6469 83.9338 91.3195 81.7037C91.3195 81.7037 93.7088 70.7127 96.2575 71.5888C98.8062 72.4649 94.8239 77.164 96.4964 81.3055C98.169 85.4471 105.815 75.5711 106.054 74.6153L108.045 72.0667C108.045 72.0667 110.116 77.8808 109.956 80.3498C109.479 88.155 102.072 97.4735 102.072 97.4735C102.072 97.4735 68.8595 138.65 46.081 139.924C39.55 140.323 27.8422 121.686 20.1166 107.748C15.4175 99.3053 17.7272 88.7125 25.5325 83.0577L29.0369 80.5091Z" fill="#B5694A"/>
<path d="M106.293 81.7026C106.213 81.7026 106.93 80.4283 107.726 78.8354C108.523 77.2425 109.08 75.8885 109.16 75.9682C109.24 75.9682 108.762 77.4018 107.965 78.9947C107.169 80.5876 106.372 81.7823 106.293 81.7026Z" fill="#EB996E"/>
<path d="M25.2934 64.8965C25.2934 64.8965 1.4795 73.3389 19.1608 113.4L46.6384 96.8343L42.7358 87.4361L25.2934 64.8965Z" fill="#E51937"/>
<path d="M23.462 65.6145C23.462 65.6145 23.5416 65.6145 23.6213 65.6145C23.7806 65.6145 23.9399 65.6145 24.1788 65.6145C24.6567 65.6145 25.3735 65.6942 26.3292 65.9331C27.2053 66.172 28.3203 66.5703 29.4354 67.2871C30.5504 68.0039 31.7451 68.9596 32.8601 70.1543C35.1698 72.5437 37.3203 75.8888 39.3114 79.7914C41.3025 83.694 43.214 88.1541 45.1255 92.7736C45.683 94.2072 46.2405 95.5611 46.798 96.8355L46.8777 96.9948L46.7184 97.0744C38.7539 101.375 31.8247 105.517 26.9664 108.543C24.4974 110.057 22.5859 111.331 21.2319 112.207C20.5947 112.605 20.0372 112.924 19.7186 113.242C19.4001 113.481 19.1611 113.561 19.1611 113.561C19.1611 113.561 19.3204 113.402 19.639 113.163C19.9576 112.924 20.5151 112.526 21.1523 112.127C22.4266 111.251 24.4177 109.897 26.8071 108.384C31.6654 105.278 38.5946 101.136 46.5591 96.8355L46.4795 97.0744C45.922 95.8001 45.3644 94.3665 44.8069 93.0125C42.8954 88.3134 40.9839 83.9329 38.9928 80.0303C37.0017 76.1277 34.9309 72.7826 32.7008 70.3932C31.5858 69.1986 30.4708 68.2428 29.3557 67.526C28.2407 66.8092 27.2053 66.411 26.3292 66.172C24.4974 65.5349 23.462 65.6145 23.462 65.6145Z" fill="#263238"/>
<path d="M360.909 157.515C359.836 184.474 339.985 206.74 313.026 207.276C286.066 207.813 263.801 186.352 263.265 159.393C262.728 132.433 284.256 107.552 311.148 109.631C339.784 111.845 361.848 132.97 360.909 157.515Z" fill="#303030"/>
<path d="M354.94 171.395L339.716 180.783L345.283 194.263C350.446 189.502 354.537 183.6 357.22 177.028L354.94 171.395Z" fill="#B5694A"/>
<path d="M359.098 171.663C357.153 166.969 350.379 151.41 344.679 145.576C336.229 136.857 321.274 138.065 321.274 138.065L301.892 138.735C301.892 138.735 294.515 139.54 287.608 143.161L287.138 143.296V143.363C281.706 146.313 274.061 153.355 266.751 160.196L275.469 168.31L285.126 176.894C285.126 176.894 285.059 176.961 285.126 177.096C285.261 177.632 283.584 188.027 282.041 197.013C290.559 203.586 301.289 207.475 312.891 207.207C320.268 207.073 327.242 205.262 333.479 202.244L334.217 193.929C334.888 186.417 335.357 177.096 335.357 177.096L338.107 184.137L358.293 173.608C358.695 173.005 358.896 172.334 359.098 171.663Z" fill="#E51937"/>
<path d="M321.878 137.328C321.878 137.328 321.945 137.462 321.945 137.663C322.012 137.865 322.012 138.267 322.079 138.669C322.146 139.541 322.079 140.882 321.61 142.358C321.14 143.833 320.134 145.577 318.525 146.985C316.915 148.394 314.635 149.333 312.221 149.467C309.806 149.601 307.392 148.863 305.716 147.589C303.972 146.315 302.899 144.705 302.228 143.297C301.625 141.821 301.424 140.547 301.356 139.608C301.356 139.139 301.356 138.804 301.356 138.602C301.356 138.401 301.424 138.267 301.424 138.267C301.491 138.267 301.424 138.736 301.491 139.608C301.558 140.48 301.759 141.754 302.429 143.163C303.1 144.571 304.173 146.113 305.85 147.321C307.526 148.528 309.806 149.198 312.154 149.064C314.501 148.93 316.714 148.058 318.256 146.717C319.799 145.376 320.805 143.699 321.274 142.224C321.811 140.748 321.878 139.474 321.878 138.602C321.945 137.798 321.811 137.328 321.878 137.328Z" fill="#263238"/>
<path d="M340.32 141.554C340.32 141.621 339.783 141.554 338.978 141.889C338.107 142.157 336.967 142.895 335.961 144.169C334.955 145.444 334.284 147.321 334.083 149.467C333.949 150.54 333.882 151.68 333.882 152.821C333.815 154.028 333.815 155.235 333.815 156.442C333.748 161.405 334.083 165.965 334.418 169.184C334.552 170.794 334.753 172.135 334.821 173.007C334.888 173.409 334.888 173.744 334.955 174.08C334.955 174.348 334.955 174.415 334.955 174.415C334.955 174.415 334.888 174.281 334.888 174.08C334.821 173.811 334.753 173.476 334.686 173.074C334.552 172.202 334.351 170.861 334.15 169.251C333.748 165.965 333.412 161.472 333.479 156.442C333.479 155.168 333.546 153.961 333.546 152.821C333.613 151.613 333.68 150.473 333.815 149.4C334.083 147.254 334.753 145.309 335.827 144.035C336.9 142.761 338.107 142.023 338.978 141.755C339.783 141.42 340.32 141.554 340.32 141.554Z" fill="#263238"/>
<path d="M294.18 140.277C294.18 140.277 294.18 140.411 294.113 140.68C294.046 140.948 293.912 141.283 293.845 141.753C293.577 142.692 293.174 144.033 292.705 145.642C291.766 148.929 290.492 153.489 289.285 158.519C288.077 163.615 287.071 168.243 286.468 171.596C286.133 173.273 285.864 174.614 285.73 175.553C285.663 176.022 285.596 176.358 285.529 176.626C285.462 176.894 285.462 177.028 285.462 177.028C285.462 177.028 285.462 176.894 285.462 176.626C285.529 176.358 285.529 175.955 285.596 175.553C285.73 174.614 285.931 173.206 286.267 171.529C286.87 168.176 287.809 163.548 289.016 158.452C290.223 153.355 291.565 148.794 292.571 145.575C293.107 143.966 293.51 142.625 293.845 141.686C293.979 141.283 294.113 140.948 294.18 140.613C294.18 140.411 294.18 140.277 294.18 140.277Z" fill="#263238"/>
<path d="M358.695 168.445C358.695 168.445 358.427 168.646 357.89 169.049C357.354 169.384 356.616 169.921 355.677 170.524C353.799 171.731 351.117 173.408 348.099 175.085C345.081 176.828 342.331 178.237 340.319 179.31C339.314 179.846 338.509 180.249 337.905 180.517C337.302 180.785 337.033 180.919 336.966 180.919C336.966 180.919 337.235 180.718 337.838 180.383C338.442 180.047 339.246 179.645 340.185 179.108C342.197 178.035 344.947 176.56 347.898 174.816C350.916 173.073 353.598 171.463 355.476 170.323C356.415 169.787 357.152 169.317 357.756 168.915C358.36 168.579 358.695 168.445 358.695 168.445Z" fill="#263238"/>
<path d="M286.244 171.352C286.314 171.266 282.623 168.143 278 164.377C273.377 160.61 269.572 157.627 269.502 157.713C269.431 157.799 273.122 160.922 277.746 164.689C282.369 168.455 286.174 171.438 286.244 171.352Z" fill="#263238"/>
<path opacity="0.2" d="M333.547 157.783L341.125 182.731L338.308 184.206L335.559 177.165C335.492 177.098 332.675 162.344 333.547 157.783Z" fill="#101010"/>
<g opacity="0.2">
<path d="M295.052 140.276C290.961 142.422 301.222 147.586 305.849 147.452L302.496 138.6C302.429 138.6 296.393 139.538 295.052 140.276Z" fill="#101010"/>
</g>
<path opacity="0.2" d="M321.139 176.423L296.862 176.558L298.472 167.571L322.883 167.102L321.139 176.423Z" fill="#B7142C"/>
<path d="M318.793 108.557C318.591 109.228 318.86 110.032 319.396 110.435C319.933 110.904 320.737 110.971 321.341 110.636C322.481 110.032 322.615 108.356 322.347 107.082C322.079 105.807 321.609 104.399 322.146 103.192C322.548 102.253 323.42 101.649 324.158 100.912C325.365 99.6376 325.968 97.7598 325.633 96.0161C325.298 94.2725 323.957 92.73 322.28 92.3276C320.536 91.8582 318.39 92.4618 317.116 91.1876C316.177 90.3157 316.043 88.7733 315.305 87.7002C314.165 86.0237 311.751 85.8225 309.739 86.1578C307.727 86.4931 305.715 87.1637 303.703 86.6943C302.027 86.2919 300.685 85.2189 299.143 84.5482C295.79 83.0729 291.498 84.0117 289.016 86.6943C286.535 89.3768 285.999 93.736 287.809 96.955C288.413 98.0951 289.419 99.1681 290.626 99.6376" fill="#263238"/>
<path d="M311.751 149.269C306.453 149.269 302.027 145.111 301.759 139.88C301.557 135.454 301.356 131.229 301.356 131.229C301.356 131.229 293.174 130.625 292.437 122.645C291.699 114.664 291.565 96.2219 291.565 96.2219C300.551 91.5274 311.416 91.9969 320 97.429L320.805 97.8985L321.744 139.21C321.811 144.776 317.317 149.269 311.751 149.269Z" fill="#B5694A"/>
<path d="M307.057 108.56C306.453 108.762 306.118 109.432 306.319 110.036C306.52 110.639 307.191 110.975 307.795 110.774C308.398 110.572 308.734 109.902 308.532 109.298C308.331 108.695 307.66 108.359 307.057 108.56Z" fill="#263238"/>
<path d="M304.844 108.965C304.978 109.099 305.716 108.428 306.856 108.361C307.996 108.294 308.801 108.831 308.935 108.63C309.002 108.563 308.868 108.294 308.465 108.093C308.13 107.825 307.526 107.624 306.789 107.691C306.118 107.758 305.514 108.026 305.179 108.361C304.911 108.63 304.777 108.898 304.844 108.965Z" fill="#263238"/>
<path d="M294.918 108.56C294.314 108.762 293.979 109.432 294.18 110.036C294.381 110.639 295.052 110.975 295.655 110.774C296.259 110.572 296.594 109.902 296.393 109.298C296.192 108.695 295.521 108.359 294.918 108.56Z" fill="#263238"/>
<path d="M292.504 108.965C292.638 109.099 293.376 108.428 294.516 108.361C295.656 108.294 296.461 108.831 296.595 108.63C296.662 108.563 296.528 108.294 296.125 108.093C295.79 107.825 295.186 107.624 294.449 107.691C293.778 107.758 293.175 108.026 292.839 108.361C292.571 108.697 292.437 108.898 292.504 108.965Z" fill="#263238"/>
<path d="M300.887 117.613C300.887 117.546 300.216 117.412 299.076 117.412C298.808 117.412 298.54 117.345 298.54 117.21C298.473 117.009 298.54 116.741 298.674 116.339C298.875 115.601 299.143 114.796 299.344 114.058C300.283 110.772 300.954 108.09 300.753 108.023C300.552 107.956 299.68 110.571 298.741 113.857C298.54 114.662 298.271 115.4 298.07 116.205C298.003 116.54 297.802 116.942 298.003 117.412C298.07 117.613 298.338 117.814 298.54 117.814C298.741 117.881 298.875 117.814 299.009 117.814C300.216 117.747 300.887 117.68 300.887 117.613Z" fill="#263238"/>
<path d="M304.575 118.555C302.362 119.628 301.289 119.963 299.277 120.567C299.277 120.567 300.753 122.511 302.966 121.505C305.313 120.365 304.575 118.555 304.575 118.555Z" fill="#99583E"/>
<path d="M301.356 131.162C301.356 131.162 306.453 131.162 311.617 127.34C311.617 127.34 309.605 133.308 301.49 133.241L301.356 131.162Z" fill="#A36957"/>
<path d="M321.006 106.078C321.006 105.407 321.475 104.87 322.146 104.87C323.621 104.803 326.103 105.34 326.438 109.431C326.907 115.332 321.14 113.924 321.14 113.79C321.073 113.656 321.006 108.358 321.006 106.078Z" fill="#99583E"/>
<path d="M322.347 111.444C322.347 111.444 322.481 111.511 322.615 111.578C322.817 111.645 323.085 111.645 323.42 111.511C324.024 111.243 324.493 110.237 324.426 109.164C324.426 108.627 324.225 108.158 324.024 107.688C323.823 107.286 323.487 107.018 323.219 106.951C322.884 106.883 322.682 107.085 322.615 107.286C322.548 107.487 322.615 107.554 322.548 107.554C322.548 107.554 322.414 107.487 322.414 107.219C322.414 107.085 322.481 106.951 322.615 106.816C322.75 106.682 322.951 106.615 323.152 106.615C323.621 106.615 324.024 107.018 324.292 107.42C324.56 107.889 324.761 108.426 324.761 109.03C324.829 110.237 324.292 111.377 323.42 111.712C323.018 111.846 322.682 111.779 322.481 111.645C322.414 111.578 322.347 111.444 322.347 111.444Z" fill="#B5694A"/>
<path d="M308.8 105.674C308.532 106.009 307.66 105.875 306.52 105.808C305.38 105.741 304.508 105.741 304.307 105.405C304.039 105.07 305.179 104.198 306.654 104.332C308.13 104.399 309.068 105.338 308.8 105.674Z" fill="#263238"/>
<path d="M295.991 105.471C295.924 105.874 295.186 106.075 294.314 106.142C293.51 106.209 292.705 106.142 292.571 105.74C292.437 105.337 293.107 104.734 294.18 104.667C295.253 104.6 296.058 105.069 295.991 105.471Z" fill="#263238"/>
<path d="M290.492 98.7624C290.492 98.7624 295.32 101.11 301.624 97.9576C305.782 95.8786 310.544 94.8727 311.617 95.7445C312.69 96.5493 312.891 100.841 316.982 102.049C316.982 102.049 316.714 110.163 319.933 109.895C323.152 109.627 321.14 97.0187 321.14 97.0187L313.226 93.1291L304.575 91.5195L296.393 92.6596L290.089 94.4033L290.492 98.7624Z" fill="#263238"/>
<path d="M261.521 112.711C261.789 113.18 271.111 145.505 271.111 145.505L252.601 148.053L244.084 121.697L261.521 112.711Z" fill="#455A64"/>
<path d="M271.111 145.439L272.787 144.567L263.13 111.84L261.319 112.779L271.111 145.439Z" fill="#263238"/>
<path d="M253.167 122.202C253.602 122.108 253.878 121.681 253.785 121.246C253.692 120.811 253.264 120.535 252.829 120.628C252.395 120.721 252.118 121.149 252.211 121.584C252.305 122.018 252.732 122.295 253.167 122.202Z" fill="#E51937"/>
<path d="M267.623 160.195L255.485 168.109L253.272 139.808L253.473 138.4L261.655 135.315L259.307 129.279C258.167 126.463 254.814 125.188 252.132 126.597C251.26 127.066 250.321 127.536 249.516 127.938C247.638 128.877 246.23 130.62 245.693 132.632C244.755 136.12 243.95 139.942 244.017 139.607L238.786 176.023C238.786 176.023 236.304 186.551 243.48 191.514C248.912 195.27 258.033 191.313 262.862 188.563L283.853 175.888L267.623 160.195Z" fill="#B5694A"/>
<path d="M551.148 136.609C578.681 134.872 599.591 111.144 597.853 83.6116C596.116 56.0794 572.388 35.1688 544.856 36.9065C517.324 38.6441 496.413 62.372 498.151 89.9041C499.888 117.436 523.616 138.347 551.148 136.609Z" fill="#303030"/>
<path d="M566.776 17.8867C567 22.149 567.299 23.4202 568.944 26.86C569.917 28.879 571.188 30.7484 571.711 32.917C572.235 34.936 571.936 37.1793 572.309 39.1983C572.908 42.5633 575.151 45.4048 576.871 48.3959C578.591 51.387 579.712 55.2006 577.992 58.2665L560.719 56.2475L559.522 34.7864L566.776 17.8867Z" fill="#263238"/>
<path d="M532.379 10.6367C530.135 15.4225 533.276 20.1334 531.033 24.9192C529.911 27.2373 528.789 29.6302 528.191 32.1726C527.668 34.4907 527.518 36.8836 526.621 39.0521C525.125 42.4919 521.76 44.81 520.19 48.175C517.872 53.1851 520.339 59.5411 524.751 62.8313C529.163 66.1963 535.071 67.0189 540.529 66.645C543.894 66.4206 547.259 65.7476 550.176 64.0278C553.092 62.3079 555.335 59.3916 555.709 56.0266" fill="#263238"/>
<path d="M558.027 2.18555C569.169 7.12085 571.338 25.4413 571.412 27.8342C571.487 30.7505 573.057 31.3487 575.002 32.919C576.946 34.4894 578.815 36.284 579.413 38.6769C579.862 40.5463 579.413 42.6401 580.311 44.36C581.358 46.379 583.9 47.1268 585.919 48.398C589.658 50.7909 591.453 55.2775 591.677 59.6146C591.901 63.9517 590.705 68.214 589.508 72.4015C589.06 74.0466 588.462 75.8413 586.966 76.7386C585.844 77.4116 584.349 77.4116 583.003 77.4116C575.974 77.262 568.945 77.1125 561.841 76.9629C556.457 76.8134 550.923 76.6638 545.913 74.7196C541.875 73.0745 538.286 70.233 536.117 66.4941C533.949 62.7552 533.201 58.2686 534.323 54.1558C535.22 51.0152 537.164 48.0989 537.688 44.8834C538.361 40.8455 534.996 39.1256 533.799 35.2372C532.603 31.3487 531.556 22.0016 533.276 18.2627" fill="#263238"/>
<path d="M570.739 102.983L567.3 91.8409L566.776 108.89C566.776 108.89 571.263 120.481 574.703 129.379C567.823 133.492 559.897 136.109 551.297 136.633C540.679 137.306 530.509 134.688 521.91 129.753L527.294 110.535L524.751 88.775L517.722 98.8699L502.617 84.2884C502.617 84.2884 513.684 63.8741 515.03 62.0795C523.779 50.1899 538.809 50.489 538.809 50.489L560.121 51.6854C560.121 51.6854 572.085 51.0124 580.012 60.5091C580.012 60.5091 587.714 72.2492 593.995 101.263L570.739 102.983Z" fill="#E51937"/>
<path d="M581.433 63.6537C581.433 63.6537 581.358 63.6537 581.134 63.7285C580.91 63.7285 580.61 63.8032 580.237 63.878C579.414 64.0276 578.292 64.2519 576.872 64.8501C575.451 65.4483 573.806 66.4204 572.235 67.916C571.413 68.6638 570.665 69.5611 569.992 70.608C569.319 71.6549 568.721 72.8513 568.422 74.1973C568.272 74.8703 568.272 75.5433 568.496 76.2163C568.721 76.8893 569.095 77.4875 569.693 77.9362C570.291 78.3848 571.039 78.5344 571.787 78.2353C572.46 78.0109 572.983 77.3379 573.207 76.5902C573.432 75.8424 573.432 75.0198 573.058 74.2721C572.684 73.5243 572.161 72.9261 571.413 72.4026C569.992 71.3557 568.272 70.7575 566.478 70.5332C564.683 70.3089 562.739 70.5332 560.869 71.0566C559 71.5801 557.13 72.2531 555.41 73.3C553.691 74.3468 552.12 75.6928 550.924 77.4127C550.326 78.2353 549.877 79.2074 549.877 80.2543C549.877 80.7777 549.952 81.2264 550.251 81.675C550.55 82.1237 550.924 82.4228 551.372 82.7219C551.896 82.8715 552.419 83.021 552.868 82.7967C553.317 82.5724 553.691 82.1237 553.99 81.675C554.513 80.6281 554.588 79.4317 554.588 78.2353C554.588 77.0388 554.438 75.9172 554.064 74.7955C553.691 73.7486 553.018 72.7765 552.195 71.954C550.55 70.3836 548.381 69.4863 546.213 69.262C544.044 69.0376 541.801 69.3368 539.782 70.0098C537.763 70.608 535.744 71.4305 534.398 73.0009C533.8 73.7486 533.351 74.7207 533.426 75.6928C533.501 76.6649 534.024 77.5623 534.697 78.1605C535.071 78.4596 535.445 78.6839 535.894 78.6839C536.342 78.7587 536.791 78.6092 537.165 78.3848C537.913 77.9362 538.286 76.964 538.361 76.1415C538.436 75.2442 538.361 74.3468 538.062 73.5243C537.913 73.0756 537.763 72.7017 537.613 72.3279C537.539 72.1035 537.464 71.954 537.389 71.7296L537.09 71.2062C536.342 69.7106 535.295 68.4394 534.174 67.3178C531.93 65.1492 529.388 63.8032 527.07 63.0555C524.752 62.3077 522.583 62.0834 520.863 62.2329C519.143 62.3825 517.797 62.6816 516.975 62.9807C516.526 63.1302 516.227 63.2798 516.003 63.3546C515.778 63.4294 515.629 63.4293 515.629 63.4293C515.629 63.4293 515.704 63.3546 515.928 63.2798C516.152 63.205 516.451 63.0555 516.9 62.9059C517.797 62.6068 519.069 62.2329 520.863 62.0833C522.583 61.9338 524.752 62.1581 527.145 62.8311C529.537 63.5789 532.08 64.9249 534.398 67.0934C535.52 68.2151 536.567 69.4863 537.389 70.9819L537.688 71.5801C537.763 71.8044 537.838 71.954 537.913 72.1783C538.062 72.5522 538.286 73.0009 538.361 73.4495C538.66 74.3468 538.735 75.2442 538.66 76.1415C538.586 77.0388 538.212 78.0857 537.314 78.6839C536.866 78.983 536.342 79.0578 535.819 79.0578C535.295 78.983 534.847 78.7587 534.398 78.4596C533.575 77.7866 533.052 76.8145 532.977 75.7676C532.902 75.2442 532.977 74.7207 533.202 74.1973C533.426 73.6739 533.65 73.2252 534.024 72.8513C535.445 71.2062 537.464 70.3836 539.558 69.7106C541.651 69.1124 543.895 68.7385 546.138 68.9629C548.381 69.1872 550.699 70.1593 552.345 71.8044C553.167 72.627 553.915 73.5991 554.364 74.7207C554.812 75.8424 554.962 77.0388 554.962 78.2353C554.962 79.4317 554.812 80.7029 554.289 81.8246C553.99 82.348 553.616 82.8715 553.018 83.1706C552.419 83.3949 551.746 83.3201 551.223 83.0958C550.774 82.7967 550.326 82.4228 550.027 81.8994C549.727 81.3759 549.578 80.8525 549.578 80.2543C549.578 79.1326 550.101 78.0857 550.699 77.1884C551.971 75.3937 553.616 74.0477 555.336 73.0009C557.056 71.8792 559 71.2062 560.869 70.6827C562.739 70.1593 564.683 69.935 566.627 70.1593C568.496 70.3836 570.291 70.9819 571.712 72.1035C572.46 72.627 573.058 73.3 573.432 74.1225C573.806 74.9451 573.88 75.8424 573.581 76.6649C573.357 77.4875 572.759 78.2353 571.936 78.5344C571.114 78.8335 570.216 78.6091 569.618 78.1605C568.945 77.7118 568.497 77.0388 568.272 76.2911C568.048 75.5433 568.048 74.7955 568.197 74.1225C568.497 72.7017 569.17 71.5053 569.768 70.4584C570.441 69.4115 571.263 68.5142 572.011 67.7664C573.656 66.2709 575.301 65.2988 576.722 64.7006C578.143 64.1023 579.339 63.878 580.162 63.8032C580.984 63.6537 581.433 63.6537 581.433 63.6537Z" fill="#FAFAFA"/>
<path d="M590.48 88.0293C590.48 88.1041 589.733 88.2536 588.536 88.9266C587.34 89.5996 585.77 90.9456 584.723 93.1889C584.424 93.7124 584.274 94.3854 584.124 94.9836C583.975 95.6566 583.9 96.3296 584.124 97.0026C584.199 97.3017 584.424 97.6756 584.648 97.8251C584.947 97.9747 585.246 98.0495 585.62 97.8999C586.293 97.6008 586.667 96.853 586.742 96.1052C586.966 94.5349 585.994 92.815 584.498 92.0673C582.928 91.3195 580.909 91.5438 579.413 92.5159C577.843 93.5628 576.946 95.2079 576.572 96.9278C576.348 97.7504 576.348 98.6477 576.796 99.3207C577.17 99.9937 578.067 100.442 578.74 100.068C579.413 99.7693 579.862 99.0216 579.862 98.2738C579.862 97.526 579.563 96.853 579.189 96.2548C578.441 95.0584 577.32 94.2358 576.123 93.7872C575.002 93.3385 573.805 93.3385 572.908 93.5628C571.936 93.7871 571.188 94.161 570.664 94.6097C569.543 95.4322 569.244 96.18 569.169 96.1052C569.169 96.1052 569.169 96.0305 569.244 95.9557C569.319 95.8809 569.393 95.7314 569.468 95.5818C569.692 95.2827 569.992 94.834 570.59 94.3854C571.113 93.9367 571.936 93.488 572.908 93.2637C573.88 93.0394 575.076 92.9646 576.273 93.4133C577.469 93.8619 578.666 94.6845 579.488 95.9557C579.862 96.5539 580.236 97.3765 580.236 98.199C580.236 99.0216 579.787 99.9189 578.965 100.293C578.516 100.517 578.067 100.517 577.619 100.293C577.17 100.143 576.871 99.7693 576.572 99.3955C576.048 98.5729 576.123 97.6008 576.348 96.7035C576.721 94.9088 577.768 93.1889 579.413 92.0673C581.059 90.9456 583.227 90.7213 584.872 91.5438C586.592 92.3664 587.564 94.2358 587.34 95.9557C587.265 96.7782 586.816 97.6756 585.994 97.9747C585.545 98.1242 585.097 98.0495 584.723 97.8251C584.349 97.6008 584.199 97.2269 584.05 96.853C583.825 96.1052 583.9 95.3575 584.05 94.6845C584.199 94.0115 584.424 93.4133 584.723 92.815C585.844 90.4969 587.489 89.2257 588.686 88.5527C589.658 88.1041 590.48 88.0293 590.48 88.0293Z" fill="#FAFAFA"/>
<path d="M566.85 98.7274C566.85 98.7274 566.776 98.7274 566.701 98.7274C566.551 98.7274 566.402 98.6527 566.177 98.5779C565.729 98.5031 564.981 98.3535 564.084 98.204C562.289 97.9797 559.522 98.0544 556.531 99.2509C555.783 99.55 555.035 99.9239 554.288 100.373C553.54 100.821 552.792 101.419 552.343 102.242C551.82 102.99 551.596 104.037 551.97 104.934C552.119 105.383 552.418 105.831 552.792 106.13C553.166 106.43 553.689 106.504 554.213 106.43C555.185 106.205 556.008 105.308 556.157 104.261C556.307 103.214 555.933 102.092 555.26 101.12C553.989 99.1761 551.97 97.6806 549.577 97.0823C547.184 96.4841 544.641 96.9328 542.697 98.1292C541.725 98.7274 540.828 99.4752 540.155 100.373C539.856 100.821 539.631 101.345 539.482 101.868C539.332 102.392 539.332 102.915 539.631 103.364C539.856 103.812 540.304 104.111 540.753 104.111C541.202 104.111 541.725 103.962 542.099 103.738C542.922 103.214 543.221 102.167 543.071 101.27C542.996 100.373 542.622 99.4752 542.174 98.7274C541.725 97.9797 541.202 97.3067 540.603 96.7084C539.407 95.5868 538.061 94.9138 536.865 94.4651C535.668 94.0165 534.546 93.9417 533.574 93.9417C531.78 93.9417 530.808 94.4651 530.808 94.3904C530.808 94.3904 530.882 94.3903 530.957 94.3156C531.107 94.2408 531.256 94.2408 531.481 94.166C531.929 94.0165 532.677 93.8669 533.574 93.7921C534.472 93.7174 535.668 93.8669 536.865 94.2408C538.136 94.6147 539.482 95.3625 540.678 96.4841C541.276 97.0823 541.875 97.7553 542.323 98.5031C542.772 99.3257 543.146 100.148 543.221 101.195C543.295 101.719 543.221 102.242 543.071 102.691C542.922 103.214 542.548 103.663 542.099 103.962C541.65 104.261 541.127 104.485 540.529 104.411C539.93 104.336 539.407 104.037 539.108 103.438C538.809 102.915 538.809 102.242 538.958 101.719C539.108 101.12 539.332 100.597 539.706 100.148C540.379 99.1761 541.351 98.4283 542.398 97.8301C544.492 96.6337 547.109 96.1102 549.577 96.7084C552.044 97.3067 554.213 98.877 555.484 100.896C556.157 101.943 556.531 103.139 556.381 104.336C556.232 105.532 555.335 106.579 554.138 106.803C553.54 106.953 552.942 106.803 552.493 106.43C552.044 106.13 551.745 105.607 551.521 105.084C551.371 104.56 551.297 104.037 551.371 103.513C551.446 102.99 551.67 102.541 551.97 102.092C552.493 101.27 553.316 100.672 554.063 100.148C554.811 99.6995 555.634 99.3257 556.381 99.0265C559.447 97.8301 562.289 97.8301 564.084 98.0544C565.953 98.3535 566.85 98.7274 566.85 98.7274Z" fill="#FAFAFA"/>
<path d="M483.324 36.4353C484.895 36.51 484.446 44.9599 485.568 43.1652C486.689 41.3706 484.895 32.7712 486.54 32.9207C488.634 33.145 488.035 41.9688 488.035 42.7165C488.035 43.4643 489.157 43.4643 489.082 42.7913C489.008 41.8192 488.708 31.5747 490.802 31.7243C491.924 31.7991 491.55 33.8928 491.55 33.8928C491.55 33.8928 491.176 43.5391 492.148 43.5391C493.12 43.6139 493.569 37.9308 493.569 36.0614C493.569 34.1919 494.466 33.3694 495.289 34.0424C495.887 34.491 495.962 40.3237 495.887 42.2679C495.812 44.1373 495.588 49.3717 497.756 46.8293C499.925 44.2869 502.542 43.1652 503.44 43.3895C504.337 43.5391 504.412 44.8851 503.44 45.3338C502.692 45.7076 501.57 46.6798 500.822 47.4275C500.149 48.0257 499.701 48.8483 499.177 49.5961C498.654 50.4186 498.429 50.9421 498.056 52.2881L500.972 87.5082L503.14 84.8162L515.479 96.7058L509.048 104.109C504.337 109.493 495.812 109.867 491.026 104.557C490.877 104.333 490.653 104.184 490.503 103.959C489.307 102.464 488.634 100.519 488.484 98.5752L484.446 52.8863C484.371 47.8014 482.951 43.913 482.726 41.2958C482.278 36.4353 482.726 36.4353 483.324 36.4353Z" fill="#B5694A"/>
<path d="M540.304 55.2781C540.379 49.9689 540.304 44.3606 540.304 44.3606C540.304 44.3606 533.499 43.1642 532.153 34.1909C530.882 25.6663 533.051 7.27103 533.051 7.27103C542.921 3.38261 554.138 4.87815 561.018 12.8793L559.971 56.0259C559.821 61.036 555.409 64.9244 550.1 64.7748C544.567 64.5505 540.229 60.363 540.304 55.2781Z" fill="#B5694A"/>
<path d="M534.846 21.4043C534.846 22.0025 535.294 22.526 535.967 22.6007C536.566 22.6755 537.164 22.1521 537.164 21.5539C537.164 20.9556 536.715 20.4322 536.042 20.3574C535.444 20.3574 534.846 20.8061 534.846 21.4043Z" fill="#263238"/>
<path d="M532.976 20.0631C533.125 20.2126 534.022 19.6144 535.219 19.6144C536.415 19.6144 537.313 20.2874 537.462 20.1378C537.537 20.0631 537.387 19.764 537.014 19.5396C536.64 19.2405 535.967 18.9414 535.219 18.9414C534.471 18.9414 533.798 19.2405 533.424 19.4649C533.05 19.764 532.976 19.9883 532.976 20.0631Z" fill="#263238"/>
<path d="M547.484 21.7767C547.484 22.3749 547.933 22.8983 548.606 22.9731C549.204 23.0479 549.802 22.5245 549.802 21.9262C549.802 21.328 549.353 20.8046 548.68 20.7298C548.007 20.655 547.484 21.1785 547.484 21.7767Z" fill="#263238"/>
<path d="M545.838 20.6549C545.988 20.8044 546.885 20.2062 548.082 20.2062C549.278 20.2062 550.175 20.8792 550.325 20.7296C550.4 20.6549 550.25 20.3558 549.876 20.1314C549.502 19.8323 548.829 19.5332 548.082 19.5332C547.334 19.5332 546.661 19.8323 546.287 20.0566C545.913 20.3558 545.838 20.5801 545.838 20.6549Z" fill="#263238"/>
<path d="M541.277 29.7792C541.277 29.7044 540.529 29.5548 539.258 29.4053C538.959 29.4053 538.66 29.3305 538.585 29.1062C538.51 28.8819 538.66 28.508 538.809 28.2089C539.108 27.4611 539.407 26.6385 539.781 25.816C541.127 22.451 542.099 19.6095 541.95 19.5347C541.8 19.4599 540.604 22.2267 539.258 25.5917C538.959 26.4142 538.66 27.2368 538.36 27.9845C538.211 28.3584 538.061 28.7323 538.211 29.181C538.286 29.4053 538.51 29.5549 538.734 29.6296C538.959 29.7044 539.108 29.7044 539.258 29.7044C540.529 29.854 541.277 29.854 541.277 29.7792Z" fill="#263238"/>
<path d="M540.305 44.3627C540.305 44.3627 546.287 44.8114 552.344 41.2969C552.344 41.2969 549.353 47.4286 540.455 46.4565L540.305 44.3627Z" fill="#99583E"/>
<path d="M541.8 32.7694C542.249 32.1712 542.997 31.8721 543.819 31.9468C544.343 32.0216 544.866 32.2459 545.24 32.6946C545.539 33.1433 545.614 33.7415 545.315 34.1902C544.941 34.6388 544.268 34.7884 543.67 34.564C543.071 34.4145 542.548 33.9658 542.099 33.5919C541.95 33.5172 541.8 33.3676 541.725 33.2181C541.651 33.0685 541.651 32.9189 541.8 32.7694Z" fill="#99583E"/>
<path d="M544.941 30.6758C544.716 30.6758 544.716 32.0218 543.595 32.9191C542.473 33.8912 541.052 33.6669 540.978 33.8912C540.978 33.966 541.277 34.1903 541.875 34.1903C542.473 34.1903 543.296 34.0408 544.043 33.4426C544.716 32.8443 545.09 32.0966 545.09 31.5731C545.165 30.9749 545.016 30.6758 544.941 30.6758Z" fill="#263238"/>
<path d="M557.129 6.5222C553.839 11.1584 545.24 15.9442 539.033 17.0658C539.781 16.0937 543.595 13.7756 544.268 12.8035C541.426 14.8973 537.463 17.7388 533.724 17.8884C533.275 17.8884 532.827 17.8884 532.453 17.664C531.929 17.3649 531.855 16.7667 531.78 16.2433C531.556 14.0747 531.705 10.3359 532.004 8.16731C532.378 5.99877 533.35 3.83022 535.22 2.40945C537.613 0.540014 541.052 0.0913517 544.268 0.0165743C546.96 -0.058203 549.726 0.0913529 552.194 1.06346C554.662 2.03556 556.756 3.97978 557.129 6.29788" fill="#263238"/>
<path d="M566.477 27.3871C566.925 25.069 567.299 22.9004 567.374 21.4049C567.673 16.7687 566.327 -0.205778 550.399 1.14021L554.213 6.00074C554.213 6.00074 551.072 16.32 557.728 23.4239C557.728 23.4239 558.101 27.6114 562.738 32.3972C562.812 32.3972 565.504 32.3224 566.477 27.3871Z" fill="#263238"/>
<path d="M557.578 22.6716C558.55 22.522 559.522 22.522 560.42 22.8959C561.317 23.2698 562.139 23.9428 562.513 24.8401C562.887 25.7374 562.812 26.7843 562.513 27.6816C562.139 28.579 561.541 29.4015 560.868 30.0745C560.345 30.5232 559.821 30.9719 559.148 31.1962C558.475 31.4205 557.728 31.3457 557.129 30.8971" fill="#99583E"/>
<path d="M558.027 28.5106C557.952 28.5106 558.326 29.1089 559.223 28.8845C559.672 28.8098 560.046 28.4359 560.345 27.9872C560.569 27.5385 560.794 27.0151 560.868 26.4169C560.943 25.8187 560.794 25.2204 560.495 24.697C560.195 24.2483 559.672 23.9492 559.223 23.9492C558.326 23.9492 558.027 24.5474 558.176 24.5474C558.251 24.6222 558.625 24.3231 559.223 24.4727C559.822 24.5474 560.345 25.37 560.195 26.3421C560.046 27.3142 559.672 28.2115 559.149 28.4359C558.476 28.6602 558.102 28.4359 558.027 28.5106Z" fill="#B5694A"/>
<path d="M568.795 114.129V110.016H540.081L531.631 73.0762L488.634 73.4501L499.028 114.129H568.795Z" fill="#263238"/>
<path d="M512.891 96.276C514.384 95.7909 515.076 93.8057 514.438 91.842C513.799 89.8783 512.072 88.6796 510.58 89.1647C509.087 89.6497 508.395 91.6349 509.033 93.5986C509.671 95.5624 511.399 96.7611 512.891 96.276Z" fill="#E51937"/>
<path d="M529.686 113.827C528.939 112.481 528.34 110.986 527.892 109.49C527.817 109.116 527.667 108.743 527.742 108.369C527.817 107.995 528.041 107.621 528.415 107.546C529.088 107.397 529.537 108.219 529.761 108.892C530.733 111.285 532.902 113.08 535.369 113.603L537.089 113.528V113.454L574.702 110.089L572.908 102.611L592.798 101.115L594.593 108.443C595.565 117.641 588.162 125.493 578.965 125.194H535.818C522.134 126.091 519.517 113.977 519.517 113.977L529.686 113.827Z" fill="#B5694A"/>
</svg>
