<svg width="1560" height="538" viewBox="0 0 1560 538" fill="none" xmlns="http://www.w3.org/2000/svg">
<path d="M808.325 507.128L139.626 195.055H1425.01L808.325 507.128Z" stroke="#303030" stroke-width="3.25403" stroke-dasharray="6.51 6.51"/>
<path d="M284.248 219.695C285.758 141.965 223.962 77.7245 146.224 76.2104C68.4862 74.6963 4.24321 136.482 2.73353 214.212C1.22384 291.942 63.0191 356.182 140.757 357.697C218.495 359.211 282.738 297.425 284.248 219.695Z" fill="white" fill-opacity="0.1"/>
<path d="M275.901 264.354L250.473 225.699L207.679 252.572L246.545 312.312C246.545 312.312 267.839 289.16 275.901 264.354Z" fill="#99583E"/>
<path d="M116.924 71.2851C118.991 69.0113 116.097 65.2904 113.203 64.2569C110.308 63.2233 106.587 62.6032 105.14 59.9159C103.486 56.6085 106.38 52.681 107.001 48.9601C107.621 45.0326 105.347 41.1051 104.52 37.1775C103.693 32.0097 105.553 26.6352 109.481 23.3278C113.409 20.0204 119.198 18.9869 123.953 20.6406C124.366 12.7855 129.741 5.55055 137.184 3.07C144.626 0.589454 153.309 3.07 158.27 9.27137C162.198 6.3774 166.126 3.27671 170.468 1.62301C175.016 -0.237396 180.184 -0.650823 184.526 1.20959C188.867 3.07 192.175 8.03109 191.348 12.7855C194.656 8.85794 200.858 8.0311 205.612 10.3049C210.367 12.5788 213.468 17.3332 214.915 22.2943C216.776 29.3225 215.122 37.591 209.54 42.1386C203.959 46.6863 194.449 46.2729 190.314 40.2782" fill="#263238"/>
<path d="M144.419 189.943C159.717 189.943 172.535 177.953 173.155 162.863C173.775 150.254 174.395 138.058 174.395 138.058C174.395 138.058 197.963 136.404 200.03 113.252C202.097 90.3072 202.511 36.9754 202.511 36.9754C176.462 23.3324 145.246 24.7794 120.644 40.4895L118.37 41.9365L115.683 161.003C115.476 176.92 128.294 189.943 144.419 189.943Z" fill="#B5694A"/>
<path d="M157.858 72.5257C159.719 73.1458 160.546 75.0062 159.925 76.8666C159.305 78.727 157.445 79.5539 155.584 78.9337C153.723 78.3136 152.896 76.4532 153.517 74.5928C154.137 72.9391 155.997 71.9055 157.858 72.5257Z" fill="#263238"/>
<path d="M164.265 73.7677C163.851 74.1811 161.784 72.3207 158.476 72.114C155.375 71.9073 152.895 73.3543 152.481 72.9408C152.274 72.7341 152.688 72.114 153.722 71.2871C154.755 70.667 156.616 70.0469 158.476 70.0469C160.544 70.2536 162.198 71.0804 163.025 71.9073C164.265 72.7341 164.472 73.561 164.265 73.7677Z" fill="#263238"/>
<path d="M193.001 72.5257C194.862 73.1458 195.689 75.0062 195.068 76.8666C194.448 78.727 192.588 79.5539 190.727 78.9337C188.866 78.3136 188.039 76.4532 188.66 74.5928C189.28 72.9391 191.14 71.9055 193.001 72.5257Z" fill="#263238"/>
<path d="M199.824 73.7677C199.411 74.1811 197.343 72.3207 194.036 72.114C190.935 71.9073 188.454 73.3543 188.04 72.9408C187.834 72.7341 188.247 72.114 189.281 71.2871C190.315 70.667 192.175 70.0469 194.036 70.0469C196.103 70.2536 197.757 71.0804 198.584 71.9073C199.824 72.9408 200.031 73.561 199.824 73.7677Z" fill="#263238"/>
<path d="M175.636 98.5629C175.636 98.3562 177.704 98.1495 180.805 97.9428C181.631 97.9428 182.252 97.7361 182.458 97.3227C182.665 96.9092 182.458 95.8757 182.045 94.8421C181.425 92.775 180.805 90.5011 179.978 88.2273C177.29 78.7185 175.43 71.0702 175.843 70.8635C176.256 70.6568 178.944 78.3051 181.632 87.8139C182.252 90.0877 182.872 92.3616 183.492 94.4287C183.699 95.4622 184.112 96.4958 183.699 97.9428C183.492 98.5629 182.665 98.9764 182.045 99.1831C181.425 99.3898 181.011 99.1831 180.598 99.1831C177.704 99.1831 175.636 98.7696 175.636 98.5629Z" fill="#263238"/>
<path d="M165.092 101.266C171.5 104.366 174.395 105.4 180.39 107.054C180.39 107.054 176.255 112.635 169.64 109.741C162.818 106.64 165.092 101.266 165.092 101.266Z" fill="#99583E"/>
<path d="M174.395 137.643C174.395 137.643 159.717 137.643 144.832 126.688C144.832 126.688 150.621 143.845 173.982 143.638L174.395 137.643Z" fill="#99583E"/>
<path d="M117.75 75.8348C117.75 73.9744 116.303 72.3207 114.442 72.3207C110.101 72.114 103.072 73.7677 102.038 85.5503C100.798 102.501 117.336 98.5732 117.336 98.1598C117.543 97.7463 117.543 82.4496 117.75 75.8348Z" fill="#99583E"/>
<path d="M113.821 91.3364C113.821 91.3364 113.408 91.5431 112.995 91.7498C112.581 91.9565 111.547 91.9565 110.72 91.5431C109.067 90.7162 107.619 87.8223 107.826 84.7216C107.826 83.2746 108.24 81.8276 109.067 80.5873C109.687 79.3471 110.514 78.5202 111.547 78.5202C112.374 78.3135 112.995 78.9336 113.201 79.5538C113.408 79.9672 113.201 80.3806 113.408 80.3806C113.408 80.3806 113.821 80.1739 113.615 79.3471C113.615 78.9336 113.408 78.5202 112.995 78.3135C112.581 77.9001 111.961 77.6934 111.341 77.6934C110.1 77.6934 108.653 78.7269 108.033 80.1739C107.206 81.4142 106.793 83.0679 106.586 84.7216C106.379 88.2357 108.033 91.5431 110.307 92.3699C111.547 92.7834 112.581 92.5766 112.995 92.1632C113.615 91.7498 113.821 91.3364 113.821 91.3364Z" fill="#B5694A"/>
<path d="M152.896 64.2607C153.516 65.2942 156.204 64.6741 159.511 64.6741C162.819 64.4674 165.3 64.4674 165.92 63.4338C166.54 62.4003 163.439 59.9197 159.304 60.3331C154.963 60.5398 152.069 63.2271 152.896 64.2607Z" fill="#263238"/>
<path d="M189.901 63.6375C190.108 64.8778 192.175 65.2912 194.656 65.4979C197.137 65.7046 199.204 65.4979 199.617 64.4644C200.031 63.4308 197.964 61.5704 194.863 61.3637C191.968 61.157 189.694 62.6039 189.901 63.6375Z" fill="#263238"/>
<path d="M205.819 44.4206C205.819 44.4206 191.761 51.2421 173.775 42.1468C161.785 36.1521 147.933 33.2581 144.832 35.7387C141.731 38.2192 141.111 50.4153 129.327 53.9294C129.327 53.9294 130.154 77.2879 120.851 76.461C111.548 75.6342 117.337 39.2528 117.337 39.2528L140.284 28.0903L165.299 23.3359L188.867 26.6433L207.059 31.6044L205.819 44.4206Z" fill="#263238"/>
<path d="M49.3208 180.021C73.7153 154.803 116.716 157.697 116.716 157.697L172.534 159.764C172.534 159.764 193.827 162.037 213.674 172.58L215.121 172.993V173.2C230.833 181.675 252.953 202.14 274.04 221.777L248.818 245.136L220.909 269.941C220.909 269.941 221.116 270.148 220.909 270.355C220.703 271.802 225.458 301.775 229.799 327.821C205.198 346.838 174.394 358.001 140.904 357.381C119.61 356.967 99.557 351.799 81.5712 342.911L79.5039 318.932C77.6433 297.227 76.1961 270.355 76.1961 270.355" fill="#E51937"/>
<path d="M194.861 163.895C194.861 163.895 195.067 164.308 195.274 164.928C195.481 165.755 195.894 166.789 196.308 168.029C197.135 170.716 198.375 174.437 199.822 179.191C202.717 188.7 206.438 201.723 209.952 216.399C213.467 231.076 216.154 244.512 217.808 254.228C218.635 259.189 219.255 263.116 219.669 265.804C219.875 267.044 220.082 268.078 220.082 268.904C220.082 269.525 220.289 269.938 220.082 269.938C219.875 269.938 219.876 269.525 219.876 268.904C219.669 268.078 219.462 267.044 219.255 265.804C218.635 262.91 218.015 258.982 216.981 254.435C215.121 244.719 212.226 231.489 208.712 216.813C205.197 202.136 201.476 189.113 198.789 179.605C197.342 175.057 196.308 171.129 195.481 168.442C195.068 167.202 194.861 166.168 194.654 165.342C195.068 164.308 194.861 163.895 194.861 163.895Z" fill="#263238"/>
<path d="M242.358 234.558C255.724 223.67 266.385 214.628 266.168 214.362C265.952 214.097 254.941 222.708 241.574 233.596C228.208 244.484 217.547 253.526 217.764 253.791C217.98 254.057 228.991 245.446 242.358 234.558Z" fill="#263238"/>
<path opacity="0.2" d="M81.5712 214.543L59.6575 286.479L67.7201 290.613L75.7827 270.355C75.7827 270.355 84.052 227.566 81.5712 214.543Z" fill="#101010"/>
<g opacity="0.2">
<path d="M192.587 164.102C204.37 170.303 174.808 185.186 161.577 184.773L171.293 159.141C171.086 159.141 188.659 162.035 192.587 164.102Z" fill="#101010"/>
</g>
<path d="M113.202 159.141V140.123C113.202 140.123 150.414 149.632 151.655 171.957C151.655 171.957 156.409 147.358 175.636 146.118L178.323 180.639L155.996 200.07H133.462L115.476 184.566L113.202 160.588" fill="#E51937"/>
<path d="M160.13 278.827C160.13 278.827 160.13 278.413 160.13 277.793C160.13 276.966 160.13 275.933 160.13 274.693C160.13 272.005 160.337 268.285 160.337 263.53C160.337 254.021 160.13 241.205 158.89 226.735C157.65 212.472 155.789 199.656 154.135 190.354C153.308 185.806 152.688 181.879 152.068 179.398C151.861 178.158 151.654 177.124 151.448 176.504C151.241 175.884 151.241 175.471 151.241 175.471C151.241 175.471 151.448 175.884 151.654 176.504C151.861 177.331 152.068 178.365 152.481 179.398C153.102 181.879 153.928 185.6 154.755 190.354C156.616 199.656 158.477 212.472 159.717 226.942C160.957 241.205 161.164 254.228 160.751 263.737C160.544 268.491 160.544 272.212 160.337 274.899C160.337 276.14 160.13 277.173 160.13 278C160.337 278.413 160.13 278.827 160.13 278.827Z" fill="#263238"/>
<path d="M150.001 165.551C150.001 165.551 149.174 165.138 147.727 165.758C147.107 165.965 146.28 166.585 145.659 167.412C145.039 168.238 144.419 169.272 144.006 170.512C141.732 175.473 138.837 182.502 136.977 191.183L136.77 191.804L136.15 191.39C133.876 190.15 131.602 188.496 129.328 187.049C124.986 183.948 120.851 180.848 117.337 177.954C115.476 176.507 114.029 174.646 113.202 172.579C112.375 170.512 111.962 168.652 111.962 166.791C111.755 163.277 112.375 160.383 112.789 158.523C113.202 156.662 113.409 155.629 113.616 155.629C113.616 155.629 113.616 156.662 113.202 158.73C112.996 160.59 112.582 163.484 112.789 166.998C112.996 168.652 113.202 170.512 114.029 172.373C114.856 174.233 116.303 175.887 117.957 177.334C121.472 180.228 125.606 183.328 129.948 186.429C132.222 187.876 134.496 189.323 136.77 190.77L135.943 191.183C138.01 182.502 140.905 175.473 143.385 170.512C144.006 169.272 144.626 168.238 145.246 167.412C145.866 166.585 146.9 165.965 147.52 165.758C149.381 164.931 150.208 165.551 150.001 165.551Z" fill="#263238"/>
<path d="M175.635 146.32C175.635 146.32 175.842 147.354 175.842 149.214C176.049 151.281 176.255 153.969 176.462 157.276C176.669 160.79 177.082 164.718 177.909 169.265C178.116 171.539 178.943 173.813 178.323 176.5C177.496 179.188 175.635 181.048 173.568 182.702C170.674 184.976 167.573 186.629 165.299 188.903L164.472 189.73V188.49C163.851 180.635 161.371 174.02 158.89 169.886C156.409 165.545 154.548 163.477 154.755 163.271C154.755 163.271 155.375 163.684 156.202 164.718C157.029 165.751 158.27 167.405 159.51 169.472C161.991 173.606 164.885 180.221 165.505 188.283L164.678 188.076C166.952 185.596 170.053 183.735 172.948 181.668C175.015 180.221 176.876 178.361 177.496 176.087C178.116 173.813 177.289 171.539 177.082 169.265C176.462 164.718 176.049 160.583 175.842 157.276C175.635 153.762 175.635 151.075 175.635 149.214C175.635 147.354 175.635 146.32 175.635 146.32Z" fill="#263238"/>
<path d="M295.335 151.076C293.888 152.937 239.104 226.113 239.104 226.113L246.753 230.454L302.984 158.104L295.335 151.076Z" fill="#455A64"/>
<path d="M75.3708 208.961C75.3708 208.961 133.049 291.852 136.357 293.506C143.179 296.813 221.945 228.598 229.594 222.19C230.628 220.743 232.695 217.849 237.036 212.061C237.036 212.061 243.238 183.535 249.854 185.809C256.469 188.083 246.133 200.279 250.474 211.028C254.815 221.777 274.662 196.144 275.282 193.664L280.45 187.049C280.45 187.049 285.825 202.139 285.412 208.547C284.171 228.805 264.945 252.99 264.945 252.99C264.945 252.99 178.737 359.861 119.612 363.168C102.66 364.202 72.2698 315.831 52.2167 279.656C40.0194 257.745 46.0147 230.252 66.2746 215.575L75.3708 208.961Z" fill="#B5694A"/>
<path d="M275.902 212.056C275.695 212.056 277.556 208.749 279.623 204.614C281.69 200.48 283.137 196.966 283.344 197.173C283.551 197.173 282.31 200.894 280.243 205.028C278.176 209.162 276.108 212.263 275.902 212.056Z" fill="#EB996E"/>
<path d="M65.655 168.438C65.655 168.438 3.84179 190.349 49.7366 294.325L121.06 251.329L110.93 226.937L65.655 168.438Z" fill="#E51937"/>
<path d="M60.9007 170.301C60.9007 170.301 61.1074 170.301 61.3141 170.301C61.7276 170.301 62.1411 170.301 62.7613 170.301C64.0017 170.301 65.8623 170.508 68.3431 171.128C70.6171 171.748 73.5114 172.782 76.4057 174.642C79.2999 176.503 82.4009 178.983 85.2952 182.084C91.2904 188.285 96.8723 196.967 102.041 207.096C107.209 217.225 112.171 228.801 117.132 240.79C118.579 244.511 120.026 248.025 121.474 251.332L121.68 251.746L121.267 251.953C100.593 263.115 82.6077 273.864 69.9969 281.719C63.5882 285.647 58.6266 288.954 55.1121 291.228C53.4583 292.262 52.0111 293.088 51.1842 293.915C50.3573 294.535 49.7371 294.742 49.7371 294.742C49.7371 294.742 50.1505 294.329 50.9775 293.709C51.8044 293.088 53.2515 292.055 54.9054 291.021C58.2131 288.747 63.3815 285.233 69.5835 281.306C82.1942 273.244 100.18 262.495 120.853 251.332L120.647 251.953C119.199 248.645 117.752 244.924 116.305 241.41C111.344 229.214 106.382 217.845 101.214 207.716C96.0453 197.587 90.6702 188.905 84.8817 182.704C81.9874 179.603 79.0932 177.123 76.1989 175.262C73.3047 173.402 70.6171 172.368 68.3431 171.748C63.5882 170.095 60.9007 170.301 60.9007 170.301Z" fill="#263238"/>
<path d="M936.803 408.824C934.018 478.795 882.491 536.582 812.513 537.974C742.535 539.367 684.742 483.668 683.349 413.697C681.957 343.726 737.835 279.151 807.639 284.546C881.969 290.29 939.24 345.118 936.803 408.824Z" fill="#303030"/>
<path d="M921.309 444.855L881.794 469.224L896.242 504.209C909.646 491.851 920.264 476.534 927.227 459.476L921.309 444.855Z" fill="#B5694A"/>
<path d="M932.101 445.551C927.053 433.367 909.471 392.986 894.675 377.843C872.741 355.215 833.923 358.349 833.923 358.349L783.615 360.089C783.615 360.089 764.467 362.178 746.537 371.577L745.318 371.925V372.099C731.218 379.758 711.374 398.034 692.399 415.788L715.029 436.849L740.096 459.128C740.096 459.128 739.922 459.302 740.096 459.65C740.444 461.043 736.092 488.021 732.089 511.345C754.196 528.403 782.048 538.498 812.163 537.802C831.311 537.454 849.415 532.754 865.604 524.922L867.519 503.339C869.26 483.844 870.478 459.65 870.478 459.65L877.615 477.926L930.012 450.599C931.057 449.033 931.579 447.292 932.101 445.551Z" fill="#E51937"/>
<path d="M835.49 356.438C835.49 356.438 835.664 356.786 835.664 357.308C835.838 357.83 835.838 358.874 836.012 359.919C836.186 362.181 836.012 365.663 834.793 369.492C833.575 373.321 830.964 377.847 826.786 381.502C822.608 385.157 816.69 387.594 810.423 387.942C804.156 388.29 797.889 386.375 793.538 383.068C789.012 379.761 786.226 375.584 784.486 371.929C782.919 368.099 782.397 364.792 782.223 362.355C782.223 361.137 782.223 360.267 782.223 359.745C782.223 359.222 782.397 358.874 782.397 358.874C782.571 358.874 782.397 360.093 782.571 362.355C782.745 364.618 783.267 367.925 785.008 371.581C786.749 375.236 789.534 379.239 793.886 382.372C798.238 385.505 804.156 387.246 810.249 386.898C816.341 386.549 822.086 384.287 826.09 380.806C830.093 377.324 832.704 372.973 833.923 369.144C835.316 365.314 835.49 362.007 835.49 359.745C835.664 357.656 835.316 356.438 835.49 356.438Z" fill="#263238"/>
<path d="M883.36 367.403C883.36 367.577 881.967 367.403 879.878 368.273C877.615 368.969 874.656 370.884 872.045 374.191C869.434 377.498 867.693 382.372 867.171 387.942C866.823 390.726 866.649 393.685 866.649 396.644C866.474 399.777 866.474 402.911 866.474 406.044C866.3 418.924 867.171 430.76 868.041 439.115C868.389 443.292 868.912 446.773 869.086 449.036C869.26 450.08 869.26 450.95 869.434 451.821C869.434 452.517 869.434 452.691 869.434 452.691C869.434 452.691 869.26 452.343 869.26 451.821C869.086 451.124 868.911 450.254 868.737 449.21C868.389 446.947 867.867 443.466 867.345 439.289C866.3 430.76 865.43 419.098 865.604 406.044C865.604 402.736 865.778 399.603 865.778 396.644C865.952 393.511 866.126 390.552 866.474 387.767C867.171 382.198 868.912 377.15 871.697 373.843C874.482 370.536 877.615 368.621 879.878 367.925C881.967 367.055 883.36 367.403 883.36 367.403Z" fill="#263238"/>
<path d="M763.596 364.094C763.596 364.094 763.596 364.442 763.422 365.138C763.247 365.834 762.899 366.705 762.725 367.923C762.029 370.36 760.984 373.841 759.766 378.018C757.329 386.547 754.021 398.383 750.888 411.437C747.755 424.666 745.144 436.676 743.577 445.379C742.707 449.73 742.01 453.211 741.662 455.648C741.488 456.866 741.314 457.737 741.14 458.433C740.966 459.129 740.966 459.477 740.966 459.477C740.966 459.477 740.966 459.129 740.966 458.433C741.14 457.737 741.14 456.692 741.314 455.648C741.662 453.211 742.184 449.556 743.055 445.205C744.621 436.502 747.058 424.492 750.192 411.263C753.325 398.035 756.807 386.199 759.418 377.844C760.81 373.667 761.855 370.186 762.725 367.749C763.073 366.705 763.422 365.834 763.596 364.964C763.596 364.442 763.596 364.094 763.596 364.094Z" fill="#263238"/>
<path d="M931.056 437.199C931.056 437.199 930.36 437.721 928.967 438.766C927.575 439.636 925.66 441.028 923.223 442.595C918.349 445.728 911.386 450.079 903.552 454.431C895.719 458.956 888.582 462.612 883.359 465.397C880.748 466.789 878.659 467.833 877.093 468.53C875.526 469.226 874.83 469.574 874.656 469.574C874.656 469.574 875.352 469.052 876.919 468.182C878.485 467.311 880.574 466.267 883.011 464.874C888.234 462.089 895.371 458.26 903.03 453.735C910.863 449.209 917.826 445.032 922.7 442.073C925.137 440.68 927.052 439.462 928.619 438.418C930.186 437.547 931.056 437.199 931.056 437.199Z" fill="#263238"/>
<path d="M742.996 444.736C743.178 444.513 733.598 436.407 721.597 426.632C709.597 416.857 699.721 409.114 699.539 409.337C699.357 409.561 708.937 417.667 720.938 427.442C732.938 437.217 742.814 444.96 742.996 444.736Z" fill="#263238"/>
<path opacity="0.2" d="M865.779 409.523L885.449 474.273L878.138 478.102L871.001 459.826C870.827 459.652 863.516 421.359 865.779 409.523Z" fill="#101010"/>
<g opacity="0.2">
<path d="M765.859 364.094C755.24 369.663 781.874 383.066 793.885 382.718L785.181 359.742C785.007 359.742 769.34 362.179 765.859 364.094Z" fill="#101010"/>
</g>
<path opacity="0.2" d="M833.574 457.905L770.559 458.253L774.737 434.929L838.1 433.711L833.574 457.905Z" fill="#B7142C"/>
<path d="M827.482 281.765C826.96 283.506 827.656 285.595 829.049 286.639C830.441 287.857 832.53 288.031 834.097 287.161C837.056 285.595 837.404 281.243 836.708 277.936C836.012 274.629 834.793 270.974 836.186 267.841C837.23 265.404 839.493 263.837 841.408 261.923C844.541 258.616 846.108 253.742 845.237 249.217C844.367 244.691 840.886 240.688 836.534 239.643C832.008 238.425 826.437 239.992 823.13 236.684C820.693 234.422 820.345 230.418 818.43 227.633C815.471 223.282 809.204 222.76 803.982 223.63C798.759 224.5 793.537 226.241 788.315 225.023C783.963 223.978 780.481 221.193 776.478 219.453C767.774 215.623 756.633 218.06 750.192 225.023C743.752 231.985 742.359 243.299 747.059 251.653C748.626 254.612 751.237 257.397 754.37 258.616" fill="#263238"/>
<path d="M809.204 387.425C795.452 387.425 783.963 376.634 783.267 363.057C782.744 351.569 782.222 340.604 782.222 340.604C782.222 340.604 760.985 339.037 759.07 318.324C757.155 297.612 756.807 249.746 756.807 249.746C780.133 237.562 808.333 238.78 830.615 252.879L832.704 254.097L835.141 361.317C835.315 375.763 823.652 387.425 809.204 387.425Z" fill="#B5694A"/>
<path d="M797.018 281.767C795.451 282.289 794.581 284.03 795.103 285.596C795.625 287.163 797.366 288.033 798.933 287.511C800.499 286.989 801.37 285.248 800.848 283.682C800.325 282.115 798.585 281.245 797.018 281.767Z" fill="#263238"/>
<path d="M791.273 282.817C791.622 283.166 793.536 281.425 796.496 281.251C799.455 281.077 801.544 282.469 801.892 281.947C802.066 281.773 801.718 281.077 800.673 280.555C799.803 279.858 798.236 279.336 796.322 279.51C794.581 279.684 793.014 280.381 792.144 281.251C791.447 281.947 791.099 282.643 791.273 282.817Z" fill="#263238"/>
<path d="M765.511 281.767C763.945 282.289 763.074 284.03 763.597 285.596C764.119 287.163 765.86 288.033 767.426 287.511C768.993 286.989 769.863 285.248 769.341 283.682C768.819 282.115 767.078 281.245 765.511 281.767Z" fill="#263238"/>
<path d="M759.245 282.817C759.593 283.166 761.508 281.425 764.467 281.251C767.426 281.077 769.515 282.469 769.863 281.947C770.037 281.773 769.689 281.077 768.645 280.555C767.774 279.858 766.208 279.336 764.293 279.51C762.552 279.684 760.986 280.381 760.115 281.251C759.419 282.121 759.071 282.643 759.245 282.817Z" fill="#263238"/>
<path d="M781.005 305.265C781.005 305.091 779.264 304.742 776.305 304.742C775.609 304.742 774.912 304.568 774.912 304.22C774.738 303.698 774.912 303.002 775.26 301.958C775.783 300.043 776.479 297.954 777.001 296.04C779.438 287.511 781.179 280.548 780.657 280.374C780.135 280.2 777.872 286.989 775.435 295.517C774.912 297.606 774.216 299.521 773.694 301.609C773.52 302.48 772.997 303.524 773.52 304.742C773.694 305.265 774.39 305.787 774.912 305.787C775.435 305.961 775.783 305.787 776.131 305.787C779.264 305.613 781.005 305.439 781.005 305.265Z" fill="#263238"/>
<path d="M790.578 307.707C784.834 310.492 782.049 311.362 776.826 312.929C776.826 312.929 780.656 317.976 786.4 315.366C792.493 312.407 790.578 307.707 790.578 307.707Z" fill="#99583E"/>
<path d="M782.224 340.433C782.224 340.433 795.453 340.433 808.857 330.512C808.857 330.512 803.635 346.003 782.572 345.829L782.224 340.433Z" fill="#A36957"/>
<path d="M833.226 275.334C833.226 273.593 834.445 272.201 836.185 272.201C840.015 272.027 846.456 273.419 847.326 284.037C848.545 299.354 833.574 295.699 833.574 295.351C833.4 295.002 833.226 281.252 833.226 275.334Z" fill="#99583E"/>
<path d="M836.708 289.261C836.708 289.261 837.056 289.435 837.404 289.609C837.927 289.783 838.623 289.783 839.493 289.435C841.06 288.738 842.278 286.128 842.104 283.343C842.104 281.95 841.582 280.732 841.06 279.513C840.538 278.469 839.667 277.773 838.971 277.599C838.101 277.425 837.578 277.947 837.404 278.469C837.23 278.991 837.404 279.165 837.23 279.165C837.23 279.165 836.882 278.991 836.882 278.295C836.882 277.947 837.056 277.599 837.404 277.251C837.752 276.903 838.275 276.729 838.797 276.729C840.015 276.729 841.06 277.773 841.756 278.817C842.452 280.036 842.975 281.428 842.975 282.995C843.149 286.128 841.756 289.087 839.493 289.957C838.449 290.305 837.578 290.131 837.056 289.783C836.882 289.609 836.708 289.261 836.708 289.261Z" fill="#B5694A"/>
<path d="M801.544 274.283C800.848 275.153 798.585 274.805 795.626 274.631C792.667 274.457 790.404 274.457 789.881 273.587C789.185 272.716 792.144 270.454 795.974 270.802C799.804 270.976 802.241 273.413 801.544 274.283Z" fill="#263238"/>
<path d="M768.296 273.754C768.122 274.798 766.207 275.32 763.944 275.494C761.855 275.669 759.766 275.494 759.418 274.45C759.07 273.406 760.811 271.839 763.596 271.665C766.381 271.491 768.47 272.71 768.296 273.754Z" fill="#263238"/>
<path d="M754.021 256.349C754.021 256.349 766.554 262.441 782.918 254.26C793.71 248.864 806.07 246.254 808.855 248.516C811.64 250.605 812.162 261.745 822.781 264.878C822.781 264.878 822.084 285.939 830.44 285.243C838.796 284.546 833.573 251.823 833.573 251.823L813.033 241.728L790.577 237.551L769.34 240.51L752.977 245.035L754.021 256.349Z" fill="#263238"/>
<path d="M678.824 292.551C679.52 293.769 703.716 377.665 703.716 377.665L655.672 384.279L633.564 315.875L678.824 292.551Z" fill="#455A64"/>
<path d="M703.716 377.49L708.068 375.227L683.001 290.287L678.301 292.724L703.716 377.49Z" fill="#263238"/>
<path d="M657.139 317.179C658.267 316.937 658.986 315.827 658.743 314.699C658.501 313.571 657.391 312.853 656.263 313.095C655.135 313.337 654.417 314.447 654.659 315.575C654.901 316.703 656.011 317.421 657.139 317.179Z" fill="#E51937"/>
<path d="M694.664 415.789L663.156 436.327L657.411 362.875L657.934 359.22L679.171 351.213L673.078 335.548C670.119 328.238 661.415 324.93 654.452 328.586C652.189 329.804 649.752 331.023 647.663 332.067C642.789 334.504 639.134 339.029 637.741 344.251C635.304 353.302 633.215 363.223 633.389 362.353L619.811 456.866C619.811 456.866 613.37 484.193 631.996 497.073C646.097 506.821 669.771 496.551 682.304 489.415L736.79 456.518L694.664 415.789Z" fill="#B5694A"/>
<path d="M1430.6 354.559C1502.07 350.049 1556.34 288.465 1551.83 217.008C1547.32 145.551 1485.73 91.2793 1414.27 95.7892C1342.8 100.299 1288.53 161.883 1293.04 233.34C1297.55 304.797 1359.14 359.069 1430.6 354.559Z" fill="#303030"/>
<path d="M1471.17 46.4297C1471.75 57.4921 1472.52 60.7915 1476.79 69.7191C1479.32 74.9592 1482.62 79.8111 1483.98 85.4394C1485.33 90.6795 1484.56 96.5018 1485.53 101.742C1487.08 110.475 1492.9 117.85 1497.37 125.614C1501.83 133.377 1504.74 143.275 1500.28 151.232L1455.44 145.992L1452.34 90.2913L1471.17 46.4297Z" fill="#263238"/>
<path d="M1381.88 27.6094C1376.06 40.0304 1384.21 52.2573 1378.39 64.6783C1375.48 70.6947 1372.56 76.9052 1371.01 83.5039C1369.65 89.5203 1369.26 95.7308 1366.94 101.359C1363.05 110.287 1354.32 116.303 1350.24 125.037C1344.23 138.04 1350.63 154.536 1362.08 163.076C1373.53 171.809 1388.87 173.944 1403.04 172.974C1411.77 172.392 1420.51 170.645 1428.08 166.181C1435.65 161.717 1441.47 154.148 1442.44 145.415" fill="#263238"/>
<path d="M1448.46 5.67773C1477.38 18.4869 1483.01 66.036 1483.2 72.2465C1483.39 79.8156 1487.47 81.3682 1492.52 85.4438C1497.56 89.5195 1502.42 94.1774 1503.97 100.388C1505.13 105.24 1503.97 110.674 1506.3 115.138C1509.01 120.378 1515.61 122.319 1520.85 125.618C1530.56 131.829 1535.22 143.473 1535.8 154.73C1536.38 165.986 1533.28 177.049 1530.17 187.917C1529.01 192.187 1527.45 196.845 1523.57 199.174C1520.66 200.92 1516.78 200.92 1513.29 200.92C1495.04 200.532 1476.79 200.144 1458.36 199.756C1444.38 199.368 1430.02 198.98 1417.01 193.934C1406.53 189.664 1397.21 182.289 1391.59 172.585C1385.96 162.881 1384.02 151.236 1386.93 140.562C1389.26 132.411 1394.3 124.842 1395.66 116.496C1397.41 106.016 1388.67 101.552 1385.57 91.4603C1382.46 81.3682 1379.75 57.1084 1384.21 47.4045" fill="#263238"/>
<path d="M1481.45 267.291L1472.53 238.374L1471.17 282.624C1471.17 282.624 1482.81 312.706 1491.74 335.801C1473.88 346.475 1453.31 353.268 1430.99 354.627C1403.43 356.373 1377.03 349.581 1354.71 336.771L1368.68 286.893L1362.08 230.417L1343.84 256.617L1304.63 218.772C1304.63 218.772 1333.36 165.789 1336.85 161.131C1359.56 130.272 1398.57 131.049 1398.57 131.049L1453.89 134.154C1453.89 134.154 1484.95 132.407 1505.52 157.055C1505.52 157.055 1525.51 187.525 1541.82 262.828L1481.45 267.291Z" fill="#E51937"/>
<path d="M1509.21 165.216C1509.21 165.216 1509.01 165.216 1508.43 165.41C1507.85 165.41 1507.07 165.604 1506.1 165.798C1503.97 166.186 1501.06 166.769 1497.37 168.321C1493.68 169.874 1489.41 172.397 1485.33 176.278C1483.2 178.219 1481.26 180.548 1479.51 183.265C1477.76 185.982 1476.21 189.088 1475.44 192.581C1475.05 194.328 1475.05 196.074 1475.63 197.821C1476.21 199.568 1477.18 201.12 1478.74 202.285C1480.29 203.449 1482.23 203.838 1484.17 203.061C1485.92 202.479 1487.28 200.732 1487.86 198.792C1488.44 196.851 1488.44 194.716 1487.47 192.775C1486.5 190.834 1485.14 189.282 1483.2 187.923C1479.51 185.206 1475.05 183.653 1470.39 183.071C1465.73 182.489 1460.68 183.071 1455.83 184.43C1450.98 185.788 1446.13 187.535 1441.66 190.252C1437.2 192.969 1433.12 196.463 1430.02 200.926C1428.46 203.061 1427.3 205.584 1427.3 208.301C1427.3 209.66 1427.49 210.824 1428.27 211.989C1429.05 213.153 1430.02 213.93 1431.18 214.706C1432.54 215.094 1433.9 215.482 1435.06 214.9C1436.23 214.318 1437.2 213.153 1437.97 211.989C1439.33 209.272 1439.53 206.166 1439.53 203.061C1439.53 199.956 1439.14 197.045 1438.17 194.134C1437.2 191.417 1435.45 188.894 1433.32 186.759C1429.05 182.683 1423.42 180.354 1417.79 179.772C1412.16 179.19 1406.34 179.966 1401.1 181.713C1395.86 183.265 1390.61 185.4 1387.12 189.476C1385.57 191.417 1384.4 193.94 1384.6 196.463C1384.79 198.986 1386.15 201.314 1387.9 202.867C1388.87 203.643 1389.84 204.226 1391 204.226C1392.17 204.42 1393.33 204.032 1394.3 203.449C1396.24 202.285 1397.21 199.762 1397.41 197.627C1397.6 195.298 1397.41 192.969 1396.63 190.834C1396.24 189.67 1395.86 188.699 1395.47 187.729C1395.27 187.147 1395.08 186.759 1394.89 186.176L1394.11 184.818C1392.17 180.936 1389.45 177.637 1386.54 174.726C1380.72 169.098 1374.12 165.604 1368.1 163.663C1362.08 161.723 1356.45 161.14 1351.99 161.529C1347.53 161.917 1344.03 162.693 1341.9 163.469C1340.73 163.857 1339.96 164.246 1339.37 164.44C1338.79 164.634 1338.4 164.634 1338.4 164.634C1338.4 164.634 1338.6 164.44 1339.18 164.246C1339.76 164.052 1340.54 163.663 1341.7 163.275C1344.03 162.499 1347.33 161.528 1351.99 161.14C1356.45 160.752 1362.08 161.334 1368.29 163.081C1374.5 165.022 1381.1 168.515 1387.12 174.144C1390.03 177.055 1392.75 180.354 1394.89 184.236L1395.66 185.788C1395.86 186.371 1396.05 186.759 1396.24 187.341C1396.63 188.311 1397.21 189.476 1397.41 190.64C1398.18 192.969 1398.38 195.298 1398.18 197.627C1397.99 199.956 1397.02 202.673 1394.69 204.226C1393.53 205.002 1392.17 205.196 1390.81 205.196C1389.45 205.002 1388.29 204.42 1387.12 203.643C1384.99 201.897 1383.63 199.374 1383.43 196.657C1383.24 195.298 1383.43 193.94 1384.02 192.581C1384.6 191.222 1385.18 190.058 1386.15 189.088C1389.84 184.818 1395.08 182.683 1400.51 180.936C1405.95 179.384 1411.77 178.413 1417.59 178.996C1423.42 179.578 1429.43 182.101 1433.7 186.37C1435.84 188.505 1437.78 191.028 1438.95 193.94C1440.11 196.851 1440.5 199.956 1440.5 203.061C1440.5 206.166 1440.11 209.466 1438.75 212.377C1437.97 213.736 1437 215.094 1435.45 215.87C1433.9 216.453 1432.15 216.259 1430.79 215.676C1429.63 214.9 1428.46 213.93 1427.69 212.571C1426.91 211.212 1426.52 209.854 1426.52 208.301C1426.52 205.39 1427.88 202.673 1429.43 200.344C1432.73 195.686 1437 192.193 1441.47 189.476C1445.93 186.565 1450.98 184.818 1455.83 183.459C1460.68 182.101 1465.73 181.519 1470.78 182.101C1475.63 182.683 1480.29 184.236 1483.98 187.147C1485.92 188.505 1487.47 190.252 1488.44 192.387C1489.41 194.522 1489.6 196.851 1488.83 198.986C1488.25 201.12 1486.69 203.061 1484.56 203.838C1482.42 204.614 1480.09 204.032 1478.54 202.867C1476.79 201.703 1475.63 199.956 1475.05 198.015C1474.47 196.074 1474.47 194.134 1474.85 192.387C1475.63 188.699 1477.38 185.594 1478.93 182.877C1480.68 180.16 1482.81 177.831 1484.75 175.89C1489.02 172.009 1493.29 169.486 1496.98 167.933C1500.67 166.38 1503.77 165.798 1505.91 165.604C1508.04 165.216 1509.21 165.216 1509.21 165.216Z" fill="#FAFAFA"/>
<path d="M1532.69 228.477C1532.69 228.671 1530.75 229.059 1527.65 230.805C1524.54 232.552 1520.47 236.046 1517.75 241.868C1516.97 243.226 1516.58 244.973 1516.2 246.526C1515.81 248.273 1515.61 250.019 1516.2 251.766C1516.39 252.542 1516.97 253.513 1517.56 253.901C1518.33 254.289 1519.11 254.483 1520.08 254.095C1521.83 253.319 1522.8 251.378 1522.99 249.437C1523.57 245.361 1521.05 240.898 1517.17 238.957C1513.09 237.016 1507.85 237.598 1503.97 240.121C1499.89 242.838 1497.56 247.108 1496.59 251.572C1496.01 253.707 1496.01 256.036 1497.18 257.782C1498.15 259.529 1500.47 260.694 1502.22 259.723C1503.97 258.947 1505.13 257.006 1505.13 255.065C1505.13 253.124 1504.36 251.378 1503.39 249.825C1501.45 246.72 1498.53 244.585 1495.43 243.421C1492.52 242.256 1489.41 242.256 1487.08 242.838C1484.56 243.421 1482.62 244.391 1481.26 245.555C1478.35 247.69 1477.57 249.631 1477.38 249.437C1477.38 249.437 1477.38 249.243 1477.57 249.049C1477.77 248.855 1477.96 248.467 1478.15 248.078C1478.74 247.302 1479.51 246.138 1481.06 244.973C1482.42 243.809 1484.56 242.644 1487.08 242.062C1489.61 241.48 1492.71 241.286 1495.82 242.45C1498.92 243.615 1502.03 245.749 1504.16 249.049C1505.13 250.601 1506.1 252.736 1506.1 254.871C1506.1 257.006 1504.94 259.335 1502.8 260.305C1501.64 260.888 1500.47 260.888 1499.31 260.305C1498.15 259.917 1497.37 258.947 1496.59 257.976C1495.23 255.842 1495.43 253.319 1496.01 250.99C1496.98 246.332 1499.7 241.868 1503.97 238.957C1508.24 236.046 1513.87 235.463 1518.14 237.598C1522.6 239.733 1525.13 244.585 1524.54 249.049C1524.35 251.184 1523.18 253.513 1521.05 254.289C1519.88 254.677 1518.72 254.483 1517.75 253.901C1516.78 253.319 1516.39 252.348 1516 251.378C1515.42 249.437 1515.61 247.496 1516 245.75C1516.39 244.003 1516.97 242.45 1517.75 240.898C1520.66 234.881 1524.93 231.582 1528.04 229.835C1530.56 228.671 1532.69 228.477 1532.69 228.477Z" fill="#FAFAFA"/>
<path d="M1471.36 256.237C1471.36 256.237 1471.17 256.237 1470.97 256.237C1470.58 256.237 1470.2 256.042 1469.61 255.848C1468.45 255.654 1466.51 255.266 1464.18 254.878C1459.52 254.296 1452.34 254.49 1444.57 257.595C1442.63 258.371 1440.69 259.342 1438.75 260.506C1436.81 261.671 1434.87 263.223 1433.71 265.358C1432.35 267.299 1431.76 270.016 1432.73 272.345C1433.12 273.51 1433.9 274.674 1434.87 275.45C1435.84 276.227 1437.2 276.421 1438.56 276.227C1441.08 275.644 1443.22 273.315 1443.6 270.598C1443.99 267.881 1443.02 264.97 1441.28 262.447C1437.98 257.401 1432.73 253.519 1426.52 251.967C1420.31 250.414 1413.71 251.579 1408.67 254.684C1406.14 256.237 1403.81 258.177 1402.07 260.506C1401.29 261.671 1400.71 263.029 1400.32 264.388C1399.93 265.746 1399.93 267.105 1400.71 268.269C1401.29 269.434 1402.46 270.21 1403.62 270.21C1404.78 270.21 1406.14 269.822 1407.11 269.24C1409.25 267.881 1410.03 265.164 1409.64 262.835C1409.44 260.506 1408.47 258.177 1407.31 256.237C1406.14 254.296 1404.78 252.549 1403.23 250.996C1400.13 248.085 1396.63 246.339 1393.53 245.174C1390.42 244.01 1387.51 243.816 1384.99 243.816C1380.33 243.816 1377.81 245.174 1377.81 244.98C1377.81 244.98 1378 244.98 1378.19 244.786C1378.58 244.592 1378.97 244.592 1379.55 244.398C1380.72 244.01 1382.66 243.622 1384.99 243.427C1387.32 243.233 1390.42 243.621 1393.53 244.592C1396.83 245.562 1400.32 247.503 1403.43 250.414C1404.98 251.967 1406.53 253.714 1407.7 255.654C1408.86 257.789 1409.83 259.924 1410.03 262.641C1410.22 264 1410.03 265.358 1409.64 266.523C1409.25 267.881 1408.28 269.046 1407.11 269.822C1405.95 270.598 1404.59 271.181 1403.04 270.987C1401.49 270.792 1400.13 270.016 1399.35 268.463C1398.57 267.105 1398.57 265.358 1398.96 264C1399.35 262.447 1399.93 261.089 1400.9 259.924C1402.65 257.401 1405.17 255.46 1407.89 253.908C1413.33 250.802 1420.12 249.444 1426.52 250.996C1432.93 252.549 1438.56 256.625 1441.86 261.865C1443.6 264.582 1444.57 267.687 1444.19 270.792C1443.8 273.898 1441.47 276.615 1438.36 277.197C1436.81 277.585 1435.26 277.197 1434.09 276.227C1432.93 275.45 1432.15 274.092 1431.57 272.733C1431.18 271.375 1430.99 270.016 1431.18 268.658C1431.38 267.299 1431.96 266.135 1432.73 264.97C1434.09 262.835 1436.23 261.283 1438.17 259.924C1440.11 258.76 1442.25 257.789 1444.19 257.013C1452.14 253.908 1459.52 253.908 1464.18 254.49C1469.03 255.266 1471.36 256.237 1471.36 256.237Z" fill="#FAFAFA"/>
<path d="M1254.55 94.5671C1258.63 94.7612 1257.46 116.692 1260.38 112.034C1263.29 107.376 1258.63 85.0572 1262.9 85.4454C1268.33 86.0276 1266.78 108.929 1266.78 110.87C1266.78 112.81 1269.69 112.81 1269.5 111.064C1269.3 108.541 1268.53 81.952 1273.96 82.3401C1276.87 82.5342 1275.9 87.9684 1275.9 87.9684C1275.9 87.9684 1274.93 113.004 1277.46 113.004C1279.98 113.199 1281.14 98.4486 1281.14 93.5967C1281.14 88.7447 1283.47 86.6098 1285.61 88.3565C1287.16 89.521 1287.36 104.659 1287.16 109.705C1286.97 114.557 1286.38 128.143 1292.01 121.544C1297.64 114.945 1304.44 112.034 1306.77 112.616C1309.09 113.004 1309.29 116.498 1306.77 117.662C1304.82 118.633 1301.91 121.156 1299.97 123.097C1298.22 124.649 1297.06 126.784 1295.7 128.725C1294.34 130.86 1293.76 132.218 1292.79 135.712L1300.36 227.122L1305.99 220.136L1338.01 250.994L1321.32 270.208C1309.09 284.181 1286.97 285.152 1274.54 271.372C1274.16 270.79 1273.57 270.402 1273.19 269.82C1270.08 265.938 1268.33 260.892 1267.95 255.846L1257.46 137.264C1257.27 124.067 1253.58 113.975 1253 107.182C1251.84 94.5671 1253 94.5671 1254.55 94.5671Z" fill="#B5694A"/>
<path d="M1402.45 143.468C1402.65 129.688 1402.45 115.133 1402.45 115.133C1402.45 115.133 1384.79 112.027 1381.3 88.738C1378 66.6131 1383.63 18.8699 1383.63 18.8699C1409.25 8.77779 1438.36 12.6594 1456.22 33.4257L1453.5 145.409C1453.11 158.412 1441.66 168.504 1427.88 168.116C1413.52 167.534 1402.26 156.665 1402.45 143.468Z" fill="#B5694A"/>
<path d="M1388.29 55.555C1388.29 57.1076 1389.45 58.4662 1391.2 58.6602C1392.75 58.8543 1394.3 57.4957 1394.3 55.9431C1394.3 54.3905 1393.14 53.032 1391.39 52.8379C1389.84 52.8379 1388.29 54.0023 1388.29 55.555Z" fill="#263238"/>
<path d="M1383.43 52.0713C1383.82 52.4595 1386.15 50.9069 1389.26 50.9069C1392.36 50.9069 1394.69 52.6536 1395.08 52.2654C1395.27 52.0713 1394.89 51.295 1393.91 50.7128C1392.94 49.9365 1391.2 49.1602 1389.26 49.1602C1387.32 49.1602 1385.57 49.9365 1384.6 50.5187C1383.63 51.295 1383.43 51.8772 1383.43 52.0713Z" fill="#263238"/>
<path d="M1421.09 56.5208C1421.09 58.0734 1422.25 59.432 1424 59.626C1425.55 59.8201 1427.11 58.4616 1427.11 56.9089C1427.11 55.3563 1425.94 53.9978 1424.19 53.8037C1422.45 53.6096 1421.09 54.9682 1421.09 56.5208Z" fill="#263238"/>
<path d="M1416.82 53.6045C1417.21 53.9927 1419.54 52.4401 1422.64 52.4401C1425.75 52.4401 1428.08 54.1868 1428.47 53.7986C1428.66 53.6045 1428.27 52.8282 1427.3 52.246C1426.33 51.4697 1424.58 50.6934 1422.64 50.6934C1420.7 50.6934 1418.95 51.4697 1417.98 52.0519C1417.01 52.8282 1416.82 53.4105 1416.82 53.6045Z" fill="#263238"/>
<path d="M1404.98 77.2879C1404.98 77.0938 1403.04 76.7056 1399.74 76.3175C1398.96 76.3175 1398.19 76.1234 1397.99 75.5412C1397.8 74.9589 1398.19 73.9885 1398.57 73.2122C1399.35 71.2714 1400.13 69.1366 1401.1 67.0017C1404.59 58.2682 1407.11 50.8932 1406.73 50.6992C1406.34 50.5051 1403.23 57.686 1399.74 66.4195C1398.96 68.5544 1398.19 70.6892 1397.41 72.63C1397.02 73.6004 1396.63 74.5708 1397.02 75.7352C1397.21 76.3175 1397.8 76.7056 1398.38 76.8997C1398.96 77.0938 1399.35 77.0938 1399.74 77.0938C1403.04 77.4819 1404.98 77.4819 1404.98 77.2879Z" fill="#263238"/>
<path d="M1402.46 115.137C1402.46 115.137 1417.98 116.301 1433.7 107.18C1433.7 107.18 1425.94 123.094 1402.84 120.571L1402.46 115.137Z" fill="#99583E"/>
<path d="M1406.34 85.0489C1407.5 83.4963 1409.44 82.72 1411.58 82.9141C1412.94 83.1082 1414.3 83.6904 1415.27 84.8549C1416.04 86.0193 1416.24 87.5719 1415.46 88.7364C1414.49 89.9009 1412.74 90.289 1411.19 89.7068C1409.64 89.3187 1408.28 88.1542 1407.11 87.1838C1406.73 86.9897 1406.34 86.6016 1406.14 86.2134C1405.95 85.8252 1405.95 85.4371 1406.34 85.0489Z" fill="#99583E"/>
<path d="M1414.49 79.6172C1413.91 79.6172 1413.91 83.1106 1411 85.4395C1408.08 87.9625 1404.4 87.3803 1404.2 87.9626C1404.2 88.1566 1404.98 88.7389 1406.53 88.7389C1408.08 88.7389 1410.22 88.3507 1412.16 86.7981C1413.91 85.2455 1414.88 83.3047 1414.88 81.9461C1415.07 80.3935 1414.68 79.6172 1414.49 79.6172Z" fill="#263238"/>
<path d="M1446.13 16.9278C1437.59 28.9606 1415.27 41.3816 1399.16 44.2928C1401.1 41.7698 1411 35.7534 1412.74 33.2304C1405.37 38.6646 1395.08 46.0395 1385.37 46.4277C1384.21 46.4277 1383.05 46.4277 1382.07 45.8454C1380.72 45.0691 1380.52 43.5165 1380.33 42.158C1379.75 36.5297 1380.13 26.8258 1380.91 21.1975C1381.88 15.5693 1384.4 9.94099 1389.26 6.25351C1395.47 1.40156 1404.4 0.237095 1412.74 0.0430172C1419.73 -0.151061 1426.91 0.237098 1433.32 2.76011C1439.72 5.28313 1445.16 10.3292 1446.13 16.3456" fill="#263238"/>
<path d="M1470.39 71.0798C1471.55 65.0633 1472.52 59.4351 1472.72 55.5535C1473.49 43.5207 1470 -0.535055 1428.66 2.95835L1438.56 15.5734C1438.56 15.5734 1430.4 42.3562 1447.68 60.7936C1447.68 60.7936 1448.65 71.662 1460.68 84.083C1460.88 84.083 1467.87 83.8889 1470.39 71.0798Z" fill="#263238"/>
<path d="M1447.29 58.8441C1449.82 58.4559 1452.34 58.4559 1454.67 59.4263C1457 60.3967 1459.13 62.1434 1460.1 64.4723C1461.07 66.8013 1460.88 69.5184 1460.1 71.8473C1459.13 74.1762 1457.58 76.3111 1455.83 78.0578C1454.47 79.2223 1453.12 80.3867 1451.37 80.969C1449.62 81.5512 1447.68 81.3571 1446.13 80.1927" fill="#99583E"/>
<path d="M1448.46 73.995C1448.26 73.995 1449.23 75.5477 1451.56 74.9654C1452.73 74.7713 1453.7 73.801 1454.47 72.6365C1455.06 71.472 1455.64 70.1135 1455.83 68.5608C1456.03 67.0082 1455.64 65.4556 1454.86 64.097C1454.09 62.9326 1452.73 62.1562 1451.56 62.1562C1449.23 62.1562 1448.46 63.7089 1448.85 63.7089C1449.04 63.903 1450.01 63.1267 1451.56 63.5148C1453.12 63.7089 1454.47 65.8438 1454.09 68.3668C1453.7 70.8898 1452.73 73.2187 1451.37 73.8009C1449.62 74.3832 1448.65 73.8009 1448.46 73.995Z" fill="#B5694A"/>
<path d="M1476.41 296.217V285.543H1401.87L1379.94 189.668L1268.33 190.638L1295.31 296.217H1476.41Z" fill="#263238"/>
<path d="M1331.3 249.884C1335.17 248.625 1336.97 243.473 1335.31 238.376C1333.66 233.28 1329.17 230.168 1325.3 231.427C1321.43 232.686 1319.63 237.839 1321.28 242.935C1322.94 248.032 1327.43 251.143 1331.3 249.884Z" fill="#E51937"/>
<path d="M1374.89 295.431C1372.95 291.937 1371.4 288.056 1370.24 284.174C1370.04 283.204 1369.65 282.233 1369.85 281.263C1370.04 280.293 1370.62 279.322 1371.59 279.128C1373.34 278.74 1374.51 280.875 1375.09 282.622C1377.61 288.832 1383.24 293.49 1389.64 294.849L1394.11 294.654V294.46L1491.74 285.727L1487.08 266.319L1538.71 262.438L1543.37 281.457C1545.89 305.329 1526.68 325.707 1502.8 324.931H1390.81C1355.29 327.26 1348.5 295.819 1348.5 295.819L1374.89 295.431Z" fill="#B5694A"/>
</svg>
