<svg width="1140" height="394" viewBox="0 0 1140 394" fill="none" xmlns="http://www.w3.org/2000/svg">
<path d="M590.5 370.5L102 142.5H1041L590.5 370.5Z" stroke="#303030" stroke-width="3" stroke-dasharray="6 6"/>
<path d="M207.653 160.498C208.757 103.708 163.616 56.7759 106.826 55.6714C50.0367 54.5669 3.1044 99.7084 1.99989 156.498C0.895382 213.287 46.0369 260.22 102.826 261.324C159.616 262.429 206.548 217.287 207.653 160.498Z" fill="white" fill-opacity="0.1"/>
<path d="M201.553 193.132L182.977 164.891L151.715 184.524L180.107 228.169C180.107 228.169 195.663 211.255 201.553 193.132Z" fill="#99583E"/>
<path d="M85.4158 52.0778C86.926 50.4165 84.8117 47.6981 82.6973 46.943C80.583 46.1879 77.8646 45.7348 76.8074 43.7715C75.5992 41.3551 77.7136 38.4857 78.1666 35.7673C78.6197 32.8978 76.9585 30.0284 76.3544 27.1589C75.7503 23.3834 77.1095 19.4567 79.9789 17.0404C82.8484 14.624 87.077 13.8689 90.5506 15.0771C90.8526 9.33818 94.7792 4.05236 100.216 2.24008C105.653 0.4278 111.996 2.24008 115.62 6.77078C118.49 4.65645 121.359 2.3911 124.531 1.18292C127.853 -0.176295 131.629 -0.478343 134.8 0.880867C137.972 2.24008 140.388 5.86464 139.784 9.33817C142.201 6.46873 146.731 5.86464 150.205 7.5259C153.678 9.18715 155.944 12.6607 157.001 16.2853C158.36 21.42 157.152 27.461 153.074 30.7835C148.997 34.106 142.05 33.804 139.029 29.4243" fill="#263238"/>
<path d="M105.502 138.768C116.677 138.768 126.041 130.009 126.494 118.984C126.947 109.772 127.4 100.861 127.4 100.861C127.4 100.861 144.617 99.6532 146.127 82.7386C147.637 65.975 147.939 27.011 147.939 27.011C128.91 17.0435 106.106 18.1006 88.1341 29.5784L86.4728 30.6355L84.5095 117.625C84.3585 129.254 93.7219 138.768 105.502 138.768Z" fill="#B5694A"/>
<path d="M115.318 52.9845C116.677 53.4375 117.281 54.7967 116.828 56.156C116.375 57.5152 115.016 58.1193 113.657 57.6662C112.298 57.2131 111.694 55.8539 112.147 54.4947C112.6 53.2865 113.959 52.5314 115.318 52.9845Z" fill="#263238"/>
<path d="M119.999 53.8903C119.697 54.1923 118.187 52.8331 115.771 52.6821C113.505 52.5311 111.693 53.5882 111.391 53.2862C111.24 53.1352 111.542 52.6821 112.297 52.078C113.052 51.6249 114.412 51.1719 115.771 51.1719C117.281 51.3229 118.489 51.927 119.093 52.5311C119.999 53.1352 120.151 53.7393 119.999 53.8903Z" fill="#263238"/>
<path d="M140.992 52.9845C142.351 53.4375 142.955 54.7967 142.502 56.156C142.049 57.5152 140.69 58.1193 139.331 57.6662C137.972 57.2131 137.367 55.8539 137.821 54.4947C138.274 53.2865 139.633 52.5314 140.992 52.9845Z" fill="#263238"/>
<path d="M145.976 53.8903C145.674 54.1923 144.164 52.8331 141.747 52.6821C139.482 52.5311 137.67 53.5882 137.368 53.2862C137.217 53.1352 137.519 52.6821 138.274 52.078C139.029 51.6249 140.388 51.1719 141.747 51.1719C143.258 51.3229 144.466 51.927 145.07 52.5311C145.976 53.2862 146.127 53.7393 145.976 53.8903Z" fill="#263238"/>
<path d="M128.306 72.0057C128.306 71.8547 129.817 71.7037 132.082 71.5527C132.686 71.5527 133.139 71.4017 133.29 71.0996C133.441 70.7976 133.29 70.0425 132.988 69.2873C132.535 67.7771 132.082 66.1158 131.478 64.4546C129.515 57.5075 128.155 51.9196 128.457 51.7686C128.759 51.6176 130.723 57.2055 132.686 64.1525C133.139 65.8138 133.592 67.475 134.045 68.9853C134.196 69.7404 134.498 70.4955 134.196 71.5527C134.045 72.0058 133.441 72.3078 132.988 72.4588C132.535 72.6098 132.233 72.4588 131.931 72.4588C129.817 72.4588 128.306 72.1568 128.306 72.0057Z" fill="#263238"/>
<path d="M120.604 73.9805C125.286 76.2458 127.4 77.0009 131.78 78.2091C131.78 78.2091 128.76 82.2868 123.927 80.1724C118.943 77.9071 120.604 73.9805 120.604 73.9805Z" fill="#99583E"/>
<path d="M127.4 100.559C127.4 100.559 116.677 100.559 105.804 92.5547C105.804 92.5547 110.032 105.09 127.098 104.939L127.4 100.559Z" fill="#99583E"/>
<path d="M86.0196 55.4033C86.0196 54.0441 84.9624 52.8359 83.6032 52.8359C80.4317 52.6849 75.2969 53.8931 74.5418 62.5014C73.6357 74.8853 85.7175 72.0159 85.7175 71.7138C85.8686 71.4118 85.8686 60.2361 86.0196 55.4033Z" fill="#99583E"/>
<path d="M83.1499 66.7293C83.1499 66.7293 82.8478 66.8803 82.5458 67.0313C82.2437 67.1823 81.4886 67.1823 80.8845 66.8803C79.6763 66.2762 78.6192 64.1619 78.7702 61.8965C78.7702 60.8394 79.0722 59.7822 79.6763 58.876C80.1294 57.9699 80.7335 57.3658 81.4886 57.3658C82.0927 57.2148 82.5458 57.6679 82.6968 58.1209C82.8478 58.423 82.6968 58.725 82.8478 58.725C82.8478 58.725 83.1499 58.574 82.9989 57.9699C82.9989 57.6679 82.8478 57.3658 82.5458 57.2148C82.2437 56.9127 81.7907 56.7617 81.3376 56.7617C80.4315 56.7617 79.3743 57.5168 78.9212 58.574C78.3171 59.4801 78.0151 60.6883 77.8641 61.8965C77.713 64.4639 78.9212 66.8803 80.5825 67.4844C81.4886 67.7864 82.2437 67.6354 82.5458 67.3334C82.9989 67.0313 83.1499 66.7293 83.1499 66.7293Z" fill="#B5694A"/>
<path d="M111.694 46.946C112.147 47.7012 114.11 47.2481 116.526 47.2481C118.943 47.0971 120.755 47.0971 121.208 46.3419C121.661 45.5868 119.396 43.7745 116.375 44.0766C113.204 44.2276 111.09 46.1909 111.694 46.946Z" fill="#263238"/>
<path d="M138.727 46.4922C138.878 47.3984 140.388 47.7004 142.2 47.8514C144.013 48.0024 145.523 47.8514 145.825 47.0963C146.127 46.3412 144.617 44.982 142.351 44.831C140.237 44.6799 138.576 45.7371 138.727 46.4922Z" fill="#263238"/>
<path d="M150.356 32.4513C150.356 32.4513 140.086 37.435 126.947 30.79C118.188 26.4103 108.069 24.296 105.804 26.1083C103.538 27.9206 103.085 36.8309 94.4771 39.3983C94.4771 39.3983 95.0812 56.464 88.2851 55.8599C81.489 55.2558 85.7177 28.6757 85.7177 28.6757L102.481 20.5204L120.755 17.0469L137.972 19.4632L151.262 23.0878L150.356 32.4513Z" fill="#263238"/>
<path d="M36.0311 131.521C53.8519 113.096 85.2647 115.21 85.2647 115.21L126.041 116.721C126.041 116.721 141.596 118.382 156.095 126.084L157.152 126.386V126.537C168.63 132.729 184.789 147.68 200.194 162.028L181.769 179.093L161.381 197.216C161.381 197.216 161.532 197.367 161.381 197.518C161.23 198.575 164.703 220.474 167.875 239.503C149.903 253.397 127.4 261.552 102.934 261.099C87.3791 260.797 72.7298 257.021 59.5908 250.527L58.0805 233.009C56.7213 217.151 55.6642 197.518 55.6642 197.518" fill="#E51937"/>
<path d="M142.352 119.738C142.352 119.738 142.503 120.04 142.654 120.493C142.805 121.097 143.107 121.853 143.409 122.759C144.013 124.722 144.919 127.44 145.977 130.914C148.091 137.861 150.809 147.376 153.377 158.098C155.944 168.821 157.907 178.637 159.116 185.735C159.72 189.36 160.173 192.229 160.475 194.193C160.626 195.099 160.777 195.854 160.777 196.458C160.777 196.911 160.928 197.213 160.777 197.213C160.626 197.213 160.626 196.911 160.626 196.458C160.475 195.854 160.324 195.099 160.173 194.193C159.72 192.078 159.267 189.209 158.512 185.887C157.152 178.788 155.038 169.123 152.471 158.4C149.903 147.678 147.185 138.163 145.222 131.216C144.164 127.894 143.409 125.024 142.805 123.061C142.503 122.155 142.352 121.4 142.201 120.795C142.503 120.04 142.352 119.738 142.352 119.738Z" fill="#263238"/>
<path d="M177.049 171.366C186.813 163.411 194.601 156.805 194.443 156.611C194.285 156.417 186.241 162.708 176.476 170.663C166.712 178.618 158.924 185.224 159.082 185.418C159.24 185.612 167.284 179.32 177.049 171.366Z" fill="#263238"/>
<path opacity="0.2" d="M59.5909 156.742L43.5824 209.298L49.4723 212.319L55.3622 197.518C55.3622 197.518 61.4032 166.257 59.5909 156.742Z" fill="#101010"/>
<g opacity="0.2">
<path d="M140.69 119.89C149.299 124.421 127.702 135.295 118.037 134.993L125.135 116.266C124.984 116.266 137.821 118.38 140.69 119.89Z" fill="#101010"/>
</g>
<path d="M82.6974 116.265V102.371C82.6974 102.371 109.882 109.318 110.788 125.629C110.788 125.629 114.261 107.657 128.306 106.751L130.27 131.972L113.959 146.168H97.4977L84.3587 134.841L82.6974 117.322" fill="#E51937"/>
<path d="M116.98 203.707C116.98 203.707 116.98 203.405 116.98 202.952C116.98 202.348 116.98 201.593 116.98 200.687C116.98 198.723 117.131 196.005 117.131 192.531C117.131 185.584 116.98 176.221 116.074 165.649C115.168 155.229 113.808 145.865 112.6 139.069C111.996 135.746 111.543 132.877 111.09 131.065C110.939 130.159 110.788 129.403 110.637 128.95C110.486 128.497 110.486 128.195 110.486 128.195C110.486 128.195 110.637 128.497 110.788 128.95C110.939 129.555 111.09 130.31 111.392 131.065C111.845 132.877 112.449 135.595 113.053 139.069C114.412 145.865 115.772 155.228 116.678 165.8C117.584 176.221 117.735 185.735 117.433 192.682C117.282 196.156 117.282 198.874 117.131 200.838C117.131 201.744 116.98 202.499 116.98 203.103C117.131 203.405 116.98 203.707 116.98 203.707Z" fill="#263238"/>
<path d="M109.58 120.948C109.58 120.948 108.976 120.646 107.919 121.099C107.465 121.25 106.861 121.703 106.408 122.308C105.955 122.912 105.502 123.667 105.2 124.573C103.539 128.197 101.425 133.332 100.065 139.675L99.9143 140.128L99.4612 139.826C97.8 138.92 96.1387 137.712 94.4774 136.655C91.3059 134.389 88.2855 132.124 85.7181 130.01C84.3589 128.953 83.3017 127.593 82.6976 126.083C82.0935 124.573 81.7915 123.214 81.7915 121.854C81.6404 119.287 82.0935 117.173 82.3956 115.814C82.6976 114.454 82.8486 113.699 82.9997 113.699C82.9997 113.699 82.9997 114.454 82.6976 115.965C82.5466 117.324 82.2445 119.438 82.3956 122.006C82.5466 123.214 82.6976 124.573 83.3017 125.932C83.9058 127.291 84.963 128.5 86.1712 129.557C88.7385 131.671 91.759 133.936 94.9305 136.202C96.5918 137.259 98.253 138.316 99.9143 139.373L99.3102 139.675C100.82 133.332 102.935 128.197 104.747 124.573C105.2 123.667 105.653 122.912 106.106 122.308C106.559 121.703 107.314 121.25 107.767 121.099C109.127 120.495 109.731 120.948 109.58 120.948Z" fill="#263238"/>
<path d="M128.306 106.898C128.306 106.898 128.457 107.654 128.457 109.013C128.608 110.523 128.759 112.486 128.91 114.903C129.061 117.47 129.363 120.34 129.968 123.662C130.119 125.323 130.723 126.985 130.27 128.948C129.666 130.911 128.306 132.27 126.796 133.479C124.682 135.14 122.416 136.348 120.755 138.009L120.151 138.613V137.707C119.698 131.968 117.886 127.136 116.073 124.115C114.261 120.944 112.902 119.433 113.053 119.282C113.053 119.282 113.506 119.584 114.11 120.34C114.714 121.095 115.62 122.303 116.527 123.813C118.339 126.834 120.453 131.666 120.906 137.556L120.302 137.405C121.963 135.593 124.229 134.234 126.343 132.723C127.853 131.666 129.212 130.307 129.666 128.646C130.119 126.985 129.515 125.323 129.363 123.662C128.91 120.34 128.608 117.319 128.457 114.903C128.306 112.335 128.306 110.372 128.306 109.013C128.306 107.654 128.306 106.898 128.306 106.898Z" fill="#263238"/>
<path d="M215.749 110.371C214.692 111.73 174.67 165.193 174.67 165.193L180.258 168.364L221.337 115.506L215.749 110.371Z" fill="#455A64"/>
<path d="M55.0598 152.661C55.0598 152.661 97.1954 213.222 99.6117 214.43C104.596 216.846 162.135 167.008 167.723 162.327C168.478 161.27 169.989 159.155 173.16 154.927C173.16 154.927 177.691 134.085 182.524 135.747C187.356 137.408 179.805 146.318 182.977 154.171C186.148 162.025 200.646 143.298 201.099 141.486L204.875 136.653C204.875 136.653 208.802 147.677 208.5 152.359C207.593 167.159 193.548 184.829 193.548 184.829C193.548 184.829 130.572 262.908 87.3788 265.325C74.9949 266.08 52.7945 230.74 38.1452 204.311C29.2348 188.303 33.6145 168.217 48.4148 157.494L55.0598 152.661Z" fill="#B5694A"/>
<path d="M201.552 154.923C201.401 154.923 202.76 152.507 204.27 149.486C205.781 146.466 206.838 143.898 206.989 144.049C207.14 144.049 206.234 146.768 204.724 149.788C203.213 152.809 201.703 155.074 201.552 154.923Z" fill="#EB996E"/>
<path d="M47.9621 123.055C47.9621 123.055 2.80608 139.063 36.3333 215.028L88.4363 183.615L81.0362 165.794L47.9621 123.055Z" fill="#E51937"/>
<path d="M44.4885 124.416C44.4885 124.416 44.6395 124.416 44.7906 124.416C45.0926 124.416 45.3947 124.416 45.8477 124.416C46.7539 124.416 48.1131 124.567 49.9254 125.02C51.5866 125.473 53.7009 126.228 55.8153 127.588C57.9296 128.947 60.1949 130.759 62.3093 133.025C66.6889 137.555 70.7666 143.898 74.5422 151.298C78.3178 158.699 81.9423 167.156 85.5669 175.915C86.624 178.634 87.6812 181.201 88.7384 183.617L88.8894 183.919L88.5873 184.07C73.485 192.226 60.346 200.079 51.1335 205.818C46.4518 208.687 42.8273 211.104 40.2599 212.765C39.0517 213.52 37.9945 214.124 37.3904 214.728C36.7863 215.181 36.3333 215.332 36.3333 215.332C36.3333 215.332 36.6353 215.03 37.2394 214.577C37.8435 214.124 38.9006 213.369 40.1088 212.614C42.5252 210.953 46.3008 208.385 50.8315 205.516C60.0439 199.626 73.183 191.773 88.2853 183.617L88.1343 184.07C87.0771 181.654 86.0199 178.936 84.9628 176.368C81.3382 167.458 77.7137 159.152 73.9381 151.751C70.1625 144.351 66.2359 138.008 62.0072 133.478C59.8929 131.212 57.7786 129.4 55.6642 128.041C53.5499 126.682 51.5866 125.926 49.9254 125.473C46.4518 124.265 44.4885 124.416 44.4885 124.416Z" fill="#263238"/>
<path d="M684.356 298.68C682.321 349.8 644.68 392.019 593.559 393.037C542.439 394.054 500.22 353.361 499.202 302.24C498.185 251.12 539.005 203.941 589.999 207.883C644.299 212.08 686.136 252.137 684.356 298.68Z" fill="#303030"/>
<path d="M673.038 325L644.171 342.803L654.726 368.364C664.518 359.335 672.275 348.144 677.362 335.682L673.038 325Z" fill="#B5694A"/>
<path d="M680.922 325.509C677.234 316.608 664.391 287.105 653.582 276.042C637.559 259.51 609.201 261.799 609.201 261.799L572.45 263.071C572.45 263.071 558.461 264.597 545.363 271.464L544.473 271.718V271.845C534.173 277.44 519.676 290.793 505.815 303.764L522.346 319.151L540.658 335.428C540.658 335.428 540.531 335.555 540.658 335.81C540.912 336.827 537.733 356.538 534.809 373.578C550.959 386.04 571.305 393.416 593.305 392.907C607.293 392.653 620.518 389.219 632.345 383.497L633.744 367.728C635.015 353.486 635.905 335.81 635.905 335.81L641.119 349.162L679.396 329.197C680.159 328.053 680.541 326.781 680.922 325.509Z" fill="#E51937"/>
<path d="M610.345 260.402C610.345 260.402 610.472 260.657 610.472 261.038C610.599 261.42 610.599 262.183 610.727 262.946C610.854 264.599 610.727 267.142 609.836 269.94C608.946 272.737 607.039 276.044 603.987 278.714C600.935 281.385 596.611 283.165 592.033 283.419C587.455 283.674 582.877 282.275 579.698 279.859C576.392 277.443 574.357 274.391 573.086 271.72C571.941 268.922 571.56 266.506 571.432 264.726C571.432 263.836 571.432 263.2 571.432 262.818C571.432 262.437 571.56 262.183 571.56 262.183C571.687 262.183 571.56 263.073 571.687 264.726C571.814 266.379 572.195 268.795 573.467 271.466C574.739 274.136 576.773 277.061 579.952 279.35C583.132 281.639 587.455 282.911 591.906 282.656C596.357 282.402 600.553 280.749 603.478 278.206C606.403 275.662 608.31 272.483 609.201 269.685C610.218 266.888 610.345 264.472 610.345 262.818C610.472 261.292 610.218 260.402 610.345 260.402Z" fill="#263238"/>
<path d="M645.316 268.414C645.316 268.541 644.298 268.414 642.772 269.049C641.119 269.558 638.958 270.957 637.05 273.373C635.143 275.789 633.871 279.35 633.489 283.419C633.235 285.454 633.108 287.616 633.108 289.777C632.981 292.066 632.981 294.355 632.981 296.644C632.854 306.055 633.489 314.702 634.125 320.806C634.38 323.858 634.761 326.401 634.888 328.054C635.015 328.817 635.015 329.453 635.143 330.089C635.143 330.598 635.143 330.725 635.143 330.725C635.143 330.725 635.015 330.47 635.015 330.089C634.888 329.58 634.761 328.944 634.634 328.182C634.38 326.528 633.998 323.985 633.617 320.933C632.854 314.702 632.218 306.182 632.345 296.644C632.345 294.228 632.472 291.939 632.472 289.777C632.599 287.488 632.726 285.327 632.981 283.292C633.489 279.223 634.761 275.535 636.796 273.119C638.83 270.703 641.119 269.304 642.772 268.795C644.298 268.159 645.316 268.414 645.316 268.414Z" fill="#263238"/>
<path d="M557.825 265.996C557.825 265.996 557.825 266.25 557.698 266.759C557.571 267.268 557.317 267.904 557.189 268.794C556.681 270.574 555.918 273.117 555.028 276.169C553.247 282.401 550.831 291.048 548.542 300.585C546.253 310.25 544.346 319.024 543.201 325.383C542.565 328.562 542.057 331.105 541.802 332.885C541.675 333.776 541.548 334.411 541.421 334.92C541.294 335.429 541.294 335.683 541.294 335.683C541.294 335.683 541.294 335.429 541.294 334.92C541.421 334.411 541.421 333.648 541.548 332.885C541.802 331.105 542.184 328.435 542.82 325.255C543.964 318.897 545.745 310.123 548.034 300.458C550.322 290.793 552.866 282.146 554.773 276.042C555.791 272.99 556.554 270.447 557.189 268.667C557.444 267.904 557.698 267.268 557.825 266.632C557.825 266.25 557.825 265.996 557.825 265.996Z" fill="#263238"/>
<path d="M680.159 319.406C680.159 319.406 679.651 319.788 678.633 320.551C677.616 321.187 676.217 322.204 674.437 323.348C670.876 325.637 665.79 328.817 660.067 331.996C654.345 335.302 649.131 337.972 645.316 340.007C643.408 341.024 641.882 341.787 640.738 342.296C639.593 342.805 639.085 343.059 638.958 343.059C638.958 343.059 639.466 342.678 640.611 342.042C641.755 341.406 643.281 340.643 645.062 339.626C648.876 337.591 654.09 334.793 659.686 331.487C665.408 328.181 670.495 325.129 674.055 322.967C675.836 321.95 677.234 321.059 678.379 320.296C679.523 319.661 680.159 319.406 680.159 319.406Z" fill="#263238"/>
<path d="M542.777 324.914C542.91 324.751 535.911 318.829 527.145 311.687C518.378 304.546 511.163 298.889 511.03 299.052C510.897 299.215 517.896 305.137 526.663 312.279C535.429 319.421 542.644 325.078 542.777 324.914Z" fill="#263238"/>
<path opacity="0.2" d="M632.472 299.188L646.842 346.493L641.501 349.291L636.287 335.938C636.16 335.811 630.819 307.835 632.472 299.188Z" fill="#101010"/>
<g opacity="0.2">
<path d="M559.479 265.996C551.722 270.065 571.178 279.857 579.953 279.602L573.594 262.816C573.467 262.816 562.022 264.597 559.479 265.996Z" fill="#101010"/>
</g>
<path opacity="0.2" d="M608.946 334.535L562.912 334.79L565.964 317.75L612.253 316.859L608.946 334.535Z" fill="#B7142C"/>
<path d="M604.495 205.846C604.114 207.118 604.623 208.644 605.64 209.407C606.657 210.297 608.183 210.424 609.328 209.789C611.49 208.644 611.744 205.465 611.235 203.049C610.727 200.633 609.836 197.962 610.854 195.673C611.617 193.893 613.27 192.748 614.669 191.35C616.958 188.933 618.102 185.373 617.466 182.066C616.831 178.76 614.287 175.835 611.108 175.072C607.802 174.182 603.732 175.327 601.316 172.911C599.536 171.257 599.282 168.333 597.883 166.298C595.721 163.119 591.143 162.737 587.328 163.373C583.513 164.009 579.698 165.281 575.883 164.39C572.704 163.627 570.161 161.593 567.236 160.321C560.878 157.523 552.739 159.304 548.034 164.39C543.329 169.477 542.311 177.743 545.745 183.847C546.889 186.009 548.797 188.043 551.086 188.933" fill="#263238"/>
<path d="M591.143 283.041C581.097 283.041 572.704 275.157 572.195 265.238C571.814 256.845 571.432 248.834 571.432 248.834C571.432 248.834 555.918 247.689 554.519 232.557C553.121 217.424 552.866 182.453 552.866 182.453C569.906 173.552 590.507 174.442 606.785 184.742L608.311 185.632L610.091 263.967C610.218 274.521 601.698 283.041 591.143 283.041Z" fill="#B5694A"/>
<path d="M582.242 205.849C581.097 206.231 580.461 207.502 580.843 208.647C581.224 209.791 582.496 210.427 583.64 210.046C584.785 209.664 585.421 208.393 585.039 207.248C584.658 206.104 583.386 205.468 582.242 205.849Z" fill="#263238"/>
<path d="M578.045 206.617C578.299 206.871 579.698 205.599 581.86 205.472C584.022 205.345 585.548 206.362 585.802 205.981C585.929 205.854 585.675 205.345 584.912 204.963C584.276 204.455 583.132 204.073 581.733 204.2C580.461 204.328 579.317 204.836 578.681 205.472C578.172 205.981 577.918 206.489 578.045 206.617Z" fill="#263238"/>
<path d="M559.225 205.849C558.08 206.231 557.444 207.502 557.826 208.647C558.207 209.791 559.479 210.427 560.623 210.046C561.768 209.664 562.404 208.393 562.022 207.248C561.641 206.104 560.369 205.468 559.225 205.849Z" fill="#263238"/>
<path d="M554.647 206.617C554.901 206.871 556.3 205.599 558.462 205.472C560.623 205.345 562.149 206.362 562.404 205.981C562.531 205.854 562.277 205.345 561.514 204.963C560.878 204.455 559.733 204.073 558.334 204.2C557.063 204.328 555.918 204.836 555.282 205.472C554.774 206.108 554.519 206.489 554.647 206.617Z" fill="#263238"/>
<path d="M570.543 223.015C570.543 222.888 569.271 222.634 567.109 222.634C566.6 222.634 566.092 222.507 566.092 222.252C565.965 221.871 566.092 221.362 566.346 220.599C566.728 219.2 567.236 217.674 567.618 216.275C569.398 210.044 570.67 204.958 570.288 204.831C569.907 204.703 568.254 209.663 566.473 215.894C566.092 217.42 565.583 218.819 565.202 220.345C565.074 220.981 564.693 221.744 565.074 222.634C565.202 223.015 565.71 223.397 566.092 223.397C566.473 223.524 566.728 223.397 566.982 223.397C569.271 223.27 570.543 223.142 570.543 223.015Z" fill="#263238"/>
<path d="M577.536 224.801C573.34 226.835 571.305 227.471 567.49 228.616C567.49 228.616 570.288 232.304 574.484 230.396C578.935 228.234 577.536 224.801 577.536 224.801Z" fill="#99583E"/>
<path d="M571.433 248.709C571.433 248.709 581.097 248.709 590.889 241.461C590.889 241.461 587.074 252.779 571.687 252.652L571.433 248.709Z" fill="#A36957"/>
<path d="M608.692 201.146C608.692 199.875 609.582 198.857 610.854 198.857C613.651 198.73 618.357 199.748 618.992 207.505C619.883 218.695 608.946 216.025 608.946 215.771C608.819 215.516 608.692 205.47 608.692 201.146Z" fill="#99583E"/>
<path d="M611.235 211.324C611.235 211.324 611.49 211.451 611.744 211.578C612.126 211.705 612.634 211.705 613.27 211.451C614.415 210.942 615.305 209.035 615.178 207C615.178 205.983 614.796 205.093 614.415 204.203C614.033 203.44 613.397 202.931 612.889 202.804C612.253 202.677 611.871 203.058 611.744 203.44C611.617 203.821 611.744 203.948 611.617 203.948C611.617 203.948 611.363 203.821 611.363 203.312C611.363 203.058 611.49 202.804 611.744 202.549C611.998 202.295 612.38 202.168 612.761 202.168C613.652 202.168 614.414 202.931 614.923 203.694C615.432 204.584 615.813 205.601 615.813 206.746C615.94 209.035 614.923 211.197 613.27 211.833C612.507 212.087 611.871 211.96 611.49 211.705C611.363 211.578 611.235 211.324 611.235 211.324Z" fill="#B5694A"/>
<path d="M585.548 200.378C585.039 201.014 583.386 200.76 581.224 200.633C579.062 200.505 577.409 200.505 577.028 199.87C576.519 199.234 578.681 197.581 581.478 197.835C584.276 197.962 586.056 199.742 585.548 200.378Z" fill="#263238"/>
<path d="M561.259 199.995C561.132 200.758 559.733 201.14 558.08 201.267C556.554 201.394 555.028 201.267 554.773 200.504C554.519 199.741 555.791 198.596 557.825 198.469C559.86 198.342 561.386 199.232 561.259 199.995Z" fill="#263238"/>
<path d="M550.831 187.277C550.831 187.277 559.987 191.728 571.941 185.751C579.825 181.809 588.854 179.901 590.888 181.554C592.923 183.08 593.305 191.219 601.062 193.508C601.062 193.508 600.553 208.895 606.657 208.386C612.761 207.878 608.946 183.971 608.946 183.971L593.94 176.595L577.536 173.543L562.022 175.705L550.068 179.011L550.831 187.277Z" fill="#263238"/>
<path d="M495.896 213.727C496.404 214.617 514.08 275.911 514.08 275.911L478.983 280.743L462.833 230.767L495.896 213.727Z" fill="#455A64"/>
<path d="M514.08 275.784L517.26 274.131L498.948 212.074L495.514 213.855L514.08 275.784Z" fill="#263238"/>
<path d="M480.055 231.722C480.879 231.546 481.404 230.734 481.227 229.91C481.05 229.086 480.239 228.562 479.415 228.738C478.591 228.915 478.066 229.727 478.243 230.551C478.42 231.375 479.231 231.899 480.055 231.722Z" fill="#E51937"/>
<path d="M507.468 303.765L484.451 318.771L480.254 265.107L480.636 262.436L496.15 256.587L491.699 245.142C489.537 239.801 483.179 237.385 478.092 240.055C476.439 240.945 474.659 241.836 473.133 242.599C469.572 244.379 466.902 247.685 465.885 251.5C464.104 258.113 462.578 265.361 462.705 264.725L452.786 333.777C452.786 333.777 448.081 353.742 461.688 363.152C471.989 370.273 489.283 362.77 498.439 357.557L538.242 333.522L507.468 303.765Z" fill="#B5694A"/>
<path d="M1045.09 259.036C1097.29 255.741 1136.94 210.748 1133.65 158.542C1130.35 106.335 1085.36 66.6844 1033.16 69.9793C980.949 73.2743 941.298 118.267 944.593 170.473C947.888 222.68 992.881 262.331 1045.09 259.036Z" fill="#303030"/>
<path d="M1074.72 33.918C1075.15 42.0002 1075.71 44.4106 1078.83 50.9331C1080.68 54.7615 1083.09 58.3063 1084.08 62.4183C1085.07 66.2467 1084.5 70.5005 1085.21 74.3289C1086.35 80.7096 1090.6 86.0977 1093.86 91.7694C1097.12 97.4412 1099.25 104.673 1095.99 110.486L1063.24 106.658L1060.97 65.9631L1074.72 33.918Z" fill="#263238"/>
<path d="M1009.5 20.168C1005.24 29.2427 1011.2 38.1757 1006.94 47.2504C1004.82 51.646 1002.69 56.1833 1001.56 61.0043C1000.56 65.3999 1000.28 69.9373 998.578 74.0493C995.742 80.5717 989.361 84.9673 986.384 91.348C981.988 100.848 986.667 112.9 995.033 119.139C1003.4 125.52 1014.6 127.08 1024.95 126.371C1031.33 125.945 1037.71 124.669 1043.24 121.408C1048.77 118.147 1053.03 112.617 1053.74 106.236" fill="#263238"/>
<path d="M1058.13 4.14453C1079.26 13.5029 1083.37 48.2421 1083.51 52.7795C1083.65 58.3094 1086.63 59.4437 1090.32 62.4214C1094 65.399 1097.55 68.8021 1098.68 73.3394C1099.53 76.8843 1098.68 80.8544 1100.39 84.1157C1102.37 87.9441 1107.19 89.362 1111.02 91.7725C1118.11 96.3099 1121.51 104.817 1121.94 113.041C1122.36 121.265 1120.09 129.348 1117.83 137.288C1116.97 140.407 1115.84 143.81 1113 145.512C1110.88 146.788 1108.04 146.788 1105.49 146.788C1092.16 146.505 1078.83 146.221 1065.36 145.937C1055.15 145.654 1044.66 145.37 1035.16 141.684C1027.5 138.564 1020.7 133.176 1016.59 126.086C1012.47 118.997 1011.06 110.489 1013.18 102.691C1014.88 96.7352 1018.57 91.2053 1019.56 85.1082C1020.84 77.4514 1014.46 74.1902 1012.19 66.817C1009.92 59.4437 1007.94 41.7196 1011.2 34.63" fill="#263238"/>
<path d="M1082.24 195.278L1075.71 174.151L1074.72 206.48C1074.72 206.48 1083.23 228.458 1089.75 245.331C1076.71 253.13 1061.68 258.092 1045.37 259.085C1025.24 260.361 1005.95 255.398 989.645 246.04L999.854 209.599L995.033 168.338L981.705 187.48L953.062 159.83C953.062 159.83 974.048 121.12 976.6 117.717C993.19 95.1724 1021.69 95.7396 1021.69 95.7396L1062.1 98.0083C1062.1 98.0083 1084.79 96.7321 1099.82 114.74C1099.82 114.74 1114.42 137.001 1126.33 192.017L1082.24 195.278Z" fill="#E51937"/>
<path d="M1102.51 120.702C1102.51 120.702 1102.37 120.702 1101.94 120.844C1101.52 120.844 1100.95 120.986 1100.24 121.128C1098.68 121.411 1096.56 121.837 1093.86 122.971C1091.17 124.105 1088.05 125.949 1085.07 128.784C1083.51 130.202 1082.09 131.904 1080.82 133.889C1079.54 135.874 1078.41 138.143 1077.84 140.695C1077.56 141.971 1077.56 143.247 1077.98 144.523C1078.41 145.8 1079.12 146.934 1080.25 147.785C1081.38 148.635 1082.8 148.919 1084.22 148.352C1085.5 147.926 1086.49 146.65 1086.91 145.232C1087.34 143.814 1087.34 142.255 1086.63 140.837C1085.92 139.419 1084.93 138.285 1083.51 137.292C1080.82 135.307 1077.56 134.173 1074.15 133.747C1070.75 133.322 1067.06 133.747 1063.52 134.74C1059.97 135.732 1056.43 137.008 1053.17 138.994C1049.91 140.979 1046.93 143.531 1044.66 146.792C1043.53 148.352 1042.68 150.195 1042.68 152.18C1042.68 153.173 1042.82 154.024 1043.38 154.874C1043.95 155.725 1044.66 156.292 1045.51 156.859C1046.5 157.143 1047.5 157.427 1048.35 157.001C1049.2 156.576 1049.91 155.725 1050.47 154.874C1051.47 152.889 1051.61 150.621 1051.61 148.352C1051.61 146.083 1051.32 143.956 1050.62 141.829C1049.91 139.844 1048.63 138.001 1047.07 136.441C1043.95 133.464 1039.84 131.762 1035.73 131.337C1031.62 130.911 1027.36 131.479 1023.53 132.755C1019.71 133.889 1015.88 135.449 1013.32 138.426C1012.19 139.844 1011.34 141.688 1011.48 143.531C1011.62 145.374 1012.62 147.076 1013.89 148.21C1014.6 148.777 1015.31 149.203 1016.16 149.203C1017.01 149.344 1017.86 149.061 1018.57 148.635C1019.99 147.785 1020.7 145.941 1020.84 144.382C1020.98 142.68 1020.84 140.979 1020.27 139.419C1019.99 138.568 1019.71 137.859 1019.42 137.15C1019.28 136.725 1019.14 136.441 1019 136.016L1018.43 135.023C1017.01 132.187 1015.03 129.777 1012.9 127.65C1008.65 123.538 1003.82 120.986 999.429 119.568C995.033 118.15 990.921 117.725 987.66 118.008C984.399 118.292 981.846 118.859 980.287 119.426C979.436 119.71 978.869 119.993 978.443 120.135C978.018 120.277 977.734 120.277 977.734 120.277C977.734 120.277 977.876 120.135 978.302 119.993C978.727 119.852 979.294 119.568 980.145 119.284C981.846 118.717 984.257 118.008 987.66 117.725C990.921 117.441 995.033 117.866 999.57 119.143C1004.11 120.56 1008.93 123.113 1013.32 127.225C1015.45 129.352 1017.44 131.762 1019 134.598L1019.56 135.732C1019.71 136.158 1019.85 136.441 1019.99 136.867C1020.27 137.576 1020.7 138.426 1020.84 139.277C1021.41 140.979 1021.55 142.68 1021.41 144.382C1021.26 146.083 1020.56 148.068 1018.85 149.203C1018 149.77 1017.01 149.912 1016.02 149.912C1015.03 149.77 1014.18 149.344 1013.32 148.777C1011.76 147.501 1010.77 145.658 1010.63 143.673C1010.49 142.68 1010.63 141.688 1011.06 140.695C1011.48 139.703 1011.91 138.852 1012.62 138.143C1015.31 135.023 1019.14 133.464 1023.11 132.187C1027.08 131.053 1031.33 130.344 1035.59 130.77C1039.84 131.195 1044.24 133.038 1047.35 136.158C1048.91 137.717 1050.33 139.561 1051.18 141.688C1052.03 143.814 1052.32 146.083 1052.32 148.352C1052.32 150.621 1052.03 153.031 1051.04 155.158C1050.47 156.15 1049.77 157.143 1048.63 157.71C1047.5 158.136 1046.22 157.994 1045.23 157.568C1044.38 157.001 1043.53 156.292 1042.96 155.3C1042.39 154.307 1042.11 153.315 1042.11 152.18C1042.11 150.053 1043.1 148.068 1044.24 146.367C1046.65 142.964 1049.77 140.411 1053.03 138.426C1056.29 136.299 1059.97 135.023 1063.52 134.031C1067.06 133.038 1070.75 132.613 1074.44 133.038C1077.98 133.464 1081.38 134.598 1084.08 136.725C1085.5 137.717 1086.63 138.994 1087.34 140.553C1088.05 142.113 1088.19 143.814 1087.62 145.374C1087.2 146.934 1086.06 148.352 1084.5 148.919C1082.94 149.486 1081.24 149.061 1080.11 148.21C1078.83 147.359 1077.98 146.083 1077.56 144.665C1077.13 143.247 1077.13 141.829 1077.41 140.553C1077.98 137.859 1079.26 135.591 1080.39 133.605C1081.67 131.62 1083.23 129.919 1084.65 128.501C1087.77 125.665 1090.89 123.822 1093.58 122.687C1096.27 121.553 1098.54 121.128 1100.1 120.986C1101.66 120.702 1102.51 120.702 1102.51 120.702Z" fill="#FAFAFA"/>
<path d="M1119.67 166.922C1119.67 167.064 1118.25 167.347 1115.98 168.623C1113.71 169.9 1110.74 172.452 1108.75 176.706C1108.18 177.698 1107.9 178.974 1107.62 180.109C1107.33 181.385 1107.19 182.661 1107.62 183.937C1107.76 184.504 1108.18 185.213 1108.61 185.497C1109.18 185.78 1109.74 185.922 1110.45 185.639C1111.73 185.071 1112.44 183.653 1112.58 182.235C1113 179.258 1111.16 175.997 1108.33 174.579C1105.35 173.161 1101.52 173.586 1098.68 175.429C1095.71 177.415 1094 180.534 1093.3 183.795C1092.87 185.355 1092.87 187.056 1093.72 188.333C1094.43 189.609 1096.13 190.459 1097.41 189.751C1098.68 189.183 1099.53 187.765 1099.53 186.347C1099.53 184.93 1098.97 183.653 1098.26 182.519C1096.84 180.25 1094.71 178.691 1092.44 177.84C1090.32 176.989 1088.05 176.989 1086.35 177.415C1084.5 177.84 1083.09 178.549 1082.09 179.4C1079.97 180.959 1079.4 182.377 1079.26 182.235C1079.26 182.235 1079.26 182.094 1079.4 181.952C1079.54 181.81 1079.68 181.527 1079.83 181.243C1080.25 180.676 1080.82 179.825 1081.95 178.974C1082.94 178.124 1084.5 177.273 1086.35 176.847C1088.19 176.422 1090.46 176.28 1092.73 177.131C1095 177.982 1097.27 179.541 1098.83 181.952C1099.53 183.086 1100.24 184.646 1100.24 186.206C1100.24 187.765 1099.39 189.467 1097.83 190.176C1096.98 190.601 1096.13 190.601 1095.28 190.176C1094.43 189.892 1093.86 189.183 1093.3 188.474C1092.3 186.915 1092.44 185.071 1092.87 183.37C1093.58 179.967 1095.56 176.706 1098.68 174.579C1101.8 172.452 1105.91 172.026 1109.03 173.586C1112.3 175.146 1114.14 178.691 1113.71 181.952C1113.57 183.512 1112.72 185.213 1111.16 185.78C1110.31 186.064 1109.46 185.922 1108.75 185.497C1108.04 185.071 1107.76 184.362 1107.47 183.653C1107.05 182.235 1107.19 180.818 1107.47 179.541C1107.76 178.265 1108.18 177.131 1108.75 175.997C1110.88 171.601 1114 169.191 1116.27 167.914C1118.11 167.064 1119.67 166.922 1119.67 166.922Z" fill="#FAFAFA"/>
<path d="M1074.86 187.202C1074.86 187.202 1074.72 187.202 1074.58 187.202C1074.3 187.202 1074.01 187.061 1073.59 186.919C1072.74 186.777 1071.32 186.493 1069.62 186.21C1066.21 185.784 1060.97 185.926 1055.3 188.195C1053.88 188.762 1052.46 189.471 1051.04 190.322C1049.62 191.173 1048.21 192.307 1047.35 193.867C1046.36 195.285 1045.94 197.27 1046.65 198.971C1046.93 199.822 1047.5 200.673 1048.21 201.24C1048.91 201.807 1049.91 201.949 1050.9 201.807C1052.74 201.382 1054.3 199.68 1054.59 197.695C1054.87 195.71 1054.16 193.583 1052.88 191.74C1050.47 188.053 1046.65 185.217 1042.11 184.083C1037.57 182.949 1032.75 183.799 1029.06 186.068C1027.22 187.202 1025.52 188.62 1024.24 190.322C1023.68 191.173 1023.25 192.165 1022.97 193.158C1022.68 194.15 1022.68 195.143 1023.25 195.994C1023.68 196.844 1024.53 197.411 1025.38 197.411C1026.23 197.411 1027.22 197.128 1027.93 196.702C1029.49 195.71 1030.06 193.725 1029.77 192.023C1029.63 190.322 1028.92 188.62 1028.07 187.202C1027.22 185.784 1026.23 184.508 1025.09 183.374C1022.82 181.247 1020.27 179.971 1018 179.12C1015.74 178.269 1013.61 178.128 1011.76 178.128C1008.36 178.128 1006.52 179.12 1006.52 178.978C1006.52 178.978 1006.66 178.978 1006.8 178.837C1007.09 178.695 1007.37 178.695 1007.79 178.553C1008.65 178.269 1010.06 177.986 1011.76 177.844C1013.47 177.702 1015.74 177.986 1018 178.695C1020.41 179.404 1022.97 180.822 1025.24 182.949C1026.37 184.083 1027.5 185.359 1028.35 186.777C1029.21 188.337 1029.91 189.896 1030.06 191.882C1030.2 192.874 1030.06 193.867 1029.77 194.717C1029.49 195.71 1028.78 196.561 1027.93 197.128C1027.08 197.695 1026.09 198.12 1024.95 197.979C1023.82 197.837 1022.82 197.27 1022.26 196.135C1021.69 195.143 1021.69 193.867 1021.97 192.874C1022.26 191.74 1022.68 190.747 1023.39 189.896C1024.67 188.053 1026.51 186.635 1028.5 185.501C1032.47 183.232 1037.43 182.24 1042.11 183.374C1046.79 184.508 1050.9 187.486 1053.31 191.314C1054.59 193.299 1055.3 195.568 1055.01 197.837C1054.73 200.106 1053.03 202.091 1050.76 202.516C1049.62 202.8 1048.49 202.516 1047.64 201.807C1046.79 201.24 1046.22 200.247 1045.8 199.255C1045.51 198.262 1045.37 197.27 1045.51 196.277C1045.65 195.285 1046.08 194.434 1046.65 193.583C1047.64 192.023 1049.2 190.889 1050.62 189.896C1052.03 189.046 1053.59 188.337 1055.01 187.77C1060.83 185.501 1066.21 185.501 1069.62 185.926C1073.16 186.493 1074.86 187.202 1074.86 187.202Z" fill="#FAFAFA"/>
<path d="M916.48 69.0884C919.458 69.2302 918.607 85.2528 920.734 81.8497C922.861 78.4467 919.458 62.1405 922.577 62.4241C926.547 62.8495 925.413 79.581 925.413 80.999C925.413 82.4169 927.54 82.4169 927.398 81.1408C927.256 79.2975 926.689 59.8718 930.659 60.1554C932.786 60.2972 932.077 64.2674 932.077 64.2674C932.077 64.2674 931.368 82.5587 933.211 82.5587C935.055 82.7005 935.906 71.9242 935.906 68.3794C935.906 64.8346 937.607 63.2748 939.167 64.551C940.301 65.4017 940.443 76.4616 940.301 80.1482C940.159 83.693 939.734 93.6185 943.846 88.7976C947.958 83.9766 952.921 81.8497 954.622 82.2751C956.324 82.5587 956.466 85.111 954.622 85.9617C953.204 86.6707 951.077 88.514 949.659 89.9319C948.383 91.0663 947.533 92.626 946.54 94.0439C945.547 95.6036 945.122 96.5962 944.413 99.1484L949.943 165.933L954.055 160.828L977.451 183.373L965.257 197.411C956.324 207.62 940.159 208.329 931.085 198.262C930.801 197.836 930.376 197.553 930.092 197.127C927.823 194.291 926.547 190.605 926.264 186.918L918.607 100.283C918.465 90.6409 915.771 83.2677 915.346 78.3049C914.495 69.0884 915.346 69.0884 916.48 69.0884Z" fill="#B5694A"/>
<path d="M1024.53 104.817C1024.67 94.7494 1024.53 84.1149 1024.53 84.1149C1024.53 84.1149 1011.62 81.8462 1009.07 64.8311C1006.66 48.6667 1010.77 13.7857 1010.77 13.7857C1029.49 6.41243 1050.76 9.24829 1063.8 24.4201L1061.82 106.235C1061.53 115.735 1053.17 123.108 1043.1 122.824C1032.61 122.399 1024.38 114.459 1024.53 104.817Z" fill="#B5694A"/>
<path d="M1014.17 40.5867C1014.17 41.721 1015.03 42.7136 1016.3 42.8553C1017.44 42.9971 1018.57 42.0046 1018.57 40.8702C1018.57 39.7359 1017.72 38.7434 1016.44 38.6016C1015.31 38.6016 1014.17 39.4523 1014.17 40.5867Z" fill="#263238"/>
<path d="M1010.63 38.041C1010.91 38.3245 1012.61 37.1902 1014.88 37.1902C1017.15 37.1902 1018.85 38.4663 1019.14 38.1828C1019.28 38.041 1019 37.4738 1018.29 37.0484C1017.58 36.4812 1016.3 35.9141 1014.88 35.9141C1013.47 35.9141 1012.19 36.4812 1011.48 36.9066C1010.77 37.4738 1010.63 37.8992 1010.63 38.041Z" fill="#263238"/>
<path d="M1038.14 41.2916C1038.14 42.4259 1038.99 43.4185 1040.27 43.5603C1041.4 43.7021 1042.53 42.7095 1042.53 41.5752C1042.53 40.4408 1041.68 39.4483 1040.41 39.3065C1039.13 39.1647 1038.14 40.1573 1038.14 41.2916Z" fill="#263238"/>
<path d="M1035.02 39.162C1035.3 39.4456 1037 38.3113 1039.27 38.3113C1041.54 38.3113 1043.24 39.5874 1043.53 39.3038C1043.67 39.1621 1043.38 38.5949 1042.68 38.1695C1041.97 37.6023 1040.69 37.0352 1039.27 37.0352C1037.85 37.0352 1036.58 37.6023 1035.87 38.0277C1035.16 38.5949 1035.02 39.0203 1035.02 39.162Z" fill="#263238"/>
<path d="M1026.37 56.4636C1026.37 56.3218 1024.95 56.0382 1022.54 55.7546C1021.97 55.7546 1021.41 55.6128 1021.26 55.1875C1021.12 54.7621 1021.41 54.0531 1021.69 53.4859C1022.26 52.068 1022.82 50.5083 1023.53 48.9486C1026.09 42.5679 1027.93 37.1798 1027.65 37.038C1027.36 36.8962 1025.09 42.1425 1022.54 48.5232C1021.97 50.0829 1021.41 51.6426 1020.84 53.0606C1020.56 53.7695 1020.27 54.4785 1020.56 55.3292C1020.7 55.7546 1021.12 56.0382 1021.55 56.18C1021.97 56.3218 1022.26 56.3218 1022.54 56.3218C1024.95 56.6054 1026.37 56.6054 1026.37 56.4636Z" fill="#263238"/>
<path d="M1024.53 84.1182C1024.53 84.1182 1035.87 84.9689 1047.35 78.3047C1047.35 78.3047 1041.68 89.9317 1024.81 88.0884L1024.53 84.1182Z" fill="#99583E"/>
<path d="M1027.36 62.1358C1028.21 61.0015 1029.63 60.4343 1031.19 60.5761C1032.18 60.7179 1033.18 61.1433 1033.88 61.994C1034.45 62.8448 1034.59 63.9791 1034.03 64.8299C1033.32 65.6806 1032.04 65.9642 1030.91 65.5388C1029.77 65.2553 1028.78 64.4045 1027.93 63.6955C1027.65 63.5537 1027.36 63.2702 1027.22 62.9866C1027.08 62.703 1027.08 62.4194 1027.36 62.1358Z" fill="#99583E"/>
<path d="M1033.32 58.168C1032.89 58.168 1032.89 60.7202 1030.76 62.4218C1028.64 64.2651 1025.94 63.8397 1025.8 64.2651C1025.8 64.4069 1026.37 64.8322 1027.5 64.8322C1028.64 64.8322 1030.2 64.5487 1031.62 63.4143C1032.89 62.28 1033.6 60.862 1033.6 59.8695C1033.74 58.7352 1033.46 58.168 1033.32 58.168Z" fill="#263238"/>
<path d="M1056.43 12.3674C1050.19 21.1586 1033.88 30.2333 1022.12 32.3602C1023.53 30.5169 1030.76 26.1213 1032.04 24.278C1026.65 28.2482 1019.14 33.6363 1012.05 33.9199C1011.2 33.9199 1010.35 33.9199 1009.64 33.4945C1008.65 32.9274 1008.5 31.793 1008.36 30.8005C1007.94 26.6885 1008.22 19.5988 1008.79 15.4868C1009.5 11.3749 1011.34 7.26286 1014.88 4.56879C1019.42 1.02397 1025.94 0.173221 1032.04 0.0314282C1037.15 -0.110365 1042.39 0.173223 1047.07 2.01653C1051.75 3.85984 1055.72 7.54645 1056.43 11.942" fill="#263238"/>
<path d="M1074.15 51.9286C1075 47.533 1075.71 43.421 1075.85 40.5851C1076.42 31.794 1073.87 -0.392987 1043.67 2.15928L1050.9 11.3758C1050.9 11.3758 1044.94 30.9432 1057.56 44.4135C1057.56 44.4135 1058.27 52.3539 1067.06 61.4287C1067.21 61.4287 1072.31 61.2869 1074.15 51.9286Z" fill="#263238"/>
<path d="M1057.28 42.9897C1059.12 42.7061 1060.97 42.7061 1062.67 43.4151C1064.37 44.124 1065.93 45.4002 1066.64 47.1017C1067.35 48.8032 1067.21 50.7883 1066.64 52.4898C1065.93 54.1913 1064.8 55.751 1063.52 57.0272C1062.53 57.8779 1061.53 58.7287 1060.26 59.1541C1058.98 59.5794 1057.56 59.4376 1056.43 58.5869" fill="#99583E"/>
<path d="M1058.13 54.0595C1057.99 54.0595 1058.7 55.1939 1060.4 54.7685C1061.25 54.6267 1061.96 53.9177 1062.53 53.067C1062.95 52.2162 1063.38 51.2237 1063.52 50.0893C1063.66 48.955 1063.38 47.8206 1062.81 46.8281C1062.24 45.9773 1061.25 45.4102 1060.4 45.4102C1058.7 45.4102 1058.13 46.5445 1058.41 46.5445C1058.56 46.6863 1059.27 46.1191 1060.4 46.4027C1061.53 46.5445 1062.53 48.1042 1062.24 49.9475C1061.96 51.7909 1061.25 53.4923 1060.26 53.9177C1058.98 54.3431 1058.27 53.9177 1058.13 54.0595Z" fill="#B5694A"/>
<path d="M1078.55 216.411V208.612H1024.1L1008.08 138.566L926.547 139.275L946.256 216.411H1078.55Z" fill="#263238"/>
<path d="M972.544 182.561C975.374 181.641 976.687 177.877 975.477 174.154C974.266 170.43 970.991 168.157 968.161 169.077C965.331 169.997 964.018 173.761 965.229 177.484C966.439 181.208 969.714 183.481 972.544 182.561Z" fill="#E51937"/>
<path d="M1004.39 215.839C1002.97 213.287 1001.84 210.451 1000.99 207.615C1000.85 206.906 1000.56 206.197 1000.7 205.488C1000.85 204.779 1001.27 204.07 1001.98 203.929C1003.26 203.645 1004.11 205.205 1004.53 206.481C1006.38 211.018 1010.49 214.421 1015.17 215.414L1018.43 215.272V215.13L1089.75 208.75L1086.35 194.57L1124.06 191.734L1127.47 205.63C1129.31 223.071 1115.27 237.959 1097.83 237.392H1016.02C990.07 239.093 985.107 216.123 985.107 216.123L1004.39 215.839Z" fill="#B5694A"/>
</svg>
