<svg width="1442" height="498" viewBox="0 0 1442 498" fill="none" xmlns="http://www.w3.org/2000/svg">
<path d="M747.182 468.808L129.064 180.311H1317.22L747.182 468.808Z" stroke="#303030" stroke-width="3.79602" stroke-dasharray="7.59 7.59"/>
<path d="M262.751 203.084C264.148 131.226 207.029 71.8406 135.171 70.443C63.3134 69.0454 3.92812 126.165 2.53054 198.023C1.13296 269.88 58.2523 329.266 130.11 330.663C201.968 332.061 261.353 274.942 262.751 203.084Z" fill="white" fill-opacity="0.1"/>
<path d="M255.033 244.377L231.528 208.643L191.971 233.485L227.897 288.712C227.897 288.712 247.58 267.309 255.033 244.377Z" fill="#99583E"/>
<path d="M108.08 65.896C109.991 63.794 107.316 60.3543 104.64 59.3988C101.965 58.4433 98.5252 57.87 97.1876 55.3858C95.6588 52.3283 98.3341 48.6974 98.9074 45.2577C99.4807 41.6269 97.3787 37.9961 96.6143 34.3653C95.8499 29.5879 97.5698 24.6194 101.201 21.5618C104.831 18.5043 110.182 17.5488 114.577 19.0776C114.959 11.816 119.928 5.12761 126.807 2.83446C133.687 0.541311 141.713 2.83446 146.299 8.56733C149.93 5.89199 153.561 3.02555 157.574 1.49679C161.778 -0.223073 166.555 -0.605266 170.568 1.1146C174.581 2.83446 177.639 7.42075 176.874 11.816C179.932 8.18513 185.665 7.42076 190.06 9.52281C194.455 11.6249 197.322 16.0201 198.659 20.6064C200.379 27.1036 198.85 34.7474 193.691 38.9516C188.531 43.1557 179.741 42.7735 175.919 37.2317" fill="#263238"/>
<path d="M133.496 175.59C147.637 175.59 159.485 164.506 160.058 150.556C160.631 138.899 161.204 127.625 161.204 127.625C161.204 127.625 182.989 126.096 184.9 104.693C186.811 83.4815 187.193 34.1788 187.193 34.1788C163.115 21.5665 134.26 22.9042 111.52 37.4275L109.417 38.7651L106.933 148.836C106.742 163.551 118.59 175.59 133.496 175.59Z" fill="#B5694A"/>
<path d="M145.917 67.0451C147.637 67.6184 148.401 69.3383 147.828 71.0581C147.255 72.778 145.535 73.5424 143.815 72.9691C142.095 72.3958 141.331 70.6759 141.904 68.9561C142.477 67.4273 144.197 66.4718 145.917 67.0451Z" fill="#263238"/>
<path d="M151.841 68.1897C151.458 68.5719 149.548 66.8521 146.49 66.661C143.624 66.4699 141.33 67.8075 140.948 67.4253C140.757 67.2342 141.139 66.661 142.095 65.8966C143.05 65.3233 144.77 64.75 146.49 64.75C148.401 64.9411 149.93 65.7055 150.694 66.4699C151.841 67.2342 152.032 67.9986 151.841 68.1897Z" fill="#263238"/>
<path d="M178.403 67.0451C180.122 67.6184 180.887 69.3383 180.314 71.0581C179.74 72.778 178.02 73.5424 176.301 72.9691C174.581 72.3958 173.816 70.6759 174.39 68.9561C174.963 67.4273 176.683 66.4718 178.403 67.0451Z" fill="#263238"/>
<path d="M184.709 68.1897C184.326 68.5719 182.415 66.8521 179.358 66.661C176.491 66.4699 174.198 67.8075 173.816 67.4253C173.625 67.2342 174.007 66.661 174.963 65.8966C175.918 65.3233 177.638 64.75 179.358 64.75C181.269 64.9411 182.798 65.7055 183.562 66.4699C184.709 67.4253 184.9 67.9986 184.709 68.1897Z" fill="#263238"/>
<path d="M162.351 91.1145C162.351 90.9234 164.262 90.7323 167.128 90.5412C167.893 90.5412 168.466 90.3501 168.657 89.968C168.848 89.5858 168.657 88.6303 168.275 87.6748C167.702 85.7639 167.129 83.6618 166.364 81.5597C163.88 72.7693 162.16 65.6988 162.542 65.5077C162.924 65.3166 165.409 72.3871 167.893 81.1776C168.466 83.2796 169.039 85.3817 169.613 87.2926C169.804 88.2481 170.186 89.2036 169.804 90.5412C169.613 91.1145 168.848 91.4967 168.275 91.6878C167.702 91.8789 167.32 91.6878 166.937 91.6878C164.262 91.6878 162.351 91.3056 162.351 91.1145Z" fill="#263238"/>
<path d="M152.605 93.6113C158.529 96.4778 161.204 97.4332 166.746 98.962C166.746 98.962 162.924 104.122 156.809 101.446C150.503 98.5798 152.605 93.6113 152.605 93.6113Z" fill="#99583E"/>
<path d="M161.204 127.241C161.204 127.241 147.636 127.241 133.877 117.113C133.877 117.113 139.228 132.974 160.822 132.783L161.204 127.241Z" fill="#99583E"/>
<path d="M108.843 70.1052C108.843 68.3854 107.506 66.8566 105.786 66.8566C101.773 66.6655 95.2755 68.1943 94.32 79.0867C93.1734 94.7566 108.461 91.1258 108.461 90.7436C108.652 90.3614 108.652 76.2203 108.843 70.1052Z" fill="#99583E"/>
<path d="M105.212 84.4365C105.212 84.4365 104.83 84.6276 104.448 84.8187C104.066 85.0098 103.11 85.0098 102.346 84.6276C100.817 83.8632 99.4794 81.1879 99.6705 78.3215C99.6705 76.9838 100.053 75.6461 100.817 74.4996C101.39 73.353 102.155 72.5886 103.11 72.5886C103.875 72.3975 104.448 72.9708 104.639 73.5441C104.83 73.9263 104.639 74.3085 104.83 74.3085C104.83 74.3085 105.212 74.1174 105.021 73.353C105.021 72.9708 104.83 72.5886 104.448 72.3975C104.066 72.0153 103.492 71.8242 102.919 71.8242C101.773 71.8242 100.435 72.7797 99.8616 74.1174C99.0972 75.2639 98.715 76.7927 98.5239 78.3215C98.3328 81.5701 99.8616 84.6276 101.964 85.392C103.11 85.7742 104.066 85.5831 104.448 85.2009C105.021 84.8187 105.212 84.4365 105.212 84.4365Z" fill="#B5694A"/>
<path d="M141.33 59.4038C141.904 60.3593 144.388 59.786 147.446 59.786C150.503 59.5949 152.796 59.5949 153.369 58.6394C153.943 57.684 151.076 55.3908 147.254 55.773C143.241 55.9641 140.566 58.4484 141.33 59.4038Z" fill="#263238"/>
<path d="M175.537 58.8275C175.728 59.9741 177.639 60.3563 179.932 60.5474C182.225 60.7385 184.136 60.5474 184.518 59.5919C184.9 58.6364 182.99 56.9165 180.123 56.7254C177.448 56.5343 175.346 57.872 175.537 58.8275Z" fill="#263238"/>
<path d="M190.251 41.0621C190.251 41.0621 177.257 47.3682 160.631 38.96C149.548 33.4183 136.744 30.7429 133.878 33.036C131.011 35.3292 130.438 46.6039 119.546 49.8525C119.546 49.8525 120.31 71.4463 111.711 70.6819C103.111 69.9175 108.462 36.2847 108.462 36.2847L129.674 25.9655L152.796 21.5703L174.581 24.6278L191.398 29.2141L190.251 41.0621Z" fill="#263238"/>
<path d="M45.5924 166.421C68.1417 143.107 107.89 145.783 107.89 145.783L159.485 147.694C159.485 147.694 179.168 149.796 197.513 159.542L198.851 159.924V160.115C213.374 167.95 233.822 186.868 253.313 205.022L230 226.616L204.202 249.548C204.202 249.548 204.393 249.739 204.202 249.93C204.011 251.268 208.406 278.976 212.419 303.054C189.679 320.635 161.205 330.954 130.248 330.381C110.565 329.999 92.0286 325.222 75.4033 317.004L73.4923 294.837C71.7725 274.772 70.4348 249.93 70.4348 249.93" fill="#E51937"/>
<path d="M180.124 151.512C180.124 151.512 180.315 151.894 180.506 152.467C180.697 153.232 181.079 154.187 181.462 155.334C182.226 157.818 183.373 161.258 184.71 165.653C187.386 174.443 190.825 186.482 194.074 200.05C197.323 213.618 199.807 226.039 201.336 235.021C202.1 239.607 202.673 243.238 203.055 245.722C203.247 246.868 203.438 247.824 203.438 248.588C203.438 249.162 203.629 249.544 203.438 249.544C203.247 249.544 203.247 249.162 203.247 248.588C203.055 247.824 202.864 246.868 202.673 245.722C202.1 243.047 201.527 239.416 200.571 235.212C198.851 226.23 196.176 214 192.927 200.432C189.679 186.864 186.239 174.825 183.755 166.035C182.417 161.831 181.462 158.2 180.697 155.716C180.315 154.569 180.124 153.614 179.933 152.849C180.315 151.894 180.124 151.512 180.124 151.512Z" fill="#263238"/>
<path d="M224.027 216.838C236.382 206.772 246.236 198.414 246.036 198.168C245.836 197.923 235.658 205.883 223.303 215.949C210.947 226.014 201.093 234.373 201.293 234.618C201.493 234.864 211.671 226.903 224.027 216.838Z" fill="#263238"/>
<path opacity="0.2" d="M75.4034 198.334L55.1473 264.835L62.6 268.657L70.0528 249.93C70.0528 249.93 77.6966 210.373 75.4034 198.334Z" fill="#101010"/>
<g opacity="0.2">
<path d="M178.022 151.703C188.914 157.436 161.588 171.195 149.357 170.813L158.339 147.117C158.148 147.117 174.391 149.793 178.022 151.703Z" fill="#101010"/>
</g>
<path d="M104.641 147.116V129.535C104.641 129.535 139.038 138.326 140.184 158.964C140.184 158.964 144.58 136.224 162.352 135.077L164.836 166.99L144.197 184.953H123.368L106.743 170.621L104.641 148.454" fill="#E51937"/>
<path d="M148.02 257.761C148.02 257.761 148.02 257.379 148.02 256.805C148.02 256.041 148.02 255.085 148.02 253.939C148.02 251.455 148.211 248.015 148.211 243.62C148.211 234.829 148.02 222.981 146.873 209.605C145.727 196.419 144.007 184.571 142.478 175.972C141.714 171.768 141.14 168.137 140.567 165.844C140.376 164.697 140.185 163.742 139.994 163.168C139.803 162.595 139.803 162.213 139.803 162.213C139.803 162.213 139.994 162.595 140.185 163.168C140.376 163.933 140.567 164.888 140.949 165.844C141.523 168.137 142.287 171.577 143.051 175.972C144.771 184.571 146.491 196.419 147.638 209.796C148.784 222.981 148.975 235.02 148.593 243.811C148.402 248.206 148.402 251.646 148.211 254.13C148.211 255.276 148.02 256.232 148.02 256.996C148.211 257.379 148.02 257.761 148.02 257.761Z" fill="#263238"/>
<path d="M138.656 153.042C138.656 153.042 137.892 152.66 136.554 153.233C135.981 153.424 135.217 153.997 134.643 154.762C134.07 155.526 133.497 156.481 133.115 157.628C131.013 162.214 128.337 168.712 126.617 176.738L126.426 177.311L125.853 176.929C123.751 175.782 121.649 174.253 119.547 172.916C115.534 170.049 111.712 167.183 108.463 164.507C106.743 163.17 105.406 161.45 104.641 159.539C103.877 157.628 103.495 155.908 103.495 154.188C103.304 150.94 103.877 148.264 104.259 146.544C104.641 144.825 104.833 143.869 105.024 143.869C105.024 143.869 105.024 144.825 104.641 146.736C104.45 148.455 104.068 151.131 104.259 154.379C104.45 155.908 104.641 157.628 105.406 159.348C106.17 161.068 107.508 162.597 109.037 163.934C112.285 166.61 116.107 169.476 120.12 172.342C122.222 173.68 124.324 175.018 126.426 176.355L125.662 176.738C127.573 168.712 130.248 162.214 132.541 157.628C133.115 156.481 133.688 155.526 134.261 154.762C134.835 153.997 135.79 153.424 136.363 153.233C138.083 152.468 138.848 153.042 138.656 153.042Z" fill="#263238"/>
<path d="M162.352 135.264C162.352 135.264 162.543 136.219 162.543 137.939C162.734 139.85 162.925 142.334 163.116 145.392C163.307 148.64 163.689 152.271 164.454 156.475C164.645 158.577 165.409 160.679 164.836 163.164C164.071 165.648 162.352 167.368 160.441 168.897C157.765 170.999 154.899 172.527 152.797 174.629L152.032 175.394V174.247C151.459 166.986 149.166 160.871 146.873 157.049C144.58 153.036 142.86 151.125 143.051 150.934C143.051 150.934 143.624 151.316 144.389 152.271C145.153 153.227 146.3 154.755 147.446 156.666C149.739 160.488 152.415 166.603 152.988 174.056L152.223 173.865C154.326 171.572 157.192 169.852 159.867 167.941C161.778 166.603 163.498 164.884 164.071 162.781C164.645 160.679 163.88 158.577 163.689 156.475C163.116 152.271 162.734 148.449 162.543 145.392C162.352 142.143 162.352 139.659 162.352 137.939C162.352 136.219 162.352 135.264 162.352 135.264Z" fill="#263238"/>
<path d="M272.996 139.656C271.658 141.376 221.018 209.024 221.018 209.024L228.088 213.037L280.066 146.154L272.996 139.656Z" fill="#455A64"/>
<path d="M69.6702 193.169C69.6702 193.169 122.986 269.798 126.043 271.327C132.35 274.384 205.157 211.323 212.228 205.399C213.183 204.061 215.094 201.386 219.107 196.035C219.107 196.035 224.84 169.664 230.955 171.766C237.07 173.868 227.515 185.142 231.528 195.079C235.541 205.016 253.887 181.321 254.46 179.027L259.237 172.912C259.237 172.912 264.206 186.862 263.823 192.786C262.677 211.514 244.905 233.872 244.905 233.872C244.905 233.872 165.218 332.668 110.565 335.726C94.8949 336.681 66.8038 291.965 48.2675 258.523C36.9928 238.267 42.5346 212.851 61.262 199.284L69.6702 193.169Z" fill="#B5694A"/>
<path d="M255.033 196.031C254.841 196.031 256.561 192.973 258.472 189.151C260.383 185.329 261.721 182.081 261.912 182.272C262.103 182.272 260.957 185.711 259.046 189.533C257.135 193.355 255.224 196.222 255.033 196.031Z" fill="#EB996E"/>
<path d="M60.6889 155.707C60.6889 155.707 3.55128 175.963 45.9745 272.084L111.903 232.336L102.539 209.787L60.6889 155.707Z" fill="#E51937"/>
<path d="M56.2945 157.43C56.2945 157.43 56.4856 157.43 56.6767 157.43C57.0589 157.43 57.4411 157.43 58.0144 157.43C59.161 157.43 60.8808 157.621 63.174 158.194C65.276 158.767 67.9514 159.723 70.6267 161.443C73.302 163.162 76.1685 165.456 78.8438 168.322C84.3856 174.055 89.5452 182.081 94.3226 191.445C99.1 200.808 103.686 211.51 108.273 222.593C109.61 226.033 110.948 229.282 112.286 232.339L112.477 232.721L112.094 232.912C92.9849 243.232 76.3596 253.168 64.7027 260.43C58.7788 264.061 54.1925 267.118 50.9438 269.221C49.4151 270.176 48.0774 270.94 47.313 271.705C46.5486 272.278 45.9753 272.469 45.9753 272.469C45.9753 272.469 46.3575 272.087 47.1219 271.514C47.8863 270.94 49.224 269.985 50.7527 269.029C53.8103 266.927 58.5877 263.679 64.3205 260.048C75.9774 252.595 92.6027 242.658 111.712 232.339L111.521 232.912C110.184 229.855 108.846 226.415 107.508 223.166C102.922 211.892 98.3356 201.382 93.5582 192.018C88.7808 182.654 83.8123 174.628 78.4616 168.895C75.7863 166.029 73.1109 163.736 70.4356 162.016C67.7603 160.296 65.276 159.34 63.174 158.767C58.7788 157.238 56.2945 157.43 56.2945 157.43Z" fill="#263238"/>
<path d="M865.942 377.93C863.367 442.615 815.739 496.037 751.054 497.324C686.369 498.611 632.947 447.121 631.66 382.436C630.373 317.751 682.024 258.054 746.548 263.042C815.256 268.352 868.195 319.038 865.942 377.93Z" fill="#303030"/>
<path d="M851.621 411.23L815.095 433.758L828.451 466.1C840.841 454.676 850.656 440.516 857.092 424.747L851.621 411.23Z" fill="#B5694A"/>
<path d="M861.598 411.876C856.931 400.613 840.68 363.282 827.002 349.283C806.728 328.365 770.846 331.261 770.846 331.261L724.343 332.87C724.343 332.87 706.643 334.801 690.07 343.49L688.943 343.812V343.973C675.91 351.053 657.566 367.948 640.027 384.361L660.945 403.831L684.116 424.427C684.116 424.427 683.955 424.588 684.116 424.91C684.438 426.197 680.415 451.138 676.714 472.699C697.15 488.468 722.895 497.801 750.732 497.157C768.432 496.836 785.166 492.491 800.131 485.25L801.901 465.298C803.51 447.276 804.636 424.91 804.636 424.91L811.233 441.805L859.667 416.542C860.632 415.094 861.115 413.485 861.598 411.876Z" fill="#E51937"/>
<path d="M772.294 329.494C772.294 329.494 772.455 329.816 772.455 330.299C772.616 330.781 772.616 331.747 772.777 332.712C772.937 334.804 772.777 338.022 771.65 341.562C770.524 345.102 768.11 349.286 764.248 352.665C760.387 356.044 754.916 358.297 749.123 358.618C743.33 358.94 737.538 357.17 733.515 354.113C729.331 351.056 726.757 347.194 725.148 343.815C723.7 340.275 723.217 337.218 723.056 334.965C723.056 333.839 723.056 333.034 723.056 332.551C723.056 332.069 723.217 331.747 723.217 331.747C723.378 331.747 723.217 332.873 723.378 334.965C723.539 337.057 724.021 340.114 725.631 343.493C727.24 346.872 729.814 350.573 733.837 353.469C737.859 356.366 743.33 357.975 748.962 357.653C754.594 357.331 759.904 355.239 763.605 352.021C767.306 348.803 769.719 344.78 770.846 341.24C772.133 337.7 772.294 334.643 772.294 332.551C772.455 330.62 772.133 329.494 772.294 329.494Z" fill="#263238"/>
<path d="M816.543 339.63C816.543 339.791 815.256 339.63 813.325 340.435C811.233 341.078 808.498 342.848 806.084 345.905C803.671 348.963 802.062 353.468 801.579 358.617C801.257 361.192 801.096 363.927 801.096 366.663C800.935 369.559 800.935 372.455 800.935 375.352C800.774 387.259 801.579 398.2 802.384 405.924C802.705 409.786 803.188 413.004 803.349 415.096C803.51 416.061 803.51 416.866 803.671 417.67C803.671 418.314 803.671 418.475 803.671 418.475C803.671 418.475 803.51 418.153 803.51 417.67C803.349 417.027 803.188 416.222 803.027 415.257C802.705 413.165 802.223 409.947 801.74 406.085C800.774 398.201 799.97 387.42 800.131 375.352C800.131 372.294 800.292 369.398 800.292 366.663C800.453 363.766 800.614 361.031 800.935 358.456C801.579 353.307 803.188 348.641 805.763 345.584C808.337 342.526 811.233 340.756 813.325 340.113C815.256 339.308 816.543 339.63 816.543 339.63Z" fill="#263238"/>
<path d="M705.838 336.572C705.838 336.572 705.838 336.894 705.678 337.538C705.517 338.181 705.195 338.986 705.034 340.112C704.39 342.365 703.425 345.583 702.298 349.445C700.046 357.329 696.989 368.271 694.092 380.339C691.196 392.568 688.782 403.671 687.334 411.716C686.529 415.739 685.886 418.957 685.564 421.21C685.403 422.336 685.242 423.141 685.081 423.784C684.92 424.428 684.92 424.75 684.92 424.75C684.92 424.75 684.92 424.428 684.92 423.784C685.081 423.141 685.081 422.175 685.242 421.21C685.564 418.957 686.047 415.578 686.851 411.555C688.299 403.51 690.552 392.407 693.449 380.178C696.345 367.949 699.563 357.008 701.977 349.284C703.264 345.422 704.229 342.204 705.034 339.951C705.356 338.986 705.678 338.181 705.838 337.377C705.838 336.894 705.838 336.572 705.838 336.572Z" fill="#263238"/>
<path d="M860.632 404.152C860.632 404.152 859.989 404.635 858.701 405.601C857.414 406.405 855.644 407.692 853.391 409.141C848.886 412.037 842.45 416.06 835.209 420.082C827.968 424.266 821.371 427.645 816.543 430.219C814.13 431.507 812.199 432.472 810.751 433.116C809.303 433.759 808.659 434.081 808.498 434.081C808.498 434.081 809.142 433.599 810.59 432.794C812.038 431.989 813.969 431.024 816.222 429.737C821.049 427.162 827.646 423.622 834.726 419.439C841.967 415.255 848.403 411.393 852.909 408.658C855.161 407.371 856.931 406.244 858.38 405.279C859.828 404.474 860.632 404.152 860.632 404.152Z" fill="#263238"/>
<path d="M686.797 411.122C686.965 410.915 678.11 403.422 667.017 394.385C655.924 385.349 646.795 378.191 646.627 378.397C646.459 378.604 655.314 386.097 666.407 395.134C677.5 404.171 686.629 411.329 686.797 411.122Z" fill="#263238"/>
<path opacity="0.2" d="M800.292 378.57L818.475 438.428L811.716 441.968L805.119 425.073C804.958 424.912 798.2 389.512 800.292 378.57Z" fill="#101010"/>
<g opacity="0.2">
<path d="M707.93 336.57C698.115 341.719 722.734 354.109 733.837 353.787L725.791 332.547C725.63 332.547 711.149 334.8 707.93 336.57Z" fill="#101010"/>
</g>
<path opacity="0.2" d="M770.524 423.298L712.275 423.62L716.137 402.058L774.707 400.932L770.524 423.298Z" fill="#B7142C"/>
<path d="M764.892 260.46C764.409 262.069 765.053 264 766.34 264.966C767.627 266.092 769.558 266.253 771.006 265.448C773.742 264 774.064 259.978 773.42 256.92C772.776 253.863 771.65 250.484 772.937 247.588C773.903 245.335 775.995 243.887 777.765 242.117C780.661 239.06 782.109 234.554 781.305 230.37C780.5 226.187 777.282 222.486 773.259 221.521C769.076 220.394 763.926 221.842 760.869 218.785C758.617 216.693 758.295 212.992 756.525 210.418C753.789 206.395 747.997 205.912 743.169 206.717C738.342 207.522 733.515 209.131 728.688 208.004C724.665 207.039 721.447 204.464 717.746 202.855C709.7 199.315 699.402 201.568 693.449 208.004C687.495 214.441 686.208 224.9 690.552 232.623C692.001 235.359 694.414 237.933 697.311 239.059" fill="#263238"/>
<path d="M747.996 358.137C735.285 358.137 724.665 348.16 724.021 335.61C723.538 324.99 723.056 314.852 723.056 314.852C723.056 314.852 703.425 313.404 701.655 294.256C699.885 275.108 699.563 230.858 699.563 230.858C721.125 219.595 747.192 220.721 767.788 233.755L769.719 234.881L771.972 334C772.133 347.356 761.352 358.137 747.996 358.137Z" fill="#B5694A"/>
<path d="M736.733 260.463C735.284 260.945 734.48 262.554 734.963 264.003C735.445 265.451 737.054 266.255 738.503 265.773C739.951 265.29 740.755 263.681 740.273 262.233C739.79 260.784 738.181 259.98 736.733 260.463Z" fill="#263238"/>
<path d="M731.423 261.436C731.745 261.758 733.515 260.149 736.25 259.988C738.985 259.827 740.916 261.114 741.238 260.632C741.399 260.471 741.077 259.827 740.112 259.344C739.307 258.701 737.859 258.218 736.089 258.379C734.48 258.54 733.032 259.183 732.227 259.988C731.584 260.632 731.262 261.275 731.423 261.436Z" fill="#263238"/>
<path d="M707.608 260.463C706.16 260.945 705.356 262.554 705.838 264.003C706.321 265.451 707.93 266.255 709.378 265.773C710.826 265.29 711.631 263.681 711.148 262.233C710.665 260.784 709.056 259.98 707.608 260.463Z" fill="#263238"/>
<path d="M701.815 261.436C702.137 261.758 703.907 260.149 706.643 259.988C709.378 259.827 711.309 261.114 711.631 260.632C711.792 260.471 711.47 259.827 710.504 259.344C709.7 258.701 708.252 258.218 706.482 258.379C704.873 258.54 703.425 259.183 702.62 259.988C701.976 260.792 701.655 261.275 701.815 261.436Z" fill="#263238"/>
<path d="M721.93 282.185C721.93 282.024 720.321 281.702 717.585 281.702C716.942 281.702 716.298 281.541 716.298 281.219C716.137 280.737 716.298 280.093 716.62 279.128C717.102 277.358 717.746 275.427 718.229 273.657C720.482 265.772 722.091 259.336 721.608 259.175C721.125 259.014 719.033 265.289 716.781 273.174C716.298 275.105 715.654 276.875 715.172 278.806C715.011 279.61 714.528 280.576 715.011 281.702C715.172 282.185 715.815 282.667 716.298 282.667C716.781 282.828 717.102 282.667 717.424 282.667C720.321 282.507 721.93 282.346 721.93 282.185Z" fill="#263238"/>
<path d="M730.779 284.443C725.469 287.018 722.895 287.822 718.067 289.271C718.067 289.271 721.607 293.937 726.917 291.523C732.549 288.788 730.779 284.443 730.779 284.443Z" fill="#99583E"/>
<path d="M723.056 314.695C723.056 314.695 735.285 314.695 747.675 305.523C747.675 305.523 742.847 319.844 723.378 319.683L723.056 314.695Z" fill="#A36957"/>
<path d="M770.202 254.514C770.202 252.905 771.328 251.618 772.937 251.618C776.477 251.457 782.431 252.744 783.235 262.56C784.362 276.719 770.524 273.34 770.524 273.019C770.363 272.697 770.202 259.985 770.202 254.514Z" fill="#99583E"/>
<path d="M773.42 267.39C773.42 267.39 773.742 267.551 774.064 267.712C774.546 267.873 775.19 267.873 775.995 267.551C777.443 266.907 778.569 264.494 778.408 261.919C778.408 260.632 777.925 259.506 777.443 258.379C776.96 257.414 776.155 256.77 775.512 256.609C774.707 256.448 774.225 256.931 774.064 257.414C773.903 257.896 774.064 258.057 773.903 258.057C773.903 258.057 773.581 257.896 773.581 257.253C773.581 256.931 773.742 256.609 774.064 256.287C774.385 255.966 774.868 255.805 775.351 255.805C776.477 255.805 777.443 256.77 778.086 257.736C778.73 258.862 779.213 260.149 779.213 261.597C779.374 264.494 778.086 267.229 775.995 268.034C775.029 268.355 774.225 268.195 773.742 267.873C773.581 267.712 773.42 267.39 773.42 267.39Z" fill="#B5694A"/>
<path d="M740.917 253.541C740.273 254.345 738.181 254.023 735.446 253.862C732.71 253.702 730.618 253.702 730.136 252.897C729.492 252.092 732.227 250.001 735.767 250.322C739.307 250.483 741.56 252.736 740.917 253.541Z" fill="#263238"/>
<path d="M710.183 253.056C710.022 254.021 708.252 254.504 706.16 254.665C704.229 254.826 702.299 254.665 701.977 253.699C701.655 252.734 703.264 251.286 705.838 251.125C708.413 250.964 710.344 252.09 710.183 253.056Z" fill="#263238"/>
<path d="M696.988 236.964C696.988 236.964 708.574 242.596 723.699 235.033C733.675 230.045 745.1 227.631 747.674 229.723C750.249 231.654 750.732 241.952 760.547 244.848C760.547 244.848 759.903 264.318 767.627 263.675C775.351 263.031 770.523 232.78 770.523 232.78L751.536 223.448L730.779 219.586L711.148 222.321L696.023 226.505L696.988 236.964Z" fill="#263238"/>
<path d="M627.476 270.432C628.12 271.558 650.486 349.116 650.486 349.116L606.076 355.23L585.64 291.993L627.476 270.432Z" fill="#455A64"/>
<path d="M650.486 348.957L654.509 346.865L631.338 268.342L626.994 270.594L650.486 348.957Z" fill="#263238"/>
<path d="M607.433 293.203C608.475 292.979 609.139 291.952 608.915 290.91C608.692 289.867 607.665 289.203 606.622 289.427C605.58 289.651 604.916 290.677 605.14 291.72C605.363 292.762 606.39 293.426 607.433 293.203Z" fill="#E51937"/>
<path d="M642.119 384.363L612.995 403.35L607.685 335.447L608.167 332.068L627.798 324.666L622.166 310.184C619.431 303.426 611.386 300.369 604.949 303.748C602.857 304.874 600.605 306.001 598.674 306.966C594.168 309.219 590.789 313.402 589.502 318.23C587.249 326.597 585.318 335.769 585.479 334.964L572.928 422.337C572.928 422.337 566.975 447.6 584.192 459.507C597.226 468.518 619.109 459.024 630.694 452.427L681.059 422.015L642.119 384.363Z" fill="#B5694A"/>
<path d="M1322.39 327.767C1388.45 323.598 1438.62 266.667 1434.45 200.608C1430.28 134.549 1373.35 84.3775 1307.29 88.5467C1241.23 92.7159 1191.06 149.647 1195.23 215.706C1199.4 281.765 1256.33 331.936 1322.39 327.767Z" fill="#303030"/>
<path d="M1359.89 42.918C1360.42 53.1447 1361.14 56.1948 1365.09 64.4479C1367.42 69.2921 1370.47 73.7775 1371.73 78.9806C1372.98 83.8248 1372.27 89.2073 1373.16 94.0515C1374.6 102.125 1379.98 108.943 1384.11 116.12C1388.23 123.296 1390.92 132.447 1386.8 139.803L1345.35 134.958L1342.48 83.466L1359.89 42.918Z" fill="#263238"/>
<path d="M1277.35 25.5195C1271.97 37.0022 1279.51 48.3054 1274.13 59.788C1271.43 65.3499 1268.74 71.0912 1267.31 77.1913C1266.05 82.7532 1265.69 88.4945 1263.54 93.6976C1259.95 101.951 1251.88 107.513 1248.11 115.586C1242.55 127.607 1248.47 142.858 1259.05 150.752C1269.64 158.826 1283.81 160.799 1296.91 159.902C1304.98 159.364 1313.06 157.749 1320.06 153.623C1327.05 149.496 1332.44 142.499 1333.33 134.425" fill="#263238"/>
<path d="M1338.89 5.24219C1365.63 17.0836 1370.83 61.0406 1371.01 66.7819C1371.19 73.7791 1374.96 75.2144 1379.62 78.9821C1384.29 82.7499 1388.77 87.0559 1390.21 92.7972C1391.28 97.2826 1390.21 102.306 1392.36 106.433C1394.87 111.277 1400.97 113.071 1405.82 116.121C1414.79 121.863 1419.09 132.628 1419.63 143.034C1420.17 153.44 1417.3 163.666 1414.43 173.714C1413.35 177.661 1411.92 181.967 1408.33 184.12C1405.64 185.735 1402.05 185.735 1398.82 185.735C1381.95 185.376 1365.09 185.017 1348.04 184.658C1335.13 184.299 1321.85 183.94 1309.83 179.276C1300.14 175.329 1291.53 168.511 1286.33 159.54C1281.12 150.569 1279.33 139.804 1282.02 129.936C1284.17 122.401 1288.84 115.404 1290.09 107.689C1291.71 98.0002 1283.63 93.8737 1280.76 84.544C1277.89 75.2144 1275.38 52.7874 1279.51 43.8166" fill="#263238"/>
<path d="M1369.39 247.092L1361.14 220.359L1359.89 261.266C1359.89 261.266 1370.65 289.076 1378.9 310.426C1362.4 320.294 1343.38 326.574 1322.75 327.829C1297.27 329.444 1272.87 323.165 1252.24 311.323L1265.15 265.213L1259.05 213.003L1242.19 237.224L1205.95 202.238C1205.95 202.238 1232.5 153.258 1235.73 148.952C1256.72 120.425 1292.78 121.142 1292.78 121.142L1343.92 124.013C1343.92 124.013 1372.62 122.398 1391.64 145.184C1391.64 145.184 1410.12 173.352 1425.19 242.966L1369.39 247.092Z" fill="#E51937"/>
<path d="M1395.05 152.729C1395.05 152.729 1394.87 152.729 1394.33 152.909C1393.8 152.909 1393.08 153.088 1392.18 153.268C1390.21 153.627 1387.52 154.165 1384.11 155.6C1380.7 157.035 1376.75 159.368 1372.98 162.956C1371.01 164.75 1369.22 166.903 1367.6 169.415C1365.99 171.927 1364.55 174.798 1363.83 178.027C1363.47 179.642 1363.47 181.257 1364.01 182.871C1364.55 184.486 1365.45 185.921 1366.88 186.998C1368.32 188.074 1370.11 188.433 1371.91 187.716C1373.52 187.177 1374.78 185.563 1375.32 183.768C1375.85 181.974 1375.85 180.001 1374.96 178.207C1374.06 176.412 1372.8 174.977 1371.01 173.721C1367.6 171.209 1363.47 169.774 1359.17 169.236C1354.86 168.697 1350.2 169.236 1345.71 170.492C1341.23 171.748 1336.74 173.362 1332.61 175.874C1328.49 178.386 1324.72 181.615 1321.85 185.742C1320.41 187.716 1319.34 190.048 1319.34 192.56C1319.34 193.816 1319.52 194.892 1320.23 195.969C1320.95 197.045 1321.85 197.763 1322.93 198.481C1324.18 198.839 1325.44 199.198 1326.51 198.66C1327.59 198.122 1328.49 197.045 1329.21 195.969C1330.46 193.457 1330.64 190.586 1330.64 187.716C1330.64 184.845 1330.28 182.154 1329.39 179.462C1328.49 176.951 1326.87 174.618 1324.9 172.645C1320.95 168.877 1315.75 166.724 1310.55 166.186C1305.34 165.647 1299.96 166.365 1295.12 167.98C1290.27 169.415 1285.43 171.389 1282.2 175.156C1280.76 176.951 1279.69 179.283 1279.87 181.615C1280.05 183.948 1281.3 186.101 1282.92 187.536C1283.81 188.254 1284.71 188.792 1285.79 188.792C1286.86 188.972 1287.94 188.613 1288.84 188.074C1290.63 186.998 1291.53 184.666 1291.71 182.692C1291.89 180.539 1291.71 178.386 1290.99 176.412C1290.63 175.336 1290.27 174.439 1289.91 173.542C1289.73 173.003 1289.55 172.645 1289.38 172.106L1288.66 170.85C1286.86 167.262 1284.35 164.212 1281.66 161.521C1276.28 156.318 1270.18 153.088 1264.62 151.294C1259.05 149.5 1253.85 148.962 1249.72 149.321C1245.6 149.679 1242.37 150.397 1240.39 151.115C1239.32 151.474 1238.6 151.832 1238.06 152.012C1237.52 152.191 1237.17 152.191 1237.17 152.191C1237.17 152.191 1237.34 152.012 1237.88 151.832C1238.42 151.653 1239.14 151.294 1240.22 150.935C1242.37 150.218 1245.42 149.321 1249.72 148.962C1253.85 148.603 1259.05 149.141 1264.8 150.756C1270.54 152.55 1276.64 155.78 1282.2 160.983C1284.89 163.674 1287.4 166.724 1289.38 170.312L1290.09 171.748C1290.27 172.286 1290.45 172.645 1290.63 173.183C1290.99 174.08 1291.53 175.156 1291.71 176.233C1292.43 178.386 1292.6 180.539 1292.43 182.692C1292.25 184.845 1291.35 187.357 1289.2 188.792C1288.12 189.51 1286.86 189.689 1285.61 189.689C1284.35 189.51 1283.28 188.972 1282.2 188.254C1280.23 186.639 1278.97 184.307 1278.79 181.795C1278.61 180.539 1278.79 179.283 1279.33 178.027C1279.87 176.771 1280.4 175.695 1281.3 174.798C1284.71 170.85 1289.55 168.877 1294.58 167.262C1299.6 165.827 1304.98 164.93 1310.37 165.468C1315.75 166.006 1321.31 168.339 1325.26 172.286C1327.23 174.259 1329.03 176.592 1330.1 179.283C1331.18 181.974 1331.54 184.845 1331.54 187.716C1331.54 190.586 1331.18 193.636 1329.92 196.328C1329.21 197.583 1328.31 198.839 1326.87 199.557C1325.44 200.095 1323.82 199.916 1322.57 199.378C1321.49 198.66 1320.41 197.763 1319.7 196.507C1318.98 195.251 1318.62 193.995 1318.62 192.56C1318.62 189.869 1319.88 187.357 1321.31 185.204C1324.36 180.898 1328.31 177.668 1332.44 175.156C1336.56 172.465 1341.23 170.85 1345.71 169.595C1350.2 168.339 1354.86 167.8 1359.53 168.339C1364.01 168.877 1368.32 170.312 1371.73 173.003C1373.52 174.259 1374.96 175.874 1375.85 177.848C1376.75 179.821 1376.93 181.974 1376.21 183.948C1375.67 185.921 1374.24 187.716 1372.27 188.433C1370.29 189.151 1368.14 188.613 1366.7 187.536C1365.09 186.46 1364.01 184.845 1363.47 183.051C1362.94 181.257 1362.94 179.462 1363.29 177.848C1364.01 174.439 1365.63 171.568 1367.06 169.056C1368.68 166.545 1370.65 164.392 1372.44 162.597C1376.39 159.009 1380.34 156.677 1383.75 155.241C1387.16 153.806 1390.03 153.268 1392 153.088C1393.97 152.729 1395.05 152.729 1395.05 152.729Z" fill="#FAFAFA"/>
<path d="M1416.76 211.211C1416.76 211.39 1414.97 211.749 1412.1 213.364C1409.22 214.979 1405.46 218.208 1402.95 223.591C1402.23 224.847 1401.87 226.461 1401.51 227.897C1401.15 229.511 1400.97 231.126 1401.51 232.741C1401.69 233.459 1402.23 234.356 1402.77 234.714C1403.48 235.073 1404.2 235.253 1405.1 234.894C1406.71 234.176 1407.61 232.382 1407.79 230.588C1408.33 226.82 1406 222.694 1402.41 220.899C1398.64 219.105 1393.8 219.643 1390.21 221.976C1386.44 224.488 1384.29 228.435 1383.39 232.561C1382.85 234.535 1382.85 236.688 1383.93 238.303C1384.82 239.917 1386.98 240.994 1388.59 240.097C1390.21 239.379 1391.28 237.585 1391.28 235.791C1391.28 233.997 1390.57 232.382 1389.67 230.947C1387.87 228.076 1385.18 226.102 1382.31 225.026C1379.62 223.949 1376.75 223.949 1374.6 224.488C1372.27 225.026 1370.47 225.923 1369.22 227C1366.52 228.973 1365.81 230.767 1365.63 230.588C1365.63 230.588 1365.63 230.408 1365.81 230.229C1365.99 230.05 1366.17 229.691 1366.34 229.332C1366.88 228.614 1367.6 227.538 1369.04 226.461C1370.29 225.385 1372.27 224.308 1374.6 223.77C1376.93 223.232 1379.8 223.052 1382.67 224.129C1385.54 225.205 1388.41 227.179 1390.39 230.229C1391.28 231.664 1392.18 233.638 1392.18 235.611C1392.18 237.585 1391.1 239.738 1389.13 240.635C1388.05 241.173 1386.98 241.173 1385.9 240.635C1384.82 240.276 1384.11 239.379 1383.39 238.482C1382.13 236.509 1382.31 234.176 1382.85 232.023C1383.75 227.717 1386.26 223.591 1390.21 220.899C1394.15 218.208 1399.36 217.67 1403.3 219.643C1407.43 221.617 1409.76 226.102 1409.22 230.229C1409.05 232.203 1407.97 234.356 1406 235.073C1404.92 235.432 1403.84 235.253 1402.95 234.714C1402.05 234.176 1401.69 233.279 1401.33 232.382C1400.79 230.588 1400.97 228.794 1401.33 227.179C1401.69 225.564 1402.23 224.129 1402.95 222.694C1405.64 217.132 1409.58 214.082 1412.45 212.467C1414.79 211.39 1416.76 211.211 1416.76 211.211Z" fill="#FAFAFA"/>
<path d="M1360.07 236.875C1360.07 236.875 1359.89 236.875 1359.71 236.875C1359.35 236.875 1358.99 236.695 1358.45 236.516C1357.37 236.336 1355.58 235.977 1353.43 235.619C1349.12 235.08 1342.48 235.26 1335.31 238.131C1333.51 238.848 1331.72 239.745 1329.92 240.822C1328.13 241.898 1326.34 243.334 1325.26 245.307C1324 247.101 1323.46 249.613 1324.36 251.766C1324.72 252.843 1325.44 253.919 1326.34 254.637C1327.23 255.354 1328.49 255.534 1329.74 255.354C1332.08 254.816 1334.05 252.663 1334.41 250.151C1334.77 247.64 1333.87 244.948 1332.26 242.616C1329.21 237.951 1324.36 234.363 1318.62 232.927C1312.88 231.492 1306.78 232.569 1302.11 235.439C1299.78 236.875 1297.63 238.669 1296.01 240.822C1295.3 241.898 1294.76 243.154 1294.4 244.41C1294.04 245.666 1294.04 246.922 1294.76 247.998C1295.3 249.075 1296.37 249.793 1297.45 249.793C1298.53 249.793 1299.78 249.434 1300.68 248.895C1302.65 247.64 1303.37 245.128 1303.01 242.975C1302.83 240.822 1301.93 238.669 1300.86 236.875C1299.78 235.08 1298.53 233.466 1297.09 232.03C1294.22 229.339 1290.99 227.724 1288.12 226.648C1285.25 225.571 1282.56 225.392 1280.23 225.392C1275.92 225.392 1273.59 226.648 1273.59 226.468C1273.59 226.468 1273.77 226.468 1273.95 226.289C1274.3 226.11 1274.66 226.11 1275.2 225.93C1276.28 225.571 1278.07 225.213 1280.23 225.033C1282.38 224.854 1285.25 225.213 1288.12 226.11C1291.17 227.007 1294.4 228.801 1297.27 231.492C1298.71 232.927 1300.14 234.542 1301.22 236.336C1302.29 238.31 1303.19 240.283 1303.37 242.795C1303.55 244.051 1303.37 245.307 1303.01 246.384C1302.65 247.64 1301.76 248.716 1300.68 249.434C1299.6 250.151 1298.35 250.69 1296.91 250.51C1295.48 250.331 1294.22 249.613 1293.5 248.178C1292.78 246.922 1292.78 245.307 1293.14 244.051C1293.5 242.616 1294.04 241.36 1294.94 240.283C1296.55 237.951 1298.88 236.157 1301.4 234.722C1306.42 231.851 1312.7 230.595 1318.62 232.03C1324.54 233.466 1329.74 237.233 1332.79 242.078C1334.41 244.589 1335.31 247.46 1334.95 250.331C1334.59 253.201 1332.44 255.713 1329.56 256.252C1328.13 256.61 1326.69 256.252 1325.62 255.354C1324.54 254.637 1323.82 253.381 1323.29 252.125C1322.93 250.869 1322.75 249.613 1322.93 248.357C1323.11 247.101 1323.64 246.025 1324.36 244.948C1325.62 242.975 1327.59 241.539 1329.39 240.283C1331.18 239.207 1333.15 238.31 1334.95 237.592C1342.3 234.722 1349.12 234.722 1353.43 235.26C1357.91 235.978 1360.07 236.875 1360.07 236.875Z" fill="#FAFAFA"/>
<path d="M1159.66 87.4204C1163.43 87.5998 1162.35 107.874 1165.04 103.568C1167.73 99.2618 1163.43 78.629 1167.37 78.9878C1172.4 79.5261 1170.96 100.697 1170.96 102.491C1170.96 104.285 1173.65 104.285 1173.47 102.671C1173.29 100.338 1172.58 75.7583 1177.6 76.1172C1180.29 76.2966 1179.39 81.3202 1179.39 81.3202C1179.39 81.3202 1178.5 104.465 1180.83 104.465C1183.16 104.644 1184.24 91.0087 1184.24 86.5233C1184.24 82.0379 1186.39 80.0643 1188.36 81.679C1189.8 82.7555 1189.98 96.75 1189.8 101.415C1189.62 105.9 1189.08 118.459 1194.28 112.359C1199.49 106.259 1205.77 103.568 1207.92 104.106C1210.07 104.465 1210.25 107.694 1207.92 108.771C1206.13 109.668 1203.44 112 1201.64 113.795C1200.03 115.23 1198.95 117.203 1197.69 118.998C1196.44 120.971 1195.9 122.227 1195 125.457L1202 209.961L1207.2 203.503L1236.81 232.03L1221.38 249.792C1210.07 262.71 1189.62 263.607 1178.14 250.868C1177.78 250.33 1177.24 249.971 1176.88 249.433C1174.01 245.845 1172.4 241.18 1172.04 236.515L1162.35 126.892C1162.17 114.692 1158.76 105.362 1158.22 99.0824C1157.15 87.4204 1158.22 87.4204 1159.66 87.4204Z" fill="#B5694A"/>
<path d="M1296.37 132.628C1296.55 119.89 1296.37 106.434 1296.37 106.434C1296.37 106.434 1280.05 103.563 1276.82 82.033C1273.77 61.5796 1278.97 17.4432 1278.97 17.4432C1302.65 8.11361 1329.56 11.7019 1346.07 30.8994L1343.56 134.422C1343.2 146.443 1332.61 155.773 1319.88 155.414C1306.6 154.876 1296.19 144.829 1296.37 132.628Z" fill="#B5694A"/>
<path d="M1283.27 51.3556C1283.27 52.7909 1284.35 54.0468 1285.97 54.2262C1287.4 54.4056 1288.84 53.1497 1288.84 51.7144C1288.84 50.2791 1287.76 49.0232 1286.15 48.8438C1284.71 48.8438 1283.27 49.9202 1283.27 51.3556Z" fill="#263238"/>
<path d="M1278.79 48.1346C1279.15 48.4934 1281.3 47.0581 1284.17 47.0581C1287.04 47.0581 1289.2 48.6729 1289.55 48.314C1289.73 48.1346 1289.37 47.4169 1288.48 46.8787C1287.58 46.161 1285.97 45.4434 1284.17 45.4434C1282.38 45.4434 1280.76 46.161 1279.87 46.6993C1278.97 47.4169 1278.79 47.9552 1278.79 48.1346Z" fill="#263238"/>
<path d="M1313.6 52.2516C1313.6 53.6869 1314.67 54.9429 1316.29 55.1223C1317.72 55.3017 1319.16 54.0458 1319.16 52.6104C1319.16 51.1751 1318.08 49.9192 1316.47 49.7398C1314.85 49.5604 1313.6 50.8163 1313.6 52.2516Z" fill="#263238"/>
<path d="M1309.65 49.5545C1310.01 49.9134 1312.16 48.478 1315.03 48.478C1317.9 48.478 1320.06 50.0928 1320.41 49.7339C1320.59 49.5545 1320.23 48.8369 1319.34 48.2986C1318.44 47.581 1316.83 46.8633 1315.03 46.8633C1313.24 46.8633 1311.62 47.5809 1310.73 48.1192C1309.83 48.8369 1309.65 49.3751 1309.65 49.5545Z" fill="#263238"/>
<path d="M1298.7 71.4468C1298.7 71.2674 1296.91 70.9086 1293.86 70.5497C1293.14 70.5497 1292.43 70.3703 1292.25 69.8321C1292.07 69.2938 1292.43 68.3968 1292.78 67.6791C1293.5 65.8849 1294.22 63.9113 1295.12 61.9378C1298.35 53.864 1300.68 47.0463 1300.32 46.8668C1299.96 46.6874 1297.09 53.3258 1293.86 61.3995C1293.14 63.3731 1292.43 65.3467 1291.71 67.1408C1291.35 68.0379 1290.99 68.935 1291.35 70.0115C1291.53 70.5497 1292.07 70.9086 1292.6 71.088C1293.14 71.2674 1293.5 71.2674 1293.86 71.2674C1296.91 71.6263 1298.7 71.6262 1298.7 71.4468Z" fill="#263238"/>
<path d="M1296.37 106.44C1296.37 106.44 1310.73 107.517 1325.26 99.084C1325.26 99.084 1318.08 113.796 1296.73 111.464L1296.37 106.44Z" fill="#99583E"/>
<path d="M1299.96 78.6217C1301.04 77.1864 1302.83 76.4688 1304.8 76.6482C1306.06 76.8276 1307.32 77.3659 1308.21 78.4423C1308.93 79.5188 1309.11 80.9542 1308.39 82.0307C1307.5 83.1072 1305.88 83.466 1304.45 82.9277C1303.01 82.5689 1301.75 81.4924 1300.68 80.5953C1300.32 80.4159 1299.96 80.0571 1299.78 79.6983C1299.6 79.3394 1299.6 78.9806 1299.96 78.6217Z" fill="#99583E"/>
<path d="M1307.5 73.6035C1306.96 73.6035 1306.96 76.833 1304.27 78.986C1301.58 81.3184 1298.17 80.7802 1297.99 81.3184C1297.99 81.4978 1298.7 82.0361 1300.14 82.0361C1301.58 82.0361 1303.55 81.6773 1305.34 80.2419C1306.96 78.8066 1307.86 77.0124 1307.86 75.7565C1308.03 74.3212 1307.68 73.6035 1307.5 73.6035Z" fill="#263238"/>
<path d="M1336.74 15.649C1328.85 26.7727 1308.21 38.2554 1293.32 40.9466C1295.12 38.6142 1304.27 33.0523 1305.88 30.7199C1299.06 35.7435 1289.55 42.5614 1280.58 42.9202C1279.51 42.9202 1278.43 42.9202 1277.53 42.3819C1276.28 41.6643 1276.1 40.2289 1275.92 38.973C1275.38 33.77 1275.74 24.7992 1276.46 19.5961C1277.35 14.393 1279.69 9.18998 1284.17 5.78107C1289.91 1.29567 1298.17 0.219183 1305.88 0.0397674C1312.34 -0.139649 1318.98 0.219186 1324.9 2.55159C1330.82 4.884 1335.84 9.54882 1336.74 15.1107" fill="#263238"/>
<path d="M1359.17 65.7076C1360.24 60.1457 1361.14 54.9426 1361.32 51.3543C1362.04 40.2305 1358.81 -0.496929 1320.59 2.73256L1329.74 14.3946C1329.74 14.3946 1322.21 39.154 1338.18 56.1985C1338.18 56.1985 1339.07 66.2458 1350.2 77.7284C1350.38 77.7284 1356.84 77.549 1359.17 65.7076Z" fill="#263238"/>
<path d="M1337.82 54.3961C1340.15 54.0372 1342.48 54.0372 1344.64 54.9343C1346.79 55.8314 1348.76 57.4461 1349.66 59.5991C1350.56 61.7521 1350.38 64.2639 1349.66 66.4169C1348.76 68.5699 1347.33 70.5435 1345.71 72.1583C1344.46 73.2347 1343.2 74.3112 1341.59 74.8495C1339.97 75.3877 1338.18 75.2083 1336.74 74.1318" fill="#99583E"/>
<path d="M1338.89 68.4034C1338.71 68.4034 1339.61 69.8387 1341.76 69.3004C1342.84 69.121 1343.74 68.224 1344.46 67.1475C1344.99 66.071 1345.53 64.815 1345.71 63.3797C1345.89 61.9444 1345.53 60.5091 1344.82 59.2531C1344.1 58.1766 1342.84 57.459 1341.76 57.459C1339.61 57.459 1338.89 58.8943 1339.25 58.8943C1339.43 59.0737 1340.33 58.3561 1341.76 58.7149C1343.2 58.8943 1344.46 60.8679 1344.1 63.2003C1343.74 65.5327 1342.84 67.6857 1341.59 68.2239C1339.97 68.7622 1339.07 68.224 1338.89 68.4034Z" fill="#B5694A"/>
<path d="M1364.73 273.831V263.964H1295.83L1275.56 175.332L1172.4 176.229L1197.33 273.831H1364.73Z" fill="#263238"/>
<path d="M1230.6 231C1234.18 229.836 1235.84 225.073 1234.31 220.361C1232.78 215.65 1228.63 212.774 1225.05 213.938C1221.47 215.101 1219.81 219.864 1221.34 224.576C1222.87 229.288 1227.02 232.164 1230.6 231Z" fill="#E51937"/>
<path d="M1270.9 273.11C1269.1 269.881 1267.67 266.292 1266.59 262.704C1266.41 261.807 1266.05 260.91 1266.23 260.013C1266.41 259.116 1266.95 258.219 1267.85 258.039C1269.46 257.68 1270.54 259.654 1271.07 261.269C1273.41 267.01 1278.61 271.316 1284.53 272.572L1288.66 272.392V272.213L1378.9 264.139L1374.6 246.198L1422.32 242.609L1426.63 260.192C1428.96 282.26 1411.2 301.099 1389.13 300.381H1285.61C1252.77 302.534 1246.49 273.469 1246.49 273.469L1270.9 273.11Z" fill="#B5694A"/>
</svg>
