<svg width="334" height="207" viewBox="0 0 334 207" fill="none" xmlns="http://www.w3.org/2000/svg">
<path d="M173.579 191.901L18.9507 57.9707H316.179L173.579 191.901Z" stroke="#303030" stroke-dasharray="3.52 3.52"/>
<path d="M93.0105 72.0314C93.5065 46.5425 73.2885 25.4789 47.8524 24.9844C22.4162 24.49 1.39408 44.752 0.898081 70.2409C0.402085 95.7297 20.6201 116.793 46.0562 117.288C71.4924 117.782 92.5145 97.5203 93.0105 72.0314Z" fill="white" fill-opacity="0.1"/>
<path d="M90.2751 86.6834L81.9549 74.0078L67.9526 82.8198L80.6697 102.409C80.6697 102.409 87.637 94.8175 90.2751 86.6834Z" fill="#99583E"/>
<path d="M38.2576 23.3742C38.934 22.6286 37.987 21.4084 37.04 21.0695C36.093 20.7306 34.8754 20.5273 34.4019 19.6461C33.8607 18.5615 34.8077 17.2736 35.0107 16.0535C35.2136 14.7656 34.4695 13.4777 34.1989 12.1898C33.9284 10.4952 34.5372 8.73281 35.8224 7.64826C37.1076 6.56372 39.0016 6.2248 40.5575 6.76707C40.6927 4.19127 42.4515 1.81883 44.8867 1.00542C47.3218 0.19201 50.1629 1.00542 51.7863 3.03894C53.0715 2.08997 54.3568 1.0732 55.7773 0.53093C57.2655 -0.0791268 58.9566 -0.214696 60.3771 0.395362C61.7976 1.00542 62.8799 2.63224 62.6093 4.19127C63.6916 2.90337 65.7209 2.63224 67.2767 3.37786C68.8325 4.12349 69.8472 5.68252 70.3207 7.30934C70.9295 9.614 70.3883 12.3254 68.562 13.8166C66.7356 15.3079 63.624 15.1723 62.2711 13.2066" fill="#263238"/>
<path d="M47.2529 62.278C52.2585 62.278 56.4524 58.3465 56.6554 53.3982C56.8583 49.2634 57.0612 45.2641 57.0612 45.2641C57.0612 45.2641 64.7726 44.7219 65.4491 37.13C66.1255 29.606 66.2608 12.1177 66.2608 12.1177C57.7377 7.64394 47.5235 8.11843 39.4739 13.27L38.7298 13.7445L37.8504 52.7882C37.7828 58.0076 41.9767 62.278 47.2529 62.278Z" fill="#B5694A"/>
<path d="M51.6497 23.7745C52.2585 23.9778 52.5291 24.5879 52.3262 25.198C52.1233 25.808 51.5145 26.0792 50.9057 25.8758C50.2969 25.6724 50.0263 25.0624 50.2292 24.4523C50.4322 23.9101 51.041 23.5711 51.6497 23.7745Z" fill="#263238"/>
<path d="M53.7461 24.1836C53.6108 24.3193 52.9344 23.7089 51.8521 23.6411C50.8375 23.5733 50.0257 24.048 49.8904 23.9124C49.8228 23.8445 49.9581 23.6411 50.2963 23.3698C50.6345 23.1663 51.2433 22.9629 51.8521 22.9629C52.5286 23.0307 53.0697 23.302 53.3403 23.5733C53.7461 23.8445 53.8138 24.1158 53.7461 24.1836Z" fill="#263238"/>
<path d="M63.1488 23.7745C63.7576 23.9778 64.0281 24.5879 63.8252 25.198C63.6223 25.808 63.0135 26.0792 62.4047 25.8758C61.7959 25.6724 61.5253 25.0624 61.7282 24.4523C61.9312 23.9101 62.54 23.5711 63.1488 23.7745Z" fill="#263238"/>
<path d="M65.3814 24.1836C65.2461 24.3193 64.5697 23.7089 63.4874 23.6411C62.4727 23.5733 61.661 24.048 61.5257 23.9124C61.4581 23.8445 61.5933 23.6411 61.9316 23.3698C62.2698 23.1663 62.8786 22.9629 63.4874 22.9629C64.1638 23.0307 64.705 23.302 64.9755 23.5733C65.3814 23.9124 65.449 24.1158 65.3814 24.1836Z" fill="#263238"/>
<path d="M57.4668 32.3129C57.4668 32.2451 58.1432 32.1774 59.1579 32.1096C59.4285 32.1096 59.6314 32.0418 59.699 31.9062C59.7667 31.7707 59.699 31.4317 59.5638 31.0928C59.3608 30.415 59.1579 29.6694 58.8873 28.9237C58.008 25.8057 57.3992 23.2976 57.5344 23.2299C57.6697 23.1621 58.5491 25.6701 59.4285 28.7882C59.6314 29.5338 59.8343 30.2794 60.0373 30.9573C60.1049 31.2962 60.2402 31.6351 60.1049 32.1096C60.0373 32.3129 59.7667 32.4485 59.5638 32.5163C59.3608 32.5841 59.2255 32.5163 59.0903 32.5163C58.1432 32.5163 57.4668 32.3807 57.4668 32.3129Z" fill="#263238"/>
<path d="M54.017 33.2012C56.114 34.2179 57.061 34.5569 59.0226 35.0991C59.0226 35.0991 57.6698 36.9293 55.5052 35.9803C53.2729 34.9636 54.017 33.2012 54.017 33.2012Z" fill="#99583E"/>
<path d="M57.0612 45.1297C57.0612 45.1297 52.2585 45.1297 47.3882 41.5371C47.3882 41.5371 49.2822 47.1632 56.926 47.0954L57.0612 45.1297Z" fill="#99583E"/>
<path d="M38.5269 24.8646C38.5269 24.2546 38.0534 23.7123 37.4446 23.7123C36.0241 23.6445 33.7242 24.1868 33.386 28.0505C32.9801 33.6088 38.3916 32.3209 38.3916 32.1853C38.4593 32.0497 38.4593 27.0337 38.5269 24.8646Z" fill="#99583E"/>
<path d="M37.2409 29.9484C37.2409 29.9484 37.1056 30.0161 36.9703 30.0839C36.8351 30.1517 36.4968 30.1517 36.2263 30.0161C35.6851 29.745 35.2116 28.796 35.2792 27.7793C35.2792 27.3048 35.4145 26.8303 35.6851 26.4236C35.888 26.0169 36.1586 25.7457 36.4968 25.7457C36.7674 25.678 36.9703 25.8813 37.038 26.0847C37.1056 26.2202 37.038 26.3558 37.1056 26.3558C37.1056 26.3558 37.2409 26.288 37.1733 26.0169C37.1733 25.8813 37.1056 25.7457 36.9703 25.678C36.8351 25.5424 36.6321 25.4746 36.4292 25.4746C36.0233 25.4746 35.5498 25.8135 35.3469 26.288C35.0763 26.6947 34.941 27.237 34.8734 27.7793C34.8057 28.9316 35.3469 30.0161 36.091 30.2873C36.4968 30.4229 36.8351 30.3551 36.9703 30.2195C37.1733 30.0839 37.2409 29.9484 37.2409 29.9484Z" fill="#B5694A"/>
<path d="M50.0266 21.0693C50.2296 21.4084 51.1089 21.2049 52.1912 21.2049C53.2735 21.1371 54.0853 21.1371 54.2882 20.798C54.4911 20.4589 53.4765 19.6451 52.1236 19.7807C50.7031 19.8485 49.7561 20.7302 50.0266 21.0693Z" fill="#263238"/>
<path d="M62.1351 20.8658C62.2028 21.2727 62.8792 21.4084 63.6909 21.4762C64.5027 21.544 65.1791 21.4762 65.3144 21.1371C65.4497 20.798 64.7732 20.1876 63.7586 20.1198C62.8116 20.052 62.0675 20.5267 62.1351 20.8658Z" fill="#263238"/>
<path d="M67.3438 14.5644C67.3438 14.5644 62.7441 16.8013 56.8591 13.8187C52.9357 11.853 48.4036 10.904 47.3889 11.7174C46.3743 12.5308 46.1714 16.5301 42.3157 17.6824C42.3157 17.6824 42.5862 25.3421 39.5423 25.0709C36.4983 24.7998 38.3923 12.8698 38.3923 12.8698L45.9008 9.20943L54.0857 7.65039L61.7971 8.73494L67.7497 10.3618L67.3438 14.5644Z" fill="#263238"/>
<path d="M16.1377 59.0315C24.1197 50.7618 38.1896 51.7108 38.1896 51.7108L56.4534 52.3886C56.4534 52.3886 63.4207 53.1343 69.9145 56.5913L70.388 56.7268V56.7946C75.5289 59.5738 82.7668 66.2844 89.6665 72.7239L81.4139 80.3835L72.282 88.5176C72.282 88.5176 72.3497 88.5854 72.282 88.6532C72.2144 89.1276 73.7702 98.9563 75.1907 107.497C67.1411 113.733 57.0622 117.394 46.1039 117.19C39.1366 117.055 32.5751 115.36 26.6901 112.445L26.0137 104.582C25.4049 97.4651 24.9314 88.6532 24.9314 88.6532" fill="#E51937"/>
<path d="M63.759 53.7422C63.759 53.7422 63.8267 53.8778 63.8943 54.0811C63.962 54.3522 64.0973 54.6912 64.2325 55.0979C64.5031 55.9791 64.909 57.1992 65.3825 58.7582C66.3295 61.8763 67.5471 66.1467 68.697 70.9594C69.847 75.772 70.7264 80.178 71.2675 83.3639C71.5381 84.9907 71.741 86.2786 71.8763 87.1598C71.9439 87.5665 72.0116 87.9054 72.0116 88.1765C72.0116 88.3799 72.0792 88.5155 72.0116 88.5155C71.9439 88.5155 71.9439 88.3799 71.9439 88.1765C71.8763 87.9054 71.8087 87.5665 71.741 87.1598C71.5381 86.2108 71.3351 84.9229 70.9969 83.4316C70.3881 80.2458 69.4411 75.9076 68.2912 71.0949C67.1412 66.2823 65.9236 62.0119 65.0443 58.8938C64.5708 57.4025 64.2326 56.1146 63.962 55.2334C63.8267 54.8267 63.759 54.4878 63.6914 54.2167C63.8267 53.8778 63.759 53.7422 63.759 53.7422Z" fill="#263238"/>
<path d="M79.2999 76.9151C83.6735 73.3447 87.1616 70.3798 87.0908 70.2927C87.0201 70.2057 83.4172 73.0294 79.0436 76.5998C74.67 80.1701 71.1819 83.135 71.2527 83.2221C71.3235 83.3092 74.9263 80.4854 79.2999 76.9151Z" fill="#263238"/>
<path opacity="0.2" d="M26.6903 70.3496L19.52 93.9385L22.1581 95.2942L24.7962 88.6513C24.7962 88.6513 27.502 74.62 26.6903 70.3496Z" fill="#101010"/>
<g opacity="0.2">
<path d="M63.0147 53.8124C66.8704 55.8459 57.1974 60.7264 52.8682 60.5908L56.0474 52.1855C55.9798 52.1855 61.7295 53.1345 63.0147 53.8124Z" fill="#101010"/>
</g>
<path d="M37.0396 52.1834V45.9473C37.0396 45.9473 49.2154 49.0653 49.6213 56.386C49.6213 56.386 51.1771 48.3197 57.468 47.913L58.3473 59.233L51.0418 65.6047H43.6686L37.7836 60.5209L37.0396 52.6579" fill="#E51937"/>
<path d="M52.395 91.4292C52.395 91.4292 52.395 91.2936 52.395 91.0903C52.395 90.8191 52.395 90.4802 52.395 90.0735C52.395 89.1923 52.4626 87.9722 52.4626 86.4131C52.4626 83.2951 52.395 79.0925 51.9891 74.3476C51.5833 69.6705 50.9745 65.4679 50.4333 62.4176C50.1628 60.9263 49.9598 59.6384 49.7569 58.825C49.6893 58.4183 49.6216 58.0794 49.554 57.876C49.4863 57.6727 49.4863 57.5371 49.4863 57.5371C49.4863 57.5371 49.554 57.6727 49.6216 57.876C49.6893 58.1472 49.7569 58.4861 49.8922 58.825C50.0951 59.6384 50.3657 60.8585 50.6363 62.4176C51.2451 65.4679 51.8539 69.6705 52.2597 74.4154C52.6656 79.0925 52.7332 83.3629 52.5979 86.4809C52.5303 88.04 52.5303 89.2601 52.4626 90.1413C52.4626 90.548 52.395 90.8869 52.395 91.158C52.4626 91.2936 52.395 91.4292 52.395 91.4292Z" fill="#263238"/>
<path d="M49.0805 54.2868C49.0805 54.2868 48.8099 54.1513 48.3364 54.3546C48.1335 54.4224 47.8629 54.6258 47.66 54.8969C47.457 55.168 47.2541 55.507 47.1188 55.9137C46.3747 57.5405 45.4277 59.8451 44.8189 62.6921L44.7513 62.8954L44.5484 62.7599C43.8043 62.3532 43.0602 61.8109 42.3161 61.3364C40.8956 60.3196 39.5427 59.3029 38.3928 58.3539C37.784 57.8794 37.3105 57.2693 37.0399 56.5915C36.7693 55.9137 36.634 55.3036 36.634 54.6936C36.5664 53.5412 36.7693 52.5922 36.9046 51.9822C37.0399 51.3721 37.1075 51.0332 37.1752 51.0332C37.1752 51.0332 37.1752 51.3721 37.0399 52.05C36.9723 52.66 36.837 53.609 36.9046 54.7613C36.9723 55.3036 37.0399 55.9137 37.3105 56.5237C37.5811 57.1338 38.0546 57.676 38.5957 58.1505C39.7457 59.0995 41.0985 60.1163 42.5191 61.133C43.2631 61.6075 44.0072 62.082 44.7513 62.5565L44.4807 62.6921C45.1572 59.8451 46.1042 57.5405 46.9159 55.9137C47.1188 55.507 47.3218 55.168 47.5247 54.8969C47.7276 54.6258 48.0658 54.4224 48.2688 54.3546C48.8776 54.0835 49.1481 54.2868 49.0805 54.2868Z" fill="#263238"/>
<path d="M57.4685 47.9785C57.4685 47.9785 57.5361 48.3174 57.5361 48.9275C57.6038 49.6053 57.6714 50.4865 57.7391 51.5711C57.8067 52.7234 57.942 54.0113 58.2126 55.5026C58.2802 56.2482 58.5508 56.9938 58.3479 57.875C58.0773 58.7562 57.4685 59.3663 56.7921 59.9085C55.845 60.6542 54.8304 61.1964 54.0863 61.9421L53.8157 62.2132V61.8065C53.6128 59.2307 52.8011 57.0616 51.9894 55.7059C51.1776 54.2824 50.5688 53.6046 50.6365 53.5368C50.6365 53.5368 50.8394 53.6724 51.11 54.0113C51.3806 54.3502 51.7864 54.8925 52.1923 55.5703C53.004 56.926 53.951 59.0951 54.154 61.7387L53.8834 61.6709C54.6275 60.8575 55.6421 60.2474 56.5891 59.5696C57.2656 59.0951 57.8744 58.4851 58.0773 57.7394C58.2802 56.9938 58.0097 56.2482 57.942 55.5026C57.7391 54.0113 57.6038 52.6556 57.5361 51.5711C57.4685 50.4187 57.4685 49.5376 57.4685 48.9275C57.4685 48.3174 57.4685 47.9785 57.4685 47.9785Z" fill="#263238"/>
<path d="M96.634 49.5371C96.1605 50.1472 78.2349 74.1428 78.2349 74.1428L80.7377 75.5662L99.1368 51.8418L96.634 49.5371Z" fill="#455A64"/>
<path d="M24.6615 68.5189C24.6615 68.5189 43.5341 95.7003 44.6164 96.2426C46.8487 97.3272 72.6209 74.9584 75.1238 72.8571C75.462 72.3826 76.1384 71.4336 77.5589 69.5357C77.5589 69.5357 79.5882 60.1815 81.7528 60.9271C83.9174 61.6727 80.5353 65.672 81.9558 69.1967C83.3763 72.7215 89.8701 64.3163 90.073 63.5029L91.7641 61.3338C91.7641 61.3338 93.5229 66.282 93.3876 68.3833C92.9817 75.0262 86.6908 82.9569 86.6908 82.9569C86.6908 82.9569 58.4834 118.001 39.1373 119.086C33.5905 119.425 23.6469 103.563 17.0854 91.7011C13.0944 84.516 15.0561 75.5007 21.6852 70.688L24.6615 68.5189Z" fill="#B5694A"/>
<path d="M90.2757 69.5337C90.208 69.5337 90.8168 68.4491 91.4932 67.0935C92.1697 65.7378 92.6432 64.5855 92.7108 64.6532C92.7785 64.6532 92.3726 65.8734 91.6962 67.229C91.0197 68.5847 90.3433 69.6015 90.2757 69.5337Z" fill="#EB996E"/>
<path d="M21.4821 55.2305C21.4821 55.2305 1.25667 62.4156 16.2736 96.511L39.6107 82.4119L36.2961 74.4134L21.4821 55.2305Z" fill="#E51937"/>
<path d="M19.9262 55.8406C19.9262 55.8406 19.9938 55.8406 20.0615 55.8406C20.1968 55.8406 20.3321 55.8406 20.535 55.8406C20.9409 55.8406 21.5496 55.9084 22.3614 56.1117C23.1055 56.3151 24.0525 56.654 24.9995 57.2641C25.9465 57.8741 26.9611 58.6875 27.9082 59.7043C29.8698 61.7378 31.6962 64.5848 33.3873 67.9062C35.0784 71.2276 36.7018 75.0235 38.3253 78.955C38.7988 80.1751 39.2723 81.3274 39.7458 82.412L39.8135 82.5475L39.6782 82.6153C32.9138 86.2757 27.0288 89.8005 22.9025 92.3762C20.8056 93.6641 19.1821 94.7487 18.0322 95.4943C17.491 95.8332 17.0175 96.1044 16.7469 96.3755C16.4764 96.5789 16.2734 96.6467 16.2734 96.6467C16.2734 96.6467 16.4087 96.5111 16.6793 96.3077C16.9499 96.1044 17.4234 95.7655 17.9645 95.4265C19.0468 94.6809 20.7379 93.5286 22.7672 92.2407C26.8935 89.5971 32.7785 86.0723 39.5429 82.412L39.4752 82.6153C39.0017 81.5308 38.5282 80.3107 38.0547 79.1583C36.4313 75.1591 34.8078 71.4309 33.1167 68.1095C31.4256 64.7881 29.6669 61.9412 27.7729 59.9077C26.8259 58.8909 25.8789 58.0775 24.9318 57.4674C23.9848 56.8574 23.1055 56.5184 22.3614 56.3151C20.8056 55.7728 19.9262 55.8406 19.9262 55.8406Z" fill="#263238"/>
<path d="M291.661 116.263C315.044 114.784 332.804 94.5897 331.328 71.1578C329.852 47.7258 309.7 29.9294 286.316 31.4082C262.933 32.8871 245.173 53.0813 246.649 76.5132C248.125 99.9451 268.277 117.742 291.661 116.263Z" fill="#303030"/>
<path d="M304.933 15.2227C305.123 18.8502 305.377 19.9321 306.775 22.8596C307.6 24.5779 308.68 26.1689 309.124 28.0145C309.569 29.7328 309.315 31.6421 309.633 33.3604C310.141 36.2242 312.046 38.6426 313.507 41.1883C314.967 43.7339 315.92 46.9796 314.459 49.5889L299.789 47.8706L298.772 29.6056L304.933 15.2227Z" fill="#263238"/>
<path d="M275.719 9.05469C273.814 13.1277 276.481 17.1371 274.576 21.2102C273.623 23.183 272.671 25.2195 272.163 27.3833C271.718 29.3562 271.591 31.3927 270.829 33.2383C269.559 36.1658 266.701 38.1387 265.367 41.0026C263.398 45.2665 265.494 50.676 269.241 53.4762C272.988 56.3401 278.005 57.0401 282.642 56.7219C285.5 56.531 288.358 55.9582 290.834 54.4945C293.311 53.0307 295.217 50.5487 295.534 47.6849" fill="#263238"/>
<path d="M297.503 1.86133C306.966 6.06165 308.807 21.6537 308.871 23.6903C308.934 26.1723 310.268 26.6814 311.919 28.0178C313.571 29.3543 315.158 30.8817 315.666 32.9182C316.047 34.5093 315.666 36.2912 316.429 37.7549C317.318 39.4733 319.477 40.1097 321.192 41.1916C324.367 43.2281 325.891 47.0466 326.082 50.7378C326.272 54.4289 325.256 58.0565 324.24 61.6204C323.859 63.0205 323.351 64.5479 322.081 65.3116C321.128 65.8844 319.858 65.8843 318.715 65.8843C312.745 65.7571 306.775 65.6298 300.742 65.5025C296.169 65.3752 291.469 65.2479 287.214 63.5933C283.785 62.1932 280.736 59.7748 278.895 56.5927C277.053 53.4107 276.418 49.5922 277.37 46.0919C278.132 43.419 279.784 40.937 280.228 38.2004C280.8 34.7638 277.942 33.3001 276.926 29.9907C275.91 26.6814 275.02 18.7262 276.481 15.5442" fill="#263238"/>
<path d="M308.299 87.6474L305.378 78.1649L304.933 92.675C304.933 92.675 308.744 102.539 311.665 110.113C305.823 113.613 299.091 115.84 291.787 116.286C282.769 116.859 274.131 114.631 266.828 110.431L271.4 94.0751L269.241 75.5556L263.271 84.1471L250.442 71.7371C250.442 71.7371 259.842 54.3631 260.985 52.8357C268.416 42.7167 281.181 42.9713 281.181 42.9713L299.281 43.9895C299.281 43.9895 309.443 43.4168 316.175 51.4992C316.175 51.4992 322.716 61.4909 328.051 86.1836L308.299 87.6474Z" fill="#E51937"/>
<path d="M317.382 54.1749C317.382 54.1749 317.318 54.1749 317.128 54.2386C316.937 54.2386 316.683 54.3022 316.366 54.3659C315.667 54.4931 314.714 54.6841 313.508 55.1932C312.301 55.7023 310.904 56.5297 309.57 57.8025C308.872 58.4389 308.237 59.2026 307.665 60.0936C307.093 60.9845 306.585 62.0028 306.331 63.1483C306.204 63.7211 306.204 64.2939 306.395 64.8667C306.585 65.4394 306.903 65.9486 307.411 66.3304C307.919 66.7123 308.554 66.8395 309.189 66.585C309.761 66.394 310.205 65.8213 310.396 65.1849C310.586 64.5485 310.586 63.8484 310.269 63.212C309.951 62.5756 309.507 62.0664 308.872 61.621C307.665 60.73 306.204 60.2208 304.68 60.0299C303.156 59.839 301.505 60.0299 299.917 60.4754C298.329 60.9209 296.741 61.4937 295.281 62.3846C293.82 63.2756 292.486 64.4212 291.47 65.8849C290.962 66.585 290.581 67.4123 290.581 68.3033C290.581 68.7488 290.644 69.1306 290.898 69.5125C291.153 69.8943 291.47 70.1489 291.851 70.4034C292.296 70.5307 292.74 70.658 293.121 70.4671C293.502 70.2762 293.82 69.8943 294.074 69.5125C294.519 68.6215 294.582 67.6032 294.582 66.585C294.582 65.5667 294.455 64.6121 294.137 63.6575C293.82 62.7665 293.248 61.9392 292.55 61.2391C291.153 59.9026 289.311 59.139 287.469 58.948C285.627 58.7571 283.722 59.0117 282.007 59.5844C280.292 60.0936 278.578 60.7936 277.434 62.1301C276.926 62.7665 276.545 63.5938 276.609 64.4212C276.672 65.2485 277.117 66.0122 277.689 66.5213C278.006 66.7759 278.324 66.9668 278.705 66.9668C279.086 67.0305 279.467 66.9032 279.784 66.7122C280.419 66.3304 280.737 65.5031 280.8 64.803C280.864 64.0393 280.8 63.2756 280.546 62.5756C280.419 62.1937 280.292 61.8755 280.165 61.5573C280.102 61.3664 280.038 61.2391 279.975 61.0482L279.721 60.6027C279.086 59.3299 278.197 58.248 277.244 57.2934C275.339 55.4478 273.179 54.3022 271.211 53.6658C269.242 53.0294 267.4 52.8385 265.939 52.9658C264.479 53.093 263.335 53.3476 262.637 53.6022C262.256 53.7295 262.002 53.8567 261.811 53.9204C261.621 53.984 261.494 53.984 261.494 53.984C261.494 53.984 261.557 53.9204 261.748 53.8567C261.938 53.7931 262.192 53.6658 262.573 53.5385C263.335 53.284 264.415 52.9658 265.939 52.8385C267.4 52.7112 269.242 52.9021 271.274 53.4749C273.306 54.1113 275.466 55.2568 277.434 57.1024C278.387 58.0571 279.276 59.139 279.975 60.4118L280.229 60.9209C280.292 61.1118 280.356 61.2391 280.419 61.43C280.546 61.7482 280.737 62.1301 280.8 62.5119C281.055 63.2756 281.118 64.0393 281.055 64.803C280.991 65.5667 280.673 66.4577 279.911 66.9668C279.53 67.2214 279.086 67.285 278.641 67.285C278.197 67.2214 277.816 67.0305 277.434 66.7759C276.736 66.2031 276.291 65.3758 276.228 64.4848C276.164 64.0393 276.228 63.5938 276.418 63.1483C276.609 62.7029 276.799 62.321 277.117 62.0028C278.324 60.6027 280.038 59.9026 281.817 59.3299C283.595 58.8207 285.5 58.5025 287.405 58.6935C289.311 58.8844 291.28 59.7117 292.677 61.1118C293.375 61.8119 294.01 62.6392 294.391 63.5938C294.773 64.5485 294.9 65.5667 294.9 66.585C294.9 67.6032 294.773 68.6851 294.328 69.6397C294.074 70.0852 293.756 70.5307 293.248 70.7853C292.74 70.9762 292.169 70.9126 291.724 70.7216C291.343 70.4671 290.962 70.1489 290.708 69.7034C290.454 69.2579 290.327 68.8124 290.327 68.3033C290.327 67.3487 290.771 66.4577 291.28 65.694C292.359 64.1666 293.756 63.0211 295.217 62.1301C296.678 61.1755 298.329 60.6027 299.917 60.1572C301.505 59.7117 303.156 59.5208 304.807 59.7117C306.395 59.9026 307.919 60.4118 309.126 61.3664C309.761 61.8119 310.269 62.3847 310.586 63.0847C310.904 63.7848 310.967 64.5484 310.713 65.2485C310.523 65.9486 310.015 66.585 309.316 66.8395C308.618 67.0941 307.855 66.9032 307.347 66.5213C306.776 66.1395 306.395 65.5667 306.204 64.9303C306.014 64.2939 306.014 63.6575 306.141 63.0847C306.395 61.8755 306.966 60.8573 307.474 59.9663C308.046 59.0753 308.745 58.3116 309.38 57.6752C310.777 56.4024 312.174 55.575 313.381 55.0659C314.587 54.5568 315.604 54.3659 316.302 54.3022C317.001 54.1749 317.382 54.1749 317.382 54.1749Z" fill="#FAFAFA"/>
<path d="M325.066 74.9219C325.066 74.9855 324.431 75.1128 323.415 75.6856C322.399 76.2583 321.065 77.4039 320.176 79.3131C319.922 79.7586 319.795 80.3314 319.668 80.8405C319.541 81.4133 319.477 81.986 319.668 82.5588C319.731 82.8134 319.922 83.1316 320.112 83.2589C320.366 83.3861 320.62 83.4498 320.938 83.3225C321.509 83.0679 321.827 82.4315 321.891 81.7951C322.081 80.4586 321.255 78.9949 319.985 78.3585C318.652 77.7221 316.937 77.913 315.667 78.7403C314.333 79.6313 313.571 81.0314 313.253 82.4952C313.063 83.1952 313.063 83.9589 313.444 84.5317C313.761 85.1045 314.523 85.4863 315.095 85.1681C315.667 84.9135 316.048 84.2771 316.048 83.6407C316.048 83.0043 315.794 82.4315 315.476 81.9224C314.841 80.9041 313.888 80.2041 312.872 79.8222C311.92 79.4404 310.903 79.4404 310.141 79.6313C309.316 79.8222 308.681 80.1404 308.236 80.5223C307.283 81.2223 307.029 81.8588 306.966 81.7951C306.966 81.7951 306.966 81.7315 307.029 81.6678C307.093 81.6042 307.156 81.4769 307.22 81.3496C307.41 81.0951 307.664 80.7132 308.173 80.3314C308.617 79.9495 309.316 79.5677 310.141 79.3768C310.967 79.1858 311.983 79.1222 312.999 79.504C314.015 79.8859 315.032 80.5859 315.73 81.6678C316.048 82.177 316.365 82.877 316.365 83.5771C316.365 84.2771 315.984 85.0408 315.286 85.359C314.904 85.5499 314.523 85.5499 314.142 85.359C313.761 85.2317 313.507 84.9135 313.253 84.5953C312.809 83.8953 312.872 83.0679 313.063 82.3042C313.38 80.7769 314.269 79.3131 315.667 78.3585C317.064 77.4039 318.906 77.213 320.303 77.913C321.764 78.6131 322.589 80.2041 322.399 81.6678C322.335 82.3679 321.954 83.1316 321.255 83.3861C320.874 83.5134 320.493 83.4498 320.176 83.2589C319.858 83.0679 319.731 82.7497 319.604 82.4315C319.414 81.7951 319.477 81.1587 319.604 80.5859C319.731 80.0132 319.922 79.504 320.176 78.9949C321.128 77.022 322.526 75.9401 323.542 75.3674C324.367 74.9855 325.066 74.9219 325.066 74.9219Z" fill="#FAFAFA"/>
<path d="M304.997 84.0248C304.997 84.0248 304.933 84.0248 304.87 84.0248C304.743 84.0248 304.616 83.9612 304.425 83.8975C304.044 83.8339 303.409 83.7066 302.647 83.5793C301.123 83.3884 298.773 83.4521 296.232 84.4703C295.597 84.7249 294.962 85.0431 294.327 85.4249C293.692 85.8068 293.057 86.3159 292.676 87.016C292.231 87.6524 292.041 88.5433 292.358 89.307C292.485 89.6889 292.739 90.0707 293.057 90.3253C293.375 90.5799 293.819 90.6435 294.264 90.5799C295.089 90.3889 295.788 89.6252 295.915 88.7343C296.042 87.8433 295.724 86.8887 295.153 86.0613C294.073 84.4067 292.358 83.1338 290.326 82.6247C288.294 82.1156 286.134 82.4974 284.483 83.5157C283.658 84.0248 282.896 84.6612 282.324 85.4249C282.07 85.8068 281.879 86.2523 281.752 86.6978C281.625 87.1432 281.625 87.5887 281.879 87.9706C282.07 88.3524 282.451 88.607 282.832 88.607C283.213 88.607 283.658 88.4797 283.975 88.2888C284.674 87.8433 284.928 86.9523 284.801 86.1886C284.737 85.4249 284.42 84.6612 284.039 84.0248C283.658 83.3884 283.213 82.8156 282.705 82.3065C281.689 81.3519 280.546 80.7791 279.53 80.3973C278.513 80.0154 277.561 79.9518 276.735 79.9518C275.211 79.9518 274.385 80.3973 274.385 80.3336C274.385 80.3336 274.449 80.3336 274.512 80.27C274.639 80.2063 274.766 80.2064 274.957 80.1427C275.338 80.0154 275.973 79.8881 276.735 79.8245C277.497 79.7609 278.513 79.8881 279.53 80.2063C280.609 80.5246 281.752 81.161 282.768 82.1156C283.277 82.6247 283.785 83.1975 284.166 83.8339C284.547 84.534 284.864 85.234 284.928 86.125C284.991 86.5705 284.928 87.016 284.801 87.3978C284.674 87.8433 284.356 88.2251 283.975 88.4797C283.594 88.7343 283.15 88.9252 282.641 88.8615C282.133 88.7979 281.689 88.5433 281.435 88.0342C281.181 87.5887 281.181 87.016 281.308 86.5705C281.435 86.0613 281.625 85.6159 281.943 85.234C282.514 84.4067 283.34 83.7703 284.229 83.2611C286.007 82.2429 288.23 81.7974 290.326 82.3065C292.422 82.8156 294.264 84.1521 295.343 85.8704C295.915 86.7614 296.232 87.7796 296.105 88.7979C295.978 89.8162 295.216 90.7071 294.2 90.8981C293.692 91.0253 293.184 90.8981 292.803 90.5799C292.422 90.3253 292.168 89.8798 291.977 89.4343C291.85 88.9888 291.787 88.5433 291.85 88.0979C291.914 87.6524 292.104 87.2705 292.358 86.8887C292.803 86.1886 293.502 85.6795 294.137 85.234C294.772 84.8522 295.47 84.534 296.105 84.2794C298.709 83.2611 301.123 83.2611 302.647 83.452C304.235 83.7066 304.997 84.0248 304.997 84.0248Z" fill="#FAFAFA"/>
<path d="M234.057 31.0088C235.391 31.0725 235.01 38.2639 235.962 36.7365C236.915 35.2091 235.391 27.8904 236.788 28.0177C238.566 28.2086 238.058 35.7183 238.058 36.3547C238.058 36.9911 239.011 36.9911 238.947 36.4183C238.884 35.591 238.63 26.8721 240.408 26.9994C241.36 27.0631 241.043 28.845 241.043 28.845C241.043 28.845 240.725 37.0547 241.551 37.0547C242.377 37.1184 242.758 32.2816 242.758 30.6906C242.758 29.0996 243.52 28.3995 244.218 28.9723C244.726 29.3541 244.79 34.3182 244.726 35.9728C244.663 37.5639 244.472 42.0187 246.314 39.8549C248.156 37.6911 250.379 36.7365 251.141 36.9274C251.903 37.0547 251.967 38.2003 251.141 38.5821C250.506 38.9003 249.553 39.7277 248.918 40.3641C248.347 40.8732 247.965 41.5733 247.521 42.2097C247.076 42.9097 246.886 43.3552 246.568 44.5007L249.045 74.4757L250.887 72.1847L261.366 82.3036L255.904 88.6041C251.903 93.1862 244.663 93.5044 240.598 88.9859C240.471 88.795 240.281 88.6677 240.154 88.4768C239.138 87.204 238.566 85.5493 238.439 83.8946L235.01 45.0099C234.946 40.6823 233.739 37.3729 233.549 35.1455C233.168 31.0088 233.549 31.0088 234.057 31.0088Z" fill="#B5694A"/>
<path d="M282.45 47.0431C282.514 42.5246 282.45 37.7515 282.45 37.7515C282.45 37.7515 276.671 36.7333 275.528 29.0963C274.448 21.8412 276.29 6.18551 276.29 6.18551C284.673 2.87617 294.2 4.149 300.042 10.9586L299.153 47.6796C299.026 51.9435 295.279 55.2529 290.77 55.1256C286.07 54.9347 282.387 51.3708 282.45 47.0431Z" fill="#B5694A"/>
<path d="M277.815 18.2176C277.815 18.727 278.196 19.1727 278.768 19.2364C279.276 19.3001 279.784 18.8543 279.784 18.345C279.784 17.8356 279.403 17.3898 278.831 17.3262C278.323 17.3262 277.815 17.7082 277.815 18.2176Z" fill="#263238"/>
<path d="M276.226 17.0723C276.353 17.1996 277.115 16.6903 278.131 16.6903C279.148 16.6903 279.91 17.2633 280.037 17.136C280.1 17.0723 279.973 16.8176 279.656 16.6266C279.338 16.3719 278.766 16.1172 278.131 16.1172C277.496 16.1172 276.925 16.3719 276.607 16.5629C276.29 16.8176 276.226 17.0086 276.226 17.0723Z" fill="#263238"/>
<path d="M288.548 18.5323C288.548 19.0417 288.929 19.4874 289.501 19.5511C290.009 19.6148 290.517 19.169 290.517 18.6596C290.517 18.1502 290.136 17.7045 289.564 17.6408C288.993 17.5772 288.548 18.0229 288.548 18.5323Z" fill="#263238"/>
<path d="M287.15 17.5762C287.277 17.7036 288.04 17.1942 289.056 17.1942C290.072 17.1942 290.834 17.7672 290.961 17.6399C291.024 17.5762 290.897 17.3215 290.58 17.1305C290.262 16.8758 289.691 16.6211 289.056 16.6211C288.421 16.6211 287.849 16.8758 287.531 17.0668C287.214 17.3215 287.15 17.5125 287.15 17.5762Z" fill="#263238"/>
<path d="M283.277 25.3412C283.277 25.2776 282.642 25.1503 281.562 25.023C281.308 25.023 281.054 24.9593 280.99 24.7684C280.927 24.5775 281.054 24.2593 281.181 24.0047C281.435 23.3683 281.689 22.6683 282.006 21.9682C283.15 19.1044 283.975 16.686 283.848 16.6224C283.721 16.5587 282.705 18.9134 281.562 21.7773C281.308 22.4773 281.054 23.1774 280.8 23.8138C280.673 24.132 280.546 24.4502 280.673 24.8321C280.736 25.023 280.927 25.1503 281.117 25.2139C281.308 25.2776 281.435 25.2776 281.562 25.2776C282.642 25.4048 283.277 25.4048 283.277 25.3412Z" fill="#263238"/>
<path d="M282.451 37.7538C282.451 37.7538 287.532 38.1357 292.676 35.1445C292.676 35.1445 290.136 40.3631 282.578 39.5358L282.451 37.7538Z" fill="#99583E"/>
<path d="M283.721 27.8854C284.102 27.3763 284.737 27.1218 285.436 27.1854C285.88 27.249 286.325 27.44 286.642 27.8218C286.896 28.2037 286.96 28.7128 286.706 29.0946C286.388 29.4765 285.817 29.6038 285.309 29.4128C284.801 29.2856 284.356 28.9037 283.975 28.5855C283.848 28.5219 283.721 28.3946 283.657 28.2673C283.594 28.14 283.594 28.0127 283.721 27.8854Z" fill="#99583E"/>
<path d="M286.388 26.1055C286.198 26.1055 286.198 27.251 285.245 28.0147C284.293 28.842 283.086 28.6511 283.022 28.842C283.022 28.9057 283.276 29.0966 283.785 29.0966C284.293 29.0966 284.991 28.9693 285.626 28.4602C286.198 27.9511 286.515 27.3147 286.515 26.8692C286.579 26.36 286.452 26.1055 286.388 26.1055Z" fill="#263238"/>
<path d="M296.741 5.55089C293.946 9.49664 286.643 13.5697 281.371 14.5243C282.006 13.697 285.245 11.7241 285.817 10.8967C283.404 12.6787 280.038 15.0971 276.862 15.2243C276.481 15.2243 276.1 15.2243 275.782 15.0334C275.338 14.7789 275.274 14.2697 275.211 13.8242C275.02 11.9786 275.147 8.79659 275.401 6.95099C275.719 5.1054 276.545 3.2598 278.132 2.05062C280.165 0.459592 283.086 0.0777472 285.817 0.014106C288.103 -0.0495352 290.453 0.0777482 292.549 0.905083C294.645 1.73242 296.423 3.38709 296.741 5.35997" fill="#263238"/>
<path d="M304.679 23.3088C305.06 21.3359 305.378 19.4903 305.441 18.2175C305.695 14.2717 304.552 -0.174812 291.024 0.970729L294.263 5.1074C294.263 5.1074 291.596 13.8899 297.248 19.9358C297.248 19.9358 297.566 23.4997 301.503 27.5727C301.567 27.5727 303.853 27.5091 304.679 23.3088Z" fill="#263238"/>
<path d="M297.121 19.2963C297.947 19.169 298.773 19.169 299.535 19.4872C300.297 19.8054 300.995 20.3782 301.313 21.1419C301.63 21.9056 301.567 22.7966 301.313 23.5603C300.995 24.324 300.487 25.024 299.916 25.5968C299.471 25.9786 299.027 26.3605 298.455 26.5514C297.883 26.7423 297.248 26.6787 296.74 26.2968" fill="#99583E"/>
<path d="M297.503 24.263C297.439 24.263 297.757 24.7721 298.519 24.5812C298.9 24.5175 299.217 24.1993 299.471 23.8175C299.662 23.4356 299.852 22.9901 299.916 22.481C299.979 21.9719 299.852 21.4628 299.598 21.0173C299.344 20.6354 298.9 20.3809 298.519 20.3809C297.757 20.3809 297.503 20.89 297.63 20.89C297.693 20.9536 298.011 20.6991 298.519 20.8264C299.027 20.89 299.471 21.59 299.344 22.4174C299.217 23.2447 298.9 24.0084 298.455 24.1993C297.884 24.3903 297.566 24.1993 297.503 24.263Z" fill="#B5694A"/>
<path d="M306.648 97.1343V93.6341H282.261L275.084 62.1953L238.566 62.5135L247.394 97.1343H306.648Z" fill="#263238"/>
<path d="M259.168 81.9415C260.436 81.5286 261.024 79.8391 260.482 78.1678C259.94 76.4965 258.473 75.4764 257.205 75.8892C255.938 76.302 255.35 77.9916 255.892 79.6629C256.434 81.3341 257.901 82.3543 259.168 81.9415Z" fill="#E51937"/>
<path d="M273.433 96.8737C272.798 95.7281 272.29 94.4553 271.908 93.1825C271.845 92.8643 271.718 92.5461 271.781 92.2279C271.845 91.9097 272.035 91.5915 272.353 91.5278C272.925 91.4005 273.306 92.1006 273.496 92.6734C274.322 94.7099 276.164 96.2373 278.259 96.6828L279.72 96.6191V96.5555L311.665 93.6916L310.141 87.3275L327.035 86.0547L328.559 92.2915C329.384 100.119 323.097 106.802 315.285 106.547H278.64C267.018 107.311 264.795 97.001 264.795 97.001L273.433 96.8737Z" fill="#B5694A"/>
<path d="M220.77 164.641C219.859 187.586 202.999 206.535 180.102 206.992C157.205 207.448 138.295 189.184 137.839 166.239C137.384 143.295 155.667 122.119 178.507 123.889C202.828 125.772 221.568 143.751 220.77 164.641Z" fill="#303030"/>
<path d="M215.7 176.453L202.771 184.444L207.499 195.916C211.884 191.864 215.359 186.841 217.637 181.248L215.7 176.453Z" fill="#B5694A"/>
<path d="M219.231 176.679C217.58 172.683 211.827 159.442 206.985 154.476C199.809 147.056 187.107 148.083 187.107 148.083L170.646 148.654C170.646 148.654 164.381 149.339 158.514 152.421L158.116 152.535V152.592C153.502 155.104 147.009 161.097 140.8 166.919L148.205 173.825L156.407 181.131C156.407 181.131 156.35 181.188 156.407 181.302C156.521 181.758 155.097 190.605 153.787 198.253C161.02 203.847 170.134 207.157 179.987 206.929C186.253 206.815 192.176 205.274 197.473 202.705L198.1 195.628C198.67 189.235 199.068 181.302 199.068 181.302L201.404 187.295L218.548 178.334C218.89 177.82 219.06 177.249 219.231 176.679Z" fill="#E51937"/>
<path d="M187.621 147.457C187.621 147.457 187.677 147.571 187.677 147.742C187.734 147.914 187.734 148.256 187.791 148.599C187.848 149.341 187.791 150.482 187.393 151.738C186.994 152.993 186.14 154.477 184.773 155.676C183.406 156.875 181.469 157.674 179.419 157.788C177.368 157.902 175.318 157.274 173.894 156.19C172.413 155.105 171.501 153.735 170.932 152.537C170.419 151.281 170.248 150.197 170.191 149.398C170.191 148.998 170.191 148.713 170.191 148.541C170.191 148.37 170.248 148.256 170.248 148.256C170.305 148.256 170.248 148.656 170.305 149.398C170.362 150.14 170.533 151.224 171.103 152.423C171.672 153.621 172.584 154.934 174.008 155.961C175.432 156.989 177.368 157.56 179.362 157.445C181.355 157.331 183.235 156.589 184.545 155.448C185.855 154.306 186.709 152.879 187.108 151.624C187.564 150.368 187.621 149.283 187.621 148.541C187.677 147.857 187.564 147.457 187.621 147.457Z" fill="#263238"/>
<path d="M203.283 151.054C203.283 151.111 202.828 151.054 202.144 151.339C201.404 151.567 200.435 152.195 199.581 153.28C198.727 154.364 198.157 155.962 197.986 157.789C197.872 158.702 197.815 159.672 197.815 160.643C197.758 161.67 197.758 162.697 197.758 163.725C197.701 167.948 197.986 171.83 198.271 174.569C198.385 175.939 198.556 177.081 198.613 177.823C198.67 178.165 198.67 178.45 198.727 178.736C198.727 178.964 198.727 179.021 198.727 179.021C198.727 179.021 198.67 178.907 198.67 178.736C198.613 178.507 198.556 178.222 198.499 177.88C198.385 177.138 198.214 175.996 198.043 174.626C197.701 171.83 197.417 168.005 197.474 163.725C197.474 162.64 197.531 161.613 197.531 160.643C197.588 159.615 197.644 158.645 197.758 157.732C197.986 155.905 198.556 154.25 199.467 153.166C200.378 152.081 201.404 151.453 202.144 151.225C202.828 150.94 203.283 151.054 203.283 151.054Z" fill="#263238"/>
<path d="M164.096 149.969C164.096 149.969 164.096 150.083 164.039 150.311C163.983 150.54 163.869 150.825 163.812 151.224C163.584 152.023 163.242 153.165 162.843 154.535C162.046 157.332 160.964 161.213 159.938 165.493C158.913 169.831 158.059 173.77 157.546 176.623C157.261 178.05 157.034 179.192 156.92 179.991C156.863 180.39 156.806 180.676 156.749 180.904C156.692 181.132 156.692 181.246 156.692 181.246C156.692 181.246 156.692 181.132 156.692 180.904C156.749 180.676 156.749 180.333 156.806 179.991C156.92 179.192 157.091 177.993 157.375 176.566C157.888 173.712 158.685 169.774 159.711 165.436C160.736 161.099 161.875 157.217 162.729 154.478C163.185 153.108 163.527 151.966 163.812 151.167C163.926 150.825 164.039 150.54 164.096 150.254C164.096 150.083 164.096 149.969 164.096 149.969Z" fill="#263238"/>
<path d="M218.889 173.941C218.889 173.941 218.662 174.113 218.206 174.455C217.75 174.74 217.124 175.197 216.326 175.711C214.732 176.738 212.453 178.165 209.89 179.592C207.327 181.076 204.992 182.275 203.283 183.188C202.429 183.644 201.745 183.987 201.232 184.215C200.72 184.443 200.492 184.558 200.435 184.558C200.435 184.558 200.663 184.386 201.176 184.101C201.688 183.816 202.372 183.473 203.169 183.017C204.878 182.103 207.213 180.848 209.719 179.364C212.282 177.88 214.561 176.51 216.155 175.54C216.953 175.083 217.579 174.683 218.092 174.341C218.605 174.056 218.889 173.941 218.889 173.941Z" fill="#263238"/>
<path d="M157.356 176.415C157.416 176.341 154.281 173.683 150.354 170.478C146.428 167.272 143.196 164.733 143.137 164.807C143.077 164.88 146.212 167.538 150.138 170.743C154.065 173.949 157.296 176.488 157.356 176.415Z" fill="#263238"/>
<path opacity="0.2" d="M197.531 164.865L203.967 186.098L201.575 187.353L199.24 181.36C199.183 181.303 196.791 168.746 197.531 164.865Z" fill="#101010"/>
<g opacity="0.2">
<path d="M164.837 149.968C161.362 151.794 170.077 156.189 174.007 156.075L171.159 148.541C171.102 148.541 165.976 149.34 164.837 149.968Z" fill="#101010"/>
</g>
<path opacity="0.2" d="M186.993 180.73L166.374 180.845L167.741 173.196L188.474 172.797L186.993 180.73Z" fill="#B7142C"/>
<path d="M185 122.973C184.83 123.544 185.057 124.229 185.513 124.572C185.969 124.971 186.652 125.028 187.165 124.743C188.133 124.229 188.247 122.802 188.019 121.718C187.791 120.633 187.393 119.435 187.848 118.407C188.19 117.608 188.93 117.095 189.557 116.467C190.582 115.382 191.095 113.784 190.81 112.3C190.525 110.816 189.386 109.503 187.962 109.161C186.481 108.762 184.659 109.275 183.576 108.191C182.779 107.449 182.665 106.136 182.039 105.223C181.07 103.796 179.02 103.625 177.311 103.91C175.602 104.195 173.894 104.766 172.185 104.367C170.761 104.024 169.622 103.111 168.312 102.54C165.464 101.285 161.818 102.084 159.711 104.367C157.604 106.65 157.148 110.36 158.686 113.099C159.198 114.07 160.053 114.983 161.078 115.382" fill="#263238"/>
<path d="M179.021 157.622C174.521 157.622 170.762 154.083 170.534 149.631C170.363 145.864 170.192 142.269 170.192 142.269C170.192 142.269 163.243 141.755 162.617 134.963C161.99 128.171 161.876 112.475 161.876 112.475C169.509 108.479 178.736 108.879 186.027 113.502L186.71 113.902L187.508 149.061C187.565 153.798 183.748 157.622 179.021 157.622Z" fill="#B5694A"/>
<path d="M175.034 122.976C174.521 123.147 174.237 123.718 174.408 124.231C174.578 124.745 175.148 125.03 175.661 124.859C176.173 124.688 176.458 124.117 176.287 123.603C176.116 123.09 175.547 122.804 175.034 122.976Z" fill="#263238"/>
<path d="M173.154 123.323C173.268 123.437 173.895 122.866 174.863 122.809C175.831 122.752 176.515 123.208 176.629 123.037C176.686 122.98 176.572 122.752 176.23 122.58C175.945 122.352 175.432 122.181 174.806 122.238C174.236 122.295 173.724 122.523 173.439 122.809C173.211 123.037 173.097 123.266 173.154 123.323Z" fill="#263238"/>
<path d="M164.724 122.976C164.211 123.147 163.927 123.718 164.098 124.231C164.268 124.745 164.838 125.03 165.351 124.859C165.863 124.688 166.148 124.117 165.977 123.603C165.806 123.09 165.237 122.804 164.724 122.976Z" fill="#263238"/>
<path d="M162.674 123.323C162.788 123.437 163.414 122.866 164.382 122.809C165.351 122.752 166.034 123.208 166.148 123.037C166.205 122.98 166.091 122.752 165.749 122.58C165.465 122.352 164.952 122.181 164.325 122.238C163.756 122.295 163.243 122.523 162.958 122.809C162.731 123.094 162.617 123.266 162.674 123.323Z" fill="#263238"/>
<path d="M169.794 130.683C169.794 130.625 169.224 130.511 168.256 130.511C168.028 130.511 167.8 130.454 167.8 130.34C167.743 130.169 167.8 129.941 167.914 129.598C168.085 128.97 168.313 128.285 168.484 127.657C169.281 124.861 169.851 122.578 169.68 122.521C169.509 122.464 168.768 124.69 167.971 127.486C167.8 128.171 167.572 128.799 167.401 129.484C167.345 129.769 167.174 130.112 167.344 130.511C167.401 130.682 167.629 130.854 167.8 130.854C167.971 130.911 168.085 130.854 168.199 130.854C169.224 130.797 169.794 130.74 169.794 130.683Z" fill="#263238"/>
<path d="M172.926 131.48C171.047 132.394 170.135 132.679 168.427 133.193C168.427 133.193 169.68 134.848 171.559 133.992C173.553 133.022 172.926 131.48 172.926 131.48Z" fill="#99583E"/>
<path d="M170.192 142.212C170.192 142.212 174.521 142.212 178.906 138.959C178.906 138.959 177.198 144.039 170.306 143.982L170.192 142.212Z" fill="#A36957"/>
<path d="M186.88 120.864C186.88 120.293 187.279 119.836 187.848 119.836C189.101 119.779 191.209 120.236 191.493 123.718C191.892 128.74 186.994 127.542 186.994 127.428C186.937 127.313 186.88 122.804 186.88 120.864Z" fill="#99583E"/>
<path d="M188.019 125.43C188.019 125.43 188.133 125.487 188.247 125.544C188.418 125.601 188.646 125.601 188.93 125.487C189.443 125.259 189.842 124.402 189.785 123.489C189.785 123.033 189.614 122.633 189.443 122.234C189.272 121.891 188.987 121.663 188.759 121.606C188.475 121.549 188.304 121.72 188.247 121.891C188.19 122.062 188.247 122.119 188.19 122.119C188.19 122.119 188.076 122.062 188.076 121.834C188.076 121.72 188.133 121.606 188.247 121.492C188.361 121.377 188.532 121.32 188.703 121.32C189.101 121.32 189.443 121.663 189.671 122.005C189.899 122.405 190.07 122.861 190.07 123.375C190.126 124.402 189.671 125.373 188.93 125.658C188.589 125.772 188.304 125.715 188.133 125.601C188.076 125.544 188.019 125.43 188.019 125.43Z" fill="#B5694A"/>
<path d="M176.514 120.519C176.286 120.805 175.545 120.691 174.577 120.633C173.609 120.576 172.868 120.576 172.697 120.291C172.47 120.005 173.438 119.263 174.691 119.377C175.944 119.434 176.741 120.234 176.514 120.519Z" fill="#263238"/>
<path d="M165.635 120.347C165.578 120.69 164.952 120.861 164.211 120.918C163.528 120.975 162.844 120.918 162.73 120.575C162.616 120.233 163.186 119.719 164.097 119.662C165.009 119.605 165.692 120.004 165.635 120.347Z" fill="#263238"/>
<path d="M160.964 114.637C160.964 114.637 165.065 116.635 170.419 113.952C173.951 112.183 177.995 111.326 178.906 112.068C179.817 112.753 179.988 116.406 183.463 117.434C183.463 117.434 183.235 124.34 185.969 124.112C188.703 123.883 186.994 113.153 186.994 113.153L180.273 109.842L172.925 108.473L165.977 109.443L160.623 110.927L160.964 114.637Z" fill="#263238"/>
<path d="M136.358 126.512C136.586 126.911 144.503 154.422 144.503 154.422L128.783 156.591L121.549 134.16L136.358 126.512Z" fill="#455A64"/>
<path d="M144.503 154.365L145.927 153.623L137.725 125.77L136.188 126.569L144.503 154.365Z" fill="#263238"/>
<path d="M129.264 134.589C129.633 134.509 129.868 134.145 129.789 133.775C129.709 133.405 129.346 133.17 128.977 133.249C128.608 133.328 128.373 133.693 128.452 134.063C128.531 134.433 128.895 134.668 129.264 134.589Z" fill="#E51937"/>
<path d="M141.541 166.924L131.232 173.659L129.352 149.573L129.523 148.374L136.472 145.749L134.479 140.612C133.51 138.215 130.662 137.13 128.384 138.329C127.644 138.729 126.846 139.128 126.163 139.471C124.568 140.27 123.372 141.754 122.916 143.466C122.119 146.434 121.435 149.687 121.492 149.402L117.05 180.394C117.05 180.394 114.942 189.355 121.037 193.579C125.65 196.775 133.396 193.408 137.497 191.067L155.325 180.28L141.541 166.924Z" fill="#B5694A"/>
</svg>
