<svg width="199" height="199" viewBox="0 0 199 199" fill="none" xmlns="http://www.w3.org/2000/svg">
<path d="M87.4123 194.492C84.33 179.438 81.7809 164.229 78.6988 149.175C78.1104 146.341 81.8846 144.209 83.7224 146.567C87.5934 150.762 91.1136 154.944 94.9846 159.14C95.0423 153.346 92.4057 149.024 88.914 144.141C87.5958 141.98 86.4739 139.3 87.9757 136.902C90.2355 133.128 96.5628 133.032 100.449 132.486C110.34 131.128 120.358 131.005 130.123 128.412C141.319 125.174 136.453 119.533 129.257 115.027C121.724 110.157 112.915 106.465 104.414 103.839C89.4875 99.3736 73.3124 95.385 61.0677 85.4064C54.2649 79.8629 48.6286 67.1647 56.9924 60.1239C67.1799 51.4007 85.223 48.2628 98.3401 49.6694C105.355 49.9519 151.397 58.1298 138.93 40.5895C129.786 27.7501 107.341 22.4547 92.9335 18.1858C91.0257 17.582 91.6718 14.6219 93.5938 14.875C108.787 17.0678 124.708 22.9786 137.529 31.7506C144.36 36.5926 152.62 49.5722 141.675 55.2791C128.934 61.9677 111.581 56.7018 97.9452 55.0987C89.3876 53.8757 79.6365 56.1177 71.4708 58.2479C54.073 62.8167 57.1977 76.819 69.8781 84.7071C85.4759 94.2938 104.541 96.2907 121.108 103.633C126.972 106.328 147.003 114.863 143.255 125.076C138.917 136.846 118.377 136.545 108.332 137.37C108.865 137.216 91.9597 138.292 92.9274 140.439C93.8948 142.586 95.7459 144.592 97.0638 146.753C99.5321 150.892 100.597 154.976 100.245 159.353C103.543 155.972 107.177 152.957 111.148 150.307C113.309 148.988 116.016 151.557 115.398 153.815C110.386 169.246 100.056 181.477 92.4626 195.574C91.4943 197.819 87.8327 197.144 87.4123 194.492ZM98.5315 167.012C97.437 168.022 96.2306 167.446 95.7398 166.548C94.8559 166.688 93.9861 166.477 93.3129 165.748C91.125 163.376 88.7687 160.822 86.5808 158.451C88.3179 167.654 89.887 176.676 91.6241 185.88C96.7051 177.478 102.473 169.454 106.516 160.659C103.976 162.664 101.254 164.838 98.5315 167.012Z" fill="white" fill-opacity="0.3"/>
</svg>
