<svg width="500" height="373" viewBox="0 0 500 373" fill="none" xmlns="http://www.w3.org/2000/svg">
<path d="M500 327.4H0V327.7H500V327.4Z" fill="#EBEBEB"/>
<path d="M237 282.8H43.9C40.8 282.8 38.2 280.2 38.2 277.1V5.7C38.2 2.6 40.8 0 43.9 0H237C240.1 0 242.7 2.6 242.7 5.7V277.1C242.7 280.2 240.2 282.8 237 282.8ZM43.9 0.200001C40.9 0.200001 38.4 2.6 38.4 5.7V277.1C38.4 280.1 40.8 282.6 43.9 282.6H237C240 282.6 242.5 280.2 242.5 277.1V5.7C242.5 2.7 240.1 0.200001 237 0.200001H43.9Z" fill="#EBEBEB"/>
<path d="M453.3 282.8H260.2C257.1 282.8 254.5 280.2 254.5 277.1V5.7C254.5 2.6 257.1 0 260.2 0H453.3C456.4 0 459 2.6 459 5.7V277.1C459 280.2 456.5 282.8 453.3 282.8ZM260.2 0.200001C257.2 0.200001 254.7 2.6 254.7 5.7V277.1C254.7 280.1 257.1 282.6 260.2 282.6H453.3C456.3 282.6 458.8 280.2 458.8 277.1V5.7C458.8 2.7 456.4 0.200001 453.3 0.200001H260.2Z" fill="#EBEBEB"/>
<path d="M77.3 336.9H51.3V337.2H77.3V336.9Z" fill="#EBEBEB"/>
<path d="M190.2 334.2H145.2V334.5H190.2V334.2Z" fill="#EBEBEB"/>
<path d="M139.1 346.2H78.3V346.5H139.1V346.2Z" fill="#EBEBEB"/>
<path d="M448.7 344.5H429.5V344.8H448.7V344.5Z" fill="#EBEBEB"/>
<path d="M420.6 344.5H365.3V344.8H420.6V344.5Z" fill="#EBEBEB"/>
<path d="M331.5 340.3H257V340.6H331.5V340.3Z" fill="#EBEBEB"/>
<path d="M190.8 160.4L178.1 327.4H300.1L312.8 160.4H190.8ZM267.5 278.5C266.5 292.1 254.6 303.2 241 303.2C227.4 303.2 217.2 292.2 218.2 278.5L222.6 219.8C223.6 206.2 235.5 195.1 249.1 195.1C255.9 195.1 261.9 197.9 266 202.3C270.1 206.8 272.4 212.9 271.9 219.7L267.5 278.5Z" fill="#E6E6E6"/>
<path d="M338.9 327.4H161L162 316.4H339.9L338.9 327.4Z" fill="#E6E6E6"/>
<path d="M407.2 265.4H423C423.9 265.4 424.6 264.7 424.6 263.8L424.5 262.7C424.5 261.8 423.7 261.1 422.8 261.1H407C406.1 261.1 405.4 261.8 405.4 262.7L405.5 263.8C405.6 264.7 406.3 265.4 407.2 265.4Z" fill="#E0E0E0"/>
<path d="M380.9 265.4H396.7C397.6 265.4 398.3 264.7 398.3 263.8L398.2 262.7C398.2 261.8 397.4 261.1 396.5 261.1H380.7C379.8 261.1 379.1 261.8 379.1 262.7L379.2 263.8C379.2 264.7 380 265.4 380.9 265.4Z" fill="#E0E0E0"/>
<path d="M435.2 264.2H67.6C63.4 264.2 59.8 260.8 59.5 256.5L48.5 35.7C48.3 31.5 51.6 28 55.8 28H423.4C427.6 28 431.2 31.4 431.5 35.7L442.6 256.5C442.7 260.7 439.5 264.2 435.2 264.2Z" fill="#E0E0E0"/>
<path d="M439.7 264.2H72.1C67.9 264.2 64.3 260.8 64 256.5L53 35.7C52.8 31.4 56 28 60.3 28H427.9C432.1 28 435.7 31.4 436 35.7L447 256.5C447.2 260.7 444 264.2 439.7 264.2Z" fill="#E6E6E6"/>
<path d="M74.3 248.8L64 43.4C63.9 40.7 65.9 38.6 68.6 38.6H420.8C423.5 38.6 425.7 40.8 425.9 43.4L436 248.8C436.1 251.5 434.1 253.6 431.4 253.6H79.3C76.7 253.6 74.4 251.4 74.3 248.8Z" fill="#F5F5F5"/>
<path d="M85.7 49.1C85.8 51.5 84 53.4 81.7 53.4C79.3 53.4 77.3 51.5 77.2 49.1C77.1 46.7 78.9 44.8 81.2 44.8C83.5 44.8 85.5 46.8 85.7 49.1Z" fill="white"/>
<path d="M104.9 49.1C105 51.5 103.2 53.4 100.9 53.4C98.5 53.4 96.5 51.5 96.4 49.1C96.3 46.7 98.1 44.8 100.4 44.8C102.7 44.8 104.8 46.8 104.9 49.1Z" fill="white"/>
<path d="M124.2 49.1C124.3 51.5 122.5 53.4 120.2 53.4C117.8 53.4 115.8 51.5 115.7 49.1C115.6 46.7 117.4 44.8 119.7 44.8C122.1 44.8 124.1 46.8 124.2 49.1Z" fill="white"/>
<g opacity="0.6">
<path d="M110.9 253.6H161.6L208 38.6H157.3L110.9 253.6Z" fill="white"/>
<path d="M329.3 253.6H342.1L388.5 38.6H375.7L329.3 253.6Z" fill="white"/>
<path d="M172.9 253.6H244.9L291.3 38.6H219.3L172.9 253.6Z" fill="white"/>
</g>
<path d="M250 372.5C357.088 372.5 443.9 367.441 443.9 361.2C443.9 354.959 357.088 349.9 250 349.9C142.912 349.9 56.1 354.959 56.1 361.2C56.1 367.441 142.912 372.5 250 372.5Z" fill="#F5F5F5"/>
<path d="M360.6 208.1C360.5 208.1 360.4 208.1 360.2 208.1C333.6 205.9 315.2 183.2 314.5 182.2C313 180.3 313.3 177.5 315.2 175.9C317.1 174.4 319.9 174.7 321.5 176.6C321.7 176.9 337.4 196.2 359.1 199C366.1 192 372.1 173.5 371.4 167.9C371.4 167.8 371.4 167.8 371.4 167.7C371.3 165.9 370.9 159.7 372.7 156.1C373.8 153.9 376.4 152.9 378.7 154C380.9 155.1 381.9 157.7 380.8 160C380.4 160.9 380.2 164.2 380.4 167C381.4 176.2 373.4 199.4 363.4 207.2C362.6 207.7 361.6 208.1 360.6 208.1Z" fill="#ADADAD"/>
<path d="M148.8 183.8C140.9 183.8 118.4 181.9 100.2 161.5C98.8 159.9 98.7 157.6 99.9 155.9C107.1 146.2 119.9 123.3 121.8 115.8C121 114.4 119.5 112.3 117.7 111.5C116.3 110.8 115.3 109.5 115.2 107.9L114.5 100.6C114.3 98.1 116.1 96 118.5 95.7C121 95.5 123.1 97.2 123.4 99.7L123.9 104.8C128.3 107.9 130.4 112.8 130.7 113.4C131 114.1 131.1 114.9 131 115.7C130.1 123.6 117.2 146.6 109.3 158.2C127.8 176.6 149.9 174.9 150.9 174.9C153.3 174.7 155.5 176.5 155.7 178.9C155.9 181.4 154.1 183.5 151.7 183.7C151.5 183.7 150.5 183.8 148.8 183.8Z" fill="#ADADAD"/>
<path d="M292.9 361.1H280.9C279.5 361.1 278.2 360.4 277.3 359.3C276.5 358.2 276.2 356.7 276.6 355.4C279.7 344.2 281.3 335 282.4 320.7C278.2 300.8 274.2 282.5 274.1 282.3C273.6 279.9 275.1 277.5 277.5 277C279.9 276.5 282.3 278 282.8 280.4C282.8 280.6 286.9 299.3 291.2 319.5C291.3 319.9 291.3 320.4 291.3 320.8C290.3 333.7 289 342.6 286.6 352.2H292.8C295.3 352.2 297.3 354.2 297.3 356.7C297.3 359.1 295.3 361.1 292.9 361.1Z" fill="#ADADAD"/>
<path d="M200.3 361.1H193.5C192.2 361.1 191 360.5 190.1 359.6C189.3 358.6 188.9 357.3 189 356.1C190.1 347.9 196 333 202.3 318C204.5 298.2 206.4 281.2 206.4 281C206.7 278.5 208.9 276.8 211.3 277C213.8 277.3 215.5 279.5 215.3 281.9C215.3 282.1 213.4 299.5 211.1 319.6C211.1 320 210.9 320.4 210.8 320.8C206.4 331.4 201.3 343.9 199 352.2H200.2C202.7 352.2 204.7 354.2 204.7 356.7C204.8 359.1 202.8 361.1 200.3 361.1Z" fill="#ADADAD"/>
<path d="M204.2 56L152.1 108C149.5 165.7 149.7 226.3 152.1 289.2H324.3C320.9 208.1 320.6 130 324.3 55.9H204.2V56Z" fill="white"/>
<path d="M324.3 290.1H152.1C151.6 290.1 151.2 289.7 151.2 289.2C148.7 223.9 148.7 163 151.2 107.9C151.2 107.7 151.3 107.5 151.5 107.3L203.6 55.2C203.8 55 204 54.9 204.2 54.9H324.3C324.5 54.9 324.8 55 324.9 55.2C325.1 55.4 325.2 55.6 325.1 55.9C321.5 127.2 321.5 203.5 325.1 289.1C325.1 289.3 325 289.6 324.9 289.8C324.8 290 324.6 290.1 324.3 290.1ZM153 288.3H323.4C319.9 203.4 319.9 127.7 323.4 56.8H204.6L153 108.4C150.6 163.1 150.5 223.6 153 288.3Z" fill="#ADADAD"/>
<path d="M293.4 264.5H274.6C274.2 264.5 273.9 264.2 273.9 263.8C273.9 263.4 274.2 263.1 274.6 263.1H293.4C293.8 263.1 294.1 263.4 294.1 263.8C294.1 264.2 293.8 264.5 293.4 264.5Z" fill="#ADADAD"/>
<path d="M266.9 264.5H183C182.6 264.5 182.3 264.2 182.3 263.8C182.3 263.4 182.6 263.1 183 263.1H266.9C267.3 263.1 267.6 263.4 267.6 263.8C267.6 264.2 267.3 264.5 266.9 264.5Z" fill="#ADADAD"/>
<path d="M214.3 164.2C214.1 159.8 211.6 156.4 208.8 156.5C205.9 156.6 203.8 160.2 204 164.6C204.2 169 206.7 172.4 209.5 172.3C212.3 172.2 214.5 168.5 214.3 164.2Z" fill="#ADADAD"/>
<path d="M274.6 162.8C274.4 158.4 271.9 155 269.1 155.1C266.2 155.2 264.1 158.8 264.3 163.2C264.5 167.6 267 171 269.8 170.9C272.7 170.8 274.8 167.2 274.6 162.8Z" fill="#ADADAD"/>
<path d="M229.3 182C245.1 176.3 257.4 183 257.9 183.3C258.5 183.6 258.7 184.4 258.4 185C258.1 185.6 257.3 185.8 256.6 185.5C256.5 185.4 242.2 177.7 225.2 186.5C224.6 186.8 223.8 186.6 223.5 186C223.2 185.4 223.4 184.6 224 184.3C225.9 183.4 227.6 182.6 229.3 182Z" fill="#ADADAD"/>
<path d="M205.6 123.3C206 123.3 206.5 123.4 206.9 123.7C208.1 124.4 208.5 126 207.8 127.2C200.6 139.3 188.8 139.9 188.3 140C186.9 140.1 185.7 139 185.6 137.5C185.5 136.1 186.6 134.9 188 134.8C188.4 134.8 197.6 134.2 203.4 124.5C203.9 123.8 204.7 123.3 205.6 123.3Z" fill="#ADADAD"/>
<path d="M266.1 121.9C266.9 121.7 267.8 122 268.4 122.6C276.4 130.6 285.5 129 285.9 128.9C287.3 128.6 288.6 129.5 288.9 130.9C289.2 132.3 288.3 133.6 286.9 133.9C286.4 134 274.8 136.2 264.7 126.2C263.7 125.2 263.7 123.6 264.7 122.6C265.1 122.2 265.6 122 266.1 121.9Z" fill="#ADADAD"/>
<path opacity="0.2" d="M321.7 149.9L314.4 150.6C311.8 150.8 309.4 149.1 308.8 146.5L298.7 101.1C298.1 98.4 299.8 95.6 302.5 94.9L322.1 89.8L321.7 149.9Z" fill="#ADADAD"/>
<path opacity="0.2" d="M209 112.7C203.9 98.8 198.8 76.6 204.2 56L152.1 108C166.9 113 190.3 115.1 209 112.7Z" fill="#ADADAD"/>
<path d="M204.2 108C198.5 91.1 200.8 68.2 204.2 55.9L152.1 108C167.9 110.9 185.5 110.5 204.2 108Z" fill="white"/>
<path d="M176 110.9C167.3 110.9 159.4 110.2 152 108.9C151.7 108.8 151.4 108.6 151.3 108.3C151.2 108 151.3 107.6 151.5 107.4L203.6 55.3C203.9 55 204.3 55 204.7 55.2C205.1 55.4 205.2 55.8 205.1 56.2C202 67.6 199.4 90.8 205.1 107.7C205.2 108 205.2 108.2 205 108.5C204.9 108.7 204.6 108.9 204.4 108.9C194 110.3 184.6 110.9 176 110.9ZM154 107.5C167.8 109.8 183.9 109.7 203 107.3C198.3 92.4 199.4 72.6 202.5 58.9L154 107.5Z" fill="#ADADAD"/>
<path d="M383.1 184.1C382.4 184.1 381.8 183.7 381.7 183L363.4 113.1C363.2 112.3 363.7 111.5 364.5 111.3C365.3 111.1 366.1 111.6 366.3 112.4L384.6 182.3C384.8 183.1 384.3 183.9 383.5 184.1C383.4 184.1 383.2 184.1 383.1 184.1Z" fill="#ADADAD"/>
<path d="M416.603 81.786L415.635 82.0398L417.031 87.36L417.999 87.1062L416.603 81.786Z" fill="#ADADAD"/>
<path d="M414.1 76.1L410.2 61.4C409.3 58 406.2 55.6 402.7 55.6C402 55.6 401.4 55.7 400.7 55.9L390.6 58.5L390.3 57.5L400.4 54.9C401.1 54.7 401.9 54.6 402.6 54.6C406.6 54.6 410 57.3 411.1 61.1L415 75.8L414.1 76.1Z" fill="#ADADAD"/>
<path d="M416.2 114.4L320.9 139.4C318.1 140.1 315.2 138.5 314.5 135.7L302.4 89.7C301.7 86.9 303.3 84 306.1 83.3L401.4 58.3C404.2 57.6 407.1 59.2 407.8 62L419.9 108C420.6 110.8 419 113.7 416.2 114.4Z" fill="#ADADAD"/>
<path d="M403.1 136.4L343 152.2C340.2 152.9 337.3 151.3 336.6 148.5L332.8 134.1C332.1 131.3 333.7 128.4 336.5 127.7L396.7 111.9C399.5 111.2 402.4 112.8 403.1 115.6L406.9 130C407.6 132.8 405.9 135.7 403.1 136.4Z" fill="#ADADAD"/>
<path d="M342.2 132.9L350.4 130.8L351 132.9L345.8 134.2L346.2 135.8L351 134.6L351.5 136.6L346.7 137.8L347.2 139.8L352.5 138.4L353.1 140.7L344.7 142.9L342.2 132.9Z" fill="white"/>
<path d="M354.8 140.3L352.2 130.4L357.3 129.1C358.2 128.9 359 128.7 359.5 128.8C360 128.8 360.5 129 360.9 129.4C361.3 129.8 361.6 130.3 361.8 130.9C361.9 131.5 361.9 132 361.8 132.4C361.7 132.9 361.4 133.3 361.1 133.6C360.9 133.8 360.6 134.1 360.1 134.3C360.5 134.3 360.8 134.4 361 134.5C361.1 134.6 361.3 134.7 361.6 134.9C361.9 135.1 362.1 135.3 362.2 135.4L364.4 137.9L360.9 138.8L358.5 136.2C358.2 135.9 357.9 135.7 357.7 135.6C357.4 135.5 357.2 135.5 356.9 135.6L356.6 135.7L357.6 139.7L354.8 140.3ZM356.4 133.5L357.7 133.2C357.8 133.2 358.1 133 358.5 132.9C358.7 132.8 358.8 132.7 358.9 132.5C359 132.3 359 132.1 358.9 131.9C358.8 131.6 358.7 131.4 358.4 131.2C358.2 131.1 357.7 131.1 357.2 131.2L355.9 131.6L356.4 133.5Z" fill="white"/>
<path d="M365.6 137.4L363 127.5L368.1 126.2C369 126 369.8 125.8 370.3 125.9C370.8 125.9 371.3 126.1 371.7 126.5C372.1 126.9 372.4 127.4 372.6 128C372.7 128.6 372.7 129.1 372.6 129.5C372.5 130 372.2 130.4 371.9 130.7C371.7 130.9 371.4 131.2 370.9 131.4C371.3 131.4 371.6 131.5 371.8 131.6C371.9 131.7 372.1 131.8 372.4 132C372.7 132.2 372.9 132.4 373 132.5L375.2 135L371.7 135.9L369.3 133.3C369 133 368.7 132.8 368.5 132.7C368.2 132.6 368 132.6 367.7 132.7L367.4 132.8L368.4 136.8L365.6 137.4ZM367.2 130.7L368.5 130.4C368.6 130.4 368.9 130.2 369.3 130.1C369.5 130 369.6 129.9 369.7 129.7C369.8 129.5 369.8 129.3 369.7 129.1C369.6 128.8 369.5 128.6 369.2 128.4C369 128.3 368.5 128.3 368 128.4L366.7 128.8L367.2 130.7Z" fill="white"/>
<path d="M374.4 129.9C374 128.3 374.1 126.9 374.8 125.8C375.5 124.7 376.6 123.9 378.2 123.5C379.9 123.1 381.2 123.2 382.4 123.8C383.5 124.5 384.3 125.6 384.7 127.2C385 128.4 385.1 129.4 384.9 130.2C384.7 131 384.3 131.8 383.7 132.4C383.1 133 382.2 133.5 381.1 133.7C380 134 379 134.1 378.2 133.9C377.4 133.7 376.6 133.3 376 132.7C375.2 131.9 374.7 131 374.4 129.9ZM377.5 129.1C377.8 130.1 378.1 130.8 378.6 131.1C379.1 131.4 379.7 131.5 380.3 131.4C381 131.2 381.4 130.9 381.7 130.4C382 129.9 381.9 129.1 381.6 127.9C381.4 127 381 126.3 380.5 126C380 125.7 379.4 125.6 378.8 125.8C378.2 126 377.7 126.3 377.5 126.8C377.3 127.3 377.3 128.1 377.5 129.1Z" fill="white"/>
<path d="M387.7 131.7L385.1 121.8L390.2 120.5C391.1 120.3 391.9 120.1 392.4 120.2C392.9 120.2 393.4 120.4 393.8 120.8C394.2 121.2 394.5 121.7 394.7 122.3C394.8 122.9 394.8 123.4 394.7 123.8C394.6 124.3 394.3 124.7 394 125C393.8 125.2 393.5 125.5 393 125.7C393.4 125.7 393.7 125.8 393.9 125.9C394 126 394.2 126.1 394.5 126.3C394.8 126.5 395 126.7 395.1 126.8L397.3 129.3L393.8 130.2L391.4 127.6C391.1 127.3 390.8 127.1 390.6 127C390.3 126.9 390.1 126.9 389.8 127L389.5 127.1L390.5 131.1L387.7 131.7ZM389.3 125L390.6 124.7C390.7 124.7 391 124.5 391.4 124.4C391.6 124.3 391.7 124.2 391.8 124C391.9 123.8 391.9 123.6 391.8 123.4C391.7 123.1 391.6 122.9 391.3 122.7C391.1 122.6 390.6 122.6 390.1 122.7L388.8 123.1L389.3 125Z" fill="white"/>
<path d="M321.904 106.422C321.215 103.824 321.356 101.576 322.327 99.6804C323.369 97.6824 325.213 96.3328 327.858 95.6315C330.688 94.8811 333.057 95.1385 334.965 96.4037C336.677 97.5553 337.87 99.3993 338.542 101.936C339.223 104.503 339.099 106.721 338.171 108.589C337.16 110.645 335.278 112.038 332.526 112.768C329.726 113.51 327.367 113.225 325.446 111.914C323.749 110.758 322.569 108.927 321.904 106.422ZM326.213 105.255C326.701 107.095 327.507 108.354 328.63 109.033C329.519 109.576 330.505 109.703 331.587 109.416C332.067 109.289 332.495 109.093 332.871 108.827C333.363 108.498 333.757 108.079 334.053 107.571C334.678 106.494 334.734 104.99 334.221 103.057L334.086 102.546C334.005 102.303 333.92 102.077 333.832 101.869C333.598 101.236 333.305 100.693 332.953 100.24C331.929 98.9385 330.551 98.5176 328.819 98.9769C327.195 99.4074 326.239 100.389 325.95 101.923C325.85 102.479 325.841 103.102 325.925 103.792C325.959 104.047 326.006 104.316 326.064 104.599C326.102 104.804 326.152 105.023 326.213 105.255ZM340.504 101.49C339.815 98.8918 339.956 96.6447 340.926 94.7486C341.969 92.7506 343.813 91.401 346.457 90.6998C349.287 89.9493 351.657 90.2067 353.565 91.472C355.277 92.6236 356.469 94.4675 357.142 97.0039C357.823 99.5712 357.699 101.789 356.771 103.657C355.76 105.713 353.878 107.106 351.125 107.836C348.326 108.578 345.966 108.293 344.046 106.982C342.349 105.826 341.168 103.995 340.504 101.49ZM344.813 100.323C345.301 102.163 346.106 103.423 347.23 104.101C348.119 104.644 349.104 104.771 350.187 104.484C350.666 104.357 351.094 104.161 351.471 103.896C351.963 103.566 352.357 103.148 352.652 102.639C353.277 101.563 353.333 100.058 352.821 98.1248L352.685 97.6145C352.604 97.3711 352.52 97.1453 352.431 96.937C352.197 96.3038 351.904 95.7608 351.552 95.3078C350.529 94.0067 349.151 93.5858 347.419 94.0451C345.795 94.4757 344.839 95.4576 344.55 96.9908C344.449 97.5472 344.44 98.1702 344.524 98.8598C344.559 99.1155 344.605 99.3845 344.664 99.667C344.701 99.8722 344.751 100.091 344.813 100.323ZM357.661 88.0271L364.481 86.2186C365.811 85.8659 366.812 85.6751 367.483 85.6462C368.363 85.5949 369.166 85.7542 369.894 86.1242C371.133 86.7392 371.976 87.8896 372.423 89.5753L372.521 89.9465C372.551 90.1207 372.58 90.2949 372.61 90.4692C372.663 90.9186 372.671 91.3551 372.634 91.7786C372.523 92.9833 372.018 94.0112 371.118 94.8623C370.639 95.3038 369.964 95.6898 369.091 96.0205C368.779 96.153 368.431 96.2782 368.049 96.3962L364.662 97.2943L366.31 103.511L362.065 104.637L357.661 88.0271ZM363.844 94.2089L365.862 93.6737C366.063 93.6204 366.239 93.5655 366.389 93.5091C366.81 93.3478 367.161 93.1721 367.441 92.9818C368.206 92.4315 368.467 91.7001 368.225 90.7876C368.065 90.1845 367.725 89.7449 367.205 89.469C366.677 89.1622 365.701 89.1974 364.278 89.5747L362.724 89.9868L363.844 94.2089ZM379.962 93.7339L380.034 93.9133L380.136 94.1098C380.228 94.2676 380.315 94.41 380.398 94.5369C380.605 94.8793 380.844 95.1554 381.115 95.365C381.872 95.9751 382.831 96.1265 383.991 95.8189C384.811 95.6016 385.429 95.2474 385.845 94.7563C386.276 94.2612 386.412 93.7121 386.252 93.1089C386.084 92.4748 385.649 92.0851 384.949 91.9398C384.474 91.834 383.34 91.8036 381.548 91.8485L381.205 91.865L380.832 91.8645C380.514 91.8496 380.22 91.8363 379.952 91.8246C379.191 91.7617 378.512 91.6355 377.915 91.446C376.246 90.8954 375.201 89.8236 374.778 88.2306C374.356 86.6376 374.738 85.237 375.924 84.0287C376.91 83.0056 378.27 82.2644 380.002 81.8051C382.631 81.108 384.648 81.252 386.051 82.2373C386.572 82.5791 387.009 83.0425 387.363 83.6274C387.506 83.8544 387.638 84.1009 387.758 84.3669L387.896 84.7026L388.029 85.0151L383.978 86.3126L383.816 85.9831L383.625 85.6365C383.443 85.3869 383.246 85.1743 383.034 84.9988C382.442 84.5764 381.659 84.4944 380.684 84.7527C380.019 84.9291 379.501 85.1906 379.13 85.5374C378.704 85.9316 378.555 86.3684 378.682 86.8478C378.814 87.3427 379.235 87.653 379.947 87.7787C380.414 87.8536 381.394 87.8668 382.888 87.8184L383.33 87.8005L383.825 87.7935C384.205 87.792 384.554 87.7986 384.873 87.8135C385.712 87.8559 386.447 87.9755 387.078 88.1722C388.782 88.7301 389.866 89.8829 390.329 91.6305C390.374 91.8006 390.414 91.9805 390.448 92.1702C390.482 92.4259 390.501 92.6856 390.505 92.9495C390.516 93.6751 390.389 94.3541 390.127 94.9865C389.381 96.8561 387.616 98.16 384.832 98.8981C383.58 99.2303 382.435 99.3766 381.398 99.337C379.992 99.2794 378.824 98.869 377.894 98.1061C377.363 97.6673 376.941 97.1668 376.626 96.6047C376.483 96.3777 376.358 96.1215 376.249 95.8358C376.173 95.6739 376.076 95.4346 375.959 95.1181L379.962 93.7339ZM395.277 82.1746L396.517 90.4118L394.105 91.0515L391.101 83.2818L390.08 79.4309L394.256 78.3236L395.277 82.1746ZM393.664 92.3851L397.561 91.3517L398.521 94.9706L394.623 96.004L393.664 92.3851Z" fill="white"/>
<path d="M185.197 253.095H182.464L182.481 251.346H185.197C185.988 251.346 186.65 251.173 187.183 250.828C187.722 250.482 188.127 249.987 188.396 249.342C188.672 248.698 188.809 247.93 188.809 247.04V246.345C188.809 245.654 188.73 245.042 188.572 244.508C188.42 243.975 188.191 243.527 187.886 243.164C187.588 242.8 187.218 242.525 186.779 242.337C186.345 242.15 185.844 242.056 185.276 242.056H182.411V240.298H185.276C186.126 240.298 186.902 240.442 187.605 240.729C188.308 241.01 188.915 241.418 189.424 241.951C189.94 242.484 190.336 243.123 190.611 243.867C190.886 244.611 191.024 245.443 191.024 246.363V247.04C191.024 247.96 190.886 248.792 190.611 249.536C190.336 250.28 189.94 250.919 189.424 251.452C188.909 251.979 188.294 252.386 187.579 252.673C186.87 252.955 186.076 253.095 185.197 253.095ZM183.685 240.298V253.095H181.479V240.298H183.685ZM198.389 251.188V246.653C198.389 246.313 198.328 246.02 198.205 245.774C198.082 245.528 197.894 245.337 197.642 245.203C197.396 245.068 197.086 245.001 196.711 245.001C196.365 245.001 196.066 245.059 195.814 245.176C195.562 245.294 195.366 245.452 195.225 245.651C195.085 245.85 195.014 246.076 195.014 246.328H192.905C192.905 245.953 192.996 245.589 193.177 245.238C193.359 244.886 193.623 244.573 193.968 244.297C194.314 244.022 194.727 243.805 195.208 243.647C195.688 243.489 196.227 243.41 196.825 243.41C197.54 243.41 198.173 243.53 198.723 243.77C199.28 244.01 199.716 244.374 200.033 244.86C200.355 245.34 200.516 245.944 200.516 246.671V250.898C200.516 251.332 200.546 251.721 200.604 252.067C200.669 252.407 200.759 252.703 200.877 252.955V253.095H198.706C198.606 252.867 198.527 252.577 198.468 252.225C198.416 251.868 198.389 251.522 198.389 251.188ZM198.697 247.312L198.715 248.622H197.194C196.801 248.622 196.456 248.66 196.157 248.736C195.858 248.806 195.609 248.912 195.41 249.052C195.211 249.193 195.061 249.363 194.962 249.562C194.862 249.761 194.812 249.987 194.812 250.239C194.812 250.491 194.871 250.722 194.988 250.933C195.105 251.138 195.275 251.299 195.498 251.417C195.726 251.534 196.002 251.592 196.324 251.592C196.758 251.592 197.135 251.504 197.458 251.329C197.786 251.147 198.044 250.927 198.231 250.67C198.419 250.406 198.518 250.157 198.53 249.922L199.216 250.863C199.145 251.103 199.025 251.361 198.855 251.636C198.685 251.912 198.463 252.175 198.187 252.427C197.918 252.673 197.592 252.876 197.212 253.034C196.837 253.192 196.403 253.271 195.911 253.271C195.29 253.271 194.736 253.148 194.25 252.902C193.763 252.65 193.383 252.313 193.107 251.891C192.832 251.463 192.694 250.98 192.694 250.441C192.694 249.937 192.788 249.492 192.975 249.105C193.169 248.712 193.45 248.384 193.819 248.121C194.194 247.857 194.651 247.658 195.19 247.523C195.729 247.382 196.344 247.312 197.036 247.312H198.697ZM207.091 243.586V245.132H201.729V243.586H207.091ZM203.276 241.256H205.394V250.467C205.394 250.76 205.435 250.986 205.517 251.144C205.605 251.296 205.725 251.399 205.878 251.452C206.03 251.504 206.209 251.531 206.414 251.531C206.56 251.531 206.701 251.522 206.836 251.504C206.97 251.487 207.079 251.469 207.161 251.452L207.17 253.069C206.994 253.122 206.789 253.169 206.554 253.21C206.326 253.251 206.062 253.271 205.763 253.271C205.277 253.271 204.846 253.186 204.471 253.016C204.096 252.84 203.803 252.556 203.592 252.164C203.382 251.771 203.276 251.25 203.276 250.599V241.256ZM214.087 251.188V246.653C214.087 246.313 214.025 246.02 213.902 245.774C213.779 245.528 213.591 245.337 213.34 245.203C213.093 245.068 212.783 245.001 212.408 245.001C212.062 245.001 211.763 245.059 211.511 245.176C211.259 245.294 211.063 245.452 210.923 245.651C210.782 245.85 210.712 246.076 210.712 246.328H208.602C208.602 245.953 208.693 245.589 208.875 245.238C209.056 244.886 209.32 244.573 209.666 244.297C210.011 244.022 210.424 243.805 210.905 243.647C211.385 243.489 211.924 243.41 212.522 243.41C213.237 243.41 213.87 243.53 214.421 243.77C214.977 244.01 215.414 244.374 215.73 244.86C216.052 245.34 216.214 245.944 216.214 246.671V250.898C216.214 251.332 216.243 251.721 216.301 252.067C216.366 252.407 216.457 252.703 216.574 252.955V253.095H214.403C214.303 252.867 214.224 252.577 214.166 252.225C214.113 251.868 214.087 251.522 214.087 251.188ZM214.394 247.312L214.412 248.622H212.891C212.499 248.622 212.153 248.66 211.854 248.736C211.555 248.806 211.306 248.912 211.107 249.052C210.908 249.193 210.758 249.363 210.659 249.562C210.559 249.761 210.509 249.987 210.509 250.239C210.509 250.491 210.568 250.722 210.685 250.933C210.802 251.138 210.972 251.299 211.195 251.417C211.424 251.534 211.699 251.592 212.021 251.592C212.455 251.592 212.833 251.504 213.155 251.329C213.483 251.147 213.741 250.927 213.928 250.67C214.116 250.406 214.216 250.157 214.227 249.922L214.913 250.863C214.842 251.103 214.722 251.361 214.552 251.636C214.383 251.912 214.16 252.175 213.884 252.427C213.615 252.673 213.29 252.876 212.909 253.034C212.534 253.192 212.1 253.271 211.608 253.271C210.987 253.271 210.433 253.148 209.947 252.902C209.461 252.65 209.08 252.313 208.804 251.891C208.529 251.463 208.391 250.98 208.391 250.441C208.391 249.937 208.485 249.492 208.673 249.105C208.866 248.712 209.147 248.384 209.516 248.121C209.891 247.857 210.348 247.658 210.887 247.523C211.426 247.382 212.042 247.312 212.733 247.312H214.394ZM225.011 245.616V253.095H222.893V243.586H224.888L225.011 245.616ZM224.633 247.989L223.948 247.98C223.954 247.306 224.048 246.688 224.229 246.126C224.417 245.563 224.674 245.08 225.003 244.675C225.337 244.271 225.735 243.961 226.198 243.744C226.661 243.521 227.176 243.41 227.745 243.41C228.202 243.41 228.615 243.474 228.984 243.603C229.359 243.726 229.678 243.928 229.942 244.21C230.212 244.491 230.417 244.857 230.557 245.308C230.698 245.754 230.768 246.301 230.768 246.952V253.095H228.641V246.943C228.641 246.486 228.574 246.126 228.439 245.862C228.31 245.592 228.12 245.402 227.868 245.291C227.622 245.173 227.314 245.115 226.945 245.115C226.582 245.115 226.257 245.191 225.969 245.343C225.682 245.496 225.439 245.704 225.24 245.967C225.047 246.231 224.897 246.536 224.792 246.881C224.686 247.227 224.633 247.596 224.633 247.989ZM232.526 248.446V248.244C232.526 247.558 232.626 246.922 232.825 246.337C233.024 245.745 233.311 245.232 233.686 244.798C234.067 244.359 234.53 244.019 235.075 243.779C235.626 243.533 236.247 243.41 236.938 243.41C237.635 243.41 238.257 243.533 238.801 243.779C239.352 244.019 239.818 244.359 240.199 244.798C240.58 245.232 240.87 245.745 241.069 246.337C241.268 246.922 241.368 247.558 241.368 248.244V248.446C241.368 249.131 241.268 249.767 241.069 250.353C240.87 250.939 240.58 251.452 240.199 251.891C239.818 252.325 239.355 252.665 238.81 252.911C238.265 253.151 237.647 253.271 236.956 253.271C236.258 253.271 235.634 253.151 235.084 252.911C234.539 252.665 234.076 252.325 233.695 251.891C233.314 251.452 233.024 250.939 232.825 250.353C232.626 249.767 232.526 249.131 232.526 248.446ZM234.644 248.244V248.446C234.644 248.874 234.688 249.278 234.776 249.659C234.864 250.04 235.002 250.374 235.189 250.661C235.377 250.948 235.617 251.173 235.91 251.337C236.203 251.502 236.551 251.584 236.956 251.584C237.348 251.584 237.688 251.502 237.975 251.337C238.268 251.173 238.508 250.948 238.696 250.661C238.883 250.374 239.021 250.04 239.109 249.659C239.203 249.278 239.25 248.874 239.25 248.446V248.244C239.25 247.822 239.203 247.423 239.109 247.048C239.021 246.668 238.881 246.331 238.687 246.038C238.5 245.745 238.259 245.516 237.966 245.352C237.679 245.182 237.337 245.097 236.938 245.097C236.54 245.097 236.194 245.182 235.901 245.352C235.614 245.516 235.377 245.745 235.189 246.038C235.002 246.331 234.864 246.668 234.776 247.048C234.688 247.423 234.644 247.822 234.644 248.244ZM247.503 243.586V245.132H242.141V243.586H247.503ZM243.688 241.256H245.806V250.467C245.806 250.76 245.847 250.986 245.929 251.144C246.017 251.296 246.137 251.399 246.29 251.452C246.442 251.504 246.621 251.531 246.826 251.531C246.972 251.531 247.113 251.522 247.248 251.504C247.383 251.487 247.491 251.469 247.573 251.452L247.582 253.069C247.406 253.122 247.201 253.169 246.966 253.21C246.738 253.251 246.474 253.271 246.175 253.271C245.689 253.271 245.258 253.186 244.883 253.016C244.508 252.84 244.216 252.556 244.005 252.164C243.794 251.771 243.688 251.25 243.688 250.599V241.256ZM256.485 253.095H254.367V242.671C254.367 241.962 254.499 241.368 254.762 240.887C255.032 240.401 255.416 240.035 255.914 239.789C256.412 239.537 257.001 239.411 257.68 239.411C257.891 239.411 258.099 239.425 258.304 239.455C258.509 239.478 258.709 239.516 258.902 239.569L258.849 241.204C258.732 241.174 258.603 241.154 258.463 241.142C258.328 241.13 258.181 241.125 258.023 241.125C257.701 241.125 257.423 241.186 257.188 241.309C256.96 241.426 256.784 241.599 256.661 241.828C256.544 242.056 256.485 242.337 256.485 242.671V253.095ZM258.445 243.586V245.132H252.908V243.586H258.445ZM259.579 248.446V248.244C259.579 247.558 259.678 246.922 259.878 246.337C260.077 245.745 260.364 245.232 260.739 244.798C261.12 244.359 261.583 244.019 262.128 243.779C262.678 243.533 263.299 243.41 263.991 243.41C264.688 243.41 265.309 243.533 265.854 243.779C266.405 244.019 266.871 244.359 267.252 244.798C267.633 245.232 267.923 245.745 268.122 246.337C268.321 246.922 268.421 247.558 268.421 248.244V248.446C268.421 249.131 268.321 249.767 268.122 250.353C267.923 250.939 267.633 251.452 267.252 251.891C266.871 252.325 266.408 252.665 265.863 252.911C265.318 253.151 264.7 253.271 264.008 253.271C263.311 253.271 262.687 253.151 262.136 252.911C261.591 252.665 261.129 252.325 260.748 251.891C260.367 251.452 260.077 250.939 259.878 250.353C259.678 249.767 259.579 249.131 259.579 248.446ZM261.697 248.244V248.446C261.697 248.874 261.741 249.278 261.829 249.659C261.917 250.04 262.054 250.374 262.242 250.661C262.429 250.948 262.67 251.173 262.963 251.337C263.256 251.502 263.604 251.584 264.008 251.584C264.401 251.584 264.741 251.502 265.028 251.337C265.321 251.173 265.561 250.948 265.749 250.661C265.936 250.374 266.074 250.04 266.162 249.659C266.256 249.278 266.302 248.874 266.302 248.446V248.244C266.302 247.822 266.256 247.423 266.162 247.048C266.074 246.668 265.933 246.331 265.74 246.038C265.552 245.745 265.312 245.516 265.019 245.352C264.732 245.182 264.389 245.097 263.991 245.097C263.592 245.097 263.247 245.182 262.954 245.352C262.667 245.516 262.429 245.745 262.242 246.038C262.054 246.331 261.917 246.668 261.829 247.048C261.741 247.423 261.697 247.822 261.697 248.244ZM275.918 250.854V243.586H278.045V253.095H276.041L275.918 250.854ZM276.216 248.877L276.928 248.859C276.928 249.498 276.858 250.087 276.717 250.626C276.577 251.159 276.36 251.625 276.067 252.023C275.774 252.416 275.399 252.723 274.942 252.946C274.485 253.163 273.937 253.271 273.299 253.271C272.836 253.271 272.411 253.204 272.024 253.069C271.637 252.934 271.303 252.726 271.022 252.445C270.747 252.164 270.533 251.797 270.381 251.346C270.228 250.895 270.152 250.356 270.152 249.729V243.586H272.27V249.747C272.27 250.092 272.311 250.382 272.393 250.617C272.475 250.845 272.587 251.03 272.727 251.171C272.868 251.311 273.032 251.411 273.219 251.469C273.407 251.528 273.606 251.557 273.817 251.557C274.421 251.557 274.895 251.44 275.241 251.206C275.592 250.965 275.841 250.643 275.988 250.239C276.14 249.835 276.216 249.38 276.216 248.877ZM282.316 245.616V253.095H280.198V243.586H282.193L282.316 245.616ZM281.938 247.989L281.253 247.98C281.258 247.306 281.352 246.688 281.534 246.126C281.721 245.563 281.979 245.08 282.307 244.675C282.641 244.271 283.04 243.961 283.503 243.744C283.966 243.521 284.481 243.41 285.049 243.41C285.507 243.41 285.92 243.474 286.289 243.603C286.664 243.726 286.983 243.928 287.247 244.21C287.516 244.491 287.721 244.857 287.862 245.308C288.003 245.754 288.073 246.301 288.073 246.952V253.095H285.946V246.943C285.946 246.486 285.879 246.126 285.744 245.862C285.615 245.592 285.424 245.402 285.173 245.291C284.926 245.173 284.619 245.115 284.25 245.115C283.886 245.115 283.561 245.191 283.274 245.343C282.987 245.496 282.744 245.704 282.545 245.967C282.351 246.231 282.202 246.536 282.096 246.881C281.991 247.227 281.938 247.596 281.938 247.989ZM296.036 251.127V239.595H298.163V253.095H296.238L296.036 251.127ZM289.848 248.446V248.261C289.848 247.541 289.933 246.884 290.103 246.293C290.273 245.695 290.519 245.182 290.841 244.754C291.164 244.321 291.556 243.99 292.019 243.761C292.482 243.527 293.004 243.41 293.584 243.41C294.158 243.41 294.662 243.521 295.095 243.744C295.529 243.966 295.898 244.286 296.203 244.702C296.508 245.112 296.751 245.604 296.932 246.178C297.114 246.747 297.243 247.379 297.319 248.077V248.666C297.243 249.345 297.114 249.966 296.932 250.529C296.751 251.091 296.508 251.578 296.203 251.988C295.898 252.398 295.526 252.714 295.087 252.937C294.653 253.16 294.146 253.271 293.566 253.271C292.992 253.271 292.473 253.151 292.01 252.911C291.553 252.671 291.164 252.334 290.841 251.9C290.519 251.466 290.273 250.957 290.103 250.371C289.933 249.779 289.848 249.137 289.848 248.446ZM291.966 248.261V248.446C291.966 248.879 292.005 249.284 292.081 249.659C292.163 250.034 292.289 250.365 292.459 250.652C292.629 250.933 292.848 251.156 293.118 251.32C293.393 251.478 293.721 251.557 294.102 251.557C294.583 251.557 294.978 251.452 295.289 251.241C295.599 251.03 295.842 250.746 296.018 250.388C296.2 250.025 296.323 249.621 296.387 249.175V247.585C296.352 247.239 296.279 246.917 296.168 246.618C296.062 246.319 295.919 246.058 295.737 245.836C295.555 245.607 295.33 245.431 295.06 245.308C294.797 245.179 294.483 245.115 294.12 245.115C293.733 245.115 293.405 245.197 293.135 245.361C292.866 245.525 292.643 245.751 292.467 246.038C292.298 246.325 292.172 246.659 292.09 247.04C292.008 247.421 291.966 247.828 291.966 248.261Z" fill="#ADADAD"/>
</svg>
