<svg width="280" height="286" viewBox="0 0 280 286" fill="none" xmlns="http://www.w3.org/2000/svg">
<path d="M279.467 137.207C279.467 150.727 268.822 161.763 255.446 162.418V162.447H75.7887V162.422C75.4537 162.432 75.1229 162.447 74.788 162.447C67.4017 162.447 60.6352 159.784 55.4061 155.36C48.8952 149.862 44.7617 141.645 44.7617 132.458C44.7617 116.169 57.7681 102.924 73.9724 102.489C71.867 97.7631 70.7809 92.6473 70.7846 87.4744C70.7846 67.0467 87.3639 50.4879 107.817 50.4879C120.838 50.4879 132.283 57.2055 138.884 67.3568C141.636 50.4581 154.723 37.033 171.452 33.7587C171.97 33.6591 172.489 33.5674 173.009 33.4837C173.104 33.4688 173.209 33.4587 173.314 33.4438C173.704 33.3889 174.15 33.3287 174.665 33.2637C174.725 33.2589 174.78 33.2488 174.84 33.2435C175.381 33.1833 175.923 33.1334 176.466 33.0938C176.492 33.0938 176.517 33.0938 176.536 33.089C177.483 33.0272 178.431 32.9956 179.379 32.9941C180.61 32.9941 181.831 33.049 183.032 33.1593C203.985 35.0037 220.414 52.5721 220.414 73.9796C220.414 75.6641 220.299 77.3232 220.104 78.9577C223.113 77.9772 226.258 77.4778 229.422 77.4782C246.007 77.4782 259.449 90.9033 259.449 107.467C259.449 109.162 259.303 110.816 259.033 112.431C270.673 114.69 279.466 124.921 279.466 137.207H279.467Z" fill="white"/>
<path d="M255.444 162.979H75.7869C75.7379 162.979 75.689 162.973 75.6418 162.959L75.5448 162.962C75.2919 162.971 75.0407 162.979 74.7862 162.979C67.5638 162.979 60.5751 160.423 55.0598 155.766C51.663 152.903 48.9335 149.334 47.0622 145.308C45.191 141.282 44.2232 136.896 44.2266 132.457C44.2266 124.45 47.3092 116.885 52.9064 111.155C58.3099 105.625 65.4802 102.387 73.1721 101.987C71.2315 97.3754 70.249 92.4969 70.249 87.474C70.249 66.7858 87.1013 49.9548 107.815 49.9548C120.14 49.9548 131.546 55.9164 138.589 65.9696C141.812 49.5387 154.823 36.4695 171.348 33.2356C171.87 33.1349 172.395 33.0438 172.921 32.958C172.983 32.9479 173.045 32.9405 173.109 32.933L173.238 32.9165C173.63 32.8611 174.078 32.8009 174.597 32.7353L174.681 32.7257C175.262 32.6595 175.844 32.6051 176.426 32.5627C176.451 32.5617 176.454 32.5617 176.441 32.5643C176.46 32.5611 176.481 32.5585 176.501 32.5569C178.854 32.4061 180.977 32.4354 183.079 32.6283C193.385 33.535 202.937 38.2388 209.972 45.8717C217.049 53.5509 220.946 63.5327 220.946 73.9786C220.946 75.3526 220.873 76.7426 220.723 78.2061C223.546 77.3689 226.476 76.944 229.421 76.9445C246.272 76.9445 259.981 90.6365 259.981 107.466C259.981 108.973 259.866 110.499 259.638 112.01C271.467 114.551 279.998 125.065 279.998 137.206C279.998 150.913 269.309 162.184 255.634 162.94C255.574 162.966 255.509 162.979 255.443 162.979H255.444ZM75.9486 161.914H255.274C255.321 161.897 255.369 161.887 255.418 161.884C268.604 161.239 278.932 150.399 278.932 137.206C278.932 125.402 270.52 115.202 258.93 112.953C258.794 112.926 258.673 112.848 258.594 112.734C258.515 112.62 258.483 112.479 258.506 112.342C258.777 110.724 258.914 109.084 258.914 107.467C258.914 91.2247 245.684 78.0106 229.422 78.0106C226.313 78.0099 223.224 78.5005 220.269 79.4639C220.095 79.5204 219.905 79.4847 219.765 79.3691C219.625 79.2535 219.553 79.0745 219.574 78.8939C219.781 77.1699 219.88 75.5625 219.88 73.9786C219.88 52.861 204.019 35.5403 182.984 33.689C180.943 33.502 178.889 33.4732 176.6 33.6176C176.545 33.6261 176.498 33.6261 176.466 33.6261C175.965 33.6639 175.431 33.7135 174.898 33.7726L174.821 33.7817C174.783 33.7869 174.745 33.7911 174.708 33.7945C174.218 33.8568 173.776 33.9165 173.387 33.9713L173.089 34.0102C172.578 34.0939 172.062 34.1829 171.552 34.2814C155.03 37.5148 142.113 50.8413 139.409 67.4422C139.391 67.5484 139.342 67.6468 139.268 67.7247C139.193 67.8025 139.097 67.856 138.992 67.8781C138.886 67.9003 138.777 67.89 138.677 67.8487C138.578 67.8074 138.493 67.737 138.434 67.6467C131.665 57.236 120.219 51.0203 107.815 51.0203C87.6897 51.0203 71.3158 67.3734 71.3158 87.474C71.3079 92.5727 72.3787 97.6155 74.4582 102.272C74.4935 102.352 74.5086 102.439 74.5022 102.527C74.4958 102.614 74.468 102.698 74.4214 102.772C74.3747 102.846 74.3105 102.907 74.2346 102.951C74.1586 102.994 74.0731 103.018 73.9856 103.021C57.8965 103.453 45.2939 116.383 45.2939 132.458C45.2909 136.742 46.2251 140.974 48.0311 144.86C49.8371 148.746 52.4713 152.19 55.7495 154.953C61.0721 159.447 67.8167 161.914 74.7868 161.914C75.0289 161.914 75.2684 161.906 75.509 161.898L75.7715 161.89C75.8314 161.888 75.8912 161.897 75.9486 161.914V161.914Z" fill="#191919"/>
<path d="M279.467 137.207C279.467 150.727 268.822 161.763 255.446 162.417V162.447H75.7888V162.422C75.4538 162.432 75.1231 162.447 74.7881 162.447C67.4018 162.447 60.6354 159.783 55.4062 155.36C73.287 159.948 246.085 157.799 256.447 156.449C267.81 154.969 280.148 125.723 254.943 117.762C254.376 117.582 253.998 117.034 254.048 116.442C255.792 95.8776 237.281 81.1126 215.185 84.746C214.589 84.8441 214.084 84.3054 214.209 83.7146C218.225 64.7024 202.73 36.3691 181.196 33.2892C181.787 33.2439 182.398 33.2039 183.033 33.1592C203.986 35.0036 220.416 52.572 220.416 73.9794C220.416 75.664 220.3 77.3231 220.105 78.9576C223.114 77.977 226.259 77.4777 229.424 77.4781C246.008 77.4781 259.45 90.9032 259.45 107.467C259.45 109.161 259.305 110.816 259.034 112.43C270.675 114.69 279.467 124.921 279.467 137.207Z" fill="#FF7C8F"/>
<path d="M255.444 162.98H75.7869C75.7378 162.98 75.689 162.973 75.6418 162.959L75.6152 162.961C75.3394 162.97 75.0641 162.98 74.7862 162.98C57.9355 162.98 44.2266 149.288 44.2266 132.458C44.2266 124.45 47.3092 116.885 52.9069 111.155C58.311 105.624 65.4812 102.387 73.1737 101.987C71.232 97.3764 70.249 92.4974 70.249 87.474C70.249 66.7858 87.1013 49.9547 107.815 49.9547C120.138 49.9547 131.544 55.9163 138.589 65.969C140.376 56.8609 145.217 48.5546 152.32 42.4636C159.854 36.0088 169.452 32.4606 179.378 32.4609C202.299 32.4609 220.947 51.0858 220.947 73.9786C220.947 75.3441 220.871 76.7628 220.722 78.2066C223.546 77.369 226.476 76.9439 229.422 76.9445C246.272 76.9445 259.981 90.6365 259.981 107.466C259.981 108.963 259.866 110.489 259.637 112.012C271.466 114.548 279.998 125.061 279.998 137.206C279.998 150.914 269.313 162.185 255.639 162.938C255.577 162.965 255.511 162.979 255.444 162.979V162.98ZM75.9491 161.914H255.27C255.317 161.896 255.367 161.886 255.418 161.883C268.604 161.241 278.932 150.401 278.932 137.206C278.932 125.399 270.519 115.2 258.929 112.955C258.792 112.929 258.672 112.85 258.592 112.736C258.513 112.622 258.481 112.481 258.504 112.344C258.776 110.712 258.914 109.071 258.914 107.466C258.914 91.2241 245.684 78.01 229.422 78.01C226.308 78.01 223.228 78.4991 220.267 79.4639C220.182 79.4917 220.091 79.4976 220.003 79.481C219.915 79.4644 219.832 79.4259 219.763 79.369C219.694 79.3121 219.64 79.2387 219.606 79.1556C219.573 79.0724 219.561 78.9822 219.572 78.8933C219.777 77.2108 219.88 75.5572 219.88 73.978C219.88 51.6723 201.711 33.5254 179.378 33.5254C159.417 33.5254 142.608 47.7885 139.41 67.44C139.392 67.5462 139.343 67.6447 139.269 67.7225C139.194 67.8003 139.098 67.8538 138.993 67.876C138.887 67.8981 138.778 67.8879 138.678 67.8466C138.579 67.8052 138.494 67.7348 138.436 67.6446C131.664 57.2339 120.218 51.0187 107.816 51.0187C87.6902 51.0187 71.3163 67.3718 71.3163 87.4724C71.3086 92.5714 72.3802 97.6145 74.4608 102.271C74.4962 102.351 74.5113 102.438 74.5049 102.526C74.4984 102.613 74.4706 102.697 74.4239 102.771C74.3771 102.845 74.3129 102.907 74.2369 102.95C74.1608 102.993 74.0752 103.017 73.9877 103.02C57.8981 103.449 45.2945 116.378 45.2945 132.456C45.2945 148.699 58.5249 161.913 74.7873 161.913C75.0524 161.913 75.3159 161.903 75.5789 161.894L75.7699 161.888C75.8308 161.885 75.8917 161.893 75.9496 161.913L75.9491 161.914Z" fill="#191919"/>
<path d="M136.04 93.0708C136.04 93.0708 122.494 13.4447 232.402 0.549225C232.368 0.563095 232.327 0.576965 232.292 0.5839C232.287 0.5839 232.283 0.586212 232.278 0.590836C158.023 23.6205 166.494 90.0941 166.895 92.9737C166.898 93.0064 166.903 93.039 166.909 93.0713L184.224 93.0713L151.098 126.443L118.731 93.0708L136.04 93.0708Z" fill="#F28C9B"/>
<path d="M232.404 0.0174484C232.643 0.0174484 232.856 0.180153 232.917 0.417549C232.949 0.542419 232.935 0.674667 232.877 0.789879C232.82 0.90509 232.723 0.995483 232.605 1.04437C232.558 1.06319 232.51 1.07938 232.462 1.09291L232.435 1.10197C160.707 23.3486 166.643 86.568 167.373 92.539L184.225 92.539C184.33 92.5391 184.432 92.5704 184.52 92.629C184.607 92.6876 184.674 92.7709 184.715 92.8684C184.755 92.9658 184.765 93.0731 184.745 93.1766C184.724 93.28 184.674 93.3751 184.6 93.4497L151.474 126.822C151.425 126.872 151.367 126.911 151.302 126.938C151.238 126.965 151.169 126.979 151.1 126.979L151.096 126.979C150.955 126.978 150.82 126.92 150.721 126.818L118.354 93.4454C118.281 93.3702 118.232 93.2752 118.213 93.1721C118.193 93.0691 118.205 92.9626 118.245 92.8659C118.285 92.7692 118.353 92.6867 118.44 92.6286C118.526 92.5704 118.628 92.5393 118.732 92.539L135.432 92.539C134.884 88.2494 132.512 62.6666 149.775 39.4325C165.829 17.8256 193.609 4.56578 232.343 0.0211868C232.363 0.018608 232.384 0.0173645 232.404 0.0174484ZM182.947 93.606L166.91 93.606C166.662 93.606 166.446 93.4262 166.392 93.1824C166.392 93.1824 166.38 93.1291 166.369 93.0325C165.985 90.275 157.95 26.3381 226.976 1.79389C191.41 6.87408 165.742 19.7333 150.634 40.0567C132.083 65.0101 136.516 92.706 136.563 92.9829C136.576 93.0595 136.572 93.138 136.552 93.213C136.532 93.288 136.496 93.3576 136.446 93.417C136.396 93.4764 136.334 93.5241 136.264 93.5567C136.194 93.5894 136.118 93.6062 136.041 93.606L119.989 93.606L151.104 125.686L182.948 93.6065L182.947 93.606Z" fill="#191919"/>
<path d="M150.932 126.443C151.415 125.811 175.566 93.0708 175.566 93.0708L184.224 93.0708L151.837 125.699L150.932 126.443L150.932 126.443ZM160.031 93.0569C159.839 93.0575 159.649 93.0174 159.473 92.9393C159.297 92.8612 159.139 92.7468 159.01 92.6035C158.881 92.4602 158.783 92.2911 158.722 92.1072C158.662 91.9234 158.641 91.7288 158.659 91.536C159.771 80.3301 159.908 21.4157 227.811 1.18191C229.36 0.720459 230.89 0.723137 232.277 0.590836C158.023 23.6205 166.494 90.0941 166.895 92.9737L166.812 93.0569L160.031 93.0569Z" fill="#E51937" fill-opacity="0.8"/>
<path d="M232.405 -0.000129746C232.532 4.57408e-05 232.654 0.0460281 232.75 0.129471C232.846 0.212906 232.909 0.328262 232.928 0.454575C232.947 0.580879 232.92 0.70977 232.852 0.817802C232.784 0.925842 232.681 1.00587 232.559 1.04333C193.496 13.1221 177.873 37.479 171.645 55.7849C165.506 73.8315 167.029 89.6797 167.374 92.5247L184.224 92.5247C184.329 92.5247 184.431 92.556 184.518 92.6146C184.605 92.6732 184.673 92.7565 184.713 92.854C184.753 92.9515 184.764 93.0587 184.744 93.1622C184.723 93.2656 184.673 93.3607 184.599 93.4353L151.475 126.805C151.426 126.854 151.368 126.894 151.303 126.92C151.239 126.947 151.17 126.961 151.101 126.961L151.097 126.961C150.956 126.96 150.821 126.902 150.722 126.8L118.351 93.431C118.278 93.3558 118.229 93.2608 118.21 93.1577C118.191 93.0547 118.202 92.9482 118.242 92.8515C118.283 92.7549 118.35 92.6723 118.437 92.6142C118.524 92.5561 118.625 92.5249 118.729 92.5247L135.434 92.5247C134.887 88.2345 132.512 62.649 149.777 39.4134C165.831 17.8059 193.61 4.5466 232.343 0.00360865C232.364 0.00102992 232.384 -0.000213672 232.405 -0.000129746ZM182.946 93.5911L166.91 93.5911C166.783 93.591 166.661 93.5454 166.565 93.4624C166.469 93.3794 166.406 93.2646 166.387 93.1387C166.36 92.9648 163.811 75.5231 170.644 55.4387C174.658 43.6373 181.077 33.2385 189.72 24.5313C199.402 14.7763 211.915 7.13657 226.969 1.77737C191.407 6.85756 165.744 19.7151 150.637 40.037C132.085 64.992 136.519 92.6911 136.566 92.968C136.58 93.0445 136.576 93.1231 136.556 93.1981C136.535 93.2731 136.499 93.3427 136.449 93.4021C136.4 93.4615 136.338 93.5092 136.268 93.5418C136.198 93.5744 136.121 93.5913 136.044 93.5911L119.988 93.5911L151.105 125.668L182.946 93.5911Z" fill="#191919"/>
<g clip-path="url(#clip0_3477_202274)">
<path d="M267.191 182.436C274.737 169.088 269.759 152.041 256.071 144.361C242.384 136.68 225.171 141.275 217.624 154.624C210.078 167.972 215.057 185.019 228.744 192.699C242.432 200.38 259.645 195.785 267.191 182.436Z" fill="#FF7C8F"/>
<path d="M242.878 196.881C237.912 196.881 232.986 195.601 228.519 193.095C221.795 189.322 216.916 183.22 214.782 175.913C212.647 168.603 213.516 160.963 217.226 154.399C224.884 140.853 242.409 136.171 256.296 143.963C270.18 151.754 275.247 169.113 267.589 182.659C263.879 189.223 257.77 193.922 250.388 195.892C247.939 196.548 245.414 196.88 242.878 196.881L242.878 196.881ZM241.938 141.105C232.296 141.105 223.002 146.038 218.022 154.846C214.433 161.194 213.595 168.586 215.66 175.659C217.726 182.736 222.453 188.646 228.968 192.302C235.482 195.958 243.006 196.921 250.152 195.013C257.294 193.107 263.204 188.561 266.793 182.212C274.203 169.104 269.293 152.301 255.847 144.756C251.436 142.281 246.645 141.105 241.938 141.105V141.105Z" fill="#191919"/>
<path d="M237.694 193.624C253.072 193.624 265.537 181.205 265.537 165.885C265.537 150.565 253.072 138.146 237.694 138.146C222.317 138.146 209.852 150.565 209.852 165.885C209.852 181.205 222.317 193.624 237.694 193.624Z" fill="white"/>
<path d="M237.65 194.092C232.848 194.092 228.103 192.863 223.805 190.451C210.209 182.822 205.377 165.595 213.035 152.049C216.745 145.487 222.797 140.757 230.078 138.73C237.358 136.704 244.995 137.623 251.582 141.319C265.178 148.948 270.009 166.175 262.351 179.722C258.642 186.283 252.589 191.014 245.309 193.04C242.816 193.737 240.239 194.091 237.65 194.093V194.092ZM237.735 138.589C235.261 138.589 232.772 138.926 230.324 139.607C223.279 141.569 217.422 146.145 213.832 152.495C206.421 165.604 211.097 182.275 224.254 189.658C230.627 193.234 238.017 194.124 245.063 192.162C252.108 190.201 257.965 185.623 261.555 179.274C268.966 166.165 264.29 149.495 251.133 142.112C246.974 139.778 242.381 138.588 237.735 138.588V138.589Z" fill="#191919"/>
<path d="M240.977 165.48C243.989 165.48 246.43 163.048 246.43 160.047C246.43 157.047 243.989 154.614 240.977 154.614C237.965 154.614 235.523 157.047 235.523 160.047C235.523 163.048 237.965 165.48 240.977 165.48Z" fill="#E51937"/>
<path d="M237.758 179.614C239.134 180.373 240.856 179.733 241.419 178.27C243.738 172.243 242.71 166.183 238.673 163.94C234.635 161.697 228.918 164.014 224.992 169.151C224.038 170.398 224.398 172.194 225.77 172.96C229.762 175.186 233.758 177.404 237.759 179.614H237.758Z" fill="#E51937"/>
<path d="M241.763 186.893C241.434 186.893 241.11 186.808 240.823 186.646L218.563 174.156C218.12 173.906 217.794 173.491 217.657 173.003C217.52 172.514 217.583 171.991 217.832 171.549L232.473 145.652C232.596 145.432 232.762 145.239 232.96 145.084C233.159 144.929 233.386 144.814 233.629 144.747C233.872 144.679 234.126 144.659 234.377 144.69C234.628 144.72 234.87 144.799 235.089 144.923L257.349 157.413C257.793 157.663 258.119 158.078 258.256 158.566C258.393 159.055 258.33 159.578 258.08 160.02L243.44 185.917C243.317 186.137 243.151 186.329 242.952 186.485C242.754 186.64 242.526 186.754 242.283 186.821C242.114 186.869 241.939 186.893 241.763 186.893V186.893ZM234.148 145.587C234.057 145.587 233.966 145.599 233.875 145.625C233.748 145.66 233.628 145.72 233.524 145.801C233.42 145.883 233.333 145.984 233.269 146.099L218.629 171.995C218.498 172.227 218.465 172.502 218.537 172.758C218.609 173.014 218.78 173.231 219.013 173.362L241.272 185.852C241.506 185.984 241.777 186.016 242.037 185.944C242.165 185.909 242.284 185.849 242.388 185.768C242.492 185.687 242.579 185.585 242.644 185.47L257.284 159.574C257.415 159.342 257.448 159.068 257.376 158.811C257.304 158.555 257.133 158.338 256.9 158.207L234.641 145.717C234.49 145.632 234.321 145.587 234.148 145.587Z" fill="#191919"/>
</g>
<g clip-path="url(#clip1_3477_202274)">
<path d="M169.85 183.077C167.444 172.951 157.181 166.73 146.927 169.183C136.673 171.635 130.311 181.832 132.718 191.958C135.124 202.084 145.387 208.305 155.641 205.852C165.894 203.4 172.256 193.203 169.85 183.077Z" fill="#FF7C8F"/>
<path d="M156.923 206.024C156.539 206.141 156.151 206.246 155.755 206.341C145.251 208.854 134.697 202.454 132.231 192.074C129.764 181.694 136.303 171.203 146.809 168.693C151.896 167.476 157.144 168.289 161.587 170.981C166.032 173.676 169.139 177.93 170.334 182.96C172.707 192.949 166.738 203.04 156.923 206.024L156.923 206.024ZM133.201 191.842C135.54 201.681 145.553 207.747 155.523 205.362C155.898 205.272 156.268 205.172 156.633 205.061C165.949 202.229 171.614 192.662 169.364 183.192C168.232 178.428 165.288 174.398 161.074 171.844C156.857 169.288 151.874 168.517 147.042 169.672C137.072 172.063 130.863 182.002 133.201 191.842L133.201 191.842Z" fill="#191919"/>
<path d="M160.25 204.714C170.126 201.712 175.697 191.2 172.695 181.236C169.692 171.272 159.252 165.628 149.377 168.631C139.502 171.633 133.93 182.145 136.933 192.109C139.935 202.073 150.375 207.717 160.25 204.714Z" fill="white"/>
<path d="M160.405 205.193C160.035 205.305 159.662 205.407 159.285 205.496C154.301 206.689 149.15 205.851 144.781 203.139C140.411 200.427 137.347 196.164 136.153 191.136C134.958 186.108 135.776 180.916 138.454 176.518C141.135 172.119 145.356 169.04 150.338 167.849C160.627 165.388 171.004 171.83 173.471 182.209C175.846 192.207 170.03 202.266 160.405 205.193ZM149.497 169.119C145.241 170.413 141.65 173.196 139.305 177.046C136.765 181.216 135.99 186.137 137.123 190.903C138.255 195.67 141.16 199.711 145.302 202.283C149.444 204.854 154.327 205.648 159.052 204.518C168.816 202.178 174.839 192.282 172.501 182.442C170.162 172.602 160.325 166.495 150.571 168.828C150.21 168.914 149.852 169.011 149.497 169.119Z" fill="#191919"/>
<path d="M158.337 197.848C164.532 195.964 168.026 189.371 166.143 183.121C164.26 176.871 157.711 173.331 151.517 175.214C145.322 177.097 141.828 183.691 143.711 189.941C145.594 196.191 152.143 199.731 158.337 197.848Z" fill="white"/>
<path d="M158.488 198.328C158.253 198.399 158.016 198.464 157.775 198.522C154.6 199.281 151.319 198.748 148.536 197.02C145.753 195.292 143.801 192.577 143.04 189.374C142.279 186.171 142.8 182.864 144.506 180.063C146.213 177.261 148.904 175.298 152.076 174.541C153.636 174.163 155.256 174.101 156.842 174.359C158.428 174.617 159.948 175.189 161.315 176.042C164.098 177.771 166.05 180.485 166.811 183.688C168.324 190.056 164.619 196.463 158.488 198.328ZM151.645 175.7C149.019 176.498 146.804 178.216 145.357 180.591C144.583 181.855 144.065 183.261 143.834 184.729C143.603 186.196 143.663 187.697 144.011 189.142C144.35 190.59 144.971 191.956 145.838 193.161C146.704 194.366 147.798 195.387 149.057 196.163C150.312 196.947 151.708 197.473 153.165 197.71C154.621 197.946 156.109 197.89 157.542 197.543C160.462 196.842 162.926 195.044 164.493 192.472C166.061 189.899 166.539 186.862 165.84 183.921C165.141 180.98 163.348 178.486 160.793 176.899C159.538 176.116 158.142 175.59 156.685 175.353C155.229 175.117 153.741 175.173 152.308 175.52C152.085 175.574 151.863 175.634 151.646 175.7L151.645 175.7Z" fill="#191919"/>
<path d="M152.152 190.875L149.864 183.282C149.587 182.361 150.439 181.502 151.352 181.782L159.338 184.23C160.23 184.503 160.485 185.654 159.792 186.281L154.094 191.426C153.443 192.013 152.406 191.719 152.152 190.875L152.152 190.875Z" fill="#E51937"/>
<path d="M153.788 192.164C153.48 192.258 153.151 192.26 152.841 192.171C152.566 192.094 152.315 191.948 152.111 191.747C151.908 191.546 151.758 191.296 151.675 191.02L149.387 183.428C149.298 183.132 149.29 182.817 149.364 182.517C149.438 182.217 149.592 181.944 149.809 181.726C150.025 181.507 150.297 181.352 150.594 181.277C150.891 181.203 151.203 181.211 151.497 181.301L159.482 183.749C159.771 183.835 160.032 183.998 160.237 184.221C160.442 184.444 160.583 184.718 160.647 185.015C160.714 185.31 160.701 185.619 160.61 185.908C160.518 186.197 160.351 186.455 160.125 186.656L154.428 191.801C154.239 191.971 154.021 192.093 153.788 192.164L153.788 192.164ZM150.806 182.261C150.699 182.293 150.599 182.353 150.515 182.438C150.425 182.527 150.361 182.639 150.331 182.762C150.3 182.886 150.304 183.015 150.342 183.137L152.63 190.73C152.7 190.964 152.875 191.136 153.109 191.202C153.344 191.269 153.581 191.213 153.761 191.05L159.459 185.905C159.649 185.734 159.729 185.482 159.673 185.231C159.647 185.109 159.589 184.996 159.505 184.904C159.421 184.813 159.313 184.746 159.195 184.71L151.209 182.263C151.078 182.222 150.938 182.221 150.807 182.26L150.806 182.261Z" fill="#E51937"/>
</g>
<g clip-path="url(#clip2_3477_202274)">
<path d="M45.855 133.744C59.2056 128.046 65.529 112.778 59.9787 99.6411C54.4284 86.5047 39.1062 80.4747 25.7555 86.1728C12.4049 91.871 6.08145 107.139 11.6318 120.276C17.1821 133.412 32.5043 139.442 45.855 133.744Z" fill="#FF7C8F"/>
<path d="M40.9489 135.775C35.8359 136.863 30.5173 136.419 25.6525 134.499C19.0731 131.91 13.9455 126.922 11.213 120.454C8.4804 113.986 8.47044 106.814 11.1856 100.258C13.899 93.7057 19.0106 88.5536 25.5779 85.7508C32.1437 82.9494 39.3828 82.8296 45.9582 85.4176C52.5371 88.0068 57.6648 92.9952 60.3977 99.4622C63.1301 105.93 63.1401 113.102 60.4251 119.658C57.7116 126.21 52.6 131.363 46.0328 134.166C44.394 134.866 42.6915 135.406 40.9491 135.776L40.9489 135.775ZM30.8477 85.037C29.1823 85.3899 27.5372 85.9087 25.9334 86.5933C19.5869 89.302 14.6477 94.2801 12.0263 100.61C9.4064 106.937 9.41482 113.857 12.0514 120.096C14.6876 126.335 19.6355 131.148 25.9841 133.646C32.3372 136.146 39.3303 136.032 45.6771 133.322C52.0235 130.613 56.9627 125.635 59.5842 119.305C62.2041 112.979 62.1956 106.058 59.559 99.819C56.9229 93.58 51.9749 88.7676 45.6263 86.2691C40.926 84.4137 35.7876 83.9852 30.8476 85.0366L30.8477 85.037Z" fill="#191919"/>
<path d="M36.5147 137.206C50.4074 134.262 59.2946 120.555 56.3648 106.591C53.435 92.6259 39.7977 83.6915 25.905 86.635C12.0123 89.5786 3.12506 103.285 6.05484 117.25C8.98462 131.215 22.6219 140.149 36.5147 137.206Z" fill="white"/>
<path d="M36.5975 137.658C24.6118 140.197 12.0904 133.949 7.12508 122.198C1.48562 108.85 7.70072 93.3799 20.9792 87.7126C27.412 84.9673 34.5234 84.9041 41.0031 87.5349C47.4827 90.1656 52.5564 95.1758 55.2885 101.642C60.9284 114.989 54.7133 130.459 41.4349 136.127C39.8754 136.793 38.2554 137.306 36.5976 137.658L36.5975 137.658ZM26.0463 87.0637C24.4485 87.4022 22.872 87.8995 21.3352 88.5554C8.51878 94.0251 2.52019 108.957 7.96352 121.84C13.4069 134.723 28.2634 140.754 41.0793 135.284C53.8956 129.813 59.8942 114.882 54.4504 101.999C51.8134 95.7579 46.9174 90.9225 40.6626 88.383C35.9557 86.4722 30.904 86.034 26.0466 87.0632L26.0463 87.0637Z" fill="#191919"/>
<path d="M29.1932 121.057C29.0869 121.079 28.976 121.063 28.8808 121.01C28.7855 120.957 28.7121 120.872 28.6738 120.77L22.4565 104.216C22.4241 104.129 22.4185 104.035 22.4403 103.945C22.4622 103.856 22.5105 103.774 22.579 103.713L33.7926 93.6397C33.8474 93.5905 33.9133 93.5553 33.9847 93.5372C34.056 93.5191 34.1307 93.5187 34.2022 93.5359C34.2738 93.5532 34.3401 93.5876 34.3955 93.6363C34.4509 93.6849 34.4938 93.7463 34.5205 93.8153L41.0547 110.72C41.0763 110.776 41.0868 110.836 41.0855 110.896C41.0841 110.956 41.0711 111.015 41.047 111.07C41.0229 111.125 40.9883 111.175 40.9451 111.216C40.902 111.258 40.8511 111.29 40.7954 111.312C40.7397 111.334 40.6803 111.344 40.6206 111.343C40.5608 111.342 40.5019 111.329 40.4472 111.304C40.3926 111.28 40.3432 111.245 40.3018 111.202C40.2605 111.159 40.2281 111.107 40.2065 111.051L33.9099 94.7623L23.4191 104.186L29.5263 120.446C29.5495 120.508 29.5591 120.574 29.5545 120.64C29.5498 120.706 29.5311 120.77 29.4995 120.828C29.468 120.886 29.4243 120.936 29.3716 120.976C29.3189 121.015 29.2583 121.042 29.194 121.056L29.1932 121.057Z" fill="#191919"/>
<path d="M24.468 108.479C24.3699 108.5 24.2677 108.488 24.1772 108.444C24.0867 108.401 24.0131 108.329 23.9677 108.239C23.9222 108.149 23.9076 108.047 23.926 107.947C23.9444 107.848 23.9948 107.758 24.0694 107.691L35.2998 97.5492C35.3439 97.5069 35.396 97.474 35.453 97.4523C35.51 97.4306 35.5708 97.4207 35.6317 97.4231C35.6926 97.4254 35.7524 97.4401 35.8076 97.4661C35.8628 97.4921 35.9122 97.529 35.9529 97.5746C35.9937 97.6202 36.0249 97.6736 36.0447 97.7315C36.0645 97.7894 36.0726 97.8508 36.0684 97.9119C36.0642 97.973 36.0479 98.0327 36.0203 98.0873C35.9928 98.142 35.9546 98.1905 35.908 98.2301L24.6776 108.372C24.6184 108.425 24.546 108.462 24.4679 108.479L24.468 108.479Z" fill="#191919"/>
<path d="M25.8045 124.743C28.353 123.748 29.8125 121.372 29.0642 119.437C28.316 117.501 25.6435 116.738 23.095 117.733C20.5465 118.728 19.087 121.104 19.8352 123.04C20.5835 124.976 23.256 125.738 25.8045 124.743Z" fill="#E51937"/>
<path d="M24.8781 125.497C23.8961 125.705 22.9105 125.685 22.0197 125.431C20.7515 125.069 19.8248 124.279 19.4103 123.206C18.9953 122.133 19.1483 120.921 19.8407 119.794C20.508 118.707 21.6053 117.824 22.9297 117.307C25.7072 116.221 28.6499 117.103 29.4881 119.271C30.3259 121.439 28.747 124.085 25.9688 125.17C25.6091 125.31 25.2439 125.419 24.8781 125.497ZM24.2073 117.876C23.8923 117.943 23.5752 118.037 23.2594 118.16C22.1188 118.606 21.1795 119.357 20.6154 120.275C20.0763 121.152 19.9503 122.075 20.2589 122.874C20.5681 123.674 21.2812 124.269 22.2686 124.55C23.3006 124.845 24.4969 124.762 25.6394 124.316C27.9495 123.414 29.2952 121.299 28.6399 119.602C28.0733 118.137 26.1967 117.455 24.2077 117.876L24.2073 117.876Z" fill="#191919"/>
<path d="M38.1795 117.064C40.728 116.069 42.1875 113.694 41.4392 111.758C40.691 109.822 38.0185 109.06 35.47 110.055C32.9215 111.05 31.462 113.426 32.2102 115.361C32.9585 117.297 35.631 118.06 38.1795 117.064Z" fill="#E51937"/>
<path d="M37.2666 117.813C34.8419 118.327 32.5151 117.415 31.7852 115.527C31.3702 114.454 31.5232 113.242 32.2156 112.115C32.883 111.028 33.9802 110.145 35.3046 109.628C38.0796 108.544 41.0253 109.424 41.8631 111.592C42.7009 113.76 41.1219 116.406 38.3438 117.491C37.9941 117.628 37.6339 117.736 37.2667 117.814L37.2666 117.813ZM36.5822 110.197C36.2672 110.264 35.9501 110.358 35.6343 110.481C34.4937 110.927 33.5544 111.678 32.9903 112.596C32.4512 113.473 32.3252 114.396 32.6339 115.195C33.2901 116.892 35.699 117.541 38.014 116.638C40.3241 115.736 41.6703 113.621 41.0144 111.923C40.4478 110.458 38.5712 109.776 36.5822 110.197Z" fill="#191919"/>
</g>
<path d="M31.9844 276H28.9531L16.4688 256.828H16.3438C16.5104 259.078 16.5938 261.141 16.5938 263.016V276H14.1406V253.156H17.1406L29.5938 272.25H29.7188C29.6979 271.969 29.651 271.068 29.5781 269.547C29.5052 268.016 29.4792 266.922 29.5 266.266V253.156H31.9844V276ZM52.6562 267.422C52.6562 270.214 51.9531 272.396 50.5469 273.969C49.1406 275.531 47.1979 276.312 44.7188 276.312C43.1875 276.312 41.8281 275.953 40.6406 275.234C39.4531 274.516 38.5365 273.484 37.8906 272.141C37.2448 270.797 36.9219 269.224 36.9219 267.422C36.9219 264.63 37.6198 262.458 39.0156 260.906C40.4115 259.344 42.349 258.562 44.8281 258.562C47.224 258.562 49.125 259.359 50.5312 260.953C51.9479 262.547 52.6562 264.703 52.6562 267.422ZM39.6094 267.422C39.6094 269.609 40.0469 271.276 40.9219 272.422C41.7969 273.568 43.0833 274.141 44.7812 274.141C46.4792 274.141 47.7656 273.573 48.6406 272.438C49.526 271.292 49.9688 269.62 49.9688 267.422C49.9688 265.245 49.526 263.594 48.6406 262.469C47.7656 261.333 46.4688 260.766 44.75 260.766C43.0521 260.766 41.7708 261.323 40.9062 262.438C40.0417 263.552 39.6094 265.214 39.6094 267.422ZM77.1875 273.703H77.0469C75.849 275.443 74.0573 276.312 71.6719 276.312C69.4323 276.312 67.6875 275.547 66.4375 274.016C65.1979 272.484 64.5781 270.307 64.5781 267.484C64.5781 264.661 65.2031 262.469 66.4531 260.906C67.7031 259.344 69.4427 258.562 71.6719 258.562C73.9948 258.562 75.776 259.406 77.0156 261.094H77.2188L77.1094 259.859L77.0469 258.656V251.688H79.6406V276H77.5312L77.1875 273.703ZM72 274.141C73.7708 274.141 75.0521 273.661 75.8438 272.703C76.6458 271.734 77.0469 270.177 77.0469 268.031V267.484C77.0469 265.057 76.6406 263.328 75.8281 262.297C75.026 261.255 73.7396 260.734 71.9688 260.734C70.4479 260.734 69.2812 261.328 68.4688 262.516C67.6667 263.693 67.2656 265.359 67.2656 267.516C67.2656 269.703 67.6667 271.354 68.4688 272.469C69.2708 273.583 70.4479 274.141 72 274.141ZM95.6875 276L95.1719 273.562H95.0469C94.1927 274.635 93.3385 275.365 92.4844 275.75C91.6406 276.125 90.5833 276.312 89.3125 276.312C87.6146 276.312 86.2812 275.875 85.3125 275C84.3542 274.125 83.875 272.88 83.875 271.266C83.875 267.807 86.6406 265.995 92.1719 265.828L95.0781 265.734V264.672C95.0781 263.328 94.7865 262.339 94.2031 261.703C93.6302 261.057 92.7083 260.734 91.4375 260.734C90.0104 260.734 88.3958 261.172 86.5938 262.047L85.7969 260.062C86.6406 259.604 87.5625 259.245 88.5625 258.984C89.5729 258.724 90.5833 258.594 91.5938 258.594C93.6354 258.594 95.1458 259.047 96.125 259.953C97.1146 260.859 97.6094 262.312 97.6094 264.312V276H95.6875ZM89.8281 274.172C91.4427 274.172 92.7083 273.729 93.625 272.844C94.5521 271.958 95.0156 270.719 95.0156 269.125V267.578L92.4219 267.688C90.3594 267.76 88.8698 268.083 87.9531 268.656C87.0469 269.219 86.5938 270.099 86.5938 271.297C86.5938 272.234 86.875 272.948 87.4375 273.438C88.0104 273.927 88.8073 274.172 89.8281 274.172ZM108.5 274.172C108.958 274.172 109.401 274.141 109.828 274.078C110.255 274.005 110.594 273.932 110.844 273.859V275.844C110.562 275.979 110.146 276.089 109.594 276.172C109.052 276.266 108.562 276.312 108.125 276.312C104.812 276.312 103.156 274.568 103.156 271.078V260.891H100.703V259.641L103.156 258.562L104.25 254.906H105.75V258.875H110.719V260.891H105.75V270.969C105.75 272 105.995 272.792 106.484 273.344C106.974 273.896 107.646 274.172 108.5 274.172ZM124.812 276L124.297 273.562H124.172C123.318 274.635 122.464 275.365 121.609 275.75C120.766 276.125 119.708 276.312 118.438 276.312C116.74 276.312 115.406 275.875 114.438 275C113.479 274.125 113 272.88 113 271.266C113 267.807 115.766 265.995 121.297 265.828L124.203 265.734V264.672C124.203 263.328 123.911 262.339 123.328 261.703C122.755 261.057 121.833 260.734 120.562 260.734C119.135 260.734 117.521 261.172 115.719 262.047L114.922 260.062C115.766 259.604 116.688 259.245 117.688 258.984C118.698 258.724 119.708 258.594 120.719 258.594C122.76 258.594 124.271 259.047 125.25 259.953C126.24 260.859 126.734 262.312 126.734 264.312V276H124.812ZM118.953 274.172C120.568 274.172 121.833 273.729 122.75 272.844C123.677 271.958 124.141 270.719 124.141 269.125V267.578L121.547 267.688C119.484 267.76 117.995 268.083 117.078 268.656C116.172 269.219 115.719 270.099 115.719 271.297C115.719 272.234 116 272.948 116.562 273.438C117.135 273.927 117.932 274.172 118.953 274.172ZM150.938 276L150.422 273.562H150.297C149.443 274.635 148.589 275.365 147.734 275.75C146.891 276.125 145.833 276.312 144.562 276.312C142.865 276.312 141.531 275.875 140.562 275C139.604 274.125 139.125 272.88 139.125 271.266C139.125 267.807 141.891 265.995 147.422 265.828L150.328 265.734V264.672C150.328 263.328 150.036 262.339 149.453 261.703C148.88 261.057 147.958 260.734 146.688 260.734C145.26 260.734 143.646 261.172 141.844 262.047L141.047 260.062C141.891 259.604 142.812 259.245 143.812 258.984C144.823 258.724 145.833 258.594 146.844 258.594C148.885 258.594 150.396 259.047 151.375 259.953C152.365 260.859 152.859 262.312 152.859 264.312V276H150.938ZM145.078 274.172C146.693 274.172 147.958 273.729 148.875 272.844C149.802 271.958 150.266 270.719 150.266 269.125V267.578L147.672 267.688C145.609 267.76 144.12 268.083 143.203 268.656C142.297 269.219 141.844 270.099 141.844 271.297C141.844 272.234 142.125 272.948 142.688 273.438C143.26 273.927 144.057 274.172 145.078 274.172ZM161.969 276L155.469 258.875H158.25L161.938 269.031C162.771 271.406 163.26 272.948 163.406 273.656H163.531C163.646 273.104 164.005 271.964 164.609 270.234C165.224 268.495 166.594 264.708 168.719 258.875H171.5L165 276H161.969ZM184.781 276L184.266 273.562H184.141C183.286 274.635 182.432 275.365 181.578 275.75C180.734 276.125 179.677 276.312 178.406 276.312C176.708 276.312 175.375 275.875 174.406 275C173.448 274.125 172.969 272.88 172.969 271.266C172.969 267.807 175.734 265.995 181.266 265.828L184.172 265.734V264.672C184.172 263.328 183.88 262.339 183.297 261.703C182.724 261.057 181.802 260.734 180.531 260.734C179.104 260.734 177.49 261.172 175.688 262.047L174.891 260.062C175.734 259.604 176.656 259.245 177.656 258.984C178.667 258.724 179.677 258.594 180.688 258.594C182.729 258.594 184.24 259.047 185.219 259.953C186.208 260.859 186.703 262.312 186.703 264.312V276H184.781ZM178.922 274.172C180.536 274.172 181.802 273.729 182.719 272.844C183.646 271.958 184.109 270.719 184.109 269.125V267.578L181.516 267.688C179.453 267.76 177.964 268.083 177.047 268.656C176.141 269.219 175.688 270.099 175.688 271.297C175.688 272.234 175.969 272.948 176.531 273.438C177.104 273.927 177.901 274.172 178.922 274.172ZM194.656 276H192.062V258.875H194.656V276ZM191.844 254.234C191.844 253.641 191.99 253.208 192.281 252.938C192.573 252.656 192.938 252.516 193.375 252.516C193.792 252.516 194.151 252.656 194.453 252.938C194.755 253.219 194.906 253.651 194.906 254.234C194.906 254.818 194.755 255.255 194.453 255.547C194.151 255.828 193.792 255.969 193.375 255.969C192.938 255.969 192.573 255.828 192.281 255.547C191.99 255.255 191.844 254.818 191.844 254.234ZM202.75 276H200.156V251.688H202.75V276ZM218.781 276L218.266 273.562H218.141C217.286 274.635 216.432 275.365 215.578 275.75C214.734 276.125 213.677 276.312 212.406 276.312C210.708 276.312 209.375 275.875 208.406 275C207.448 274.125 206.969 272.88 206.969 271.266C206.969 267.807 209.734 265.995 215.266 265.828L218.172 265.734V264.672C218.172 263.328 217.88 262.339 217.297 261.703C216.724 261.057 215.802 260.734 214.531 260.734C213.104 260.734 211.49 261.172 209.688 262.047L208.891 260.062C209.734 259.604 210.656 259.245 211.656 258.984C212.667 258.724 213.677 258.594 214.688 258.594C216.729 258.594 218.24 259.047 219.219 259.953C220.208 260.859 220.703 262.312 220.703 264.312V276H218.781ZM212.922 274.172C214.536 274.172 215.802 273.729 216.719 272.844C217.646 271.958 218.109 270.719 218.109 269.125V267.578L215.516 267.688C213.453 267.76 211.964 268.083 211.047 268.656C210.141 269.219 209.688 270.099 209.688 271.297C209.688 272.234 209.969 272.948 210.531 273.438C211.104 273.927 211.901 274.172 212.922 274.172ZM234.031 258.594C236.281 258.594 238.026 259.365 239.266 260.906C240.516 262.438 241.141 264.609 241.141 267.422C241.141 270.234 240.51 272.422 239.25 273.984C238 275.536 236.26 276.312 234.031 276.312C232.917 276.312 231.896 276.109 230.969 275.703C230.052 275.286 229.281 274.651 228.656 273.797H228.469L227.922 276H226.062V251.688H228.656V257.594C228.656 258.917 228.615 260.104 228.531 261.156H228.656C229.865 259.448 231.656 258.594 234.031 258.594ZM233.656 260.766C231.885 260.766 230.609 261.276 229.828 262.297C229.047 263.307 228.656 265.016 228.656 267.422C228.656 269.828 229.057 271.552 229.859 272.594C230.661 273.625 231.948 274.141 233.719 274.141C235.312 274.141 236.5 273.562 237.281 272.406C238.062 271.24 238.453 269.568 238.453 267.391C238.453 265.161 238.062 263.5 237.281 262.406C236.5 261.312 235.292 260.766 233.656 260.766ZM248.281 276H245.688V251.688H248.281V276ZM261.016 276.312C258.484 276.312 256.484 275.542 255.016 274C253.557 272.458 252.828 270.318 252.828 267.578C252.828 264.818 253.505 262.625 254.859 261C256.224 259.375 258.052 258.562 260.344 258.562C262.49 258.562 264.188 259.271 265.438 260.688C266.688 262.094 267.312 263.953 267.312 266.266V267.906H255.516C255.568 269.917 256.073 271.443 257.031 272.484C258 273.526 259.359 274.047 261.109 274.047C262.953 274.047 264.776 273.661 266.578 272.891V275.203C265.661 275.599 264.792 275.88 263.969 276.047C263.156 276.224 262.172 276.312 261.016 276.312ZM260.312 260.734C258.938 260.734 257.839 261.182 257.016 262.078C256.203 262.974 255.724 264.214 255.578 265.797H264.531C264.531 264.161 264.167 262.911 263.438 262.047C262.708 261.172 261.667 260.734 260.312 260.734Z" fill="#4F4F4F"/>
<defs>
<clipPath id="clip0_3477_202274">
<rect width="61.7798" height="59.1888" fill="white" transform="translate(209.391 137.686)"/>
</clipPath>
<clipPath id="clip1_3477_202274">
<rect width="42.4025" height="38.9135" fill="white" transform="matrix(0.956758 -0.290888 0.288518 0.957475 126.957 174.69)"/>
</clipPath>
<clipPath id="clip2_3477_202274">
<rect width="57.7834" height="53.584" fill="white" transform="matrix(0.978283 -0.207277 0.205329 0.978693 0 90.6406)"/>
</clipPath>
</defs>
</svg>
