<svg width="80" height="149" viewBox="0 0 80 149" fill="none" xmlns="http://www.w3.org/2000/svg">
<path opacity="0.3" d="M72.5235 145.507C72.4815 132.683 71.9865 119.839 71.9443 107.015C71.943 104.599 68.5632 103.619 67.484 105.897C65.0825 110.069 62.9596 114.161 60.558 118.333C59.5451 113.645 60.9365 109.615 62.9196 104.96C63.6152 102.945 64.067 100.548 62.4636 98.9014C60.0234 96.2894 54.9375 97.468 51.7325 97.797C43.5807 98.66 35.5338 100.55 27.2768 100.386C17.7655 99.984 20.7238 94.4412 25.7377 89.357C30.9605 83.9099 37.4031 79.1649 43.7765 75.3462C54.991 68.7589 67.2858 62.3103 75.4319 51.7834C79.9577 45.9352 82.3552 34.5148 74.4791 30.4647C64.8609 25.4121 49.8805 26.4506 39.6051 30.1972C34.0317 31.8198 -1.49521 47.5995 5.56775 30.8943C10.7519 18.6626 27.853 9.90847 38.6843 3.5837C40.1123 2.71493 39.1007 0.442102 37.6029 1.02916C25.7956 5.8258 14.0245 13.7833 5.21564 23.4458C0.550177 28.7306 -3.90239 40.9003 5.81906 43.3558C17.1434 46.2508 30.1688 38.5321 40.8273 34.523C47.4801 31.8311 55.6672 31.7129 62.5653 31.8189C77.2675 32.0692 77.1 44.0486 68.2559 52.9662C57.3577 63.8413 42.4147 69.2483 30.3654 78.4952C26.1169 81.8464 11.4908 92.7491 16.1981 100.289C21.6379 108.975 38.0448 104.651 46.2311 103.325C45.7781 103.306 59.5033 100.82 59.0862 102.754C58.6692 104.688 57.5208 106.683 56.8254 108.698C55.5382 112.546 55.3661 116.07 56.3786 119.551C53.1722 117.464 49.757 115.74 46.133 114.378C44.1817 113.738 42.4412 116.359 43.3131 118.069C49.9042 129.591 60.2209 137.461 68.6575 147.388C69.8078 149.016 72.6291 147.742 72.5235 145.507ZM59.0294 125.424C60.0749 126.025 60.9454 125.319 61.1889 124.493C61.9204 124.431 62.5822 124.087 62.9998 123.362C64.3572 121.003 65.8191 118.463 67.1765 116.105C67.3202 123.916 67.5682 131.546 67.7119 139.357C62.2389 133.551 56.2785 128.188 51.5721 121.856C53.9415 122.978 56.4854 124.201 59.0294 125.424Z" fill="white"/>
</svg>
