<svg width="24" height="24" viewBox="0 0 24 24" fill="none" xmlns="http://www.w3.org/2000/svg">
<path d="M21.7348 4.55669C20.8688 4.02808 19.7097 4.27534 19.1575 5.18008C19.1469 5.19742 18.4191 6.38955 18.4247 6.38036C18.4247 6.38036 18.4247 6.38041 18.4247 6.38036L16.9375 8.81645V4.75056C16.9375 4.62803 16.8888 4.51174 16.8069 4.42638C16.7886 4.40706 13.5276 1.14616 13.5121 1.13153C13.4854 1.10575 13.4806 1.10397 13.4743 1.09905C13.4137 1.05208 13.3456 1.02147 13.2679 1.00792C13.1839 0.993392 13.9189 1.00399 1.46875 1.00056C1.20986 1.00056 1 1.21042 1 1.46931V22.0943C1 22.3532 1.20986 22.5631 1.46875 22.5631H16.4688C16.7276 22.5631 16.9375 22.3532 16.9375 22.0943V16.0136L22.3582 7.13402C22.8969 6.25155 22.6172 5.09538 21.7348 4.55669ZM20.3367 8.64602L18.7363 7.66905L18.9806 7.26897L20.581 8.24594L20.3367 8.64602ZM15.2077 17.048L13.6073 16.071L18.2479 8.4692L19.8483 9.44617L15.2077 17.048ZM13.3492 18.2932L13.219 16.9323L14.6192 17.7871L13.3492 18.2932ZM13.6563 2.60102L15.3371 4.28181H13.6563V2.60102ZM16 21.6256H1.9375V1.93811H12.7188V4.75061C12.7188 5.0095 12.9287 5.21936 13.1875 5.21936H16V10.3523C15.6636 10.9033 12.7008 15.7568 12.3187 16.3827C12.2658 16.4693 12.2425 16.5706 12.2522 16.6716L12.4537 18.7767C12.2373 18.9083 11.7253 19.1013 11.04 19.1174C10.3217 19.1352 9.27648 18.9573 8.36814 18.0184C7.85866 17.4918 7.2347 17.2113 6.50491 17.2113C4.75267 17.2113 3.08097 18.8809 3.01047 18.9522C2.82859 19.1361 2.83019 19.4324 3.01394 19.6145C3.19764 19.7967 3.49431 19.7953 3.67666 19.6118C3.69123 19.5971 5.14586 18.1488 6.50439 18.1488C6.95828 18.1488 7.34922 18.3135 7.69436 18.6702C8.79812 19.8111 10.0653 20.0559 10.9491 20.0559C11.1514 20.0559 11.3337 20.0431 11.4894 20.0252C12.133 19.9513 12.8768 19.7178 13.2279 19.3507L15.2929 18.5278C15.3871 18.4902 15.4666 18.4232 15.5194 18.3365C15.5369 18.308 15.993 17.5608 16 17.5492V21.6256ZM21.558 6.64553L21.0694 7.44578L19.4691 6.46881L19.9576 5.66861C20.2321 5.21875 20.8105 5.09097 21.2463 5.35689C21.6875 5.62624 21.8273 6.20435 21.558 6.64553Z" fill="#E51937"/>
<path d="M3.34375 4.28186H11.3125C11.5714 4.28186 11.7812 4.072 11.7812 3.81311C11.7812 3.55422 11.5714 3.34436 11.3125 3.34436H3.34375C3.08486 3.34436 2.875 3.55422 2.875 3.81311C2.875 4.072 3.08486 4.28186 3.34375 4.28186Z" fill="#E51937"/>
<path d="M3.34375 7.09436H11.3125C11.5714 7.09436 11.7812 6.8845 11.7812 6.62561C11.7812 6.36672 11.5714 6.15686 11.3125 6.15686H3.34375C3.08486 6.15686 2.875 6.36672 2.875 6.62561C2.875 6.8845 3.08486 7.09436 3.34375 7.09436Z" fill="#E51937"/>
<path d="M3.34375 15.5319H11.3125C11.5714 15.5319 11.7812 15.322 11.7812 15.0631C11.7812 14.8043 11.5714 14.5944 11.3125 14.5944H3.34375C3.08486 14.5944 2.875 14.8043 2.875 15.0631C2.875 15.322 3.08486 15.5319 3.34375 15.5319Z" fill="#E51937"/>
<path d="M3.34375 9.90686H13.1875C13.4464 9.90686 13.6563 9.697 13.6563 9.43811C13.6563 9.17922 13.4464 8.96936 13.1875 8.96936H3.34375C3.08486 8.96936 2.875 9.17922 2.875 9.43811C2.875 9.697 3.08486 9.90686 3.34375 9.90686Z" fill="#E51937"/>
<path d="M3.34375 12.7194H13.1875C13.4464 12.7194 13.6563 12.5095 13.6563 12.2506C13.6563 11.9918 13.4464 11.7819 13.1875 11.7819H3.34375C3.08486 11.7819 2.875 11.9918 2.875 12.2506C2.875 12.5095 3.08486 12.7194 3.34375 12.7194Z" fill="#E51937"/>
</svg>
