<svg width="24" height="24" viewBox="0 0 24 24" fill="none" xmlns="http://www.w3.org/2000/svg">
<g clip-path="url(#clip0_999_139369)">
<path d="M24 13C23.992 12.8974 23.9561 12.7989 23.8961 12.7152C23.8362 12.6314 23.7546 12.5657 23.66 12.525C23.55 12.5 23.11 12.5 21 12.5C21 4.365 21.06 4.855 20.855 4.645C17.71 1.5 17.795 1.5 17.5 1.5H8.49999C8.36738 1.5 8.2402 1.55268 8.14643 1.64645C8.05267 1.74021 7.99999 1.86739 7.99999 2V3H5.49999C5.36738 3 5.2402 3.05268 5.14643 3.14645C5.05267 3.24021 4.99999 3.36739 4.99999 3.5V5H0.499988C0.36738 5 0.240203 5.05268 0.146434 5.14645C0.0526662 5.24021 -1.22134e-05 5.36739 -1.22134e-05 5.5C-1.22134e-05 23.3 -0.170012 22.28 0.324988 22.465C0.459988 22.515 20.505 22.53 20.675 22.465C20.7872 22.4206 20.8795 22.3371 20.935 22.23C21 22.155 24 13.15 24 13ZM20.14 21.5H1.19499L3.85999 13.5H22.805L20.14 21.5ZM18 3.205L19.295 4.5H18V3.205ZM8.99999 2.5H17V5C17 5.13261 17.0527 5.25979 17.1464 5.35355C17.2402 5.44732 17.3674 5.5 17.5 5.5H20V12.5H8.99999V2.5ZM5.99999 4H7.99999V12.5H5.99999V4ZM4.99999 6V12.5C3.43999 12.5 3.16999 12.41 3.02499 12.84L0.999988 18.92V6H4.99999Z" fill="#E51937"/>
<path d="M10.5 7.5H15.5C15.6326 7.5 15.7598 7.44732 15.8536 7.35355C15.9473 7.25979 16 7.13261 16 7C16 6.86739 15.9473 6.74021 15.8536 6.64645C15.7598 6.55268 15.6326 6.5 15.5 6.5H10.5C10.3674 6.5 10.2402 6.55268 10.1464 6.64645C10.0527 6.74021 10 6.86739 10 7C10 7.13261 10.0527 7.25979 10.1464 7.35355C10.2402 7.44732 10.3674 7.5 10.5 7.5Z" fill="#E51937"/>
<path d="M10.5 9.5H13.5C13.6326 9.5 13.7598 9.44732 13.8536 9.35355C13.9473 9.25979 14 9.13261 14 9C14 8.86739 13.9473 8.74021 13.8536 8.64645C13.7598 8.55268 13.6326 8.5 13.5 8.5H10.5C10.3674 8.5 10.2402 8.55268 10.1464 8.64645C10.0527 8.74021 10 8.86739 10 9C10 9.13261 10.0527 9.25979 10.1464 9.35355C10.2402 9.44732 10.3674 9.5 10.5 9.5Z" fill="#E51937"/>
</g>
<defs>
<clipPath id="clip0_999_139369">
<rect width="24" height="24" fill="white"/>
</clipPath>
</defs>
</svg>
