<svg width="18" height="19" viewBox="0 0 18 19" fill="none" xmlns="http://www.w3.org/2000/svg">
<path d="M16.0164 9.90521L16.0158 9.90592L15.3038 10.7137L9.0002 17.8655L2.69878 10.7112L2.69777 10.71L1.98599 9.90521C1.98596 9.90518 1.98593 9.90515 1.9859 9.90511C1.98586 9.90507 1.98582 9.90502 1.98578 9.90498C1.17096 8.98274 0.75 7.75487 0.75 6.50802C0.75 5.26107 1.17103 4.0331 1.98599 3.11084L1.98693 3.10977C3.5829 1.29674 6.12908 1.29674 7.72506 3.10977L7.72537 3.11012L8.43736 3.91791L9 4.55626L9.56264 3.91791L10.2746 3.11012C11.8731 1.29663 14.4174 1.29663 16.0158 3.11012L16.0164 3.11083C16.8308 4.03249 17.25 5.26017 17.25 6.50802C17.25 7.75588 16.8308 8.98356 16.0164 9.90521Z" stroke="#222222" stroke-width="1.5" stroke-miterlimit="10"/>
</svg>
