<svg width="60" height="44" viewBox="0 0 60 44" fill="none" xmlns="http://www.w3.org/2000/svg">
<path d="M9.60884 6.68845C6.37576 7.61605 3.31523 8.49076 0 9.44276C1.28583 6.20838 2.4854 3.20183 3.75891 0C4.30528 1.02117 4.75717 1.87147 5.25425 2.8072C8.19565 1.34664 11.1822 0.988622 14.2551 2.06675C16.4652 2.83975 18.2605 4.17825 19.5833 6.1026C22.1837 9.87808 22.0399 14.9351 19.2546 18.499C16.6624 21.8148 11.7943 23.5398 8.30657 22.303C8.47911 21.5544 8.65987 20.7936 8.83241 20.0491C13.6635 20.2322 16.7199 18.6129 18.1701 15.1507C19.4683 12.0465 18.7165 8.51517 16.2681 6.2572C13.7909 3.97076 10.2497 3.39712 7.16863 4.88615C7.97792 5.48828 8.73381 6.04158 9.60473 6.68845H9.60884Z" fill="white"/>
<path d="M7.58683 22.0695L6.30664 21.6377L7.53172 19.5469C7.76911 19.7514 8.22692 19.9825 8.19725 20.1491C8.09551 20.759 7.83269 21.3461 7.58683 22.0657V22.0695Z" fill="white"/>
<path d="M0 12.5896V11.3516L2.52265 11.892C2.32544 12.1258 2.16109 12.5168 1.92691 12.559C1.35582 12.6586 0.751864 12.5896 0 12.5896H0Z" fill="white"/>
<path d="M3.63544 16.3984C4.0646 16.8917 3.55701 17.5224 2.11266 18.2904L1.26025 17.51L3.63544 16.3984Z" fill="white"/>
<path d="M5.49384 21.4424L4.41357 20.6027L5.91138 18.2891C6.961 19.6755 5.59343 20.3359 5.49384 21.4424Z" fill="white"/>
<path d="M2.51607 13.2422C2.58328 14.1855 2.15903 14.3999 0.126014 14.5035L0 13.5495L2.51607 13.2422Z" fill="white"/>
<path d="M1.13354 17.0248C0.936454 16.5294 0.809446 16.2064 0.629883 15.7454C1.67661 15.6464 2.56566 14.4316 3.78319 15.7239L1.13354 17.0205V17.0248Z" fill="white"/>
<path d="M3.9128 20.1789L3.15332 19.3066L4.78078 17.6562C5.32202 18.1149 5.03269 18.9558 3.9128 20.1789Z" fill="white"/>
<path d="M22.2231 22.7059V22.0399C23.0304 21.9995 23.5147 21.7876 23.6762 21.4042C23.8982 20.9198 24.2211 19.6686 24.6449 17.6505L26.885 7.05537C27.2281 5.44088 27.3996 4.43182 27.3996 4.02819C27.3996 3.54385 26.9254 3.2714 25.9768 3.21086L25.5228 3.18058V2.51461H33.9686C36.7536 2.51461 38.7919 2.91823 40.0835 3.72548C42.0209 4.93635 42.9896 7.00492 42.9896 9.93119C42.9896 13.3822 41.7989 16.3589 39.4175 18.8614C36.9756 21.4244 33.5851 22.7059 29.2462 22.7059H22.2231ZM30.669 3.45303L27.7326 17.1964C27.329 19.0934 27.1272 20.3346 27.1272 20.9198C27.1272 21.2831 27.2785 21.5354 27.5812 21.6766C27.9041 21.8179 28.4894 21.8885 29.337 21.8885C32.3642 21.8885 34.7859 20.8593 36.6022 18.8008C38.7011 16.4194 39.7505 13.5436 39.7505 10.1734C39.7505 5.61242 37.4397 3.33194 32.8183 3.33194C32.2734 3.33194 31.5569 3.37231 30.669 3.45303Z" fill="white"/>
<path d="M54.1201 15.8039H47.1576L44.4937 20.1328C44.1103 20.7584 43.9185 21.2024 43.9185 21.4647C43.9185 21.828 44.4331 22.0197 45.4624 22.0399V22.7059H40.7703V22.0399C41.3353 21.9793 41.7591 21.8179 42.0417 21.5555C42.2031 21.3941 42.526 20.9501 43.0104 20.2236L44.7359 17.5899L54.665 1.75781H55.1796L57.1776 17.3478C57.5005 19.8502 57.783 21.273 58.0252 21.6161C58.2068 21.8784 58.7315 22.0197 59.5993 22.0399V22.7059H52.9395V22.0399H53.3028C54.0495 22.0399 54.4834 21.9087 54.6045 21.6464C54.665 21.5253 54.6953 21.3335 54.6953 21.0712C54.6953 20.6676 54.665 20.2236 54.6045 19.7392L54.1201 15.8039ZM53.999 14.8049L53.0001 6.29857L47.7933 14.8049H53.999Z" fill="white"/>
<path d="M11.6016 41.4597L9.84157 39.6483C9.35069 40.1118 8.85382 40.4778 8.35097 40.7461C7.86009 41.0145 7.25547 41.1486 6.5371 41.1486C5.99833 41.1486 5.50146 41.045 5.0465 40.8376C4.60351 40.618 4.22038 40.3253 3.89712 39.9594C3.58583 39.5934 3.34039 39.1665 3.1608 38.6786C2.98121 38.1907 2.89141 37.6723 2.89141 37.1234V37.0868C2.89141 36.5379 2.98121 36.0256 3.1608 35.5499C3.34039 35.062 3.59181 34.635 3.91508 34.2691C4.23834 33.9032 4.62147 33.6165 5.06446 33.4092C5.51942 33.2018 6.0103 33.0981 6.5371 33.0981C7.17166 33.0981 7.74036 33.2262 8.24321 33.4823C8.75804 33.7385 9.2609 34.0922 9.75178 34.5436L11.5118 32.476C11.2244 32.1833 10.9131 31.9149 10.5779 31.671C10.2427 31.427 9.87749 31.2197 9.48239 31.0489C9.08729 30.8781 8.6443 30.744 8.15342 30.6464C7.67451 30.5488 7.14172 30.5 6.55506 30.5C5.58527 30.5 4.69929 30.6769 3.89712 31.0306C3.09495 31.3721 2.40652 31.8479 1.83183 32.4577C1.25714 33.0554 0.808158 33.7568 0.484895 34.5619C0.161632 35.3547 0 36.2085 0 37.1234V37.16C0 38.0748 0.161632 38.9347 0.484895 39.7398C0.808158 40.5448 1.25714 41.2462 1.83183 41.8439C2.40652 42.4294 3.08896 42.8929 3.87916 43.2344C4.66936 43.576 5.52541 43.7468 6.44731 43.7468C7.05792 43.7468 7.60866 43.6919 8.09954 43.5821C8.59042 43.4845 9.0394 43.3381 9.44647 43.143C9.86552 42.9356 10.2486 42.6916 10.5959 42.4111C10.9431 42.1306 11.2783 41.8134 11.6016 41.4597Z" fill="#E51937"/>
<path d="M22.5078 38.8981V38.8616C22.5078 38.1663 22.412 37.5015 22.2204 36.8672C22.0408 36.2207 21.7535 35.6535 21.3584 35.1656C20.9753 34.6655 20.4904 34.2691 19.9037 33.9764C19.317 33.6836 18.6226 33.5372 17.8205 33.5372C17.1141 33.5372 16.4675 33.6714 15.8809 33.9398C15.3062 34.2081 14.8093 34.574 14.3903 35.0376C13.9712 35.5011 13.642 36.0439 13.4025 36.666C13.175 37.288 13.0613 37.9467 13.0613 38.642V38.6786C13.0613 39.4348 13.187 40.124 13.4384 40.7461C13.6899 41.356 14.0371 41.8866 14.4801 42.3379C14.935 42.7892 15.4678 43.1369 16.0784 43.3808C16.701 43.6248 17.3715 43.7468 18.0898 43.7468C18.9638 43.7468 19.7241 43.5882 20.3706 43.271C21.0172 42.9417 21.5679 42.4904 22.0229 41.9171L20.4604 40.5083C20.0773 40.862 19.7062 41.1181 19.347 41.2767C18.9878 41.4353 18.5807 41.5146 18.1258 41.5146C17.5151 41.5146 17.0003 41.356 16.5813 41.0389C16.1742 40.7095 15.9048 40.2277 15.7731 39.5934H22.4719C22.4838 39.4592 22.4898 39.3434 22.4898 39.2458C22.5018 39.1482 22.5078 39.0323 22.5078 38.8981ZM19.8498 37.8552H15.7372C15.845 37.221 16.0724 36.7148 16.4196 36.3366C16.7788 35.9585 17.2458 35.7694 17.8205 35.7694C18.3951 35.7694 18.8561 35.9646 19.2033 36.3549C19.5505 36.733 19.766 37.2332 19.8498 37.8552Z" fill="#E51937"/>
<path d="M33.3601 43.5272V37.1783C33.3601 36.0439 33.0728 35.1534 32.4981 34.507C31.9353 33.8605 31.1332 33.5372 30.0915 33.5372C29.7443 33.5372 29.433 33.5799 29.1577 33.6653C28.8823 33.7507 28.6309 33.8666 28.4034 34.013C28.1759 34.1593 27.9664 34.3301 27.7748 34.5253C27.5952 34.7082 27.4276 34.9034 27.272 35.1107V33.7202H24.5422V43.5272H27.272V38.0565C27.272 37.3978 27.4216 36.9038 27.721 36.5745C28.0322 36.2329 28.4513 36.0622 28.9781 36.0622C29.5049 36.0622 29.912 36.2329 30.1993 36.5745C30.4866 36.9038 30.6303 37.3978 30.6303 38.0565V43.5272H33.3601Z" fill="#E51937"/>
<path d="M41.1372 43.1247V40.8925C40.7182 41.1242 40.2692 41.2401 39.7903 41.2401C39.2036 41.2401 38.9103 40.923 38.9103 40.2887V36.0988H41.1731V33.7202H38.9103V31.2136H36.1805V33.7202H35.0311V36.0988H36.1805V40.7461C36.1805 41.3194 36.2464 41.7951 36.3781 42.1732C36.5217 42.5392 36.7133 42.838 36.9528 43.0698C37.2042 43.3015 37.4975 43.4601 37.8327 43.5455C38.18 43.6431 38.5631 43.6919 38.9821 43.6919C39.4371 43.6919 39.8382 43.637 40.1854 43.5272C40.5326 43.4296 40.8499 43.2954 41.1372 43.1247Z" fill="#E51937"/>
<path d="M52.1648 38.8981V38.8616C52.1648 38.1663 52.069 37.5015 51.8774 36.8672C51.6979 36.2207 51.4105 35.6535 51.0154 35.1656C50.6323 34.6655 50.1474 34.2691 49.5607 33.9764C48.9741 33.6836 48.2796 33.5372 47.4775 33.5372C46.7711 33.5372 46.1246 33.6714 45.5379 33.9398C44.9632 34.2081 44.4663 34.574 44.0473 35.0376C43.6282 35.5011 43.299 36.0439 43.0595 36.666C42.8321 37.288 42.7183 37.9467 42.7183 38.642V38.6786C42.7183 39.4348 42.844 40.124 43.0955 40.7461C43.3469 41.356 43.6941 41.8866 44.1371 42.3379C44.592 42.7892 45.1248 43.1369 45.7354 43.3808C46.358 43.6248 47.0285 43.7468 47.7469 43.7468C48.6209 43.7468 49.3811 43.5882 50.0277 43.271C50.6742 42.9417 51.2249 42.4904 51.6799 41.9171L50.1175 40.5083C49.7343 40.862 49.3632 41.1181 49.004 41.2767C48.6448 41.4353 48.2377 41.5146 47.7828 41.5146C47.1722 41.5146 46.6573 41.356 46.2383 41.0389C45.8312 40.7095 45.5618 40.2277 45.4301 39.5934H52.1289C52.1409 39.4592 52.1468 39.3434 52.1468 39.2458C52.1588 39.1482 52.1648 39.0323 52.1648 38.8981ZM49.5069 37.8552H45.3942C45.502 37.221 45.7295 36.7148 46.0767 36.3366C46.4358 35.9585 46.9028 35.7694 47.4775 35.7694C48.0522 35.7694 48.5131 35.9646 48.8603 36.3549C49.2075 36.733 49.423 37.2332 49.5069 37.8552Z" fill="#E51937"/>
<path d="M60 36.4464V33.5372C59.1859 33.5006 58.5393 33.6836 58.0604 34.0861C57.5815 34.4887 57.2044 35.0254 56.929 35.6962V33.7202H54.1992V43.5272H56.929V39.9045C56.929 38.7213 57.1864 37.8491 57.7012 37.288C58.228 36.727 58.9464 36.4464 59.8563 36.4464H60Z" fill="#E51937"/>
</svg>
