<svg width="240" height="37" viewBox="0 0 240 37" fill="none" xmlns="http://www.w3.org/2000/svg">
<path d="M15.5764 10.8423C10.3355 12.346 5.37417 13.764 0 15.3072C2.08441 10.0641 4.02896 5.19034 6.09339 0C6.9791 1.65537 7.71164 3.03375 8.51743 4.55062C13.2856 2.18298 18.127 1.60261 23.1083 3.35031C26.6911 4.60338 29.6012 6.77317 31.7456 9.89265C35.961 16.0129 35.7279 24.2106 31.2128 29.9879C27.0107 35.3629 19.1193 38.1593 13.4654 36.1543C13.7451 34.9408 14.0381 33.7076 14.3178 32.5007C22.1493 32.7974 27.1039 30.1726 29.4547 24.5602C31.5591 19.5281 30.3404 13.8035 26.3714 10.1433C22.3558 6.43682 16.6153 5.50691 11.6207 7.92072C12.9326 8.89679 14.158 9.79373 15.5698 10.8423H15.5764Z" fill="white"/>
<path d="M12.2979 35.7768L10.2227 35.0769L12.2086 31.6875C12.5934 32.0191 13.3355 32.3936 13.2874 32.6638C13.1225 33.6524 12.6965 34.6041 12.2979 35.7707V35.7768Z" fill="white"/>
<path d="M0 20.4132V18.4062L4.08935 19.2824C3.76966 19.6614 3.50325 20.2952 3.12362 20.3635C2.19786 20.5251 1.21881 20.4132 0 20.4132H0Z" fill="white"/>
<path d="M5.89718 26.5781C6.59287 27.3777 5.77004 28.4001 3.42867 29.6451L2.04688 28.38L5.89718 26.5781Z" fill="white"/>
<path d="M8.91132 34.7601L7.16016 33.3989L9.58819 29.6484C11.2897 31.8959 9.07277 32.9664 8.91132 34.7601Z" fill="white"/>
<path d="M4.07869 21.4688C4.18764 22.9979 3.49991 23.3454 0.204275 23.5134L0 21.9669L4.07869 21.4688Z" fill="white"/>
<path d="M1.83989 27.5983C1.52041 26.7952 1.31452 26.2715 1.02344 25.5244C2.72023 25.3638 4.16144 23.3946 6.13512 25.4894L1.83989 27.5913V27.5983Z" fill="white"/>
<path d="M6.34444 32.7143L5.11328 31.3003L7.75148 28.625C8.62886 29.3685 8.15985 30.7316 6.34444 32.7143Z" fill="white"/>
<path d="M36.1836 36.8017V35.7221C37.4922 35.6567 38.2773 35.3132 38.5391 34.6916C38.8989 33.9064 39.4224 31.8781 40.1094 28.6066L43.7407 11.4314C44.2969 8.8142 44.5749 7.17846 44.5749 6.52416C44.5749 5.73901 43.8061 5.29736 42.2685 5.19921L41.5325 5.15014V4.07055H55.2236C59.7382 4.07055 63.0424 4.72485 65.1362 6.03344C68.2768 7.99633 69.8471 11.3496 69.8471 16.0932C69.8471 21.6875 67.9169 26.5129 64.0566 30.5695C60.0981 34.7243 54.602 36.8017 47.5683 36.8017H36.1836ZM49.8747 5.59179L45.1147 27.8706C44.4604 30.9457 44.1333 32.9577 44.1333 33.9064C44.1333 34.4953 44.3786 34.9042 44.8694 35.1332C45.3928 35.3622 46.3415 35.4767 47.7156 35.4767C52.6228 35.4767 56.5485 33.8083 59.4929 30.4714C62.8952 26.611 64.5964 21.9492 64.5964 16.4858C64.5964 9.09227 60.8505 5.3955 53.3589 5.3955C52.4756 5.3955 51.3142 5.46093 49.8747 5.59179Z" fill="white"/>
<path d="M87.8903 25.6132H76.6037L72.2854 32.6306C71.6638 33.6447 71.353 34.3644 71.353 34.7897C71.353 35.3786 72.1872 35.6894 73.8557 35.7221V36.8017H66.2495V35.7221C67.1655 35.624 67.8525 35.3622 68.3105 34.9369C68.5722 34.6752 69.0957 33.9555 69.8808 32.7778L72.6779 28.5085L88.7736 2.84375H89.6078L92.8466 28.1159C93.37 32.1725 93.828 34.4789 94.2206 35.0351C94.5151 35.4604 95.3656 35.6894 96.7724 35.7221V36.8017H85.9765V35.7221H86.5654C87.7758 35.7221 88.4792 35.5094 88.6755 35.0842C88.7736 34.8879 88.8227 34.5771 88.8227 34.1518C88.8227 33.4975 88.7736 32.7778 88.6755 31.9926L87.8903 25.6132ZM87.694 23.9939L86.0746 10.2046L77.6342 23.9939H87.694Z" fill="white"/>
<path d="M129.796 31.6514L125.789 27.603C124.671 28.639 123.539 29.4568 122.394 30.0566C121.277 30.6564 119.9 30.9562 118.264 30.9562C117.037 30.9562 115.906 30.7245 114.87 30.2611C113.861 29.7703 112.989 29.116 112.253 28.2982C111.544 27.4803 110.985 26.5261 110.576 25.4356C110.167 24.3451 109.963 23.1865 109.963 21.9597V21.8779C109.963 20.6511 110.167 19.5061 110.576 18.4428C110.985 17.3524 111.558 16.3982 112.294 15.5803C113.03 14.7624 113.902 14.1218 114.911 13.6583C115.947 13.1948 117.065 12.9631 118.264 12.9631C119.709 12.9631 121.004 13.2494 122.149 13.8219C123.321 14.3944 124.466 15.185 125.584 16.1937L129.592 11.5727C128.937 10.9184 128.229 10.3187 127.465 9.77343C126.702 9.22818 125.87 8.76473 124.971 8.38305C124.071 8.00138 123.062 7.70149 121.945 7.4834C120.854 7.2653 119.641 7.15625 118.305 7.15625C116.097 7.15625 114.079 7.55155 112.253 8.34216C110.426 9.1055 108.859 10.1687 107.55 11.5319C106.241 12.8677 105.219 14.4353 104.483 16.2346C103.747 18.0066 103.379 19.915 103.379 21.9597V22.0415C103.379 24.0861 103.747 26.0081 104.483 27.8074C105.219 29.6068 106.241 31.1743 107.55 32.5102C108.859 33.8188 110.413 34.8548 112.212 35.6181C114.011 36.3814 115.96 36.7631 118.06 36.7631C119.45 36.7631 120.704 36.6404 121.822 36.3951C122.94 36.177 123.962 35.8498 124.889 35.4136C125.843 34.9502 126.715 34.4049 127.506 33.7779C128.297 33.1509 129.06 32.442 129.796 31.6514Z" fill="#E51937"/>
<path d="M154.63 25.9264V25.8446C154.63 24.2906 154.412 22.8048 153.976 21.3872C153.567 19.9423 152.912 18.6746 152.013 17.5841C151.14 16.4663 150.036 15.5803 148.7 14.926C147.365 14.2717 145.783 13.9446 143.957 13.9446C142.348 13.9446 140.876 14.2445 139.54 14.8442C138.232 15.444 137.1 16.2619 136.146 17.2978C135.192 18.3338 134.442 19.547 133.897 20.9373C133.379 22.3277 133.12 23.7999 133.12 25.3538V25.4356C133.12 27.1259 133.406 28.6662 133.979 30.0566C134.551 31.4197 135.342 32.6056 136.351 33.6143C137.387 34.623 138.6 35.4 139.99 35.9452C141.408 36.4905 142.934 36.7631 144.57 36.7631C146.56 36.7631 148.291 36.4087 149.764 35.6999C151.236 34.9638 152.49 33.9551 153.526 32.6738L149.968 29.525C149.096 30.3156 148.251 30.8881 147.433 31.2425C146.615 31.5969 145.688 31.7741 144.652 31.7741C143.262 31.7741 142.089 31.4197 141.135 30.7109C140.208 29.9748 139.595 28.8979 139.295 27.4803H154.548C154.575 27.1804 154.589 26.9214 154.589 26.7033C154.616 26.4852 154.63 26.2262 154.63 25.9264ZM148.578 23.5954H139.213C139.458 22.1778 139.976 21.0464 140.767 20.2013C141.585 19.3561 142.648 18.9336 143.957 18.9336C145.265 18.9336 146.315 19.3698 147.106 20.2422C147.896 21.0873 148.387 22.205 148.578 23.5954Z" fill="#E51937"/>
<path d="M179.341 36.2724V22.0824C179.341 19.547 178.687 17.5568 177.378 16.1119C176.097 14.667 174.27 13.9446 171.898 13.9446C171.108 13.9446 170.399 14.04 169.772 14.2308C169.145 14.4217 168.572 14.6806 168.054 15.0078C167.536 15.3349 167.059 15.7166 166.623 16.1528C166.214 16.5617 165.833 16.9979 165.478 17.4614V14.3535H159.262V36.2724H165.478V24.0453C165.478 22.5731 165.819 21.469 166.501 20.7329C167.209 19.9695 168.164 19.5879 169.363 19.5879C170.563 19.5879 171.49 19.9695 172.144 20.7329C172.798 21.469 173.125 22.5731 173.125 24.0453V36.2724H179.341Z" fill="#E51937"/>
<path d="M197.05 35.3727V30.3837C196.096 30.9017 195.073 31.1607 193.983 31.1607C192.647 31.1607 191.979 30.4519 191.979 29.0343V19.6697H197.132V14.3535H191.979V8.75109H185.763V14.3535H183.146V19.6697H185.763V30.0566C185.763 31.3379 185.913 32.4011 186.213 33.2463C186.54 34.0641 186.976 34.7321 187.522 35.2501C188.094 35.768 188.762 36.1225 189.525 36.3133C190.316 36.5314 191.188 36.6404 192.143 36.6404C193.179 36.6404 194.092 36.5178 194.882 36.2724C195.673 36.0543 196.396 35.7544 197.05 35.3727Z" fill="#E51937"/>
<path d="M222.16 25.9264V25.8446C222.16 24.2906 221.942 22.8048 221.506 21.3872C221.097 19.9423 220.443 18.6746 219.543 17.5841C218.67 16.4663 217.566 15.5803 216.23 14.926C214.895 14.2717 213.313 13.9446 211.487 13.9446C209.878 13.9446 208.406 14.2445 207.07 14.8442C205.762 15.444 204.63 16.2619 203.676 17.2978C202.722 18.3338 201.972 19.547 201.427 20.9373C200.909 22.3277 200.65 23.7999 200.65 25.3538V25.4356C200.65 27.1259 200.936 28.6662 201.509 30.0566C202.081 31.4197 202.872 32.6056 203.881 33.6143C204.917 34.623 206.13 35.4 207.52 35.9452C208.938 36.4905 210.465 36.7631 212.1 36.7631C214.09 36.7631 215.822 36.4087 217.294 35.6999C218.766 34.9638 220.02 33.9551 221.056 32.6738L217.498 29.525C216.626 30.3156 215.781 30.8881 214.963 31.2425C214.145 31.5969 213.218 31.7741 212.182 31.7741C210.792 31.7741 209.619 31.4197 208.665 30.7109C207.738 29.9748 207.125 28.8979 206.825 27.4803H222.078C222.106 27.1804 222.119 26.9214 222.119 26.7033C222.146 26.4852 222.16 26.2262 222.16 25.9264ZM216.108 23.5954H206.743C206.989 22.1778 207.507 21.0464 208.297 20.2013C209.115 19.3561 210.178 18.9336 211.487 18.9336C212.795 18.9336 213.845 19.3698 214.636 20.2422C215.426 21.0873 215.917 22.205 216.108 23.5954Z" fill="#E51937"/>
<path d="M240.001 20.4466V13.9446C238.147 13.8628 236.675 14.2717 235.585 15.1714C234.494 16.071 233.635 17.2706 233.008 18.77V14.3535H226.792V36.2724H233.008V28.1755C233.008 25.531 233.594 23.5818 234.767 22.3277C235.966 21.0737 237.602 20.4466 239.674 20.4466H240.001Z" fill="#E51937"/>
</svg>
