<svg width="24" height="24" viewBox="0 0 24 24" fill="none" xmlns="http://www.w3.org/2000/svg">
<path d="M3.89844 19.3919C4.98456 18.2793 6.69132 17.0069 9.01872 18.915C10.2763 19.9461 11.6246 19.9556 12.8431 19.5459M15.5354 17.9609C14.8223 18.5454 13.8796 19.1973 12.8431 19.5459M15.5354 17.9609L13.208 16.5305M15.5354 17.9609L20.3625 9.71954M13.208 16.5305L12.8431 19.5459M13.208 16.5305L18.0532 8.25805M18.0532 8.25805L20.3625 9.71954M18.0532 8.25805L19.1217 6.43371M20.3625 9.71954L21.44 7.87972M19.1217 6.43371L20.1902 4.60938L22.5176 6.03991L21.44 7.87972M19.1217 6.43371L21.44 7.87972" stroke="white"/>
<path fill-rule="evenodd" clip-rule="evenodd" d="M2.5 1.72656H2V2.22656V21.7772V22.2772H2.5H16.4644H16.9644V21.7772V15.5212L15.9644 17.2285V21.2772H3V2.72656H12.9954L15.9644 5.76805V11.8244L16.9644 10.117V5.56447V5.36089L16.8222 5.21521L13.5638 1.8773L13.4167 1.72656H13.206H2.5Z" fill="white"/>
<path d="M3.89844 4.32812H10.8984" stroke="white"/>
<path d="M3.89844 7.32812H13.8984" stroke="white"/>
<path d="M3.89844 10.3281H14.8984" stroke="white"/>
<path d="M3.89844 13.3281H12.8984" stroke="white"/>
<path d="M3.89844 16.3281H11.8984" stroke="white"/>
</svg>
