<svg width="24" height="24" viewBox="0 0 24 24" fill="none" xmlns="http://www.w3.org/2000/svg">
<g clip-path="url(#clip0_1413_57271)">
<path d="M23.9727 13.5429C23.9646 13.4354 23.9288 13.3322 23.8689 13.2446C23.8091 13.1569 23.7275 13.088 23.6331 13.0454C23.5232 13.0193 23.0837 13.0193 20.9762 13.0193C20.9762 4.50024 21.0361 5.01337 20.8313 4.79346C17.69 1.5 17.7749 1.5 17.4803 1.5H8.49084C8.35839 1.5 8.23136 1.55517 8.1377 1.65336C8.04404 1.75155 7.99142 1.88473 7.99142 2.0236V3.07081H5.49436C5.3619 3.07081 5.23488 3.12597 5.14122 3.22417C5.04756 3.32236 4.99494 3.45554 4.99494 3.59441V5.16522H0.500223C0.36777 5.16522 0.240742 5.22038 0.147084 5.31858C0.0534258 5.41677 0.000809215 5.54995 0.000809215 5.68882C0.000809215 24.3291 -0.168991 23.2609 0.325428 23.4546C0.46027 23.507 20.4818 23.5227 20.6516 23.4546C20.7636 23.4082 20.8558 23.3207 20.9113 23.2086C20.9762 23.13 23.9727 13.6999 23.9727 13.5429ZM20.1172 22.4441H1.19441L3.85628 14.0665H22.7791L20.1172 22.4441ZM17.9797 3.28548L19.2732 4.64161H17.9797V3.28548ZM8.99025 2.5472H16.9809V5.16522C16.9809 5.30409 17.0335 5.43727 17.1271 5.53546C17.2208 5.63365 17.3478 5.68882 17.4803 5.68882H19.9773V13.0193H8.99025V2.5472ZM5.99377 4.11801H7.99142V13.0193H5.99377V4.11801ZM4.99494 6.21242V13.0193C3.43677 13.0193 3.16709 12.925 3.02226 13.3753L0.999636 19.7423V6.21242H4.99494Z" fill="white"/>
<path d="M10.5 7.5H15.5C15.6326 7.5 15.7598 7.44732 15.8536 7.35355C15.9473 7.25979 16 7.13261 16 7C16 6.86739 15.9473 6.74021 15.8536 6.64645C15.7598 6.55268 15.6326 6.5 15.5 6.5H10.5C10.3674 6.5 10.2402 6.55268 10.1464 6.64645C10.0527 6.74021 10 6.86739 10 7C10 7.13261 10.0527 7.25979 10.1464 7.35355C10.2402 7.44732 10.3674 7.5 10.5 7.5Z" fill="white"/>
<path d="M10.5 9.5H13.5C13.6326 9.5 13.7598 9.44732 13.8536 9.35355C13.9473 9.25979 14 9.13261 14 9C14 8.86739 13.9473 8.74021 13.8536 8.64645C13.7598 8.55268 13.6326 8.5 13.5 8.5H10.5C10.3674 8.5 10.2402 8.55268 10.1464 8.64645C10.0527 8.74021 10 8.86739 10 9C10 9.13261 10.0527 9.25979 10.1464 9.35355C10.2402 9.44732 10.3674 9.5 10.5 9.5Z" fill="white"/>
</g>
<defs>
<clipPath id="clip0_1413_57271">
<rect width="24" height="24" fill="white"/>
</clipPath>
</defs>
</svg>
