<svg width="198" height="31" viewBox="0 0 198 31" fill="none" xmlns="http://www.w3.org/2000/svg">
<path d="M12.8505 9.30966C8.52672 10.5406 4.43367 11.7014 0 12.9648C1.71963 8.67257 3.32388 4.68266 5.02703 0.433594C5.75773 1.78876 6.36208 2.91717 7.02685 4.15895C10.9606 2.22069 14.9547 1.74557 19.0642 3.17632C22.02 4.20214 24.4209 5.97844 26.19 8.5322C29.6677 13.5425 29.4754 20.2536 25.7505 24.9832C22.2837 29.3834 15.7733 31.6726 11.1089 30.0313C11.3397 29.0379 11.5814 28.0282 11.8121 27.0402C18.2731 27.2832 22.3607 25.1343 24.3001 20.5397C26.0362 16.4202 25.0308 11.7338 21.7563 8.73736C18.4434 5.70308 13.7076 4.94182 9.58706 6.91787C10.6694 7.71694 11.6803 8.45121 12.845 9.30966H12.8505Z" fill="white"/>
<path d="M10.1464 29.7266L8.43433 29.1536L10.0727 26.3789C10.3902 26.6503 11.0024 26.957 10.9628 27.1781C10.8267 27.9874 10.4752 28.7666 10.1464 29.7216V29.7266Z" fill="white"/>
<path d="M0 17.141V15.498L3.3737 16.2153C3.10996 16.5256 2.89017 17.0444 2.57698 17.1004C1.81322 17.2326 1.00552 17.141 0 17.141H0Z" fill="white"/>
<path d="M4.86326 22.1934C5.4372 22.848 4.75836 23.6849 2.82674 24.7042L1.68677 23.6685L4.86326 22.1934Z" fill="white"/>
<path d="M7.34876 28.8897L5.90405 27.7754L7.90717 24.7051C9.31089 26.5449 7.48196 27.4213 7.34876 28.8897Z" fill="white"/>
<path d="M3.36491 18.0098C3.45479 19.2616 2.88742 19.5461 0.168526 19.6836L0 18.4176L3.36491 18.0098Z" fill="white"/>
<path d="M1.51707 23.0303C1.2535 22.3729 1.08365 21.9442 0.843506 21.3325C2.24336 21.2011 3.43235 19.589 5.06063 21.304L1.51707 23.0246V23.0303Z" fill="white"/>
<path d="M5.23274 27.2149L4.21704 26.0573L6.39355 23.8672C7.11738 24.4759 6.73045 25.5918 5.23274 27.2149Z" fill="white"/>
<path d="M29.8506 30.5633V29.6795C30.9302 29.6259 31.5779 29.3447 31.7938 28.8358C32.0907 28.1931 32.5226 26.5326 33.0893 23.8544L36.0852 9.79392C36.544 7.65137 36.7734 6.31227 36.7734 5.77663C36.7734 5.13387 36.1392 4.77231 34.8706 4.69197L34.2634 4.65179V3.76799H45.5585C49.2831 3.76799 52.009 4.30363 53.7364 5.37491C56.3274 6.98182 57.6229 9.72696 57.6229 13.6103C57.6229 18.19 56.0305 22.1404 52.8457 25.4613C49.58 28.8626 45.0457 30.5633 39.243 30.5633H29.8506ZM41.1457 5.01335L37.2187 23.2518C36.6789 25.7693 36.4091 27.4164 36.4091 28.1931C36.4091 28.6751 36.6115 29.0099 37.0163 29.1974C37.4482 29.3849 38.2308 29.4786 39.3644 29.4786C43.4128 29.4786 46.6516 28.1127 49.0807 25.381C51.8876 22.2207 53.291 18.4043 53.291 13.9317C53.291 7.87901 50.2007 4.85266 44.0201 4.85266C43.2914 4.85266 42.3333 4.90622 41.1457 5.01335Z" fill="white"/>
<path d="M72.5085 21.4039H63.197L59.6344 27.1486C59.1216 27.9788 58.8652 28.568 58.8652 28.9162C58.8652 29.3983 59.5535 29.6527 60.9299 29.6795V30.5633H54.6548V29.6795C55.4106 29.5991 55.9773 29.3849 56.3552 29.0367C56.5711 28.8224 57.0029 28.2332 57.6507 27.2691L59.9583 23.7741L73.2372 2.76367H73.9254L76.5974 23.4527C77.0292 26.7736 77.4071 28.6618 77.7309 29.117C77.9738 29.4652 78.6756 29.6527 79.8361 29.6795V30.5633H70.9296V29.6795H71.4154C72.414 29.6795 72.9943 29.5054 73.1562 29.1572C73.2372 28.9965 73.2777 28.7421 73.2777 28.3939C73.2777 27.8583 73.2372 27.2691 73.1562 26.6263L72.5085 21.4039ZM72.3465 20.0782L71.0105 8.7896L64.0472 20.0782H72.3465Z" fill="white"/>
<path d="M107.081 26.3459L103.775 23.0316C102.853 23.8797 101.919 24.5493 100.975 25.0403C100.053 25.5313 98.9168 25.7768 97.5674 25.7768C96.5553 25.7768 95.6219 25.5871 94.7672 25.2077C93.935 24.8059 93.2153 24.2703 92.608 23.6008C92.0233 22.9312 91.5622 22.1501 91.2248 21.2573C90.8874 20.3646 90.7188 19.4161 90.7188 18.4118V18.3448C90.7188 17.3405 90.8874 16.4031 91.2248 15.5327C91.5622 14.64 92.0345 13.8589 92.6418 13.1893C93.249 12.5198 93.9688 11.9953 94.8009 11.6159C95.6556 11.2365 96.5777 11.0468 97.5674 11.0468C98.7594 11.0468 99.8277 11.2811 100.772 11.7498C101.74 12.2185 102.684 12.8657 103.606 13.6915L106.913 9.90852C106.373 9.37289 105.788 8.88188 105.158 8.43552C104.528 7.98915 103.842 7.60974 103.1 7.29729C102.358 6.98483 101.526 6.73933 100.604 6.56079C99.704 6.38224 98.7032 6.29297 97.6011 6.29297C95.7793 6.29297 94.1149 6.61658 92.608 7.26381C91.1011 7.88872 89.8079 8.75913 88.7283 9.87505C87.6487 10.9686 86.8053 12.2519 86.198 13.7249C85.5907 15.1756 85.2871 16.7379 85.2871 18.4118V18.4787C85.2871 20.1526 85.5907 21.726 86.198 23.199C86.8053 24.672 87.6487 25.9553 88.7283 27.0489C89.8079 28.1202 91.0899 28.9683 92.5743 29.5932C94.0587 30.2181 95.6668 30.5306 97.3987 30.5306C98.5457 30.5306 99.5803 30.4301 100.502 30.2293C101.425 30.0507 102.268 29.7829 103.033 29.4258C103.82 29.0464 104.54 28.6 105.192 28.0867C105.844 27.5734 106.474 26.9931 107.081 26.3459Z" fill="#E51937"/>
<path d="M127.569 21.6591V21.5921C127.569 20.32 127.389 19.1036 127.029 17.9431C126.692 16.7602 126.152 15.7224 125.41 14.8297C124.69 13.9146 123.779 13.1893 122.677 12.6537C121.575 12.118 120.271 11.8502 118.764 11.8502C117.437 11.8502 116.222 12.0957 115.12 12.5867C114.04 13.0777 113.107 13.7473 112.32 14.5954C111.533 15.4434 110.914 16.4366 110.464 17.5748C110.037 18.7131 109.823 19.9183 109.823 21.1904V21.2573C109.823 22.6411 110.06 23.9021 110.532 25.0403C111.004 26.1562 111.656 27.127 112.489 27.9528C113.343 28.7786 114.344 29.4147 115.491 29.861C116.661 30.3074 117.92 30.5306 119.27 30.5306C120.912 30.5306 122.34 30.2404 123.554 29.6602C124.769 29.0576 125.803 28.2318 126.658 27.1828L123.723 24.6051C123.003 25.2523 122.306 25.721 121.631 26.0111C120.957 26.3013 120.192 26.4463 119.337 26.4463C118.19 26.4463 117.223 26.1562 116.436 25.5759C115.671 24.9733 115.165 24.0918 114.918 22.9312H127.502C127.524 22.6857 127.535 22.4737 127.535 22.2951C127.558 22.1166 127.569 21.9046 127.569 21.6591ZM122.576 19.7509H114.85C115.053 18.5903 115.48 17.6641 116.132 16.9722C116.807 16.2804 117.684 15.9344 118.764 15.9344C119.843 15.9344 120.709 16.2915 121.361 17.0057C122.014 17.6976 122.419 18.6126 122.576 19.7509Z" fill="#E51937"/>
<path d="M147.956 30.1288V18.5122C147.956 16.4366 147.416 14.8074 146.336 13.6245C145.279 12.4416 143.772 11.8502 141.816 11.8502C141.163 11.8502 140.578 11.9283 140.061 12.0846C139.544 12.2408 139.072 12.4528 138.644 12.7206C138.217 12.9884 137.823 13.3009 137.463 13.658C137.126 13.9928 136.811 14.3499 136.519 14.7293V12.185H131.391V30.1288H136.519V20.1191C136.519 18.9139 136.8 18.01 137.362 17.4075C137.947 16.7825 138.734 16.4701 139.724 16.4701C140.713 16.4701 141.478 16.7825 142.018 17.4075C142.558 18.01 142.828 18.9139 142.828 20.1191V30.1288H147.956Z" fill="#E51937"/>
<path d="M162.565 29.3923V25.3081C161.778 25.7322 160.935 25.9442 160.035 25.9442C158.933 25.9442 158.382 25.3639 158.382 24.2034V16.537H162.633V12.185H158.382V7.59858H153.254V12.185H151.095V16.537H153.254V25.0403C153.254 26.0892 153.378 26.9597 153.625 27.6515C153.895 28.3211 154.255 28.8679 154.705 29.2919C155.177 29.716 155.728 30.0061 156.358 30.1623C157.01 30.3409 157.73 30.4301 158.517 30.4301C159.372 30.4301 160.125 30.3297 160.777 30.1288C161.43 29.9503 162.026 29.7048 162.565 29.3923Z" fill="#E51937"/>
<path d="M183.281 21.6591V21.5921C183.281 20.32 183.101 19.1036 182.741 17.9431C182.404 16.7602 181.864 15.7224 181.122 14.8297C180.402 13.9146 179.491 13.1893 178.389 12.6537C177.287 12.118 175.983 11.8502 174.476 11.8502C173.149 11.8502 171.934 12.0957 170.832 12.5867C169.753 13.0777 168.819 13.7473 168.032 14.5954C167.245 15.4434 166.626 16.4366 166.176 17.5748C165.749 18.7131 165.535 19.9183 165.535 21.1904V21.2573C165.535 22.6411 165.772 23.9021 166.244 25.0403C166.716 26.1562 167.369 27.127 168.201 27.9528C169.055 28.7786 170.056 29.4147 171.203 29.861C172.373 30.3074 173.632 30.5306 174.982 30.5306C176.624 30.5306 178.052 30.2404 179.266 29.6602C180.481 29.0576 181.516 28.2318 182.37 27.1828L179.435 24.6051C178.715 25.2523 178.018 25.721 177.343 26.0111C176.669 26.3013 175.904 26.4463 175.049 26.4463C173.902 26.4463 172.935 26.1562 172.148 25.5759C171.383 24.9733 170.877 24.0918 170.63 22.9312H183.214C183.236 22.6857 183.247 22.4737 183.247 22.2951C183.27 22.1166 183.281 21.9046 183.281 21.6591ZM178.288 19.7509H170.562C170.765 18.5903 171.192 17.6641 171.844 16.9722C172.519 16.2804 173.396 15.9344 174.476 15.9344C175.555 15.9344 176.421 16.2915 177.074 17.0057C177.726 17.6976 178.131 18.6126 178.288 19.7509Z" fill="#E51937"/>
<path d="M198 17.1731V11.8502C196.471 11.7833 195.256 12.118 194.356 12.8545C193.457 13.591 192.748 14.573 192.231 15.8005V12.185H187.103V30.1288H192.231V23.5003C192.231 21.3355 192.714 19.7397 193.682 18.7131C194.671 17.6864 196.021 17.1731 197.73 17.1731H198Z" fill="#E51937"/>
</svg>
