<svg width="20" height="21" viewBox="0 0 20 21" fill="none" xmlns="http://www.w3.org/2000/svg">
<path d="M8 4.5H12C12 3.96957 11.7893 3.46086 11.4142 3.08579C11.0391 2.71071 10.5304 2.5 10 2.5C9.46957 2.5 8.96086 2.71071 8.58579 3.08579C8.21071 3.46086 8 3.96957 8 4.5V4.5ZM6 4.5C6 3.43913 6.42143 2.42172 7.17157 1.67157C7.92172 0.921427 8.93913 0.5 10 0.5C11.0609 0.5 12.0783 0.921427 12.8284 1.67157C13.5786 2.42172 14 3.43913 14 4.5H19C19.2652 4.5 19.5196 4.60536 19.7071 4.79289C19.8946 4.98043 20 5.23478 20 5.5C20 5.76522 19.8946 6.01957 19.7071 6.20711C19.5196 6.39464 19.2652 6.5 19 6.5H18.118L17.232 16.84C17.1468 17.8385 16.69 18.7686 15.9519 19.4463C15.2137 20.1241 14.2481 20.5001 13.246 20.5H6.754C5.75191 20.5001 4.78628 20.1241 4.04815 19.4463C3.31002 18.7686 2.85318 17.8385 2.768 16.84L1.882 6.5H1C0.734784 6.5 0.48043 6.39464 0.292893 6.20711C0.105357 6.01957 0 5.76522 0 5.5C0 5.23478 0.105357 4.98043 0.292893 4.79289C0.48043 4.60536 0.734784 4.5 1 4.5H6ZM13 10.5C13 10.2348 12.8946 9.98043 12.7071 9.79289C12.5196 9.60536 12.2652 9.5 12 9.5C11.7348 9.5 11.4804 9.60536 11.2929 9.79289C11.1054 9.98043 11 10.2348 11 10.5V14.5C11 14.7652 11.1054 15.0196 11.2929 15.2071C11.4804 15.3946 11.7348 15.5 12 15.5C12.2652 15.5 12.5196 15.3946 12.7071 15.2071C12.8946 15.0196 13 14.7652 13 14.5V10.5ZM8 9.5C8.26522 9.5 8.51957 9.60536 8.70711 9.79289C8.89464 9.98043 9 10.2348 9 10.5V14.5C9 14.7652 8.89464 15.0196 8.70711 15.2071C8.51957 15.3946 8.26522 15.5 8 15.5C7.73478 15.5 7.48043 15.3946 7.29289 15.2071C7.10536 15.0196 7 14.7652 7 14.5V10.5C7 10.2348 7.10536 9.98043 7.29289 9.79289C7.48043 9.60536 7.73478 9.5 8 9.5V9.5ZM4.76 16.67C4.8026 17.1694 5.03117 17.6346 5.40044 17.9735C5.76972 18.3124 6.25278 18.5003 6.754 18.5H13.246C13.7469 18.4998 14.2294 18.3117 14.5983 17.9728C14.9671 17.634 15.1954 17.1691 15.238 16.67L16.11 6.5H3.89L4.762 16.67H4.76Z" fill="#E51937"/>
</svg>
