<svg width="16" height="21" viewBox="0 0 16 21" fill="none" xmlns="http://www.w3.org/2000/svg">
<path d="M15.045 5.90088C15.423 5.52288 15.631 5.02088 15.631 4.48688C15.631 3.95288 15.423 3.45088 15.045 3.07288L13.459 1.48688C13.081 1.10888 12.579 0.900879 12.045 0.900879C11.511 0.900879 11.009 1.10888 10.632 1.48588L0 12.0849V16.4999H4.413L15.045 5.90088ZM12.045 2.90088L13.632 4.48588L12.042 6.06988L10.456 4.48488L12.045 2.90088ZM2 14.4999V12.9149L9.04 5.89688L10.626 7.48288L3.587 14.4999H2ZM0 18.4999H16V20.4999H0V18.4999Z" fill="#E51937"/>
</svg>
