<svg width="80" height="80" viewBox="0 0 95 95" fill="none" xmlns="http://www.w3.org/2000/svg">
    <circle cx="47.5" cy="47.5" r="47.5" fill="#101010" />
    <path
        d="M26.6088 31.6884C23.3758 32.616 20.3152 33.4908 17 34.4428C18.2858 31.2084 19.4854 28.2018 20.7589 25C21.3053 26.0212 21.7572 26.8715 22.2543 27.8072C25.1957 26.3466 28.1822 25.9886 31.2551 27.0668C33.4652 27.8398 35.2605 29.1783 36.5833 31.1026C39.1837 34.8781 39.0399 39.9351 36.2546 43.499C33.6624 46.8148 28.7943 48.5398 25.3066 47.303C25.4791 46.5544 25.6599 45.7936 25.8324 45.0491C30.6635 45.2322 33.7199 43.6129 35.1701 40.1507C36.4683 37.0465 35.7165 33.5152 33.2681 31.2572C30.7909 28.9708 27.2497 28.3971 24.1686 29.8861C24.9779 30.4883 25.7338 31.0416 26.6047 31.6884H26.6088Z"
        fill="white" />
    <path
        d="M24.5868 47.0695L23.3066 46.6377L24.5317 44.5469C24.7691 44.7514 25.2269 44.9825 25.1973 45.1491C25.0955 45.759 24.8327 46.3461 24.5868 47.0657V47.0695Z"
        fill="white" />
    <path
        d="M17 37.5896V36.3516L19.5227 36.892C19.3254 37.1258 19.1611 37.5168 18.9269 37.559C18.3558 37.6586 17.7519 37.5896 17 37.5896Z"
        fill="white" />
    <path d="M20.6354 41.3984C21.0646 41.8917 20.557 42.5224 19.1127 43.2904L18.2603 42.51L20.6354 41.3984Z"
        fill="white" />
    <path d="M22.4938 46.4424L21.4136 45.6027L22.9114 43.2891C23.961 44.6755 22.5934 45.3359 22.4938 46.4424Z"
        fill="white" />
    <path d="M19.5161 38.2422C19.5833 39.1855 19.159 39.3999 17.126 39.5035L17 38.5495L19.5161 38.2422Z" fill="white" />
    <path
        d="M18.1335 42.0248C17.9365 41.5294 17.8094 41.2064 17.6299 40.7454C18.6766 40.6464 19.5657 39.4316 20.7832 40.7239L18.1335 42.0205V42.0248Z"
        fill="white" />
    <path d="M20.9128 45.1789L20.1533 44.3066L21.7808 42.6562C22.322 43.1149 22.0327 43.9558 20.9128 45.1789Z"
        fill="white" />
    <path
        d="M39.2231 47.7059V47.0399C40.0304 46.9995 40.5147 46.7876 40.6762 46.4042C40.8982 45.9198 41.2211 44.6686 41.6449 42.6505L43.885 32.0554C44.2281 30.4409 44.3996 29.4318 44.3996 29.0282C44.3996 28.5438 43.9254 28.2714 42.9768 28.2109L42.5228 28.1806V27.5146H50.9686C53.7536 27.5146 55.7919 27.9182 57.0835 28.7255C59.0209 29.9363 59.9896 32.0049 59.9896 34.9312C59.9896 38.3822 58.7989 41.3589 56.4175 43.8614C53.9756 46.4244 50.5851 47.7059 46.2462 47.7059H39.2231ZM47.669 28.453L44.7326 42.1964C44.329 44.0934 44.1272 45.3346 44.1272 45.9198C44.1272 46.2831 44.2785 46.5354 44.5812 46.6766C44.9041 46.8179 45.4894 46.8885 46.337 46.8885C49.3642 46.8885 51.7859 45.8593 53.6022 43.8008C55.7011 41.4194 56.7505 38.5436 56.7505 35.1734C56.7505 30.6124 54.4397 28.3319 49.8183 28.3319C49.2734 28.3319 48.5569 28.3723 47.669 28.453Z"
        fill="white" />
    <path
        d="M71.1201 40.8039H64.1576L61.4937 45.1328C61.1103 45.7584 60.9185 46.2024 60.9185 46.4647C60.9185 46.828 61.4331 47.0197 62.4624 47.0399V47.7059H57.7703V47.0399C58.3353 46.9793 58.7591 46.8179 59.0417 46.5555C59.2031 46.3941 59.526 45.9501 60.0104 45.2236L61.7359 42.5899L71.665 26.7578H72.1796L74.1776 42.3478C74.5005 44.8502 74.783 46.273 75.0252 46.6161C75.2068 46.8784 75.7315 47.0197 76.5993 47.0399V47.7059H69.9395V47.0399H70.3028C71.0495 47.0399 71.4834 46.9087 71.6045 46.6464C71.665 46.5253 71.6953 46.3335 71.6953 46.0712C71.6953 45.6676 71.665 45.2236 71.6045 44.7392L71.1201 40.8039ZM70.999 39.8049L70.0001 31.2986L64.7933 39.8049H70.999Z"
        fill="white" />
    <path
        d="M28.6016 66.4597L26.8416 64.6483C26.3507 65.1118 25.8538 65.4778 25.351 65.7461C24.8601 66.0145 24.2555 66.1486 23.5371 66.1486C22.9983 66.1486 22.5015 66.045 22.0465 65.8376C21.6035 65.618 21.2204 65.3253 20.8971 64.9594C20.5858 64.5934 20.3404 64.1665 20.1608 63.6786C19.9812 63.1907 19.8914 62.6723 19.8914 62.1234V62.0868C19.8914 61.5379 19.9812 61.0256 20.1608 60.5499C20.3404 60.062 20.5918 59.635 20.9151 59.2691C21.2383 58.9032 21.6215 58.6165 22.0645 58.4092C22.5194 58.2018 23.0103 58.0981 23.5371 58.0981C24.1717 58.0981 24.7404 58.2262 25.2432 58.4823C25.758 58.7385 26.2609 59.0922 26.7518 59.5436L28.5118 57.476C28.2244 57.1833 27.9131 56.9149 27.5779 56.671C27.2427 56.427 26.8775 56.2197 26.4824 56.0489C26.0873 55.8781 25.6443 55.744 25.1534 55.6464C24.6745 55.5488 24.1417 55.5 23.5551 55.5C22.5853 55.5 21.6993 55.6769 20.8971 56.0306C20.095 56.3721 19.4065 56.8479 18.8318 57.4577C18.2571 58.0554 17.8082 58.7568 17.4849 59.5619C17.1616 60.3547 17 61.2085 17 62.1234V62.16C17 63.0748 17.1616 63.9347 17.4849 64.7398C17.8082 65.5448 18.2571 66.2462 18.8318 66.8439C19.4065 67.4294 20.089 67.8929 20.8792 68.2344C21.6694 68.576 22.5254 68.7468 23.4473 68.7468C24.0579 68.7468 24.6087 68.6919 25.0995 68.5821C25.5904 68.4845 26.0394 68.3381 26.4465 68.143C26.8655 67.9356 27.2486 67.6916 27.5959 67.4111C27.9431 67.1306 28.2783 66.8134 28.6016 66.4597Z"
        fill="#E51937" />
    <path
        d="M39.5078 63.8981V63.8616C39.5078 63.1663 39.412 62.5015 39.2204 61.8672C39.0408 61.2207 38.7535 60.6535 38.3584 60.1656C37.9753 59.6655 37.4904 59.2691 36.9037 58.9764C36.317 58.6836 35.6226 58.5372 34.8205 58.5372C34.1141 58.5372 33.4675 58.6714 32.8809 58.9398C32.3062 59.2081 31.8093 59.574 31.3903 60.0376C30.9712 60.5011 30.642 61.0439 30.4025 61.666C30.175 62.288 30.0613 62.9467 30.0613 63.642V63.6786C30.0613 64.4348 30.187 65.124 30.4384 65.7461C30.6899 66.356 31.0371 66.8866 31.4801 67.3379C31.935 67.7892 32.4678 68.1369 33.0784 68.3808C33.701 68.6248 34.3715 68.7468 35.0898 68.7468C35.9638 68.7468 36.7241 68.5882 37.3706 68.271C38.0172 67.9417 38.5679 67.4904 39.0229 66.9171L37.4604 65.5083C37.0773 65.862 36.7062 66.1181 36.347 66.2767C35.9878 66.4353 35.5807 66.5146 35.1258 66.5146C34.5151 66.5146 34.0003 66.356 33.5813 66.0389C33.1742 65.7095 32.9048 65.2277 32.7731 64.5934H39.4719C39.4838 64.4592 39.4898 64.3434 39.4898 64.2458C39.5018 64.1482 39.5078 64.0323 39.5078 63.8981ZM36.8498 62.8552H32.7372C32.845 62.221 33.0724 61.7148 33.4196 61.3366C33.7788 60.9585 34.2458 60.7694 34.8205 60.7694C35.3951 60.7694 35.8561 60.9646 36.2033 61.3549C36.5505 61.733 36.766 62.2332 36.8498 62.8552Z"
        fill="#E51937" />
    <path
        d="M50.3601 68.5272V62.1783C50.3601 61.0439 50.0728 60.1534 49.4981 59.507C48.9353 58.8605 48.1332 58.5372 47.0915 58.5372C46.7443 58.5372 46.433 58.5799 46.1577 58.6653C45.8823 58.7507 45.6309 58.8666 45.4034 59.013C45.1759 59.1593 44.9664 59.3301 44.7748 59.5253C44.5952 59.7082 44.4276 59.9034 44.272 60.1107V58.7202H41.5422V68.5272H44.272V63.0565C44.272 62.3978 44.4216 61.9038 44.721 61.5745C45.0322 61.2329 45.4513 61.0622 45.9781 61.0622C46.5049 61.0622 46.912 61.2329 47.1993 61.5745C47.4866 61.9038 47.6303 62.3978 47.6303 63.0565V68.5272H50.3601Z"
        fill="#E51937" />
    <path
        d="M58.1372 68.1247V65.8925C57.7182 66.1242 57.2692 66.2401 56.7903 66.2401C56.2036 66.2401 55.9103 65.923 55.9103 65.2887V61.0988H58.1731V58.7202H55.9103V56.2136H53.1805V58.7202H52.0311V61.0988H53.1805V65.7461C53.1805 66.3194 53.2464 66.7951 53.3781 67.1732C53.5217 67.5392 53.7133 67.838 53.9528 68.0698C54.2042 68.3015 54.4975 68.4601 54.8327 68.5455C55.18 68.6431 55.5631 68.6919 55.9821 68.6919C56.4371 68.6919 56.8382 68.637 57.1854 68.5272C57.5326 68.4296 57.8499 68.2954 58.1372 68.1247Z"
        fill="#E51937" />
    <path
        d="M69.1648 63.8981V63.8616C69.1648 63.1663 69.069 62.5015 68.8774 61.8672C68.6979 61.2207 68.4105 60.6535 68.0154 60.1656C67.6323 59.6655 67.1474 59.2691 66.5607 58.9764C65.9741 58.6836 65.2796 58.5372 64.4775 58.5372C63.7711 58.5372 63.1246 58.6714 62.5379 58.9398C61.9632 59.2081 61.4663 59.574 61.0473 60.0376C60.6282 60.5011 60.299 61.0439 60.0595 61.666C59.8321 62.288 59.7183 62.9467 59.7183 63.642V63.6786C59.7183 64.4348 59.844 65.124 60.0955 65.7461C60.3469 66.356 60.6941 66.8866 61.1371 67.3379C61.592 67.7892 62.1248 68.1369 62.7354 68.3808C63.358 68.6248 64.0285 68.7468 64.7469 68.7468C65.6209 68.7468 66.3811 68.5882 67.0277 68.271C67.6742 67.9417 68.2249 67.4904 68.6799 66.9171L67.1175 65.5083C66.7343 65.862 66.3632 66.1181 66.004 66.2767C65.6448 66.4353 65.2377 66.5146 64.7828 66.5146C64.1722 66.5146 63.6573 66.356 63.2383 66.0389C62.8312 65.7095 62.5618 65.2277 62.4301 64.5934H69.1289C69.1409 64.4592 69.1468 64.3434 69.1468 64.2458C69.1588 64.1482 69.1648 64.0323 69.1648 63.8981ZM66.5069 62.8552H62.3942C62.502 62.221 62.7295 61.7148 63.0767 61.3366C63.4358 60.9585 63.9028 60.7694 64.4775 60.7694C65.0522 60.7694 65.5131 60.9646 65.8603 61.3549C66.2075 61.733 66.423 62.2332 66.5069 62.8552Z"
        fill="#E51937" />
    <path
        d="M77 61.4464V58.5372C76.1859 58.5006 75.5393 58.6836 75.0604 59.0861C74.5815 59.4887 74.2044 60.0254 73.929 60.6962V58.7202H71.1992V68.5272H73.929V64.9045C73.929 63.7213 74.1864 62.8491 74.7012 62.288C75.228 61.727 75.9464 61.4464 76.8563 61.4464H77Z"
        fill="#E51937" />
</svg>