<svg width="24" height="24" viewBox="0 0 24 24" fill="none" xmlns="http://www.w3.org/2000/svg">
<g clip-path="url(#clip0_1021_166046)">
<path d="M18.3897 3.98179C18.4001 3.98255 18.4106 3.98331 18.4212 3.98331C18.4393 3.98331 18.4573 3.98179 18.475 3.97932C18.9475 3.989 19.3257 4.37442 19.3263 4.84699C19.3263 5.06172 19.5004 5.23583 19.7151 5.23583C19.9299 5.23583 20.104 5.06172 20.104 4.84699C20.103 4.07406 19.565 3.40537 18.8101 3.23905V2.8654C18.8101 2.65067 18.636 2.47656 18.4212 2.47656C18.2065 2.47656 18.0324 2.65067 18.0324 2.8654V3.25671C17.2342 3.47011 16.7178 4.24228 16.8254 5.06153C16.9331 5.88079 17.6314 6.49328 18.4577 6.49328C18.9375 6.49328 19.3263 6.88231 19.3263 7.36209C19.3263 7.84168 18.9375 8.23071 18.4577 8.23071C17.9779 8.23071 17.5891 7.84168 17.5891 7.36209C17.5891 7.14736 17.415 6.97325 17.2002 6.97325C16.9855 6.97325 16.8114 7.14736 16.8114 7.36209C16.8123 8.10711 17.3128 8.7589 18.0324 8.95237V9.37842C18.0324 9.59316 18.2065 9.76726 18.4212 9.76726C18.636 9.76726 18.8101 9.59316 18.8101 9.37842V8.97022C19.6312 8.79042 20.185 8.02072 20.0945 7.18495C20.0041 6.34918 19.2984 5.7158 18.4577 5.71599C17.9912 5.71618 17.6079 5.34784 17.5894 4.88173C17.5712 4.41562 17.9245 4.01824 18.3897 3.98198V3.98179Z" fill="white"/>
<mask id="path-2-inside-1_1021_166046" fill="white">
<path d="M18.4798 0.570312C16.0878 0.570312 14.0464 2.13117 13.2816 4.22117H3.63073C3.41694 4.22117 3.24341 4.41388 3.24189 4.62747L3.15 18.2679H0.39909C0.184356 18.2679 0 18.4234 0 18.6385V20.3695C0.00493638 21.9991 1.2884 23.3378 2.91628 23.4115V23.42H14.9216V23.4086C15.0188 23.4122 15.0589 23.42 15.1204 23.42H15.1288C16.8136 23.4173 18.1781 22.0507 18.1781 20.3659V11.614C18.2753 11.6193 18.3783 11.6222 18.4789 11.6222C21.5229 11.6222 24.0001 9.1403 24.0001 6.09605C24.0001 3.052 21.5241 0.570312 18.4798 0.570312ZM3.06418 22.6423H3.06171C1.80388 22.6406 0.78337 21.6235 0.777674 20.3655V19.0456H12.054V20.36C12.0545 21.1715 12.3786 21.9493 12.9543 22.5214C12.9951 22.5622 13.0458 22.5937 13.0885 22.6423H3.06418ZM17.4005 20.3655C17.4007 21.6213 16.3839 22.6399 15.1284 22.6423H15.121C13.8603 22.64 12.8379 21.6209 12.8316 20.3604V18.6385C12.8349 18.539 12.7969 18.4428 12.7264 18.3725C12.656 18.3023 12.5597 18.2645 12.4604 18.2679H3.92767L4.01691 4.99884H13.0657C12.9968 5.35483 12.9611 5.71633 12.9592 6.07878C12.9585 6.84525 13.1183 7.60318 13.4286 8.30396H9.75586C9.54094 8.30396 9.36703 8.47806 9.36703 8.69279C9.36703 8.90753 9.54094 9.08163 9.75586 9.08163H13.8504C14.6526 10.3431 15.9349 11.2225 17.4005 11.5168V20.3655ZM18.4798 10.8447C15.8605 10.8447 13.7369 8.72127 13.7371 6.10175C13.7371 3.48222 15.8605 1.35881 18.48 1.35881C21.0994 1.35881 23.2228 3.48241 23.2228 6.10175C23.2199 8.71994 21.0982 10.8418 18.4798 10.8447Z"/>
</mask>
<path d="M18.4798 0.570312C16.0878 0.570312 14.0464 2.13117 13.2816 4.22117H3.63073C3.41694 4.22117 3.24341 4.41388 3.24189 4.62747L3.15 18.2679H0.39909C0.184356 18.2679 0 18.4234 0 18.6385V20.3695C0.00493638 21.9991 1.2884 23.3378 2.91628 23.4115V23.42H14.9216V23.4086C15.0188 23.4122 15.0589 23.42 15.1204 23.42H15.1288C16.8136 23.4173 18.1781 22.0507 18.1781 20.3659V11.614C18.2753 11.6193 18.3783 11.6222 18.4789 11.6222C21.5229 11.6222 24.0001 9.1403 24.0001 6.09605C24.0001 3.052 21.5241 0.570312 18.4798 0.570312ZM3.06418 22.6423H3.06171C1.80388 22.6406 0.78337 21.6235 0.777674 20.3655V19.0456H12.054V20.36C12.0545 21.1715 12.3786 21.9493 12.9543 22.5214C12.9951 22.5622 13.0458 22.5937 13.0885 22.6423H3.06418ZM17.4005 20.3655C17.4007 21.6213 16.3839 22.6399 15.1284 22.6423H15.121C13.8603 22.64 12.8379 21.6209 12.8316 20.3604V18.6385C12.8349 18.539 12.7969 18.4428 12.7264 18.3725C12.656 18.3023 12.5597 18.2645 12.4604 18.2679H3.92767L4.01691 4.99884H13.0657C12.9968 5.35483 12.9611 5.71633 12.9592 6.07878C12.9585 6.84525 13.1183 7.60318 13.4286 8.30396H9.75586C9.54094 8.30396 9.36703 8.47806 9.36703 8.69279C9.36703 8.90753 9.54094 9.08163 9.75586 9.08163H13.8504C14.6526 10.3431 15.9349 11.2225 17.4005 11.5168V20.3655ZM18.4798 10.8447C15.8605 10.8447 13.7369 8.72127 13.7371 6.10175C13.7371 3.48222 15.8605 1.35881 18.48 1.35881C21.0994 1.35881 23.2228 3.48241 23.2228 6.10175C23.2199 8.71994 21.0982 10.8418 18.4798 10.8447Z" fill="white"/>
<path d="M13.2816 4.22117V5.55239H14.212L14.5318 4.67862L13.2816 4.22117ZM3.24189 4.62747L1.9107 4.61801L1.91069 4.6185L3.24189 4.62747ZM3.15 18.2679V19.5991H4.47229L4.4812 18.2769L3.15 18.2679ZM0 20.3695H-1.33123L-1.33122 20.3735L0 20.3695ZM2.91628 23.4115H4.24751V22.1391L2.97646 22.0816L2.91628 23.4115ZM2.91628 23.42H1.58505V24.7512H2.91628V23.42ZM14.9216 23.42V24.7512H16.2529V23.42H14.9216ZM14.9216 23.4086L14.971 22.0783L13.5904 22.0271V23.4086H14.9216ZM15.1288 23.42V24.7512L15.1309 24.7512L15.1288 23.42ZM18.1781 11.614L18.2508 10.2848L16.8469 10.208V11.614H18.1781ZM3.06171 22.6423L3.0599 23.9736H3.06171V22.6423ZM0.777674 20.3655H-0.553567L-0.553539 20.3715L0.777674 20.3655ZM0.777674 19.0456V17.7144H-0.553553V19.0456H0.777674ZM12.054 19.0456H13.3852V17.7144H12.054V19.0456ZM12.054 20.36H10.7227L10.7227 20.3609L12.054 20.36ZM12.9543 22.5214L13.8956 21.5801L13.8926 21.5771L12.9543 22.5214ZM13.0885 22.6423V23.9736H16.0309L14.0884 21.7635L13.0885 22.6423ZM17.4005 20.3655H16.0692V20.3657L17.4005 20.3655ZM15.1284 22.6423V23.9736L15.131 23.9736L15.1284 22.6423ZM15.121 22.6423L15.1186 23.9736H15.121V22.6423ZM12.8316 20.3604H11.5004L11.5004 20.367L12.8316 20.3604ZM12.8316 18.6385L11.5011 18.5954L11.5004 18.6169V18.6385H12.8316ZM12.7264 18.3725L13.6665 17.4299L12.7264 18.3725ZM12.4604 18.2679V19.5991H12.4833L12.5062 19.5983L12.4604 18.2679ZM3.92767 18.2679L2.59648 18.259L2.58746 19.5991H3.92767V18.2679ZM4.01691 4.99884V3.66761H2.6946L2.68571 4.98989L4.01691 4.99884ZM13.0657 4.99884L14.3727 5.25187L14.6794 3.66761H13.0657V4.99884ZM12.9592 6.07878L11.628 6.0718L11.628 6.07746L12.9592 6.07878ZM13.4286 8.30396V9.63518H15.4737L14.6458 7.76507L13.4286 8.30396ZM13.8504 9.08163L14.9738 8.36729L14.5815 7.7504H13.8504V9.08163ZM17.4005 11.5168H18.7317V10.4263L17.6625 10.2116L17.4005 11.5168ZM18.4798 10.8447V12.1759L18.4813 12.1759L18.4798 10.8447ZM13.7371 6.10175L15.0683 6.10185V6.10175H13.7371ZM23.2228 6.10175L24.554 6.1032V6.10175H23.2228ZM18.4798 -0.760915C15.4991 -0.760915 12.9777 1.17757 12.0314 3.76371L14.5318 4.67862C15.115 3.08477 16.6765 1.90154 18.4798 1.90154V-0.760915ZM13.2816 2.88994H3.63073V5.55239H13.2816V2.88994ZM3.63073 2.88994C2.5992 2.88994 1.91678 3.76222 1.9107 4.61801L4.57309 4.63694C4.57132 4.88496 4.47268 5.10048 4.32725 5.25539C4.1787 5.41362 3.93678 5.55239 3.63073 5.55239V2.88994ZM1.91069 4.6185L1.8188 18.2589L4.4812 18.2769L4.57309 4.63644L1.91069 4.6185ZM3.15 16.9367H0.39909V19.5991H3.15V16.9367ZM0.39909 16.9367C-0.41797 16.9367 -1.33123 17.562 -1.33123 18.6385H1.33123C1.33123 19.2848 0.786681 19.5991 0.39909 19.5991V16.9367ZM-1.33123 18.6385V20.3695H1.33123V18.6385H-1.33123ZM-1.33122 20.3735C-1.32413 22.7134 0.518723 24.6356 2.8561 24.7413L2.97646 22.0816C2.05808 22.04 1.33401 21.2848 1.33122 20.3655L-1.33122 20.3735ZM1.58505 23.4115V23.42H4.24751V23.4115H1.58505ZM2.91628 24.7512H14.9216V22.0888H2.91628V24.7512ZM16.2529 23.42V23.4086H13.5904V23.42H16.2529ZM14.8723 24.7389C14.8896 24.7396 14.8988 24.7403 14.9279 24.7426C14.9583 24.7451 15.031 24.7512 15.1204 24.7512V22.0888C15.1483 22.0888 15.1702 22.091 15.1409 22.0887C15.1103 22.0862 15.0509 22.0813 14.971 22.0783L14.8723 24.7389ZM15.1204 24.7512H15.1288V22.0888H15.1204V24.7512ZM15.1309 24.7512C17.5501 24.7474 19.5094 22.7852 19.5094 20.3659H16.8469C16.8469 21.3163 16.0771 22.0873 15.1267 22.0888L15.1309 24.7512ZM19.5094 20.3659V11.614H16.8469V20.3659H19.5094ZM18.1054 12.9433C18.2269 12.9499 18.3541 12.9534 18.4789 12.9534V10.2909C18.4024 10.2909 18.3238 10.2888 18.2508 10.2848L18.1054 12.9433ZM18.4789 12.9534C22.2597 12.9534 25.3313 9.874 25.3313 6.09605H22.6688C22.6688 8.4066 20.7862 10.2909 18.4789 10.2909V12.9534ZM25.3313 6.09605C25.3313 2.31854 22.261 -0.760915 18.4798 -0.760915V1.90154C20.7871 1.90154 22.6688 3.78546 22.6688 6.09605H25.3313ZM3.06418 21.3111H3.06171V23.9736H3.06418V21.3111ZM3.06352 21.3111C2.53778 21.3104 2.11127 20.8853 2.10889 20.3595L-0.553539 20.3715C-0.544528 22.3618 1.06998 23.9708 3.0599 23.9736L3.06352 21.3111ZM2.1089 20.3655V19.0456H-0.553553V20.3655H2.1089ZM0.777674 20.3768H12.054V17.7144H0.777674V20.3768ZM10.7227 19.0456V20.36H13.3852V19.0456H10.7227ZM10.7227 20.3609C10.7235 21.5268 11.1891 22.6441 12.0159 23.4657L13.8926 21.5771C13.5681 21.2546 13.3855 20.8162 13.3852 20.3591L10.7227 20.3609ZM12.013 23.4627C12.0589 23.5087 12.1 23.5444 12.126 23.5664C12.1392 23.5776 12.1509 23.5872 12.1584 23.5934C12.1621 23.5964 12.166 23.5996 12.1682 23.6015C12.1709 23.6037 12.1726 23.605 12.1739 23.6061C12.18 23.6111 12.1707 23.6037 12.1567 23.5909C12.1414 23.5769 12.1169 23.5534 12.0886 23.5212L14.0884 21.7635C13.9924 21.6543 13.8992 21.5779 13.8675 21.5518C13.8616 21.5469 13.8486 21.5362 13.8484 21.5361C13.8446 21.5329 13.8449 21.5332 13.847 21.5349C13.8506 21.538 13.8701 21.5545 13.8956 21.5801L12.013 23.4627ZM13.0885 21.3111H3.06418V23.9736H13.0885V21.3111ZM16.0692 20.3657C16.0693 20.8871 15.6472 21.3101 15.1258 21.3111L15.131 23.9736C17.1207 23.9696 18.732 22.3554 18.7317 20.3653L16.0692 20.3657ZM15.1284 21.3111H15.121V23.9736H15.1284V21.3111ZM15.1234 21.3111C14.5943 21.3101 14.1655 20.8825 14.1628 20.3538L11.5004 20.367C11.5103 22.3592 13.1263 23.97 15.1186 23.9736L15.1234 21.3111ZM14.1629 20.3604V18.6385H11.5004V20.3604H14.1629ZM14.1622 18.6817C14.1773 18.2153 13.9991 17.7616 13.6665 17.4299L11.7864 19.3151C11.5947 19.1239 11.4924 18.8628 11.5011 18.5954L14.1622 18.6817ZM13.6665 17.4299C13.3348 17.0992 12.8815 16.9214 12.4147 16.9375L12.5062 19.5983C12.238 19.6076 11.9772 19.5054 11.7864 19.3151L13.6665 17.4299ZM12.4604 16.9367H3.92767V19.5991H12.4604V16.9367ZM5.25887 18.2769L5.3481 5.00779L2.68571 4.98989L2.59648 18.259L5.25887 18.2769ZM4.01691 6.33007H13.0657V3.66761H4.01691V6.33007ZM11.7588 4.74581C11.6742 5.18271 11.6303 5.62658 11.628 6.0718L14.2904 6.08575C14.2919 5.80608 14.3194 5.52695 14.3727 5.25187L11.7588 4.74581ZM11.628 6.07746C11.627 7.02996 11.8257 7.97192 12.2113 8.84284L14.6458 7.76507C14.4109 7.23444 14.2899 6.66054 14.2904 6.08009L11.628 6.07746ZM13.4286 6.97273H9.75586V9.63518H13.4286V6.97273ZM9.75586 6.97273C8.8053 6.97273 8.0358 7.74327 8.0358 8.69279H10.6983C10.6983 9.21285 10.2766 9.63518 9.75586 9.63518V6.97273ZM8.0358 8.69279C8.0358 9.64232 8.8053 10.4129 9.75586 10.4129V7.7504C10.2766 7.7504 10.6983 8.17273 10.6983 8.69279H8.0358ZM9.75586 10.4129H13.8504V7.7504H9.75586V10.4129ZM12.7271 9.79597C13.7239 11.3636 15.3174 12.4563 17.1384 12.822L17.6625 10.2116C16.5525 9.98872 15.5812 9.32258 14.9738 8.36729L12.7271 9.79597ZM16.0692 11.5168V20.3655H18.7317V11.5168H16.0692ZM18.4798 9.51346C16.5957 9.51346 15.0682 7.98602 15.0683 6.10185L12.4059 6.10165C12.4056 9.45652 15.1253 12.1759 18.4798 12.1759V9.51346ZM15.0683 6.10175C15.0683 4.21744 16.5957 2.69004 18.48 2.69004V0.0275818C15.1253 0.0275818 12.4059 2.74701 12.4059 6.10175H15.0683ZM18.48 2.69004C20.3641 2.69004 21.8915 4.21756 21.8915 6.10175H24.554C24.554 2.74727 21.8346 0.0275818 18.48 0.0275818V2.69004ZM21.8915 6.1003C21.8895 7.98445 20.3626 9.51141 18.4784 9.51346L18.4813 12.1759C21.8338 12.1723 24.5503 9.45544 24.554 6.1032L21.8915 6.1003Z" fill="white" mask="url(#path-2-inside-1_1021_166046)"/>
<path d="M7.25993 10.8906C6.57357 10.8906 6.01538 11.4312 6.01538 12.0957C6.01538 12.7602 6.57357 13.3007 7.25993 13.3007C7.94628 13.3007 8.50466 12.7602 8.50466 12.0957C8.50466 11.4312 7.94628 10.8906 7.25993 10.8906ZM7.25993 12.5231C7.00228 12.5231 6.79306 12.3313 6.79306 12.0957C6.79306 11.8599 7.00247 11.6683 7.25993 11.6683C7.51738 11.6683 7.72699 11.8601 7.72699 12.0957C7.72699 12.3313 7.51738 12.5231 7.25993 12.5231Z" fill="white"/>
<path d="M9.36694 12.0998C9.36694 12.3145 9.54086 12.4886 9.75578 12.4886H14.9398C15.1545 12.4886 15.3286 12.3145 15.3286 12.0998C15.3286 11.885 15.1545 11.7109 14.9398 11.7109H9.75578C9.54086 11.7109 9.36694 11.885 9.36694 12.0998Z" fill="white"/>
<path d="M7.25993 7.51562C6.57357 7.51562 6.01538 8.05635 6.01538 8.72087C6.01538 9.38539 6.57357 9.92592 7.25993 9.92592C7.94628 9.92592 8.50466 9.38539 8.50466 8.72087C8.50466 8.05635 7.94628 7.51562 7.25993 7.51562ZM7.25993 9.14825C7.00228 9.14825 6.79306 8.95649 6.79306 8.72087C6.79306 8.48525 7.00247 8.2933 7.25993 8.2933C7.51738 8.2933 7.72699 8.48506 7.72699 8.72087C7.72699 8.95649 7.51738 9.14844 7.25993 9.14844V9.14825Z" fill="white"/>
<path d="M7.25993 14.2734C6.57357 14.2734 6.01538 14.814 6.01538 15.4785C6.01538 16.143 6.57357 16.6835 7.25993 16.6835C7.94628 16.6835 8.50466 16.143 8.50466 15.4785C8.50466 14.814 7.94628 14.2734 7.25993 14.2734ZM7.25993 15.9059C7.00228 15.9059 6.79306 15.7143 6.79306 15.4785C6.79306 15.2429 7.00247 15.0511 7.25993 15.0511C7.51738 15.0511 7.72699 15.2429 7.72699 15.4785C7.72699 15.7141 7.51738 15.9059 7.25993 15.9059Z" fill="white"/>
<path d="M14.9398 15.1094H9.75578C9.54086 15.1094 9.36694 15.2835 9.36694 15.4982C9.36694 15.7129 9.54086 15.887 9.75578 15.887H14.9398C15.1545 15.887 15.3286 15.7129 15.3286 15.4982C15.3286 15.2835 15.1545 15.1094 14.9398 15.1094Z" fill="white"/>
</g>
<defs>
<clipPath id="clip0_1021_166046">
<rect width="24" height="24" fill="white"/>
</clipPath>
</defs>
</svg>
