<svg width="24" height="24" viewBox="0 0 24 24" fill="none" xmlns="http://www.w3.org/2000/svg">
<path d="M12 24C8.8174 24 5.76516 22.7357 3.51472 20.4853C1.26428 18.2348 1.54168e-06 15.1826 2.09815e-06 12C2.65461e-06 8.8174 1.26429 5.76515 3.51472 3.51472C5.76516 1.26428 8.81741 1.54168e-06 12 2.09815e-06C15.1826 2.65461e-06 18.2349 1.26428 20.4853 3.51472C22.7357 5.76516 24 8.81741 24 12C24 15.1826 22.7357 18.2348 20.4853 20.4853C18.2348 22.7357 15.1826 24 12 24ZM17.25 12.75C17.4489 12.75 17.6397 12.671 17.7803 12.5303C17.921 12.3897 18 12.1989 18 12C18 11.8011 17.921 11.6103 17.7803 11.4697C17.6397 11.329 17.4489 11.25 17.25 11.25L8.5605 11.25L11.781 8.031C11.8507 7.96127 11.906 7.87849 11.9438 7.78738C11.9815 7.69627 12.0009 7.59862 12.0009 7.5C12.0009 7.40139 11.9815 7.30373 11.9438 7.21263C11.906 7.12152 11.8507 7.03873 11.781 6.969C11.7113 6.89927 11.6285 6.84396 11.5374 6.80622C11.4463 6.76848 11.3486 6.74906 11.25 6.74906C11.1514 6.74906 11.0537 6.76848 10.9626 6.80622C10.8715 6.84396 10.7887 6.89927 10.719 6.969L6.219 11.469C6.14916 11.5387 6.09374 11.6214 6.05593 11.7126C6.01812 11.8037 5.99866 11.9014 5.99866 12C5.99866 12.0987 6.01812 12.1963 6.05593 12.2875C6.09374 12.3786 6.14916 12.4613 6.219 12.531L10.719 17.031C10.8598 17.1718 11.0508 17.2509 11.25 17.2509C11.4492 17.2509 11.6402 17.1718 11.781 17.031C11.9218 16.8902 12.0009 16.6992 12.0009 16.5C12.0009 16.3008 11.9218 16.1098 11.781 15.969L8.5605 12.75L17.25 12.75Z" fill="#E51937"/>
</svg>
