<svg width="23" height="22" viewBox="0 0 23 22" fill="none" xmlns="http://www.w3.org/2000/svg">
<path d="M19.8523 0.000808755C19.8179 0.00191665 19.7839 0.00774548 19.7512 0.0186859L17.639 0.694976C17.4449 0.757988 17.3392 0.965001 17.4028 1.15729L17.5162 1.50579L5.19788 5.44976C5.00323 5.51222 4.89675 5.71937 4.96022 5.91207L5.07363 6.2599L2.2579 7.16162L2.14449 6.81379C2.14127 6.80133 2.1374 6.78972 2.13293 6.77808C2.05675 6.60547 1.8609 6.51818 1.68001 6.57624L0.271417 7.02714C0.0754374 7.08904 -0.0319864 7.2973 0.0323179 7.49085L1.39685 11.6731C1.45926 11.8673 1.66956 11.9737 1.86493 11.91L3.2728 11.4584C3.46687 11.3954 3.57261 11.1884 3.50901 10.9961L3.3956 10.649L6.21134 9.7473L6.32547 10.0966C6.38851 10.2894 6.59761 10.3949 6.79211 10.332L10.1597 9.25278C10.4788 9.89477 11.0779 10.3756 11.7988 10.5367L7.54625 21.4897C7.35087 21.9541 8.06921 22.2266 8.23682 21.7516L10.2796 16.4909H11.9606V21.6192C11.9493 22.1188 12.7114 22.1188 12.7002 21.6192V16.4909C13.2521 16.4911 13.8145 16.4923 14.3624 16.4867L16.4218 21.7511C16.5924 22.224 17.3076 21.9497 17.1124 21.4863L12.8317 10.5432C13.9247 10.3129 14.751 9.34943 14.751 8.20023C14.751 8.06133 14.7359 7.92561 14.7127 7.79303L19.109 6.38673L19.2224 6.73383C19.2842 6.92706 19.4927 7.03386 19.6876 6.97215L21.799 6.29515C21.9946 6.23324 22.102 6.02545 22.0381 5.83211L20.2185 0.255062C20.168 0.0983088 20.0182 -0.00590333 19.8523 0.000259337L19.8523 0.000808755ZM19.6284 0.828823L21.2211 5.71099L19.8133 6.16185L18.2198 1.27968L19.6284 0.828823ZM17.743 2.20359L18.8814 5.69024L14.4772 7.10008C14.0728 6.33072 13.261 5.80118 12.329 5.80118C10.9967 5.80118 9.91051 6.88084 9.91051 8.20074C9.91051 8.32025 9.9222 8.43653 9.9394 8.55143L6.9149 9.52039C6.53678 8.35806 6.15795 7.19593 5.77936 6.03375L17.743 2.20359ZM12.329 6.53473C13.2615 6.53473 14.0106 7.27689 14.0106 8.20074C14.0106 9.12458 13.2615 9.86391 12.329 9.86391C11.3965 9.86391 10.6502 9.12458 10.6502 8.20074C10.6502 7.27689 11.3965 6.53473 12.329 6.53473ZM5.30117 6.95694L5.9838 9.0495L3.16806 9.95122L2.48543 7.85938L5.30117 6.95694ZM12.329 7.08364C11.7116 7.08364 11.2043 7.58915 11.2043 8.20078C11.2043 8.81239 11.7116 9.31508 12.329 9.31508C12.9463 9.31508 13.4537 8.81239 13.4537 8.20078C13.4537 7.58915 12.9463 7.08364 12.329 7.08364ZM1.55432 7.38709C1.9693 8.65875 2.31908 9.73091 2.69203 10.8745L1.98773 11.0998L0.850022 7.61248L1.55432 7.38709ZM12.329 7.81648C12.5465 7.81648 12.714 7.98521 12.714 8.20078C12.714 8.41635 12.5465 8.58224 12.329 8.58224C12.1114 8.58224 11.9439 8.41635 11.9439 8.20078C11.9439 7.98521 12.1114 7.81648 12.329 7.81648ZM11.9606 12.1612V15.7581H10.5642L11.9606 12.1612ZM12.7002 12.2385L14.0771 15.7581H12.7002V12.2385Z" fill="white"/>
</svg>
