<svg width="23" height="23" viewBox="0 0 23 23" fill="none" xmlns="http://www.w3.org/2000/svg">
<path d="M18.5511 6.6987C19.2188 5.79904 19.152 4.53285 18.3508 3.73315C17.5495 2.93345 16.2809 2.86681 15.3794 3.4999L13.8437 1.96715C13.7102 1.83387 13.5098 1.83387 13.3763 1.96715L11.3732 3.9664C11.3398 3.99972 11.3064 4.09968 11.273 4.133L10.5719 7.26515L0.890047 16.9282C-0.278453 18.0944 -0.278453 19.9604 0.890047 21.1266C2.05855 22.2928 3.92815 22.2928 5.09665 21.1266L14.7785 11.4636L17.9168 10.7638C17.9501 10.7638 18.0503 10.6972 18.0837 10.6639L20.0868 8.66462C20.2204 8.53134 20.2204 8.33142 20.0868 8.19813L18.5511 6.6987ZM17.8834 4.19964C18.4175 4.76609 18.5177 5.59911 18.0837 6.23221L15.8468 3.99972C16.4812 3.56655 17.3158 3.63319 17.8834 4.19964ZM4.59586 20.6268C3.69445 21.5264 2.25886 21.5264 1.35745 20.6268C0.456033 19.7271 0.456033 18.2943 1.35745 17.3947L10.8724 7.89825L14.1108 11.1304L4.59586 20.6268ZM14.7117 10.7638L11.2396 7.33179L11.8072 4.86606C13.7435 6.79866 15.2125 8.26477 17.1489 10.1974L14.7117 10.7638ZM17.8166 9.93081C15.7467 7.86492 14.1442 6.26553 12.0743 4.19964L13.61 2.66689L15.1124 4.16632L19.3523 8.39806L17.8166 9.93081Z" fill="white"/>
<path d="M8.7349 13.262C8.2675 12.7955 7.49963 12.7955 7.03223 13.262L5.59664 14.6948C5.12924 15.1613 5.12924 15.9276 5.59664 16.3941C6.06404 16.8606 6.83191 16.8606 7.29931 16.3941L8.7349 14.9613C9.23569 14.4948 9.23569 13.7285 8.7349 13.262ZM8.2675 14.4948L6.83191 15.9276C6.6316 16.1276 6.29774 16.1276 6.06404 15.9276C5.86373 15.7277 5.86373 15.3945 6.06404 15.1613L7.49963 13.7285C7.69994 13.5285 8.0338 13.5285 8.2675 13.7285C8.5012 13.9284 8.5012 14.2949 8.2675 14.4948Z" fill="white"/>
<path d="M19.5519 2.96623L20.4867 2.03325C20.6203 1.89997 20.6203 1.70004 20.4867 1.56676C20.3532 1.43348 20.1529 1.43348 20.0193 1.56676L19.0845 2.49974C18.951 2.63302 18.951 2.83295 19.0845 2.96623C19.2181 3.09951 19.4184 3.09951 19.5519 2.96623Z" fill="white"/>
<path d="M16.7147 1.99925C16.915 1.99925 17.0486 1.86596 17.0486 1.66604V0.333208C17.0486 0.133283 16.915 0 16.7147 0C16.5144 0 16.3809 0.133283 16.3809 0.333208V1.66604C16.3809 1.86596 16.5478 1.99925 16.7147 1.99925Z" fill="white"/>
<path d="M21.722 4.99805H20.3866C20.1863 4.99805 20.0527 5.13133 20.0527 5.33125C20.0527 5.53118 20.1863 5.66446 20.3866 5.66446H21.722C21.9223 5.66446 22.0559 5.53118 22.0559 5.33125C22.0559 5.13133 21.9223 4.99805 21.722 4.99805Z" fill="white"/>
</svg>
