<svg width="730" height="143" viewBox="0 0 730 143" fill="none" xmlns="http://www.w3.org/2000/svg">
<rect width="730" height="143" rx="4" fill="#F8F8F8"/>
<g clip-path="url(#clip0_829_100868)">
<path d="M518.107 0H474.365C411.767 39.028 332.615 45.1672 256.971 50.8679C352.567 52.8412 449.26 50.8679 518.107 0Z" fill="#0D7BEA"/>
<path d="M158.963 58.8708C288.325 62.2693 439.723 100.091 536.087 49.662C561.411 37.2739 582.46 20.2814 600.001 0H541.24C447.945 82.6603 288.873 51.6353 158.963 58.8708Z" fill="#0D7BEA"/>
<path d="M45.7153 87.0455C130.897 29.7095 273.415 54.8145 398.392 25.1051C420.756 19.4043 441.805 11.1822 460.99 0H454.522C430.623 12.3881 404.312 20.8295 376.028 25.8725C253.791 45.4961 119.386 23.7895 36.6161 77.2885C23.1317 84.7433 10.9629 94.281 0 105.463V125.964C13.0459 110.068 28.1747 96.8025 45.7153 87.0455Z" fill="#0D7BEA" fill-opacity="0.25"/>
<path d="M341.823 26.9688C382.606 23.7895 420.318 15.8962 453.426 0H405.299C275.717 23.6799 116.097 -19.8429 0 13.8133V73.3419C84.9625 18.7466 210.597 24.0088 341.823 26.9688Z" fill="#0D7BEA" fill-opacity="0.75"/>
<path d="M405.299 0H0V13.8133C116.097 -19.8429 275.717 23.6799 405.299 0Z" fill="#0D7BEA"/>
<path d="M405.299 0H0V13.8133C116.097 -19.8429 275.717 23.6799 405.299 0Z" fill="#0D7BEA"/>
<path d="M341.823 26.9688C210.597 24.0088 84.9625 18.7466 0 73.3419V105.463C10.9629 94.281 23.1317 84.7433 36.6161 77.2885C119.386 23.7895 253.682 45.4961 376.028 25.8725C404.422 20.8295 430.623 12.3881 454.522 0H453.426C420.318 15.8962 382.605 23.7895 341.823 26.9688Z" fill="#0D7BEA" fill-opacity="0.5"/>
</g>
<defs>
<clipPath id="clip0_829_100868">
<rect width="600" height="125.964" rx="4" fill="white"/>
</clipPath>
</defs>
</svg>
