<svg width="315" height="143" viewBox="0 0 315 143" fill="none" xmlns="http://www.w3.org/2000/svg">
<rect width="315" height="143" rx="4" fill="#F8F8F8"/>
<g clip-path="url(#clip0_829_100868)">
<path d="M254.736 0H233.229C202.452 39.028 163.535 45.1672 126.344 50.8679C173.345 52.8412 220.886 50.8679 254.736 0Z" fill="#0D7BEA"/>
<path d="M78.1562 58.8708C141.759 62.2693 216.197 100.091 263.576 49.662C276.027 37.2739 286.376 20.2814 295 0H266.109C220.239 82.6603 142.029 51.6353 78.1562 58.8708Z" fill="#0D7BEA"/>
<path d="M22.4767 87.0455C64.3577 29.7095 134.429 54.8145 195.876 25.1051C206.872 19.4043 217.221 11.1822 226.654 0H223.473C211.723 12.3881 198.787 20.8295 184.88 25.8725C124.781 45.4961 58.6981 23.7895 18.0029 77.2885C11.3731 84.7433 5.3901 94.281 0 105.463V125.964C6.41421 110.068 13.8525 96.8025 22.4767 87.0455Z" fill="#0D7BEA" fill-opacity="0.25"/>
<path d="M168.063 26.9688C188.114 23.7895 206.656 15.8962 222.934 0H199.272C135.561 23.6799 57.0811 -19.8429 0 13.8133V73.3419C41.7732 18.7466 103.544 24.0088 168.063 26.9688Z" fill="#0D7BEA" fill-opacity="0.75"/>
<path d="M199.272 0H0V13.8133C57.0811 -19.8429 135.561 23.6799 199.272 0Z" fill="#0D7BEA"/>
<path d="M199.272 0H0V13.8133C57.0811 -19.8429 135.561 23.6799 199.272 0Z" fill="#0D7BEA"/>
<path d="M168.063 26.9688C103.544 24.0088 41.7732 18.7466 0 73.3419V105.463C5.3901 94.281 11.3731 84.7433 18.0029 77.2885C58.6982 23.7895 124.727 45.4961 184.88 25.8725C198.841 20.8295 211.723 12.3881 223.473 0H222.934C206.656 15.8962 188.114 23.7895 168.063 26.9688Z" fill="#0D7BEA" fill-opacity="0.5"/>
</g>
<defs>
<clipPath id="clip0_829_100868">
<rect width="295" height="125.964" rx="4" fill="white"/>
</clipPath>
</defs>
</svg>
