<svg width="24" height="24" viewBox="0 0 24 24" fill="none" xmlns="http://www.w3.org/2000/svg">
<path d="M6.84 16.5579C7.06 16.7702 7.34 16.8763 7.68 16.8763C8.02 16.8763 8.3 16.7702 8.52 16.5579L12 13.2L15.51 16.5868C15.73 16.7991 16.0052 16.9002 16.3356 16.8902C16.6652 16.8809 16.94 16.7702 17.16 16.5579C17.38 16.3456 17.49 16.0754 17.49 15.7474C17.49 15.4193 17.38 15.1491 17.16 14.9368L13.68 11.5789L17.19 8.19211C17.41 7.97982 17.5148 7.71428 17.5044 7.39547C17.4948 7.07744 17.38 6.81228 17.16 6.6C16.94 6.38772 16.66 6.28158 16.32 6.28158C15.98 6.28158 15.7 6.38772 15.48 6.6L12 9.9579L8.49 6.57105C8.27 6.35877 7.9952 6.25726 7.6656 6.26653C7.3352 6.27656 7.06 6.38772 6.84 6.6C6.62 6.81228 6.51 7.08246 6.51 7.41053C6.51 7.7386 6.62 8.00877 6.84 8.22105L10.32 11.5789L6.81 14.9658C6.59 15.1781 6.4852 15.4432 6.4956 15.7613C6.5052 16.0801 6.62 16.3456 6.84 16.5579ZM12 23.1579C10.34 23.1579 8.78 22.8538 7.32 22.2455C5.86 21.638 4.59 20.8132 3.51 19.7711C2.43 18.7289 1.5752 17.5035 0.9456 16.0947C0.3152 14.686 0 13.1807 0 11.5789C0 9.97719 0.3152 8.47193 0.9456 7.06316C1.5752 5.65439 2.43 4.42895 3.51 3.38684C4.59 2.34474 5.86 1.51954 7.32 0.911263C8.78 0.303754 10.34 0 12 0C13.66 0 15.22 0.303754 16.68 0.911263C18.14 1.51954 19.41 2.34474 20.49 3.38684C21.57 4.42895 22.4248 5.65439 23.0544 7.06316C23.6848 8.47193 24 9.97719 24 11.5789C24 13.1807 23.6848 14.686 23.0544 16.0947C22.4248 17.5035 21.57 18.7289 20.49 19.7711C19.41 20.8132 18.14 21.638 16.68 22.2455C15.22 22.8538 13.66 23.1579 12 23.1579ZM12 20.8421C14.66 20.8421 16.9252 19.9401 18.7956 18.1361C20.6652 16.3313 21.6 14.1456 21.6 11.5789C21.6 9.01228 20.6652 6.82656 18.7956 5.02179C16.9252 3.21779 14.66 2.31579 12 2.31579C9.34 2.31579 7.0752 3.21779 5.2056 5.02179C3.3352 6.82656 2.4 9.01228 2.4 11.5789C2.4 14.1456 3.3352 16.3313 5.2056 18.1361C7.0752 19.9401 9.34 20.8421 12 20.8421Z" fill="white"/>
</svg>
