<svg width="48" height="36" viewBox="0 0 48 36" fill="none" xmlns="http://www.w3.org/2000/svg">
<path d="M38.8091 14.6115C38.3211 7.173 33.0663 0 23.4286 0C14.6137 0 7.816 6.44963 7.456 15.057C2.63314 16.5341 0 21.6146 0 25.3125C0 31.0061 4.80686 36 10.2857 36H17.7143C17.8658 36 18.0112 35.9407 18.1183 35.8352C18.2255 35.7298 18.2857 35.5867 18.2857 35.4375C18.2857 35.2883 18.2255 35.1452 18.1183 35.0398C18.0112 34.9343 17.8658 34.875 17.7143 34.875H10.2857C5.41486 34.875 1.14286 30.4065 1.14286 25.3125C1.14286 21.8801 4.19886 15.75 10.2857 15.75H12C12.1516 15.75 12.2969 15.6907 12.4041 15.5852C12.5112 15.4798 12.5714 15.3367 12.5714 15.1875C12.5714 15.0383 12.5112 14.8952 12.4041 14.7898C12.2969 14.6843 12.1516 14.625 12 14.625H10.2857C9.704 14.625 9.15429 14.6891 8.61829 14.7814C9.06629 8.04263 14.2697 1.125 23.4286 1.125C33.2434 1.125 37.7143 8.70638 37.7143 15.75V17.4375C37.7143 17.5867 37.7745 17.7298 37.8817 17.8352C37.9888 17.9407 38.1342 18 38.2857 18C38.4373 18 38.5826 17.9407 38.6898 17.8352C38.7969 17.7298 38.8571 17.5867 38.8571 17.4375V15.7399C42.3074 16.1122 46.8571 19.7572 46.8571 25.3125C46.8571 29.6167 42.6389 34.875 37.7143 34.875H29.1429C25.4423 34.875 24 33.4552 24 29.8125V14.3809L28.6606 18.9596C28.7132 19.0134 28.7762 19.0564 28.8459 19.0859C28.9155 19.1155 28.9905 19.1311 29.0664 19.1319C29.1422 19.1326 29.2175 19.1185 29.2878 19.0903C29.358 19.0621 29.4219 19.0204 29.4756 18.9677C29.5293 18.915 29.5719 18.8522 29.6007 18.7831C29.6295 18.7141 29.6441 18.64 29.6435 18.5653C29.643 18.4906 29.6273 18.4168 29.5975 18.3481C29.5676 18.2795 29.5242 18.2173 29.4697 18.1654L24.3714 13.1569C23.6926 12.4909 23.1657 12.4909 22.488 13.1569L17.3897 18.1654C17.2856 18.2715 17.228 18.4136 17.2293 18.561C17.2306 18.7085 17.2907 18.8496 17.3967 18.9539C17.5026 19.0582 17.6459 19.1173 17.7958 19.1186C17.9456 19.1199 18.0899 19.0632 18.1977 18.9608L22.8571 14.3809V29.8125C22.8571 34.092 24.7954 36 29.1429 36H37.7143C43.2537 36 48 30.123 48 25.3125C48 19.4996 43.1737 14.9535 38.8091 14.6115Z" fill="black"/>
</svg>
