<svg width="26" height="26" viewBox="0 0 26 26" fill="none" xmlns="http://www.w3.org/2000/svg">
<path d="M2.25327 7.66074C3.56532 5.01987 5.80383 2.95457 8.54159 1.85897C11.2794 0.763373 14.3247 0.714199 17.0964 1.72083C19.8681 2.72746 22.1721 4.71942 23.5687 7.31655C24.9654 9.91368 25.3568 12.9341 24.6684 15.8015C23.98 18.6689 22.2599 21.1823 19.8363 22.8623C17.4128 24.5422 14.4556 25.271 11.529 24.9095C8.60235 24.548 5.91132 23.1216 3.9694 20.9024C2.02748 18.6833 0.970661 15.8268 1.00062 12.8781" stroke="#676767" stroke-width="1.5"/>
<path d="M1.85712 1.85938V7.85938H7.85712" stroke="#676767" stroke-width="1.5"/>
<path d="M12 7V15.1429H18.4286" stroke="#676767" stroke-width="1.5"/>
</svg>
