<svg width="26" height="15" viewBox="0 0 26 15" fill="none" xmlns="http://www.w3.org/2000/svg">
<path d="M0.292893 6.79289C-0.0976311 7.18342 -0.0976311 7.81658 0.292893 8.20711L6.65685 14.5711C7.04738 14.9616 7.68054 14.9616 8.07107 14.5711C8.46159 14.1805 8.46159 13.5474 8.07107 13.1569L2.41421 7.5L8.07107 1.84315C8.46159 1.45262 8.46159 0.819457 8.07107 0.428932C7.68054 0.0384078 7.04738 0.0384078 6.65685 0.428932L0.292893 6.79289ZM1 8.5C1.01907 8.5 1.03816 8.5 1.05727 8.5C1.07638 8.5 1.09551 8.5 1.11466 8.5C1.13381 8.5 1.15298 8.5 1.17218 8.5C1.19137 8.5 1.21058 8.5 1.22982 8.5C1.24905 8.5 1.2683 8.5 1.28758 8.5C1.30685 8.5 1.32614 8.5 1.34546 8.5C1.36477 8.5 1.3841 8.5 1.40346 8.5C1.42281 8.5 1.44218 8.5 1.46158 8.5C1.48097 8.5 1.50038 8.5 1.51981 8.5C1.53924 8.5 1.5587 8.5 1.57817 8.5C1.59764 8.5 1.61713 8.5 1.63664 8.5C1.65615 8.5 1.67567 8.5 1.69522 8.5C1.71477 8.5 1.73434 8.5 1.75392 8.5C1.77351 8.5 1.79311 8.5 1.81273 8.5C1.83236 8.5 1.852 8.5 1.87166 8.5C1.89132 8.5 1.911 8.5 1.9307 8.5C1.95039 8.5 1.97011 8.5 1.98984 8.5C2.00958 8.5 2.02933 8.5 2.0491 8.5C2.06887 8.5 2.08866 8.5 2.10846 8.5C2.12827 8.5 2.14809 8.5 2.16794 8.5C2.18778 8.5 2.20764 8.5 2.22752 8.5C2.24739 8.5 2.26729 8.5 2.2872 8.5C2.30711 8.5 2.32704 8.5 2.34699 8.5C2.36694 8.5 2.3869 8.5 2.40689 8.5C2.42687 8.5 2.44687 8.5 2.46688 8.5C2.4869 8.5 2.50693 8.5 2.52698 8.5C2.54703 8.5 2.5671 8.5 2.58718 8.5C2.60727 8.5 2.62737 8.5 2.64748 8.5C2.6676 8.5 2.68773 8.5 2.70788 8.5C2.72803 8.5 2.7482 8.5 2.76838 8.5C2.78857 8.5 2.80876 8.5 2.82898 8.5C2.84919 8.5 2.86943 8.5 2.88967 8.5C2.90992 8.5 2.93018 8.5 2.95046 8.5C2.97074 8.5 2.99103 8.5 3.01134 8.5C3.03165 8.5 3.05198 8.5 3.07232 8.5C3.09266 8.5 3.11302 8.5 3.13339 8.5C3.15376 8.5 3.17415 8.5 3.19455 8.5C3.21496 8.5 3.23537 8.5 3.25581 8.5C3.27624 8.5 3.29669 8.5 3.31715 8.5C3.33761 8.5 3.35809 8.5 3.37858 8.5C3.39907 8.5 3.41958 8.5 3.4401 8.5C3.46062 8.5 3.48116 8.5 3.50171 8.5C3.52226 8.5 3.54282 8.5 3.5634 8.5C3.58398 8.5 3.60458 8.5 3.62518 8.5C3.64579 8.5 3.66641 8.5 3.68705 8.5C3.70768 8.5 3.72833 8.5 3.74899 8.5C3.76966 8.5 3.79033 8.5 3.81102 8.5C3.83172 8.5 3.85242 8.5 3.87314 8.5C3.89385 8.5 3.91459 8.5 3.93533 8.5C3.95607 8.5 3.97683 8.5 3.9976 8.5C4.01837 8.5 4.03916 8.5 4.05996 8.5C4.08075 8.5 4.10156 8.5 4.12239 8.5C4.14321 8.5 4.16404 8.5 4.18489 8.5C4.20574 8.5 4.2266 8.5 4.24748 8.5C4.26835 8.5 4.28924 8.5 4.31013 8.5C4.33103 8.5 4.35194 8.5 4.37287 8.5C4.39379 8.5 4.41473 8.5 4.43567 8.5C4.45662 8.5 4.47758 8.5 4.49855 8.5C4.51953 8.5 4.54051 8.5 4.5615 8.5C4.5825 8.5 4.60351 8.5 4.62453 8.5C4.64554 8.5 4.66657 8.5 4.68762 8.5C4.70866 8.5 4.72971 8.5 4.75078 8.5C4.77184 8.5 4.79292 8.5 4.814 8.5C4.83509 8.5 4.85619 8.5 4.8773 8.5C4.89841 8.5 4.91953 8.5 4.94066 8.5C4.96179 8.5 4.98293 8.5 5.00409 8.5C5.02524 8.5 5.0464 8.5 5.06757 8.5C5.08875 8.5 5.10993 8.5 5.13113 8.5C5.15232 8.5 5.17353 8.5 5.19474 8.5C5.21596 8.5 5.23719 8.5 5.25842 8.5C5.27966 8.5 5.3009 8.5 5.32216 8.5C5.34341 8.5 5.36468 8.5 5.38595 8.5C5.40723 8.5 5.42852 8.5 5.44981 8.5C5.47111 8.5 5.49241 8.5 5.51372 8.5C5.53504 8.5 5.55636 8.5 5.57769 8.5C5.59903 8.5 5.62037 8.5 5.64172 8.5C5.66307 8.5 5.68443 8.5 5.7058 8.5C5.72717 8.5 5.74855 8.5 5.76994 8.5C5.79132 8.5 5.81272 8.5 5.83412 8.5C5.85553 8.5 5.87694 8.5 5.89836 8.5C5.91979 8.5 5.94122 8.5 5.96266 8.5C5.98409 8.5 6.00554 8.5 6.027 8.5C6.04845 8.5 6.06992 8.5 6.09139 8.5C6.11286 8.5 6.13434 8.5 6.15583 8.5C6.17731 8.5 6.19881 8.5 6.22031 8.5C6.24182 8.5 6.26333 8.5 6.28485 8.5C6.30637 8.5 6.32789 8.5 6.34943 8.5C6.37096 8.5 6.3925 8.5 6.41405 8.5C6.4356 8.5 6.45715 8.5 6.47872 8.5C6.50028 8.5 6.52185 8.5 6.54343 8.5C6.56501 8.5 6.58659 8.5 6.60818 8.5C6.62977 8.5 6.65137 8.5 6.67297 8.5C6.69458 8.5 6.71619 8.5 6.73781 8.5C6.75943 8.5 6.78105 8.5 6.80268 8.5C6.82431 8.5 6.84595 8.5 6.86759 8.5C6.88924 8.5 6.91088 8.5 6.93254 8.5C6.9542 8.5 6.97586 8.5 6.99753 8.5C7.01919 8.5 7.04087 8.5 7.06255 8.5C7.08423 8.5 7.10591 8.5 7.1276 8.5C7.14929 8.5 7.17099 8.5 7.19269 8.5C7.21439 8.5 7.2361 8.5 7.25781 8.5C7.27952 8.5 7.30124 8.5 7.32296 8.5C7.34469 8.5 7.36641 8.5 7.38815 8.5C7.40988 8.5 7.43162 8.5 7.45336 8.5C7.4751 8.5 7.49685 8.5 7.5186 8.5C7.54036 8.5 7.56211 8.5 7.58387 8.5C7.60564 8.5 7.6274 8.5 7.64917 8.5C7.67094 8.5 7.69272 8.5 7.7145 8.5C7.73628 8.5 7.75806 8.5 7.77985 8.5C7.80163 8.5 7.82342 8.5 7.84522 8.5C7.86702 8.5 7.88881 8.5 7.91062 8.5C7.93242 8.5 7.95423 8.5 7.97604 8.5C7.99785 8.5 8.01966 8.5 8.04148 8.5C8.0633 8.5 8.08512 8.5 8.10694 8.5C8.12876 8.5 8.15059 8.5 8.17242 8.5C8.19425 8.5 8.21609 8.5 8.23792 8.5C8.25976 8.5 8.2816 8.5 8.30344 8.5C8.32528 8.5 8.34713 8.5 8.36898 8.5C8.39082 8.5 8.41268 8.5 8.43453 8.5C8.45638 8.5 8.47824 8.5 8.50009 8.5C8.52195 8.5 8.54381 8.5 8.56568 8.5C8.58754 8.5 8.6094 8.5 8.63127 8.5C8.65314 8.5 8.67501 8.5 8.69688 8.5C8.71875 8.5 8.74062 8.5 8.76249 8.5C8.78437 8.5 8.80624 8.5 8.82812 8.5C8.85 8.5 8.87188 8.5 8.89376 8.5C8.91564 8.5 8.93752 8.5 8.95941 8.5C8.98129 8.5 9.00317 8.5 9.02506 8.5C9.04695 8.5 9.06883 8.5 9.09072 8.5C9.11261 8.5 9.1345 8.5 9.15639 8.5C9.17828 8.5 9.20017 8.5 9.22206 8.5C9.24395 8.5 9.26584 8.5 9.28774 8.5C9.30963 8.5 9.33152 8.5 9.35341 8.5C9.37531 8.5 9.3972 8.5 9.4191 8.5C9.44099 8.5 9.46288 8.5 9.48478 8.5C9.50667 8.5 9.52857 8.5 9.55046 8.5C9.57235 8.5 9.59425 8.5 9.61614 8.5C9.63804 8.5 9.65993 8.5 9.68182 8.5C9.70372 8.5 9.72561 8.5 9.7475 8.5C9.76939 8.5 9.79128 8.5 9.81318 8.5C9.83507 8.5 9.85696 8.5 9.87885 8.5C9.90073 8.5 9.92262 8.5 9.94451 8.5C9.9664 8.5 9.98828 8.5 10.0102 8.5C10.0321 8.5 10.0539 8.5 10.0758 8.5C10.0977 8.5 10.1196 8.5 10.1415 8.5C10.1633 8.5 10.1852 8.5 10.2071 8.5C10.229 8.5 10.2508 8.5 10.2727 8.5C10.2946 8.5 10.3165 8.5 10.3383 8.5C10.3602 8.5 10.3821 8.5 10.4039 8.5C10.4258 8.5 10.4477 8.5 10.4695 8.5C10.4914 8.5 10.5132 8.5 10.5351 8.5C10.557 8.5 10.5788 8.5 10.6007 8.5C10.6225 8.5 10.6444 8.5 10.6662 8.5C10.6881 8.5 10.7099 8.5 10.7317 8.5C10.7536 8.5 10.7754 8.5 10.7973 8.5C10.8191 8.5 10.8409 8.5 10.8627 8.5C10.8846 8.5 10.9064 8.5 10.9282 8.5C10.95 8.5 10.9719 8.5 10.9937 8.5C11.0155 8.5 11.0373 8.5 11.0591 8.5C11.0809 8.5 11.1027 8.5 11.1245 8.5C11.1463 8.5 11.1681 8.5 11.1899 8.5C11.2117 8.5 11.2335 8.5 11.2553 8.5C11.2771 8.5 11.2988 8.5 11.3206 8.5C11.3424 8.5 11.3642 8.5 11.3859 8.5C11.4077 8.5 11.4295 8.5 11.4512 8.5C11.473 8.5 11.4947 8.5 11.5165 8.5C11.5382 8.5 11.56 8.5 11.5817 8.5C11.6035 8.5 11.6252 8.5 11.6469 8.5C11.6686 8.5 11.6904 8.5 11.7121 8.5C11.7338 8.5 11.7555 8.5 11.7772 8.5C11.7989 8.5 11.8206 8.5 11.8423 8.5C11.864 8.5 11.8857 8.5 11.9074 8.5C11.9291 8.5 11.9508 8.5 11.9725 8.5C11.9941 8.5 12.0158 8.5 12.0375 8.5C12.0591 8.5 12.0808 8.5 12.1024 8.5C12.1241 8.5 12.1457 8.5 12.1674 8.5C12.189 8.5 12.2106 8.5 12.2323 8.5C12.2539 8.5 12.2755 8.5 12.2971 8.5C12.3187 8.5 12.3403 8.5 12.3619 8.5C12.3835 8.5 12.4051 8.5 12.4267 8.5C12.4483 8.5 12.4699 8.5 12.4915 8.5C12.513 8.5 12.5346 8.5 12.5562 8.5C12.5777 8.5 12.5993 8.5 12.6208 8.5C12.6424 8.5 12.6639 8.5 12.6854 8.5C12.7069 8.5 12.7285 8.5 12.75 8.5C12.7715 8.5 12.793 8.5 12.8145 8.5C12.836 8.5 12.8575 8.5 12.879 8.5C12.9005 8.5 12.9219 8.5 12.9434 8.5C12.9649 8.5 12.9863 8.5 13.0078 8.5C13.0292 8.5 13.0507 8.5 13.0721 8.5C13.0935 8.5 13.1149 8.5 13.1364 8.5C13.1578 8.5 13.1792 8.5 13.2006 8.5C13.222 8.5 13.2434 8.5 13.2648 8.5C13.2861 8.5 13.3075 8.5 13.3289 8.5C13.3502 8.5 13.3716 8.5 13.3929 8.5C13.4143 8.5 13.4356 8.5 13.4569 8.5C13.4783 8.5 13.4996 8.5 13.5209 8.5C13.5422 8.5 13.5635 8.5 13.5848 8.5C13.6061 8.5 13.6273 8.5 13.6486 8.5C13.6699 8.5 13.6911 8.5 13.7124 8.5C13.7336 8.5 13.7549 8.5 13.7761 8.5C13.7973 8.5 13.8186 8.5 13.8398 8.5C13.861 8.5 13.8822 8.5 13.9034 8.5C13.9245 8.5 13.9457 8.5 13.9669 8.5C13.988 8.5 14.0092 8.5 14.0304 8.5C14.0515 8.5 14.0726 8.5 14.0938 8.5C14.1149 8.5 14.136 8.5 14.1571 8.5C14.1782 8.5 14.1993 8.5 14.2204 8.5C14.2414 8.5 14.2625 8.5 14.2836 8.5C14.3046 8.5 14.3257 8.5 14.3467 8.5C14.3677 8.5 14.3888 8.5 14.4098 8.5C14.4308 8.5 14.4518 8.5 14.4728 8.5C14.4937 8.5 14.5147 8.5 14.5357 8.5C14.5567 8.5 14.5776 8.5 14.5985 8.5C14.6195 8.5 14.6404 8.5 14.6613 8.5C14.6822 8.5 14.7031 8.5 14.724 8.5C14.7449 8.5 14.7658 8.5 14.7867 8.5C14.8075 8.5 14.8284 8.5 14.8492 8.5C14.8701 8.5 14.8909 8.5 14.9117 8.5C14.9325 8.5 14.9533 8.5 14.9741 8.5C14.9949 8.5 15.0157 8.5 15.0364 8.5C15.0572 8.5 15.0779 8.5 15.0987 8.5C15.1194 8.5 15.1401 8.5 15.1608 8.5C15.1815 8.5 15.2022 8.5 15.2229 8.5C15.2436 8.5 15.2643 8.5 15.2849 8.5C15.3056 8.5 15.3262 8.5 15.3468 8.5C15.3675 8.5 15.3881 8.5 15.4087 8.5C15.4293 8.5 15.4498 8.5 15.4704 8.5C15.491 8.5 15.5115 8.5 15.5321 8.5C15.5526 8.5 15.5731 8.5 15.5937 8.5C15.6142 8.5 15.6347 8.5 15.6551 8.5C15.6756 8.5 15.6961 8.5 15.7165 8.5C15.737 8.5 15.7574 8.5 15.7779 8.5C15.7983 8.5 15.8187 8.5 15.8391 8.5C15.8595 8.5 15.8798 8.5 15.9002 8.5C15.9206 8.5 15.9409 8.5 15.9612 8.5C15.9816 8.5 16.0019 8.5 16.0222 8.5C16.0425 8.5 16.0628 8.5 16.083 8.5C16.1033 8.5 16.1236 8.5 16.1438 8.5C16.164 8.5 16.1842 8.5 16.2044 8.5C16.2246 8.5 16.2448 8.5 16.265 8.5C16.2852 8.5 16.3053 8.5 16.3255 8.5C16.3456 8.5 16.3657 8.5 16.3858 8.5C16.4059 8.5 16.426 8.5 16.4461 8.5C16.4662 8.5 16.4862 8.5 16.5063 8.5C16.5263 8.5 16.5463 8.5 16.5663 8.5C16.5863 8.5 16.6063 8.5 16.6263 8.5C16.6463 8.5 16.6662 8.5 16.6861 8.5C16.7061 8.5 16.726 8.5 16.7459 8.5C16.7658 8.5 16.7857 8.5 16.8055 8.5C16.8254 8.5 16.8453 8.5 16.8651 8.5C16.8849 8.5 16.9047 8.5 16.9245 8.5C16.9443 8.5 16.9641 8.5 16.9838 8.5C17.0036 8.5 17.0233 8.5 17.0431 8.5C17.0628 8.5 17.0825 8.5 17.1022 8.5C17.1219 8.5 17.1415 8.5 17.1612 8.5C17.1808 8.5 17.2004 8.5 17.2201 8.5C17.2397 8.5 17.2593 8.5 17.2788 8.5C17.2984 8.5 17.3179 8.5 17.3375 8.5C17.357 8.5 17.3765 8.5 17.396 8.5C17.4155 8.5 17.435 8.5 17.4545 8.5C17.4739 8.5 17.4933 8.5 17.5128 8.5C17.5322 8.5 17.5516 8.5 17.571 8.5C17.5903 8.5 17.6097 8.5 17.629 8.5C17.6484 8.5 17.6677 8.5 17.687 8.5C17.7063 8.5 17.7256 8.5 17.7448 8.5C17.7641 8.5 17.7833 8.5 17.8025 8.5C17.8218 8.5 17.841 8.5 17.8601 8.5C17.8793 8.5 17.8985 8.5 17.9176 8.5C17.9368 8.5 17.9559 8.5 17.975 8.5C17.9941 8.5 18.0131 8.5 18.0322 8.5C18.0512 8.5 18.0703 8.5 18.0893 8.5C18.1083 8.5 18.1273 8.5 18.1463 8.5C18.1652 8.5 18.1842 8.5 18.2031 8.5C18.222 8.5 18.2409 8.5 18.2598 8.5C18.2787 8.5 18.2976 8.5 18.3164 8.5C18.3352 8.5 18.3541 8.5 18.3729 8.5C18.3917 8.5 18.4104 8.5 18.4292 8.5C18.4479 8.5 18.4667 8.5 18.4854 8.5C18.5041 8.5 18.5228 8.5 18.5414 8.5C18.5601 8.5 18.5787 8.5 18.5974 8.5C18.616 8.5 18.6346 8.5 18.6531 8.5C18.6717 8.5 18.6903 8.5 18.7088 8.5C18.7273 8.5 18.7458 8.5 18.7643 8.5C18.7828 8.5 18.8013 8.5 18.8197 8.5C18.8381 8.5 18.8566 8.5 18.8749 8.5C18.8933 8.5 18.9117 8.5 18.93 8.5C18.9484 8.5 18.9667 8.5 18.985 8.5C19.0033 8.5 19.0216 8.5 19.0398 8.5C19.0581 8.5 19.0763 8.5 19.0945 8.5C19.1127 8.5 19.1309 8.5 19.149 8.5C19.1672 8.5 19.1853 8.5 19.2034 8.5C19.2215 8.5 19.2396 8.5 19.2577 8.5C19.2757 8.5 19.2938 8.5 19.3118 8.5C19.3298 8.5 19.3478 8.5 19.3657 8.5C19.3837 8.5 19.4016 8.5 19.4195 8.5C19.4374 8.5 19.4553 8.5 19.4732 8.5C19.4911 8.5 19.5089 8.5 19.5267 8.5C19.5445 8.5 19.5623 8.5 19.5801 8.5C19.5978 8.5 19.6156 8.5 19.6333 8.5C19.651 8.5 19.6687 8.5 19.6863 8.5C19.704 8.5 19.7216 8.5 19.7392 8.5C19.7568 8.5 19.7744 8.5 19.792 8.5C19.8095 8.5 19.827 8.5 19.8445 8.5C19.862 8.5 19.8795 8.5 19.897 8.5C19.9144 8.5 19.9319 8.5 19.9493 8.5C19.9667 8.5 19.984 8.5 20.0014 8.5C20.0187 8.5 20.036 8.5 20.0533 8.5C20.0706 8.5 20.0879 8.5 20.1051 8.5C20.1224 8.5 20.1396 8.5 20.1568 8.5C20.174 8.5 20.1911 8.5 20.2082 8.5C20.2254 8.5 20.2425 8.5 20.2596 8.5C20.2766 8.5 20.2937 8.5 20.3107 8.5C20.3277 8.5 20.3447 8.5 20.3617 8.5C20.3787 8.5 20.3956 8.5 20.4125 8.5C20.4294 8.5 20.4463 8.5 20.4632 8.5C20.48 8.5 20.4969 8.5 20.5137 8.5C20.5305 8.5 20.5472 8.5 20.564 8.5C20.5807 8.5 20.5974 8.5 20.6141 8.5C20.6308 8.5 20.6475 8.5 20.6641 8.5C20.6807 8.5 20.6973 8.5 20.7139 8.5C20.7305 8.5 20.747 8.5 20.7635 8.5C20.7801 8.5 20.7966 8.5 20.813 8.5C20.8295 8.5 20.8459 8.5 20.8623 8.5C20.8787 8.5 20.8951 8.5 20.9114 8.5C20.9278 8.5 20.9441 8.5 20.9604 8.5C20.9766 8.5 20.9929 8.5 21.0091 8.5C21.0253 8.5 21.0415 8.5 21.0577 8.5C21.0739 8.5 21.09 8.5 21.1061 8.5C21.1222 8.5 21.1383 8.5 21.1543 8.5C21.1704 8.5 21.1864 8.5 21.2024 8.5C21.2184 8.5 21.2343 8.5 21.2502 8.5C21.2662 8.5 21.2821 8.5 21.2979 8.5C21.3138 8.5 21.3296 8.5 21.3454 8.5C21.3612 8.5 21.377 8.5 21.3928 8.5C21.4085 8.5 21.4242 8.5 21.4399 8.5C21.4556 8.5 21.4712 8.5 21.4868 8.5C21.5024 8.5 21.518 8.5 21.5336 8.5C21.5491 8.5 21.5647 8.5 21.5802 8.5C21.5957 8.5 21.6111 8.5 21.6265 8.5C21.642 8.5 21.6574 8.5 21.6727 8.5C21.6881 8.5 21.7034 8.5 21.7187 8.5C21.734 8.5 21.7493 8.5 21.7646 8.5C21.7798 8.5 21.795 8.5 21.8102 8.5C21.8254 8.5 21.8405 8.5 21.8556 8.5C21.8707 8.5 21.8858 8.5 21.9008 8.5C21.9159 8.5 21.9309 8.5 21.9459 8.5C21.9609 8.5 21.9758 8.5 21.9907 8.5C22.0056 8.5 22.0205 8.5 22.0354 8.5C22.0502 8.5 22.065 8.5 22.0798 8.5C22.0946 8.5 22.1093 8.5 22.1241 8.5C22.1388 8.5 22.1535 8.5 22.1681 8.5C22.1828 8.5 22.1974 8.5 22.212 8.5C22.2265 8.5 22.2411 8.5 22.2556 8.5C22.2701 8.5 22.2846 8.5 22.299 8.5C22.3135 8.5 22.3279 8.5 22.3423 8.5C22.3567 8.5 22.371 8.5 22.3853 8.5C22.3996 8.5 22.4139 8.5 22.4282 8.5C22.4424 8.5 22.4566 8.5 22.4708 8.5C22.485 8.5 22.4991 8.5 22.5132 8.5C22.5273 8.5 22.5414 8.5 22.5554 8.5C22.5694 8.5 22.5834 8.5 22.5974 8.5C22.6114 8.5 22.6253 8.5 22.6392 8.5C22.6531 8.5 22.667 8.5 22.6808 8.5C22.6946 8.5 22.7084 8.5 22.7221 8.5C22.7359 8.5 22.7496 8.5 22.7633 8.5C22.777 8.5 22.7906 8.5 22.8042 8.5C22.8179 8.5 22.8314 8.5 22.845 8.5C22.8585 8.5 22.872 8.5 22.8855 8.5C22.899 8.5 22.9124 8.5 22.9258 8.5C22.9392 8.5 22.9525 8.5 22.9659 8.5C22.9792 8.5 22.9925 8.5 23.0057 8.5C23.019 8.5 23.0322 8.5 23.0454 8.5C23.0585 8.5 23.0717 8.5 23.0848 8.5C23.0979 8.5 23.111 8.5 23.124 8.5C23.137 8.5 23.15 8.5 23.163 8.5C23.1759 8.5 23.1888 8.5 23.2017 8.5C23.2146 8.5 23.2274 8.5 23.2402 8.5C23.2531 8.5 23.2658 8.5 23.2786 8.5C23.2913 8.5 23.304 8.5 23.3166 8.5C23.3293 8.5 23.3419 8.5 23.3545 8.5C23.3671 8.5 23.3796 8.5 23.3921 8.5C23.4046 8.5 23.4171 8.5 23.4295 8.5C23.4419 8.5 23.4543 8.5 23.4667 8.5C23.479 8.5 23.4914 8.5 23.5036 8.5C23.5159 8.5 23.5281 8.5 23.5403 8.5C23.5525 8.5 23.5647 8.5 23.5768 8.5C23.5889 8.5 23.601 8.5 23.6131 8.5C23.6251 8.5 23.6371 8.5 23.6491 8.5C23.661 8.5 23.673 8.5 23.6848 8.5C23.6967 8.5 23.7086 8.5 23.7204 8.5C23.7322 8.5 23.744 8.5 23.7557 8.5C23.7674 8.5 23.7791 8.5 23.7907 8.5C23.8024 8.5 23.814 8.5 23.8256 8.5C23.8371 8.5 23.8487 8.5 23.8602 8.5C23.8716 8.5 23.8831 8.5 23.8945 8.5C23.9059 8.5 23.9173 8.5 23.9286 8.5C23.9399 8.5 23.9512 8.5 23.9625 8.5C23.9737 8.5 23.9849 8.5 23.9961 8.5C24.0073 8.5 24.0184 8.5 24.0295 8.5C24.0405 8.5 24.0516 8.5 24.0626 8.5C24.0736 8.5 24.0846 8.5 24.0955 8.5C24.1064 8.5 24.1173 8.5 24.1281 8.5C24.139 8.5 24.1497 8.5 24.1605 8.5C24.1713 8.5 24.182 8.5 24.1926 8.5C24.2033 8.5 24.2139 8.5 24.2245 8.5C24.2351 8.5 24.2457 8.5 24.2562 8.5C24.2667 8.5 24.2771 8.5 24.2876 8.5C24.298 8.5 24.3084 8.5 24.3187 8.5C24.329 8.5 24.3393 8.5 24.3496 8.5C24.3598 8.5 24.37 8.5 24.3802 8.5C24.3904 8.5 24.4005 8.5 24.4106 8.5C24.4207 8.5 24.4307 8.5 24.4407 8.5C24.4507 8.5 24.4606 8.5 24.4706 8.5C24.4805 8.5 24.4903 8.5 24.5002 8.5C24.51 8.5 24.5198 8.5 24.5295 8.5C24.5392 8.5 24.5489 8.5 24.5586 8.5C24.5682 8.5 24.5778 8.5 24.5874 8.5C24.597 8.5 24.6065 8.5 24.616 8.5C24.6254 8.5 24.6349 8.5 24.6443 8.5C24.6537 8.5 24.663 8.5 24.6723 8.5C24.6816 8.5 24.6909 8.5 24.7001 8.5C24.7093 8.5 24.7185 8.5 24.7276 8.5C24.7367 8.5 24.7458 8.5 24.7548 8.5C24.7639 8.5 24.7728 8.5 24.7818 8.5C24.7907 8.5 24.7996 8.5 24.8085 8.5C24.8173 8.5 24.8262 8.5 24.8349 8.5C24.8437 8.5 24.8524 8.5 24.8611 8.5C24.8698 8.5 24.8784 8.5 24.887 8.5C24.8956 8.5 24.9041 8.5 24.9126 8.5C24.9211 8.5 24.9295 8.5 24.9379 8.5C24.9464 8.5 24.9547 8.5 24.963 8.5C24.9713 8.5 24.9796 8.5 24.9878 8.5C24.996 8.5 25.0042 8.5 25.0123 8.5C25.0205 8.5 25.0286 8.5 25.0366 8.5C25.0446 8.5 25.0526 8.5 25.0606 8.5C25.0685 8.5 25.0764 8.5 25.0843 8.5C25.0921 8.5 25.0999 8.5 25.1077 8.5C25.1154 8.5 25.1231 8.5 25.1308 8.5C25.1385 8.5 25.1461 8.5 25.1536 8.5C25.1612 8.5 25.1687 8.5 25.1762 8.5C25.1837 8.5 25.1911 8.5 25.1985 8.5C25.2059 8.5 25.2132 8.5 25.2205 8.5C25.2278 8.5 25.235 8.5 25.2422 8.5C25.2494 8.5 25.2566 8.5 25.2637 8.5C25.2707 8.5 25.2778 8.5 25.2848 8.5C25.2918 8.5 25.2987 8.5 25.3057 8.5C25.3126 8.5 25.3194 8.5 25.3262 8.5C25.333 8.5 25.3398 8.5 25.3465 8.5C25.3532 8.5 25.3599 8.5 25.3665 8.5C25.3731 8.5 25.3797 8.5 25.3862 8.5C25.3927 8.5 25.3992 8.5 25.4056 8.5C25.412 8.5 25.4184 8.5 25.4247 8.5C25.431 8.5 25.4373 8.5 25.4435 8.5C25.4497 8.5 25.4559 8.5 25.462 8.5C25.4682 8.5 25.4742 8.5 25.4803 8.5C25.4863 8.5 25.4923 8.5 25.4982 8.5C25.5041 8.5 25.51 8.5 25.5158 8.5C25.5217 8.5 25.5274 8.5 25.5332 8.5C25.5389 8.5 25.5446 8.5 25.5502 8.5C25.5558 8.5 25.5614 8.5 25.5669 8.5C25.5725 8.5 25.5779 8.5 25.5834 8.5C25.5888 8.5 25.5942 8.5 25.5995 8.5C25.6048 8.5 25.6101 8.5 25.6153 8.5C25.6205 8.5 25.6257 8.5 25.6308 8.5C25.636 8.5 25.641 8.5 25.646 8.5C25.6511 8.5 25.656 8.5 25.661 8.5C25.6659 8.5 25.6707 8.5 25.6756 8.5C25.6804 8.5 25.6851 8.5 25.6899 8.5C25.6946 8.5 25.6992 8.5 25.7038 8.5C25.7085 8.5 25.713 8.5 25.7175 8.5C25.722 8.5 25.7265 8.5 25.7309 8.5C25.7353 8.5 25.7396 8.5 25.7439 8.5C25.7482 8.5 25.7525 8.5 25.7567 8.5C25.7609 8.5 25.765 8.5 25.7691 8.5C25.7732 8.5 25.7772 8.5 25.7812 8.5C25.7852 8.5 25.7891 8.5 25.793 8.5C25.7969 8.5 25.8007 8.5 25.8045 8.5C25.8083 8.5 25.812 8.5 25.8157 8.5C25.8193 8.5 25.8229 8.5 25.8265 8.5C25.8301 8.5 25.8336 8.5 25.837 8.5C25.8405 8.5 25.8439 8.5 25.8472 8.5C25.8506 8.5 25.8539 8.5 25.8571 8.5C25.8604 8.5 25.8635 8.5 25.8667 8.5C25.8698 8.5 25.8729 8.5 25.8759 8.5C25.8789 8.5 25.8819 8.5 25.8848 8.5C25.8878 8.5 25.8906 8.5 25.8934 8.5C25.8962 8.5 25.899 8.5 25.9017 8.5C25.9044 8.5 25.907 8.5 25.9096 8.5C25.9122 8.5 25.9148 8.5 25.9172 8.5C25.9197 8.5 25.9222 8.5 25.9245 8.5C25.9269 8.5 25.9292 8.5 25.9315 8.5C25.9337 8.5 25.936 8.5 25.9381 8.5C25.9403 8.5 25.9424 8.5 25.9444 8.5C25.9464 8.5 25.9484 8.5 25.9504 8.5C25.9523 8.5 25.9542 8.5 25.956 8.5C25.9578 8.5 25.9596 8.5 25.9613 8.5C25.963 8.5 25.9646 8.5 25.9662 8.5C25.9678 8.5 25.9694 8.5 25.9709 8.5C25.9724 8.5 25.9738 8.5 25.9752 8.5C25.9765 8.5 25.9778 8.5 25.9791 8.5C25.9804 8.5 25.9816 8.5 25.9827 8.5C25.9839 8.5 25.985 8.5 25.986 8.5C25.987 8.5 25.988 8.5 25.9889 8.5C25.9898 8.5 25.9907 8.5 25.9915 8.5C25.9923 8.5 25.9931 8.5 25.9938 8.5C25.9944 8.5 25.9951 8.5 25.9957 8.5C25.9962 8.5 25.9968 8.5 25.9972 8.5C25.9977 8.5 25.9981 8.5 25.9984 8.5C25.9988 8.5 25.9991 8.5 25.9993 8.5C25.9995 8.5 25.9997 8.5 25.9998 8.5C25.9999 8.5 26 8.5 26 7.5C26 6.5 25.9999 6.5 25.9998 6.5C25.9997 6.5 25.9995 6.5 25.9993 6.5C25.9991 6.5 25.9988 6.5 25.9984 6.5C25.9981 6.5 25.9977 6.5 25.9972 6.5C25.9968 6.5 25.9962 6.5 25.9957 6.5C25.9951 6.5 25.9944 6.5 25.9938 6.5C25.9931 6.5 25.9923 6.5 25.9915 6.5C25.9907 6.5 25.9898 6.5 25.9889 6.5C25.988 6.5 25.987 6.5 25.986 6.5C25.985 6.5 25.9839 6.5 25.9827 6.5C25.9816 6.5 25.9804 6.5 25.9791 6.5C25.9778 6.5 25.9765 6.5 25.9752 6.5C25.9738 6.5 25.9724 6.5 25.9709 6.5C25.9694 6.5 25.9678 6.5 25.9662 6.5C25.9646 6.5 25.963 6.5 25.9613 6.5C25.9596 6.5 25.9578 6.5 25.956 6.5C25.9542 6.5 25.9523 6.5 25.9504 6.5C25.9484 6.5 25.9464 6.5 25.9444 6.5C25.9424 6.5 25.9403 6.5 25.9381 6.5C25.936 6.5 25.9337 6.5 25.9315 6.5C25.9292 6.5 25.9269 6.5 25.9245 6.5C25.9222 6.5 25.9197 6.5 25.9172 6.5C25.9148 6.5 25.9122 6.5 25.9096 6.5C25.907 6.5 25.9044 6.5 25.9017 6.5C25.899 6.5 25.8962 6.5 25.8934 6.5C25.8906 6.5 25.8878 6.5 25.8848 6.5C25.8819 6.5 25.8789 6.5 25.8759 6.5C25.8729 6.5 25.8698 6.5 25.8667 6.5C25.8635 6.5 25.8604 6.5 25.8571 6.5C25.8539 6.5 25.8506 6.5 25.8472 6.5C25.8439 6.5 25.8405 6.5 25.837 6.5C25.8336 6.5 25.8301 6.5 25.8265 6.5C25.8229 6.5 25.8193 6.5 25.8157 6.5C25.812 6.5 25.8083 6.5 25.8045 6.5C25.8007 6.5 25.7969 6.5 25.793 6.5C25.7891 6.5 25.7852 6.5 25.7812 6.5C25.7772 6.5 25.7732 6.5 25.7691 6.5C25.765 6.5 25.7609 6.5 25.7567 6.5C25.7525 6.5 25.7482 6.5 25.7439 6.5C25.7396 6.5 25.7353 6.5 25.7309 6.5C25.7265 6.5 25.722 6.5 25.7175 6.5C25.713 6.5 25.7085 6.5 25.7038 6.5C25.6992 6.5 25.6946 6.5 25.6899 6.5C25.6851 6.5 25.6804 6.5 25.6756 6.5C25.6707 6.5 25.6659 6.5 25.661 6.5C25.656 6.5 25.6511 6.5 25.646 6.5C25.641 6.5 25.636 6.5 25.6308 6.5C25.6257 6.5 25.6205 6.5 25.6153 6.5C25.6101 6.5 25.6048 6.5 25.5995 6.5C25.5942 6.5 25.5888 6.5 25.5834 6.5C25.5779 6.5 25.5725 6.5 25.5669 6.5C25.5614 6.5 25.5558 6.5 25.5502 6.5C25.5446 6.5 25.5389 6.5 25.5332 6.5C25.5274 6.5 25.5217 6.5 25.5158 6.5C25.51 6.5 25.5041 6.5 25.4982 6.5C25.4923 6.5 25.4863 6.5 25.4803 6.5C25.4742 6.5 25.4682 6.5 25.462 6.5C25.4559 6.5 25.4497 6.5 25.4435 6.5C25.4373 6.5 25.431 6.5 25.4247 6.5C25.4184 6.5 25.412 6.5 25.4056 6.5C25.3992 6.5 25.3927 6.5 25.3862 6.5C25.3797 6.5 25.3731 6.5 25.3665 6.5C25.3599 6.5 25.3532 6.5 25.3465 6.5C25.3398 6.5 25.333 6.5 25.3262 6.5C25.3194 6.5 25.3126 6.5 25.3057 6.5C25.2987 6.5 25.2918 6.5 25.2848 6.5C25.2778 6.5 25.2707 6.5 25.2637 6.5C25.2566 6.5 25.2494 6.5 25.2422 6.5C25.235 6.5 25.2278 6.5 25.2205 6.5C25.2132 6.5 25.2059 6.5 25.1985 6.5C25.1911 6.5 25.1837 6.5 25.1762 6.5C25.1687 6.5 25.1612 6.5 25.1536 6.5C25.1461 6.5 25.1385 6.5 25.1308 6.5C25.1231 6.5 25.1154 6.5 25.1077 6.5C25.0999 6.5 25.0921 6.5 25.0843 6.5C25.0764 6.5 25.0685 6.5 25.0606 6.5C25.0526 6.5 25.0446 6.5 25.0366 6.5C25.0286 6.5 25.0205 6.5 25.0123 6.5C25.0042 6.5 24.996 6.5 24.9878 6.5C24.9796 6.5 24.9713 6.5 24.963 6.5C24.9547 6.5 24.9464 6.5 24.9379 6.5C24.9295 6.5 24.9211 6.5 24.9126 6.5C24.9041 6.5 24.8956 6.5 24.887 6.5C24.8784 6.5 24.8698 6.5 24.8611 6.5C24.8524 6.5 24.8437 6.5 24.8349 6.5C24.8262 6.5 24.8173 6.5 24.8085 6.5C24.7996 6.5 24.7907 6.5 24.7818 6.5C24.7728 6.5 24.7639 6.5 24.7548 6.5C24.7458 6.5 24.7367 6.5 24.7276 6.5C24.7185 6.5 24.7093 6.5 24.7001 6.5C24.6909 6.5 24.6816 6.5 24.6723 6.5C24.663 6.5 24.6537 6.5 24.6443 6.5C24.6349 6.5 24.6254 6.5 24.616 6.5C24.6065 6.5 24.597 6.5 24.5874 6.5C24.5778 6.5 24.5682 6.5 24.5586 6.5C24.5489 6.5 24.5392 6.5 24.5295 6.5C24.5198 6.5 24.51 6.5 24.5002 6.5C24.4903 6.5 24.4805 6.5 24.4706 6.5C24.4606 6.5 24.4507 6.5 24.4407 6.5C24.4307 6.5 24.4207 6.5 24.4106 6.5C24.4005 6.5 24.3904 6.5 24.3802 6.5C24.37 6.5 24.3598 6.5 24.3496 6.5C24.3393 6.5 24.329 6.5 24.3187 6.5C24.3084 6.5 24.298 6.5 24.2876 6.5C24.2771 6.5 24.2667 6.5 24.2562 6.5C24.2457 6.5 24.2351 6.5 24.2245 6.5C24.2139 6.5 24.2033 6.5 24.1926 6.5C24.182 6.5 24.1713 6.5 24.1605 6.5C24.1497 6.5 24.139 6.5 24.1281 6.5C24.1173 6.5 24.1064 6.5 24.0955 6.5C24.0846 6.5 24.0736 6.5 24.0626 6.5C24.0516 6.5 24.0405 6.5 24.0295 6.5C24.0184 6.5 24.0073 6.5 23.9961 6.5C23.9849 6.5 23.9737 6.5 23.9625 6.5C23.9512 6.5 23.9399 6.5 23.9286 6.5C23.9173 6.5 23.9059 6.5 23.8945 6.5C23.8831 6.5 23.8716 6.5 23.8602 6.5C23.8487 6.5 23.8371 6.5 23.8256 6.5C23.814 6.5 23.8024 6.5 23.7907 6.5C23.7791 6.5 23.7674 6.5 23.7557 6.5C23.744 6.5 23.7322 6.5 23.7204 6.5C23.7086 6.5 23.6967 6.5 23.6848 6.5C23.673 6.5 23.661 6.5 23.6491 6.5C23.6371 6.5 23.6251 6.5 23.6131 6.5C23.601 6.5 23.5889 6.5 23.5768 6.5C23.5647 6.5 23.5525 6.5 23.5403 6.5C23.5281 6.5 23.5159 6.5 23.5036 6.5C23.4914 6.5 23.479 6.5 23.4667 6.5C23.4543 6.5 23.4419 6.5 23.4295 6.5C23.4171 6.5 23.4046 6.5 23.3921 6.5C23.3796 6.5 23.3671 6.5 23.3545 6.5C23.3419 6.5 23.3293 6.5 23.3166 6.5C23.304 6.5 23.2913 6.5 23.2786 6.5C23.2658 6.5 23.2531 6.5 23.2402 6.5C23.2274 6.5 23.2146 6.5 23.2017 6.5C23.1888 6.5 23.1759 6.5 23.163 6.5C23.15 6.5 23.137 6.5 23.124 6.5C23.111 6.5 23.0979 6.5 23.0848 6.5C23.0717 6.5 23.0585 6.5 23.0454 6.5C23.0322 6.5 23.019 6.5 23.0057 6.5C22.9925 6.5 22.9792 6.5 22.9659 6.5C22.9525 6.5 22.9392 6.5 22.9258 6.5C22.9124 6.5 22.899 6.5 22.8855 6.5C22.872 6.5 22.8585 6.5 22.845 6.5C22.8314 6.5 22.8179 6.5 22.8042 6.5C22.7906 6.5 22.777 6.5 22.7633 6.5C22.7496 6.5 22.7359 6.5 22.7221 6.5C22.7084 6.5 22.6946 6.5 22.6808 6.5C22.667 6.5 22.6531 6.5 22.6392 6.5C22.6253 6.5 22.6114 6.5 22.5974 6.5C22.5834 6.5 22.5694 6.5 22.5554 6.5C22.5414 6.5 22.5273 6.5 22.5132 6.5C22.4991 6.5 22.485 6.5 22.4708 6.5C22.4566 6.5 22.4424 6.5 22.4282 6.5C22.4139 6.5 22.3996 6.5 22.3853 6.5C22.371 6.5 22.3567 6.5 22.3423 6.5C22.3279 6.5 22.3135 6.5 22.299 6.5C22.2846 6.5 22.2701 6.5 22.2556 6.5C22.2411 6.5 22.2265 6.5 22.212 6.5C22.1974 6.5 22.1828 6.5 22.1681 6.5C22.1535 6.5 22.1388 6.5 22.1241 6.5C22.1093 6.5 22.0946 6.5 22.0798 6.5C22.065 6.5 22.0502 6.5 22.0354 6.5C22.0205 6.5 22.0056 6.5 21.9907 6.5C21.9758 6.5 21.9609 6.5 21.9459 6.5C21.9309 6.5 21.9159 6.5 21.9008 6.5C21.8858 6.5 21.8707 6.5 21.8556 6.5C21.8405 6.5 21.8254 6.5 21.8102 6.5C21.795 6.5 21.7798 6.5 21.7646 6.5C21.7493 6.5 21.734 6.5 21.7187 6.5C21.7034 6.5 21.6881 6.5 21.6727 6.5C21.6574 6.5 21.642 6.5 21.6265 6.5C21.6111 6.5 21.5957 6.5 21.5802 6.5C21.5647 6.5 21.5491 6.5 21.5336 6.5C21.518 6.5 21.5024 6.5 21.4868 6.5C21.4712 6.5 21.4556 6.5 21.4399 6.5C21.4242 6.5 21.4085 6.5 21.3928 6.5C21.377 6.5 21.3612 6.5 21.3454 6.5C21.3296 6.5 21.3138 6.5 21.2979 6.5C21.2821 6.5 21.2662 6.5 21.2502 6.5C21.2343 6.5 21.2184 6.5 21.2024 6.5C21.1864 6.5 21.1704 6.5 21.1543 6.5C21.1383 6.5 21.1222 6.5 21.1061 6.5C21.09 6.5 21.0739 6.5 21.0577 6.5C21.0415 6.5 21.0253 6.5 21.0091 6.5C20.9929 6.5 20.9766 6.5 20.9604 6.5C20.9441 6.5 20.9278 6.5 20.9114 6.5C20.8951 6.5 20.8787 6.5 20.8623 6.5C20.8459 6.5 20.8295 6.5 20.813 6.5C20.7966 6.5 20.7801 6.5 20.7635 6.5C20.747 6.5 20.7305 6.5 20.7139 6.5C20.6973 6.5 20.6807 6.5 20.6641 6.5C20.6475 6.5 20.6308 6.5 20.6141 6.5C20.5974 6.5 20.5807 6.5 20.564 6.5C20.5472 6.5 20.5305 6.5 20.5137 6.5C20.4969 6.5 20.48 6.5 20.4632 6.5C20.4463 6.5 20.4294 6.5 20.4125 6.5C20.3956 6.5 20.3787 6.5 20.3617 6.5C20.3447 6.5 20.3277 6.5 20.3107 6.5C20.2937 6.5 20.2766 6.5 20.2596 6.5C20.2425 6.5 20.2254 6.5 20.2082 6.5C20.1911 6.5 20.174 6.5 20.1568 6.5C20.1396 6.5 20.1224 6.5 20.1051 6.5C20.0879 6.5 20.0706 6.5 20.0533 6.5C20.036 6.5 20.0187 6.5 20.0014 6.5C19.984 6.5 19.9667 6.5 19.9493 6.5C19.9319 6.5 19.9144 6.5 19.897 6.5C19.8795 6.5 19.862 6.5 19.8445 6.5C19.827 6.5 19.8095 6.5 19.792 6.5C19.7744 6.5 19.7568 6.5 19.7392 6.5C19.7216 6.5 19.704 6.5 19.6863 6.5C19.6687 6.5 19.651 6.5 19.6333 6.5C19.6156 6.5 19.5978 6.5 19.5801 6.5C19.5623 6.5 19.5445 6.5 19.5267 6.5C19.5089 6.5 19.4911 6.5 19.4732 6.5C19.4553 6.5 19.4374 6.5 19.4195 6.5C19.4016 6.5 19.3837 6.5 19.3657 6.5C19.3478 6.5 19.3298 6.5 19.3118 6.5C19.2938 6.5 19.2757 6.5 19.2577 6.5C19.2396 6.5 19.2215 6.5 19.2034 6.5C19.1853 6.5 19.1672 6.5 19.149 6.5C19.1309 6.5 19.1127 6.5 19.0945 6.5C19.0763 6.5 19.0581 6.5 19.0398 6.5C19.0216 6.5 19.0033 6.5 18.985 6.5C18.9667 6.5 18.9484 6.5 18.93 6.5C18.9117 6.5 18.8933 6.5 18.8749 6.5C18.8566 6.5 18.8381 6.5 18.8197 6.5C18.8013 6.5 18.7828 6.5 18.7643 6.5C18.7458 6.5 18.7273 6.5 18.7088 6.5C18.6903 6.5 18.6717 6.5 18.6531 6.5C18.6346 6.5 18.616 6.5 18.5974 6.5C18.5787 6.5 18.5601 6.5 18.5414 6.5C18.5228 6.5 18.5041 6.5 18.4854 6.5C18.4667 6.5 18.4479 6.5 18.4292 6.5C18.4104 6.5 18.3917 6.5 18.3729 6.5C18.3541 6.5 18.3352 6.5 18.3164 6.5C18.2976 6.5 18.2787 6.5 18.2598 6.5C18.2409 6.5 18.222 6.5 18.2031 6.5C18.1842 6.5 18.1652 6.5 18.1463 6.5C18.1273 6.5 18.1083 6.5 18.0893 6.5C18.0703 6.5 18.0512 6.5 18.0322 6.5C18.0131 6.5 17.9941 6.5 17.975 6.5C17.9559 6.5 17.9368 6.5 17.9176 6.5C17.8985 6.5 17.8793 6.5 17.8601 6.5C17.841 6.5 17.8218 6.5 17.8025 6.5C17.7833 6.5 17.7641 6.5 17.7448 6.5C17.7256 6.5 17.7063 6.5 17.687 6.5C17.6677 6.5 17.6484 6.5 17.629 6.5C17.6097 6.5 17.5903 6.5 17.571 6.5C17.5516 6.5 17.5322 6.5 17.5128 6.5C17.4933 6.5 17.4739 6.5 17.4545 6.5C17.435 6.5 17.4155 6.5 17.396 6.5C17.3765 6.5 17.357 6.5 17.3375 6.5C17.3179 6.5 17.2984 6.5 17.2788 6.5C17.2593 6.5 17.2397 6.5 17.2201 6.5C17.2004 6.5 17.1808 6.5 17.1612 6.5C17.1415 6.5 17.1219 6.5 17.1022 6.5C17.0825 6.5 17.0628 6.5 17.0431 6.5C17.0233 6.5 17.0036 6.5 16.9838 6.5C16.9641 6.5 16.9443 6.5 16.9245 6.5C16.9047 6.5 16.8849 6.5 16.8651 6.5C16.8453 6.5 16.8254 6.5 16.8055 6.5C16.7857 6.5 16.7658 6.5 16.7459 6.5C16.726 6.5 16.7061 6.5 16.6861 6.5C16.6662 6.5 16.6463 6.5 16.6263 6.5C16.6063 6.5 16.5863 6.5 16.5663 6.5C16.5463 6.5 16.5263 6.5 16.5063 6.5C16.4862 6.5 16.4662 6.5 16.4461 6.5C16.426 6.5 16.4059 6.5 16.3858 6.5C16.3657 6.5 16.3456 6.5 16.3255 6.5C16.3053 6.5 16.2852 6.5 16.265 6.5C16.2448 6.5 16.2246 6.5 16.2044 6.5C16.1842 6.5 16.164 6.5 16.1438 6.5C16.1236 6.5 16.1033 6.5 16.083 6.5C16.0628 6.5 16.0425 6.5 16.0222 6.5C16.0019 6.5 15.9816 6.5 15.9612 6.5C15.9409 6.5 15.9206 6.5 15.9002 6.5C15.8798 6.5 15.8595 6.5 15.8391 6.5C15.8187 6.5 15.7983 6.5 15.7779 6.5C15.7574 6.5 15.737 6.5 15.7165 6.5C15.6961 6.5 15.6756 6.5 15.6551 6.5C15.6347 6.5 15.6142 6.5 15.5937 6.5C15.5731 6.5 15.5526 6.5 15.5321 6.5C15.5115 6.5 15.491 6.5 15.4704 6.5C15.4498 6.5 15.4293 6.5 15.4087 6.5C15.3881 6.5 15.3675 6.5 15.3468 6.5C15.3262 6.5 15.3056 6.5 15.2849 6.5C15.2643 6.5 15.2436 6.5 15.2229 6.5C15.2022 6.5 15.1815 6.5 15.1608 6.5C15.1401 6.5 15.1194 6.5 15.0987 6.5C15.0779 6.5 15.0572 6.5 15.0364 6.5C15.0157 6.5 14.9949 6.5 14.9741 6.5C14.9533 6.5 14.9325 6.5 14.9117 6.5C14.8909 6.5 14.8701 6.5 14.8492 6.5C14.8284 6.5 14.8075 6.5 14.7867 6.5C14.7658 6.5 14.7449 6.5 14.724 6.5C14.7031 6.5 14.6822 6.5 14.6613 6.5C14.6404 6.5 14.6195 6.5 14.5985 6.5C14.5776 6.5 14.5567 6.5 14.5357 6.5C14.5147 6.5 14.4937 6.5 14.4728 6.5C14.4518 6.5 14.4308 6.5 14.4098 6.5C14.3888 6.5 14.3677 6.5 14.3467 6.5C14.3257 6.5 14.3046 6.5 14.2836 6.5C14.2625 6.5 14.2414 6.5 14.2204 6.5C14.1993 6.5 14.1782 6.5 14.1571 6.5C14.136 6.5 14.1149 6.5 14.0938 6.5C14.0726 6.5 14.0515 6.5 14.0304 6.5C14.0092 6.5 13.988 6.5 13.9669 6.5C13.9457 6.5 13.9245 6.5 13.9034 6.5C13.8822 6.5 13.861 6.5 13.8398 6.5C13.8186 6.5 13.7973 6.5 13.7761 6.5C13.7549 6.5 13.7336 6.5 13.7124 6.5C13.6911 6.5 13.6699 6.5 13.6486 6.5C13.6273 6.5 13.6061 6.5 13.5848 6.5C13.5635 6.5 13.5422 6.5 13.5209 6.5C13.4996 6.5 13.4783 6.5 13.4569 6.5C13.4356 6.5 13.4143 6.5 13.3929 6.5C13.3716 6.5 13.3502 6.5 13.3289 6.5C13.3075 6.5 13.2861 6.5 13.2648 6.5C13.2434 6.5 13.222 6.5 13.2006 6.5C13.1792 6.5 13.1578 6.5 13.1364 6.5C13.1149 6.5 13.0935 6.5 13.0721 6.5C13.0507 6.5 13.0292 6.5 13.0078 6.5C12.9863 6.5 12.9649 6.5 12.9434 6.5C12.9219 6.5 12.9005 6.5 12.879 6.5C12.8575 6.5 12.836 6.5 12.8145 6.5C12.793 6.5 12.7715 6.5 12.75 6.5C12.7285 6.5 12.7069 6.5 12.6854 6.5C12.6639 6.5 12.6424 6.5 12.6208 6.5C12.5993 6.5 12.5777 6.5 12.5562 6.5C12.5346 6.5 12.513 6.5 12.4915 6.5C12.4699 6.5 12.4483 6.5 12.4267 6.5C12.4051 6.5 12.3835 6.5 12.3619 6.5C12.3403 6.5 12.3187 6.5 12.2971 6.5C12.2755 6.5 12.2539 6.5 12.2323 6.5C12.2106 6.5 12.189 6.5 12.1674 6.5C12.1457 6.5 12.1241 6.5 12.1024 6.5C12.0808 6.5 12.0591 6.5 12.0375 6.5C12.0158 6.5 11.9941 6.5 11.9725 6.5C11.9508 6.5 11.9291 6.5 11.9074 6.5C11.8857 6.5 11.864 6.5 11.8423 6.5C11.8206 6.5 11.7989 6.5 11.7772 6.5C11.7555 6.5 11.7338 6.5 11.7121 6.5C11.6904 6.5 11.6686 6.5 11.6469 6.5C11.6252 6.5 11.6035 6.5 11.5817 6.5C11.56 6.5 11.5382 6.5 11.5165 6.5C11.4947 6.5 11.473 6.5 11.4512 6.5C11.4295 6.5 11.4077 6.5 11.3859 6.5C11.3642 6.5 11.3424 6.5 11.3206 6.5C11.2988 6.5 11.2771 6.5 11.2553 6.5C11.2335 6.5 11.2117 6.5 11.1899 6.5C11.1681 6.5 11.1463 6.5 11.1245 6.5C11.1027 6.5 11.0809 6.5 11.0591 6.5C11.0373 6.5 11.0155 6.5 10.9937 6.5C10.9719 6.5 10.95 6.5 10.9282 6.5C10.9064 6.5 10.8846 6.5 10.8627 6.5C10.8409 6.5 10.8191 6.5 10.7973 6.5C10.7754 6.5 10.7536 6.5 10.7317 6.5C10.7099 6.5 10.6881 6.5 10.6662 6.5C10.6444 6.5 10.6225 6.5 10.6007 6.5C10.5788 6.5 10.557 6.5 10.5351 6.5C10.5132 6.5 10.4914 6.5 10.4695 6.5C10.4477 6.5 10.4258 6.5 10.4039 6.5C10.3821 6.5 10.3602 6.5 10.3383 6.5C10.3165 6.5 10.2946 6.5 10.2727 6.5C10.2508 6.5 10.229 6.5 10.2071 6.5C10.1852 6.5 10.1633 6.5 10.1415 6.5C10.1196 6.5 10.0977 6.5 10.0758 6.5C10.0539 6.5 10.0321 6.5 10.0102 6.5C9.98828 6.5 9.9664 6.5 9.94451 6.5C9.92262 6.5 9.90073 6.5 9.87885 6.5C9.85696 6.5 9.83507 6.5 9.81318 6.5C9.79128 6.5 9.76939 6.5 9.7475 6.5C9.72561 6.5 9.70372 6.5 9.68182 6.5C9.65993 6.5 9.63804 6.5 9.61614 6.5C9.59425 6.5 9.57235 6.5 9.55046 6.5C9.52857 6.5 9.50667 6.5 9.48478 6.5C9.46288 6.5 9.44099 6.5 9.4191 6.5C9.3972 6.5 9.37531 6.5 9.35341 6.5C9.33152 6.5 9.30963 6.5 9.28774 6.5C9.26584 6.5 9.24395 6.5 9.22206 6.5C9.20017 6.5 9.17828 6.5 9.15639 6.5C9.1345 6.5 9.11261 6.5 9.09072 6.5C9.06883 6.5 9.04695 6.5 9.02506 6.5C9.00317 6.5 8.98129 6.5 8.95941 6.5C8.93752 6.5 8.91564 6.5 8.89376 6.5C8.87188 6.5 8.85 6.5 8.82812 6.5C8.80624 6.5 8.78437 6.5 8.76249 6.5C8.74062 6.5 8.71875 6.5 8.69688 6.5C8.67501 6.5 8.65314 6.5 8.63127 6.5C8.6094 6.5 8.58754 6.5 8.56568 6.5C8.54381 6.5 8.52195 6.5 8.50009 6.5C8.47824 6.5 8.45638 6.5 8.43453 6.5C8.41268 6.5 8.39082 6.5 8.36898 6.5C8.34713 6.5 8.32528 6.5 8.30344 6.5C8.2816 6.5 8.25976 6.5 8.23792 6.5C8.21609 6.5 8.19425 6.5 8.17242 6.5C8.15059 6.5 8.12876 6.5 8.10694 6.5C8.08512 6.5 8.0633 6.5 8.04148 6.5C8.01966 6.5 7.99785 6.5 7.97604 6.5C7.95423 6.5 7.93242 6.5 7.91062 6.5C7.88881 6.5 7.86702 6.5 7.84522 6.5C7.82342 6.5 7.80163 6.5 7.77985 6.5C7.75806 6.5 7.73628 6.5 7.7145 6.5C7.69272 6.5 7.67094 6.5 7.64917 6.5C7.6274 6.5 7.60564 6.5 7.58387 6.5C7.56211 6.5 7.54036 6.5 7.5186 6.5C7.49685 6.5 7.4751 6.5 7.45336 6.5C7.43162 6.5 7.40988 6.5 7.38815 6.5C7.36641 6.5 7.34469 6.5 7.32296 6.5C7.30124 6.5 7.27952 6.5 7.25781 6.5C7.2361 6.5 7.21439 6.5 7.19269 6.5C7.17099 6.5 7.14929 6.5 7.1276 6.5C7.10591 6.5 7.08423 6.5 7.06255 6.5C7.04087 6.5 7.01919 6.5 6.99753 6.5C6.97586 6.5 6.9542 6.5 6.93254 6.5C6.91088 6.5 6.88924 6.5 6.86759 6.5C6.84595 6.5 6.82431 6.5 6.80268 6.5C6.78105 6.5 6.75943 6.5 6.73781 6.5C6.71619 6.5 6.69458 6.5 6.67297 6.5C6.65137 6.5 6.62977 6.5 6.60818 6.5C6.58659 6.5 6.56501 6.5 6.54343 6.5C6.52185 6.5 6.50028 6.5 6.47872 6.5C6.45715 6.5 6.4356 6.5 6.41405 6.5C6.3925 6.5 6.37096 6.5 6.34943 6.5C6.32789 6.5 6.30637 6.5 6.28485 6.5C6.26333 6.5 6.24182 6.5 6.22031 6.5C6.19881 6.5 6.17731 6.5 6.15583 6.5C6.13434 6.5 6.11286 6.5 6.09139 6.5C6.06992 6.5 6.04845 6.5 6.027 6.5C6.00554 6.5 5.98409 6.5 5.96266 6.5C5.94122 6.5 5.91979 6.5 5.89836 6.5C5.87694 6.5 5.85553 6.5 5.83412 6.5C5.81272 6.5 5.79132 6.5 5.76994 6.5C5.74855 6.5 5.72717 6.5 5.7058 6.5C5.68443 6.5 5.66307 6.5 5.64172 6.5C5.62037 6.5 5.59903 6.5 5.57769 6.5C5.55636 6.5 5.53504 6.5 5.51372 6.5C5.49241 6.5 5.47111 6.5 5.44981 6.5C5.42852 6.5 5.40723 6.5 5.38595 6.5C5.36468 6.5 5.34341 6.5 5.32216 6.5C5.3009 6.5 5.27966 6.5 5.25842 6.5C5.23719 6.5 5.21596 6.5 5.19474 6.5C5.17353 6.5 5.15232 6.5 5.13113 6.5C5.10993 6.5 5.08875 6.5 5.06757 6.5C5.0464 6.5 5.02524 6.5 5.00409 6.5C4.98293 6.5 4.96179 6.5 4.94066 6.5C4.91953 6.5 4.89841 6.5 4.8773 6.5C4.85619 6.5 4.83509 6.5 4.814 6.5C4.79292 6.5 4.77184 6.5 4.75078 6.5C4.72971 6.5 4.70866 6.5 4.68762 6.5C4.66657 6.5 4.64554 6.5 4.62453 6.5C4.60351 6.5 4.5825 6.5 4.5615 6.5C4.54051 6.5 4.51953 6.5 4.49855 6.5C4.47758 6.5 4.45662 6.5 4.43567 6.5C4.41473 6.5 4.39379 6.5 4.37287 6.5C4.35194 6.5 4.33103 6.5 4.31013 6.5C4.28924 6.5 4.26835 6.5 4.24748 6.5C4.2266 6.5 4.20574 6.5 4.18489 6.5C4.16404 6.5 4.14321 6.5 4.12239 6.5C4.10156 6.5 4.08075 6.5 4.05996 6.5C4.03916 6.5 4.01837 6.5 3.9976 6.5C3.97683 6.5 3.95607 6.5 3.93533 6.5C3.91459 6.5 3.89385 6.5 3.87314 6.5C3.85242 6.5 3.83172 6.5 3.81102 6.5C3.79033 6.5 3.76966 6.5 3.74899 6.5C3.72833 6.5 3.70768 6.5 3.68705 6.5C3.66641 6.5 3.64579 6.5 3.62518 6.5C3.60458 6.5 3.58398 6.5 3.5634 6.5C3.54282 6.5 3.52226 6.5 3.50171 6.5C3.48116 6.5 3.46062 6.5 3.4401 6.5C3.41958 6.5 3.39907 6.5 3.37858 6.5C3.35809 6.5 3.33761 6.5 3.31715 6.5C3.29669 6.5 3.27624 6.5 3.25581 6.5C3.23537 6.5 3.21496 6.5 3.19455 6.5C3.17415 6.5 3.15376 6.5 3.13339 6.5C3.11302 6.5 3.09266 6.5 3.07232 6.5C3.05198 6.5 3.03165 6.5 3.01134 6.5C2.99103 6.5 2.97074 6.5 2.95046 6.5C2.93018 6.5 2.90992 6.5 2.88967 6.5C2.86943 6.5 2.84919 6.5 2.82898 6.5C2.80876 6.5 2.78857 6.5 2.76838 6.5C2.7482 6.5 2.72803 6.5 2.70788 6.5C2.68773 6.5 2.6676 6.5 2.64748 6.5C2.62737 6.5 2.60727 6.5 2.58718 6.5C2.5671 6.5 2.54703 6.5 2.52698 6.5C2.50693 6.5 2.4869 6.5 2.46688 6.5C2.44687 6.5 2.42687 6.5 2.40689 6.5C2.3869 6.5 2.36694 6.5 2.34699 6.5C2.32704 6.5 2.30711 6.5 2.2872 6.5C2.26729 6.5 2.24739 6.5 2.22752 6.5C2.20764 6.5 2.18778 6.5 2.16794 6.5C2.14809 6.5 2.12827 6.5 2.10846 6.5C2.08866 6.5 2.06887 6.5 2.0491 6.5C2.02933 6.5 2.00958 6.5 1.98984 6.5C1.97011 6.5 1.95039 6.5 1.9307 6.5C1.911 6.5 1.89132 6.5 1.87166 6.5C1.852 6.5 1.83236 6.5 1.81273 6.5C1.79311 6.5 1.77351 6.5 1.75392 6.5C1.73434 6.5 1.71477 6.5 1.69522 6.5C1.67567 6.5 1.65615 6.5 1.63664 6.5C1.61713 6.5 1.59764 6.5 1.57817 6.5C1.5587 6.5 1.53924 6.5 1.51981 6.5C1.50038 6.5 1.48097 6.5 1.46158 6.5C1.44218 6.5 1.42281 6.5 1.40346 6.5C1.3841 6.5 1.36477 6.5 1.34546 6.5C1.32614 6.5 1.30685 6.5 1.28758 6.5C1.2683 6.5 1.24905 6.5 1.22982 6.5C1.21058 6.5 1.19137 6.5 1.17218 6.5C1.15298 6.5 1.13381 6.5 1.11466 6.5C1.09551 6.5 1.07638 6.5 1.05727 6.5C1.03816 6.5 1.01907 6.5 1 6.5V8.5Z" fill="#222222"/>
</svg>
