<svg width="24" height="24" viewBox="0 0 24 24" fill="none" xmlns="http://www.w3.org/2000/svg">
<g clip-path="url(#clip0_1803_155608)">
<path d="M18.3909 3.97886C18.4014 3.97962 18.4118 3.98038 18.4224 3.98038C18.4405 3.98038 18.4585 3.97886 18.4762 3.97639C18.9487 3.98607 19.3269 4.37149 19.3275 4.84406C19.3275 5.05879 19.5016 5.2329 19.7164 5.2329C19.9311 5.2329 20.1052 5.05879 20.1052 4.84406C20.1042 4.07113 19.5662 3.40244 18.8113 3.23612V2.86247C18.8113 2.64774 18.6372 2.47363 18.4224 2.47363C18.2077 2.47363 18.0336 2.64774 18.0336 2.86247V3.25378C17.2354 3.46718 16.719 4.23935 16.8267 5.0586C16.9343 5.87786 17.6326 6.49035 18.4589 6.49035C18.9387 6.49035 19.3275 6.87938 19.3275 7.35916C19.3275 7.83875 18.9387 8.22778 18.4589 8.22778C17.9791 8.22778 17.5903 7.83875 17.5903 7.35916C17.5903 7.14443 17.4162 6.97032 17.2014 6.97032C16.9867 6.97032 16.8126 7.14443 16.8126 7.35916C16.8136 8.10418 17.314 8.75597 18.0336 8.94944V9.37549C18.0336 9.59023 18.2077 9.76433 18.4224 9.76433C18.6372 9.76433 18.8113 9.59023 18.8113 9.37549V8.96729C19.6324 8.78749 20.1863 8.01779 20.0957 7.18202C20.0053 6.34625 19.2996 5.71287 18.4589 5.71306C17.9924 5.71325 17.6091 5.34491 17.5907 4.8788C17.5724 4.41269 17.9258 4.01531 18.3909 3.97905V3.97886Z" fill="#222222"/>
<path d="M12.1737 22.6448H3.06418H3.06171C1.80388 22.6431 0.78337 21.626 0.777674 20.3679L12.1737 22.6448ZM12.1737 22.6448C12.2032 22.6827 12.2336 22.72 12.2646 22.7568L12.1737 22.6448ZM12.7227 22.7568L12.4851 22.996C12.4849 22.9957 12.4846 22.9955 12.4844 22.9952C12.5122 23.023 12.5378 23.0454 12.5562 23.061C12.5688 23.0717 12.5852 23.085 12.5932 23.0916L12.5973 23.095C12.6051 23.1014 12.6077 23.1038 12.6069 23.103C12.6057 23.102 12.5979 23.0948 12.5886 23.0842L12.961 22.7568H12.7227ZM12.7227 22.7568L12.8341 22.6448L12.7227 22.7568Z" fill="#222222" stroke="#222222" stroke-width="1.33123"/>
<path d="M7.26017 10.894C6.57382 10.894 6.01562 11.4346 6.01562 12.0991C6.01562 12.7636 6.57382 13.3042 7.26017 13.3042C7.94652 13.3042 8.5049 12.7636 8.5049 12.0991C8.5049 11.4346 7.94652 10.894 7.26017 10.894V10.894ZM7.26017 12.5265C7.00253 12.5265 6.7933 12.3347 6.7933 12.0991C6.7933 11.8633 7.00272 11.6717 7.26017 11.6717C7.51762 11.6717 7.72723 11.8635 7.72723 12.0991C7.72723 12.3347 7.51762 12.5265 7.26017 12.5265Z" fill="#222222"/>
<path d="M9.36719 12.0973C9.36719 12.3121 9.5411 12.4862 9.75602 12.4862H14.94C15.1547 12.4862 15.3289 12.3121 15.3289 12.0973C15.3289 11.8826 15.1547 11.7085 14.94 11.7085H9.75602C9.5411 11.7085 9.36719 11.8826 9.36719 12.0973Z" fill="#222222"/>
<path d="M7.26017 7.51416C6.57382 7.51416 6.01562 8.05489 6.01562 8.7194C6.01562 9.38392 6.57382 9.92446 7.26017 9.92446C7.94652 9.92446 8.5049 9.38392 8.5049 8.7194C8.5049 8.05489 7.94652 7.51416 7.26017 7.51416ZM7.26017 9.14678C7.00253 9.14678 6.7933 8.95502 6.7933 8.7194C6.7933 8.48378 7.00272 8.29183 7.26017 8.29183C7.51762 8.29183 7.72723 8.4836 7.72723 8.7194C7.72723 8.95502 7.51762 9.14697 7.26017 9.14697V9.14678Z" fill="#222222"/>
<path d="M7.26017 14.2739C6.57382 14.2739 6.01562 14.8145 6.01562 15.479C6.01562 16.1435 6.57382 16.684 7.26017 16.684C7.94652 16.684 8.5049 16.1435 8.5049 15.479C8.5049 14.8145 7.94652 14.2739 7.26017 14.2739ZM7.26017 15.9064C7.00253 15.9064 6.7933 15.7148 6.7933 15.479C6.7933 15.2434 7.00272 15.0516 7.26017 15.0516C7.51762 15.0516 7.72723 15.2434 7.72723 15.479C7.72723 15.7146 7.51762 15.9064 7.26017 15.9064V15.9064Z" fill="#222222"/>
<path d="M14.94 15.1108H9.75602C9.5411 15.1108 9.36719 15.2849 9.36719 15.4997C9.36719 15.7144 9.5411 15.8885 9.75602 15.8885H14.94C15.1547 15.8885 15.3289 15.7144 15.3289 15.4997C15.3289 15.2849 15.1547 15.1108 14.94 15.1108Z" fill="#222222"/>
</g>
<defs>
<clipPath id="clip0_1803_155608">
<rect width="24" height="24" fill="white"/>
</clipPath>
</defs>
</svg>
