<svg width="24" height="24" viewBox="0 0 24 24" fill="none" xmlns="http://www.w3.org/2000/svg">
<g clip-path="url(#clip0_1088_179600)">
<path d="M18.3909 3.97837C18.4014 3.97913 18.4118 3.97989 18.4224 3.97989C18.4405 3.97989 18.4585 3.97837 18.4762 3.9759C18.9487 3.98558 19.3269 4.371 19.3275 4.84357C19.3275 5.0583 19.5016 5.23241 19.7164 5.23241C19.9311 5.23241 20.1052 5.0583 20.1052 4.84357C20.1042 4.07064 19.5662 3.40195 18.8113 3.23563V2.86198C18.8113 2.64725 18.6372 2.47314 18.4224 2.47314C18.2077 2.47314 18.0336 2.64725 18.0336 2.86198V3.25329C17.2354 3.46669 16.719 4.23886 16.8267 5.05811C16.9343 5.87737 17.6326 6.48986 18.4589 6.48986C18.9387 6.48986 19.3275 6.87889 19.3275 7.35867C19.3275 7.83826 18.9387 8.22729 18.4589 8.22729C17.9791 8.22729 17.5903 7.83826 17.5903 7.35867C17.5903 7.14394 17.4162 6.96983 17.2014 6.96983C16.9867 6.96983 16.8126 7.14394 16.8126 7.35867C16.8136 8.10369 17.314 8.75548 18.0336 8.94895V9.375C18.0336 9.58974 18.2077 9.76384 18.4224 9.76384C18.6372 9.76384 18.8113 9.58974 18.8113 9.375V8.9668C19.6324 8.787 20.1863 8.0173 20.0957 7.18153C20.0053 6.34576 19.2996 5.71238 18.4589 5.71257C17.9924 5.71276 17.6091 5.34443 17.5907 4.87831C17.5724 4.4122 17.9258 4.01482 18.3909 3.97856V3.97837Z" fill="white"/>
<mask id="path-2-inside-1_1088_179600" fill="white">
<path d="M18.4798 0.572266C16.0878 0.572266 14.0464 2.13312 13.2816 4.22312H3.63073C3.41694 4.22312 3.24341 4.41583 3.24189 4.62942L3.15 18.2699H0.39909C0.184356 18.2699 0 18.4254 0 18.6405V20.3714C0.00493638 22.001 1.2884 23.3397 2.91628 23.4134V23.422H14.9216V23.4106C15.0188 23.4142 15.0589 23.422 15.1204 23.422H15.1288C16.8136 23.4193 18.1781 22.0527 18.1781 20.3678V11.616C18.2753 11.6213 18.3783 11.6241 18.4789 11.6241C21.5229 11.6241 24.0001 9.14225 24.0001 6.09801C24.0001 3.05395 21.5241 0.572266 18.4798 0.572266ZM3.06418 22.6443H3.06171C1.80388 22.6426 0.78337 21.6255 0.777674 20.3675V19.0475H12.054V20.3619C12.0545 21.1734 12.3786 21.9513 12.9543 22.5233C12.9951 22.5642 13.0458 22.5957 13.0885 22.6443H3.06418ZM17.4005 20.3675C17.4007 21.6232 16.3839 22.6418 15.1284 22.6443H15.121C13.8603 22.642 12.8379 21.6228 12.8316 20.3623V18.6405C12.8349 18.541 12.7969 18.4447 12.7264 18.3745C12.656 18.3042 12.5597 18.2664 12.4604 18.2699H3.92767L4.01691 5.00079H13.0657C12.9968 5.35679 12.9611 5.71828 12.9592 6.08073C12.9585 6.8472 13.1183 7.60513 13.4286 8.30591H9.75586C9.54094 8.30591 9.36703 8.48001 9.36703 8.69475C9.36703 8.90948 9.54094 9.08358 9.75586 9.08358H13.8504C14.6526 10.345 15.9349 11.2245 17.4005 11.5188V20.3675ZM18.4798 10.8466C15.8605 10.8466 13.7369 8.72323 13.7371 6.1037C13.7371 3.48418 15.8605 1.36076 18.48 1.36076C21.0994 1.36076 23.2228 3.48437 23.2228 6.1037C23.2199 8.7219 21.0982 10.8438 18.4798 10.8466Z"/>
</mask>
<path d="M18.4798 0.572266C16.0878 0.572266 14.0464 2.13312 13.2816 4.22312H3.63073C3.41694 4.22312 3.24341 4.41583 3.24189 4.62942L3.15 18.2699H0.39909C0.184356 18.2699 0 18.4254 0 18.6405V20.3714C0.00493638 22.001 1.2884 23.3397 2.91628 23.4134V23.422H14.9216V23.4106C15.0188 23.4142 15.0589 23.422 15.1204 23.422H15.1288C16.8136 23.4193 18.1781 22.0527 18.1781 20.3678V11.616C18.2753 11.6213 18.3783 11.6241 18.4789 11.6241C21.5229 11.6241 24.0001 9.14225 24.0001 6.09801C24.0001 3.05395 21.5241 0.572266 18.4798 0.572266ZM3.06418 22.6443H3.06171C1.80388 22.6426 0.78337 21.6255 0.777674 20.3675V19.0475H12.054V20.3619C12.0545 21.1734 12.3786 21.9513 12.9543 22.5233C12.9951 22.5642 13.0458 22.5957 13.0885 22.6443H3.06418ZM17.4005 20.3675C17.4007 21.6232 16.3839 22.6418 15.1284 22.6443H15.121C13.8603 22.642 12.8379 21.6228 12.8316 20.3623V18.6405C12.8349 18.541 12.7969 18.4447 12.7264 18.3745C12.656 18.3042 12.5597 18.2664 12.4604 18.2699H3.92767L4.01691 5.00079H13.0657C12.9968 5.35679 12.9611 5.71828 12.9592 6.08073C12.9585 6.8472 13.1183 7.60513 13.4286 8.30591H9.75586C9.54094 8.30591 9.36703 8.48001 9.36703 8.69475C9.36703 8.90948 9.54094 9.08358 9.75586 9.08358H13.8504C14.6526 10.345 15.9349 11.2245 17.4005 11.5188V20.3675ZM18.4798 10.8466C15.8605 10.8466 13.7369 8.72323 13.7371 6.1037C13.7371 3.48418 15.8605 1.36076 18.48 1.36076C21.0994 1.36076 23.2228 3.48437 23.2228 6.1037C23.2199 8.7219 21.0982 10.8438 18.4798 10.8466Z" fill="white"/>
<path d="M13.2816 4.22312V5.55435H14.212L14.5318 4.68057L13.2816 4.22312ZM3.24189 4.62942L1.9107 4.61996L1.91069 4.62046L3.24189 4.62942ZM3.15 18.2699V19.6011H4.47229L4.4812 18.2788L3.15 18.2699ZM0 20.3714H-1.33123L-1.33122 20.3755L0 20.3714ZM2.91628 23.4134H4.24751V22.1411L2.97646 22.0835L2.91628 23.4134ZM2.91628 23.422H1.58505V24.7532H2.91628V23.422ZM14.9216 23.422V24.7532H16.2529V23.422H14.9216ZM14.9216 23.4106L14.971 22.0803L13.5904 22.029V23.4106H14.9216ZM15.1288 23.422V24.7532L15.1309 24.7532L15.1288 23.422ZM18.1781 11.616L18.2508 10.2867L16.8469 10.2099V11.616H18.1781ZM3.06171 22.6443L3.0599 23.9755H3.06171V22.6443ZM0.777674 20.3675H-0.553567L-0.553539 20.3735L0.777674 20.3675ZM0.777674 19.0475V17.7163H-0.553553V19.0475H0.777674ZM12.054 19.0475H13.3852V17.7163H12.054V19.0475ZM12.054 20.3619H10.7227L10.7227 20.3629L12.054 20.3619ZM12.9543 22.5233L13.8956 21.582L13.8926 21.5791L12.9543 22.5233ZM13.0885 22.6443V23.9755H16.0309L14.0884 21.7655L13.0885 22.6443ZM17.4005 20.3675H16.0692V20.3677L17.4005 20.3675ZM15.1284 22.6443V23.9755L15.131 23.9755L15.1284 22.6443ZM15.121 22.6443L15.1186 23.9755H15.121V22.6443ZM12.8316 20.3623H11.5004L11.5004 20.3689L12.8316 20.3623ZM12.8316 18.6405L11.5011 18.5973L11.5004 18.6189V18.6405H12.8316ZM12.7264 18.3745L13.6665 17.4319L12.7264 18.3745ZM12.4604 18.2699V19.6011H12.4833L12.5062 19.6003L12.4604 18.2699ZM3.92767 18.2699L2.59648 18.2609L2.58746 19.6011H3.92767V18.2699ZM4.01691 5.00079V3.66957H2.6946L2.68571 4.99184L4.01691 5.00079ZM13.0657 5.00079L14.3727 5.25382L14.6794 3.66957H13.0657V5.00079ZM12.9592 6.08073L11.628 6.07376L11.628 6.07941L12.9592 6.08073ZM13.4286 8.30591V9.63714H15.4737L14.6458 7.76702L13.4286 8.30591ZM13.8504 9.08358L14.9738 8.36924L14.5815 7.75236H13.8504V9.08358ZM17.4005 11.5188H18.7317V10.4283L17.6625 10.2136L17.4005 11.5188ZM18.4798 10.8466V12.1779L18.4813 12.1779L18.4798 10.8466ZM13.7371 6.1037L15.0683 6.1038V6.1037H13.7371ZM23.2228 6.1037L24.554 6.10515V6.1037H23.2228ZM18.4798 -0.758962C15.4991 -0.758962 12.9777 1.17952 12.0314 3.76567L14.5318 4.68057C15.115 3.08672 16.6765 1.90349 18.4798 1.90349V-0.758962ZM13.2816 2.89189H3.63073V5.55435H13.2816V2.89189ZM3.63073 2.89189C2.5992 2.89189 1.91678 3.76418 1.9107 4.61996L4.57309 4.63889C4.57132 4.88691 4.47268 5.10243 4.32725 5.25734C4.1787 5.41557 3.93678 5.55435 3.63073 5.55435V2.89189ZM1.91069 4.62046L1.8188 18.2609L4.4812 18.2788L4.57309 4.63839L1.91069 4.62046ZM3.15 16.9386H0.39909V19.6011H3.15V16.9386ZM0.39909 16.9386C-0.41797 16.9386 -1.33123 17.5639 -1.33123 18.6405H1.33123C1.33123 19.2868 0.786681 19.6011 0.39909 19.6011V16.9386ZM-1.33123 18.6405V20.3714H1.33123V18.6405H-1.33123ZM-1.33122 20.3755C-1.32413 22.7153 0.518723 24.6375 2.8561 24.7433L2.97646 22.0835C2.05808 22.042 1.33401 21.2867 1.33122 20.3674L-1.33122 20.3755ZM1.58505 23.4134V23.422H4.24751V23.4134H1.58505ZM2.91628 24.7532H14.9216V22.0907H2.91628V24.7532ZM16.2529 23.422V23.4106H13.5904V23.422H16.2529ZM14.8723 24.7409C14.8896 24.7415 14.8988 24.7422 14.9279 24.7446C14.9583 24.747 15.031 24.7532 15.1204 24.7532V22.0907C15.1483 22.0907 15.1702 22.093 15.1409 22.0907C15.1103 22.0882 15.0509 22.0832 14.971 22.0803L14.8723 24.7409ZM15.1204 24.7532H15.1288V22.0907H15.1204V24.7532ZM15.1309 24.7532C17.5501 24.7494 19.5094 22.7871 19.5094 20.3678H16.8469C16.8469 21.3182 16.0771 22.0892 15.1267 22.0907L15.1309 24.7532ZM19.5094 20.3678V11.616H16.8469V20.3678H19.5094ZM18.1054 12.9452C18.2269 12.9518 18.3541 12.9554 18.4789 12.9554V10.2929C18.4024 10.2929 18.3238 10.2907 18.2508 10.2867L18.1054 12.9452ZM18.4789 12.9554C22.2597 12.9554 25.3313 9.87595 25.3313 6.09801H22.6688C22.6688 8.40855 20.7862 10.2929 18.4789 10.2929V12.9554ZM25.3313 6.09801C25.3313 2.32049 22.261 -0.758962 18.4798 -0.758962V1.90349C20.7871 1.90349 22.6688 3.78741 22.6688 6.09801H25.3313ZM3.06418 21.3131H3.06171V23.9755H3.06418V21.3131ZM3.06352 21.3131C2.53778 21.3123 2.11127 20.8872 2.10889 20.3614L-0.553539 20.3735C-0.544528 22.3637 1.06998 23.9728 3.0599 23.9755L3.06352 21.3131ZM2.1089 20.3675V19.0475H-0.553553V20.3675H2.1089ZM0.777674 20.3788H12.054V17.7163H0.777674V20.3788ZM10.7227 19.0475V20.3619H13.3852V19.0475H10.7227ZM10.7227 20.3629C10.7235 21.5287 11.1891 22.646 12.0159 23.4676L13.8926 21.5791C13.5681 21.2565 13.3855 20.8181 13.3852 20.361L10.7227 20.3629ZM12.013 23.4647C12.0589 23.5106 12.1 23.5464 12.126 23.5684C12.1392 23.5795 12.1509 23.5892 12.1584 23.5954C12.1621 23.5984 12.166 23.6016 12.1682 23.6034C12.1709 23.6056 12.1726 23.607 12.1739 23.608C12.18 23.6131 12.1707 23.6057 12.1567 23.5928C12.1414 23.5789 12.1169 23.5554 12.0886 23.5231L14.0884 21.7655C13.9924 21.6562 13.8992 21.5799 13.8675 21.5537C13.8616 21.5489 13.8486 21.5382 13.8484 21.5381C13.8446 21.5349 13.8449 21.5352 13.847 21.5369C13.8506 21.54 13.8701 21.5565 13.8956 21.582L12.013 23.4647ZM13.0885 21.3131H3.06418V23.9755H13.0885V21.3131ZM16.0692 20.3677C16.0693 20.889 15.6472 21.312 15.1258 21.3131L15.131 23.9755C17.1207 23.9716 18.732 22.3574 18.7317 20.3673L16.0692 20.3677ZM15.1284 21.3131H15.121V23.9755H15.1284V21.3131ZM15.1234 21.3131C14.5943 21.3121 14.1655 20.8845 14.1628 20.3557L11.5004 20.3689C11.5103 22.3612 13.1263 23.9719 15.1186 23.9755L15.1234 21.3131ZM14.1629 20.3623V18.6405H11.5004V20.3623H14.1629ZM14.1622 18.6836C14.1773 18.2173 13.9991 17.7636 13.6665 17.4319L11.7864 19.3171C11.5947 19.1259 11.4924 18.8647 11.5011 18.5973L14.1622 18.6836ZM13.6665 17.4319C13.3348 17.1011 12.8815 16.9234 12.4147 16.9394L12.5062 19.6003C12.238 19.6095 11.9772 19.5073 11.7864 19.3171L13.6665 17.4319ZM12.4604 16.9386H3.92767V19.6011H12.4604V16.9386ZM5.25887 18.2788L5.3481 5.00975L2.68571 4.99184L2.59648 18.2609L5.25887 18.2788ZM4.01691 6.33202H13.0657V3.66957H4.01691V6.33202ZM11.7588 4.74777C11.6742 5.18467 11.6303 5.62853 11.628 6.07376L14.2904 6.0877C14.2919 5.80803 14.3194 5.5289 14.3727 5.25382L11.7588 4.74777ZM11.628 6.07941C11.627 7.03191 11.8257 7.97387 12.2113 8.8448L14.6458 7.76702C14.4109 7.23639 14.2899 6.66249 14.2904 6.08205L11.628 6.07941ZM13.4286 6.97468H9.75586V9.63714H13.4286V6.97468ZM9.75586 6.97468C8.8053 6.97468 8.0358 7.74522 8.0358 8.69475H10.6983C10.6983 9.21481 10.2766 9.63714 9.75586 9.63714V6.97468ZM8.0358 8.69475C8.0358 9.64427 8.8053 10.4148 9.75586 10.4148V7.75236C10.2766 7.75236 10.6983 8.17469 10.6983 8.69475H8.0358ZM9.75586 10.4148H13.8504V7.75236H9.75586V10.4148ZM12.7271 9.79793C13.7239 11.3655 15.3174 12.4583 17.1384 12.8239L17.6625 10.2136C16.5525 9.99067 15.5812 9.32454 14.9738 8.36924L12.7271 9.79793ZM16.0692 11.5188V20.3675H18.7317V11.5188H16.0692ZM18.4798 9.51542C16.5957 9.51542 15.0682 7.98798 15.0683 6.1038L12.4059 6.10361C12.4056 9.45848 15.1253 12.1779 18.4798 12.1779V9.51542ZM15.0683 6.1037C15.0683 4.21939 16.5957 2.69199 18.48 2.69199V0.0295349C15.1253 0.0295349 12.4059 2.74896 12.4059 6.1037H15.0683ZM18.48 2.69199C20.3641 2.69199 21.8915 4.21951 21.8915 6.1037H24.554C24.554 2.74922 21.8346 0.0295349 18.48 0.0295349V2.69199ZM21.8915 6.10225C21.8895 7.9864 20.3626 9.51337 18.4784 9.51542L18.4813 12.1779C21.8338 12.1742 24.5503 9.4574 24.554 6.10515L21.8915 6.10225Z" fill="white" mask="url(#path-2-inside-1_1088_179600)"/>
<path d="M7.26017 10.8936C6.57382 10.8936 6.01562 11.4341 6.01562 12.0986C6.01562 12.7631 6.57382 13.3037 7.26017 13.3037C7.94652 13.3037 8.5049 12.7631 8.5049 12.0986C8.5049 11.4341 7.94652 10.8936 7.26017 10.8936ZM7.26017 12.526C7.00253 12.526 6.7933 12.3342 6.7933 12.0986C6.7933 11.8628 7.00272 11.6712 7.26017 11.6712C7.51762 11.6712 7.72723 11.863 7.72723 12.0986C7.72723 12.3342 7.51762 12.526 7.26017 12.526Z" fill="white"/>
<path d="M9.36719 12.0968C9.36719 12.3116 9.5411 12.4857 9.75602 12.4857H14.94C15.1547 12.4857 15.3289 12.3116 15.3289 12.0968C15.3289 11.8821 15.1547 11.708 14.94 11.708H9.75602C9.5411 11.708 9.36719 11.8821 9.36719 12.0968Z" fill="white"/>
<path d="M7.26017 7.51367C6.57382 7.51367 6.01562 8.0544 6.01562 8.71892C6.01562 9.38343 6.57382 9.92397 7.26017 9.92397C7.94652 9.92397 8.5049 9.38343 8.5049 8.71892C8.5049 8.0544 7.94652 7.51367 7.26017 7.51367ZM7.26017 9.14629C7.00253 9.14629 6.7933 8.95453 6.7933 8.71892C6.7933 8.4833 7.00272 8.29135 7.26017 8.29135C7.51762 8.29135 7.72723 8.48311 7.72723 8.71892C7.72723 8.95453 7.51762 9.14648 7.26017 9.14648V9.14629Z" fill="white"/>
<path d="M7.26017 14.2734C6.57382 14.2734 6.01562 14.814 6.01562 15.4785C6.01562 16.143 6.57382 16.6835 7.26017 16.6835C7.94652 16.6835 8.5049 16.143 8.5049 15.4785C8.5049 14.814 7.94652 14.2734 7.26017 14.2734ZM7.26017 15.9059C7.00253 15.9059 6.7933 15.7143 6.7933 15.4785C6.7933 15.2429 7.00272 15.0511 7.26017 15.0511C7.51762 15.0511 7.72723 15.2429 7.72723 15.4785C7.72723 15.7141 7.51762 15.9059 7.26017 15.9059Z" fill="white"/>
<path d="M14.94 15.1104H9.75602C9.5411 15.1104 9.36719 15.2845 9.36719 15.4992C9.36719 15.7139 9.5411 15.888 9.75602 15.888H14.94C15.1547 15.888 15.3289 15.7139 15.3289 15.4992C15.3289 15.2845 15.1547 15.1104 14.94 15.1104Z" fill="white"/>
</g>
<defs>
<clipPath id="clip0_1088_179600">
<rect width="24" height="24" fill="white" transform="translate(0 -0.000488281)"/>
</clipPath>
</defs>
</svg>
