<svg width="25" height="25" viewBox="0 0 25 25" fill="none" xmlns="http://www.w3.org/2000/svg">
<circle cx="12.8984" cy="12.4915" r="11.5" fill="#E51937" stroke="white"/>
<g clip-path="url(#clip0_1017_170815)">
<rect width="10" height="10" transform="translate(7.89844 7.49146)" fill="#E51937"/>
<path d="M17.4792 15.4081C17.4792 15.6291 17.3914 15.8411 17.2351 15.9974C17.0788 16.1537 16.8668 16.2415 16.6458 16.2415H9.14583C8.92482 16.2415 8.71286 16.1537 8.55658 15.9974C8.4003 15.8411 8.3125 15.6291 8.3125 15.4081V10.8248C8.3125 10.6038 8.4003 10.3918 8.55658 10.2355C8.71286 10.0793 8.92482 9.99146 9.14583 9.99146H10.8125L11.6458 8.74146H14.1458L14.9792 9.99146H16.6458C16.8668 9.99146 17.0788 10.0793 17.2351 10.2355C17.3914 10.3918 17.4792 10.6038 17.4792 10.8248V15.4081Z" stroke="white" stroke-width="0.8" stroke-linecap="round" stroke-linejoin="round"/>
<path d="M12.901 14.5748C13.8215 14.5748 14.5677 13.8286 14.5677 12.9081C14.5677 11.9876 13.8215 11.2415 12.901 11.2415C11.9806 11.2415 11.2344 11.9876 11.2344 12.9081C11.2344 13.8286 11.9806 14.5748 12.901 14.5748Z" stroke="white" stroke-width="0.8" stroke-linecap="round" stroke-linejoin="round"/>
</g>
<defs>
<clipPath id="clip0_1017_170815">
<rect width="10" height="10" fill="white" transform="translate(7.89844 7.49146)"/>
</clipPath>
</defs>
</svg>
