<svg width="24" height="23" viewBox="0 0 24 23" fill="none" xmlns="http://www.w3.org/2000/svg">
<path d="M23.9727 12.5429C23.9646 12.4354 23.9288 12.3322 23.8689 12.2446C23.8091 12.1569 23.7275 12.088 23.6331 12.0454C23.5232 12.0193 23.0837 12.0193 20.9762 12.0193C20.9762 3.50024 21.0361 4.01337 20.8313 3.79346C17.69 0.5 17.7749 0.5 17.4803 0.5H8.49084C8.35839 0.5 8.23136 0.555165 8.1377 0.65336C8.04404 0.751554 7.99142 0.884734 7.99142 1.0236V2.07081H5.49436C5.3619 2.07081 5.23488 2.12597 5.14122 2.22417C5.04756 2.32236 4.99494 2.45554 4.99494 2.59441V4.16522H0.500223C0.36777 4.16522 0.240742 4.22038 0.147084 4.31858C0.0534258 4.41677 0.000809215 4.54995 0.000809215 4.68882C0.000809215 23.3291 -0.168991 22.2609 0.325428 22.4546C0.46027 22.507 20.4818 22.5227 20.6516 22.4546C20.7636 22.4082 20.8558 22.3207 20.9113 22.2086C20.9762 22.13 23.9727 12.6999 23.9727 12.5429ZM20.1172 21.4441H1.19441L3.85628 13.0665H22.7791L20.1172 21.4441ZM17.9797 2.28548L19.2732 3.64161H17.9797V2.28548ZM8.99025 1.5472H16.9809V4.16522C16.9809 4.30409 17.0335 4.43727 17.1271 4.53546C17.2208 4.63365 17.3478 4.68882 17.4803 4.68882H19.9773V12.0193H8.99025V1.5472ZM5.99377 3.11801H7.99142V12.0193H5.99377V3.11801ZM4.99494 5.21242V12.0193C3.43677 12.0193 3.16709 11.925 3.02226 12.3753L0.999636 18.7423V5.21242H4.99494Z" fill="white"/>
<path d="M10.5 6.5H15.5C15.6326 6.5 15.7598 6.44732 15.8536 6.35355C15.9473 6.25979 16 6.13261 16 6C16 5.86739 15.9473 5.74021 15.8536 5.64645C15.7598 5.55268 15.6326 5.5 15.5 5.5H10.5C10.3674 5.5 10.2402 5.55268 10.1464 5.64645C10.0527 5.74021 10 5.86739 10 6C10 6.13261 10.0527 6.25979 10.1464 6.35355C10.2402 6.44732 10.3674 6.5 10.5 6.5Z" fill="white"/>
<path d="M10.5 8.5H13.5C13.6326 8.5 13.7598 8.44732 13.8536 8.35355C13.9473 8.25979 14 8.13261 14 8C14 7.86739 13.9473 7.74021 13.8536 7.64645C13.7598 7.55268 13.6326 7.5 13.5 7.5H10.5C10.3674 7.5 10.2402 7.55268 10.1464 7.64645C10.0527 7.74021 10 7.86739 10 8C10 8.13261 10.0527 8.25979 10.1464 8.35355C10.2402 8.44732 10.3674 8.5 10.5 8.5Z" fill="white"/>
</svg>
