<svg width="24" height="24" viewBox="0 0 24 24" fill="none" xmlns="http://www.w3.org/2000/svg">
<path d="M3.89844 19.3943C4.98456 18.2817 6.69132 17.0094 9.01872 18.9175C10.2763 19.9486 11.6246 19.9581 12.8431 19.5483M15.5354 17.9633C14.8223 18.5479 13.8796 19.1998 12.8431 19.5483M15.5354 17.9633L13.208 16.5329M15.5354 17.9633L20.3625 9.72198M13.208 16.5329L12.8431 19.5483M13.208 16.5329L18.0532 8.2605M18.0532 8.2605L20.3625 9.72198M18.0532 8.2605L19.1217 6.43616M20.3625 9.72198L21.44 7.88216M19.1217 6.43616L20.1902 4.61182L22.5176 6.04235L21.44 7.88216M19.1217 6.43616L21.44 7.88216" stroke="white"/>
<path fill-rule="evenodd" clip-rule="evenodd" d="M2.5 1.72803H2V2.22803V21.7786V22.2786H2.5H16.4644H16.9644V21.7786V15.5211L15.9644 17.2284V21.2786H3V2.72803H12.9954L15.9644 5.76952V11.8243L16.9644 10.1169V5.56594V5.36235L16.8222 5.21667L13.5638 1.87876L13.4167 1.72803H13.206H2.5Z" fill="white"/>
<path d="M3.89844 4.33398H10.8984" stroke="white"/>
<path d="M3.89844 7.33398H13.8984" stroke="white"/>
<path d="M3.89844 10.334H14.8984" stroke="white"/>
<path d="M3.89844 13.334H12.8984" stroke="white"/>
<path d="M3.89844 16.334H11.8984" stroke="white"/>
</svg>
