<svg width="15" height="14" viewBox="0 0 15 14" fill="none" xmlns="http://www.w3.org/2000/svg">
<g clip-path="url(#clip0_1843_36576)">
<path d="M6.12488 1.75C6.12488 2.7165 6.90838 3.5 7.87488 3.5C8.84138 3.5 9.62488 2.7165 9.62488 1.75C9.62488 0.783502 8.84138 -3.42479e-08 7.87488 -7.64949e-08C6.90838 -1.18742e-07 6.12488 0.783501 6.12488 1.75Z" fill="#222222"/>
<path d="M6.12488 7C6.12488 7.9665 6.90838 8.75 7.87488 8.75C8.84138 8.75 9.62488 7.9665 9.62488 7C9.62488 6.0335 8.84138 5.25 7.87488 5.25C6.90838 5.25 6.12488 6.0335 6.12488 7Z" fill="#222222"/>
<path d="M6.12488 12.25C6.12488 13.2165 6.90838 14 7.87488 14C8.84138 14 9.62488 13.2165 9.62488 12.25C9.62488 11.2835 8.84138 10.5 7.87488 10.5C6.90838 10.5 6.12488 11.2835 6.12488 12.25Z" fill="#222222"/>
</g>
<defs>
<clipPath id="clip0_1843_36576">
<rect width="14" height="14" fill="white" transform="translate(14.875) rotate(90)"/>
</clipPath>
</defs>
</svg>
