<svg width="25" height="24" viewBox="0 0 25 24" fill="none" xmlns="http://www.w3.org/2000/svg">
<path d="M21.8121 12.0392L21.8115 12.0399L20.8622 13.1169L12.2697 22.8655L3.6803 13.1135L3.67929 13.1123L2.73018 12.0392C2.73015 12.0391 2.73012 12.0391 2.73009 12.0391C2.73005 12.039 2.73001 12.039 2.72997 12.0389C1.59898 10.7589 1.01953 9.06095 1.01953 7.34403C1.01953 5.62701 1.59905 3.92897 2.73018 2.64891L2.73112 2.64784C4.95863 0.117387 8.52975 0.117387 10.7573 2.64784L10.7576 2.64819L11.7069 3.72525L12.2695 4.3636L12.8322 3.72525L13.7815 2.64819C16.0123 0.117269 19.5807 0.117269 21.8115 2.64819L21.8121 2.6489C22.9427 3.92836 23.5195 5.62611 23.5195 7.34403C23.5195 9.06196 22.9427 10.7597 21.8121 12.0392Z" stroke="#E51937" stroke-width="1.5" stroke-miterlimit="10"/>
</svg>
