<svg width="20" height="20" viewBox="0 0 20 20" fill="none" xmlns="http://www.w3.org/2000/svg">
<mask id="mask0_980_170112" style="mask-type:alpha" maskUnits="userSpaceOnUse" x="0" y="0" width="20" height="20">
<rect x="20" width="20" height="20" transform="rotate(90 20 0)" fill="#D9D9D9"/>
</mask>
<g mask="url(#mask0_980_170112)">
<path d="M2.5 8.85351C2.5 8.6174 2.54528 8.39518 2.63583 8.18685C2.72583 7.97851 2.84722 7.79796 3 7.64518L7.29167 3.35352L8.5 4.52018C8.69444 4.71463 8.84389 4.93351 8.94833 5.17685C9.05222 5.41963 9.06944 5.67296 9 5.93685L8.625 7.56185L15.4167 7.56185C16 7.56185 16.4931 7.76324 16.8958 8.16602C17.2986 8.56879 17.5 9.06185 17.5 9.64518C17.5 10.2285 17.2986 10.7216 16.8958 11.1243C16.4931 11.5271 16 11.7285 15.4167 11.7285L11.8333 11.7285L11.8333 12.2702C11.8333 12.3396 11.8194 12.4021 11.7917 12.4577C11.7639 12.5132 11.7361 12.5757 11.7083 12.6452L10.2083 15.7285C10.0556 16.0618 9.80917 16.3085 9.46917 16.4685C9.12861 16.628 8.77778 16.673 8.41667 16.6035L3.875 15.8535C3.47222 15.7841 3.14222 15.5896 2.885 15.2702C2.62833 14.9507 2.5 14.5896 2.5 14.1868L2.5 8.85351ZM4.16667 8.85351L4.16667 14.1868L8.70833 14.9785L10.4167 11.5202L10.4167 10.0618L15.4167 10.0618C15.5417 10.0618 15.6425 10.0238 15.7192 9.94768C15.7953 9.87101 15.8333 9.77018 15.8333 9.64518C15.8333 9.52018 15.7953 9.41963 15.7192 9.34352C15.6425 9.26685 15.5417 9.22851 15.4167 9.22851L6.58333 9.22851L7.33333 5.68685L4.16667 8.85351Z" fill="#E51937"/>
</g>
</svg>
