<svg width="19" height="19" viewBox="0 0 19 19" fill="none" xmlns="http://www.w3.org/2000/svg">
<path d="M11.3942 11.0418C11.1899 11.2562 10.9434 11.4281 10.6696 11.5474C10.3959 11.6666 10.1003 11.7307 9.8006 11.7359C9.50091 11.7411 9.20322 11.6872 8.92529 11.5774C8.64736 11.4677 8.3949 11.3044 8.18295 11.0972C7.971 10.89 7.80391 10.6432 7.69165 10.3716C7.57939 10.0999 7.52426 9.80889 7.52955 9.51593C7.53484 9.22298 7.60043 8.93407 7.72243 8.66643C7.84442 8.3988 8.02031 8.15793 8.2396 7.95818M1.63281 1.5L18.001 17.5M14.2363 13.82C12.9645 14.7676 11.4159 15.2926 9.8169 15.3182C4.60885 15.3182 1.63281 9.5 1.63281 9.5C2.55828 7.81411 3.84187 6.34117 5.39749 5.18L14.2363 13.82ZM8.25449 3.85636C8.76661 3.73918 9.29094 3.68061 9.8169 3.68182C15.025 3.68182 18.001 9.5 18.001 9.5C17.5494 10.3259 17.0108 11.1034 16.3939 11.82L8.25449 3.85636Z" stroke="#9E9E9E" stroke-width="1.5" stroke-linecap="round" stroke-linejoin="round"/>
</svg>
