<svg width="24" height="24" viewBox="0 0 24 24" fill="none" xmlns="http://www.w3.org/2000/svg">
<path d="M8.65234 7.69516V0.999512H23.0002M23.0002 0.999512V20.1299L14.8697 22.9995V20.1299M23.0002 0.999512L14.8697 3.39082V20.1299M14.8697 20.1299H8.65234V12.956" stroke="white"/>
<path d="M0.646447 10.2109C0.451184 10.4062 0.451184 10.7227 0.646447 10.918L3.82843 14.1C4.02369 14.2952 4.34027 14.2952 4.53553 14.1C4.7308 13.9047 4.7308 13.5881 4.53553 13.3929L1.70711 10.5645L4.53553 7.73603C4.7308 7.54076 4.7308 7.22418 4.53553 7.02892C4.34027 6.83366 4.02369 6.83366 3.82843 7.02892L0.646447 10.2109ZM10.5652 10.0645H1V11.0645H10.5652V10.0645Z" fill="white"/>
</svg>
