<svg width="230" height="35" viewBox="0 0 230 35" fill="none" xmlns="http://www.w3.org/2000/svg">
<path d="M14.9274 10.3106C9.90478 11.7405 5.15023 13.0889 0 14.5565C1.99755 9.57053 3.86108 4.93579 5.83948 0C6.68828 1.57418 7.39029 2.88496 8.16251 4.32744C12.732 2.07592 17.3717 1.52401 22.1454 3.186C25.5788 4.37761 28.3678 6.44098 30.4227 9.40747C34.4625 15.2276 34.2391 23.0232 29.9122 28.5172C25.8852 33.6286 18.3226 36.2878 12.9043 34.3812C13.1723 33.2272 13.4531 32.0544 13.7212 30.9067C21.2264 31.1889 25.9745 28.6928 28.2273 23.3556C30.244 18.5704 29.0761 13.1266 25.2725 9.64579C21.4242 6.12113 15.923 5.23683 11.1365 7.53225C12.3937 8.46045 13.568 9.3134 14.921 10.3106H14.9274Z" fill="#000805"/>
<path d="M11.7861 34.0275L9.79736 33.3618L11.7005 30.1387C12.0693 30.454 12.7805 30.8102 12.7344 31.0671C12.5764 32.0072 12.1681 32.9122 11.7861 34.0216V34.0275Z" fill="#000805"/>
<path d="M0 19.4076V17.499L3.91894 18.3322C3.61258 18.6926 3.35727 19.2953 2.99346 19.3603C2.10627 19.5139 1.16802 19.4076 0 19.4076H0Z" fill="#000805"/>
<path d="M5.64933 25.2764C6.31604 26.0368 5.52749 27.009 3.28368 28.193L1.95947 26.9899L5.64933 25.2764Z" fill="#000805"/>
<path d="M8.53635 33.0543L6.85815 31.7599L9.18501 28.1934C10.8156 30.3306 8.69107 31.3486 8.53635 33.0543Z" fill="#000805"/>
<path d="M3.90873 20.416C4.01314 21.8702 3.35407 22.2007 0.195763 22.3604L0 20.8897L3.90873 20.416Z" fill="#000805"/>
<path d="M1.76216 26.2496C1.456 25.486 1.25869 24.9879 0.979736 24.2774C2.60583 24.1247 3.98698 22.2521 5.87842 24.2442L1.76216 26.243V26.2496Z" fill="#000805"/>
<path d="M6.07854 31.1105L4.89868 29.7658L7.42695 27.2217C8.26777 27.9287 7.8183 29.225 6.07854 31.1105Z" fill="#000805"/>
<path d="M34.6748 34.9995V33.9729C35.9289 33.9106 36.6813 33.584 36.9321 32.9929C37.277 32.2463 37.7786 30.3174 38.437 27.2064L41.917 10.8735C42.45 8.38466 42.7165 6.82914 42.7165 6.20694C42.7165 5.46029 41.9797 5.0403 40.5062 4.94697L39.8008 4.90031V3.87367H52.9214C57.2479 3.87367 60.4144 4.49587 62.4209 5.74028C65.4307 7.6069 66.9355 10.7957 66.9355 15.3067C66.9355 20.6266 65.0858 25.2153 61.3863 29.073C57.5928 33.024 52.3257 34.9995 45.5851 34.9995H34.6748ZM47.7954 5.3203L43.2338 26.5064C42.6067 29.4308 42.2932 31.3441 42.2932 32.2463C42.2932 32.8062 42.5284 33.1951 42.9986 33.4129C43.5003 33.6307 44.4095 33.7395 45.7262 33.7395C50.429 33.7395 54.1911 32.1529 57.0128 28.9797C60.2733 25.3087 61.9036 20.8754 61.9036 15.68C61.9036 8.6491 58.3139 5.13363 51.1344 5.13363C50.2879 5.13363 49.1749 5.19585 47.7954 5.3203Z" fill="#000805"/>
<path d="M84.2269 24.3598H73.4106L69.2722 31.0329C68.6765 31.9974 68.3787 32.6818 68.3787 33.0862C68.3787 33.6462 69.1782 33.9418 70.7771 33.9729V34.9995H63.4879V33.9729C64.3657 33.8795 65.0241 33.6307 65.463 33.2262C65.7138 32.9773 66.2154 32.2929 66.9679 31.1729L69.6484 27.1131L85.0734 2.70703H85.8729L88.9767 26.7397C89.4783 30.5974 89.9172 32.7907 90.2934 33.3196C90.5756 33.724 91.3907 33.9418 92.7388 33.9729V34.9995H82.3928V33.9729H82.9572C84.1172 33.9729 84.7912 33.7707 84.9793 33.3662C85.0734 33.1796 85.1204 32.884 85.1204 32.4796C85.1204 31.8574 85.0734 31.1729 84.9793 30.4263L84.2269 24.3598ZM84.0388 22.8198L82.4869 9.70684L74.3982 22.8198H84.0388Z" fill="#000805"/>
<path d="M124.387 30.0995L120.547 26.2496C119.476 27.2348 118.391 28.0125 117.294 28.5829C116.223 29.1532 114.904 29.4384 113.336 29.4384C112.16 29.4384 111.076 29.218 110.083 28.7773C109.117 28.3107 108.281 27.6884 107.575 26.9107C106.896 26.1329 106.36 25.2255 105.968 24.1885C105.576 23.1515 105.381 22.0497 105.381 20.8831V20.8053C105.381 19.6387 105.576 18.5498 105.968 17.5387C106.36 16.5017 106.909 15.5943 107.614 14.8166C108.32 14.0388 109.156 13.4296 110.122 12.9888C111.115 12.5481 112.186 12.3277 113.336 12.3277C114.721 12.3277 115.962 12.6 117.059 13.1444C118.182 13.6888 119.28 14.4406 120.351 15.3999L124.191 11.0056C123.564 10.3833 122.885 9.81299 122.154 9.29449C121.422 8.77598 120.625 8.33525 119.763 7.9723C118.901 7.60935 117.934 7.32417 116.863 7.11677C115.818 6.90936 114.655 6.80566 113.375 6.80566C111.259 6.80566 109.326 7.18158 107.575 7.93341C105.825 8.65932 104.322 9.6704 103.068 10.9667C101.814 12.237 100.835 13.7277 100.129 15.4388C99.4237 17.1239 99.071 18.9387 99.071 20.8831V20.9608C99.071 22.9052 99.4237 24.733 100.129 26.444C100.835 28.1551 101.814 29.6458 103.068 30.9161C104.322 32.1605 105.812 33.1457 107.536 33.8716C109.26 34.5975 111.128 34.9605 113.14 34.9605C114.472 34.9605 115.674 34.8438 116.745 34.6105C117.817 34.4031 118.796 34.092 119.685 33.6772C120.599 33.2364 121.435 32.7179 122.193 32.1217C122.95 31.5254 123.682 30.8513 124.387 30.0995Z" fill="#E51937"/>
<path d="M148.186 24.6552V24.5774C148.186 23.0997 147.977 21.6868 147.559 20.3386C147.167 18.9646 146.54 17.7591 145.678 16.7221C144.842 15.6591 143.784 14.8166 142.504 14.1944C141.224 13.5722 139.708 13.261 137.958 13.261C136.417 13.261 135.006 13.5462 133.726 14.1166C132.471 14.6869 131.387 15.4647 130.473 16.4499C129.558 17.435 128.84 18.5887 128.317 19.9109C127.821 21.2331 127.573 22.633 127.573 24.1108V24.1885C127.573 25.7959 127.847 27.2607 128.396 28.5829C128.944 29.8791 129.702 31.0069 130.669 31.9661C131.662 32.9253 132.824 33.6642 134.157 34.1827C135.515 34.7012 136.978 34.9605 138.546 34.9605C140.453 34.9605 142.112 34.6234 143.523 33.9494C144.934 33.2494 146.136 32.2902 147.128 31.0717L143.719 28.0773C142.883 28.8292 142.073 29.3736 141.289 29.7106C140.505 30.0476 139.617 30.2162 138.624 30.2162C137.292 30.2162 136.168 29.8791 135.254 29.2051C134.366 28.5051 133.778 27.481 133.49 26.1329H148.108C148.134 25.8478 148.147 25.6015 148.147 25.3941C148.173 25.1867 148.186 24.9404 148.186 24.6552ZM142.386 22.4386H133.412C133.647 21.0905 134.144 20.0146 134.901 19.2109C135.685 18.4072 136.704 18.0054 137.958 18.0054C139.212 18.0054 140.218 18.4202 140.976 19.2498C141.733 20.0535 142.203 21.1164 142.386 22.4386Z" fill="#E51937"/>
<path d="M171.868 34.4938V20.9997C171.868 18.5887 171.241 16.6961 169.987 15.3221C168.759 13.9481 167.008 13.261 164.735 13.261C163.978 13.261 163.298 13.3518 162.698 13.5333C162.097 13.7147 161.548 13.961 161.052 14.2721C160.555 14.5832 160.098 14.9462 159.68 15.361C159.288 15.7499 158.922 16.1647 158.583 16.6054V13.6499H152.626V34.4938H158.583V22.8664C158.583 21.4664 158.909 20.4164 159.562 19.7164C160.242 18.9905 161.156 18.6276 162.306 18.6276C163.455 18.6276 164.343 18.9905 164.971 19.7164C165.598 20.4164 165.911 21.4664 165.911 22.8664V34.4938H171.868Z" fill="#E51937"/>
<path d="M188.839 33.6383V28.894C187.924 29.3865 186.945 29.6328 185.9 29.6328C184.619 29.6328 183.979 28.9588 183.979 27.6107V18.7053H188.917V13.6499H183.979V8.32229H178.022V13.6499H175.514V18.7053H178.022V28.5829C178.022 29.8014 178.166 30.8124 178.454 31.6161C178.767 32.3939 179.185 33.029 179.708 33.5216C180.256 34.0142 180.896 34.3512 181.628 34.5327C182.386 34.7401 183.222 34.8438 184.136 34.8438C185.129 34.8438 186.004 34.7271 186.762 34.4938C187.519 34.2864 188.212 34.0012 188.839 33.6383Z" fill="#E51937"/>
<path d="M212.903 24.6552V24.5774C212.903 23.0997 212.694 21.6868 212.276 20.3386C211.884 18.9646 211.257 17.7591 210.394 16.7221C209.558 15.6591 208.5 14.8166 207.22 14.1944C205.94 13.5722 204.425 13.261 202.674 13.261C201.133 13.261 199.722 13.5462 198.442 14.1166C197.188 14.6869 196.103 15.4647 195.189 16.4499C194.275 17.435 193.556 18.5887 193.034 19.9109C192.537 21.2331 192.289 22.633 192.289 24.1108V24.1885C192.289 25.7959 192.563 27.2607 193.112 28.5829C193.661 29.8791 194.418 31.0069 195.385 31.9661C196.378 32.9253 197.54 33.6642 198.873 34.1827C200.231 34.7012 201.694 34.9605 203.262 34.9605C205.169 34.9605 206.828 34.6234 208.239 33.9494C209.65 33.2494 210.852 32.2902 211.844 31.0717L208.435 28.0773C207.599 28.8292 206.789 29.3736 206.005 29.7106C205.221 30.0476 204.333 30.2162 203.34 30.2162C202.008 30.2162 200.884 29.8791 199.97 29.2051C199.082 28.5051 198.494 27.481 198.207 26.1329H212.824C212.85 25.8478 212.863 25.6015 212.863 25.3941C212.889 25.1867 212.903 24.9404 212.903 24.6552ZM207.103 22.4386H198.128C198.363 21.0905 198.86 20.0146 199.617 19.2109C200.401 18.4072 201.42 18.0054 202.674 18.0054C203.928 18.0054 204.934 18.4202 205.692 19.2498C206.449 20.0535 206.92 21.1164 207.103 22.4386Z" fill="#E51937"/>
<path d="M230 19.4442V13.261C228.224 13.1833 226.813 13.5722 225.768 14.4277C224.723 15.2832 223.9 16.4239 223.299 17.8498V13.6499H217.342V34.4938H223.299V26.794C223.299 24.2793 223.86 22.4256 224.984 21.2331C226.133 20.0405 227.701 19.4442 229.687 19.4442H230Z" fill="#E51937"/>
</svg>
