<svg width="188" height="203" viewBox="0 0 188 203" fill="none" xmlns="http://www.w3.org/2000/svg">
<path d="M94 80H0.719971L47.36 111.36L94 142.76L140.6 111.36L187.24 80H94Z" fill="#FF5A5A"/>
<path d="M187.24 80H0.719971L47.36 48.64L94 17.28L140.6 48.64L187.24 80Z" fill="#E51937"/>
<path d="M174.24 28.88V165.72H13.76V0.280029H136.52L174.24 28.88Z" fill="#EFEFEF"/>
<path opacity="0.07" d="M174.24 28.88L131.52 33.48L136.52 0.280029L174.24 28.88Z" fill="#191919"/>
<path d="M174.24 28.88H136.52V0.280029L174.24 28.88Z" fill="#EFEFEF"/>
<path opacity="0.07" d="M140.6 109.24L94 138.48L47.36 109.24L0.719971 80L47.36 111.36L94 142.76L140.6 111.36L187.24 80L140.6 109.24Z" fill="#191919"/>
<path d="M187.24 80V202.4H0.719971V80L47.36 111.36L87.96 138.68L94 134.28L100 138.68L140.6 111.36L187.24 80Z" fill="#E51937"/>
<path d="M187.24 202.4H0.719971L47.36 168.32L87.96 138.68L94 134.28L100 138.68L140.6 168.32L187.24 202.4Z" fill="#E51937"/>
<path opacity="0.1" d="M85.32 136.92L87.96 138.68L47.36 168.36L0.719971 202.4L47.36 166.28L85.32 136.92Z" fill="#191919"/>
<path opacity="0.07" d="M94 130.2L99.88 134.8L97.08 136.56L94 134.28L90.88 136.56L88.08 134.8L94 130.2Z" fill="#191919"/>
<path opacity="0.1" d="M187.24 202.4L140.6 168.36L100 138.68L102.64 136.92L140.6 166.28L187.24 202.4Z" fill="#191919"/>
</svg>
