<svg width="481" height="350" viewBox="0 0 481 350" fill="none" xmlns="http://www.w3.org/2000/svg">
<g clip-path="url(#clip0_3423_201318)">
<path d="M208.452 158.116C206.94 155.554 202.946 157.882 204.463 160.456C216.185 180.312 232.239 197.955 241.112 219.416C242.234 222.13 246.706 220.939 245.566 218.184C236.519 196.292 220.407 178.362 208.452 158.116Z" fill="#E28086"/>
<path d="M407.488 101.128C407.081 86.2453 402.447 71.8818 394.928 59.1175C393.417 56.5494 389.422 58.8782 390.94 61.4579C398.051 73.5277 402.476 87.0507 402.871 101.128C403.267 115.223 399.766 129.026 394.202 141.89C393.027 144.598 397.01 146.962 398.19 144.23C404.081 130.596 407.895 116.075 407.488 101.128Z" fill="#E28086"/>
<path d="M307.861 10.0449C318.194 11.0779 328.288 13.5526 337.975 17.2996C340.748 18.3735 341.952 13.8911 339.201 12.8288C329.107 8.92425 318.618 6.48462 307.861 5.41071C304.907 5.11305 304.925 9.74719 307.861 10.0449Z" fill="#E28086"/>
<path d="M389.841 80.8293C390.818 83.625 395.283 82.4227 394.295 79.5978C390.056 67.458 383.131 56.6372 374.368 47.2931C372.327 45.1161 369.065 48.3962 371.101 50.5732C379.305 59.322 385.869 69.4599 389.841 80.8293Z" fill="#E28086"/>
<path d="M351.82 29.2819C335.755 19.8152 317.509 14.4924 298.856 14.183C289.314 14.0254 279.714 15.1927 270.475 17.5857C265.777 18.7997 261.166 20.3463 256.683 22.2023C254.607 23.0603 252.549 23.9707 250.525 24.9571C249.537 25.4357 248.054 25.9493 247.281 26.7255C245.176 28.8383 248.444 32.1184 250.549 30.0056C251.165 29.387 253.078 28.8558 253.863 28.4823C256.043 27.4493 258.259 26.5038 260.509 25.64C264.695 24.0349 268.981 22.7042 273.336 21.6537C282.052 19.5467 291.018 18.607 299.978 18.8522C317.45 19.3308 334.446 24.426 349.494 33.2915C352.053 34.7973 354.384 30.7935 351.82 29.2819Z" fill="#E28086"/>
<path d="M210.288 141.878C208.997 139.194 205.014 141.54 206.299 144.219C209.764 151.433 213.811 158.302 218.178 164.996C219.8 167.483 223.801 165.166 222.167 162.656C217.8 155.962 213.753 149.092 210.288 141.878Z" fill="#E28086"/>
<path d="M391.354 121.784C388.307 133.842 382.975 145.106 376.562 155.711C373.236 161.203 369.649 166.532 366.009 171.82C364.288 174.318 362.555 176.804 360.828 179.296C359.706 180.924 356.746 183.843 356.746 185.95C356.746 188.932 361.363 188.938 361.363 185.95C361.363 186.732 362.258 185.337 362.293 185.296C362.758 184.741 363.136 184.07 363.549 183.469C364.398 182.243 365.247 181.012 366.096 179.786C367.945 177.119 369.8 174.452 371.631 171.773C375.277 166.432 378.847 161.034 382.103 155.442C388.022 145.275 392.924 134.449 395.814 123.015C396.535 120.12 392.081 118.889 391.354 121.784Z" fill="#E28086"/>
<path d="M370.944 151.59C361.682 166.963 350.297 181.006 341.366 196.589C332.441 212.172 325.969 229.991 327.836 247.874C317.649 249.181 307.415 249.707 297.164 250.133C286.913 249.712 276.68 249.181 266.493 247.874C268.365 229.991 261.893 212.172 252.962 196.589C244.037 181.006 232.646 166.963 223.384 151.59C214.139 136.199 206.911 118.801 207.65 100.836C208.76 72.8565 229.477 48.5652 254.392 35.9526C254.526 35.8826 254.66 35.8184 254.794 35.7484C281.395 22.4296 312.933 22.4296 339.529 35.7484C339.662 35.8184 339.796 35.8826 339.93 35.9526C364.845 48.5652 385.556 72.8565 386.673 100.836C387.417 118.801 380.19 136.194 370.944 151.59Z" fill="#DD636E"/>
<path opacity="0.5" d="M377.688 102.722C377.49 85.4458 370.867 67.9948 357.604 56.6196C353.284 52.9135 346.737 58.9892 351.098 62.7304C362.983 72.9266 368.931 88.2181 368.78 103.772C368.606 121.591 360.971 138.225 350.947 152.577C347.644 157.304 355.203 162.043 358.488 157.345C369.617 141.429 377.915 122.49 377.688 102.722Z" fill="#FFF5CA"/>
<path d="M357.135 116.992C356.775 116.84 356.327 116.858 355.885 117.196C352.78 119.537 350.234 120.05 346.977 117.663C343.89 115.393 343.221 111.774 343.541 108.173C343.785 107.665 344.018 107.169 344.239 106.65C344.739 105.477 345.803 103.358 346.129 101.502C346.623 101.012 346.879 100.189 346.443 99.5935C346.239 99.3192 346.03 99.039 345.803 98.7939C345.785 98.7764 345.774 98.7706 345.756 98.7589C345.722 98.718 345.675 98.6538 345.628 98.6071C345.53 98.5079 345.431 98.4262 345.326 98.3503C341.047 94.65 334.813 95.187 330.604 98.8289C326.801 102.132 323.557 108.926 324.737 114.231C320.295 114.768 316.992 112.066 314.939 108.278C318.289 105.436 321.934 102.984 325.824 100.895C327.569 99.9554 326.022 97.2823 324.272 98.2161C320.847 100.06 317.591 102.197 314.556 104.613C315.439 101.514 316.341 98.4204 317.271 95.3271C320.928 92.6014 324.022 89.1579 326.243 85.1366C327.516 82.8254 329.045 79.8021 327.615 77.1991C326.574 75.3022 324.376 74.6544 322.429 75.4773C319.847 76.5629 319.044 79.4403 318.26 81.8682C317.004 85.7028 315.806 89.5607 314.631 93.4244C313.608 94.1306 312.544 94.7959 311.433 95.3854C309.683 96.3251 311.236 98.9982 312.986 98.0527C313.085 98.0002 313.189 97.936 313.3 97.8834C312.538 100.446 311.788 103.019 311.055 105.593C310.904 105.809 310.817 106.066 310.84 106.375C310.66 107.017 310.491 107.665 310.311 108.307C309.346 109.224 308.398 110.169 307.497 111.161C305.084 113.794 299.787 118.906 296.083 115.188C295.914 115.019 295.763 114.844 295.624 114.669C296.356 114.05 297.048 113.432 297.665 112.86C300.758 110.047 305.52 106.37 307.142 102.459C308.421 99.3892 307.648 95.1345 303.712 94.8076C299.601 94.4574 295.862 98.7706 294.129 101.8C292.176 105.22 290.484 109.27 291.6 113.268C291.641 113.414 291.693 113.566 291.74 113.724C290.891 114.307 289.995 114.815 289.082 115.124C287.687 115.597 286.227 114.628 285.733 113.169C285.402 112.2 286.861 110.082 287.373 109.2C289.402 105.698 291.251 102.091 293.315 98.6071C293.955 97.5332 292.873 95.8232 291.577 96.3368C287.338 98.0293 282.971 98.3737 278.686 96.6694C277.587 96.2317 276.465 97.5216 276.796 98.5721C277.808 101.776 278.948 105.161 278.663 108.57C278.395 111.838 276.506 115.638 272.848 115.906C269.406 116.163 268.319 114.161 268.33 111.436C270.046 107.549 271.092 103.399 271.656 99.1908C271.656 99.1849 271.662 99.1791 271.662 99.1674H271.656C271.679 99.0274 271.697 98.8931 271.714 98.7589C271.807 98.0352 271.424 97.5799 270.9 97.3873C270.877 97.3698 270.848 97.364 270.831 97.3581C270.796 97.3406 270.749 97.329 270.708 97.3231C270.679 97.3056 270.644 97.3056 270.615 97.3056C268.307 97.3056 265.086 111.278 265.086 111.278C263.841 114.015 261.894 117.079 259.114 116.338C251.771 114.389 259.138 101.975 259.783 97.755C260.074 95.8056 257.108 94.971 256.812 96.9379C256.073 101.864 252.8 106.259 252.864 111.313C250.119 113.397 245.88 116.624 242.95 115.545C244.706 113.975 246.415 112.34 248.038 110.636C250.299 108.266 253.096 105.588 253.788 102.249C255.108 95.8582 248.119 92.9341 243.45 96.5002C238.711 100.148 235.205 108.827 237.955 114.459C238.112 114.774 238.281 115.072 238.473 115.364C237.851 115.871 237.228 116.391 236.6 116.893C236.589 116.91 236.571 116.928 236.548 116.945C235.589 117.19 234.827 118.562 235.676 119.624C240.473 125.583 245.218 133.165 249.259 140.116C258.969 156.767 266.725 174.615 271.866 193.222C275.505 206.418 277.744 219.947 278.331 233.639C278.413 235.618 281.494 235.624 281.413 233.639C279.744 194.792 265.08 156.551 243.159 124.696C241.816 122.741 240.444 120.791 238.996 118.906C239.525 118.474 240.048 118.048 240.578 117.611C241.863 118.521 243.409 119.023 245.113 118.947C248.398 118.79 251.02 116.7 253.521 114.71C254.48 117.103 256.44 119.099 259.074 119.478C262.167 119.922 264.504 117.937 266.144 115.556C267.487 117.832 270.017 119.14 272.86 119C276.721 118.825 279.663 115.988 280.948 112.469C282.396 108.523 281.704 104.414 280.599 100.475C283.285 101.07 286.047 101.012 288.739 100.428C288.129 101.543 287.524 102.658 286.913 103.778C285.658 106.084 283.913 108.354 283.082 110.858C282.041 114.021 283.204 118.007 286.931 118.451C289.111 118.708 291.257 117.797 293.193 116.502C294.42 118.136 296.164 119.344 298.229 119.572C301.985 119.98 306.171 117.301 308.59 114.605C308.212 116 307.834 117.4 307.474 118.79C306.974 120.716 309.939 121.539 310.439 119.613C311.224 116.63 312.032 113.659 312.846 110.683C315.719 115.264 320.219 118.258 325.999 117.155C328.97 121.311 335.029 119.256 338.215 115.936C339.116 115.002 339.953 113.986 340.715 112.93C341.326 115.93 342.861 118.62 345.611 120.465C348.321 122.274 350.082 122.694 353.071 121.935C349.146 127.34 345.617 133.066 342.285 138.814C332.447 155.746 324.568 173.932 319.405 192.842C315.765 206.161 313.55 219.836 312.957 233.627C312.869 235.612 315.945 235.612 316.033 233.627C317.672 195.364 332.203 157.795 353.746 126.412C355.315 124.124 357.176 121.48 358.682 119.613C359.723 118.34 358.339 116.578 357.135 116.992ZM319.76 87.2844C320.114 86.1347 320.487 84.9849 320.859 83.8409C321.208 82.7495 321.626 80.0764 322.539 79.306C324.906 78.6874 325.656 79.1601 324.783 80.7301C324.65 81.4538 324.405 82.125 324.028 82.7495C323.498 83.8818 322.801 84.9732 322.097 85.9946C321.167 87.337 320.126 88.586 319.01 89.7299C319.254 88.907 319.498 88.0899 319.76 87.2844ZM240.258 111.961C239.153 107.951 242.031 101.42 245.346 98.9923C248.078 96.9963 251.858 98.5196 250.59 102.313C249.799 104.689 247.543 106.691 245.857 108.471C244.235 110.175 242.531 111.809 240.769 113.373C240.578 112.959 240.403 112.498 240.258 111.961ZM296.292 104.251C297.089 102.763 297.944 101.251 298.95 99.9028C299.234 99.4593 299.56 99.0624 299.95 98.7064C304.002 95.613 304.566 100.609 304.566 100.609C304.665 101.158 303.345 103.008 303.025 103.51C301.072 106.568 297.17 109.311 294.391 111.634C294.094 109.142 295.135 106.399 296.292 104.251ZM338.453 110.794C337.168 112.632 335.511 114.745 333.488 115.836C330.441 117.471 327.72 115.65 327.638 112.276C327.458 105.185 335.75 94.3991 343.006 100.411C342.122 104.134 340.663 107.648 338.453 110.794Z" fill="white"/>
<path d="M321.446 279.578C321.446 293.037 310.578 303.945 297.17 303.945C283.762 303.945 272.895 293.037 272.895 279.578C272.895 266.119 283.762 253.419 297.17 253.419C310.578 253.419 321.446 266.119 321.446 279.578Z" fill="#6F8AB2"/>
<path opacity="0.35" d="M321.446 279.578C321.446 293.037 310.578 303.945 297.17 303.945C283.762 303.945 272.895 293.037 272.895 279.578C272.895 266.119 283.762 253.419 297.17 253.419C310.578 253.419 321.446 266.119 321.446 279.578Z" fill="#6F8AB2"/>
<path d="M330.073 247.08C330.073 248.563 330.962 249.765 332.061 249.765V256.92C330.962 256.92 330.073 258.129 330.073 259.605C330.073 260.878 330.724 261.94 331.608 262.22C331.759 262.267 331.91 262.29 332.061 262.29V266.737C332.061 268.599 331.561 270.414 330.619 271.996L321.822 286.774C321.438 287.433 320.735 287.83 319.979 287.83H274.352C273.596 287.83 272.899 287.439 272.509 286.774L263.723 271.996C262.938 270.671 262.456 269.189 262.322 267.66C262.543 267.648 262.758 267.595 262.956 267.496C263.723 267.123 264.258 266.125 264.258 264.975C264.258 263.498 263.374 262.29 262.281 262.29V255.135L262.485 255.117C263.485 254.983 264.258 253.845 264.258 252.45C264.258 250.973 263.374 249.765 262.281 249.765V238.956L297.174 237.543L332.067 238.956V244.395L331.864 244.413C330.858 244.547 330.073 245.691 330.073 247.08Z" fill="#6F8AB2"/>
<path d="M332.826 226.985H261.511C260.063 226.985 258.883 228.164 258.883 229.623V237.707C258.883 239.16 260.057 240.345 261.511 240.345H332.826C334.274 240.345 335.454 239.166 335.454 237.707V229.623C335.454 228.164 334.28 226.985 332.826 226.985Z" fill="#879DC1"/>
<path opacity="0.35" d="M264.258 252.45C264.258 250.973 263.374 249.765 262.281 249.765L331.864 244.413C330.863 244.547 330.079 245.691 330.079 247.08C330.079 248.563 330.968 249.765 332.067 249.765L262.485 255.117C263.479 254.977 264.258 253.845 264.258 252.45Z" fill="#6F8AB2"/>
<path opacity="0.35" d="M330.073 259.605C330.073 260.878 330.724 261.94 331.608 262.22L262.956 267.496C263.723 267.123 264.258 266.125 264.258 264.975C264.258 263.498 263.374 262.29 262.281 262.29V262.185L332.067 256.815V256.92C330.968 256.92 330.073 258.129 330.073 259.605Z" fill="#6F8AB2"/>
<path d="M330.039 229.822C329.859 228.106 327.231 228.614 327.411 230.324C327.65 232.606 327.586 234.859 327.266 237.129C327.022 238.839 329.69 239.049 329.929 237.345C330.284 234.841 330.301 232.343 330.039 229.822Z" fill="#AFC6E8"/>
<path d="M328.613 270.099C329.288 268.512 326.741 267.677 326.072 269.259C325.177 271.372 320.74 279.251 319.356 281.078C318.316 282.455 320.543 283.938 321.583 282.566C323.113 280.552 327.625 272.434 328.613 270.099Z" fill="#879DC1"/>
<path opacity="0.5" d="M403.838 347.117C446.182 347.117 480.508 345.547 480.508 343.609C480.508 341.672 446.182 340.102 403.838 340.102C361.494 340.102 327.168 341.672 327.168 343.609C327.168 345.547 361.494 347.117 403.838 347.117Z" fill="#7DA1B7"/>
<path d="M422.867 329.567C422.902 329.31 421.158 314.579 421.175 314.188C421.239 312.495 423.774 312.075 425.868 315.542C430.002 322.376 434.275 317.882 434.421 320.801C434.973 332.153 438.13 341.263 435.165 345.308C433.101 348.121 426.089 350.129 420.96 349.989C415.838 349.849 414.628 348.378 419.687 338.923C421.582 335.392 422.484 332.386 422.867 329.567Z" fill="#222222"/>
<path d="M394.273 320.8L395.576 344.409C395.576 344.409 379.539 347.082 359.253 344.706C358.107 344.572 357.566 343.201 358.299 342.302C360.427 339.687 364.195 339.01 367.399 337.884C371.126 336.576 371.608 336.956 375.289 335.52C380.313 333.559 381.737 327.273 382.534 321.921C386.156 320.584 390.418 320.835 394.273 320.8Z" fill="#222222"/>
<path d="M437.545 323.777C433.62 325.575 429.219 326.584 424.567 326.584C422.648 326.584 420.77 326.415 418.956 326.088C406.99 274.739 401.286 177.638 401.286 177.638C401.274 177.352 401.199 176.348 401.181 175.963C397.152 226.985 391.959 294.017 398.152 327.197C395.303 328.055 389.953 328.522 386.79 328.522C383.54 328.522 380.394 328.038 377.475 327.104C375.743 314.579 373.859 297.157 373.074 276.093C370.922 217.618 374.306 183.41 374.405 182.249C375.83 164.086 378.004 149.168 378.004 149.168C378.004 149.168 379.324 139.87 380.284 134.396C380.307 134.203 380.336 134.017 380.371 133.836C380.516 133.007 380.668 132.172 380.801 131.355L400.995 130.923L432.021 130.27C431.725 132.406 431.376 135.382 431.021 139.217C430.934 140.046 430.876 140.892 430.8 141.779C430.039 151.625 429.579 165.989 429.451 182.412C429.451 183.206 429.451 184 429.44 184.805C429.312 212.277 430.155 245.049 432.277 271.961C433.504 287.515 435.214 304.768 437.545 323.777Z" fill="#3E3E63"/>
<path d="M402.717 179.745C402.264 175.601 402.526 171.469 402.153 167.331C402.06 166.321 400.479 166.31 400.572 167.331C400.816 170.045 400.787 172.747 400.863 175.455C399.566 173.728 398.572 171.813 397.891 169.718C397.577 168.749 396.048 169.164 396.368 170.138C397.333 173.109 398.886 175.765 400.985 178.064C401.025 178.625 401.072 179.185 401.136 179.745C401.601 183.93 402.148 187.98 401.711 192.2C401.607 193.216 403.188 193.21 403.293 192.2C403.729 187.963 403.183 183.942 402.717 179.745Z" fill="#16162B"/>
<path d="M429.44 182.401C429.44 183.194 429.44 183.988 429.428 184.794C424.166 178.945 420.869 171.586 419.997 163.456C419.892 162.44 421.474 162.452 421.579 163.456C422.352 170.553 425.096 177.066 429.44 182.401Z" fill="#16162B"/>
<path d="M356.972 33.297C356.466 33.2678 355.937 34.2834 355.321 36.1685C355.007 37.1082 354.687 38.2697 354.402 39.6295C354.111 40.9894 353.763 42.5419 353.518 44.2754C352.949 47.7364 352.524 51.9094 352.361 56.5786C352.315 57.7459 352.332 58.9423 352.326 60.168C352.315 61.3937 352.35 62.6485 352.425 63.9208C352.518 66.4714 352.786 69.1036 353.106 71.8C353.501 74.479 353.937 77.0995 354.548 79.58C354.821 80.829 355.141 82.0488 355.501 83.222C355.856 84.4009 356.193 85.5565 356.594 86.6655C357.402 88.8716 358.222 90.9552 359.176 92.8229C360.083 94.7081 361.083 96.3948 362.095 97.8773C363.072 99.3772 364.153 100.626 365.165 101.683C366.171 102.739 367.194 103.562 368.165 104.146C370.101 105.325 371.817 105.576 373.113 104.869C374.41 104.157 375.16 102.57 375.369 100.416C375.462 99.3422 375.433 98.1166 375.317 96.7508C375.195 95.391 374.904 93.9318 374.584 92.3268C373.875 89.1518 372.828 85.5215 371.503 81.5586C371.177 80.5605 370.84 79.545 370.497 78.5061C370.13 77.4731 369.77 76.4167 369.421 75.3311C368.677 73.1599 367.915 70.9129 367.13 68.6192C366.398 66.2963 365.618 64.0259 364.956 61.8022C364.595 60.6933 364.264 59.596 363.961 58.5163C363.653 57.4365 363.31 56.3801 363.031 55.3413C362.479 53.2576 361.897 51.2674 361.455 49.3822C360.961 47.4971 360.56 45.7286 360.188 44.1003C359.781 42.4719 359.507 40.9836 359.199 39.6762C358.908 38.4389 358.647 37.3125 358.408 36.2853C357.932 34.3884 357.478 33.3262 356.972 33.297Z" fill="#FFA59D"/>
<path d="M371.829 77.3271L364.84 87.9553L373.114 104.863C373.114 104.863 379.289 101.601 383.818 92.2743C383.818 92.2685 380.748 79.1423 371.829 77.3271Z" fill="#FFA59D"/>
<path d="M426.432 20.1067C425.345 24.1806 424.258 28.2544 423.17 32.3282C422.409 35.1706 421.513 38.2289 419.176 40.009C417.03 41.6432 413.861 41.7833 411.582 40.3358C414.89 37.2192 417.397 33.4255 418.775 29.089C419.42 27.0521 419.844 24.9159 420.914 23.0716C421.996 21.2273 424.316 19.9024 426.432 20.1067Z" fill="#86472F"/>
<path d="M452.812 97.3405C446.905 100.194 440.532 102.103 434.026 102.932C433.223 114.616 432.671 127.947 432.369 138.131C432.293 140.857 431.473 162.429 431.432 164.6C398.772 166.788 377.718 163.152 375.078 158.057C378.991 139.176 382.643 113.268 383.788 92.3211C374.398 87.5469 371.781 77.3915 371.781 77.3915L381.236 62.7712C385.038 56.6838 392.074 56.8064 406.837 49.2773C409.814 50.468 412.495 50.6022 415.483 51.8045C415.53 51.8162 415.57 51.8279 415.617 51.8571C415.617 51.8571 415.629 51.8571 415.64 51.8571C415.727 51.8687 416.041 51.9096 416.547 51.9913C417.105 52.0788 417.902 52.2189 418.89 52.464V52.4874C418.902 52.464 418.937 52.4874 418.943 52.4874C418.954 52.4874 420.827 52.785 421.333 52.4991C423.885 53.0885 425.496 54.2266 430.525 56.3745C430.578 56.3978 430.647 56.4212 430.7 56.4387C432.892 57.4892 435.299 58.8258 437.863 60.5125C440.922 62.0008 443.713 64.0494 445.858 66.6933C449.079 70.6562 451.085 75.5355 451.533 80.73L452.812 97.3405Z" fill="#E51937"/>
<path d="M400.25 53.9754C405.547 55.2886 411.053 55.5921 416.426 54.8217C416.85 54.3723 417.281 53.9112 417.717 53.4209C417.513 52.7789 417.321 52.1369 417.176 51.4832C416.635 49.3413 416.397 47.1643 416.443 44.9814V44.8297C416.484 43.4406 416.624 42.0399 416.891 40.6566C417.019 40.003 417.159 39.3493 417.339 38.7189C417.571 37.8551 417.851 36.9972 418.17 36.1392C418.583 35.0887 419.066 34.0556 419.618 33.0809C419.833 32.6665 420.077 32.2463 420.333 31.8378C420.141 31.8144 419.95 31.8027 419.758 31.7852C418.833 31.721 417.891 31.721 416.955 31.7502C415.071 31.8378 413.17 32.1471 411.385 32.649C407.658 33.7288 404.355 35.7423 402.413 38.6606C402.541 40.0321 402.582 41.3862 402.541 42.7578C402.518 43.3647 402.489 43.9542 402.436 44.5554C402.361 45.3258 402.273 46.1079 402.157 46.8783C402.116 47.1584 402.058 47.4211 402.029 47.7012C401.913 48.3199 401.785 48.9444 401.634 49.563C401.43 50.3977 401.198 51.2323 400.93 52.0552C400.721 52.7031 400.5 53.3451 400.25 53.9754Z" fill="#FFA59D"/>
<path d="M404.023 23.5913C400.087 20.1011 398.139 13.8152 403.099 9.59549C405.762 9.49627 405.471 9.34452 407.983 10.2375C406.553 15.1284 405.454 18.7003 404.023 23.5913Z" fill="#683221"/>
<path d="M401.633 49.5693C412.477 47.048 417.489 34.4412 417.489 34.4412L411.384 32.6553C407.651 33.7409 404.354 35.7428 402.406 38.6668C402.534 40.0384 402.575 41.3924 402.534 42.764C402.511 43.371 402.482 43.9663 402.429 44.5616C402.354 45.3379 402.261 46.1141 402.144 46.8904C402.104 47.1647 402.051 47.4332 402.017 47.7075C401.9 48.3261 401.772 48.9448 401.633 49.5693Z" fill="#DD6478"/>
<path d="M402.54 9.58336C403.511 15.4373 402.523 21.5948 399.778 26.8534C398.22 29.83 396.051 32.8124 396.348 36.1625C396.743 40.5749 401.674 43.5398 406.052 43.0028C410.431 42.4601 414.088 39.3025 416.646 35.6956C421.339 29.0946 423.205 20.5442 421.699 12.5833C416.193 9.77596 408.64 8.597 402.54 9.58336Z" fill="#FFA59D"/>
<path d="M422.184 28.1726C418.271 24.3439 417.271 18.3732 419.759 13.6982C411.689 14.4978 399.583 14.9881 396.414 8.34622C399.792 7.8618 401.473 6.08752 403.583 3.9864C412.956 -5.35192 423.039 4.04476 422.533 8.44544C424.463 8.10109 426.597 8.78396 428.103 9.91623C429.609 11.0485 430.493 12.8053 430.435 14.5562C430.377 16.4472 429.301 18.1865 428.179 19.7915C426.359 22.3887 424.393 25.8322 422.184 28.1726Z" fill="#86472F"/>
<path d="M419.905 26.2756C419.713 25.4235 420.324 24.513 421.155 24.2562C421.987 23.9994 422.929 24.3379 423.516 24.9799C424.103 25.6278 424.347 26.5324 424.313 27.402C424.278 28.2717 423.987 29.118 423.609 29.9C423.045 31.0615 422.225 32.1587 421.068 32.7307C419.911 33.2968 418.37 33.2035 417.492 32.258C418.771 30.3845 420.399 28.4876 419.905 26.2756Z" fill="#FFA59D"/>
<path d="M421.352 52.4639V52.4757C421.363 52.4639 421.393 52.4757 421.405 52.4757C421.363 52.4639 421.352 52.4639 421.352 52.4639Z" fill="url(#paint0_linear_3423_201318)"/>
<path d="M404.241 28.3303C404.247 28.4354 403.95 28.4762 403.578 28.342C403.189 28.2136 402.706 27.9043 402.34 27.3148C402.34 27.3031 402.328 27.2856 402.316 27.2798C402.107 26.9062 402.026 26.5444 402.008 26.2175C401.979 25.7448 402.101 25.3654 402.229 25.1962C402.299 25.0969 402.357 25.0678 402.415 25.0911C402.444 25.0969 402.462 25.1203 402.485 25.1436C402.549 25.2662 402.584 25.5638 402.665 25.914C402.735 26.1825 402.828 26.4743 402.985 26.7662C402.997 26.8012 403.014 26.8304 403.037 26.8712C403.282 27.3206 403.619 27.6416 403.88 27.8809C404.113 28.0852 404.276 28.2194 404.241 28.3303Z" fill="#DD6478"/>
<path d="M369.799 74.4265C371.555 79.4575 373.096 84.5703 374.48 89.718C374.695 90.5234 373.45 90.8678 373.235 90.0624C371.857 84.9146 370.311 79.8019 368.555 74.7709C368.281 73.983 369.526 73.6444 369.799 74.4265Z" fill="#DD6478"/>
<path d="M354.49 44.8823C354.501 44.8998 354.501 44.8998 354.501 44.8998C356.234 44.1411 357.31 43.7675 359.17 43.3998C360.432 42.2267 361.345 40.7209 362.45 39.3844C364.45 36.9389 367.136 35.0479 370.108 33.974C370.108 33.974 370.305 29.9877 363.63 33.367C363.101 32.6666 362.828 31.8028 362.578 30.9507C361.252 26.7018 359.944 22.4412 358.63 18.1922C358.444 17.5677 358.042 16.809 357.409 16.9024C356.845 16.9958 356.624 17.6786 356.537 18.2564C356.159 20.4743 357.066 22.9256 356.699 25.1434C356.432 26.6843 356.135 28.3243 355.054 29.4449C354.426 30.0927 352.338 30.2737 351.571 30.7406C351.553 30.7523 351.553 30.7523 351.542 30.7639C346.565 33.9215 354.1 44.3512 354.49 44.8823Z" fill="#FFA59D"/>
<path d="M399.296 64.5569C400.296 65.7767 401.674 66.4187 403.273 66.4187C406.832 66.4187 411.513 63.197 417.99 56.2924C418.414 55.8314 418.862 55.3644 419.31 54.8508C419.694 54.4423 420.106 53.9754 420.537 53.5026L421.432 52.4871C421.42 52.4871 421.42 52.4871 421.409 52.4871C421.397 52.4871 421.368 52.4637 421.357 52.4871V52.4637C420.356 52.2303 419.566 52.0785 419.013 51.991C418.502 51.9151 418.193 51.8743 418.106 51.8626C418.095 51.8626 418.083 51.8626 418.083 51.8626C418.031 51.8276 417.984 51.8217 417.943 51.7984C414.961 50.5902 411.989 49.4054 409.012 48.2031C406.21 49.6272 403.128 51.0455 400.017 52.4812C399.29 52.8022 398.587 53.0649 397.86 53.3976C397.808 53.4209 397.755 53.4501 397.697 53.4734C397.331 56.2282 396.959 61.7203 399.296 64.5569Z" fill="white"/>
<path d="M416.427 54.8219C416.851 54.3725 417.281 53.9114 417.717 53.4212C418.142 52.9601 418.572 52.4815 419.008 51.9854C418.956 51.9796 418.136 51.857 418.084 51.857C418.008 51.8103 417.27 51.5185 417.177 51.4835C414.45 50.3804 411.682 48.2384 408.967 47.147C406.443 48.431 403.728 50.7656 400.925 52.0613C400.628 52.2013 400.32 52.3414 400.018 52.4757C400.018 52.4815 395.291 77.3798 416.427 54.8219Z" fill="#FFA59D"/>
<path d="M386.679 73.1248C384.877 81.681 383.574 90.3307 382.301 98.9803C382.184 99.7857 383.411 100.136 383.528 99.3188C384.801 90.6692 386.098 82.0196 387.906 73.4633C388.075 72.6579 386.848 72.3194 386.679 73.1248Z" fill="#E54E4E"/>
<path d="M414.992 20.2933C413.643 19.3711 412.172 18.6883 410.608 18.233C409.817 18.0054 409.48 19.2369 410.271 19.4703C411.742 19.8964 413.091 20.5384 414.353 21.4022C415.027 21.8633 415.667 20.7544 414.992 20.2933Z" fill="#86472F"/>
<path d="M404.17 17.8131C403.629 17.7081 403.1 17.568 402.576 17.3929C401.797 17.1361 401.46 18.3676 402.239 18.6302C402.762 18.8053 403.292 18.9454 403.832 19.0505C404.629 19.2081 404.972 17.9766 404.17 17.8131Z" fill="#86472F"/>
<path d="M408.956 31.7679C405.734 31.6862 402.129 30.5364 400.821 29.6901C400.373 29.4041 399.763 29.6784 399.687 30.1745C398.274 39.5012 407.112 36.4779 409.357 32.8885C409.682 32.369 409.584 31.7854 408.956 31.7679Z" fill="white"/>
<path d="M454.722 122.151C454.82 125.752 453.937 129.301 452.169 132.429L426.434 178.093L426.393 178.018C424.19 174.294 422.678 170.168 421.922 165.79L422.195 165.078L432.347 138.756L437.418 125.612L433.993 103.48C433.993 103.294 434.016 103.107 434.028 102.932C440.54 102.097 446.907 100.194 452.814 97.3403L454.722 122.151Z" fill="#FFA59D"/>
<path d="M434.967 105.348C434.194 96.6344 433.77 97.0663 432.461 88.4225C432.339 87.6171 431.066 87.6462 431.188 88.4575C432.496 97.1013 432.921 96.6694 433.694 105.383C433.764 106.2 435.037 106.165 434.967 105.348Z" fill="#E54E4E"/>
<path d="M142.364 42.9854H203.73C205.661 42.9854 207.219 44.5495 207.219 46.4814V85.0895C207.219 87.0213 205.655 88.5913 203.73 88.5913H152.591C152.243 88.5913 151.911 88.7314 151.667 88.9765L141.114 99.5697C140.288 100.398 138.875 99.809 138.875 98.6417V46.4814C138.875 44.5495 140.433 42.9854 142.364 42.9854Z" fill="#D2E4FF"/>
<path opacity="0.5" d="M100.853 350C156.276 350 201.206 347.695 201.206 344.852C201.206 342.009 156.276 339.705 100.853 339.705C45.4295 339.705 0.5 342.009 0.5 344.852C0.5 347.695 45.4295 350 100.853 350Z" fill="#7DA1B7"/>
<path d="M13.3735 346.842C14.2166 346.953 14.9958 346.404 15.1876 345.611L34.486 261.256L36.7362 251.661C37.4921 248.44 35.4512 245.23 32.1718 244.488C28.8983 243.747 25.6305 245.755 24.8746 248.977C24.8339 249.158 24.799 249.344 24.7758 249.519L23.3512 259.92L11.9722 345.033C11.8501 345.914 12.4781 346.725 13.3735 346.842Z" fill="#16162B"/>
<path d="M88.2526 251.661L88.7236 253.675L90.1714 259.856L109.801 345.611C109.993 346.404 110.766 346.953 111.61 346.842C112.505 346.72 113.133 345.914 113.011 345.033L101.359 257.889L100.388 250.786L100.254 249.829C99.1723 248.86 95.2417 247.944 89.0318 247.121C88.2003 248.428 87.8689 250.045 88.2526 251.661Z" fill="#16162B"/>
<path d="M100.254 249.829C99.1721 248.86 95.2415 247.949 89.0316 247.121C85.1765 246.607 87.6012 246.134 82.1239 245.702C80.4842 232.389 78.5073 217.395 77.4607 211.559C74.8616 197.26 71.5182 183.801 67.8551 171.772C64.9304 162.154 58.5519 137.53 55.5051 129.954C55.1969 129.178 54.5224 128.582 53.6851 128.419C53.6793 128.419 53.6793 128.419 53.6735 128.419C52.6385 128.209 51.5628 128.22 50.5278 128.419L7.75625 131.512C7.11666 131.495 6.47706 131.547 5.85491 131.676H5.84328C4.15125 132.02 2.5697 132.878 1.41261 134.139C0.610212 135.008 0.313671 136.222 0.616026 137.354C2.62785 144.872 8.09931 169.233 10.303 178.42C13.1696 190.314 16.0187 203.429 18.5306 217.285C20.647 229.068 22.3274 240.432 23.6531 251.025L24.0892 254.515L24.4323 257.258L30.4794 257.113C32.1656 257.072 33.8402 257.031 35.4857 256.984C58.453 256.336 77.3269 255.151 88.7234 253.669C95.4043 252.799 99.5268 251.819 100.387 250.78C100.504 250.646 100.562 250.506 100.562 250.366C100.562 250.196 100.457 250.015 100.254 249.829Z" fill="#16162B"/>
<path d="M95.2519 239.13H29.0362C23.9427 239.13 19.8086 243.193 19.8086 248.2C19.8086 253.208 23.9369 257.27 29.0362 257.27H95.2519C100.345 257.27 104.48 253.208 104.48 248.2C104.48 243.193 100.351 239.13 95.2519 239.13Z" fill="#2E2E4C"/>
<path d="M108.056 205.04L94.9737 180.51C94.7353 180.066 94.6829 179.547 94.8225 179.056L98.7357 165.498L103.701 148.298C104.242 146.431 106.876 146.436 107.405 148.304C108.731 152.973 110.452 160.164 111.65 169.315C112.47 175.554 113.045 182.71 113.092 190.595C113.098 191.5 113.714 192.282 114.598 192.48C116.947 193.005 141.164 195.217 148.374 197.745C149.485 198.136 150.694 198.141 151.805 197.756C155.305 196.536 164.265 197.785 165.835 198.836C167.399 199.881 163.242 202.513 161.37 202.566C157.212 202.682 122.151 204.702 109.975 206.056C109.179 206.132 108.428 205.735 108.056 205.04Z" fill="#FC9792"/>
<path d="M111.638 169.315C107.207 171.194 102.434 172.286 97.625 172.484C98.189 170.15 98.5204 167.827 98.7356 165.498L105.451 142.234C105.446 142.234 109.434 152.454 111.638 169.315Z" fill="#688AE0"/>
<path d="M95.1203 193.046C93.027 197.126 90.521 201.275 87.5556 205.425C84.4332 209.785 80.7875 214.133 76.5429 218.417C62.3031 220.43 48.2552 216.724 36.2773 208.728C36.6088 208.174 36.9518 207.614 37.2716 207.047H37.2833C45.912 192.322 52.6627 176.5 57.291 160.058C58.5644 155.5 59.704 150.872 61.71 146.588C63.716 142.315 66.728 138.347 70.8737 136.111C75.3916 133.678 80.7468 133.532 85.8635 133.444C87.073 133.421 88.2766 133.397 89.486 133.386C90.1837 133.374 90.8931 133.362 91.5908 133.351C93.498 133.316 95.3935 133.286 97.2949 133.251C100.795 135.843 103.121 138.277 105.429 142.082C105.429 142.105 105.429 142.14 105.441 142.17C105.441 142.17 105.453 142.228 105.476 142.368C105.761 144.755 108.296 167.488 95.1203 193.046Z" fill="#688AE0"/>
<path d="M133.502 323.876C131.466 330.926 130.484 338.263 130.594 345.582C141.467 347.041 152.381 348.278 163.347 347.829C164.353 347.788 165.406 347.729 166.29 347.268C167.179 346.807 167.86 345.821 167.61 344.875C167.284 343.632 165.726 343.212 164.435 342.909C154.329 340.551 145.98 332.28 143.805 322.487C141.247 323.625 136.322 323.742 133.502 323.876Z" fill="#16162B"/>
<path d="M104.033 323.876C101.998 330.926 101.015 338.263 101.126 345.582C111.999 347.041 122.913 348.278 133.879 347.829C134.885 347.788 135.937 347.729 136.821 347.268C137.711 346.807 138.391 345.821 138.141 344.875C137.815 343.632 136.257 343.212 134.966 342.909C124.86 340.551 116.511 332.28 114.336 322.487C111.778 323.625 106.853 323.742 104.033 323.876Z" fill="#16162B"/>
<path d="M112.541 131.308C110.104 133.823 108.063 136.724 106.523 139.87C106.121 140.634 105.778 141.428 105.447 142.228C105.447 142.251 105.435 142.275 105.424 142.292V142.304C104.79 143.862 104.546 146.051 104.162 147.673C100.795 144.271 96.8473 140.903 92.7306 138.107C91.2886 136.14 90.1838 134.471 89.707 133.736C89.8524 133.625 89.9978 133.502 90.1373 133.368C95.9344 128.273 99.9755 121.112 100.993 113.472C102.226 116.909 103.749 120.114 105.447 123.335C105.825 124.036 106.209 124.701 106.656 125.314C108.22 127.573 110.192 129.452 112.395 131.174C112.442 131.232 112.506 131.279 112.541 131.308Z" fill="#FFA59D"/>
<path d="M112.546 131.314C110.104 133.824 108.063 136.724 106.523 139.876C99.0858 130.777 101.29 122.244 101.29 122.244L106.651 125.332C108.215 127.584 110.186 129.47 112.395 131.191C112.442 131.232 112.5 131.273 112.546 131.314Z" fill="#F17785"/>
<path d="M123.65 110.197C122.551 118.047 120.696 125.792 118.121 133.292C117.382 135.446 116.301 137.851 114.126 138.487C111.713 139.193 109.329 137.331 107.724 135.393C104.038 130.934 101.334 126.656 100.944 120.872C100.555 115.088 102.479 107.834 105.538 102.914C112.242 104.775 117.417 107.081 123.65 110.197Z" fill="#FFA59D"/>
<path d="M131.564 101.274C131.099 103.573 130.698 105.511 129.57 107.571C128.43 109.632 126.5 111.4 124.185 111.733C122.168 112.024 120.162 111.219 118.278 110.431C115.865 109.433 113.458 108.429 111.056 107.431C111.068 110.221 109.184 113.192 106.846 114.703C106.858 113.723 105.841 112.923 104.864 112.97C103.875 113.017 103.026 113.746 102.602 114.639C102.172 115.526 102.113 116.554 102.189 117.528C102.247 118.351 102.387 119.186 102.8 119.886C103.218 120.587 103.962 121.129 104.771 121.153C102.776 124.509 99.6423 127.66 95.8047 126.925C95.8047 126.925 95.8047 126.925 95.8163 126.913C95.9268 126.656 97.7991 122.542 97.9095 115.357V114.68C97.9444 110.612 97.6304 106.375 99.1713 102.604C99.7702 101.145 100.701 99.7446 102.084 99.015C103.48 98.2796 105.399 98.4256 106.393 99.6512C107.114 97.4509 109.73 96.1785 112.021 95.9917C114.324 95.7933 116.586 96.5054 118.778 97.2057C123.04 98.5481 127.308 99.9022 131.564 101.274Z" fill="#86472F"/>
<path d="M154.463 228.555V228.613L154.277 234.917L151.637 323.987L146.549 325.177L128.53 326.87L121.32 240.491C120.785 240.677 120.268 240.87 119.733 241.057C110.307 244.383 100.463 246.876 90.41 248.475C89.5203 248.621 88.6249 248.755 87.7353 248.883H43.0798C43.0158 248.86 42.9461 248.837 42.8821 248.819C42.7309 248.773 42.5856 248.732 42.446 248.673C42.2134 248.586 41.9867 248.498 41.7773 248.405L62.0758 242.813C60.6629 240.257 60.157 237.275 59.9186 234.415C59.2267 225.783 60.2908 217.063 63.0527 208.711C77.3796 206.231 92.4741 205.676 107.51 205.519C116.575 205.419 125.617 205.472 134.455 205.343C139.374 205.268 144.735 205.39 148.538 207.958C152.561 210.684 153.614 215.33 154.05 219.602C154.341 222.462 154.463 225.456 154.463 228.555Z" fill="#2E2E4C"/>
<path d="M92.729 138.119C91.287 136.152 90.1822 134.483 89.7054 133.748C89.6066 133.572 89.531 133.45 89.4961 133.392C89.7054 133.392 89.9264 133.38 90.1415 133.38C90.6299 133.368 91.1183 133.368 91.6068 133.357C93.5139 133.322 95.4095 133.292 97.3108 133.257C100.811 135.849 103.137 138.282 105.445 142.088C105.445 142.111 105.445 142.146 105.457 142.175V142.234C106.643 155.453 97.7236 144.977 92.729 138.119Z" fill="#FFA59D"/>
<path d="M122.098 118.964L121.936 128.273L116.371 127.141L122.098 118.964Z" fill="#FFA59D"/>
<path d="M95.118 193.046C93.0248 197.126 90.5187 201.275 87.5533 205.425C75.808 191.114 73.7031 173.027 73.7031 173.027L95.118 193.046Z" fill="#466FC1"/>
<path d="M104.285 159.282C104.18 158.226 102.517 158.214 102.622 159.282C103.18 164.932 102.529 170.406 100.668 175.764C100.313 176.78 101.918 177.217 102.273 176.208C104.186 170.704 104.86 165.089 104.285 159.282Z" fill="#466FC1"/>
<path d="M94.5967 155.284C94.5967 155.284 101.045 171.772 109.4 183.918C109.4 183.918 115.634 166.374 115.936 151.695L109.999 140.915C109.999 140.915 113.645 135.353 121.977 137.162C121.977 137.162 124.524 144.02 122.245 150.948C122.245 150.948 128.269 180.346 117.779 201.778C115.715 205.991 110.54 207.573 106.406 205.379C97.6377 200.739 82.8397 190.77 73.7109 173.021C73.7109 173.027 86.9506 170.669 94.5967 155.284Z" fill="#FFA59D"/>
<path d="M94.5805 155.057C91.6268 159.702 87.9462 163.765 83.4341 166.928C81.8119 168.066 80.0326 169.297 78.1894 170.056C73.6774 171.918 72.6249 170.033 71.055 166.49C70.6189 165.51 69.1885 166.356 69.6188 167.331C70.3282 168.924 71.4271 172.799 73.3052 173.465C75.1542 174.118 78.9569 171.568 80.3815 170.786C86.8298 167.255 92.0745 162.078 96.0109 155.891C96.5924 154.992 95.1562 154.152 94.5805 155.057Z" fill="#466FC1"/>
<path d="M111.224 176.704C110.34 179.862 109.259 182.937 107.956 185.949C107.532 186.924 108.968 187.776 109.393 186.789C110.753 183.649 111.899 180.445 112.823 177.148C113.114 176.109 111.509 175.671 111.224 176.704Z" fill="#F17785"/>
<path d="M120.07 228.555V228.613L119.895 234.917L119.732 241.057L119.523 248.883L118.558 284.661L117.494 323.987L112.848 325.177L96.393 326.87L93.1717 284.667L90.4447 248.889L90.4098 248.481L89.8051 240.496C58.3835 251.387 43.6146 245.621 37.4338 240.928C35.294 239.294 33.9625 236.96 33.759 234.45C33.759 234.438 33.759 234.427 33.759 234.415C33.1136 225.783 34.0962 217.063 36.6197 208.711C57.5985 204.742 80.3856 205.7 101.806 205.344C103.69 205.309 105.632 205.309 107.516 205.519C110.144 205.799 112.645 206.452 114.662 207.952C118.343 210.678 119.308 215.324 119.703 219.596C119.959 222.462 120.07 225.456 120.07 228.555Z" fill="#3E3E63"/>
<path d="M99.5906 235.01L79.1352 243.864C78.0595 244.331 79.0014 245.767 80.0713 245.305C86.8917 242.352 93.7064 239.405 100.527 236.452C101.602 235.985 100.661 234.549 99.5906 235.01Z" fill="#2E2E4C"/>
<path d="M189.547 152.682L172.033 200.791L169.655 207.322H105.841C105.073 207.322 104.457 206.704 104.457 205.933V202.18C104.457 201.41 105.073 200.791 105.841 200.791H165.114L182.395 153.318L183.441 150.44C183.709 149.722 184.505 149.349 185.221 149.617L188.738 150.901C189.442 151.164 189.814 151.964 189.547 152.682Z" fill="#16162B"/>
<path d="M184.697 154.112L168.166 200.786H165.113L182.388 153.312L184.697 154.112Z" fill="#D2E4FF"/>
<path d="M181.166 66.5351C181.166 60.2167 177.094 54.8542 171.441 52.9441C171.002 52.7958 170.531 52.7741 170.079 52.8773C168.281 53.288 166.615 54.0472 165.155 55.0806L162.633 57.3736C160.515 59.8296 159.234 63.0322 159.234 66.5351C159.234 73.1986 163.87 78.7747 170.08 80.1931C170.532 80.2962 171.002 80.2742 171.441 80.126C177.094 78.2157 181.166 72.8533 181.166 66.5351Z" fill="#E28086"/>
<path d="M173.19 52.5278C172.141 52.5278 171.12 52.6448 170.137 52.8652C176.375 54.2632 181.038 59.8522 181.038 66.5353C181.038 73.2184 176.375 78.8074 170.137 80.2054C171.12 80.4257 172.141 80.5428 173.19 80.5428C180.897 80.5428 187.145 74.2714 187.145 66.5354C187.145 58.7993 180.897 52.5278 173.19 52.5278Z" fill="#DD636E"/>
<path d="M178.332 68.2447L178.749 60.4584C178.761 60.2474 178.587 60.0731 178.377 60.0845L170.62 60.5034C170.314 60.52 170.172 60.8921 170.389 61.1095L172.098 62.8257C172.237 62.9645 172.237 63.1895 172.098 63.3283L166.276 69.1729C166.137 69.3117 166.137 69.5367 166.276 69.6754L169.195 72.6056C169.333 72.7443 169.557 72.7443 169.695 72.6056L175.518 66.7609C175.656 66.6222 175.88 66.6222 176.019 66.7609L177.728 68.4771C177.945 68.6943 178.316 68.5517 178.332 68.2447Z" fill="#F4FBFF"/>
</g>
<defs>
<linearGradient id="paint0_linear_3423_201318" x1="421.404" y1="52.4698" x2="421.351" y2="52.4698" gradientUnits="userSpaceOnUse">
<stop stop-color="#C3AAFF"/>
<stop offset="1" stop-color="#E1D4FF"/>
</linearGradient>
<clipPath id="clip0_3423_201318">
<rect width="480" height="350" fill="white" transform="translate(0.5)"/>
</clipPath>
</defs>
</svg>
