<svg width="167" height="108" viewBox="0 0 167 108" fill="none" xmlns="http://www.w3.org/2000/svg">
<path d="M17.6433 108C17.6433 108 0.569453 70.3015 11.7036 57.3119C22.8995 41.1351 40.0854 37.6534 41.692 23.317C42.9162 4.64181 72.4952 -1.80517 85.9775 9.09922C99.4597 20.0074 112.328 34.3438 125.934 29.4426C139.543 24.5414 153.288 49.698 157.023 61.5857C160.394 72.3179 162.8 104.323 141.026 108H17.6433Z" fill="#F9DA93"/>
<path d="M50.9877 81.2631C50.9877 81.2631 16.9597 63.2842 11.0547 41.7471C11.0547 41.7471 42.9432 41.4142 61.3301 64.1107L50.9877 81.2631Z" fill="#27AE60"/>
<path d="M10.996 41.4015L10.7031 41.8055L57.4616 75.07L57.7544 74.666L10.996 41.4015Z" fill="white"/>
<path d="M59.5614 75.5086C54.2975 69.0808 22.131 46.5527 26.6148 18.9703C26.6148 18.9703 62.1297 30.3492 71.2285 67.711L59.5614 75.5086Z" fill="#27AE60"/>
<path d="M48.9606 83.754L48.8023 83.6698C48.7173 83.6239 40.1746 79.0861 31.0216 71.9696C25.6457 67.7876 21.1079 63.5483 17.5433 59.3702C13.0788 54.1361 10.1282 48.9785 8.77269 44.039L8.70703 43.8056L8.95034 43.8018C9.03144 43.8018 17.0683 43.7521 27.2446 46.4801C33.223 48.0832 38.7611 50.3177 43.7083 53.1222C49.8952 56.6307 55.163 61.0422 59.3725 66.2381L59.4536 66.3414L48.9606 83.754ZM9.20523 44.1806C12.3296 55.1615 22.8999 65.1821 31.2495 71.675C39.6918 78.2367 47.6128 82.6023 48.8216 83.2566L59.0018 66.372C49.5438 54.7559 36.4671 49.342 27.1519 46.8436C18.0183 44.3949 10.6264 44.1959 9.20523 44.1806Z" fill="#191919"/>
<path d="M57.4238 77.9995L57.3157 77.8656C56.3618 76.7025 54.5041 74.9884 52.1483 72.8228C46.9037 67.9943 38.9751 60.6979 32.8924 51.8481C29.5479 46.9852 27.1071 42.1375 25.6396 37.4467C23.9133 31.9333 23.473 26.462 24.3342 21.1781L24.369 20.9639L24.5775 21.0327C24.6664 21.0595 33.5992 23.975 43.5283 31.4206C49.36 35.7938 54.3883 40.8558 58.4781 46.4648C63.5914 53.4742 67.2371 61.3637 69.3188 69.9073L69.3497 70.0336L57.4238 77.9995ZM24.6664 21.4574C21.1867 43.8095 41.4815 62.4924 52.4032 72.5473C54.6818 74.6479 56.5008 76.3199 57.4972 77.4983L68.9132 69.8691C64.2055 50.7003 52.3955 38.5524 43.3044 31.7267C34.2711 24.9468 26.0683 21.9433 24.6664 21.4574Z" fill="#191919"/>
<path d="M65.6179 72.3064L65.4712 72.1036L26.4805 19.3034L26.886 19.0088L66.0273 72.0117L65.6179 72.3064Z" fill="white"/>
<path d="M89.8137 8.57502L49.5369 8.50233C47.6291 8.4985 46.0766 10.0289 46.0727 11.919L45.9414 85.0817C45.9376 86.9718 47.4824 88.5099 49.3902 88.5137L89.6669 88.5864C91.5748 88.5902 93.1273 87.0598 93.1311 85.1659L93.2624 12.0032C93.2663 10.1131 91.7215 8.57885 89.8137 8.57502Z" fill="white"/>
<path d="M91.3121 83.5245C91.3083 85.6786 89.5395 87.4233 87.3652 87.4194L51.6996 87.3544C49.5253 87.3506 47.7643 85.602 47.7681 83.4441L47.8956 13.5566C47.8994 11.4025 49.6682 9.65781 51.8425 9.65781L87.5081 9.72285C89.6824 9.72668 91.4434 11.479 91.4396 13.6331L91.3121 83.5245ZM89.8137 8.57502L49.5369 8.50233C47.6291 8.4985 46.0766 10.0289 46.0727 11.919L45.9414 85.0817C45.9376 86.9718 47.4824 88.5099 49.3902 88.5137L89.6669 88.5864C91.5748 88.5902 93.1273 87.0598 93.1311 85.1659L93.2624 12.0032C93.2663 10.1131 91.7215 8.57885 89.8137 8.57502Z" fill="#191919"/>
<path d="M70.2466 13.308H68.9606C68.0028 13.308 67.2266 12.5389 67.2266 11.5901V9.80328C67.2266 9.27528 67.6552 8.85059 68.1882 8.85059H71.0152C71.5481 8.85059 71.9768 9.27528 71.9768 9.80328V11.5901C71.9768 12.5389 71.2006 13.308 70.2466 13.308Z" fill="#191919"/>
<path d="M70.5141 11.2654C70.617 10.7687 70.2939 10.2832 69.7925 10.1813C69.291 10.0793 68.8011 10.3993 68.6981 10.8961C68.5952 11.3929 68.9182 11.8783 69.4197 11.9803C69.9211 12.0823 70.4111 11.7622 70.5141 11.2654Z" fill="white"/>
<g clip-path="url(#clip0_3051_200226)">
<path d="M76.3386 46.4938C80.0907 42.7765 80.0907 36.7496 76.3386 33.0324C72.5864 29.3151 66.503 29.3151 62.7509 33.0324C58.9987 36.7496 58.9987 42.7765 62.7509 46.4938C66.503 50.211 72.5864 50.211 76.3386 46.4938Z" fill="#46CC6B"/>
<path fill-rule="evenodd" clip-rule="evenodd" d="M79.0174 41.378C78.3337 45.3416 75.1771 48.4686 71.1765 49.1461L66.0034 44.0211C64.7655 43.009 63.9766 41.4773 63.9766 39.763C63.9766 36.7155 66.4702 34.245 69.5464 34.245C71.2767 34.245 72.8227 35.0267 73.8443 36.253L79.0174 41.378Z" fill="#179C5F"/>
<path fill-rule="evenodd" clip-rule="evenodd" d="M66.9393 40.0907L68.5255 41.5339C68.7569 41.7449 69.1151 41.7337 69.3327 41.5114L72.1626 38.8271C72.3928 38.6078 72.3998 38.245 72.1783 38.0168C71.9569 37.789 71.5909 37.7819 71.3607 38.0011L68.9095 40.3263L67.7229 39.2468C67.4878 39.0326 67.1216 39.0476 66.9052 39.2807C66.6888 39.5136 66.7041 39.8762 66.9393 40.0907ZM69.5464 34.245C72.6225 34.245 75.1162 36.7155 75.1162 39.763C75.1162 42.8106 72.6225 45.2811 69.5464 45.2811C66.4702 45.2811 63.9766 42.8106 63.9766 39.763C63.9766 36.7155 66.4702 34.245 69.5464 34.245Z" fill="white"/>
</g>
<path d="M81.3266 61.2757H57.8727C56.2584 61.2757 54.9492 59.9787 54.9492 58.3794C54.9492 56.7801 56.2584 55.483 57.8727 55.483H81.3266C82.941 55.483 84.2502 56.7801 84.2502 58.3794C84.2502 59.9787 82.941 61.2757 81.3266 61.2757Z" fill="#27AE60"/>
<path d="M117.385 17.7615C117.385 17.7615 124.078 16.8585 125.426 23.5045C126.774 30.1542 125.793 34.9675 128.492 36.6318C131.192 38.2962 134.239 41.2116 134.826 45.8718C136.479 58.9992 127.642 59.244 127.642 59.244C127.642 59.244 107.765 35.6562 106.289 32.5494C104.814 29.4426 102.366 22.0161 105.432 21.7712C108.502 21.5264 110.101 14.2185 117.385 17.7615Z" fill="#191919"/>
<path d="M101.722 91.521C101.672 90.2775 101.645 89.6041 101.645 89.6041H134.182C134.182 89.6041 134.213 89.9026 134.267 90.4688C134.336 91.1652 134.444 92.2709 134.587 93.7248C134.904 96.9617 135.398 101.932 136.012 107.996H102.305C102.12 102.211 101.946 97.4247 101.826 94.1878C101.784 93.128 101.749 92.2327 101.722 91.521Z" fill="#DB8D54"/>
<path d="M138.72 108H98.5703C99.1419 101.752 99.9143 96.8049 100.405 94.0271C100.683 92.4316 100.868 91.5516 100.868 91.5516L101.722 91.5248L134.267 90.4765L134.749 90.4612C135.008 91.4139 135.259 92.3666 135.506 93.3116C136.804 98.3697 137.862 103.305 138.72 108Z" fill="#FAC437"/>
<path d="M113.616 45.7533C112.666 42.547 105.749 46.0861 103.011 55.8924C100.396 65.2549 97.2141 93.8894 100.686 94.119C104.158 94.3486 133.888 96.0665 135.853 92.9712C137.819 89.8758 132.393 50.3522 123.341 45.2941C115.976 41.1772 113.616 45.7533 113.616 45.7533Z" fill="#E51937"/>
<path d="M126.317 55.0813L125.95 54.9512C124.587 55.0966 123.231 55.3414 121.903 55.6743C121.354 55.812 120.794 55.9727 120.35 56.3171C119.798 56.7418 119.481 57.3922 119.211 58.0274C117.932 61.0461 117.303 64.2983 116.129 67.3592C114.955 70.4201 113.078 73.4159 110.127 74.8928C106.59 76.6643 102.156 75.9526 98.6727 77.8274C98.2942 78.0302 97.9196 78.2712 97.6608 78.6156C97.321 79.0633 97.2051 79.6372 97.1009 80.1881C96.846 81.5196 96.5911 82.9047 96.9541 84.2094C97.4021 85.8354 98.7306 87.0636 100.082 88.0852C101.133 88.8734 102.311 89.6195 103.628 89.6615C104.701 89.696 105.729 89.256 106.779 89.0264C109.177 88.5022 111.738 89.0608 114.094 88.3722C114.897 88.1388 115.696 87.7294 116.144 87.0292C116.89 85.8622 116.457 84.3127 116.843 82.9888C117.315 81.3589 118.906 80.3373 120.396 79.5071C121.887 78.6768 123.513 77.7662 124.158 76.1975C124.509 75.3405 124.517 74.3839 124.436 73.4618C124.193 70.6764 123.227 67.6538 124.641 65.2319C125.12 64.4131 125.83 63.755 126.321 62.9439C127.719 60.6253 127.039 57.683 126.317 55.0813Z" fill="#191919"/>
<path d="M107.642 44.6973L107.391 44.9307C107.503 44.8694 107.584 44.7891 107.642 44.6973Z" fill="#191919"/>
<path d="M128.638 41.2499C128.071 40.5345 127.194 40.1404 126.333 39.8305C120.578 37.7567 113.874 38.476 108.699 41.7206C108.309 41.9654 107.899 42.2562 107.764 42.6962C107.563 43.3352 107.934 44.2113 107.641 44.6973L107.841 44.5098C107.644 46.0861 107.548 47.9494 108.761 48.9863C109.815 49.8893 111.391 49.7477 112.769 49.5602C113.109 49.5143 113.476 49.4722 113.781 49.6253C114.326 49.8969 114.411 50.6162 114.731 51.1328C115.322 52.0893 116.682 52.2538 117.786 52.0013C118.891 51.7526 119.926 51.1978 121.053 51.0983C122.204 50.995 123.371 51.3776 124.506 51.171C125.873 50.9262 126.954 49.874 127.711 48.7185C128.488 47.5286 129.013 46.178 129.248 44.7814C129.453 43.5686 129.407 42.218 128.638 41.2499Z" fill="#191919"/>
<path d="M109.27 46.1512C112.633 49.4608 119.581 45.3554 119.581 45.3554C118.561 43.362 118.739 39.3484 119.311 38.3689L115.368 40.9783C112.834 42.4552 110.212 41.204 110.212 41.204C110.216 41.227 110.196 41.6326 110.196 41.6555C110.216 41.8621 110.166 42.1185 110.127 42.4131C109.795 44.9574 109.27 46.1512 109.27 46.1512Z" fill="#DB8D54"/>
<path d="M110.121 42.4169C114.157 43.8708 116.204 41.1964 116.246 41.1313C113.234 42.4475 110.206 41.3188 110.206 41.3188C110.21 41.3418 110.183 42.1261 110.121 42.4169Z" fill="#191919"/>
<path d="M120.284 31.478C120.284 31.478 123.307 30.0624 123.153 32.6986C123.064 34.2328 120.735 34.4777 120.735 34.4777C120.735 34.4777 120.021 42.0113 112.088 42.0228C105.361 42.0304 107.481 26.9518 107.481 26.9518C107.481 26.9518 116.611 27.5372 116.939 23.9789C116.939 23.9789 118.855 25.0885 118.41 26.4812C117.966 27.8739 119.669 31.9831 120.284 31.478Z" fill="#DB8D54"/>
<path d="M121.159 33.1653C121.661 32.0749 122.554 32.4116 122.654 32.4537L122.832 32.0443C122.353 31.8415 121.306 31.7726 120.75 32.9817L121.159 33.1653Z" fill="#191919"/>
<path d="M116.776 30.1847L117.019 29.8098C116.919 29.7447 114.497 28.2449 112.895 29.3545L113.153 29.7218C114.509 28.7767 116.753 30.1694 116.776 30.1847Z" fill="#191919"/>
<path d="M107.568 29.6952C108.831 28.9376 109.931 29.7526 109.943 29.7602L110.217 29.4044C110.163 29.3623 108.858 28.3981 107.336 29.3126L107.568 29.6952Z" fill="#191919"/>
<path d="M116.763 31.9641L117.03 31.6044C116.952 31.5508 115.149 30.2729 113.469 31.2868L113.704 31.6694C115.129 30.8047 116.748 31.9487 116.763 31.9641Z" fill="#191919"/>
<path d="M115.062 31.9889C115.098 31.589 114.851 31.2405 114.511 31.2104C114.172 31.1804 113.867 31.4802 113.831 31.8801C113.795 32.28 114.041 32.6285 114.381 32.6585C114.721 32.6886 115.026 32.3888 115.062 31.9889Z" fill="#191919"/>
<path d="M110.783 31.9641L111.049 31.6044C110.972 31.5508 109.168 30.2729 107.488 31.2868L107.724 31.6694C109.149 30.8047 110.767 31.9487 110.783 31.9641Z" fill="#191919"/>
<path d="M109.144 32.0244C109.18 31.6245 108.933 31.276 108.593 31.2459C108.254 31.2159 107.949 31.5157 107.913 31.9156C107.877 32.3155 108.123 32.664 108.463 32.694C108.803 32.7241 109.108 32.4243 109.144 32.0244Z" fill="#191919"/>
<path d="M112.043 35.3768C112.297 35.3883 112.595 35.3692 112.915 35.2735L112.788 34.845C112.27 34.9942 111.822 34.9215 111.575 34.8527C112.212 33.2342 112.174 31.4053 112.174 31.3212L111.722 31.3326C111.722 31.3518 111.761 33.3184 111.069 34.8947L110.984 35.0937L111.181 35.1855C111.201 35.1932 111.54 35.35 112.043 35.3768Z" fill="#191919"/>
<path d="M111.399 37.5691C111.824 37.8102 112.214 37.8752 112.566 37.7643C113.164 37.5768 113.388 36.9455 113.396 36.9187L112.971 36.7733L113.184 36.846L112.971 36.7733C112.971 36.7771 112.809 37.221 112.427 37.3396C112.149 37.4276 111.801 37.3243 111.395 37.0335L111.133 37.397C111.222 37.462 111.31 37.5194 111.399 37.5691Z" fill="#191919"/>
<path d="M69.3839 60.0093C69.9014 59.3091 70.5579 59.8256 70.8476 59.9366C70.585 59.8218 65.6262 57.6065 66.3638 56.8107C67.1169 55.9957 74.6053 59.5502 74.6053 59.5502C72.18 56.8757 72.3267 55.5328 72.8172 55.3261C73.3115 55.1234 74.2693 56.9025 75.2194 57.8361C75.7407 58.3488 77.5057 59.4928 78.5291 61.1265C79.9387 63.3763 81.3252 63.713 81.3252 63.713C82.0667 64.9182 79.7263 69.7352 79.7263 69.7352C79.7263 69.7352 75.8875 67.2062 73.8522 66.5825C71.8787 65.978 68.4879 64.0229 68.5806 63.0931C68.6617 62.2858 69.5461 62.7296 69.5461 62.7296C68.8548 62.3509 68.8857 61.907 69.0324 61.6201C69.2603 61.1724 69.6813 61.2375 69.9709 61.3446C69.6542 61.2069 68.8664 60.7056 69.3839 60.0093Z" fill="#DB8D54"/>
<path d="M77.4023 70.7338L81.5579 62.3432L105.267 68.5224C105.267 68.5224 114.852 43.9091 123.511 47.4405C134.714 52.0127 116.66 80.7238 110.125 82.3996C105.865 83.4939 77.4023 70.7338 77.4023 70.7338Z" fill="#E51937"/>
<path d="M157.922 13.3079L161.927 19.7893" stroke="#191919" stroke-width="3.25075" stroke-miterlimit="10"/>
<path d="M165 44.8043L161.922 47.4405" stroke="#191919" stroke-width="3.25075" stroke-miterlimit="10"/>
<path d="M23.3633 5.75513L26.1323 8.85044" stroke="#191919" stroke-width="3.25075" stroke-miterlimit="10"/>
<path d="M6.44531 54.3696V59.6076" stroke="#191919" stroke-width="3.25075" stroke-miterlimit="10"/>
<path d="M32.4116 30.5901C32.8203 30.1852 32.8203 29.5287 32.4116 29.1238C32.0028 28.7188 31.3402 28.7188 30.9315 29.1238C30.5227 29.5287 30.5227 30.1852 30.9315 30.5901C31.3402 30.995 32.0028 30.995 32.4116 30.5901Z" stroke="#191919" stroke-width="3.25075" stroke-miterlimit="10"/>
<path d="M103.938 4.99443C104.14 3.74021 103.277 2.56152 102.011 2.36175C100.745 2.16198 99.555 3.01679 99.3534 4.27102C99.1517 5.52524 100.015 6.70393 101.281 6.9037C102.547 7.10347 103.736 6.24866 103.938 4.99443Z" stroke="#191919" stroke-width="3.25075" stroke-miterlimit="10"/>
<path d="M9.16788 93.1508C10.6715 91.6611 10.6715 89.2459 9.16787 87.7562C7.66421 86.2665 5.22629 86.2665 3.72262 87.7562C2.21896 89.2459 2.21896 91.6611 3.72262 93.1508C5.22629 94.6405 7.66421 94.6405 9.16788 93.1508Z" stroke="#191919" stroke-width="3.25075" stroke-miterlimit="10"/>
<path d="M153.155 86.8567C153.981 86.5179 154.373 85.58 154.031 84.762C153.689 83.944 152.743 83.5556 151.917 83.8944C151.091 84.2333 150.699 85.1711 151.041 85.9891C151.383 86.8071 152.33 87.1955 153.155 86.8567Z" stroke="#191919" stroke-width="3.25075" stroke-miterlimit="10"/>
<path d="M100.059 67.164C100.302 67.2291 105.268 68.5223 105.268 68.5223C105.268 68.5223 112.506 53.0878 116.302 49.8854" stroke="#191919" stroke-width="3.25075" stroke-miterlimit="10"/>
<path d="M106.397 71.0897L105.27 68.5223" stroke="#191919" stroke-width="3.25075" stroke-miterlimit="10"/>
<defs>
<clipPath id="clip0_3051_200226">
<rect width="20.5001" height="20.3095" fill="white" transform="translate(59.2969 29.6083)"/>
</clipPath>
</defs>
</svg>
