<svg width="21" height="23" viewBox="0 0 21 23" fill="none" xmlns="http://www.w3.org/2000/svg">
<path d="M18.1197 10.2083C18.1883 10.6301 18.2239 11.0631 18.2239 11.496C18.2239 11.929 18.1883 12.362 18.1197 12.7838L17.9375 13.9037L19.9973 15.6883C19.6848 16.4168 19.2901 17.1065 18.8228 17.7434L16.2641 16.8248L15.398 17.545C14.7388 18.0918 14.0056 18.5219 13.2108 18.8245L12.1596 19.2241L11.6663 21.9329C10.8878 22.0217 10.1012 22.0217 9.32278 21.9329L8.82941 19.2186L7.7865 18.8134C7.00123 18.5122 6.2694 18.082 5.61569 17.5367L4.74957 16.8137L2.17448 17.7407C1.70578 17.1009 1.31383 16.4113 1 15.6855L3.08172 13.8843L2.90219 12.7672C2.83641 12.3509 2.80078 11.9207 2.80078 11.496C2.80078 11.0686 2.83367 10.6412 2.90219 10.2249L3.08172 9.10782L1 7.30798C1.31109 6.57944 1.70578 5.89253 2.17448 5.2528L4.74957 6.17978L5.61569 5.45679C6.2694 4.91281 6.99986 4.48263 7.7865 4.18011L8.83215 3.78045L9.32552 1.06612C10.0998 0.977309 10.8919 0.977309 11.669 1.06612L12.1624 3.7749L13.2135 4.17456C14.0043 4.47569 14.7416 4.90587 15.4008 5.45401L16.2669 6.17423L18.8255 5.25557C19.2942 5.8953 19.6862 6.58499 20 7.31075L17.9402 9.09533L18.1197 10.2083Z" stroke="white" stroke-miterlimit="10"/>
<path d="M12.6844 13.4289C12.398 13.7204 12.0581 13.9507 11.6826 14.1075C11.3071 14.2643 10.9056 14.3448 10.4999 14.3448C9.6749 14.3448 8.90059 14.0187 8.3154 13.4289C8.02761 13.1389 7.80011 12.7948 7.64525 12.4145C7.49039 12.0343 7.4109 11.6277 7.4109 11.217C7.4109 10.3816 7.73296 9.59752 8.3154 9.00497C8.90059 8.41242 9.6749 8.08909 10.4999 8.08909C11.3249 8.08909 12.0992 8.41242 12.6844 9.00497C12.9722 9.295 13.1997 9.63915 13.3546 10.0194C13.5094 10.3982 13.5889 10.8062 13.5889 11.217C13.5889 12.0524 13.2655 12.8364 12.6844 13.4289Z" stroke="white" stroke-miterlimit="10"/>
</svg>
