<svg width="24" height="24" viewBox="0 0 24 24" fill="none" xmlns="http://www.w3.org/2000/svg">
<g clip-path="url(#clip0_1088_179603)">
<path d="M20.6719 9.9203H20.6125V8.46486C20.6125 3.78958 16.8225 -0.000488281 12.1472 -0.000488281C7.47184 -0.000488281 3.68183 3.78958 3.68183 8.46486V9.9203H3.32541C2.01847 9.9203 1.00858 11.0787 1.00858 12.4154V16.1282C0.975667 17.4237 1.99925 18.5007 3.29477 18.5336C3.305 18.5339 3.31518 18.534 3.32541 18.5341H5.52342C5.83475 18.5195 6.07529 18.2552 6.06063 17.9439C6.06011 17.9327 6.05926 17.9215 6.05807 17.9104V10.6331C6.05807 10.2767 5.85016 9.92024 5.52342 9.92024H4.86995V8.4648C4.86995 4.44572 8.1281 1.18758 12.1472 1.18758C16.1662 1.18758 19.4244 4.44572 19.4244 8.4648V9.92024H18.7709C18.4442 9.92024 18.2363 10.2767 18.2363 10.6331V17.9104C18.2031 18.2203 18.4275 18.4984 18.7374 18.5315C18.7485 18.5327 18.7597 18.5336 18.7709 18.5341H19.4541L19.3947 18.6232C18.5034 19.8077 17.1048 20.5015 15.6224 20.4944C15.2979 18.9032 13.7447 17.8762 12.1535 18.2008C10.7927 18.4783 9.81158 19.6701 9.80061 21.0588C9.81687 22.6877 11.142 23.9995 12.7709 23.9994C13.5773 23.9863 14.3459 23.6554 14.9095 23.0786C15.2898 22.6892 15.539 22.1907 15.6224 21.6528C17.4788 21.6599 19.2294 20.79 20.3451 19.3063L20.9095 18.4746C22.1867 18.3855 22.9887 17.5836 22.9887 16.4251V12.7123C22.9888 11.4352 22.0383 9.9203 20.6719 9.9203ZM4.86995 17.346H3.32541C2.68581 17.3304 2.17993 16.7994 2.19551 16.1598C2.1958 16.1493 2.19619 16.1387 2.19671 16.1282V12.4153C2.19671 11.7322 2.67194 11.1084 3.32541 11.1084H4.86995V17.346ZM14.0482 22.247C13.719 22.6039 13.2565 22.8083 12.771 22.8114C11.8046 22.796 11.0203 22.0249 10.9888 21.0589C10.9884 20.091 11.7727 19.3061 12.7405 19.3057C13.7084 19.3053 14.4933 20.0896 14.4937 21.0575C14.4937 21.0579 14.4937 21.0584 14.4937 21.0589C14.5185 21.4999 14.3568 21.931 14.0482 22.247ZM21.8006 16.4252C21.8006 17.2272 21.0283 17.346 20.6719 17.346H19.4244V11.1084H20.6719C21.3254 11.1084 21.8006 12.0292 21.8006 12.7124V16.4252Z" fill="white"/>
</g>
<defs>
<clipPath id="clip0_1088_179603">
<rect width="24" height="24" fill="white" transform="translate(0 -0.000488281)"/>
</clipPath>
</defs>
</svg>
