<svg width="150" height="150" viewBox="0 0 150 150" fill="none" xmlns="http://www.w3.org/2000/svg">
<g clip-path="url(#clip0_849_130484)">
<path d="M37.653 146.818C46.931 137.842 55.9125 128.506 65.1902 119.53C66.9425 117.844 65.3368 114.576 62.9443 115.339C58.2701 116.412 53.8457 117.641 49.1715 118.715C51.8799 114.67 55.7581 112.924 60.4953 111.194C62.4342 110.321 64.4834 108.995 64.5796 106.62C64.8026 102.932 60.4613 99.8637 58.0257 97.6417C51.8118 92.0083 44.9247 87.1713 39.3837 80.7416C33.1564 73.1858 39.2065 71.5829 46.3329 71.8723C53.8658 72.0684 61.7252 73.687 68.8651 75.8987C81.3323 79.8826 94.4394 84.7895 107.663 83.6789C115.009 83.062 124.94 76.9312 122.481 68.0822C119.555 57.2016 108.533 46.4674 98.7708 41.2207C93.7731 38.0893 57.9703 21.9199 74.9346 15.672C87.3646 11.1068 105.439 18.0821 117.453 21.956C119.063 22.4423 120.019 20.0834 118.566 19.3472C106.992 13.6611 93.1487 10.2072 80.0987 10.208C73.0656 10.3251 61.182 15.4066 66.0634 24.555C71.7246 35.2358 86.2542 39.8159 96.4693 45.1725C102.983 48.3837 108.68 54.5636 113.332 59.9139C123.227 71.3341 114.419 79.5605 101.885 79.0149C86.5233 78.2633 72.3569 70.6044 57.3874 67.8369C52.0434 66.9244 34.1059 63.3406 31.8606 72.1997C29.286 82.418 43.6696 91.9521 50.243 97.289C49.9464 96.9292 61.158 105.694 59.4686 106.724C57.7795 107.753 55.5443 108.266 53.6054 109.14C49.9307 110.839 47.2553 113.165 45.4234 116.367C44.7402 112.459 43.6505 108.644 42.1543 104.923C41.2813 102.984 38.1862 103.48 37.5433 105.339C33.6995 118.416 35.0597 131.796 33.638 145.173C33.2449 147.188 36.1035 148.457 37.653 146.818ZM42.9783 122.49C43.2582 123.709 44.3677 123.883 45.134 123.493C45.6804 124.009 46.3834 124.276 47.1963 124.089C49.8382 123.482 52.6834 122.829 55.3253 122.223C49.7552 127.78 44.388 133.291 38.8179 138.849C39.2804 130.613 39.0866 122.314 40.4558 114.298C41.2655 116.893 42.1219 119.691 42.9783 122.49Z" fill="white" fill-opacity="0.3"/>
</g>
<defs>
<clipPath id="clip0_849_130484">
<rect width="124.454" height="124.454" fill="white" transform="translate(121.299 0.338867) rotate(77.0702)"/>
</clipPath>
</defs>
</svg>
