<svg width="101" height="138" viewBox="0 0 101 138" fill="none" xmlns="http://www.w3.org/2000/svg">
<path opacity="0.3" d="M100.791 133.936C97.5483 121.44 93.8461 109.026 90.6029 96.531C89.9985 94.1757 86.3632 93.9637 85.849 96.4216C84.481 101.018 83.3724 105.474 82.0045 110.071C79.818 105.722 80.2082 101.487 81.0359 96.5121C81.2309 94.3946 81.0859 91.958 79.0661 90.7047C75.966 88.6944 71.1578 90.9618 68.0244 91.9873C60.0614 94.6212 52.4599 98.2333 44.1352 99.8894C34.4925 101.588 36.0769 95.5333 39.8382 89.4735C43.7185 83.014 48.9978 76.9707 54.4388 71.8459C64.0457 62.9571 74.7711 53.9661 80.3164 41.9106C83.3973 35.2131 82.9521 23.5504 74.0393 21.3332C63.1287 18.5213 48.3586 22.8279 38.9848 28.7403C33.7983 31.5478 2.09395 54.7455 5.01041 36.904C7.15851 23.8376 22.1304 11.5417 31.4184 2.99309C32.6342 1.83203 31.052 -0.161684 29.6959 0.740053C19.0473 8.01319 9.22393 18.3604 2.79804 29.7187C-0.563588 35.8975 -1.99318 48.7427 8.37287 48.9994C20.4567 49.3322 31.5981 38.9421 41.2907 32.6895C47.2933 28.6019 55.4776 26.6865 62.4247 25.2731C77.2374 22.2845 80.0593 34.0019 73.4122 44.6417C65.1928 57.6418 51.5506 66.1995 41.77 77.8651C38.344 82.0668 26.3915 95.9136 32.9961 102.23C40.6215 109.503 56.0028 101.68 63.8848 98.5872C63.4256 98.6681 76.5752 93.2267 76.6394 95.2041C76.7037 97.1812 76.0495 99.3792 75.8548 101.497C75.5239 105.532 76.2308 109.006 78.1153 112.177C74.3776 110.847 70.5209 109.917 66.5453 109.386C64.4278 109.191 63.3359 112.13 64.6373 113.605C74.1257 123.39 86.4404 128.795 97.3824 136.62C98.9428 137.955 101.455 136.092 100.791 133.936ZM82.2405 117.32C83.4397 117.677 84.1367 116.797 84.1748 115.938C84.8933 115.717 85.4714 115.236 85.7093 114.437C86.4825 111.839 87.3151 109.041 88.0883 106.443C90.1822 114.027 92.3354 121.413 94.4292 128.997C87.4891 124.539 80.1706 120.621 73.8685 115.482C76.5257 116.055 79.3832 116.688 82.2405 117.32Z" fill="white"/>
</svg>
