<svg width="24" height="18" viewBox="0 0 24 18" fill="none" xmlns="http://www.w3.org/2000/svg">
<path d="M16.4665 17.2019H1.75781C0.788531 17.2019 0 16.4134 0 15.4441V2.55469C0 1.58541 0.788531 0.796875 1.75781 0.796875H5.28014C5.47434 0.796875 5.6317 0.954281 5.6317 1.14844C5.6317 1.34259 5.47434 1.5 5.28014 1.5H1.75781C1.17628 1.5 0.703125 1.97311 0.703125 2.55469V15.4441C0.703125 16.0257 1.17628 16.4988 1.75781 16.4988H16.4665C17.048 16.4988 17.5212 16.0257 17.5212 15.4441V7.96814C17.5212 7.77398 17.6785 7.61658 17.8727 7.61658C18.0669 7.61658 18.2243 7.77398 18.2243 7.96814V12.2581L22.7576 15.224C22.9136 15.3243 23.0588 15.2654 23.1138 15.2353C23.1689 15.2053 23.2969 15.115 23.2969 14.9267V3.07205C23.2969 2.88375 23.1689 2.79352 23.1138 2.76347C23.0587 2.73342 22.9137 2.6745 22.7552 2.77631L18.2243 5.74978V6.56189C18.2243 6.75605 18.067 6.91345 17.8728 6.91345C17.6786 6.91345 17.5212 6.75605 17.5212 6.56189V2.55469C17.5212 1.97311 17.0481 1.5 16.4665 1.5H6.68639C6.49219 1.5 6.33483 1.34259 6.33483 1.14844C6.33483 0.954281 6.49219 0.796875 6.68639 0.796875H16.4665C17.4358 0.796875 18.2243 1.58541 18.2243 2.55469V4.90875L22.3722 2.18667C22.7046 1.97302 23.1068 1.95853 23.4507 2.14636C23.7946 2.33409 24 2.68017 24 3.07205V14.9267C24 15.3186 23.7946 15.6647 23.4507 15.8525C23.1068 16.0402 22.7046 16.0259 22.375 15.8139L18.2243 13.0984V15.4441C18.2243 16.4134 17.4358 17.2019 16.4665 17.2019ZM7.0223 13.7941C6.69267 14.006 6.29048 14.0204 5.94656 13.8326C5.60264 13.6448 5.39728 13.2987 5.39728 12.9068V5.09189C5.39728 4.70002 5.60264 4.35394 5.94656 4.16616C6.29053 3.97838 6.69263 3.99277 7.0223 4.20464L9.68133 5.91398C9.84464 6.01898 9.89194 6.23648 9.78694 6.39984C9.68198 6.56316 9.46439 6.61041 9.30112 6.50545L6.64209 4.79611C6.48375 4.6943 6.33862 4.75322 6.28355 4.78327C6.22847 4.81331 6.10045 4.90355 6.10045 5.09184V12.9068C6.10045 13.0951 6.22847 13.1854 6.28355 13.2154C6.33867 13.2455 6.48375 13.3044 6.64209 13.2026L12.7206 9.29508C12.8232 9.22913 12.882 9.12131 12.882 8.99934C12.882 8.87737 12.8232 8.76961 12.7206 8.70361L10.4075 7.21664C10.2442 7.11164 10.1969 6.89414 10.3019 6.73078C10.4069 6.56747 10.6245 6.52027 10.7877 6.62517L13.1008 8.11214C13.4041 8.30709 13.5852 8.63878 13.5852 8.99934C13.5852 9.35991 13.4041 9.69159 13.1008 9.88655L7.0223 13.7941Z" fill="#E51937"/>
</svg>
