<svg width="22" height="14" viewBox="0 0 22 14" fill="none" xmlns="http://www.w3.org/2000/svg">
<path d="M21.6846 6.6901C19.438 2.53677 15.498 0.0234375 11.138 0.0234375C6.77797 0.0234375 2.8313 2.53677 0.604635 6.6901L0.417969 7.00344L0.591302 7.32344C2.83797 11.4768 6.77797 13.9901 11.138 13.9901C15.498 13.9901 19.4446 11.5101 21.6846 7.32344L21.858 7.00344L21.6846 6.6901ZM11.138 12.6234C7.38464 12.6234 3.93797 10.5301 1.93797 7.00344C3.93797 3.47677 7.38464 1.38344 11.138 1.38344C14.8913 1.38344 18.298 3.48344 20.3313 7.00344C18.298 10.5301 14.8846 12.6234 11.138 12.6234Z" fill="#E51937"/>
<path d="M11.3313 2.4501C10.4274 2.4567 9.54569 2.73102 8.79758 3.23842C8.04948 3.74583 7.46852 4.46354 7.12808 5.30093C6.78764 6.13832 6.70299 7.05782 6.88483 7.94328C7.06667 8.82875 7.50683 9.64047 8.14973 10.2759C8.79262 10.9114 9.60942 11.3421 10.4969 11.5136C11.3845 11.6851 12.3029 11.5897 13.1363 11.2396C13.9696 10.8894 14.6806 10.3001 15.1792 9.54616C15.6779 8.7922 15.9419 7.90737 15.938 7.00344C15.9354 6.40173 15.814 5.80645 15.5809 5.25172C15.3478 4.69698 15.0076 4.1937 14.5796 3.77071C14.1517 3.34772 13.6445 3.01333 13.0871 2.78672C12.5297 2.5601 11.933 2.44571 11.3313 2.4501ZM11.3313 10.2634C10.6928 10.2569 10.0705 10.0618 9.54251 9.70265C9.01453 9.34353 8.60444 8.83642 8.36373 8.245C8.12302 7.65358 8.06244 7.00421 8.18958 6.37847C8.31672 5.75272 8.62592 5.1785 9.07835 4.72791C9.53078 4.27733 10.1063 3.97047 10.7325 3.84588C11.3588 3.72129 12.0079 3.78453 12.5983 4.02765C13.1888 4.27077 13.6942 4.68293 14.0512 5.21237C14.4081 5.74181 14.6007 6.36492 14.6046 7.00344C14.6064 7.43317 14.5229 7.85898 14.3588 8.25618C14.1948 8.65337 13.9535 9.01405 13.649 9.3173C13.3446 9.62055 12.9829 9.86033 12.585 10.0227C12.1872 10.1852 11.761 10.267 11.3313 10.2634Z" fill="#E51937"/>
</svg>
