<svg width="24" height="25" viewBox="0 0 24 25" fill="none" xmlns="http://www.w3.org/2000/svg">
<path d="M21.7071 13.6876C22.0976 13.2971 22.0976 12.6639 21.7071 12.2734L15.3431 5.9094C14.9526 5.51888 14.3195 5.51888 13.9289 5.9094C13.5384 6.29993 13.5384 6.93309 13.9289 7.32361L19.5858 12.9805L13.9289 18.6373C13.5384 19.0278 13.5384 19.661 13.9289 20.0515C14.3195 20.4421 14.9526 20.4421 15.3431 20.0515L21.7071 13.6876ZM21 11.9805C20.9863 11.9805 20.9725 11.9805 20.9588 11.9805C20.945 11.9805 20.9312 11.9805 20.9174 11.9805C20.9037 11.9805 20.8899 11.9805 20.876 11.9805C20.8622 11.9805 20.8484 11.9805 20.8345 11.9805C20.8207 11.9805 20.8068 11.9805 20.7929 11.9805C20.7791 11.9805 20.7652 11.9805 20.7513 11.9805C20.7374 11.9805 20.7234 11.9805 20.7095 11.9805C20.6956 11.9805 20.6816 11.9805 20.6677 11.9805C20.6537 11.9805 20.6397 11.9805 20.6257 11.9805C20.6117 11.9805 20.5977 11.9805 20.5837 11.9805C20.5697 11.9805 20.5557 11.9805 20.5416 11.9805C20.5276 11.9805 20.5135 11.9805 20.4994 11.9805C20.4854 11.9805 20.4713 11.9805 20.4572 11.9805C20.4431 11.9805 20.429 11.9805 20.4148 11.9805C20.4007 11.9805 20.3866 11.9805 20.3724 11.9805C20.3582 11.9805 20.3441 11.9805 20.3299 11.9805C20.3157 11.9805 20.3015 11.9805 20.2873 11.9805C20.2731 11.9805 20.2589 11.9805 20.2446 11.9805C20.2304 11.9805 20.2162 11.9805 20.2019 11.9805C20.1876 11.9805 20.1734 11.9805 20.1591 11.9805C20.1448 11.9805 20.1305 11.9805 20.1162 11.9805C20.1019 11.9805 20.0876 11.9805 20.0732 11.9805C20.0589 11.9805 20.0445 11.9805 20.0302 11.9805C20.0158 11.9805 20.0014 11.9805 19.987 11.9805C19.9727 11.9805 19.9583 11.9805 19.9438 11.9805C19.9294 11.9805 19.915 11.9805 19.9006 11.9805C19.8861 11.9805 19.8717 11.9805 19.8572 11.9805C19.8428 11.9805 19.8283 11.9805 19.8138 11.9805C19.7993 11.9805 19.7848 11.9805 19.7703 11.9805C19.7558 11.9805 19.7413 11.9805 19.7268 11.9805C19.7122 11.9805 19.6977 11.9805 19.6831 11.9805C19.6686 11.9805 19.654 11.9805 19.6394 11.9805C19.6249 11.9805 19.6103 11.9805 19.5957 11.9805C19.5811 11.9805 19.5665 11.9805 19.5518 11.9805C19.5372 11.9805 19.5226 11.9805 19.5079 11.9805C19.4933 11.9805 19.4786 11.9805 19.464 11.9805C19.4493 11.9805 19.4346 11.9805 19.4199 11.9805C19.4052 11.9805 19.3905 11.9805 19.3758 11.9805C19.3611 11.9805 19.3464 11.9805 19.3317 11.9805C19.3169 11.9805 19.3022 11.9805 19.2874 11.9805C19.2727 11.9805 19.2579 11.9805 19.2431 11.9805C19.2284 11.9805 19.2136 11.9805 19.1988 11.9805C19.184 11.9805 19.1692 11.9805 19.1543 11.9805C19.1395 11.9805 19.1247 11.9805 19.1099 11.9805C19.095 11.9805 19.0802 11.9805 19.0653 11.9805C19.0505 11.9805 19.0356 11.9805 19.0207 11.9805C19.0058 11.9805 18.991 11.9805 18.9761 11.9805C18.9612 11.9805 18.9463 11.9805 18.9313 11.9805C18.9164 11.9805 18.9015 11.9805 18.8866 11.9805C18.8716 11.9805 18.8567 11.9805 18.8417 11.9805C18.8268 11.9805 18.8118 11.9805 18.7968 11.9805C18.7819 11.9805 18.7669 11.9805 18.7519 11.9805C18.7369 11.9805 18.7219 11.9805 18.7069 11.9805C18.6919 11.9805 18.6768 11.9805 18.6618 11.9805C18.6468 11.9805 18.6317 11.9805 18.6167 11.9805C18.6017 11.9805 18.5866 11.9805 18.5715 11.9805C18.5565 11.9805 18.5414 11.9805 18.5263 11.9805C18.5112 11.9805 18.4961 11.9805 18.481 11.9805C18.4659 11.9805 18.4508 11.9805 18.4357 11.9805C18.4206 11.9805 18.4055 11.9805 18.3903 11.9805C18.3752 11.9805 18.3601 11.9805 18.3449 11.9805C18.3298 11.9805 18.3146 11.9805 18.2994 11.9805C18.2843 11.9805 18.2691 11.9805 18.2539 11.9805C18.2387 11.9805 18.2235 11.9805 18.2083 11.9805C18.1931 11.9805 18.1779 11.9805 18.1627 11.9805C18.1475 11.9805 18.1323 11.9805 18.1171 11.9805C18.1018 11.9805 18.0866 11.9805 18.0713 11.9805C18.0561 11.9805 18.0408 11.9805 18.0256 11.9805C18.0103 11.9805 17.9951 11.9805 17.9798 11.9805C17.9645 11.9805 17.9492 11.9805 17.9339 11.9805C17.9186 11.9805 17.9034 11.9805 17.888 11.9805C17.8727 11.9805 17.8574 11.9805 17.8421 11.9805C17.8268 11.9805 17.8115 11.9805 17.7961 11.9805C17.7808 11.9805 17.7655 11.9805 17.7501 11.9805C17.7348 11.9805 17.7194 11.9805 17.7041 11.9805C17.6887 11.9805 17.6733 11.9805 17.658 11.9805C17.6426 11.9805 17.6272 11.9805 17.6118 11.9805C17.5964 11.9805 17.581 11.9805 17.5656 11.9805C17.5502 11.9805 17.5348 11.9805 17.5194 11.9805C17.504 11.9805 17.4886 11.9805 17.4732 11.9805C17.4578 11.9805 17.4423 11.9805 17.4269 11.9805C17.4115 11.9805 17.396 11.9805 17.3806 11.9805C17.3651 11.9805 17.3497 11.9805 17.3342 11.9805C17.3187 11.9805 17.3033 11.9805 17.2878 11.9805C17.2723 11.9805 17.2569 11.9805 17.2414 11.9805C17.2259 11.9805 17.2104 11.9805 17.1949 11.9805C17.1794 11.9805 17.1639 11.9805 17.1484 11.9805C17.1329 11.9805 17.1174 11.9805 17.1019 11.9805C17.0864 11.9805 17.0708 11.9805 17.0553 11.9805C17.0398 11.9805 17.0243 11.9805 17.0087 11.9805C16.9932 11.9805 16.9777 11.9805 16.9621 11.9805C16.9466 11.9805 16.931 11.9805 16.9155 11.9805C16.8999 11.9805 16.8843 11.9805 16.8688 11.9805C16.8532 11.9805 16.8376 11.9805 16.8221 11.9805C16.8065 11.9805 16.7909 11.9805 16.7753 11.9805C16.7598 11.9805 16.7442 11.9805 16.7286 11.9805C16.713 11.9805 16.6974 11.9805 16.6818 11.9805C16.6662 11.9805 16.6506 11.9805 16.635 11.9805C16.6194 11.9805 16.6037 11.9805 16.5881 11.9805C16.5725 11.9805 16.5569 11.9805 16.5413 11.9805C16.5256 11.9805 16.51 11.9805 16.4944 11.9805C16.4787 11.9805 16.4631 11.9805 16.4475 11.9805C16.4318 11.9805 16.4162 11.9805 16.4005 11.9805C16.3849 11.9805 16.3692 11.9805 16.3536 11.9805C16.3379 11.9805 16.3223 11.9805 16.3066 11.9805C16.2909 11.9805 16.2753 11.9805 16.2596 11.9805C16.2439 11.9805 16.2283 11.9805 16.2126 11.9805C16.1969 11.9805 16.1812 11.9805 16.1656 11.9805C16.1499 11.9805 16.1342 11.9805 16.1185 11.9805C16.1028 11.9805 16.0871 11.9805 16.0714 11.9805C16.0557 11.9805 16.0401 11.9805 16.0244 11.9805C16.0087 11.9805 15.993 11.9805 15.9773 11.9805C15.9615 11.9805 15.9458 11.9805 15.9301 11.9805C15.9144 11.9805 15.8987 11.9805 15.883 11.9805C15.8673 11.9805 15.8516 11.9805 15.8359 11.9805C15.8201 11.9805 15.8044 11.9805 15.7887 11.9805C15.773 11.9805 15.7572 11.9805 15.7415 11.9805C15.7258 11.9805 15.7101 11.9805 15.6943 11.9805C15.6786 11.9805 15.6629 11.9805 15.6471 11.9805C15.6314 11.9805 15.6157 11.9805 15.5999 11.9805C15.5842 11.9805 15.5685 11.9805 15.5527 11.9805C15.537 11.9805 15.5212 11.9805 15.5055 11.9805C15.4897 11.9805 15.474 11.9805 15.4582 11.9805C15.4425 11.9805 15.4268 11.9805 15.411 11.9805C15.3953 11.9805 15.3795 11.9805 15.3638 11.9805C15.348 11.9805 15.3322 11.9805 15.3165 11.9805C15.3007 11.9805 15.285 11.9805 15.2692 11.9805C15.2535 11.9805 15.2377 11.9805 15.222 11.9805C15.2062 11.9805 15.1904 11.9805 15.1747 11.9805C15.1589 11.9805 15.1432 11.9805 15.1274 11.9805C15.1116 11.9805 15.0959 11.9805 15.0801 11.9805C15.0644 11.9805 15.0486 11.9805 15.0328 11.9805C15.0171 11.9805 15.0013 11.9805 14.9855 11.9805C14.9698 11.9805 14.954 11.9805 14.9383 11.9805C14.9225 11.9805 14.9067 11.9805 14.891 11.9805C14.8752 11.9805 14.8594 11.9805 14.8437 11.9805C14.8279 11.9805 14.8121 11.9805 14.7964 11.9805C14.7806 11.9805 14.7649 11.9805 14.7491 11.9805C14.7333 11.9805 14.7176 11.9805 14.7018 11.9805C14.686 11.9805 14.6703 11.9805 14.6545 11.9805C14.6388 11.9805 14.623 11.9805 14.6072 11.9805C14.5915 11.9805 14.5757 11.9805 14.56 11.9805C14.5442 11.9805 14.5284 11.9805 14.5127 11.9805C14.4969 11.9805 14.4812 11.9805 14.4654 11.9805C14.4497 11.9805 14.4339 11.9805 14.4181 11.9805C14.4024 11.9805 14.3866 11.9805 14.3709 11.9805C14.3551 11.9805 14.3394 11.9805 14.3236 11.9805C14.3079 11.9805 14.2921 11.9805 14.2764 11.9805C14.2607 11.9805 14.2449 11.9805 14.2292 11.9805C14.2134 11.9805 14.1977 11.9805 14.1819 11.9805C14.1662 11.9805 14.1505 11.9805 14.1347 11.9805C14.119 11.9805 14.1033 11.9805 14.0875 11.9805C14.0718 11.9805 14.0561 11.9805 14.0403 11.9805C14.0246 11.9805 14.0089 11.9805 13.9931 11.9805C13.9774 11.9805 13.9617 11.9805 13.946 11.9805C13.9303 11.9805 13.9145 11.9805 13.8988 11.9805C13.8831 11.9805 13.8674 11.9805 13.8517 11.9805C13.836 11.9805 13.8203 11.9805 13.8046 11.9805C13.7888 11.9805 13.7731 11.9805 13.7574 11.9805C13.7417 11.9805 13.726 11.9805 13.7103 11.9805C13.6946 11.9805 13.679 11.9805 13.6633 11.9805C13.6476 11.9805 13.6319 11.9805 13.6162 11.9805C13.6005 11.9805 13.5848 11.9805 13.5692 11.9805C13.5535 11.9805 13.5378 11.9805 13.5221 11.9805C13.5065 11.9805 13.4908 11.9805 13.4751 11.9805C13.4595 11.9805 13.4438 11.9805 13.4281 11.9805C13.4125 11.9805 13.3968 11.9805 13.3812 11.9805C13.3655 11.9805 13.3499 11.9805 13.3342 11.9805C13.3186 11.9805 13.3029 11.9805 13.2873 11.9805C13.2717 11.9805 13.256 11.9805 13.2404 11.9805C13.2248 11.9805 13.2091 11.9805 13.1935 11.9805C13.1779 11.9805 13.1623 11.9805 13.1467 11.9805C13.131 11.9805 13.1154 11.9805 13.0998 11.9805C13.0842 11.9805 13.0686 11.9805 13.053 11.9805C13.0374 11.9805 13.0218 11.9805 13.0062 11.9805C12.9907 11.9805 12.9751 11.9805 12.9595 11.9805C12.9439 11.9805 12.9283 11.9805 12.9128 11.9805C12.8972 11.9805 12.8816 11.9805 12.8661 11.9805C12.8505 11.9805 12.8349 11.9805 12.8194 11.9805C12.8038 11.9805 12.7883 11.9805 12.7728 11.9805C12.7572 11.9805 12.7417 11.9805 12.7261 11.9805C12.7106 11.9805 12.6951 11.9805 12.6796 11.9805C12.664 11.9805 12.6485 11.9805 12.633 11.9805C12.6175 11.9805 12.602 11.9805 12.5865 11.9805C12.571 11.9805 12.5555 11.9805 12.54 11.9805C12.5245 11.9805 12.509 11.9805 12.4936 11.9805C12.4781 11.9805 12.4626 11.9805 12.4471 11.9805C12.4317 11.9805 12.4162 11.9805 12.4008 11.9805C12.3853 11.9805 12.3699 11.9805 12.3544 11.9805C12.339 11.9805 12.3235 11.9805 12.3081 11.9805C12.2927 11.9805 12.2772 11.9805 12.2618 11.9805C12.2464 11.9805 12.231 11.9805 12.2156 11.9805C12.2002 11.9805 12.1848 11.9805 12.1694 11.9805C12.154 11.9805 12.1386 11.9805 12.1232 11.9805C12.1078 11.9805 12.0925 11.9805 12.0771 11.9805C12.0617 11.9805 12.0464 11.9805 12.031 11.9805C12.0157 11.9805 12.0003 11.9805 11.985 11.9805C11.9696 11.9805 11.9543 11.9805 11.939 11.9805C11.9236 11.9805 11.9083 11.9805 11.893 11.9805C11.8777 11.9805 11.8624 11.9805 11.8471 11.9805C11.8318 11.9805 11.8165 11.9805 11.8012 11.9805C11.7859 11.9805 11.7706 11.9805 11.7554 11.9805C11.7401 11.9805 11.7248 11.9805 11.7096 11.9805C11.6943 11.9805 11.6791 11.9805 11.6638 11.9805C11.6486 11.9805 11.6334 11.9805 11.6181 11.9805C11.6029 11.9805 11.5877 11.9805 11.5725 11.9805C11.5573 11.9805 11.5421 11.9805 11.5269 11.9805C11.5117 11.9805 11.4965 11.9805 11.4813 11.9805C11.4662 11.9805 11.451 11.9805 11.4358 11.9805C11.4207 11.9805 11.4055 11.9805 11.3904 11.9805C11.3752 11.9805 11.3601 11.9805 11.345 11.9805C11.3298 11.9805 11.3147 11.9805 11.2996 11.9805C11.2845 11.9805 11.2694 11.9805 11.2543 11.9805C11.2392 11.9805 11.2241 11.9805 11.2091 11.9805C11.194 11.9805 11.1789 11.9805 11.1638 11.9805C11.1488 11.9805 11.1337 11.9805 11.1187 11.9805C11.1037 11.9805 11.0886 11.9805 11.0736 11.9805C11.0586 11.9805 11.0436 11.9805 11.0286 11.9805C11.0136 11.9805 10.9986 11.9805 10.9836 11.9805C10.9686 11.9805 10.9536 11.9805 10.9387 11.9805C10.9237 11.9805 10.9087 11.9805 10.8938 11.9805C10.8788 11.9805 10.8639 11.9805 10.849 11.9805C10.834 11.9805 10.8191 11.9805 10.8042 11.9805C10.7893 11.9805 10.7744 11.9805 10.7595 11.9805C10.7446 11.9805 10.7297 11.9805 10.7149 11.9805C10.7 11.9805 10.6851 11.9805 10.6703 11.9805C10.6554 11.9805 10.6406 11.9805 10.6258 11.9805C10.6109 11.9805 10.5961 11.9805 10.5813 11.9805C10.5665 11.9805 10.5517 11.9805 10.5369 11.9805C10.5221 11.9805 10.5073 11.9805 10.4926 11.9805C10.4778 11.9805 10.463 11.9805 10.4483 11.9805C10.4336 11.9805 10.4188 11.9805 10.4041 11.9805C10.3894 11.9805 10.3746 11.9805 10.3599 11.9805C10.3452 11.9805 10.3305 11.9805 10.3159 11.9805C10.3012 11.9805 10.2865 11.9805 10.2719 11.9805C10.2572 11.9805 10.2425 11.9805 10.2279 11.9805C10.2133 11.9805 10.1986 11.9805 10.184 11.9805C10.1694 11.9805 10.1548 11.9805 10.1402 11.9805C10.1256 11.9805 10.111 11.9805 10.0965 11.9805C10.0819 11.9805 10.0673 11.9805 10.0528 11.9805C10.0383 11.9805 10.0237 11.9805 10.0092 11.9805C9.99467 11.9805 9.98016 11.9805 9.96566 11.9805C9.95116 11.9805 9.93668 11.9805 9.9222 11.9805C9.90772 11.9805 9.89326 11.9805 9.87881 11.9805C9.86436 11.9805 9.84992 11.9805 9.83549 11.9805C9.82106 11.9805 9.80665 11.9805 9.79225 11.9805C9.77784 11.9805 9.76345 11.9805 9.74907 11.9805C9.7347 11.9805 9.72033 11.9805 9.70598 11.9805C9.69162 11.9805 9.67728 11.9805 9.66295 11.9805C9.64863 11.9805 9.63431 11.9805 9.62001 11.9805C9.60571 11.9805 9.59142 11.9805 9.57714 11.9805C9.56286 11.9805 9.5486 11.9805 9.53435 11.9805C9.5201 11.9805 9.50586 11.9805 9.49163 11.9805C9.47741 11.9805 9.46319 11.9805 9.449 11.9805C9.4348 11.9805 9.42061 11.9805 9.40644 11.9805C9.39227 11.9805 9.37811 11.9805 9.36396 11.9805C9.34981 11.9805 9.33568 11.9805 9.32156 11.9805C9.30744 11.9805 9.29334 11.9805 9.27925 11.9805C9.26516 11.9805 9.25108 11.9805 9.23701 11.9805C9.22295 11.9805 9.2089 11.9805 9.19486 11.9805C9.18083 11.9805 9.1668 11.9805 9.15279 11.9805C9.13878 11.9805 9.12479 11.9805 9.11081 11.9805C9.09683 11.9805 9.08286 11.9805 9.06891 11.9805C9.05496 11.9805 9.04102 11.9805 9.02709 11.9805C9.01317 11.9805 8.99926 11.9805 8.98536 11.9805C8.97147 11.9805 8.95759 11.9805 8.94372 11.9805C8.92985 11.9805 8.916 11.9805 8.90216 11.9805C8.88833 11.9805 8.8745 11.9805 8.8607 11.9805C8.84689 11.9805 8.8331 11.9805 8.81932 11.9805C8.80554 11.9805 8.79177 11.9805 8.77803 11.9805C8.76428 11.9805 8.75054 11.9805 8.73683 11.9805C8.72311 11.9805 8.7094 11.9805 8.69572 11.9805C8.68203 11.9805 8.66835 11.9805 8.6547 11.9805C8.64104 11.9805 8.6274 11.9805 8.61377 11.9805C8.60014 11.9805 8.58653 11.9805 8.57293 11.9805C8.55934 11.9805 8.54576 11.9805 8.53219 11.9805C8.51863 11.9805 8.50508 11.9805 8.49154 11.9805C8.47801 11.9805 8.46449 11.9805 8.45099 11.9805C8.43749 11.9805 8.424 11.9805 8.41053 11.9805C8.39706 11.9805 8.38361 11.9805 8.37017 11.9805C8.35673 11.9805 8.34331 11.9805 8.3299 11.9805C8.3165 11.9805 8.30311 11.9805 8.28973 11.9805C8.27636 11.9805 8.263 11.9805 8.24966 11.9805C8.23632 11.9805 8.223 11.9805 8.20969 11.9805C8.19638 11.9805 8.18309 11.9805 8.16981 11.9805C8.15654 11.9805 8.14328 11.9805 8.13004 11.9805C8.1168 11.9805 8.10357 11.9805 8.09037 11.9805C8.07716 11.9805 8.06397 11.9805 8.05079 11.9805C8.03762 11.9805 8.02446 11.9805 8.01132 11.9805C7.99818 11.9805 7.98506 11.9805 7.97195 11.9805C7.95885 11.9805 7.94576 11.9805 7.93269 11.9805C7.91962 11.9805 7.90656 11.9805 7.89353 11.9805C7.88049 11.9805 7.86747 11.9805 7.85447 11.9805C7.84147 11.9805 7.82849 11.9805 7.81552 11.9805C7.80255 11.9805 7.7896 11.9805 7.77667 11.9805C7.76374 11.9805 7.75083 11.9805 7.73793 11.9805C7.72504 11.9805 7.71216 11.9805 7.6993 11.9805C7.68644 11.9805 7.6736 11.9805 7.66078 11.9805C7.64795 11.9805 7.63515 11.9805 7.62236 11.9805C7.60957 11.9805 7.5968 11.9805 7.58405 11.9805C7.5713 11.9805 7.55857 11.9805 7.54585 11.9805C7.53314 11.9805 7.52045 11.9805 7.50777 11.9805C7.49509 11.9805 7.48243 11.9805 7.46979 11.9805C7.45715 11.9805 7.44453 11.9805 7.43193 11.9805C7.41933 11.9805 7.40674 11.9805 7.39418 11.9805C7.38161 11.9805 7.36906 11.9805 7.35654 11.9805C7.34401 11.9805 7.3315 11.9805 7.31901 11.9805C7.30652 11.9805 7.29405 11.9805 7.2816 11.9805C7.26915 11.9805 7.25672 11.9805 7.24431 11.9805C7.23189 11.9805 7.2195 11.9805 7.20713 11.9805C7.19475 11.9805 7.1824 11.9805 7.17006 11.9805C7.15773 11.9805 7.14541 11.9805 7.13312 11.9805C7.12082 11.9805 7.10855 11.9805 7.09629 11.9805C7.08403 11.9805 7.0718 11.9805 7.05958 11.9805C7.04736 11.9805 7.03517 11.9805 7.02299 11.9805C7.01081 11.9805 6.99866 11.9805 6.98652 11.9805C6.97438 11.9805 6.96227 11.9805 6.95017 11.9805C6.93807 11.9805 6.926 11.9805 6.91394 11.9805C6.90188 11.9805 6.88985 11.9805 6.87783 11.9805C6.86582 11.9805 6.85382 11.9805 6.84185 11.9805C6.82987 11.9805 6.81792 11.9805 6.80599 11.9805C6.79405 11.9805 6.78214 11.9805 6.77025 11.9805C6.75835 11.9805 6.74648 11.9805 6.73463 11.9805C6.72278 11.9805 6.71095 11.9805 6.69914 11.9805C6.68734 11.9805 6.67555 11.9805 6.66378 11.9805C6.65202 11.9805 6.64027 11.9805 6.62855 11.9805C6.61682 11.9805 6.60512 11.9805 6.59344 11.9805C6.58175 11.9805 6.57009 11.9805 6.55845 11.9805C6.54682 11.9805 6.5352 11.9805 6.5236 11.9805C6.51201 11.9805 6.50043 11.9805 6.48888 11.9805C6.47732 11.9805 6.46579 11.9805 6.45428 11.9805C6.44277 11.9805 6.43129 11.9805 6.41982 11.9805C6.40835 11.9805 6.39691 11.9805 6.38549 11.9805C6.37406 11.9805 6.36266 11.9805 6.35129 11.9805C6.33991 11.9805 6.32855 11.9805 6.31722 11.9805C6.30588 11.9805 6.29457 11.9805 6.28328 11.9805C6.27199 11.9805 6.26073 11.9805 6.24948 11.9805C6.23824 11.9805 6.22701 11.9805 6.21581 11.9805C6.20461 11.9805 6.19344 11.9805 6.18228 11.9805C6.17113 11.9805 6.15999 11.9805 6.14888 11.9805C6.13778 11.9805 6.12669 11.9805 6.11563 11.9805C6.10456 11.9805 6.09352 11.9805 6.0825 11.9805C6.07148 11.9805 6.06049 11.9805 6.04952 11.9805C6.03855 11.9805 6.0276 11.9805 6.01667 11.9805C6.00575 11.9805 5.99484 11.9805 5.98396 11.9805C5.97308 11.9805 5.96223 11.9805 5.9514 11.9805C5.94056 11.9805 5.92975 11.9805 5.91897 11.9805C5.90818 11.9805 5.89742 11.9805 5.88668 11.9805C5.87594 11.9805 5.86523 11.9805 5.85454 11.9805C5.84385 11.9805 5.83318 11.9805 5.82254 11.9805C5.81189 11.9805 5.80127 11.9805 5.79068 11.9805C5.78008 11.9805 5.76951 11.9805 5.75896 11.9805C5.74842 11.9805 5.73789 11.9805 5.72739 11.9805C5.71689 11.9805 5.70642 11.9805 5.69597 11.9805C5.68552 11.9805 5.67509 11.9805 5.66469 11.9805C5.65429 11.9805 5.64391 11.9805 5.63355 11.9805C5.6232 11.9805 5.61287 11.9805 5.60257 11.9805C5.59226 11.9805 5.58198 11.9805 5.57173 11.9805C5.56147 11.9805 5.55124 11.9805 5.54104 11.9805C5.53083 11.9805 5.52065 11.9805 5.5105 11.9805C5.50034 11.9805 5.49021 11.9805 5.48011 11.9805C5.47 11.9805 5.45992 11.9805 5.44987 11.9805C5.43981 11.9805 5.42978 11.9805 5.41978 11.9805C5.40977 11.9805 5.39979 11.9805 5.38984 11.9805C5.37989 11.9805 5.36996 11.9805 5.36005 11.9805C5.35015 11.9805 5.34027 11.9805 5.33042 11.9805C5.32057 11.9805 5.31074 11.9805 5.30094 11.9805C5.29114 11.9805 5.28137 11.9805 5.27162 11.9805C5.26187 11.9805 5.25215 11.9805 5.24245 11.9805C5.23275 11.9805 5.22308 11.9805 5.21344 11.9805C5.20379 11.9805 5.19417 11.9805 5.18458 11.9805C5.17499 11.9805 5.16542 11.9805 5.15588 11.9805C5.14634 11.9805 5.13683 11.9805 5.12734 11.9805C5.11785 11.9805 5.10839 11.9805 5.09896 11.9805C5.08952 11.9805 5.08011 11.9805 5.07073 11.9805C5.06135 11.9805 5.052 11.9805 5.04267 11.9805C5.03334 11.9805 5.02404 11.9805 5.01476 11.9805C5.00549 11.9805 4.99624 11.9805 4.98702 11.9805C4.9778 11.9805 4.96861 11.9805 4.95944 11.9805C4.95027 11.9805 4.94113 11.9805 4.93202 11.9805C4.92291 11.9805 4.91382 11.9805 4.90477 11.9805C4.89571 11.9805 4.88668 11.9805 4.87767 11.9805C4.86867 11.9805 4.8597 11.9805 4.85075 11.9805C4.8418 11.9805 4.83288 11.9805 4.82398 11.9805C4.81509 11.9805 4.80623 11.9805 4.79739 11.9805C4.78855 11.9805 4.77974 11.9805 4.77096 11.9805C4.76218 11.9805 4.75342 11.9805 4.7447 11.9805C4.73597 11.9805 4.72727 11.9805 4.7186 11.9805C4.70993 11.9805 4.70129 11.9805 4.69267 11.9805C4.68406 11.9805 4.67547 11.9805 4.66692 11.9805C4.65836 11.9805 4.64983 11.9805 4.64133 11.9805C4.63283 11.9805 4.62435 11.9805 4.61591 11.9805C4.60747 11.9805 4.59905 11.9805 4.59066 11.9805C4.58228 11.9805 4.57392 11.9805 4.56559 11.9805C4.55726 11.9805 4.54896 11.9805 4.54069 11.9805C4.53242 11.9805 4.52417 11.9805 4.51596 11.9805C4.50774 11.9805 4.49956 11.9805 4.4914 11.9805C4.48325 11.9805 4.47512 11.9805 4.46702 11.9805C4.45892 11.9805 4.45086 11.9805 4.44282 11.9805C4.43478 11.9805 4.42677 11.9805 4.41879 11.9805C4.41081 11.9805 4.40285 11.9805 4.39493 11.9805C4.38701 11.9805 4.37912 11.9805 4.37126 11.9805C4.36339 11.9805 4.35556 11.9805 4.34776 11.9805C4.33995 11.9805 4.33218 11.9805 4.32444 11.9805C4.31669 11.9805 4.30898 11.9805 4.3013 11.9805C4.29361 11.9805 4.28596 11.9805 4.27834 11.9805C4.27071 11.9805 4.26312 11.9805 4.25555 11.9805C4.24799 11.9805 4.24046 11.9805 4.23295 11.9805C4.22545 11.9805 4.21798 11.9805 4.21054 11.9805C4.20309 11.9805 4.19568 11.9805 4.1883 11.9805C4.18092 11.9805 4.17357 11.9805 4.16625 11.9805C4.15893 11.9805 4.15164 11.9805 4.14438 11.9805C4.13712 11.9805 4.12989 11.9805 4.1227 11.9805C4.1155 11.9805 4.10833 11.9805 4.1012 11.9805C4.09406 11.9805 4.08696 11.9805 4.07988 11.9805C4.07281 11.9805 4.06577 11.9805 4.05876 11.9805C4.05174 11.9805 4.04476 11.9805 4.03782 11.9805C4.03087 11.9805 4.02395 11.9805 4.01706 11.9805C4.01018 11.9805 4.00332 11.9805 3.9965 11.9805C3.98968 11.9805 3.98289 11.9805 3.97613 11.9805C3.96937 11.9805 3.96264 11.9805 3.95594 11.9805C3.94924 11.9805 3.94258 11.9805 3.93595 11.9805C3.92931 11.9805 3.92271 11.9805 3.91614 11.9805C3.90957 11.9805 3.90304 11.9805 3.89653 11.9805C3.89003 11.9805 3.88355 11.9805 3.87711 11.9805C3.87067 11.9805 3.86426 11.9805 3.85789 11.9805C3.85151 11.9805 3.84517 11.9805 3.83885 11.9805C3.83254 11.9805 3.82626 11.9805 3.82002 11.9805C3.81377 11.9805 3.80756 11.9805 3.80137 11.9805C3.79519 11.9805 3.78904 11.9805 3.78293 11.9805C3.77681 11.9805 3.77073 11.9805 3.76468 11.9805C3.75863 11.9805 3.75261 11.9805 3.74662 11.9805C3.74064 11.9805 3.73469 11.9805 3.72877 11.9805C3.72285 11.9805 3.71696 11.9805 3.71111 11.9805C3.70526 11.9805 3.69944 11.9805 3.69365 11.9805C3.68787 11.9805 3.68211 11.9805 3.67639 11.9805C3.67068 11.9805 3.66499 11.9805 3.65934 11.9805C3.65368 11.9805 3.64807 11.9805 3.64248 11.9805C3.63689 11.9805 3.63134 11.9805 3.62583 11.9805C3.62031 11.9805 3.61482 11.9805 3.60937 11.9805C3.60392 11.9805 3.59851 11.9805 3.59312 11.9805C3.58774 11.9805 3.58239 11.9805 3.57708 11.9805C3.57176 11.9805 3.56648 11.9805 3.56124 11.9805C3.55599 11.9805 3.55078 11.9805 3.5456 11.9805C3.54042 11.9805 3.53528 11.9805 3.53017 11.9805C3.52506 11.9805 3.51999 11.9805 3.51495 11.9805C3.50991 11.9805 3.5049 11.9805 3.49993 11.9805C3.49496 11.9805 3.49002 11.9805 3.48512 11.9805C3.48022 11.9805 3.47535 11.9805 3.47052 11.9805C3.46569 11.9805 3.46089 11.9805 3.45613 11.9805C3.45137 11.9805 3.44664 11.9805 3.44195 11.9805C3.43725 11.9805 3.4326 11.9805 3.42797 11.9805C3.42335 11.9805 3.41877 11.9805 3.41421 11.9805C3.40966 11.9805 3.40515 11.9805 3.40067 11.9805C3.39619 11.9805 3.39174 11.9805 3.38733 11.9805C3.38292 11.9805 3.37855 11.9805 3.37421 11.9805C3.36987 11.9805 3.36557 11.9805 3.3613 11.9805C3.35703 11.9805 3.3528 11.9805 3.3486 11.9805C3.34441 11.9805 3.34025 11.9805 3.33612 11.9805C3.332 11.9805 3.32791 11.9805 3.32386 11.9805C3.31981 11.9805 3.31579 11.9805 3.31181 11.9805C3.30783 11.9805 3.30389 11.9805 3.29998 11.9805C3.29607 11.9805 3.2922 11.9805 3.28837 11.9805C3.28453 11.9805 3.28074 11.9805 3.27698 11.9805C3.27321 11.9805 3.26949 11.9805 3.2658 11.9805C3.26211 11.9805 3.25846 11.9805 3.25485 11.9805C3.25123 11.9805 3.24765 11.9805 3.24411 11.9805C3.24057 11.9805 3.23706 11.9805 3.2336 11.9805C3.23013 11.9805 3.2267 11.9805 3.2233 11.9805C3.21991 11.9805 3.21655 11.9805 3.21323 11.9805C3.20992 11.9805 3.20663 11.9805 3.20339 11.9805C3.20014 11.9805 3.19694 11.9805 3.19377 11.9805C3.1906 11.9805 3.18746 11.9805 3.18437 11.9805C3.18127 11.9805 3.17821 11.9805 3.17519 11.9805C3.17217 11.9805 3.16919 11.9805 3.16625 11.9805C3.1633 11.9805 3.1604 11.9805 3.15753 11.9805C3.15466 11.9805 3.15183 11.9805 3.14903 11.9805C3.14624 11.9805 3.14348 11.9805 3.14077 11.9805C3.13805 11.9805 3.13537 11.9805 3.13273 11.9805C3.13009 11.9805 3.12748 11.9805 3.12492 11.9805C3.12236 11.9805 3.11983 11.9805 3.11734 11.9805C3.11485 11.9805 3.1124 11.9805 3.10999 11.9805C3.10758 11.9805 3.10521 11.9805 3.10288 11.9805C3.10054 11.9805 3.09825 11.9805 3.09599 11.9805C3.09373 11.9805 3.09152 11.9805 3.08934 11.9805C3.08716 11.9805 3.08502 11.9805 3.08292 11.9805C3.08082 11.9805 3.07875 11.9805 3.07673 11.9805C3.07471 11.9805 3.07272 11.9805 3.07078 11.9805C3.06883 11.9805 3.06693 11.9805 3.06506 11.9805C3.0632 11.9805 3.06137 11.9805 3.05958 11.9805C3.05779 11.9805 3.05605 11.9805 3.05434 11.9805C3.05263 11.9805 3.05096 11.9805 3.04933 11.9805C3.0477 11.9805 3.04611 11.9805 3.04456 11.9805C3.04301 11.9805 3.0415 11.9805 3.04003 11.9805C3.03856 11.9805 3.03713 11.9805 3.03574 11.9805C3.03435 11.9805 3.033 11.9805 3.03168 11.9805C3.03037 11.9805 3.0291 11.9805 3.02787 11.9805C3.02664 11.9805 3.02545 11.9805 3.0243 11.9805C3.02315 11.9805 3.02204 11.9805 3.02097 11.9805C3.0199 11.9805 3.01887 11.9805 3.01789 11.9805C3.0169 11.9805 3.01595 11.9805 3.01504 11.9805C3.01414 11.9805 3.01327 11.9805 3.01244 11.9805C3.01162 11.9805 3.01083 11.9805 3.01009 11.9805C3.00934 11.9805 3.00864 11.9805 3.00798 11.9805C3.00732 11.9805 3.00669 11.9805 3.00611 11.9805C3.00553 11.9805 3.00499 11.9805 3.0045 11.9805C3.004 11.9805 3.00354 11.9805 3.00312 11.9805C3.00271 11.9805 3.00233 11.9805 3.002 11.9805C3.00167 11.9805 3.00138 11.9805 3.00113 11.9805C3.00088 11.9805 3.00067 11.9805 3.0005 11.9805C3.00033 11.9805 3.00021 11.9805 3.00012 11.9805C3.00004 11.9805 3 11.9805 3 12.9805C3 13.9805 3.00004 13.9805 3.00012 13.9805C3.00021 13.9805 3.00033 13.9805 3.0005 13.9805C3.00067 13.9805 3.00088 13.9805 3.00113 13.9805C3.00138 13.9805 3.00167 13.9805 3.002 13.9805C3.00233 13.9805 3.00271 13.9805 3.00312 13.9805C3.00354 13.9805 3.004 13.9805 3.0045 13.9805C3.00499 13.9805 3.00553 13.9805 3.00611 13.9805C3.00669 13.9805 3.00732 13.9805 3.00798 13.9805C3.00864 13.9805 3.00934 13.9805 3.01009 13.9805C3.01083 13.9805 3.01162 13.9805 3.01244 13.9805C3.01327 13.9805 3.01414 13.9805 3.01504 13.9805C3.01595 13.9805 3.0169 13.9805 3.01789 13.9805C3.01887 13.9805 3.0199 13.9805 3.02097 13.9805C3.02204 13.9805 3.02315 13.9805 3.0243 13.9805C3.02545 13.9805 3.02664 13.9805 3.02787 13.9805C3.0291 13.9805 3.03037 13.9805 3.03168 13.9805C3.033 13.9805 3.03435 13.9805 3.03574 13.9805C3.03713 13.9805 3.03856 13.9805 3.04003 13.9805C3.0415 13.9805 3.04301 13.9805 3.04456 13.9805C3.04611 13.9805 3.0477 13.9805 3.04933 13.9805C3.05096 13.9805 3.05263 13.9805 3.05434 13.9805C3.05605 13.9805 3.05779 13.9805 3.05958 13.9805C3.06137 13.9805 3.0632 13.9805 3.06506 13.9805C3.06693 13.9805 3.06883 13.9805 3.07078 13.9805C3.07272 13.9805 3.07471 13.9805 3.07673 13.9805C3.07875 13.9805 3.08082 13.9805 3.08292 13.9805C3.08502 13.9805 3.08716 13.9805 3.08934 13.9805C3.09152 13.9805 3.09373 13.9805 3.09599 13.9805C3.09825 13.9805 3.10054 13.9805 3.10288 13.9805C3.10521 13.9805 3.10758 13.9805 3.10999 13.9805C3.1124 13.9805 3.11485 13.9805 3.11734 13.9805C3.11983 13.9805 3.12236 13.9805 3.12492 13.9805C3.12748 13.9805 3.13009 13.9805 3.13273 13.9805C3.13537 13.9805 3.13805 13.9805 3.14077 13.9805C3.14348 13.9805 3.14624 13.9805 3.14903 13.9805C3.15183 13.9805 3.15466 13.9805 3.15753 13.9805C3.1604 13.9805 3.1633 13.9805 3.16625 13.9805C3.16919 13.9805 3.17217 13.9805 3.17519 13.9805C3.17821 13.9805 3.18127 13.9805 3.18437 13.9805C3.18746 13.9805 3.1906 13.9805 3.19377 13.9805C3.19694 13.9805 3.20014 13.9805 3.20339 13.9805C3.20663 13.9805 3.20992 13.9805 3.21323 13.9805C3.21655 13.9805 3.21991 13.9805 3.2233 13.9805C3.2267 13.9805 3.23013 13.9805 3.2336 13.9805C3.23706 13.9805 3.24057 13.9805 3.24411 13.9805C3.24765 13.9805 3.25123 13.9805 3.25485 13.9805C3.25846 13.9805 3.26211 13.9805 3.2658 13.9805C3.26949 13.9805 3.27321 13.9805 3.27698 13.9805C3.28074 13.9805 3.28453 13.9805 3.28837 13.9805C3.2922 13.9805 3.29607 13.9805 3.29998 13.9805C3.30389 13.9805 3.30783 13.9805 3.31181 13.9805C3.31579 13.9805 3.31981 13.9805 3.32386 13.9805C3.32791 13.9805 3.332 13.9805 3.33612 13.9805C3.34025 13.9805 3.34441 13.9805 3.3486 13.9805C3.3528 13.9805 3.35703 13.9805 3.3613 13.9805C3.36557 13.9805 3.36987 13.9805 3.37421 13.9805C3.37855 13.9805 3.38292 13.9805 3.38733 13.9805C3.39174 13.9805 3.39619 13.9805 3.40067 13.9805C3.40515 13.9805 3.40966 13.9805 3.41421 13.9805C3.41877 13.9805 3.42335 13.9805 3.42797 13.9805C3.4326 13.9805 3.43725 13.9805 3.44195 13.9805C3.44664 13.9805 3.45137 13.9805 3.45613 13.9805C3.46089 13.9805 3.46569 13.9805 3.47052 13.9805C3.47535 13.9805 3.48022 13.9805 3.48512 13.9805C3.49002 13.9805 3.49496 13.9805 3.49993 13.9805C3.5049 13.9805 3.50991 13.9805 3.51495 13.9805C3.51999 13.9805 3.52506 13.9805 3.53017 13.9805C3.53528 13.9805 3.54042 13.9805 3.5456 13.9805C3.55078 13.9805 3.55599 13.9805 3.56124 13.9805C3.56648 13.9805 3.57176 13.9805 3.57708 13.9805C3.58239 13.9805 3.58774 13.9805 3.59312 13.9805C3.59851 13.9805 3.60392 13.9805 3.60937 13.9805C3.61482 13.9805 3.62031 13.9805 3.62583 13.9805C3.63134 13.9805 3.63689 13.9805 3.64248 13.9805C3.64807 13.9805 3.65368 13.9805 3.65934 13.9805C3.66499 13.9805 3.67068 13.9805 3.67639 13.9805C3.68211 13.9805 3.68787 13.9805 3.69365 13.9805C3.69944 13.9805 3.70526 13.9805 3.71111 13.9805C3.71696 13.9805 3.72285 13.9805 3.72877 13.9805C3.73469 13.9805 3.74064 13.9805 3.74662 13.9805C3.75261 13.9805 3.75863 13.9805 3.76468 13.9805C3.77073 13.9805 3.77681 13.9805 3.78293 13.9805C3.78904 13.9805 3.79519 13.9805 3.80137 13.9805C3.80756 13.9805 3.81377 13.9805 3.82002 13.9805C3.82626 13.9805 3.83254 13.9805 3.83885 13.9805C3.84517 13.9805 3.85151 13.9805 3.85789 13.9805C3.86426 13.9805 3.87067 13.9805 3.87711 13.9805C3.88355 13.9805 3.89003 13.9805 3.89653 13.9805C3.90304 13.9805 3.90957 13.9805 3.91614 13.9805C3.92271 13.9805 3.92931 13.9805 3.93595 13.9805C3.94258 13.9805 3.94924 13.9805 3.95594 13.9805C3.96264 13.9805 3.96937 13.9805 3.97613 13.9805C3.98289 13.9805 3.98968 13.9805 3.9965 13.9805C4.00332 13.9805 4.01018 13.9805 4.01706 13.9805C4.02395 13.9805 4.03087 13.9805 4.03782 13.9805C4.04476 13.9805 4.05174 13.9805 4.05876 13.9805C4.06577 13.9805 4.07281 13.9805 4.07988 13.9805C4.08696 13.9805 4.09406 13.9805 4.1012 13.9805C4.10833 13.9805 4.1155 13.9805 4.1227 13.9805C4.12989 13.9805 4.13712 13.9805 4.14438 13.9805C4.15164 13.9805 4.15893 13.9805 4.16625 13.9805C4.17357 13.9805 4.18092 13.9805 4.1883 13.9805C4.19568 13.9805 4.20309 13.9805 4.21054 13.9805C4.21798 13.9805 4.22545 13.9805 4.23295 13.9805C4.24046 13.9805 4.24799 13.9805 4.25555 13.9805C4.26312 13.9805 4.27071 13.9805 4.27834 13.9805C4.28596 13.9805 4.29361 13.9805 4.3013 13.9805C4.30898 13.9805 4.31669 13.9805 4.32444 13.9805C4.33218 13.9805 4.33995 13.9805 4.34776 13.9805C4.35556 13.9805 4.36339 13.9805 4.37126 13.9805C4.37912 13.9805 4.38701 13.9805 4.39493 13.9805C4.40285 13.9805 4.41081 13.9805 4.41879 13.9805C4.42677 13.9805 4.43478 13.9805 4.44282 13.9805C4.45086 13.9805 4.45892 13.9805 4.46702 13.9805C4.47512 13.9805 4.48325 13.9805 4.4914 13.9805C4.49956 13.9805 4.50774 13.9805 4.51596 13.9805C4.52417 13.9805 4.53242 13.9805 4.54069 13.9805C4.54896 13.9805 4.55726 13.9805 4.56559 13.9805C4.57392 13.9805 4.58228 13.9805 4.59066 13.9805C4.59905 13.9805 4.60747 13.9805 4.61591 13.9805C4.62435 13.9805 4.63283 13.9805 4.64133 13.9805C4.64983 13.9805 4.65836 13.9805 4.66692 13.9805C4.67547 13.9805 4.68406 13.9805 4.69267 13.9805C4.70129 13.9805 4.70993 13.9805 4.7186 13.9805C4.72727 13.9805 4.73597 13.9805 4.7447 13.9805C4.75342 13.9805 4.76218 13.9805 4.77096 13.9805C4.77974 13.9805 4.78855 13.9805 4.79739 13.9805C4.80623 13.9805 4.81509 13.9805 4.82398 13.9805C4.83288 13.9805 4.8418 13.9805 4.85075 13.9805C4.8597 13.9805 4.86867 13.9805 4.87767 13.9805C4.88668 13.9805 4.89571 13.9805 4.90477 13.9805C4.91382 13.9805 4.92291 13.9805 4.93202 13.9805C4.94113 13.9805 4.95027 13.9805 4.95944 13.9805C4.96861 13.9805 4.9778 13.9805 4.98702 13.9805C4.99624 13.9805 5.00549 13.9805 5.01476 13.9805C5.02404 13.9805 5.03334 13.9805 5.04267 13.9805C5.052 13.9805 5.06135 13.9805 5.07073 13.9805C5.08011 13.9805 5.08952 13.9805 5.09896 13.9805C5.10839 13.9805 5.11785 13.9805 5.12734 13.9805C5.13683 13.9805 5.14634 13.9805 5.15588 13.9805C5.16542 13.9805 5.17499 13.9805 5.18458 13.9805C5.19417 13.9805 5.20379 13.9805 5.21344 13.9805C5.22308 13.9805 5.23275 13.9805 5.24245 13.9805C5.25215 13.9805 5.26187 13.9805 5.27162 13.9805C5.28137 13.9805 5.29114 13.9805 5.30094 13.9805C5.31074 13.9805 5.32057 13.9805 5.33042 13.9805C5.34027 13.9805 5.35015 13.9805 5.36005 13.9805C5.36996 13.9805 5.37989 13.9805 5.38984 13.9805C5.39979 13.9805 5.40977 13.9805 5.41978 13.9805C5.42978 13.9805 5.43981 13.9805 5.44987 13.9805C5.45992 13.9805 5.47 13.9805 5.48011 13.9805C5.49021 13.9805 5.50034 13.9805 5.5105 13.9805C5.52065 13.9805 5.53083 13.9805 5.54104 13.9805C5.55124 13.9805 5.56147 13.9805 5.57173 13.9805C5.58198 13.9805 5.59226 13.9805 5.60257 13.9805C5.61287 13.9805 5.6232 13.9805 5.63355 13.9805C5.64391 13.9805 5.65429 13.9805 5.66469 13.9805C5.67509 13.9805 5.68552 13.9805 5.69597 13.9805C5.70642 13.9805 5.71689 13.9805 5.72739 13.9805C5.73789 13.9805 5.74842 13.9805 5.75896 13.9805C5.76951 13.9805 5.78008 13.9805 5.79068 13.9805C5.80127 13.9805 5.81189 13.9805 5.82254 13.9805C5.83318 13.9805 5.84385 13.9805 5.85454 13.9805C5.86523 13.9805 5.87594 13.9805 5.88668 13.9805C5.89742 13.9805 5.90818 13.9805 5.91897 13.9805C5.92975 13.9805 5.94056 13.9805 5.9514 13.9805C5.96223 13.9805 5.97308 13.9805 5.98396 13.9805C5.99484 13.9805 6.00575 13.9805 6.01667 13.9805C6.0276 13.9805 6.03855 13.9805 6.04952 13.9805C6.06049 13.9805 6.07148 13.9805 6.0825 13.9805C6.09352 13.9805 6.10456 13.9805 6.11563 13.9805C6.12669 13.9805 6.13778 13.9805 6.14888 13.9805C6.15999 13.9805 6.17113 13.9805 6.18228 13.9805C6.19344 13.9805 6.20461 13.9805 6.21581 13.9805C6.22701 13.9805 6.23824 13.9805 6.24948 13.9805C6.26073 13.9805 6.27199 13.9805 6.28328 13.9805C6.29457 13.9805 6.30588 13.9805 6.31722 13.9805C6.32855 13.9805 6.33991 13.9805 6.35129 13.9805C6.36266 13.9805 6.37406 13.9805 6.38549 13.9805C6.39691 13.9805 6.40835 13.9805 6.41982 13.9805C6.43129 13.9805 6.44277 13.9805 6.45428 13.9805C6.46579 13.9805 6.47732 13.9805 6.48888 13.9805C6.50043 13.9805 6.51201 13.9805 6.5236 13.9805C6.5352 13.9805 6.54682 13.9805 6.55845 13.9805C6.57009 13.9805 6.58175 13.9805 6.59344 13.9805C6.60512 13.9805 6.61682 13.9805 6.62855 13.9805C6.64027 13.9805 6.65202 13.9805 6.66378 13.9805C6.67555 13.9805 6.68734 13.9805 6.69914 13.9805C6.71095 13.9805 6.72278 13.9805 6.73463 13.9805C6.74648 13.9805 6.75835 13.9805 6.77025 13.9805C6.78214 13.9805 6.79405 13.9805 6.80599 13.9805C6.81792 13.9805 6.82987 13.9805 6.84185 13.9805C6.85382 13.9805 6.86582 13.9805 6.87783 13.9805C6.88985 13.9805 6.90188 13.9805 6.91394 13.9805C6.926 13.9805 6.93807 13.9805 6.95017 13.9805C6.96227 13.9805 6.97438 13.9805 6.98652 13.9805C6.99866 13.9805 7.01081 13.9805 7.02299 13.9805C7.03517 13.9805 7.04736 13.9805 7.05958 13.9805C7.0718 13.9805 7.08403 13.9805 7.09629 13.9805C7.10855 13.9805 7.12082 13.9805 7.13312 13.9805C7.14541 13.9805 7.15773 13.9805 7.17006 13.9805C7.1824 13.9805 7.19475 13.9805 7.20713 13.9805C7.2195 13.9805 7.23189 13.9805 7.24431 13.9805C7.25672 13.9805 7.26915 13.9805 7.2816 13.9805C7.29405 13.9805 7.30652 13.9805 7.31901 13.9805C7.3315 13.9805 7.34401 13.9805 7.35654 13.9805C7.36906 13.9805 7.38161 13.9805 7.39418 13.9805C7.40674 13.9805 7.41933 13.9805 7.43193 13.9805C7.44453 13.9805 7.45715 13.9805 7.46979 13.9805C7.48243 13.9805 7.49509 13.9805 7.50777 13.9805C7.52045 13.9805 7.53314 13.9805 7.54585 13.9805C7.55857 13.9805 7.5713 13.9805 7.58405 13.9805C7.5968 13.9805 7.60957 13.9805 7.62236 13.9805C7.63515 13.9805 7.64795 13.9805 7.66078 13.9805C7.6736 13.9805 7.68644 13.9805 7.6993 13.9805C7.71216 13.9805 7.72504 13.9805 7.73793 13.9805C7.75083 13.9805 7.76374 13.9805 7.77667 13.9805C7.7896 13.9805 7.80255 13.9805 7.81552 13.9805C7.82849 13.9805 7.84147 13.9805 7.85447 13.9805C7.86747 13.9805 7.88049 13.9805 7.89353 13.9805C7.90656 13.9805 7.91962 13.9805 7.93269 13.9805C7.94576 13.9805 7.95885 13.9805 7.97195 13.9805C7.98506 13.9805 7.99818 13.9805 8.01132 13.9805C8.02446 13.9805 8.03762 13.9805 8.05079 13.9805C8.06397 13.9805 8.07716 13.9805 8.09037 13.9805C8.10357 13.9805 8.1168 13.9805 8.13004 13.9805C8.14328 13.9805 8.15654 13.9805 8.16981 13.9805C8.18309 13.9805 8.19638 13.9805 8.20969 13.9805C8.223 13.9805 8.23632 13.9805 8.24966 13.9805C8.263 13.9805 8.27636 13.9805 8.28973 13.9805C8.30311 13.9805 8.3165 13.9805 8.3299 13.9805C8.34331 13.9805 8.35673 13.9805 8.37017 13.9805C8.38361 13.9805 8.39706 13.9805 8.41053 13.9805C8.424 13.9805 8.43749 13.9805 8.45099 13.9805C8.46449 13.9805 8.47801 13.9805 8.49154 13.9805C8.50508 13.9805 8.51863 13.9805 8.53219 13.9805C8.54576 13.9805 8.55934 13.9805 8.57293 13.9805C8.58653 13.9805 8.60014 13.9805 8.61377 13.9805C8.6274 13.9805 8.64104 13.9805 8.6547 13.9805C8.66835 13.9805 8.68203 13.9805 8.69572 13.9805C8.7094 13.9805 8.72311 13.9805 8.73683 13.9805C8.75054 13.9805 8.76428 13.9805 8.77803 13.9805C8.79177 13.9805 8.80554 13.9805 8.81932 13.9805C8.8331 13.9805 8.84689 13.9805 8.8607 13.9805C8.8745 13.9805 8.88833 13.9805 8.90216 13.9805C8.916 13.9805 8.92985 13.9805 8.94372 13.9805C8.95759 13.9805 8.97147 13.9805 8.98536 13.9805C8.99926 13.9805 9.01317 13.9805 9.02709 13.9805C9.04102 13.9805 9.05496 13.9805 9.06891 13.9805C9.08286 13.9805 9.09683 13.9805 9.11081 13.9805C9.12479 13.9805 9.13878 13.9805 9.15279 13.9805C9.1668 13.9805 9.18083 13.9805 9.19486 13.9805C9.2089 13.9805 9.22295 13.9805 9.23701 13.9805C9.25108 13.9805 9.26516 13.9805 9.27925 13.9805C9.29334 13.9805 9.30744 13.9805 9.32156 13.9805C9.33568 13.9805 9.34981 13.9805 9.36396 13.9805C9.37811 13.9805 9.39227 13.9805 9.40644 13.9805C9.42061 13.9805 9.4348 13.9805 9.449 13.9805C9.46319 13.9805 9.47741 13.9805 9.49163 13.9805C9.50586 13.9805 9.5201 13.9805 9.53435 13.9805C9.5486 13.9805 9.56286 13.9805 9.57714 13.9805C9.59142 13.9805 9.60571 13.9805 9.62001 13.9805C9.63431 13.9805 9.64863 13.9805 9.66295 13.9805C9.67728 13.9805 9.69162 13.9805 9.70598 13.9805C9.72033 13.9805 9.7347 13.9805 9.74907 13.9805C9.76345 13.9805 9.77784 13.9805 9.79225 13.9805C9.80665 13.9805 9.82106 13.9805 9.83549 13.9805C9.84992 13.9805 9.86436 13.9805 9.87881 13.9805C9.89326 13.9805 9.90772 13.9805 9.9222 13.9805C9.93668 13.9805 9.95116 13.9805 9.96566 13.9805C9.98016 13.9805 9.99467 13.9805 10.0092 13.9805C10.0237 13.9805 10.0383 13.9805 10.0528 13.9805C10.0673 13.9805 10.0819 13.9805 10.0965 13.9805C10.111 13.9805 10.1256 13.9805 10.1402 13.9805C10.1548 13.9805 10.1694 13.9805 10.184 13.9805C10.1986 13.9805 10.2133 13.9805 10.2279 13.9805C10.2425 13.9805 10.2572 13.9805 10.2719 13.9805C10.2865 13.9805 10.3012 13.9805 10.3159 13.9805C10.3305 13.9805 10.3452 13.9805 10.3599 13.9805C10.3746 13.9805 10.3894 13.9805 10.4041 13.9805C10.4188 13.9805 10.4336 13.9805 10.4483 13.9805C10.463 13.9805 10.4778 13.9805 10.4926 13.9805C10.5073 13.9805 10.5221 13.9805 10.5369 13.9805C10.5517 13.9805 10.5665 13.9805 10.5813 13.9805C10.5961 13.9805 10.6109 13.9805 10.6258 13.9805C10.6406 13.9805 10.6554 13.9805 10.6703 13.9805C10.6851 13.9805 10.7 13.9805 10.7149 13.9805C10.7297 13.9805 10.7446 13.9805 10.7595 13.9805C10.7744 13.9805 10.7893 13.9805 10.8042 13.9805C10.8191 13.9805 10.834 13.9805 10.849 13.9805C10.8639 13.9805 10.8788 13.9805 10.8938 13.9805C10.9087 13.9805 10.9237 13.9805 10.9387 13.9805C10.9536 13.9805 10.9686 13.9805 10.9836 13.9805C10.9986 13.9805 11.0136 13.9805 11.0286 13.9805C11.0436 13.9805 11.0586 13.9805 11.0736 13.9805C11.0886 13.9805 11.1037 13.9805 11.1187 13.9805C11.1337 13.9805 11.1488 13.9805 11.1638 13.9805C11.1789 13.9805 11.194 13.9805 11.2091 13.9805C11.2241 13.9805 11.2392 13.9805 11.2543 13.9805C11.2694 13.9805 11.2845 13.9805 11.2996 13.9805C11.3147 13.9805 11.3298 13.9805 11.345 13.9805C11.3601 13.9805 11.3752 13.9805 11.3904 13.9805C11.4055 13.9805 11.4207 13.9805 11.4358 13.9805C11.451 13.9805 11.4662 13.9805 11.4813 13.9805C11.4965 13.9805 11.5117 13.9805 11.5269 13.9805C11.5421 13.9805 11.5573 13.9805 11.5725 13.9805C11.5877 13.9805 11.6029 13.9805 11.6181 13.9805C11.6334 13.9805 11.6486 13.9805 11.6638 13.9805C11.6791 13.9805 11.6943 13.9805 11.7096 13.9805C11.7248 13.9805 11.7401 13.9805 11.7554 13.9805C11.7706 13.9805 11.7859 13.9805 11.8012 13.9805C11.8165 13.9805 11.8318 13.9805 11.8471 13.9805C11.8624 13.9805 11.8777 13.9805 11.893 13.9805C11.9083 13.9805 11.9236 13.9805 11.939 13.9805C11.9543 13.9805 11.9696 13.9805 11.985 13.9805C12.0003 13.9805 12.0157 13.9805 12.031 13.9805C12.0464 13.9805 12.0617 13.9805 12.0771 13.9805C12.0925 13.9805 12.1078 13.9805 12.1232 13.9805C12.1386 13.9805 12.154 13.9805 12.1694 13.9805C12.1848 13.9805 12.2002 13.9805 12.2156 13.9805C12.231 13.9805 12.2464 13.9805 12.2618 13.9805C12.2772 13.9805 12.2927 13.9805 12.3081 13.9805C12.3235 13.9805 12.339 13.9805 12.3544 13.9805C12.3699 13.9805 12.3853 13.9805 12.4008 13.9805C12.4162 13.9805 12.4317 13.9805 12.4471 13.9805C12.4626 13.9805 12.4781 13.9805 12.4936 13.9805C12.509 13.9805 12.5245 13.9805 12.54 13.9805C12.5555 13.9805 12.571 13.9805 12.5865 13.9805C12.602 13.9805 12.6175 13.9805 12.633 13.9805C12.6485 13.9805 12.664 13.9805 12.6796 13.9805C12.6951 13.9805 12.7106 13.9805 12.7261 13.9805C12.7417 13.9805 12.7572 13.9805 12.7728 13.9805C12.7883 13.9805 12.8038 13.9805 12.8194 13.9805C12.8349 13.9805 12.8505 13.9805 12.8661 13.9805C12.8816 13.9805 12.8972 13.9805 12.9128 13.9805C12.9283 13.9805 12.9439 13.9805 12.9595 13.9805C12.9751 13.9805 12.9907 13.9805 13.0062 13.9805C13.0218 13.9805 13.0374 13.9805 13.053 13.9805C13.0686 13.9805 13.0842 13.9805 13.0998 13.9805C13.1154 13.9805 13.131 13.9805 13.1467 13.9805C13.1623 13.9805 13.1779 13.9805 13.1935 13.9805C13.2091 13.9805 13.2248 13.9805 13.2404 13.9805C13.256 13.9805 13.2717 13.9805 13.2873 13.9805C13.3029 13.9805 13.3186 13.9805 13.3342 13.9805C13.3499 13.9805 13.3655 13.9805 13.3812 13.9805C13.3968 13.9805 13.4125 13.9805 13.4281 13.9805C13.4438 13.9805 13.4595 13.9805 13.4751 13.9805C13.4908 13.9805 13.5065 13.9805 13.5221 13.9805C13.5378 13.9805 13.5535 13.9805 13.5692 13.9805C13.5848 13.9805 13.6005 13.9805 13.6162 13.9805C13.6319 13.9805 13.6476 13.9805 13.6633 13.9805C13.679 13.9805 13.6946 13.9805 13.7103 13.9805C13.726 13.9805 13.7417 13.9805 13.7574 13.9805C13.7731 13.9805 13.7888 13.9805 13.8046 13.9805C13.8203 13.9805 13.836 13.9805 13.8517 13.9805C13.8674 13.9805 13.8831 13.9805 13.8988 13.9805C13.9145 13.9805 13.9303 13.9805 13.946 13.9805C13.9617 13.9805 13.9774 13.9805 13.9931 13.9805C14.0089 13.9805 14.0246 13.9805 14.0403 13.9805C14.0561 13.9805 14.0718 13.9805 14.0875 13.9805C14.1033 13.9805 14.119 13.9805 14.1347 13.9805C14.1505 13.9805 14.1662 13.9805 14.1819 13.9805C14.1977 13.9805 14.2134 13.9805 14.2292 13.9805C14.2449 13.9805 14.2607 13.9805 14.2764 13.9805C14.2921 13.9805 14.3079 13.9805 14.3236 13.9805C14.3394 13.9805 14.3551 13.9805 14.3709 13.9805C14.3866 13.9805 14.4024 13.9805 14.4181 13.9805C14.4339 13.9805 14.4497 13.9805 14.4654 13.9805C14.4812 13.9805 14.4969 13.9805 14.5127 13.9805C14.5284 13.9805 14.5442 13.9805 14.56 13.9805C14.5757 13.9805 14.5915 13.9805 14.6072 13.9805C14.623 13.9805 14.6388 13.9805 14.6545 13.9805C14.6703 13.9805 14.686 13.9805 14.7018 13.9805C14.7176 13.9805 14.7333 13.9805 14.7491 13.9805C14.7649 13.9805 14.7806 13.9805 14.7964 13.9805C14.8121 13.9805 14.8279 13.9805 14.8437 13.9805C14.8594 13.9805 14.8752 13.9805 14.891 13.9805C14.9067 13.9805 14.9225 13.9805 14.9383 13.9805C14.954 13.9805 14.9698 13.9805 14.9855 13.9805C15.0013 13.9805 15.0171 13.9805 15.0328 13.9805C15.0486 13.9805 15.0644 13.9805 15.0801 13.9805C15.0959 13.9805 15.1116 13.9805 15.1274 13.9805C15.1432 13.9805 15.1589 13.9805 15.1747 13.9805C15.1904 13.9805 15.2062 13.9805 15.222 13.9805C15.2377 13.9805 15.2535 13.9805 15.2692 13.9805C15.285 13.9805 15.3007 13.9805 15.3165 13.9805C15.3322 13.9805 15.348 13.9805 15.3638 13.9805C15.3795 13.9805 15.3953 13.9805 15.411 13.9805C15.4268 13.9805 15.4425 13.9805 15.4582 13.9805C15.474 13.9805 15.4897 13.9805 15.5055 13.9805C15.5212 13.9805 15.537 13.9805 15.5527 13.9805C15.5685 13.9805 15.5842 13.9805 15.5999 13.9805C15.6157 13.9805 15.6314 13.9805 15.6471 13.9805C15.6629 13.9805 15.6786 13.9805 15.6943 13.9805C15.7101 13.9805 15.7258 13.9805 15.7415 13.9805C15.7572 13.9805 15.773 13.9805 15.7887 13.9805C15.8044 13.9805 15.8201 13.9805 15.8359 13.9805C15.8516 13.9805 15.8673 13.9805 15.883 13.9805C15.8987 13.9805 15.9144 13.9805 15.9301 13.9805C15.9458 13.9805 15.9615 13.9805 15.9773 13.9805C15.993 13.9805 16.0087 13.9805 16.0244 13.9805C16.0401 13.9805 16.0557 13.9805 16.0714 13.9805C16.0871 13.9805 16.1028 13.9805 16.1185 13.9805C16.1342 13.9805 16.1499 13.9805 16.1656 13.9805C16.1812 13.9805 16.1969 13.9805 16.2126 13.9805C16.2283 13.9805 16.2439 13.9805 16.2596 13.9805C16.2753 13.9805 16.2909 13.9805 16.3066 13.9805C16.3223 13.9805 16.3379 13.9805 16.3536 13.9805C16.3692 13.9805 16.3849 13.9805 16.4005 13.9805C16.4162 13.9805 16.4318 13.9805 16.4475 13.9805C16.4631 13.9805 16.4787 13.9805 16.4944 13.9805C16.51 13.9805 16.5256 13.9805 16.5413 13.9805C16.5569 13.9805 16.5725 13.9805 16.5881 13.9805C16.6037 13.9805 16.6194 13.9805 16.635 13.9805C16.6506 13.9805 16.6662 13.9805 16.6818 13.9805C16.6974 13.9805 16.713 13.9805 16.7286 13.9805C16.7442 13.9805 16.7598 13.9805 16.7753 13.9805C16.7909 13.9805 16.8065 13.9805 16.8221 13.9805C16.8376 13.9805 16.8532 13.9805 16.8688 13.9805C16.8843 13.9805 16.8999 13.9805 16.9155 13.9805C16.931 13.9805 16.9466 13.9805 16.9621 13.9805C16.9777 13.9805 16.9932 13.9805 17.0087 13.9805C17.0243 13.9805 17.0398 13.9805 17.0553 13.9805C17.0708 13.9805 17.0864 13.9805 17.1019 13.9805C17.1174 13.9805 17.1329 13.9805 17.1484 13.9805C17.1639 13.9805 17.1794 13.9805 17.1949 13.9805C17.2104 13.9805 17.2259 13.9805 17.2414 13.9805C17.2569 13.9805 17.2723 13.9805 17.2878 13.9805C17.3033 13.9805 17.3187 13.9805 17.3342 13.9805C17.3497 13.9805 17.3651 13.9805 17.3806 13.9805C17.396 13.9805 17.4115 13.9805 17.4269 13.9805C17.4423 13.9805 17.4578 13.9805 17.4732 13.9805C17.4886 13.9805 17.504 13.9805 17.5194 13.9805C17.5348 13.9805 17.5502 13.9805 17.5656 13.9805C17.581 13.9805 17.5964 13.9805 17.6118 13.9805C17.6272 13.9805 17.6426 13.9805 17.658 13.9805C17.6733 13.9805 17.6887 13.9805 17.7041 13.9805C17.7194 13.9805 17.7348 13.9805 17.7501 13.9805C17.7655 13.9805 17.7808 13.9805 17.7961 13.9805C17.8115 13.9805 17.8268 13.9805 17.8421 13.9805C17.8574 13.9805 17.8727 13.9805 17.888 13.9805C17.9034 13.9805 17.9186 13.9805 17.9339 13.9805C17.9492 13.9805 17.9645 13.9805 17.9798 13.9805C17.9951 13.9805 18.0103 13.9805 18.0256 13.9805C18.0408 13.9805 18.0561 13.9805 18.0713 13.9805C18.0866 13.9805 18.1018 13.9805 18.1171 13.9805C18.1323 13.9805 18.1475 13.9805 18.1627 13.9805C18.1779 13.9805 18.1931 13.9805 18.2083 13.9805C18.2235 13.9805 18.2387 13.9805 18.2539 13.9805C18.2691 13.9805 18.2843 13.9805 18.2994 13.9805C18.3146 13.9805 18.3298 13.9805 18.3449 13.9805C18.3601 13.9805 18.3752 13.9805 18.3903 13.9805C18.4055 13.9805 18.4206 13.9805 18.4357 13.9805C18.4508 13.9805 18.4659 13.9805 18.481 13.9805C18.4961 13.9805 18.5112 13.9805 18.5263 13.9805C18.5414 13.9805 18.5565 13.9805 18.5715 13.9805C18.5866 13.9805 18.6017 13.9805 18.6167 13.9805C18.6317 13.9805 18.6468 13.9805 18.6618 13.9805C18.6768 13.9805 18.6919 13.9805 18.7069 13.9805C18.7219 13.9805 18.7369 13.9805 18.7519 13.9805C18.7669 13.9805 18.7819 13.9805 18.7968 13.9805C18.8118 13.9805 18.8268 13.9805 18.8417 13.9805C18.8567 13.9805 18.8716 13.9805 18.8866 13.9805C18.9015 13.9805 18.9164 13.9805 18.9313 13.9805C18.9463 13.9805 18.9612 13.9805 18.9761 13.9805C18.991 13.9805 19.0058 13.9805 19.0207 13.9805C19.0356 13.9805 19.0505 13.9805 19.0653 13.9805C19.0802 13.9805 19.095 13.9805 19.1099 13.9805C19.1247 13.9805 19.1395 13.9805 19.1543 13.9805C19.1692 13.9805 19.184 13.9805 19.1988 13.9805C19.2136 13.9805 19.2284 13.9805 19.2431 13.9805C19.2579 13.9805 19.2727 13.9805 19.2874 13.9805C19.3022 13.9805 19.3169 13.9805 19.3317 13.9805C19.3464 13.9805 19.3611 13.9805 19.3758 13.9805C19.3905 13.9805 19.4052 13.9805 19.4199 13.9805C19.4346 13.9805 19.4493 13.9805 19.464 13.9805C19.4786 13.9805 19.4933 13.9805 19.5079 13.9805C19.5226 13.9805 19.5372 13.9805 19.5518 13.9805C19.5665 13.9805 19.5811 13.9805 19.5957 13.9805C19.6103 13.9805 19.6249 13.9805 19.6394 13.9805C19.654 13.9805 19.6686 13.9805 19.6831 13.9805C19.6977 13.9805 19.7122 13.9805 19.7268 13.9805C19.7413 13.9805 19.7558 13.9805 19.7703 13.9805C19.7848 13.9805 19.7993 13.9805 19.8138 13.9805C19.8283 13.9805 19.8428 13.9805 19.8572 13.9805C19.8717 13.9805 19.8861 13.9805 19.9006 13.9805C19.915 13.9805 19.9294 13.9805 19.9438 13.9805C19.9583 13.9805 19.9727 13.9805 19.987 13.9805C20.0014 13.9805 20.0158 13.9805 20.0302 13.9805C20.0445 13.9805 20.0589 13.9805 20.0732 13.9805C20.0876 13.9805 20.1019 13.9805 20.1162 13.9805C20.1305 13.9805 20.1448 13.9805 20.1591 13.9805C20.1734 13.9805 20.1876 13.9805 20.2019 13.9805C20.2162 13.9805 20.2304 13.9805 20.2446 13.9805C20.2589 13.9805 20.2731 13.9805 20.2873 13.9805C20.3015 13.9805 20.3157 13.9805 20.3299 13.9805C20.3441 13.9805 20.3582 13.9805 20.3724 13.9805C20.3866 13.9805 20.4007 13.9805 20.4148 13.9805C20.429 13.9805 20.4431 13.9805 20.4572 13.9805C20.4713 13.9805 20.4854 13.9805 20.4994 13.9805C20.5135 13.9805 20.5276 13.9805 20.5416 13.9805C20.5557 13.9805 20.5697 13.9805 20.5837 13.9805C20.5977 13.9805 20.6117 13.9805 20.6257 13.9805C20.6397 13.9805 20.6537 13.9805 20.6677 13.9805C20.6816 13.9805 20.6956 13.9805 20.7095 13.9805C20.7234 13.9805 20.7374 13.9805 20.7513 13.9805C20.7652 13.9805 20.7791 13.9805 20.7929 13.9805C20.8068 13.9805 20.8207 13.9805 20.8345 13.9805C20.8484 13.9805 20.8622 13.9805 20.876 13.9805C20.8899 13.9805 20.9037 13.9805 20.9174 13.9805C20.9312 13.9805 20.945 13.9805 20.9588 13.9805C20.9725 13.9805 20.9863 13.9805 21 13.9805V11.9805Z" fill="white"/>
</svg>
