<svg width="21" height="22" viewBox="0 0 21 22" fill="none" xmlns="http://www.w3.org/2000/svg">
<path d="M14 18.9995H1V0.999512H15V8.99951" stroke="white"/>
<path d="M6 5.99951H13" stroke="white"/>
<path d="M6 9.99951H13" stroke="white"/>
<path d="M6 13.9995H10" stroke="white"/>
<circle cx="4" cy="5.99951" r="0.5" fill="white" stroke="white"/>
<circle cx="4" cy="9.99951" r="0.5" fill="white" stroke="white"/>
<circle cx="4" cy="13.9995" r="0.5" fill="white" stroke="white"/>
<path d="M15 9.99951V11.9995" stroke="white"/>
<path d="M19.306 13.7068C19.0861 13.4825 18.825 13.3047 18.5376 13.1833C18.2502 13.062 17.9422 12.9995 17.6311 12.9995C17.3201 12.9995 17.012 13.062 16.7247 13.1833C16.4373 13.3047 16.1762 13.4825 15.9563 13.7068L15.4999 14.1719L15.0435 13.7068C14.5993 13.2541 13.9968 12.9997 13.3686 12.9997C12.7404 12.9997 12.138 13.2541 11.6938 13.7068C11.2496 14.1595 11 14.7735 11 15.4137C11 16.0539 11.2496 16.6679 11.6938 17.1206L12.1501 17.5857L15.4999 20.9995L18.8496 17.5857L19.306 17.1206C19.526 16.8965 19.7006 16.6304 19.8196 16.3375C19.9387 16.0446 20 15.7307 20 15.4137C20 15.0967 19.9387 14.7827 19.8196 14.4899C19.7006 14.197 19.526 13.9309 19.306 13.7068Z" stroke="white" stroke-linecap="round" stroke-linejoin="round"/>
</svg>
