<svg width="34" height="24" viewBox="0 0 34 24" fill="none" xmlns="http://www.w3.org/2000/svg">
<rect x="0.5" y="0.5" width="33" height="23" rx="3.5" fill="white"/>
<path fill-rule="evenodd" clip-rule="evenodd" d="M17.1791 16.8306C15.9951 17.8287 14.4591 18.4312 12.7807 18.4312C9.03582 18.4312 6 15.4316 6 11.7312C6 8.03094 9.03582 5.03125 12.7807 5.03125C14.4591 5.03125 15.9951 5.6338 17.1791 6.63192C18.3632 5.6338 19.8992 5.03125 21.5776 5.03125C25.3224 5.03125 28.3583 8.03094 28.3583 11.7312C28.3583 15.4316 25.3224 18.4312 21.5776 18.4312C19.8992 18.4312 18.3632 17.8287 17.1791 16.8306Z" fill="#ED0006"/>
<path fill-rule="evenodd" clip-rule="evenodd" d="M17.1787 16.831C18.6368 15.6021 19.5615 13.7734 19.5615 11.7312C19.5615 9.68914 18.6368 7.86041 17.1787 6.63151C18.3627 5.63363 19.8985 5.03125 21.5767 5.03125C25.3215 5.03125 28.3574 8.03094 28.3574 11.7312C28.3574 15.4316 25.3215 18.4312 21.5767 18.4312C19.8985 18.4312 18.3627 17.8289 17.1787 16.831Z" fill="#F9A000"/>
<path fill-rule="evenodd" clip-rule="evenodd" d="M17.1791 16.8315C18.637 15.6026 19.5614 13.774 19.5614 11.7321C19.5614 9.69026 18.637 7.86171 17.1791 6.63281C15.7213 7.86171 14.7969 9.69026 14.7969 11.7321C14.7969 13.774 15.7213 15.6026 17.1791 16.8315Z" fill="#FF5E00"/>
<rect x="0.5" y="0.5" width="33" height="23" rx="3.5" stroke="#F2F4F7"/>
</svg>
