<svg width="356" height="344" viewBox="0 0 356 344" fill="none" xmlns="http://www.w3.org/2000/svg">
<g clip-path="url(#clip0_899_134867)">
<path d="M104.564 249.461L107.915 278.598C107.944 278.848 108.063 279.079 108.251 279.246C108.439 279.414 108.681 279.506 108.933 279.506L154.451 279.844C154.711 279.845 154.961 279.749 155.154 279.574C155.346 279.4 155.466 279.159 155.49 278.901L157.994 249.812C158.006 249.67 157.988 249.527 157.941 249.393C157.895 249.258 157.822 249.134 157.726 249.029C157.629 248.924 157.513 248.839 157.383 248.781C157.252 248.723 157.112 248.692 156.969 248.691L105.569 248.312C105.425 248.315 105.284 248.348 105.154 248.409C105.023 248.47 104.907 248.557 104.813 248.665C104.718 248.773 104.647 248.9 104.604 249.037C104.562 249.174 104.548 249.319 104.564 249.461Z" fill="#EBEBEB"/>
<path d="M155.002 247.331L108.295 246.988L108.09 274.9L154.797 275.242L155.002 247.331Z" fill="#F5F5F5"/>
<path d="M107.591 246.234L108.885 269.991C108.906 270.399 109.082 270.784 109.378 271.067C109.673 271.349 110.065 271.509 110.474 271.511L153.219 271.821C153.43 271.823 153.639 271.783 153.834 271.704C154.029 271.625 154.207 271.509 154.357 271.361C154.507 271.214 154.627 271.038 154.709 270.844C154.791 270.65 154.834 270.442 154.836 270.232L154.974 251.738C154.975 251.527 154.934 251.317 154.854 251.122C154.774 250.926 154.656 250.748 154.507 250.598C154.358 250.448 154.181 250.328 153.986 250.247C153.791 250.165 153.582 250.122 153.371 250.122H127.075C126.865 250.121 126.657 250.079 126.464 249.997C126.27 249.916 126.095 249.797 125.947 249.647L121.406 245.113C121.107 244.818 120.705 244.65 120.285 244.645L109.201 244.563C108.984 244.561 108.769 244.604 108.569 244.689C108.369 244.773 108.189 244.897 108.038 245.054C107.888 245.21 107.77 245.395 107.694 245.598C107.617 245.801 107.582 246.018 107.591 246.234Z" fill="#EBEBEB"/>
<path d="M48.416 163.106L49.7163 186.994C49.739 187.403 49.9168 187.788 50.2133 188.07C50.5099 188.353 50.9029 188.511 51.3125 188.514L94.2987 188.831C94.5107 188.833 94.721 188.793 94.9174 188.713C95.1139 188.633 95.2927 188.515 95.4436 188.367C95.5944 188.218 95.7144 188.04 95.7966 187.845C95.8787 187.649 95.9215 187.44 95.9224 187.228L96.06 168.652C96.0618 168.439 96.0215 168.228 95.9414 168.031C95.8613 167.834 95.743 167.655 95.5933 167.504C95.4437 167.353 95.2656 167.234 95.0693 167.152C94.8731 167.07 94.6626 167.028 94.4501 167.028H68.0102C67.799 167.028 67.5897 166.987 67.3948 166.905C67.1999 166.823 67.0232 166.704 66.875 166.553L62.3136 161.999C62.0151 161.697 61.6094 161.527 61.1853 161.524L50.0397 161.441C49.8224 161.439 49.6069 161.482 49.4063 161.565C49.2057 161.649 49.0241 161.772 48.8724 161.927C48.7207 162.083 48.602 162.268 48.5236 162.47C48.4451 162.673 48.4085 162.889 48.416 163.106Z" fill="#EBEBEB"/>
<path d="M96.0935 164.204L49.125 163.859L48.9193 191.922L95.8878 192.266L96.0935 164.204Z" fill="#F5F5F5"/>
<path d="M45.3679 166.351L48.7391 195.646C48.7693 195.897 48.8901 196.129 49.0788 196.297C49.2675 196.466 49.5113 196.56 49.7643 196.561L95.5369 196.898C95.7985 196.903 96.0519 196.807 96.245 196.63C96.4382 196.454 96.5565 196.21 96.5758 195.949L99.0938 166.702C99.1062 166.559 99.0889 166.416 99.0431 166.28C98.9973 166.145 98.924 166.02 98.8278 165.914C98.7315 165.808 98.6144 165.723 98.4838 165.665C98.3532 165.606 98.2119 165.575 98.0687 165.574L46.3999 165.195C46.2537 165.195 46.109 165.226 45.9755 165.286C45.8421 165.346 45.7227 165.433 45.6253 165.542C45.5278 165.651 45.4546 165.78 45.4102 165.919C45.3659 166.059 45.3515 166.206 45.3679 166.351Z" fill="#EBEBEB"/>
<path d="M243.581 167.235L244.703 187.807C244.72 188.159 244.873 188.492 245.129 188.735C245.385 188.979 245.725 189.114 246.079 189.114L283.093 189.389C283.458 189.389 283.808 189.244 284.066 188.986C284.324 188.728 284.469 188.378 284.469 188.013L284.586 172.003C284.586 171.638 284.441 171.288 284.183 171.03C283.925 170.772 283.575 170.627 283.21 170.627H260.451C260.268 170.628 260.087 170.593 259.918 170.523C259.749 170.453 259.596 170.351 259.467 170.221L255.552 166.245C255.296 165.986 254.947 165.84 254.582 165.839L244.985 165.77C244.794 165.766 244.604 165.801 244.428 165.874C244.252 165.947 244.093 166.056 243.961 166.194C243.829 166.332 243.727 166.495 243.661 166.675C243.596 166.854 243.569 167.045 243.581 167.235Z" fill="#EBEBEB"/>
<path d="M284.634 168.179L244.194 167.883L244.017 192.052L284.457 192.348L284.634 168.179Z" fill="#F5F5F5"/>
<path d="M240.96 170.025L243.856 195.247C243.88 195.464 243.983 195.665 244.146 195.811C244.308 195.957 244.519 196.038 244.737 196.038L284.153 196.327C284.377 196.328 284.594 196.244 284.76 196.093C284.925 195.941 285.028 195.732 285.047 195.508L287.214 170.328C287.226 170.205 287.211 170.081 287.172 169.964C287.133 169.847 287.071 169.74 286.988 169.649C286.905 169.557 286.804 169.484 286.691 169.434C286.579 169.384 286.457 169.358 286.334 169.358L241.847 169.027C241.721 169.027 241.597 169.054 241.482 169.106C241.367 169.158 241.264 169.233 241.18 169.327C241.096 169.421 241.033 169.532 240.995 169.653C240.957 169.773 240.945 169.9 240.96 170.025Z" fill="#EBEBEB"/>
<path d="M328.691 21.0625H262.911V129.945H328.691V21.0625Z" fill="#E0E0E0"/>
<path d="M326.503 21.0625H260.723V129.945H326.503V21.0625Z" fill="#EBEBEB"/>
<path d="M323.703 23.2695H263.523V127.735H323.703V23.2695Z" fill="white"/>
<path d="M311.979 36.8438H274.979V114.161H311.979V36.8438Z" fill="#EBEBEB"/>
<path d="M275.013 86.8096C274.931 79.5856 281.425 72.5336 288.574 71.5223C292.014 71.0476 295.612 71.7218 298.797 70.4146C304.487 68.0823 306.297 60.528 312.021 58.2852L312.282 114.165H275.013V86.8096Z" fill="#E0E0E0"/>
<path d="M103.863 44.3516H38.1104V139.653H103.863V44.3516Z" fill="#E0E0E0"/>
<path d="M100.567 44.3516H34.8145V139.653H100.567V44.3516Z" fill="#F5F5F5"/>
<path d="M92.3936 54.6719H42.9814V129.327H92.3936V54.6719Z" fill="white"/>
<path d="M92.3937 129.347C92.3937 129.347 92.3937 129.216 92.3937 128.982C92.3937 128.748 92.3937 128.383 92.3937 127.922C92.3937 126.98 92.3937 125.611 92.3937 123.794C92.3937 120.217 92.3937 115.009 92.3524 108.418C92.3524 95.2562 92.3042 76.6114 92.2698 54.6573L92.435 54.8224L42.9609 54.85L43.1398 54.6711C43.1398 82.8378 43.1398 108.803 43.1398 129.333L42.9953 129.188L78.9639 129.264L88.8986 129.298H91.5062H92.4074H91.5337H88.9537H79.0534L42.9609 129.47H42.8164V129.347C42.8164 108.817 42.8164 82.8516 42.8164 54.6848V54.4922H42.9609H92.3662H92.5313V54.6573C92.5313 76.6733 92.4694 95.3319 92.4487 108.528C92.4487 115.098 92.4487 120.299 92.4074 123.87C92.4074 125.638 92.4074 127.001 92.4074 127.929C92.4074 128.383 92.4074 128.727 92.4074 128.968C92.4074 129.209 92.3937 129.347 92.3937 129.347Z" fill="#E0E0E0"/>
<path d="M100.753 44.3516C100.417 44.9534 100.025 45.5223 99.5829 46.0509C98.8192 47.076 97.7322 48.4658 96.5007 49.9656C95.2692 51.4655 94.1064 52.8002 93.2464 53.7428C92.8123 54.2801 92.3286 54.7753 91.8016 55.222C92.1708 54.6387 92.5897 54.0886 93.0538 53.5776L96.2186 49.7386C97.4226 48.2869 98.5028 46.9866 99.3834 45.8996C99.795 45.3456 100.253 44.8277 100.753 44.3516Z" fill="#E0E0E0"/>
<path d="M92.6475 129.09C95.1025 132.995 97.9922 136.609 101.261 139.864L92.6475 129.09Z" fill="white"/>
<path d="M101.261 139.866C100.715 139.46 100.213 138.999 99.7614 138.49C97.471 136.152 95.4219 133.588 93.6451 130.839C93.2504 130.29 92.916 129.699 92.6475 129.078C93.0964 129.595 93.5058 130.144 93.8721 130.722C94.5601 131.741 95.6127 133.13 96.803 134.617C97.9932 136.103 99.1284 137.369 99.9609 138.332C100.432 138.81 100.867 139.323 101.261 139.866Z" fill="#E0E0E0"/>
<path d="M34.8008 139.575L43.4145 128.945L34.8008 139.575Z" fill="white"/>
<path d="M43.4143 128.945C42.1356 130.827 40.7577 132.639 39.2863 134.374C37.8973 136.186 36.4114 137.923 34.835 139.575C36.1192 137.7 37.4993 135.893 38.9698 134.16C40.362 132.348 41.8454 130.607 43.4143 128.945Z" fill="#E0E0E0"/>
<path d="M34.8145 44.3516C36.2966 45.939 37.6908 47.6065 38.9906 49.3464C40.3896 51.0111 41.6921 52.7546 42.8916 54.5684C41.4076 52.9704 40.0134 51.2914 38.7154 49.5391C37.321 47.8827 36.0187 46.1509 34.8145 44.3516Z" fill="#E0E0E0"/>
<path d="M77.0034 69.8281H60.457V116.805H77.0034V69.8281Z" fill="#E0E0E0"/>
<path d="M178.502 28.4102H126.826V82.2806H178.502V28.4102Z" fill="#E0E0E0"/>
<path d="M175 28.4102H123.324V82.2806H175V28.4102Z" fill="#FAFAFA"/>
<path d="M178.043 81.9868H126.333V28.082H178.043V81.9868ZM126.367 81.9524H178.009V28.1164H126.367V81.9524Z" fill="#E0E0E0"/>
<path d="M168.057 35.6562H130.272V75.0442H168.057V35.6562Z" fill="white"/>
<path d="M130.273 75.3047C130.004 75.6983 129.693 76.0606 129.344 76.3848C128.739 77.0247 127.892 77.8847 126.936 78.8204C125.98 79.756 125.113 80.5954 124.473 81.1871C124.146 81.5328 123.779 81.8378 123.379 82.0952C123.644 81.6991 123.956 81.3364 124.308 81.0151C124.906 80.3821 125.76 79.5152 126.716 78.5796C127.672 77.6439 128.539 76.8045 129.186 76.206C129.512 75.864 129.876 75.5615 130.273 75.3047Z" fill="#E0E0E0"/>
<path d="M168.059 75.207C168.454 75.4761 168.818 75.7875 169.146 76.1358C169.779 76.7413 170.639 77.5875 171.581 78.537C172.524 79.4864 173.349 80.367 173.941 81.0069C174.287 81.3335 174.592 81.7009 174.849 82.1008C174.453 81.8358 174.09 81.524 173.769 81.172C173.136 80.5666 172.269 79.7203 171.333 78.764C170.398 77.8077 169.558 76.9408 168.967 76.2941C168.622 75.9694 168.317 75.6044 168.059 75.207Z" fill="#E0E0E0"/>
<path d="M167.982 35.776C168.252 35.3815 168.566 35.0191 168.918 34.6959C169.517 34.056 170.363 33.196 171.319 32.2604C172.276 31.3247 173.142 30.4853 173.782 29.8936C174.103 29.5415 174.466 29.2296 174.862 28.9648C174.597 29.361 174.286 29.7237 173.934 30.045C173.335 30.6848 172.482 31.5448 171.526 32.4874C170.569 33.43 169.702 34.2624 169.056 34.8541C168.735 35.2025 168.375 35.5119 167.982 35.776Z" fill="#E0E0E0"/>
<path d="M130.142 35.8547C129.743 35.5911 129.378 35.2791 129.055 34.9259C128.422 34.3205 127.562 33.4742 126.626 32.5248C125.691 31.5753 124.851 30.7016 124.26 30.0549C123.914 29.7282 123.609 29.3609 123.352 28.9609C123.748 29.2259 124.11 29.5378 124.432 29.8897C125.065 30.4952 125.932 31.3414 126.867 32.2977C127.803 33.2541 128.642 34.1278 129.241 34.7677C129.583 35.0934 129.885 35.4583 130.142 35.8547Z" fill="#E0E0E0"/>
<path d="M167.983 75.0412C167.983 75.0412 167.983 74.9724 167.983 74.8485C167.983 74.7247 167.983 74.5321 167.983 74.2981C167.983 73.8028 167.983 73.0941 167.983 72.1722C167.983 70.3077 167.983 67.5901 167.983 64.1433C167.983 57.2633 167.934 47.418 167.907 35.6532L167.983 35.777H130.308L130.473 35.6119C130.473 50.0599 130.473 63.5929 130.473 74.9999L130.328 74.8554L157.614 74.9311L165.231 74.993H167.253H167.776H167.295H165.292H157.663L130.287 75.0687H130.143V74.9242C130.143 63.5172 130.143 49.9911 130.143 35.5362V35.3711H130.315H167.989H168.134V35.5156C168.134 47.3217 168.079 57.1807 168.058 64.102C168.058 67.542 168.058 70.2389 168.024 72.0965C168.024 73.0047 168.024 73.7064 168.024 74.1949C168.024 74.422 168.024 74.594 168.024 74.7247C168.02 74.8313 168.007 74.9373 167.983 75.0412Z" fill="#E0E0E0"/>
<path d="M155.474 49.043H142.863V61.654H155.474V49.043Z" fill="#EBEBEB"/>
<path d="M181.861 259.618L183.154 283.457C183.175 283.865 183.351 284.25 183.647 284.533C183.942 284.816 184.335 284.975 184.743 284.978L227.585 285.294C227.797 285.296 228.006 285.256 228.202 285.177C228.398 285.098 228.577 284.981 228.728 284.832C228.878 284.684 228.999 284.508 229.081 284.313C229.164 284.118 229.207 283.909 229.209 283.698L229.346 265.163C229.347 264.951 229.306 264.741 229.226 264.545C229.145 264.349 229.027 264.171 228.877 264.02C228.728 263.87 228.55 263.751 228.354 263.67C228.158 263.588 227.949 263.546 227.737 263.546H201.386C201.175 263.547 200.967 263.506 200.772 263.426C200.577 263.346 200.4 263.228 200.251 263.079L195.71 258.531C195.409 258.234 195.005 258.066 194.582 258.063L183.478 257.981C183.263 257.979 183.05 258.02 182.852 258.102C182.653 258.184 182.473 258.304 182.323 258.457C182.172 258.61 182.053 258.791 181.974 258.991C181.895 259.19 181.856 259.403 181.861 259.618Z" fill="#A01126"/>
<path d="M229.371 260.722L182.561 260.379L182.356 288.352L229.166 288.695L229.371 260.722Z" fill="#F5F5F5"/>
<path d="M178.82 262.852L182.185 292.051C182.213 292.302 182.333 292.533 182.52 292.702C182.708 292.87 182.951 292.964 183.203 292.966L228.824 293.303C229.084 293.303 229.335 293.205 229.527 293.029C229.719 292.854 229.839 292.613 229.863 292.354L232.374 263.203C232.386 263.061 232.368 262.918 232.321 262.783C232.275 262.649 232.202 262.525 232.105 262.42C232.009 262.314 231.893 262.23 231.762 262.172C231.632 262.114 231.492 262.083 231.349 262.082L179.873 261.703C179.726 261.701 179.579 261.729 179.444 261.787C179.308 261.845 179.187 261.932 179.087 262.04C178.988 262.149 178.912 262.278 178.866 262.418C178.82 262.558 178.805 262.706 178.82 262.852Z" fill="#E51937"/>
<path d="M317.431 103.098C315.119 100.174 315.071 94.8423 315.146 93.4181C315.325 90.1776 308.101 71.2645 290.2 79.0733C283.781 79.0733 283.677 85.4098 282.46 86.6826C281.242 87.9554 279.886 89.2832 279.563 91.017C278.999 94.0923 281.916 97.0783 281.173 100.112C280.898 101.248 280.134 102.218 279.597 103.257C279.02 104.185 278.565 105.699 278.813 106.538C279.124 107.358 279.533 108.136 280.031 108.857C280.535 109.584 280.766 110.466 280.685 111.347C280.402 112.902 278.621 113.769 278.111 115.276C277.602 116.783 278.565 118.282 279.412 119.583C280.258 120.883 281.07 122.527 280.389 123.924C279.937 124.617 279.377 125.232 278.731 125.747C277.859 126.654 277.275 127.797 277.05 129.034C276.825 130.271 276.969 131.547 277.465 132.703L287.785 130.639C288.243 125.736 288.702 120.828 289.161 115.916C292.174 116.666 295.47 114.739 296.901 114.375L298.655 113.425C302.494 114.113 306.636 113.859 310 111.898C313.365 109.937 318.353 112.448 317.699 108.602C317.334 106.758 318.607 104.577 317.431 103.098Z" fill="#263238"/>
<path d="M305.694 85.2023L291.68 81.0743C287.166 80.3863 283.933 85.8903 283.458 90.4035C282.935 95.4466 282.502 101.625 282.949 105.416C283.843 113.052 289.616 114.25 289.616 114.25C289.616 114.25 288.604 125.058 288.515 127.762L305.777 118.901L307.958 88.0024C307.998 87.3374 307.788 86.6814 307.369 86.1633C306.95 85.6451 306.353 85.3023 305.694 85.2023Z" fill="#B5694A"/>
<path d="M284.331 96.6021C284.318 96.855 284.404 97.1031 284.571 97.2933C284.738 97.4836 284.973 97.601 285.226 97.6204C285.349 97.6356 285.474 97.6261 285.593 97.5923C285.713 97.5584 285.824 97.501 285.921 97.4234C286.018 97.3458 286.098 97.2496 286.157 97.1405C286.216 97.0313 286.253 96.9114 286.265 96.7879C286.278 96.535 286.192 96.2869 286.025 96.0967C285.858 95.9064 285.623 95.789 285.37 95.7696C285.247 95.7534 285.122 95.7622 285.002 95.7957C284.882 95.8291 284.77 95.8864 284.673 95.9642C284.576 96.042 284.496 96.1386 284.437 96.2482C284.378 96.3579 284.342 96.4782 284.331 96.6021Z" fill="#263238"/>
<path d="M283.808 94.3818C284.464 94.4297 285.116 94.5124 285.762 94.6294C286.385 94.8818 286.993 95.1666 287.586 95.4826C287.654 95.4826 287.586 95.2555 287.297 94.9803C286.886 94.6111 286.397 94.3404 285.866 94.1891C285.351 94.0315 284.806 94.0008 284.276 94.0997C283.912 94.1891 283.76 94.3198 283.808 94.3818Z" fill="#263238"/>
<path d="M294.032 97.3924C294.021 97.646 294.108 97.894 294.277 98.0841C294.445 98.2742 294.68 98.3913 294.934 98.4107C295.057 98.425 295.182 98.4145 295.302 98.3799C295.421 98.3452 295.532 98.2872 295.629 98.209C295.726 98.1309 295.806 98.0342 295.865 97.9247C295.924 97.8152 295.96 97.6951 295.972 97.5713C295.982 97.3182 295.894 97.0711 295.726 96.8814C295.558 96.6918 295.324 96.5741 295.071 96.5531C294.948 96.5388 294.822 96.5493 294.703 96.5839C294.584 96.6185 294.472 96.6766 294.376 96.7547C294.279 96.8329 294.199 96.9295 294.14 97.039C294.081 97.1485 294.044 97.2687 294.032 97.3924Z" fill="#263238"/>
<path d="M294.211 95.7579C294.362 95.8267 295.112 95.3245 296.275 95.1594C297.438 94.9942 298.373 95.2488 298.483 95.1594C298.593 95.0699 298.373 94.9598 297.967 94.8429C297.384 94.687 296.775 94.6542 296.178 94.7466C295.597 94.8175 295.039 95.0199 294.548 95.3382C294.225 95.5446 294.135 95.7235 294.211 95.7579Z" fill="#263238"/>
<path d="M290.592 102.59C290.049 102.391 289.482 102.264 288.906 102.211C288.638 102.177 288.39 102.108 288.356 101.929C288.344 101.649 288.421 101.372 288.576 101.138C288.851 100.498 289.147 99.8309 289.45 99.1291C290.661 96.2808 291.555 93.9278 291.438 93.8797C291.321 93.8315 290.248 96.1088 289.03 98.9571C288.741 99.6451 288.459 100.333 288.191 100.973C288.011 101.29 287.947 101.66 288.012 102.019C288.048 102.113 288.104 102.198 288.177 102.268C288.249 102.339 288.336 102.392 288.432 102.425C288.579 102.472 288.732 102.5 288.886 102.507C289.449 102.604 290.022 102.632 290.592 102.59Z" fill="#263238"/>
<path d="M289.615 114.21C293.143 114.475 296.673 113.713 299.777 112.016C299.688 112.016 296.667 117.293 289.457 116.219L289.615 114.21Z" fill="#8F4F34"/>
<path d="M290.936 105.128C291.146 104.885 291.414 104.7 291.714 104.589C292.015 104.478 292.339 104.446 292.656 104.495C292.886 104.525 293.108 104.602 293.308 104.72C293.507 104.839 293.681 104.996 293.819 105.183C293.952 105.362 294.026 105.577 294.032 105.8C294.038 106.023 293.976 106.242 293.853 106.428C293.678 106.606 293.454 106.73 293.21 106.782C292.965 106.835 292.71 106.814 292.477 106.724C291.99 106.527 291.546 106.237 291.17 105.871C291.055 105.783 290.959 105.673 290.888 105.547C290.85 105.491 290.829 105.423 290.829 105.355C290.829 105.286 290.85 105.219 290.888 105.162" fill="#8F4F34"/>
<path d="M293.647 103.438C293.475 103.438 293.426 104.559 292.422 105.323C291.417 106.086 290.213 105.914 290.2 106.073C290.186 106.231 290.461 106.307 290.97 106.341C291.634 106.375 292.289 106.176 292.821 105.777C293.331 105.392 293.673 104.825 293.777 104.194C293.839 103.72 293.722 103.431 293.647 103.438Z" fill="#263238"/>
<path d="M294.342 92.0354C294.439 92.3175 295.484 92.228 296.709 92.4275C297.934 92.6271 298.91 92.9986 299.082 92.7509C299.158 92.6271 299 92.3587 298.608 92.0629C298.086 91.7041 297.49 91.4687 296.864 91.3745C296.239 91.2804 295.6 91.3299 294.996 91.5194C294.542 91.6776 294.308 91.8978 294.342 92.0354Z" fill="#263238"/>
<path d="M284.937 91.3518C285.109 91.5994 285.838 91.3518 286.705 91.4068C287.572 91.4619 288.301 91.627 288.48 91.4068C288.563 91.2899 288.48 91.0491 288.143 90.8083C287.719 90.5258 287.221 90.375 286.712 90.375C286.203 90.375 285.705 90.5258 285.281 90.8083C284.971 90.994 284.854 91.2348 284.937 91.3518Z" fill="#263238"/>
<path d="M290.028 80.0625C295.673 80.9509 301.191 82.5123 306.464 84.7134C307.689 85.2294 308.969 85.8279 309.657 86.9563C310.345 88.0846 310.29 89.6532 310.173 91.0843L308.418 111.456L307.689 111.415C305.625 111.759 305.446 110.685 303.939 109.179C303.195 108.415 302.638 107.488 302.313 106.472C301.989 105.456 301.905 104.378 302.068 103.324C302.371 101.473 303.444 99.6155 302.866 97.8198C302.102 95.4531 298.862 94.6137 298.084 92.2539C297.637 90.8779 298.146 89.323 297.623 87.9745C297.101 86.626 295.855 85.9105 294.596 85.4289C293.337 84.9473 291.982 84.5483 290.943 83.6745C289.904 82.8007 289.264 81.1839 290.028 80.0625Z" fill="#263238"/>
<path d="M244.042 66.4141H188.507C186.246 66.4141 184.413 68.2468 184.413 70.5077V115.145C184.413 117.406 186.246 119.239 188.507 119.239H244.042C246.303 119.239 248.136 117.406 248.136 115.145V70.5077C248.136 68.2468 246.303 66.4141 244.042 66.4141Z" fill="white"/>
<path d="M216.275 100.987C221.347 100.987 225.459 96.8746 225.459 91.802C225.459 86.7294 221.347 82.6172 216.275 82.6172C211.202 82.6172 207.09 86.7294 207.09 91.802C207.09 96.8746 211.202 100.987 216.275 100.987Z" fill="#E51937"/>
<path d="M214.066 94.4929V89.0715C214.065 89.0117 214.081 88.9529 214.11 88.9009C214.14 88.8489 214.182 88.8054 214.234 88.7749C214.285 88.7443 214.344 88.7277 214.403 88.7266C214.463 88.7255 214.522 88.7401 214.575 88.7688L219.391 91.5208C219.443 91.5517 219.487 91.5959 219.518 91.6491C219.548 91.7022 219.564 91.7623 219.564 91.8235C219.564 91.8847 219.548 91.9449 219.518 91.998C219.487 92.0511 219.443 92.0953 219.391 92.1262L214.575 94.8094C214.522 94.8412 214.461 94.8578 214.399 94.8572C214.337 94.8567 214.276 94.8391 214.224 94.8064C214.171 94.7737 214.128 94.7272 214.101 94.6719C214.073 94.6166 214.061 94.5547 214.066 94.4929Z" fill="white"/>
<path d="M273.908 296.903L275.504 312.211C275.504 312.211 260.478 318.967 260.492 321.843L290.283 319.834L288.783 295.844L273.908 296.903Z" fill="#455A64"/>
<g opacity="0.3">
<path d="M273.908 296.903L275.504 312.211C275.504 312.211 260.478 318.967 260.492 321.843L290.283 319.834L288.783 295.844L273.908 296.903Z" fill="#101010"/>
</g>
<g opacity="0.6">
<path d="M284.62 310.289C284.912 310.357 285.169 310.529 285.342 310.774C285.514 311.019 285.591 311.319 285.556 311.617C285.499 311.912 285.331 312.175 285.086 312.35C284.842 312.525 284.54 312.6 284.242 312.559C283.932 312.486 283.66 312.3 283.479 312.039C283.297 311.777 283.219 311.458 283.258 311.142C283.349 310.841 283.553 310.587 283.828 310.433C284.102 310.279 284.426 310.237 284.73 310.317" fill="white"/>
</g>
<g opacity="0.6">
<path d="M290.275 319.813L290.034 317.398L261.558 320.233C261.558 320.233 260.272 320.921 260.485 321.822L290.275 319.813Z" fill="white"/>
</g>
<path d="M275.002 312.092C275.002 312.236 275.752 312.25 276.495 312.669C277.238 313.089 277.665 313.674 277.796 313.612C277.926 313.55 277.651 312.718 276.736 312.236C275.821 311.754 274.961 311.961 275.002 312.092Z" fill="#263238"/>
<path d="M271.968 313.592C271.968 313.736 272.587 313.943 273.124 314.521C273.66 315.098 273.812 315.745 273.991 315.731C274.17 315.718 274.17 314.885 273.488 314.177C272.807 313.468 271.961 313.454 271.968 313.592Z" fill="#263238"/>
<path d="M270.441 317.454C270.578 317.454 270.73 316.766 270.303 315.968C269.877 315.17 269.175 314.922 269.12 315.046C269.065 315.17 269.519 315.569 269.856 316.209C270.193 316.848 270.296 317.454 270.441 317.454Z" fill="#263238"/>
<path d="M275.03 308.564C275.098 308.688 275.752 308.447 276.578 308.447C277.403 308.447 278.064 308.66 278.126 308.529C278.187 308.399 277.548 307.924 276.571 307.938C275.594 307.952 274.947 308.454 275.03 308.564Z" fill="#263238"/>
<path d="M274.762 305.473C275.26 305.573 275.776 305.535 276.255 305.363C276.786 305.232 277.299 305.036 277.782 304.778C278.069 304.628 278.344 304.458 278.608 304.269C278.77 304.165 278.914 304.035 279.034 303.884C279.122 303.773 279.169 303.636 279.169 303.495C279.169 303.354 279.122 303.217 279.034 303.106C278.956 303.01 278.855 302.934 278.742 302.884C278.628 302.834 278.505 302.811 278.381 302.817C278.19 302.827 278.002 302.866 277.823 302.934C277.51 303.034 277.206 303.161 276.915 303.313C276.428 303.575 275.985 303.912 275.601 304.31C274.954 304.998 274.755 305.556 274.81 305.583C274.865 305.611 275.181 305.15 275.849 304.572C276.237 304.238 276.667 303.955 277.128 303.733C277.4 303.604 277.68 303.496 277.968 303.409C278.277 303.306 278.546 303.285 278.656 303.409C278.766 303.533 278.697 303.485 278.656 303.581C278.564 303.687 278.46 303.781 278.346 303.863C278.092 304.049 277.837 304.214 277.583 304.365C277.145 304.623 276.684 304.84 276.207 305.012C275.715 305.131 275.232 305.285 274.762 305.473Z" fill="#263238"/>
<path d="M274.968 305.666C275.22 305.219 275.324 304.703 275.264 304.193C275.251 303.64 275.144 303.093 274.947 302.576C274.833 302.268 274.685 301.973 274.507 301.696C274.414 301.504 274.272 301.34 274.096 301.219C273.92 301.098 273.715 301.026 273.503 301.008C273.371 301.019 273.245 301.067 273.14 301.148C273.035 301.228 272.955 301.337 272.911 301.462C272.85 301.642 272.811 301.829 272.794 302.019C272.722 302.929 273.014 303.829 273.606 304.523C274.239 305.26 274.858 305.39 274.865 305.342C274.872 305.294 274.383 305.019 273.888 304.303C273.599 303.892 273.404 303.422 273.317 302.927C273.279 302.642 273.279 302.353 273.317 302.067C273.317 301.744 273.441 301.483 273.565 301.503C273.688 301.524 273.977 301.716 274.122 301.957C274.283 302.207 274.423 302.469 274.542 302.742C274.743 303.211 274.876 303.707 274.934 304.214C275.002 305.088 274.886 305.645 274.968 305.666Z" fill="#263238"/>
<path d="M271.321 184.867C271.321 184.867 258.125 244.778 257.719 250.131C257.313 255.483 274.08 301.662 274.08 301.662L288.528 298.91C288.528 298.91 287.613 230.709 287.152 229.374C286.691 228.039 290.833 194.513 290.833 194.513L271.321 184.867Z" fill="#263238"/>
<path d="M280.541 297.617L280.699 313.001C280.699 313.001 265.109 318.333 264.875 321.181L294.72 321.491L295.457 297.954L280.541 297.617Z" fill="#455A64"/>
<g opacity="0.6">
<path d="M289.952 311.949C290.23 312.042 290.466 312.232 290.615 312.485C290.764 312.738 290.817 313.036 290.764 313.325C290.679 313.609 290.49 313.85 290.235 314C289.98 314.151 289.677 314.199 289.388 314.137C289.086 314.036 288.833 313.826 288.677 313.549C288.521 313.272 288.472 312.947 288.542 312.637C288.658 312.344 288.885 312.109 289.173 311.98C289.46 311.852 289.787 311.841 290.083 311.949" fill="white"/>
</g>
<g opacity="0.6">
<path d="M294.706 321.491V319.523L266.092 319.695C266.092 319.695 264.75 320.239 264.874 321.181L294.706 321.491Z" fill="white"/>
</g>
<path d="M280.217 312.844C280.217 312.988 280.947 313.071 281.655 313.532C282.364 313.993 282.722 314.64 282.859 314.585C282.997 314.53 282.797 313.683 281.937 313.112C281.077 312.541 280.19 312.706 280.217 312.844Z" fill="#263238"/>
<path d="M277.052 314.054C277.018 314.198 277.644 314.459 278.119 315.086C278.593 315.712 278.731 316.372 278.875 316.372C279.02 316.372 279.13 315.547 278.524 314.776C277.919 314.005 277.059 313.916 277.052 314.054Z" fill="#263238"/>
<path d="M275.181 317.755C275.311 317.755 275.532 317.067 275.181 316.263C274.83 315.458 274.156 315.12 274.087 315.237C274.018 315.354 274.431 315.795 274.713 316.462C274.995 317.129 275.036 317.742 275.181 317.755Z" fill="#263238"/>
<path d="M280.575 309.326C280.63 309.464 281.304 309.278 282.123 309.326C282.942 309.374 283.581 309.684 283.664 309.56C283.746 309.436 283.141 308.872 282.171 308.824C281.201 308.776 280.506 309.209 280.575 309.326Z" fill="#263238"/>
<g opacity="0.3">
<path d="M280.575 300.664L280.596 303.402L295.271 303.643L295.353 301.173L280.575 300.664Z" fill="#101010"/>
</g>
<path d="M280.595 306.225C281.084 306.363 281.6 306.363 282.088 306.225C282.632 306.144 283.163 305.996 283.671 305.785C283.97 305.661 284.259 305.516 284.538 305.352C284.708 305.264 284.864 305.15 284.999 305.014C285.096 304.912 285.158 304.781 285.174 304.641C285.19 304.5 285.16 304.359 285.088 304.237C285.017 304.134 284.923 304.049 284.813 303.989C284.703 303.93 284.58 303.897 284.455 303.893C284.265 303.883 284.074 303.904 283.891 303.955C283.57 304.022 283.257 304.121 282.955 304.251C282.454 304.466 281.99 304.758 281.579 305.118C280.891 305.744 280.623 306.28 280.671 306.308C280.719 306.335 281.084 305.909 281.799 305.4C282.226 305.112 282.689 304.88 283.175 304.712C283.457 304.605 283.747 304.522 284.042 304.464C284.359 304.395 284.627 304.395 284.73 304.54C284.834 304.684 284.765 304.615 284.696 304.705C284.596 304.803 284.483 304.887 284.359 304.952C284.099 305.113 283.831 305.258 283.554 305.386C283.086 305.605 282.597 305.778 282.095 305.902C281.588 305.972 281.087 306.08 280.595 306.225Z" fill="#263238"/>
<path d="M280.781 306.439C281.072 306.019 281.224 305.518 281.215 305.008C281.252 304.454 281.197 303.898 281.05 303.363C280.963 303.046 280.844 302.74 280.692 302.448C280.617 302.248 280.491 302.07 280.327 301.933C280.163 301.795 279.967 301.703 279.756 301.664C279.623 301.663 279.492 301.701 279.379 301.773C279.267 301.845 279.178 301.948 279.123 302.07C279.041 302.242 278.985 302.425 278.958 302.614C278.903 302.946 278.903 303.285 278.958 303.618C279.026 304.18 279.232 304.716 279.557 305.18C280.121 305.964 280.726 306.157 280.733 306.109C280.74 306.06 280.286 305.744 279.859 304.987C279.612 304.552 279.462 304.068 279.419 303.57C279.397 303.282 279.415 302.992 279.474 302.71C279.529 302.393 279.653 302.139 279.77 302.173C279.887 302.208 280.162 302.421 280.279 302.675C280.418 302.938 280.535 303.212 280.63 303.494C280.782 303.98 280.868 304.485 280.884 304.994C280.871 305.875 280.706 306.411 280.781 306.439Z" fill="#263238"/>
<path d="M304.861 183.945L271.321 184.867L276.137 244.544L279.123 302.068L296.523 302.673C297.41 291.569 297.472 252.333 297.472 252.333L300.96 228.638C301.772 222.246 304.338 215.531 305.577 209.793C306.299 206.429 307.359 202.06 307.586 200.629C308.281 196.412 304.861 183.945 304.861 183.945Z" fill="#263238"/>
<path d="M273.275 198.598C273.283 198.687 273.283 198.777 273.275 198.866C273.275 199.059 273.275 199.32 273.275 199.65C273.275 200.338 273.206 201.37 273.158 202.664C273.11 203.957 273.034 205.574 272.979 207.432C272.924 209.289 272.828 211.408 272.787 213.747C272.656 218.426 272.587 223.999 272.615 230.191C272.642 236.383 272.807 243.18 273.158 250.315C273.509 257.449 274.059 264.24 274.679 270.397C275.016 273.473 275.312 276.397 275.683 279.128C275.862 280.504 276.013 281.811 276.192 283.077C276.371 284.343 276.557 285.554 276.729 286.71C277.045 289.028 277.417 291.113 277.713 292.95C278.009 294.787 278.291 296.39 278.538 297.649L279.068 300.614C279.123 300.945 279.171 301.199 279.199 301.385C279.206 301.474 279.206 301.564 279.199 301.653C279.169 301.568 279.146 301.481 279.13 301.392C279.096 301.206 279.041 300.951 278.972 300.628C278.827 299.94 278.628 298.942 278.373 297.67C278.119 296.397 277.802 294.814 277.493 292.978C277.183 291.141 276.805 289.063 276.454 286.744C276.275 285.588 276.089 284.378 275.896 283.112C275.711 281.846 275.552 280.525 275.367 279.162C274.981 276.41 274.679 273.507 274.328 270.425C273.695 264.267 273.144 257.477 272.78 250.335C272.415 243.194 272.291 236.383 272.264 230.191C272.236 223.999 272.353 218.419 272.511 213.741C272.567 211.401 272.677 209.282 272.752 207.425C272.828 205.567 272.911 203.985 272.986 202.657C273.062 201.329 273.131 200.352 273.172 199.643C273.172 199.313 273.213 199.059 273.227 198.866C273.235 198.775 273.252 198.686 273.275 198.598Z" fill="#455A64"/>
<path d="M254.183 118.792L245.597 109.621L238.827 114.361L245.597 124.379L254.183 118.792Z" fill="#B5694A"/>
<path d="M308.487 122.175L308.075 116.361L288.68 116.086L288.515 123.386C288.515 123.386 278.993 133.706 275.532 145.23C269.725 164.645 267.62 189.358 267.62 189.358H307.311C306.898 182.519 304.077 167.218 304.077 167.218L312.897 140.902C315.092 131.442 308.487 122.175 308.487 122.175Z" fill="#E51937"/>
<path d="M260.465 148.453C260.465 148.453 260.575 148.563 260.795 148.749C261.111 149.036 261.449 149.298 261.806 149.533C263.11 150.412 264.597 150.984 266.154 151.205C267.228 151.358 268.318 151.347 269.388 151.171C270.537 151.04 271.768 150.882 273.062 150.71C275.656 150.359 278.497 149.919 281.469 149.416L296.674 146.754L301.291 145.997L302.55 145.797L302.983 145.715L302.543 145.77L301.284 145.942C300.19 146.093 298.607 146.334 296.653 146.63C292.752 147.256 287.386 148.247 281.442 149.258C278.47 149.76 275.635 150.201 273.048 150.558C271.755 150.73 270.523 150.895 269.367 151.033C266.749 151.473 264.061 150.916 261.834 149.471C261.481 149.238 261.141 148.985 260.815 148.715C260.588 148.543 260.465 148.453 260.465 148.453Z" fill="#263238"/>
<path d="M309.711 139.074C309.733 139.024 309.747 138.971 309.753 138.916C309.753 138.779 309.815 138.627 309.849 138.469C309.925 138.077 310.021 137.513 310.124 136.804C310.425 134.965 310.376 133.086 309.98 131.266C309.537 129.43 308.438 127.82 306.891 126.739C306.42 126.427 305.902 126.194 305.356 126.051C305.159 125.994 304.956 125.954 304.751 125.934C305.487 126.11 306.186 126.415 306.815 126.835C308.315 127.921 309.378 129.507 309.815 131.307C310.207 133.116 310.268 134.981 309.994 136.811C309.911 137.499 309.828 138.084 309.766 138.476C309.766 138.641 309.746 138.792 309.705 138.93C309.701 138.978 309.703 139.027 309.711 139.074Z" fill="#263238"/>
<path d="M268.425 143.796C268.436 143.652 268.436 143.507 268.425 143.363L268.315 142.179C268.209 140.882 268.17 139.58 268.198 138.278C268.235 136.976 268.338 135.676 268.508 134.384C268.57 133.965 268.625 133.579 268.68 133.215C268.707 133.072 268.723 132.927 268.728 132.781C268.682 132.919 268.645 133.059 268.618 133.201C268.556 133.476 268.48 133.889 268.404 134.371C267.994 136.958 267.927 139.588 268.205 142.193C268.26 142.688 268.315 143.094 268.363 143.37C268.369 143.513 268.39 143.656 268.425 143.796Z" fill="#263238"/>
<path d="M288.741 123.277C289.227 121.927 289.944 120.672 290.86 119.568C292.236 117.69 293.749 115.722 295.917 114.835C297.389 114.236 301.194 114.567 302.212 113.342C305.377 109.503 300.74 107.15 302.418 101.845C304.269 96.0731 303.313 96.9607 303.457 92.413L310.482 89.3789C311.589 90.2045 314.658 93.1835 314.321 94.5251C313.993 95.9934 314.086 97.5242 314.589 98.9421C315.669 102.334 319.405 104.329 321.166 107.418C322.928 110.507 320.932 114.773 320.884 118.426C320.836 122.08 322.212 126.448 325.769 127.24C324.424 129.929 322.234 132.104 319.536 133.432L317.307 130.397C317.485 131.784 317.169 133.189 316.414 134.365C315.659 135.542 314.513 136.415 313.179 136.83C312.429 133.631 311.644 130.342 309.704 127.687C307.764 125.031 304.4 123.153 301.228 124.006C299.102 124.57 297.465 126.208 295.566 127.315C293.667 128.423 290.984 128.898 289.47 127.315C289.011 126.762 288.702 126.1 288.574 125.392C288.446 124.684 288.504 123.956 288.741 123.277Z" fill="#263238"/>
<g opacity="0.3">
<path d="M275.504 150.248C284.654 148.583 296.832 146.588 305.982 144.916C306.32 144.82 306.677 144.82 307.014 144.916C307.3 145.073 307.514 145.336 307.609 145.648C307.704 145.961 307.673 146.298 307.523 146.588C307.198 147.159 306.696 147.608 306.092 147.868C303.086 149.436 299.57 149.567 296.185 149.656L275.504 150.241V150.248Z" fill="#101010"/>
</g>
<path d="M268.852 151.161C271.7 151.216 304.449 145.23 304.449 145.23L268.852 151.161Z" fill="#E51937"/>
<path d="M303.891 124.782C306.292 125.078 307.854 125.47 310.661 128.497C310.985 128.854 311.265 129.249 311.493 129.673C314.617 135.177 312.36 142.745 306.375 144.844L300.582 146.034L268.851 151.16C268.851 151.16 262.095 152.673 256.288 143.667C254.162 140.358 239.501 118.493 239.501 118.493L249.133 112.047L268.548 132.818L303.891 124.782Z" fill="#E51937"/>
<path d="M260.465 148.453C260.465 148.453 260.575 148.563 260.795 148.749C261.111 149.036 261.449 149.298 261.806 149.533C263.11 150.412 264.597 150.984 266.154 151.205C267.228 151.358 268.318 151.347 269.388 151.171C270.537 151.04 271.768 150.882 273.062 150.71C275.656 150.359 278.497 149.919 281.469 149.416L296.674 146.754L301.291 145.997L302.55 145.797L302.983 145.715L302.543 145.77L301.284 145.942C300.19 146.093 298.607 146.334 296.653 146.63C292.752 147.256 287.386 148.247 281.442 149.258C278.47 149.76 275.635 150.201 273.048 150.558C271.755 150.73 270.523 150.895 269.367 151.033C266.749 151.473 264.061 150.916 261.834 149.471C261.481 149.238 261.141 148.985 260.815 148.715C260.588 148.543 260.465 148.453 260.465 148.453Z" fill="#263238"/>
<path d="M309.711 139.074C309.733 139.024 309.747 138.971 309.753 138.916C309.753 138.779 309.815 138.627 309.849 138.469C309.925 138.077 310.021 137.513 310.124 136.804C310.425 134.965 310.376 133.086 309.98 131.266C309.537 129.43 308.438 127.82 306.891 126.739C306.42 126.427 305.902 126.194 305.356 126.051C305.159 125.994 304.956 125.954 304.751 125.934C305.487 126.11 306.186 126.415 306.815 126.835C308.315 127.921 309.378 129.507 309.815 131.307C310.207 133.116 310.268 134.981 309.994 136.811C309.911 137.499 309.828 138.084 309.766 138.476C309.766 138.641 309.746 138.792 309.705 138.93C309.701 138.978 309.703 139.027 309.711 139.074Z" fill="#263238"/>
<path d="M268.425 143.796C268.436 143.652 268.436 143.507 268.425 143.363L268.315 142.179C268.209 140.882 268.17 139.58 268.198 138.278C268.235 136.976 268.338 135.676 268.508 134.384C268.57 133.965 268.625 133.579 268.68 133.215C268.707 133.072 268.723 132.927 268.728 132.781C268.682 132.919 268.645 133.059 268.618 133.201C268.556 133.476 268.48 133.889 268.404 134.371C267.994 136.958 267.927 139.588 268.205 142.193C268.26 142.688 268.315 143.094 268.363 143.37C268.369 143.513 268.39 143.656 268.425 143.796Z" fill="#263238"/>
<path d="M245.556 102.514C245.364 101.207 245.304 99.884 245.377 98.565C245.384 98.4979 245.375 98.4303 245.352 98.367C245.329 98.3037 245.292 98.2464 245.244 98.1994C245.195 98.1525 245.137 98.117 245.073 98.0957C245.009 98.0744 244.941 98.0679 244.875 98.0765C244.461 98.1308 244.072 98.3059 243.758 98.5801C243.443 98.8543 243.217 99.2152 243.106 99.6176C242.894 100.338 242.826 101.093 242.907 101.84C242.907 103.064 242.907 104.035 242.907 104.035C242.907 104.035 236.798 96.7211 235.559 96.3909C235.456 96.341 235.345 96.3122 235.23 96.306C235.116 96.2998 235.002 96.3164 234.895 96.3548C234.787 96.3932 234.688 96.4527 234.604 96.5298C234.519 96.6069 234.451 96.7 234.403 96.8037C234.176 97.1683 234.63 98.0214 234.63 98.0214L238.07 102.948C238.07 102.948 232.862 96.8243 231.92 96.8381C230.977 96.8518 230.544 97.5261 231.156 98.6613C231.603 99.4938 236.151 104.853 236.151 104.853C236.151 104.853 231.287 100.161 230.317 100.196C229.346 100.23 229.512 101.262 230.021 101.688C230.53 102.115 234.149 106.305 234.149 106.305C234.149 106.305 230.633 103.333 229.924 103.553C229.216 103.773 229.518 104.571 229.89 105.211C230.262 105.851 239.082 114.664 239.082 114.664L246.732 110.825C246.931 109.752 246.891 108.648 246.615 107.592C246.153 105.924 245.799 104.228 245.556 102.514Z" fill="#B5694A"/>
<path d="M133.219 189.414C131.357 189.406 129.574 188.662 128.26 187.342C126.946 186.023 126.208 184.237 126.208 182.375V121.185C126.262 119.64 126.926 118.18 128.054 117.124C129.182 116.067 130.683 115.502 132.228 115.55H137.98C139.112 115.572 140.227 115.278 141.2 114.699C142.172 114.12 142.964 113.28 143.484 112.275L144.715 109.764C145.233 108.764 146.019 107.928 146.985 107.349C147.951 106.771 149.059 106.473 150.185 106.489H177.492C178.518 106.476 179.531 106.721 180.437 107.202C181.344 107.683 182.115 108.384 182.679 109.241L184.021 111.367C184.584 112.223 185.354 112.924 186.259 113.405C187.165 113.886 188.176 114.132 189.201 114.119H224.014C225.561 114.069 227.064 114.635 228.193 115.693C229.321 116.751 229.984 118.214 230.034 119.76V182.368C230.034 184.235 229.293 186.025 227.973 187.345C226.653 188.665 224.863 189.407 222.996 189.407L133.219 189.414Z" fill="#E51937"/>
<g opacity="0.3">
<path d="M133.219 189.414C131.357 189.406 129.574 188.662 128.26 187.342C126.946 186.023 126.208 184.237 126.208 182.375V121.185C126.262 119.64 126.926 118.18 128.054 117.124C129.182 116.067 130.683 115.502 132.228 115.55H137.98C139.112 115.572 140.227 115.278 141.2 114.699C142.172 114.12 142.964 113.28 143.484 112.275L144.715 109.764C145.233 108.764 146.019 107.928 146.985 107.349C147.951 106.771 149.059 106.473 150.185 106.489H177.492C178.518 106.476 179.531 106.721 180.437 107.202C181.344 107.683 182.115 108.384 182.679 109.241L184.021 111.367C184.584 112.223 185.354 112.924 186.259 113.405C187.165 113.886 188.176 114.132 189.201 114.119H224.014C225.561 114.069 227.064 114.635 228.193 115.693C229.321 116.751 229.984 118.214 230.034 119.76V182.368C230.034 184.235 229.293 186.025 227.973 187.345C226.653 188.665 224.863 189.407 222.996 189.407L133.219 189.414Z" fill="#101010"/>
</g>
<path d="M185.706 114.153L163.553 114.105L161.578 110.404C160.907 109.202 159.923 108.204 158.732 107.515C157.54 106.826 156.185 106.471 154.808 106.489H133.157C129.304 106.489 126.181 109.413 126.181 113.025V181.99C126.181 186.118 129.731 189.414 134.106 189.414H222.047C226.429 189.414 229.972 186.09 229.972 181.99V119.224C229.972 117.879 229.438 116.589 228.487 115.638C227.536 114.687 226.247 114.153 224.902 114.153H185.706Z" fill="#E51937"/>
<path d="M196.873 166.414H187.069C186.886 166.414 186.711 166.342 186.582 166.213C186.453 166.084 186.381 165.909 186.381 165.726C186.381 165.544 186.453 165.369 186.582 165.24C186.711 165.111 186.886 165.038 187.069 165.038H196.873C199.415 165.043 201.859 164.055 203.683 162.284C205.507 160.513 206.567 158.099 206.637 155.558C206.707 153.016 205.781 150.548 204.058 148.679C202.334 146.81 199.948 145.689 197.409 145.554C197.262 145.547 197.122 145.493 197.008 145.4C196.894 145.307 196.813 145.18 196.776 145.038C196.052 142.241 194.564 139.701 192.479 137.701C190.394 135.701 187.793 134.321 184.969 133.714C182.144 133.107 179.206 133.298 176.484 134.265C173.761 135.232 171.361 136.937 169.552 139.19C169.479 139.283 169.382 139.355 169.273 139.399C169.163 139.444 169.043 139.46 168.926 139.444C168.433 139.381 167.937 139.349 167.44 139.348C164.086 139.426 160.895 140.813 158.55 143.213C156.205 145.612 154.892 148.834 154.892 152.19C154.892 155.545 156.205 158.767 158.55 161.167C160.895 163.567 164.086 164.954 167.44 165.031H175.386C175.569 165.031 175.744 165.104 175.873 165.233C176.002 165.362 176.074 165.537 176.074 165.719C176.074 165.902 176.002 166.077 175.873 166.206C175.744 166.335 175.569 166.407 175.386 166.407H167.406C163.632 166.407 160.013 164.908 157.345 162.24C154.677 159.572 153.178 155.953 153.178 152.179C153.178 148.406 154.677 144.787 157.345 142.119C160.013 139.451 163.632 137.952 167.406 137.952C167.828 137.952 168.251 137.975 168.671 138.02C170.647 135.659 173.229 133.88 176.138 132.873C179.048 131.867 182.177 131.671 185.19 132.308C188.202 132.944 190.985 134.388 193.239 136.485C195.494 138.582 197.135 141.254 197.987 144.212C200.845 144.478 203.49 145.838 205.369 148.007C207.249 150.176 208.218 152.987 208.074 155.854C207.93 158.721 206.685 161.421 204.598 163.391C202.51 165.361 199.743 166.449 196.873 166.428V166.414Z" fill="white"/>
<path d="M181.021 172.686C180.839 172.686 180.664 172.613 180.535 172.484C180.405 172.355 180.333 172.18 180.333 171.998V154.11C180.333 153.927 180.405 153.752 180.535 153.623C180.664 153.494 180.839 153.422 181.021 153.422C181.203 153.422 181.378 153.494 181.507 153.623C181.637 153.752 181.709 153.927 181.709 154.11V171.998C181.709 172.18 181.637 172.355 181.507 172.484C181.378 172.613 181.203 172.686 181.021 172.686Z" fill="white"/>
<path d="M186.25 161.235C186.142 161.236 186.036 161.211 185.939 161.164C185.842 161.116 185.758 161.046 185.693 160.96L181.138 154.85C181.122 154.83 181.101 154.814 181.077 154.803C181.053 154.793 181.027 154.787 181.001 154.788C180.976 154.789 180.951 154.795 180.929 154.805C180.906 154.816 180.886 154.831 180.87 154.85L176.054 160.788C175.938 160.931 175.77 161.022 175.587 161.041C175.404 161.061 175.22 161.007 175.077 160.891C174.934 160.775 174.843 160.607 174.823 160.424C174.804 160.24 174.858 160.057 174.974 159.914L179.79 153.976C179.941 153.795 180.131 153.649 180.345 153.549C180.559 153.45 180.792 153.398 181.028 153.398C181.263 153.402 181.495 153.459 181.704 153.565C181.914 153.671 182.097 153.823 182.239 154.011L186.808 160.127C186.862 160.2 186.902 160.283 186.925 160.372C186.947 160.46 186.952 160.552 186.938 160.642C186.925 160.733 186.894 160.819 186.846 160.897C186.799 160.976 186.737 161.043 186.663 161.097C186.544 161.186 186.399 161.235 186.25 161.235Z" fill="white"/>
<path d="M167.599 203.91V200.828H168.177V203.89C168.177 205.169 168.775 205.754 169.821 205.754C170.867 205.754 171.472 205.169 171.472 203.89V200.828H172.029V203.91C172.029 205.458 171.197 206.256 169.821 206.256C168.445 206.256 167.599 205.458 167.599 203.91Z" fill="white"/>
<path d="M177.72 204.194C177.735 204.465 177.694 204.736 177.599 204.99C177.503 205.245 177.356 205.476 177.167 205.67C176.977 205.865 176.749 206.017 176.497 206.118C176.245 206.219 175.975 206.267 175.704 206.258C175.4 206.268 175.099 206.2 174.829 206.06C174.559 205.92 174.33 205.714 174.163 205.46V207.717H173.619V202.213H174.142V202.962C174.306 202.699 174.537 202.483 174.811 202.337C175.085 202.191 175.393 202.119 175.704 202.13C175.975 202.122 176.245 202.17 176.496 202.272C176.747 202.373 176.975 202.526 177.164 202.72C177.354 202.914 177.501 203.145 177.597 203.399C177.692 203.652 177.734 203.923 177.72 204.194ZM177.176 204.194C177.164 203.898 177.065 203.611 176.891 203.371C176.718 203.13 176.478 202.946 176.2 202.84C175.923 202.735 175.62 202.714 175.331 202.779C175.042 202.844 174.778 202.993 174.572 203.207C174.367 203.421 174.229 203.691 174.175 203.983C174.121 204.274 174.155 204.576 174.271 204.849C174.387 205.121 174.581 205.354 174.828 205.518C175.076 205.682 175.366 205.769 175.663 205.769C175.867 205.773 176.071 205.734 176.26 205.655C176.449 205.576 176.62 205.459 176.762 205.311C176.904 205.163 177.014 204.988 177.085 204.796C177.157 204.603 177.187 204.399 177.176 204.194Z" fill="white"/>
<path d="M178.834 200.508H179.377V206.218H178.834V200.508Z" fill="white"/>
<path d="M180.491 204.197C180.491 203.789 180.613 203.39 180.839 203.05C181.066 202.711 181.388 202.446 181.766 202.29C182.143 202.134 182.558 202.093 182.958 202.172C183.359 202.252 183.726 202.449 184.015 202.737C184.304 203.026 184.5 203.394 184.58 203.794C184.659 204.195 184.619 204.61 184.462 204.987C184.306 205.364 184.042 205.686 183.702 205.913C183.363 206.14 182.964 206.261 182.555 206.261C182.282 206.27 182.009 206.224 181.754 206.123C181.5 206.023 181.268 205.871 181.075 205.678C180.881 205.484 180.729 205.253 180.629 204.998C180.529 204.743 180.482 204.47 180.491 204.197ZM184.055 204.197C184.042 203.902 183.942 203.617 183.768 203.379C183.594 203.14 183.354 202.958 183.077 202.854C182.801 202.751 182.5 202.731 182.212 202.797C181.924 202.864 181.662 203.013 181.459 203.227C181.255 203.441 181.119 203.71 181.067 204C181.015 204.291 181.05 204.591 181.166 204.862C181.283 205.133 181.477 205.364 181.724 205.526C181.971 205.688 182.26 205.773 182.555 205.772C182.76 205.776 182.963 205.737 183.151 205.657C183.34 205.578 183.51 205.461 183.651 205.313C183.792 205.165 183.9 204.99 183.97 204.797C184.04 204.605 184.069 204.401 184.055 204.197Z" fill="white"/>
<path d="M188.755 203.705V206.217H188.232V205.584C188.084 205.81 187.879 205.993 187.637 206.114C187.395 206.234 187.126 206.289 186.856 206.272C185.941 206.272 185.384 205.797 185.384 205.095C185.384 204.393 185.783 203.953 186.946 203.953H188.225V203.705C188.225 203.017 187.833 202.632 187.083 202.632C186.581 202.62 186.092 202.791 185.707 203.114L185.459 202.701C185.929 202.337 186.51 202.145 187.104 202.157C187.319 202.124 187.54 202.14 187.748 202.205C187.956 202.269 188.147 202.38 188.306 202.53C188.465 202.679 188.588 202.862 188.666 203.066C188.744 203.269 188.774 203.488 188.755 203.705ZM188.205 204.999V204.311H186.939C186.154 204.311 185.9 204.62 185.9 205.033C185.9 205.446 186.278 205.797 186.925 205.797C187.192 205.817 187.458 205.753 187.687 205.615C187.916 205.477 188.097 205.271 188.205 205.026V204.999Z" fill="white"/>
<path d="M193.943 200.506V206.216H193.42V205.411C193.258 205.678 193.028 205.896 192.753 206.044C192.479 206.191 192.169 206.263 191.858 206.251C191.311 206.251 190.786 206.033 190.398 205.646C190.011 205.259 189.794 204.734 189.794 204.187C189.794 203.639 190.011 203.114 190.398 202.727C190.786 202.34 191.311 202.123 191.858 202.123C192.162 202.112 192.463 202.18 192.733 202.32C193.003 202.459 193.232 202.667 193.399 202.921V200.492L193.943 200.506ZM193.406 204.194C193.392 203.899 193.293 203.614 193.119 203.375C192.945 203.137 192.705 202.954 192.428 202.851C192.151 202.748 191.851 202.728 191.563 202.794C191.275 202.86 191.013 203.01 190.809 203.224C190.606 203.437 190.47 203.706 190.418 203.997C190.366 204.288 190.4 204.587 190.517 204.859C190.634 205.13 190.828 205.361 191.075 205.523C191.322 205.684 191.611 205.77 191.906 205.769C192.11 205.771 192.313 205.732 192.501 205.652C192.689 205.573 192.858 205.456 192.999 205.308C193.14 205.16 193.248 204.985 193.318 204.793C193.388 204.601 193.418 204.397 193.406 204.194Z" fill="white"/>
<path d="M195.112 205.834C195.11 205.779 195.119 205.725 195.138 205.674C195.158 205.623 195.188 205.577 195.225 205.538C195.263 205.499 195.309 205.467 195.359 205.446C195.409 205.425 195.463 205.414 195.517 205.414C195.572 205.414 195.627 205.425 195.677 205.446C195.728 205.467 195.773 205.498 195.812 205.537C195.85 205.576 195.881 205.623 195.901 205.674C195.921 205.725 195.931 205.779 195.93 205.834C195.93 205.944 195.887 206.05 195.81 206.128C195.733 206.207 195.628 206.252 195.517 206.253C195.463 206.253 195.41 206.241 195.36 206.219C195.31 206.198 195.265 206.167 195.228 206.128C195.19 206.089 195.16 206.043 195.14 205.992C195.12 205.942 195.111 205.888 195.112 205.834Z" fill="white"/>
<path d="M196.742 205.834C196.741 205.78 196.751 205.726 196.771 205.675C196.791 205.625 196.821 205.579 196.858 205.54C196.896 205.501 196.941 205.47 196.991 205.448C197.04 205.427 197.094 205.415 197.148 205.414C197.203 205.414 197.257 205.425 197.308 205.446C197.358 205.467 197.404 205.498 197.443 205.537C197.481 205.576 197.511 205.623 197.532 205.674C197.552 205.725 197.562 205.779 197.561 205.834C197.561 205.944 197.518 206.05 197.44 206.128C197.363 206.207 197.258 206.252 197.148 206.253C197.094 206.253 197.04 206.241 196.991 206.219C196.941 206.198 196.896 206.167 196.858 206.128C196.821 206.089 196.791 206.043 196.771 205.992C196.751 205.942 196.741 205.888 196.742 205.834Z" fill="white"/>
<path d="M198.373 205.834C198.371 205.779 198.381 205.725 198.4 205.674C198.42 205.623 198.449 205.577 198.487 205.538C198.525 205.499 198.57 205.467 198.621 205.446C198.671 205.425 198.725 205.414 198.779 205.414C198.834 205.414 198.888 205.425 198.939 205.446C198.989 205.467 199.035 205.498 199.074 205.537C199.112 205.576 199.142 205.623 199.163 205.674C199.183 205.725 199.193 205.779 199.192 205.834C199.192 205.944 199.149 206.05 199.072 206.128C198.994 206.207 198.889 206.252 198.779 206.253C198.725 206.253 198.671 206.241 198.622 206.219C198.572 206.198 198.527 206.167 198.489 206.128C198.452 206.089 198.422 206.043 198.402 205.992C198.382 205.942 198.372 205.888 198.373 205.834Z" fill="white"/>
<path d="M233.406 215.422H126.105C123.586 215.422 121.544 217.464 121.544 219.983V221.311C121.544 223.83 123.586 225.873 126.105 225.873H233.406C235.925 225.873 237.967 223.83 237.967 221.311V219.983C237.967 217.464 235.925 215.422 233.406 215.422Z" fill="#E0E0E0"/>
<path d="M175.194 215.422H126.105C123.586 215.422 121.544 217.464 121.544 219.983V221.311C121.544 223.83 123.586 225.873 126.105 225.873H175.194C177.713 225.873 179.756 223.83 179.756 221.311V219.983C179.756 217.464 177.713 215.422 175.194 215.422Z" fill="#E51937"/>
<g opacity="0.3">
<path d="M130.337 215.422L124.145 225.253L125.115 225.687C125.389 225.81 125.687 225.873 125.988 225.873H127.956L134.685 215.422H130.337Z" fill="white"/>
</g>
<g opacity="0.3">
<path d="M141.413 215.422L134.829 225.873H139.033L145.755 215.422H141.413Z" fill="white"/>
</g>
<g opacity="0.3">
<path d="M152.484 215.422L145.899 225.873H150.103L156.832 215.422H152.484Z" fill="white"/>
</g>
<g opacity="0.3">
<path d="M163.56 215.422L156.969 225.873H161.172L167.901 215.422H163.56Z" fill="white"/>
</g>
<g opacity="0.3">
<path d="M174.63 215.422L168.046 225.873H172.249L177.547 217.617L178.18 216.722C177.368 215.848 176.123 215.484 174.63 215.422Z" fill="white"/>
</g>
<path d="M233.537 225.874C233.537 225.874 233.75 225.874 234.163 225.805C234.776 225.721 235.365 225.507 235.89 225.179C236.751 224.652 237.411 223.853 237.768 222.908C237.993 222.311 238.096 221.675 238.07 221.037C238.113 220.311 238.058 219.582 237.905 218.87C237.687 218.044 237.238 217.298 236.612 216.717C235.987 216.136 235.209 215.745 234.369 215.588C233.895 215.521 233.416 215.495 232.938 215.512H228.232H213.22L126.312 215.561C125.288 215.562 124.296 215.917 123.504 216.567C122.713 217.217 122.171 218.12 121.97 219.124C121.894 219.63 121.866 220.141 121.888 220.652C121.866 221.161 121.901 221.671 121.991 222.172C122.197 223.145 122.726 224.02 123.491 224.654C124.257 225.288 125.215 225.646 126.209 225.667H135.359H158.434L197.506 225.709L223.85 225.764L231.012 225.798H232.876H233.509H232.876H231.012H223.85L197.506 225.86L158.434 225.894H135.359H126.209C125.125 225.885 124.078 225.507 123.237 224.823C122.397 224.139 121.815 223.19 121.585 222.131C121.487 221.605 121.451 221.069 121.475 220.535C121.451 220.001 121.48 219.466 121.565 218.939C121.778 217.852 122.363 216.873 123.219 216.171C124.075 215.468 125.149 215.084 126.257 215.086L213.165 215.141H228.177H232.883C233.373 215.122 233.864 215.152 234.348 215.23C235.215 215.396 236.017 215.804 236.661 216.406C237.305 217.009 237.765 217.782 237.988 218.636C238.135 219.362 238.185 220.105 238.139 220.844C238.156 221.497 238.047 222.147 237.816 222.757C237.44 223.714 236.758 224.52 235.876 225.048C235.337 225.371 234.737 225.577 234.114 225.654C233.929 225.745 233.736 225.818 233.537 225.874Z" fill="#263238"/>
<g clip-path="url(#clip1_899_134867)">
<path d="M1.21223 287.986C1.99406 289.41 2.97999 290.873 4.00572 292.133C5.03145 293.392 6.42562 294.935 7.85444 295.214C8.67091 295.373 9.27811 294.432 8.74535 293.904C7.92374 292.685 6.3306 292.162 5.26507 291.107C3.99543 290.012 3.17381 288.792 2.18788 287.329C1.65512 286.801 0.883589 287.498 1.21223 287.986Z" fill="#101010"/>
<path d="M18.6287 296.466C16.9162 296.556 15.0394 296.402 13.2023 296.044C12.5899 295.925 12.391 296.945 13.0033 297.065C15.4527 297.542 20.1128 299.722 22.2232 297.591C22.7111 297.262 22.2181 296.53 21.8099 296.451C20.7893 296.252 19.6891 296.461 18.6287 296.466Z" fill="#101010"/>
<path d="M28.6132 286.55C28.3847 289.895 28.4399 292.872 26.2101 295.615C25.9264 295.984 26.2948 296.268 26.5785 295.899C29.4207 293.275 31.1178 290.004 29.9573 286.176C29.7082 285.28 28.5284 285.897 28.6132 286.55Z" fill="#101010"/>
<path d="M20.8644 269.782C21.1584 271.535 22.1444 272.998 22.8864 274.626C23.7927 276.498 24.7389 278.165 25.8891 279.873C26.2178 280.361 27.1536 279.907 26.8648 279.215C25.8788 277.752 25.3409 276.164 24.5989 274.536C23.8569 272.908 23.3986 270.912 22.4126 269.449C21.9197 268.717 20.6154 268.886 20.8644 269.782Z" fill="#101010"/>
<path d="M8.83382 253.244C9.54634 257.197 12.3398 261.344 14.6801 264.554C15.2129 265.082 15.9446 264.589 15.6558 263.897C14.5453 261.985 13.4747 259.87 12.6081 257.794C11.8661 256.166 11.368 254.374 10.382 252.911C9.68493 252.139 8.74908 252.592 8.83382 253.244Z" fill="#101010"/>
<path d="M4.82309 233.602C3.90268 237.236 4.61521 241.189 5.2032 244.694C5.28794 245.346 6.1442 245.301 6.26358 244.689C5.9195 241.02 6.18776 237.47 6.66014 233.96C6.65499 232.9 5.02206 232.581 4.82309 233.602Z" fill="#101010"/>
<path d="M14.225 221.242C12.8013 222.023 11.2981 223.214 10.0387 224.239C9.02329 225.101 10.0092 226.564 11.189 225.947C12.4086 225.125 13.8322 224.343 15.2559 223.561C16.6796 222.779 18.7156 222.117 20.0147 220.887C20.5423 220.354 20.0892 219.419 19.2329 219.464C17.6 219.145 15.6885 220.256 14.225 221.242Z" fill="#101010"/>
<path d="M26.0042 219.511C25.1877 219.352 24.9092 220.78 25.7257 220.939C27.7271 221.541 29.4845 222.308 31.446 223.114C33.2035 223.881 34.8416 225.259 36.8828 225.657C37.9033 225.856 38.5901 224.507 37.6492 223.899C34.5374 221.386 29.7181 220.023 26.0042 219.511Z" fill="#101010"/>
<path d="M44.9089 232.308C46.1387 233.608 47.3686 234.907 48.5984 236.206C49.8681 237.301 51.0183 239.008 52.6114 239.531C53.4279 239.69 53.7912 238.913 53.7065 238.261C53.3727 236.713 51.655 235.743 50.5497 234.892C49.1157 233.553 47.4378 232.378 46.0039 231.039C45.0629 230.432 44.2118 231.537 44.9089 232.308Z" fill="#101010"/>
<path d="M57.8192 245.421C59.094 247.577 60.4484 249.324 62.0466 250.907C63.6449 252.49 65.9801 254.64 68.305 254.669C69.3653 254.664 69.7684 253.683 69.0713 252.912C67.8415 251.613 65.8401 251.011 64.3266 250.08C62.0364 248.786 60.0696 246.919 58.3468 244.889C58.2223 244.441 57.4905 244.933 57.8192 245.421Z" fill="#101010"/>
<path d="M75.5541 260.955C76.8289 263.11 78.3874 264.897 80.3939 266.559C82.4004 268.222 84.9798 270.208 87.5088 270.277C88.3651 270.232 88.6038 269.008 88.0313 268.684C86.4327 267.101 83.9833 266.624 82.1013 265.409C80.0155 264.155 78.0484 262.288 76.3256 260.258C75.997 259.77 75.0611 260.223 75.5541 260.955Z" fill="#101010"/>
<path d="M106.745 267.246C105.65 268.516 104.799 269.621 103.375 270.403C101.543 271.105 99.0142 271.036 97.1771 270.678C96.5644 270.558 96.3654 271.579 96.9781 271.698C100.777 272.863 107.671 273.359 108.502 268.013C108.457 267.156 107.312 266.509 106.745 267.246Z" fill="#101010"/>
<path d="M118.107 247.005C117.465 249.21 117.435 251.535 116.997 253.78C116.236 256.598 114.902 259.093 112.831 261.02C112.548 261.388 113.121 261.712 113.364 261.547C117.466 257.898 121.478 252.535 120.267 246.79C119.853 245.651 118.306 245.984 118.107 247.005Z" fill="#101010"/>
<path d="M107.61 226.947C108.148 228.535 109.134 229.998 109.836 231.83C110.374 233.418 110.463 235.131 110.349 236.804C110.354 237.864 111.783 238.143 111.982 237.122C112.903 233.488 112.593 228.554 109.521 225.836C108.66 224.821 107.4 225.847 107.61 226.947Z" fill="#101010"/>
<path d="M96.9936 216.189C99.1298 219.36 101.43 222.774 104.338 225.248C105.24 226.06 106.13 224.75 105.433 223.979C103.013 221.176 101.688 217.104 98.5367 214.795C97.5562 214.392 96.3366 215.214 96.9936 216.189Z" fill="#101010"/>
<path d="M100.182 200.922C98.8382 201.296 97.7034 202.769 96.8523 203.875C95.9614 205.184 95.4393 206.777 95.1209 208.41C94.9219 209.431 96.3504 209.709 96.5494 208.689C96.8279 207.26 97.4753 206.115 98.3264 205.01C99.1378 204.108 100.318 203.491 101.128 202.59C101.9 201.893 101.078 200.673 100.182 200.922Z" fill="#101010"/>
<path d="M110.531 190.227C105.279 192.169 99.6137 192.972 94.2374 194.466C91.7533 195.253 93.1578 198.917 95.6021 198.334C100.042 197.293 104.647 196.495 109.003 194.802C108.849 196.679 108.695 198.556 108.501 200.637C108.546 201.493 108.268 202.922 108.965 203.693L109.129 203.937C109.129 203.937 109.089 204.141 109.293 204.181C109.622 204.669 110.518 204.42 110.598 204.011C110.842 203.847 110.881 203.643 110.961 203.235C111.364 202.254 111.359 201.194 111.598 199.969C111.911 197.276 112.184 194.786 112.906 192.173C113.349 190.988 111.875 189.853 110.531 190.227Z" fill="#101010"/>
</g>
</g>
<defs>
<clipPath id="clip0_899_134867">
<rect width="356" height="344" fill="white"/>
</clipPath>
<clipPath id="clip1_899_134867">
<rect width="124.052" height="144.749" fill="white" transform="translate(-22 290.758) rotate(-78.9682)"/>
</clipPath>
</defs>
</svg>
